# MagicaVoxel @ Ephtracy

# group
o 

# material
mtllib wire_plus_turn.mtl
usemtl palette

# normals
vn -1 0 0
vn 1 0 0
vn 0 0 1
vn 0 0 -1
vn 0 -1 0
vn 0 1 0

# texcoords
vt 0.306641 0.5
vt 0.994141 0.5

# verts
v -2 0 0.0999999
v -2 0 -0.1
v -2 0.1 0.0999999
v -2 0.1 -0.1
v -0.0999999 0 2
v -0.0999999 0 0.0999999
v -0.0999999 0 -0.1
v -0.0999999 0 -2
v -0.0999999 0.1 2
v -0.0999999 0.1 0.0999999
v -0.0999999 0.1 -0.1
v -0.0999999 0.1 -2
v 0.1 0 2
v 0.1 0 0.0999999
v 0.1 0 -0.1
v 0.1 0 -2
v 0.1 0.1 2
v 0.1 0.1 0.0999999
v 0.1 0.1 -0.1
v 0.1 0.1 -2
v 2 0 0.0999999
v 2 0 -0.1
v 2 0.1 0.0999999
v 2 0.1 -0.1
v -0.0999999 0 2
v -0.0999999 0.1 2
v 0.1 0 2
v 0.1 0.1 2
v -2 0 0.0999999
v -2 0.1 0.0999999
v -0.0999999 0 0.0999999
v -0.0999999 0.1 0.0999999
v 0.1 0 0.0999999
v 0.1 0.1 0.0999999
v 2 0 0.0999999
v 2 0.1 0.0999999
v -2 0 -0.1
v -2 0.1 -0.1
v -0.0999999 0 -0.1
v -0.0999999 0.1 -0.1
v 0.1 0 -0.1
v 0.1 0.1 -0.1
v 2 0 -0.1
v 2 0.1 -0.1
v -0.0999999 0 -2
v -0.0999999 0.1 -2
v 0.1 0 -2
v 0.1 0.1 -2
v -0.0999999 0 2
v 0.1 0 2
v -2 0 0.0999999
v -0.0999999 0 0.0999999
v 0.1 0 0.0999999
v 2 0 0.0999999
v -2 0 -0.1
v -0.0999999 0 -0.1
v 0.1 0 -0.1
v 2 0 -0.1
v -0.0999999 0 -2
v 0.1 0 -2
v -0.0999999 0.1 2
v 0.1 0.1 2
v -2 0.1 0.0999999
v -0.0999999 0.1 0.0999999
v 0.1 0.1 0.0999999
v 2 0.1 0.0999999
v -2 0.1 -0.1
v -0.0999999 0.1 -0.1
v 0.1 0.1 -0.1
v 2 0.1 -0.1
v -0.0999999 0.1 -2
v 0.1 0.1 -2

# faces
f 3/1/1 2/1/1 1/1/1
f 4/1/1 2/1/1 3/1/1
f 9/1/1 6/1/1 5/1/1
f 10/1/1 6/1/1 9/1/1
f 11/2/1 8/2/1 7/2/1
f 12/2/1 8/2/1 11/2/1
f 13/1/2 14/1/2 17/1/2
f 17/1/2 14/1/2 18/1/2
f 15/2/2 16/2/2 19/2/2
f 19/2/2 16/2/2 20/2/2
f 21/2/2 22/2/2 23/2/2
f 23/2/2 22/2/2 24/2/2
f 27/1/3 26/1/3 25/1/3
f 28/1/3 26/1/3 27/1/3
f 31/1/3 30/1/3 29/1/3
f 32/1/3 30/1/3 31/1/3
f 35/2/3 34/2/3 33/2/3
f 36/2/3 34/2/3 35/2/3
f 37/1/4 38/1/4 39/1/4
f 39/1/4 38/1/4 40/1/4
f 41/2/4 42/2/4 43/2/4
f 43/2/4 42/2/4 44/2/4
f 45/2/4 46/2/4 47/2/4
f 47/2/4 46/2/4 48/2/4
f 52/1/5 50/1/5 49/1/5
f 53/1/5 50/1/5 52/1/5
f 55/1/5 52/1/5 51/1/5
f 55/1/5 53/1/5 52/1/5
f 56/1/5 53/1/5 55/1/5
f 57/2/5 54/2/5 53/2/5
f 57/1/5 53/1/5 56/1/5
f 58/2/5 54/2/5 57/2/5
f 59/2/5 57/2/5 56/2/5
f 60/2/5 57/2/5 59/2/5
f 61/1/6 62/1/6 64/1/6
f 64/1/6 62/1/6 65/1/6
f 63/1/6 64/1/6 67/1/6
f 64/1/6 65/1/6 67/1/6
f 67/1/6 65/1/6 68/1/6
f 65/2/6 66/2/6 69/2/6
f 68/1/6 65/1/6 69/1/6
f 69/2/6 66/2/6 70/2/6
f 68/2/6 69/2/6 71/2/6
f 71/2/6 69/2/6 72/2/6
