# MagicaVoxel @ Ephtracy

# group
o 

# material
mtllib Cup.mtl
usemtl palette

# normals
vn -1 0 0
vn 1 0 0
vn 0 0 1
vn 0 0 -1
vn 0 -1 0
vn 0 1 0

# texcoords
vt 0.814453 0.5
vt 0.818359 0.5
vt 0.912109 0.5

# verts
v -0.3 0 0.2
v -0.3 0 0
v -0.3 0 -0.1
v -0.3 0 -0.2
v -0.3 0 -0.3
v -0.3 0 -0.4
v -0.3 0.1 0.1
v -0.3 0.1 0
v -0.3 0.1 -0.1
v -0.3 0.1 -0.2
v -0.3 0.1 -0.3
v -0.3 0.2 0.1
v -0.3 0.2 0
v -0.3 0.2 -0.1
v -0.3 0.2 -0.2
v -0.3 0.2 -0.3
v -0.3 0.3 0.1
v -0.3 0.3 0
v -0.3 0.3 -0.1
v -0.3 0.3 -0.2
v -0.3 0.3 -0.3
v -0.3 0.4 0.1
v -0.3 0.4 0
v -0.3 0.4 -0.1
v -0.3 0.4 -0.2
v -0.3 0.4 -0.3
v -0.3 0.5 0.1
v -0.3 0.5 0
v -0.3 0.5 -0.1
v -0.3 0.5 -0.2
v -0.3 0.5 -0.3
v -0.3 0.6 0.2
v -0.3 0.6 0.1
v -0.3 0.6 0
v -0.3 0.6 -0.1
v -0.3 0.6 -0.2
v -0.3 0.6 -0.4
v -0.1 0 0.4
v -0.1 0 0.2
v -0.1 0.1 0.3
v -0.1 0.1 0.2
v -0.1 0.4 0.3
v -0.1 0.4 0.2
v -0.1 0.5 0.4
v -0.1 0.5 0.2
v 0.2 0.1 0.1
v 0.2 0.1 0
v 0.2 0.1 -0.1
v 0.2 0.1 -0.2
v 0.2 0.1 -0.3
v 0.2 0.2 0.1
v 0.2 0.2 0
v 0.2 0.2 -0.1
v 0.2 0.2 -0.2
v 0.2 0.2 -0.3
v 0.2 0.3 0.1
v 0.2 0.3 0
v 0.2 0.3 -0.1
v 0.2 0.3 -0.2
v 0.2 0.3 -0.3
v 0.2 0.4 0.1
v 0.2 0.4 0
v 0.2 0.4 -0.1
v 0.2 0.4 -0.2
v 0.2 0.4 -0.3
v 0.2 0.5 0.1
v 0.2 0.5 0
v 0.2 0.5 -0.1
v 0.2 0.5 -0.2
v 0.2 0.5 -0.3
v 0.2 0.6 0.1
v 0.2 0.6 0
v 0.2 0.6 -0.1
v 0.2 0.6 -0.2
v 0.2 0.6 -0.3
v -0.2 0.1 0.1
v -0.2 0.1 0
v -0.2 0.1 -0.1
v -0.2 0.1 -0.2
v -0.2 0.1 -0.3
v -0.2 0.2 0.1
v -0.2 0.2 0
v -0.2 0.2 -0.1
v -0.2 0.2 -0.2
v -0.2 0.2 -0.3
v -0.2 0.3 0.1
v -0.2 0.3 0
v -0.2 0.3 -0.1
v -0.2 0.3 -0.2
v -0.2 0.3 -0.3
v -0.2 0.4 0.1
v -0.2 0.4 0
v -0.2 0.4 -0.1
v -0.2 0.4 -0.2
v -0.2 0.4 -0.3
v -0.2 0.5 0.1
v -0.2 0.5 0
v -0.2 0.5 -0.1
v -0.2 0.5 -0.2
v -0.2 0.5 -0.3
v -0.2 0.6 0.1
v -0.2 0.6 0
v -0.2 0.6 -0.1
v -0.2 0.6 -0.2
v -0.2 0.6 -0.3
v 0.1 0 0.4
v 0.1 0 0.2
v 0.1 0.1 0.3
v 0.1 0.1 0.2
v 0.1 0.4 0.3
v 0.1 0.4 0.2
v 0.1 0.5 0.4
v 0.1 0.5 0.2
v 0.3 0 0.2
v 0.3 0 0
v 0.3 0 -0.1
v 0.3 0 -0.2
v 0.3 0 -0.3
v 0.3 0 -0.4
v 0.3 0.1 0.1
v 0.3 0.1 0
v 0.3 0.1 -0.1
v 0.3 0.1 -0.2
v 0.3 0.1 -0.3
v 0.3 0.2 0.1
v 0.3 0.2 0
v 0.3 0.2 -0.1
v 0.3 0.2 -0.2
v 0.3 0.2 -0.3
v 0.3 0.3 0.1
v 0.3 0.3 0
v 0.3 0.3 -0.1
v 0.3 0.3 -0.2
v 0.3 0.3 -0.3
v 0.3 0.4 0.1
v 0.3 0.4 0
v 0.3 0.4 -0.1
v 0.3 0.4 -0.2
v 0.3 0.4 -0.3
v 0.3 0.5 0.1
v 0.3 0.5 0
v 0.3 0.5 -0.1
v 0.3 0.5 -0.2
v 0.3 0.5 -0.3
v 0.3 0.6 0.2
v 0.3 0.6 0.1
v 0.3 0.6 0
v 0.3 0.6 -0.1
v 0.3 0.6 -0.2
v 0.3 0.6 -0.4
v -0.1 0 0.4
v -0.1 0.5 0.4
v 0.1 0 0.4
v 0.1 0.5 0.4
v -0.3 0 0.2
v -0.3 0.6 0.2
v -0.1 0 0.2
v -0.1 0.1 0.2
v -0.1 0.4 0.2
v -0.1 0.5 0.2
v 0.1 0 0.2
v 0.1 0.1 0.2
v 0.1 0.4 0.2
v 0.1 0.5 0.2
v 0.3 0 0.2
v 0.3 0.6 0.2
v -0.2 0.1 -0.3
v -0.2 0.2 -0.3
v -0.2 0.3 -0.3
v -0.2 0.4 -0.3
v -0.2 0.5 -0.3
v -0.2 0.6 -0.3
v -0.1 0.1 -0.3
v -0.1 0.2 -0.3
v -0.1 0.3 -0.3
v -0.1 0.4 -0.3
v -0.1 0.5 -0.3
v -0.1 0.6 -0.3
v 0 0.1 -0.3
v 0 0.2 -0.3
v 0 0.3 -0.3
v 0 0.4 -0.3
v 0 0.5 -0.3
v 0 0.6 -0.3
v 0.1 0.1 -0.3
v 0.1 0.2 -0.3
v 0.1 0.3 -0.3
v 0.1 0.4 -0.3
v 0.1 0.5 -0.3
v 0.1 0.6 -0.3
v 0.2 0.1 -0.3
v 0.2 0.2 -0.3
v 0.2 0.3 -0.3
v 0.2 0.4 -0.3
v 0.2 0.5 -0.3
v 0.2 0.6 -0.3
v -0.1 0.1 0.3
v -0.1 0.4 0.3
v 0.1 0.1 0.3
v 0.1 0.4 0.3
v -0.2 0.1 0.1
v -0.2 0.2 0.1
v -0.2 0.3 0.1
v -0.2 0.4 0.1
v -0.2 0.5 0.1
v -0.2 0.6 0.1
v 0.2 0.1 0.1
v 0.2 0.2 0.1
v 0.2 0.3 0.1
v 0.2 0.4 0.1
v 0.2 0.5 0.1
v 0.2 0.6 0.1
v -0.3 0 -0.4
v -0.3 0.6 -0.4
v -0.2 0.1 -0.4
v -0.2 0.2 -0.4
v -0.2 0.3 -0.4
v -0.2 0.4 -0.4
v -0.2 0.5 -0.4
v -0.2 0.6 -0.4
v -0.1 0 -0.4
v -0.1 0.1 -0.4
v -0.1 0.2 -0.4
v -0.1 0.3 -0.4
v -0.1 0.4 -0.4
v -0.1 0.5 -0.4
v -0.1 0.6 -0.4
v 0 0 -0.4
v 0 0.1 -0.4
v 0 0.2 -0.4
v 0 0.3 -0.4
v 0 0.4 -0.4
v 0 0.5 -0.4
v 0 0.6 -0.4
v 0.1 0 -0.4
v 0.1 0.1 -0.4
v 0.1 0.2 -0.4
v 0.1 0.3 -0.4
v 0.1 0.4 -0.4
v 0.1 0.5 -0.4
v 0.1 0.6 -0.4
v 0.2 0 -0.4
v 0.2 0.1 -0.4
v 0.2 0.2 -0.4
v 0.2 0.3 -0.4
v 0.2 0.4 -0.4
v 0.2 0.5 -0.4
v 0.3 0 -0.4
v 0.3 0.6 -0.4
v -0.1 0 0.4
v 0.1 0 0.4
v -0.3 0 0.2
v -0.1 0 0.2
v 0.1 0 0.2
v 0.3 0 0.2
v -0.3 0 0
v -0.2 0 0
v 0.2 0 0
v 0.3 0 0
v -0.3 0 -0.1
v -0.2 0 -0.1
v 0.2 0 -0.1
v 0.3 0 -0.1
v -0.3 0 -0.2
v -0.2 0 -0.2
v 0.2 0 -0.2
v 0.3 0 -0.2
v -0.3 0 -0.3
v -0.2 0 -0.3
v -0.1 0 -0.3
v 0 0 -0.3
v 0.1 0 -0.3
v 0.2 0 -0.3
v 0.3 0 -0.3
v -0.3 0 -0.4
v -0.1 0 -0.4
v 0 0 -0.4
v 0.1 0 -0.4
v 0.2 0 -0.4
v 0.3 0 -0.4
v -0.1 0.4 0.3
v 0.1 0.4 0.3
v -0.1 0.4 0.2
v 0.1 0.4 0.2
v -0.1 0.1 0.3
v 0.1 0.1 0.3
v -0.1 0.1 0.2
v 0.1 0.1 0.2
v -0.2 0.1 0.1
v 0.2 0.1 0.1
v -0.2 0.1 0
v 0.2 0.1 0
v -0.2 0.1 -0.1
v 0.2 0.1 -0.1
v -0.2 0.1 -0.2
v 0.2 0.1 -0.2
v -0.2 0.1 -0.3
v -0.1 0.1 -0.3
v 0 0.1 -0.3
v 0.1 0.1 -0.3
v 0.2 0.1 -0.3
v -0.1 0.5 0.4
v 0.1 0.5 0.4
v -0.1 0.5 0.2
v 0.1 0.5 0.2
v -0.3 0.6 0.2
v 0.3 0.6 0.2
v -0.3 0.6 0.1
v -0.2 0.6 0.1
v 0.2 0.6 0.1
v 0.3 0.6 0.1
v -0.3 0.6 0
v -0.2 0.6 0
v 0.2 0.6 0
v 0.3 0.6 0
v -0.3 0.6 -0.1
v -0.2 0.6 -0.1
v 0.2 0.6 -0.1
v 0.3 0.6 -0.1
v -0.3 0.6 -0.2
v -0.2 0.6 -0.2
v 0.2 0.6 -0.2
v 0.3 0.6 -0.2
v -0.2 0.6 -0.3
v -0.1 0.6 -0.3
v 0 0.6 -0.3
v 0.1 0.6 -0.3
v 0.2 0.6 -0.3
v -0.3 0.6 -0.4
v -0.2 0.6 -0.4
v -0.1 0.6 -0.4
v 0 0.6 -0.4
v 0.1 0.6 -0.4
v 0.3 0.6 -0.4

# faces
f 7/1/1 2/1/1 1/1/1
f 8/3/1 3/3/1 2/3/1
f 8/1/1 2/1/1 7/1/1
f 9/1/1 4/1/1 3/1/1
f 9/3/1 3/3/1 8/3/1
f 10/3/1 5/3/1 4/3/1
f 10/1/1 4/1/1 9/1/1
f 11/1/1 6/1/1 5/1/1
f 11/3/1 5/3/1 10/3/1
f 12/1/1 7/1/1 1/1/1
f 12/3/1 8/3/1 7/3/1
f 13/1/1 9/1/1 8/1/1
f 13/3/1 8/3/1 12/3/1
f 14/3/1 10/3/1 9/3/1
f 14/1/1 9/1/1 13/1/1
f 15/1/1 11/1/1 10/1/1
f 15/3/1 10/3/1 14/3/1
f 16/1/1 6/1/1 11/1/1
f 16/1/1 11/1/1 15/1/1
f 17/1/1 13/1/1 12/1/1
f 17/1/1 12/1/1 1/1/1
f 18/3/1 14/3/1 13/3/1
f 18/1/1 13/1/1 17/1/1
f 19/1/1 15/1/1 14/1/1
f 19/3/1 14/3/1 18/3/1
f 20/3/1 16/3/1 15/3/1
f 20/1/1 15/1/1 19/1/1
f 21/1/1 6/1/1 16/1/1
f 21/3/1 16/3/1 20/3/1
f 22/3/1 18/3/1 17/3/1
f 22/1/1 17/1/1 1/1/1
f 23/1/1 19/1/1 18/1/1
f 23/3/1 18/3/1 22/3/1
f 24/3/1 20/3/1 19/3/1
f 24/1/1 19/1/1 23/1/1
f 25/1/1 21/1/1 20/1/1
f 25/3/1 20/3/1 24/3/1
f 26/1/1 6/1/1 21/1/1
f 26/1/1 21/1/1 25/1/1
f 27/1/1 23/1/1 22/1/1
f 27/1/1 22/1/1 1/1/1
f 28/3/1 24/3/1 23/3/1
f 28/1/1 23/1/1 27/1/1
f 29/1/1 25/1/1 24/1/1
f 29/3/1 24/3/1 28/3/1
f 30/3/1 26/3/1 25/3/1
f 30/1/1 25/1/1 29/1/1
f 31/1/1 6/1/1 26/1/1
f 31/3/1 26/3/1 30/3/1
f 32/1/1 27/1/1 1/1/1
f 33/3/1 28/3/1 27/3/1
f 33/1/1 27/1/1 32/1/1
f 34/1/1 29/1/1 28/1/1
f 34/3/1 28/3/1 33/3/1
f 35/3/1 30/3/1 29/3/1
f 35/1/1 29/1/1 34/1/1
f 36/1/1 31/1/1 30/1/1
f 36/3/1 30/3/1 35/3/1
f 37/1/1 6/1/1 31/1/1
f 37/1/1 31/1/1 36/1/1
f 40/2/1 39/2/1 38/2/1
f 41/2/1 39/2/1 40/2/1
f 42/2/1 40/2/1 38/2/1
f 44/2/1 42/2/1 38/2/1
f 44/2/1 43/2/1 42/2/1
f 45/2/1 43/2/1 44/2/1
f 51/3/1 47/3/1 46/3/1
f 52/1/1 48/1/1 47/1/1
f 52/3/1 47/3/1 51/3/1
f 53/3/1 49/3/1 48/3/1
f 53/1/1 48/1/1 52/1/1
f 54/1/1 50/1/1 49/1/1
f 54/3/1 49/3/1 53/3/1
f 55/1/1 50/1/1 54/1/1
f 56/1/1 52/1/1 51/1/1
f 57/3/1 53/3/1 52/3/1
f 57/1/1 52/1/1 56/1/1
f 58/1/1 54/1/1 53/1/1
f 58/3/1 53/3/1 57/3/1
f 59/3/1 55/3/1 54/3/1
f 59/1/1 54/1/1 58/1/1
f 60/3/1 55/3/1 59/3/1
f 61/3/1 57/3/1 56/3/1
f 62/1/1 58/1/1 57/1/1
f 62/3/1 57/3/1 61/3/1
f 63/3/1 59/3/1 58/3/1
f 63/1/1 58/1/1 62/1/1
f 64/1/1 60/1/1 59/1/1
f 64/3/1 59/3/1 63/3/1
f 65/1/1 60/1/1 64/1/1
f 66/1/1 62/1/1 61/1/1
f 67/3/1 63/3/1 62/3/1
f 67/1/1 62/1/1 66/1/1
f 68/1/1 64/1/1 63/1/1
f 68/3/1 63/3/1 67/3/1
f 69/3/1 65/3/1 64/3/1
f 69/1/1 64/1/1 68/1/1
f 70/3/1 65/3/1 69/3/1
f 71/3/1 67/3/1 66/3/1
f 72/1/1 68/1/1 67/1/1
f 72/3/1 67/3/1 71/3/1
f 73/3/1 69/3/1 68/3/1
f 73/1/1 68/1/1 72/1/1
f 74/1/1 70/1/1 69/1/1
f 74/3/1 69/3/1 73/3/1
f 75/1/1 70/1/1 74/1/1
f 76/3/2 77/3/2 81/3/2
f 77/1/2 78/1/2 82/1/2
f 81/3/2 77/3/2 82/3/2
f 78/3/2 79/3/2 83/3/2
f 82/1/2 78/1/2 83/1/2
f 79/1/2 80/1/2 84/1/2
f 83/3/2 79/3/2 84/3/2
f 84/1/2 80/1/2 85/1/2
f 81/1/2 82/1/2 86/1/2
f 82/3/2 83/3/2 87/3/2
f 86/1/2 82/1/2 87/1/2
f 83/1/2 84/1/2 88/1/2
f 87/3/2 83/3/2 88/3/2
f 84/3/2 85/3/2 89/3/2
f 88/1/2 84/1/2 89/1/2
f 89/3/2 85/3/2 90/3/2
f 86/3/2 87/3/2 91/3/2
f 87/1/2 88/1/2 92/1/2
f 91/3/2 87/3/2 92/3/2
f 88/3/2 89/3/2 93/3/2
f 92/1/2 88/1/2 93/1/2
f 89/1/2 90/1/2 94/1/2
f 93/3/2 89/3/2 94/3/2
f 94/1/2 90/1/2 95/1/2
f 91/1/2 92/1/2 96/1/2
f 92/3/2 93/3/2 97/3/2
f 96/1/2 92/1/2 97/1/2
f 93/1/2 94/1/2 98/1/2
f 97/3/2 93/3/2 98/3/2
f 94/3/2 95/3/2 99/3/2
f 98/1/2 94/1/2 99/1/2
f 99/3/2 95/3/2 100/3/2
f 96/3/2 97/3/2 101/3/2
f 97/1/2 98/1/2 102/1/2
f 101/3/2 97/3/2 102/3/2
f 98/3/2 99/3/2 103/3/2
f 102/1/2 98/1/2 103/1/2
f 99/1/2 100/1/2 104/1/2
f 103/3/2 99/3/2 104/3/2
f 104/1/2 100/1/2 105/1/2
f 106/2/2 107/2/2 108/2/2
f 108/2/2 107/2/2 109/2/2
f 106/2/2 108/2/2 110/2/2
f 106/2/2 110/2/2 112/2/2
f 110/2/2 111/2/2 112/2/2
f 112/2/2 111/2/2 113/2/2
f 114/1/2 115/1/2 120/1/2
f 115/3/2 116/3/2 121/3/2
f 120/1/2 115/1/2 121/1/2
f 116/1/2 117/1/2 122/1/2
f 121/3/2 116/3/2 122/3/2
f 117/3/2 118/3/2 123/3/2
f 122/1/2 117/1/2 123/1/2
f 118/1/2 119/1/2 124/1/2
f 123/3/2 118/3/2 124/3/2
f 114/1/2 120/1/2 125/1/2
f 120/3/2 121/3/2 125/3/2
f 121/1/2 122/1/2 126/1/2
f 125/3/2 121/3/2 126/3/2
f 122/3/2 123/3/2 127/3/2
f 126/1/2 122/1/2 127/1/2
f 123/1/2 124/1/2 128/1/2
f 127/3/2 123/3/2 128/3/2
f 124/1/2 119/1/2 129/1/2
f 128/1/2 124/1/2 129/1/2
f 125/1/2 126/1/2 130/1/2
f 114/1/2 125/1/2 130/1/2
f 126/3/2 127/3/2 131/3/2
f 130/1/2 126/1/2 131/1/2
f 127/1/2 128/1/2 132/1/2
f 131/3/2 127/3/2 132/3/2
f 128/3/2 129/3/2 133/3/2
f 132/1/2 128/1/2 133/1/2
f 129/1/2 119/1/2 134/1/2
f 133/3/2 129/3/2 134/3/2
f 130/3/2 131/3/2 135/3/2
f 114/1/2 130/1/2 135/1/2
f 131/1/2 132/1/2 136/1/2
f 135/3/2 131/3/2 136/3/2
f 132/3/2 133/3/2 137/3/2
f 136/1/2 132/1/2 137/1/2
f 133/1/2 134/1/2 138/1/2
f 137/3/2 133/3/2 138/3/2
f 134/1/2 119/1/2 139/1/2
f 138/1/2 134/1/2 139/1/2
f 135/1/2 136/1/2 140/1/2
f 114/1/2 135/1/2 140/1/2
f 136/3/2 137/3/2 141/3/2
f 140/1/2 136/1/2 141/1/2
f 137/1/2 138/1/2 142/1/2
f 141/3/2 137/3/2 142/3/2
f 138/3/2 139/3/2 143/3/2
f 142/1/2 138/1/2 143/1/2
f 139/1/2 119/1/2 144/1/2
f 143/3/2 139/3/2 144/3/2
f 114/1/2 140/1/2 145/1/2
f 140/3/2 141/3/2 146/3/2
f 145/1/2 140/1/2 146/1/2
f 141/1/2 142/1/2 147/1/2
f 146/3/2 141/3/2 147/3/2
f 142/3/2 143/3/2 148/3/2
f 147/1/2 142/1/2 148/1/2
f 143/1/2 144/1/2 149/1/2
f 148/3/2 143/3/2 149/3/2
f 144/1/2 119/1/2 150/1/2
f 149/1/2 144/1/2 150/1/2
f 153/2/3 152/2/3 151/2/3
f 154/2/3 152/2/3 153/2/3
f 157/1/3 156/1/3 155/1/3
f 158/1/3 156/1/3 157/1/3
f 159/1/3 156/1/3 158/1/3
f 160/1/3 156/1/3 159/1/3
f 162/1/3 159/1/3 158/1/3
f 163/1/3 159/1/3 162/1/3
f 164/1/3 156/1/3 160/1/3
f 165/1/3 163/1/3 162/1/3
f 165/1/3 164/1/3 163/1/3
f 165/1/3 162/1/3 161/1/3
f 166/1/3 156/1/3 164/1/3
f 166/1/3 164/1/3 165/1/3
f 173/3/3 168/3/3 167/3/3
f 174/1/3 169/1/3 168/1/3
f 174/3/3 168/3/3 173/3/3
f 175/3/3 170/3/3 169/3/3
f 175/1/3 169/1/3 174/1/3
f 176/1/3 171/1/3 170/1/3
f 176/3/3 170/3/3 175/3/3
f 177/3/3 172/3/3 171/3/3
f 177/1/3 171/1/3 176/1/3
f 178/3/3 172/3/3 177/3/3
f 179/1/3 174/1/3 173/1/3
f 180/3/3 175/3/3 174/3/3
f 180/1/3 174/1/3 179/1/3
f 181/1/3 176/1/3 175/1/3
f 181/3/3 175/3/3 180/3/3
f 182/3/3 177/3/3 176/3/3
f 182/1/3 176/1/3 181/1/3
f 183/1/3 178/1/3 177/1/3
f 183/3/3 177/3/3 182/3/3
f 184/1/3 178/1/3 183/1/3
f 185/3/3 180/3/3 179/3/3
f 186/1/3 181/1/3 180/1/3
f 186/3/3 180/3/3 185/3/3
f 187/3/3 182/3/3 181/3/3
f 187/1/3 181/1/3 186/1/3
f 188/1/3 183/1/3 182/1/3
f 188/3/3 182/3/3 187/3/3
f 189/3/3 184/3/3 183/3/3
f 189/1/3 183/1/3 188/1/3
f 190/3/3 184/3/3 189/3/3
f 191/1/3 186/1/3 185/1/3
f 192/3/3 187/3/3 186/3/3
f 192/1/3 186/1/3 191/1/3
f 193/1/3 188/1/3 187/1/3
f 193/3/3 187/3/3 192/3/3
f 194/3/3 189/3/3 188/3/3
f 194/1/3 188/1/3 193/1/3
f 195/1/3 190/1/3 189/1/3
f 195/3/3 189/3/3 194/3/3
f 196/1/3 190/1/3 195/1/3
f 197/2/4 198/2/4 199/2/4
f 199/2/4 198/2/4 200/2/4
f 201/1/4 202/1/4 207/1/4
f 205/1/4 206/1/4 207/1/4
f 204/1/4 205/1/4 207/1/4
f 203/1/4 204/1/4 207/1/4
f 202/1/4 203/1/4 207/1/4
f 207/1/4 206/1/4 208/1/4
f 208/1/4 206/1/4 209/1/4
f 209/1/4 206/1/4 210/1/4
f 210/1/4 206/1/4 211/1/4
f 211/1/4 206/1/4 212/1/4
f 213/1/4 214/1/4 215/1/4
f 215/1/4 214/1/4 216/1/4
f 216/1/4 214/1/4 217/1/4
f 217/1/4 214/1/4 218/1/4
f 218/1/4 214/1/4 219/1/4
f 219/1/4 214/1/4 220/1/4
f 213/1/4 215/1/4 221/1/4
f 215/3/4 216/3/4 222/3/4
f 221/1/4 215/1/4 222/1/4
f 216/1/4 217/1/4 223/1/4
f 222/3/4 216/3/4 223/3/4
f 217/3/4 218/3/4 224/3/4
f 223/1/4 217/1/4 224/1/4
f 218/1/4 219/1/4 225/1/4
f 224/3/4 218/3/4 225/3/4
f 219/3/4 220/3/4 226/3/4
f 225/1/4 219/1/4 226/1/4
f 226/3/4 220/3/4 227/3/4
f 221/3/4 222/3/4 228/3/4
f 222/1/4 223/1/4 229/1/4
f 228/3/4 222/3/4 229/3/4
f 223/3/4 224/3/4 230/3/4
f 229/1/4 223/1/4 230/1/4
f 224/1/4 225/1/4 231/1/4
f 230/3/4 224/3/4 231/3/4
f 225/3/4 226/3/4 232/3/4
f 231/1/4 225/1/4 232/1/4
f 226/1/4 227/1/4 233/1/4
f 232/3/4 226/3/4 233/3/4
f 233/1/4 227/1/4 234/1/4
f 228/1/4 229/1/4 235/1/4
f 229/3/4 230/3/4 236/3/4
f 235/1/4 229/1/4 236/1/4
f 230/1/4 231/1/4 237/1/4
f 236/3/4 230/3/4 237/3/4
f 231/3/4 232/3/4 238/3/4
f 237/1/4 231/1/4 238/1/4
f 232/1/4 233/1/4 239/1/4
f 238/3/4 232/3/4 239/3/4
f 233/3/4 234/3/4 240/3/4
f 239/1/4 233/1/4 240/1/4
f 240/3/4 234/3/4 241/3/4
f 235/3/4 236/3/4 242/3/4
f 236/1/4 237/1/4 243/1/4
f 242/3/4 236/3/4 243/3/4
f 237/3/4 238/3/4 244/3/4
f 243/1/4 237/1/4 244/1/4
f 238/1/4 239/1/4 245/1/4
f 244/3/4 238/3/4 245/3/4
f 239/3/4 240/3/4 246/3/4
f 245/1/4 239/1/4 246/1/4
f 240/1/4 241/1/4 247/1/4
f 246/3/4 240/3/4 247/3/4
f 242/1/4 243/1/4 248/1/4
f 243/1/4 244/1/4 248/1/4
f 246/1/4 247/1/4 248/1/4
f 245/1/4 246/1/4 248/1/4
f 244/1/4 245/1/4 248/1/4
f 247/1/4 241/1/4 249/1/4
f 248/1/4 247/1/4 249/1/4
f 253/2/5 251/2/5 250/2/5
f 254/2/5 251/2/5 253/2/5
f 256/1/5 253/1/5 252/1/5
f 256/1/5 255/1/5 254/1/5
f 256/1/5 254/1/5 253/1/5
f 257/1/5 255/1/5 256/1/5
f 258/1/5 255/1/5 257/1/5
f 259/1/5 255/1/5 258/1/5
f 260/3/5 257/3/5 256/3/5
f 261/1/5 258/1/5 257/1/5
f 261/3/5 257/3/5 260/3/5
f 262/3/5 259/3/5 258/3/5
f 262/1/5 258/1/5 261/1/5
f 263/3/5 259/3/5 262/3/5
f 264/1/5 261/1/5 260/1/5
f 264/1/5 262/1/5 261/1/5
f 264/1/5 263/1/5 262/1/5
f 265/1/5 263/1/5 264/1/5
f 266/1/5 263/1/5 265/1/5
f 267/1/5 263/1/5 266/1/5
f 268/3/5 265/3/5 264/3/5
f 269/1/5 266/1/5 265/1/5
f 269/3/5 265/3/5 268/3/5
f 270/1/5 266/1/5 269/1/5
f 271/1/5 266/1/5 270/1/5
f 272/1/5 266/1/5 271/1/5
f 273/3/5 267/3/5 266/3/5
f 273/1/5 266/1/5 272/1/5
f 274/3/5 267/3/5 273/3/5
f 275/1/5 269/1/5 268/1/5
f 275/1/5 270/1/5 269/1/5
f 276/3/5 271/3/5 270/3/5
f 276/1/5 270/1/5 275/1/5
f 277/1/5 272/1/5 271/1/5
f 277/3/5 271/3/5 276/3/5
f 278/3/5 273/3/5 272/3/5
f 278/1/5 272/1/5 277/1/5
f 279/1/5 274/1/5 273/1/5
f 279/3/5 273/3/5 278/3/5
f 280/1/5 274/1/5 279/1/5
f 283/2/5 282/2/5 281/2/5
f 284/2/5 282/2/5 283/2/5
f 285/2/6 286/2/6 287/2/6
f 287/2/6 286/2/6 288/2/6
f 289/1/6 290/1/6 291/1/6
f 291/1/6 290/1/6 292/1/6
f 291/1/6 292/1/6 293/1/6
f 293/1/6 292/1/6 294/1/6
f 293/1/6 294/1/6 295/1/6
f 295/1/6 294/1/6 296/1/6
f 295/1/6 296/1/6 297/1/6
f 297/1/6 296/1/6 298/1/6
f 298/1/6 296/1/6 299/1/6
f 299/1/6 296/1/6 300/1/6
f 300/1/6 296/1/6 301/1/6
f 302/2/6 303/2/6 304/2/6
f 304/2/6 303/2/6 305/2/6
f 306/1/6 307/1/6 308/1/6
f 308/1/6 307/1/6 309/1/6
f 309/1/6 307/1/6 310/1/6
f 310/1/6 307/1/6 311/1/6
f 308/3/6 309/3/6 312/3/6
f 312/3/6 309/3/6 313/3/6
f 310/3/6 311/3/6 314/3/6
f 314/3/6 311/3/6 315/3/6
f 312/1/6 313/1/6 316/1/6
f 316/1/6 313/1/6 317/1/6
f 314/1/6 315/1/6 318/1/6
f 318/1/6 315/1/6 319/1/6
f 316/3/6 317/3/6 320/3/6
f 320/3/6 317/3/6 321/3/6
f 318/3/6 319/3/6 322/3/6
f 322/3/6 319/3/6 323/3/6
f 320/1/6 321/1/6 324/1/6
f 322/1/6 323/1/6 328/1/6
f 320/1/6 324/1/6 329/1/6
f 324/3/6 325/3/6 330/3/6
f 329/1/6 324/1/6 330/1/6
f 325/1/6 326/1/6 331/1/6
f 330/3/6 325/3/6 331/3/6
f 326/3/6 327/3/6 332/3/6
f 331/1/6 326/1/6 332/1/6
f 327/1/6 328/1/6 333/1/6
f 332/3/6 327/3/6 333/3/6
f 328/1/6 323/1/6 334/1/6
f 333/1/6 328/1/6 334/1/6
