# MagicaVoxel @ Ephtracy

# group
o 

# material
mtllib Cup_with_water.mtl
usemtl palette

# normals
vn -1 0 0
vn 1 0 0
vn 0 0 1
vn 0 0 -1
vn 0 -1 0
vn 0 1 0

# texcoords
vt 0.814453 0.5
vt 0.818359 0.5
vt 0.912109 0.5
vt 0.986328 0.5

# verts
v -0.3 0 0.2
v -0.3 0 0
v -0.3 0 -0.1
v -0.3 0 -0.2
v -0.3 0 -0.3
v -0.3 0 -0.4
v -0.3 0.1 0.1
v -0.3 0.1 0
v -0.3 0.1 -0.1
v -0.3 0.1 -0.2
v -0.3 0.1 -0.3
v -0.3 0.2 0.1
v -0.3 0.2 0
v -0.3 0.2 -0.1
v -0.3 0.2 -0.2
v -0.3 0.2 -0.3
v -0.3 0.3 0.1
v -0.3 0.3 0
v -0.3 0.3 -0.1
v -0.3 0.3 -0.2
v -0.3 0.3 -0.3
v -0.3 0.4 0.1
v -0.3 0.4 0
v -0.3 0.4 -0.1
v -0.3 0.4 -0.2
v -0.3 0.4 -0.3
v -0.3 0.5 0.1
v -0.3 0.5 0
v -0.3 0.5 -0.1
v -0.3 0.5 -0.2
v -0.3 0.5 -0.3
v -0.3 0.6 0.2
v -0.3 0.6 0.1
v -0.3 0.6 0
v -0.3 0.6 -0.1
v -0.3 0.6 -0.2
v -0.3 0.6 -0.4
v -0.1 0 0.4
v -0.1 0 0.2
v -0.1 0.1 0.3
v -0.1 0.1 0.2
v -0.1 0.4 0.3
v -0.1 0.4 0.2
v -0.1 0.5 0.4
v -0.1 0.5 0.2
v 0.2 0.3 0.1
v 0.2 0.3 0
v 0.2 0.3 -0.1
v 0.2 0.3 -0.2
v 0.2 0.3 -0.3
v 0.2 0.4 0.1
v 0.2 0.4 0
v 0.2 0.4 -0.1
v 0.2 0.4 -0.2
v 0.2 0.4 -0.3
v 0.2 0.5 0.1
v 0.2 0.5 0
v 0.2 0.5 -0.1
v 0.2 0.5 -0.2
v 0.2 0.5 -0.3
v 0.2 0.6 0.1
v 0.2 0.6 0
v 0.2 0.6 -0.1
v 0.2 0.6 -0.2
v 0.2 0.6 -0.3
v -0.2 0.3 0.1
v -0.2 0.3 0
v -0.2 0.3 -0.1
v -0.2 0.3 -0.2
v -0.2 0.3 -0.3
v -0.2 0.4 0.1
v -0.2 0.4 0
v -0.2 0.4 -0.1
v -0.2 0.4 -0.2
v -0.2 0.4 -0.3
v -0.2 0.5 0.1
v -0.2 0.5 0
v -0.2 0.5 -0.1
v -0.2 0.5 -0.2
v -0.2 0.5 -0.3
v -0.2 0.6 0.1
v -0.2 0.6 0
v -0.2 0.6 -0.1
v -0.2 0.6 -0.2
v -0.2 0.6 -0.3
v 0.1 0 0.4
v 0.1 0 0.2
v 0.1 0.1 0.3
v 0.1 0.1 0.2
v 0.1 0.4 0.3
v 0.1 0.4 0.2
v 0.1 0.5 0.4
v 0.1 0.5 0.2
v 0.3 0 0.2
v 0.3 0 0
v 0.3 0 -0.1
v 0.3 0 -0.2
v 0.3 0 -0.3
v 0.3 0 -0.4
v 0.3 0.1 0.1
v 0.3 0.1 0
v 0.3 0.1 -0.1
v 0.3 0.1 -0.2
v 0.3 0.1 -0.3
v 0.3 0.2 0.1
v 0.3 0.2 0
v 0.3 0.2 -0.1
v 0.3 0.2 -0.2
v 0.3 0.2 -0.3
v 0.3 0.3 0.1
v 0.3 0.3 0
v 0.3 0.3 -0.1
v 0.3 0.3 -0.2
v 0.3 0.3 -0.3
v 0.3 0.4 0.1
v 0.3 0.4 0
v 0.3 0.4 -0.1
v 0.3 0.4 -0.2
v 0.3 0.4 -0.3
v 0.3 0.5 0.1
v 0.3 0.5 0
v 0.3 0.5 -0.1
v 0.3 0.5 -0.2
v 0.3 0.5 -0.3
v 0.3 0.6 0.2
v 0.3 0.6 0.1
v 0.3 0.6 0
v 0.3 0.6 -0.1
v 0.3 0.6 -0.2
v 0.3 0.6 -0.4
v -0.1 0 0.4
v -0.1 0.5 0.4
v 0.1 0 0.4
v 0.1 0.5 0.4
v -0.3 0 0.2
v -0.3 0.6 0.2
v -0.1 0 0.2
v -0.1 0.1 0.2
v -0.1 0.4 0.2
v -0.1 0.5 0.2
v 0.1 0 0.2
v 0.1 0.1 0.2
v 0.1 0.4 0.2
v 0.1 0.5 0.2
v 0.3 0 0.2
v 0.3 0.6 0.2
v -0.2 0.3 -0.3
v -0.2 0.4 -0.3
v -0.2 0.5 -0.3
v -0.2 0.6 -0.3
v -0.1 0.3 -0.3
v -0.1 0.4 -0.3
v -0.1 0.5 -0.3
v -0.1 0.6 -0.3
v 0 0.3 -0.3
v 0 0.4 -0.3
v 0 0.5 -0.3
v 0 0.6 -0.3
v 0.1 0.3 -0.3
v 0.1 0.4 -0.3
v 0.1 0.5 -0.3
v 0.1 0.6 -0.3
v 0.2 0.3 -0.3
v 0.2 0.4 -0.3
v 0.2 0.5 -0.3
v 0.2 0.6 -0.3
v -0.1 0.1 0.3
v -0.1 0.4 0.3
v 0.1 0.1 0.3
v 0.1 0.4 0.3
v -0.2 0.3 0.1
v -0.2 0.4 0.1
v -0.2 0.5 0.1
v -0.2 0.6 0.1
v 0.2 0.3 0.1
v 0.2 0.4 0.1
v 0.2 0.5 0.1
v 0.2 0.6 0.1
v -0.3 0 -0.4
v -0.3 0.6 -0.4
v -0.2 0.1 -0.4
v -0.2 0.2 -0.4
v -0.2 0.3 -0.4
v -0.2 0.4 -0.4
v -0.2 0.5 -0.4
v -0.2 0.6 -0.4
v -0.1 0 -0.4
v -0.1 0.1 -0.4
v -0.1 0.2 -0.4
v -0.1 0.3 -0.4
v -0.1 0.4 -0.4
v -0.1 0.5 -0.4
v -0.1 0.6 -0.4
v 0 0 -0.4
v 0 0.1 -0.4
v 0 0.2 -0.4
v 0 0.3 -0.4
v 0 0.4 -0.4
v 0 0.5 -0.4
v 0 0.6 -0.4
v 0.1 0 -0.4
v 0.1 0.1 -0.4
v 0.1 0.2 -0.4
v 0.1 0.3 -0.4
v 0.1 0.4 -0.4
v 0.1 0.5 -0.4
v 0.1 0.6 -0.4
v 0.2 0 -0.4
v 0.2 0.1 -0.4
v 0.2 0.2 -0.4
v 0.2 0.3 -0.4
v 0.2 0.4 -0.4
v 0.2 0.5 -0.4
v 0.3 0 -0.4
v 0.3 0.6 -0.4
v -0.1 0 0.4
v 0.1 0 0.4
v -0.3 0 0.2
v -0.1 0 0.2
v 0.1 0 0.2
v 0.3 0 0.2
v -0.3 0 0
v -0.2 0 0
v 0.2 0 0
v 0.3 0 0
v -0.3 0 -0.1
v -0.2 0 -0.1
v 0.2 0 -0.1
v 0.3 0 -0.1
v -0.3 0 -0.2
v -0.2 0 -0.2
v 0.2 0 -0.2
v 0.3 0 -0.2
v -0.3 0 -0.3
v -0.2 0 -0.3
v -0.1 0 -0.3
v 0 0 -0.3
v 0.1 0 -0.3
v 0.2 0 -0.3
v 0.3 0 -0.3
v -0.3 0 -0.4
v -0.1 0 -0.4
v 0 0 -0.4
v 0.1 0 -0.4
v 0.2 0 -0.4
v 0.3 0 -0.4
v -0.1 0.4 0.3
v 0.1 0.4 0.3
v -0.1 0.4 0.2
v 0.1 0.4 0.2
v -0.1 0.1 0.3
v 0.1 0.1 0.3
v -0.1 0.1 0.2
v 0.1 0.1 0.2
v -0.2 0.3 0.1
v 0.2 0.3 0.1
v -0.2 0.3 0
v 0.2 0.3 0
v -0.2 0.3 -0.1
v 0.2 0.3 -0.1
v -0.2 0.3 -0.2
v 0.2 0.3 -0.2
v -0.2 0.3 -0.3
v -0.1 0.3 -0.3
v 0 0.3 -0.3
v 0.1 0.3 -0.3
v 0.2 0.3 -0.3
v -0.1 0.5 0.4
v 0.1 0.5 0.4
v -0.1 0.5 0.2
v 0.1 0.5 0.2
v -0.3 0.6 0.2
v 0.3 0.6 0.2
v -0.3 0.6 0.1
v -0.2 0.6 0.1
v 0.2 0.6 0.1
v 0.3 0.6 0.1
v -0.3 0.6 0
v -0.2 0.6 0
v 0.2 0.6 0
v 0.3 0.6 0
v -0.3 0.6 -0.1
v -0.2 0.6 -0.1
v 0.2 0.6 -0.1
v 0.3 0.6 -0.1
v -0.3 0.6 -0.2
v -0.2 0.6 -0.2
v 0.2 0.6 -0.2
v 0.3 0.6 -0.2
v -0.2 0.6 -0.3
v -0.1 0.6 -0.3
v 0 0.6 -0.3
v 0.1 0.6 -0.3
v 0.2 0.6 -0.3
v -0.3 0.6 -0.4
v -0.2 0.6 -0.4
v -0.1 0.6 -0.4
v 0 0.6 -0.4
v 0.1 0.6 -0.4
v 0.3 0.6 -0.4

# faces
f 7/1/1 2/1/1 1/1/1
f 8/3/1 3/3/1 2/3/1
f 8/1/1 2/1/1 7/1/1
f 9/1/1 4/1/1 3/1/1
f 9/3/1 3/3/1 8/3/1
f 10/3/1 5/3/1 4/3/1
f 10/1/1 4/1/1 9/1/1
f 11/1/1 6/1/1 5/1/1
f 11/3/1 5/3/1 10/3/1
f 12/1/1 7/1/1 1/1/1
f 12/3/1 8/3/1 7/3/1
f 13/1/1 9/1/1 8/1/1
f 13/3/1 8/3/1 12/3/1
f 14/3/1 10/3/1 9/3/1
f 14/1/1 9/1/1 13/1/1
f 15/1/1 11/1/1 10/1/1
f 15/3/1 10/3/1 14/3/1
f 16/1/1 6/1/1 11/1/1
f 16/1/1 11/1/1 15/1/1
f 17/1/1 13/1/1 12/1/1
f 17/1/1 12/1/1 1/1/1
f 18/3/1 14/3/1 13/3/1
f 18/1/1 13/1/1 17/1/1
f 19/1/1 15/1/1 14/1/1
f 19/3/1 14/3/1 18/3/1
f 20/3/1 16/3/1 15/3/1
f 20/1/1 15/1/1 19/1/1
f 21/1/1 6/1/1 16/1/1
f 21/3/1 16/3/1 20/3/1
f 22/3/1 18/3/1 17/3/1
f 22/1/1 17/1/1 1/1/1
f 23/1/1 19/1/1 18/1/1
f 23/3/1 18/3/1 22/3/1
f 24/3/1 20/3/1 19/3/1
f 24/1/1 19/1/1 23/1/1
f 25/1/1 21/1/1 20/1/1
f 25/3/1 20/3/1 24/3/1
f 26/1/1 6/1/1 21/1/1
f 26/1/1 21/1/1 25/1/1
f 27/1/1 23/1/1 22/1/1
f 27/1/1 22/1/1 1/1/1
f 28/3/1 24/3/1 23/3/1
f 28/1/1 23/1/1 27/1/1
f 29/1/1 25/1/1 24/1/1
f 29/3/1 24/3/1 28/3/1
f 30/3/1 26/3/1 25/3/1
f 30/1/1 25/1/1 29/1/1
f 31/1/1 6/1/1 26/1/1
f 31/3/1 26/3/1 30/3/1
f 32/1/1 27/1/1 1/1/1
f 33/3/1 28/3/1 27/3/1
f 33/1/1 27/1/1 32/1/1
f 34/1/1 29/1/1 28/1/1
f 34/3/1 28/3/1 33/3/1
f 35/3/1 30/3/1 29/3/1
f 35/1/1 29/1/1 34/1/1
f 36/1/1 31/1/1 30/1/1
f 36/3/1 30/3/1 35/3/1
f 37/1/1 6/1/1 31/1/1
f 37/1/1 31/1/1 36/1/1
f 40/2/1 39/2/1 38/2/1
f 41/2/1 39/2/1 40/2/1
f 42/2/1 40/2/1 38/2/1
f 44/2/1 42/2/1 38/2/1
f 44/2/1 43/2/1 42/2/1
f 45/2/1 43/2/1 44/2/1
f 51/3/1 47/3/1 46/3/1
f 52/1/1 48/1/1 47/1/1
f 52/3/1 47/3/1 51/3/1
f 53/3/1 49/3/1 48/3/1
f 53/1/1 48/1/1 52/1/1
f 54/1/1 50/1/1 49/1/1
f 54/3/1 49/3/1 53/3/1
f 55/1/1 50/1/1 54/1/1
f 56/1/1 52/1/1 51/1/1
f 57/3/1 53/3/1 52/3/1
f 57/1/1 52/1/1 56/1/1
f 58/1/1 54/1/1 53/1/1
f 58/3/1 53/3/1 57/3/1
f 59/3/1 55/3/1 54/3/1
f 59/1/1 54/1/1 58/1/1
f 60/3/1 55/3/1 59/3/1
f 61/3/1 57/3/1 56/3/1
f 62/1/1 58/1/1 57/1/1
f 62/3/1 57/3/1 61/3/1
f 63/3/1 59/3/1 58/3/1
f 63/1/1 58/1/1 62/1/1
f 64/1/1 60/1/1 59/1/1
f 64/3/1 59/3/1 63/3/1
f 65/1/1 60/1/1 64/1/1
f 66/3/2 67/3/2 71/3/2
f 67/1/2 68/1/2 72/1/2
f 71/3/2 67/3/2 72/3/2
f 68/3/2 69/3/2 73/3/2
f 72/1/2 68/1/2 73/1/2
f 69/1/2 70/1/2 74/1/2
f 73/3/2 69/3/2 74/3/2
f 74/1/2 70/1/2 75/1/2
f 71/1/2 72/1/2 76/1/2
f 72/3/2 73/3/2 77/3/2
f 76/1/2 72/1/2 77/1/2
f 73/1/2 74/1/2 78/1/2
f 77/3/2 73/3/2 78/3/2
f 74/3/2 75/3/2 79/3/2
f 78/1/2 74/1/2 79/1/2
f 79/3/2 75/3/2 80/3/2
f 76/3/2 77/3/2 81/3/2
f 77/1/2 78/1/2 82/1/2
f 81/3/2 77/3/2 82/3/2
f 78/3/2 79/3/2 83/3/2
f 82/1/2 78/1/2 83/1/2
f 79/1/2 80/1/2 84/1/2
f 83/3/2 79/3/2 84/3/2
f 84/1/2 80/1/2 85/1/2
f 86/2/2 87/2/2 88/2/2
f 88/2/2 87/2/2 89/2/2
f 86/2/2 88/2/2 90/2/2
f 86/2/2 90/2/2 92/2/2
f 90/2/2 91/2/2 92/2/2
f 92/2/2 91/2/2 93/2/2
f 94/1/2 95/1/2 100/1/2
f 95/3/2 96/3/2 101/3/2
f 100/1/2 95/1/2 101/1/2
f 96/1/2 97/1/2 102/1/2
f 101/3/2 96/3/2 102/3/2
f 97/3/2 98/3/2 103/3/2
f 102/1/2 97/1/2 103/1/2
f 98/1/2 99/1/2 104/1/2
f 103/3/2 98/3/2 104/3/2
f 94/1/2 100/1/2 105/1/2
f 100/3/2 101/3/2 105/3/2
f 101/1/2 102/1/2 106/1/2
f 105/3/2 101/3/2 106/3/2
f 102/3/2 103/3/2 107/3/2
f 106/1/2 102/1/2 107/1/2
f 103/1/2 104/1/2 108/1/2
f 107/3/2 103/3/2 108/3/2
f 104/1/2 99/1/2 109/1/2
f 108/1/2 104/1/2 109/1/2
f 105/1/2 106/1/2 110/1/2
f 94/1/2 105/1/2 110/1/2
f 106/3/2 107/3/2 111/3/2
f 110/1/2 106/1/2 111/1/2
f 107/1/2 108/1/2 112/1/2
f 111/3/2 107/3/2 112/3/2
f 108/3/2 109/3/2 113/3/2
f 112/1/2 108/1/2 113/1/2
f 109/1/2 99/1/2 114/1/2
f 113/3/2 109/3/2 114/3/2
f 110/3/2 111/3/2 115/3/2
f 94/1/2 110/1/2 115/1/2
f 111/1/2 112/1/2 116/1/2
f 115/3/2 111/3/2 116/3/2
f 112/3/2 113/3/2 117/3/2
f 116/1/2 112/1/2 117/1/2
f 113/1/2 114/1/2 118/1/2
f 117/3/2 113/3/2 118/3/2
f 114/1/2 99/1/2 119/1/2
f 118/1/2 114/1/2 119/1/2
f 115/1/2 116/1/2 120/1/2
f 94/1/2 115/1/2 120/1/2
f 116/3/2 117/3/2 121/3/2
f 120/1/2 116/1/2 121/1/2
f 117/1/2 118/1/2 122/1/2
f 121/3/2 117/3/2 122/3/2
f 118/3/2 119/3/2 123/3/2
f 122/1/2 118/1/2 123/1/2
f 119/1/2 99/1/2 124/1/2
f 123/3/2 119/3/2 124/3/2
f 94/1/2 120/1/2 125/1/2
f 120/3/2 121/3/2 126/3/2
f 125/1/2 120/1/2 126/1/2
f 121/1/2 122/1/2 127/1/2
f 126/3/2 121/3/2 127/3/2
f 122/3/2 123/3/2 128/3/2
f 127/1/2 122/1/2 128/1/2
f 123/1/2 124/1/2 129/1/2
f 128/3/2 123/3/2 129/3/2
f 124/1/2 99/1/2 130/1/2
f 129/1/2 124/1/2 130/1/2
f 133/2/3 132/2/3 131/2/3
f 134/2/3 132/2/3 133/2/3
f 137/1/3 136/1/3 135/1/3
f 138/1/3 136/1/3 137/1/3
f 139/1/3 136/1/3 138/1/3
f 140/1/3 136/1/3 139/1/3
f 142/1/3 139/1/3 138/1/3
f 143/1/3 139/1/3 142/1/3
f 144/1/3 136/1/3 140/1/3
f 145/1/3 143/1/3 142/1/3
f 145/1/3 144/1/3 143/1/3
f 145/1/3 142/1/3 141/1/3
f 146/1/3 136/1/3 144/1/3
f 146/1/3 144/1/3 145/1/3
f 151/3/3 148/3/3 147/3/3
f 152/1/3 149/1/3 148/1/3
f 152/3/3 148/3/3 151/3/3
f 153/3/3 150/3/3 149/3/3
f 153/1/3 149/1/3 152/1/3
f 154/3/3 150/3/3 153/3/3
f 155/1/3 152/1/3 151/1/3
f 156/3/3 153/3/3 152/3/3
f 156/1/3 152/1/3 155/1/3
f 157/1/3 154/1/3 153/1/3
f 157/3/3 153/3/3 156/3/3
f 158/1/3 154/1/3 157/1/3
f 159/3/3 156/3/3 155/3/3
f 160/1/3 157/1/3 156/1/3
f 160/3/3 156/3/3 159/3/3
f 161/3/3 158/3/3 157/3/3
f 161/1/3 157/1/3 160/1/3
f 162/3/3 158/3/3 161/3/3
f 163/1/3 160/1/3 159/1/3
f 164/3/3 161/3/3 160/3/3
f 164/1/3 160/1/3 163/1/3
f 165/1/3 162/1/3 161/1/3
f 165/3/3 161/3/3 164/3/3
f 166/1/3 162/1/3 165/1/3
f 167/2/4 168/2/4 169/2/4
f 169/2/4 168/2/4 170/2/4
f 171/1/4 172/1/4 175/1/4
f 173/1/4 174/1/4 175/1/4
f 172/1/4 173/1/4 175/1/4
f 175/1/4 174/1/4 176/1/4
f 176/1/4 174/1/4 177/1/4
f 177/1/4 174/1/4 178/1/4
f 179/1/4 180/1/4 181/1/4
f 181/1/4 180/1/4 182/1/4
f 182/1/4 180/1/4 183/1/4
f 183/1/4 180/1/4 184/1/4
f 184/1/4 180/1/4 185/1/4
f 185/1/4 180/1/4 186/1/4
f 179/1/4 181/1/4 187/1/4
f 181/3/4 182/3/4 188/3/4
f 187/1/4 181/1/4 188/1/4
f 182/1/4 183/1/4 189/1/4
f 188/3/4 182/3/4 189/3/4
f 183/3/4 184/3/4 190/3/4
f 189/1/4 183/1/4 190/1/4
f 184/1/4 185/1/4 191/1/4
f 190/3/4 184/3/4 191/3/4
f 185/3/4 186/3/4 192/3/4
f 191/1/4 185/1/4 192/1/4
f 192/3/4 186/3/4 193/3/4
f 187/3/4 188/3/4 194/3/4
f 188/1/4 189/1/4 195/1/4
f 194/3/4 188/3/4 195/3/4
f 189/3/4 190/3/4 196/3/4
f 195/1/4 189/1/4 196/1/4
f 190/1/4 191/1/4 197/1/4
f 196/3/4 190/3/4 197/3/4
f 191/3/4 192/3/4 198/3/4
f 197/1/4 191/1/4 198/1/4
f 192/1/4 193/1/4 199/1/4
f 198/3/4 192/3/4 199/3/4
f 199/1/4 193/1/4 200/1/4
f 194/1/4 195/1/4 201/1/4
f 195/3/4 196/3/4 202/3/4
f 201/1/4 195/1/4 202/1/4
f 196/1/4 197/1/4 203/1/4
f 202/3/4 196/3/4 203/3/4
f 197/3/4 198/3/4 204/3/4
f 203/1/4 197/1/4 204/1/4
f 198/1/4 199/1/4 205/1/4
f 204/3/4 198/3/4 205/3/4
f 199/3/4 200/3/4 206/3/4
f 205/1/4 199/1/4 206/1/4
f 206/3/4 200/3/4 207/3/4
f 201/3/4 202/3/4 208/3/4
f 202/1/4 203/1/4 209/1/4
f 208/3/4 202/3/4 209/3/4
f 203/3/4 204/3/4 210/3/4
f 209/1/4 203/1/4 210/1/4
f 204/1/4 205/1/4 211/1/4
f 210/3/4 204/3/4 211/3/4
f 205/3/4 206/3/4 212/3/4
f 211/1/4 205/1/4 212/1/4
f 206/1/4 207/1/4 213/1/4
f 212/3/4 206/3/4 213/3/4
f 208/1/4 209/1/4 214/1/4
f 209/1/4 210/1/4 214/1/4
f 212/1/4 213/1/4 214/1/4
f 211/1/4 212/1/4 214/1/4
f 210/1/4 211/1/4 214/1/4
f 213/1/4 207/1/4 215/1/4
f 214/1/4 213/1/4 215/1/4
f 219/2/5 217/2/5 216/2/5
f 220/2/5 217/2/5 219/2/5
f 222/1/5 219/1/5 218/1/5
f 222/1/5 221/1/5 220/1/5
f 222/1/5 220/1/5 219/1/5
f 223/1/5 221/1/5 222/1/5
f 224/1/5 221/1/5 223/1/5
f 225/1/5 221/1/5 224/1/5
f 226/3/5 223/3/5 222/3/5
f 227/1/5 224/1/5 223/1/5
f 227/3/5 223/3/5 226/3/5
f 228/3/5 225/3/5 224/3/5
f 228/1/5 224/1/5 227/1/5
f 229/3/5 225/3/5 228/3/5
f 230/1/5 227/1/5 226/1/5
f 230/1/5 228/1/5 227/1/5
f 230/1/5 229/1/5 228/1/5
f 231/1/5 229/1/5 230/1/5
f 232/1/5 229/1/5 231/1/5
f 233/1/5 229/1/5 232/1/5
f 234/3/5 231/3/5 230/3/5
f 235/1/5 232/1/5 231/1/5
f 235/3/5 231/3/5 234/3/5
f 236/1/5 232/1/5 235/1/5
f 237/1/5 232/1/5 236/1/5
f 238/1/5 232/1/5 237/1/5
f 239/3/5 233/3/5 232/3/5
f 239/1/5 232/1/5 238/1/5
f 240/3/5 233/3/5 239/3/5
f 241/1/5 235/1/5 234/1/5
f 241/1/5 236/1/5 235/1/5
f 242/3/5 237/3/5 236/3/5
f 242/1/5 236/1/5 241/1/5
f 243/1/5 238/1/5 237/1/5
f 243/3/5 237/3/5 242/3/5
f 244/3/5 239/3/5 238/3/5
f 244/1/5 238/1/5 243/1/5
f 245/1/5 240/1/5 239/1/5
f 245/3/5 239/3/5 244/3/5
f 246/1/5 240/1/5 245/1/5
f 249/2/5 248/2/5 247/2/5
f 250/2/5 248/2/5 249/2/5
f 251/2/6 252/2/6 253/2/6
f 253/2/6 252/2/6 254/2/6
f 255/4/6 256/4/6 257/4/6
f 257/4/6 256/4/6 258/4/6
f 257/4/6 258/4/6 259/4/6
f 259/4/6 258/4/6 260/4/6
f 259/4/6 260/4/6 261/4/6
f 261/4/6 260/4/6 262/4/6
f 261/4/6 262/4/6 263/4/6
f 263/4/6 262/4/6 264/4/6
f 264/4/6 262/4/6 265/4/6
f 265/4/6 262/4/6 266/4/6
f 266/4/6 262/4/6 267/4/6
f 268/2/6 269/2/6 270/2/6
f 270/2/6 269/2/6 271/2/6
f 272/1/6 273/1/6 274/1/6
f 274/1/6 273/1/6 275/1/6
f 275/1/6 273/1/6 276/1/6
f 276/1/6 273/1/6 277/1/6
f 274/3/6 275/3/6 278/3/6
f 278/3/6 275/3/6 279/3/6
f 276/3/6 277/3/6 280/3/6
f 280/3/6 277/3/6 281/3/6
f 278/1/6 279/1/6 282/1/6
f 282/1/6 279/1/6 283/1/6
f 280/1/6 281/1/6 284/1/6
f 284/1/6 281/1/6 285/1/6
f 282/3/6 283/3/6 286/3/6
f 286/3/6 283/3/6 287/3/6
f 284/3/6 285/3/6 288/3/6
f 288/3/6 285/3/6 289/3/6
f 286/1/6 287/1/6 290/1/6
f 288/1/6 289/1/6 294/1/6
f 286/1/6 290/1/6 295/1/6
f 290/3/6 291/3/6 296/3/6
f 295/1/6 290/1/6 296/1/6
f 291/1/6 292/1/6 297/1/6
f 296/3/6 291/3/6 297/3/6
f 292/3/6 293/3/6 298/3/6
f 297/1/6 292/1/6 298/1/6
f 293/1/6 294/1/6 299/1/6
f 298/3/6 293/3/6 299/3/6
f 294/1/6 289/1/6 300/1/6
f 299/1/6 294/1/6 300/1/6
