# MagicaVoxel @ Ephtracy

# group
o 

# material
mtllib CupDestroy_with_water.mtl
usemtl palette

# normals
vn -1 0 0
vn 1 0 0
vn 0 0 1
vn 0 0 -1
vn 0 -1 0
vn 0 1 0

# texcoords
vt 0.814453 0.5
vt 0.818359 0.5
vt 0.912109 0.5
vt 0.986328 0.5

# verts
v -0.3 0 0.4
v -0.3 0 -0.2
v -0.3 0.1 0.4
v -0.3 0.1 0.3
v -0.3 0.1 0.2
v -0.3 0.1 0.1
v -0.3 0.1 0
v -0.3 0.1 -0.1
v -0.3 0.2 0.4
v -0.3 0.2 0.3
v -0.3 0.2 0.2
v -0.3 0.2 0.1
v -0.3 0.2 0
v -0.3 0.2 -0.1
v -0.3 0.2 -0.2
v -0.3 0.3 0.4
v -0.3 0.3 0.3
v -0.3 0.3 0.2
v -0.3 0.3 0.1
v -0.3 0.3 0
v -0.3 0.3 -0.1
v -0.3 0.3 -0.2
v -0.3 0.4 0.4
v -0.3 0.4 0.3
v -0.3 0.4 0.2
v -0.3 0.4 0.1
v -0.3 0.4 0
v -0.3 0.4 -0.1
v -0.3 0.4 -0.2
v -0.3 0.5 0.3
v -0.3 0.5 0.2
v -0.3 0.5 0.1
v -0.3 0.5 0
v -0.3 0.5 -0.1
v -0.3 0.5 -0.2
v -0.3 0.6 0.4
v -0.3 0.6 -0.2
v -0.2 0 -0.2
v -0.2 0 -0.4
v -0.2 0.1 -0.2
v -0.2 0.1 -0.4
v -0.1 0 -0.5
v -0.1 0 -0.6
v -0.1 0.1 -0.1
v -0.1 0.1 -0.2
v -0.1 0.1 -0.3
v -0.1 0.1 -0.5
v -0.1 0.1 -0.6
v -0.1 0.2 -0.1
v -0.1 0.2 -0.3
v -0.1 0.6 0.4
v -0.1 0.6 0.3
v -0.1 0.6 0
v -0.1 0.6 -0.1
v -0.1 0.7 0.3
v -0.1 0.7 0
v -0.1 0.8 0.4
v -0.1 0.8 -0.1
v -2.98023e-008 0 0.1
v -2.98023e-008 0 0
v -2.98023e-008 0 -0.4
v -2.98023e-008 0 -0.5
v -2.98023e-008 0.1 0.1
v -2.98023e-008 0.1 0
v -2.98023e-008 0.1 -0.1
v -2.98023e-008 0.1 -0.3
v -2.98023e-008 0.1 -0.4
v -2.98023e-008 0.1 -0.5
v -2.98023e-008 0.2 0.3
v -2.98023e-008 0.2 0.2
v -2.98023e-008 0.2 0
v -2.98023e-008 0.2 -0.1
v -2.98023e-008 0.2 -0.3
v -2.98023e-008 0.2 -0.4
v -2.98023e-008 0.3 0.3
v -2.98023e-008 0.3 0.2
v 0.1 0 -0.1
v 0.1 0 -0.2
v 0.1 0.1 -0.1
v 0.1 0.1 -0.2
v 0.2 0 -0.2
v 0.2 0 -0.4
v 0.2 0.1 0
v 0.2 0.1 -0.1
v 0.2 0.1 -0.2
v 0.2 0.1 -0.4
v 0.2 0.2 0.3
v 0.2 0.2 0.2
v 0.2 0.2 0.1
v 0.2 0.2 0
v 0.2 0.2 -0.1
v 0.2 0.3 0.3
v 0.2 0.3 0.2
v 0.2 0.3 0.1
v 0.2 0.4 0.3
v 0.2 0.4 0.2
v 0.2 0.4 0.1
v 0.2 0.5 0.3
v 0.2 0.5 0.2
v 0.2 0.5 0.1
v 0.3 0 -0.4
v 0.3 0 -0.5
v 0.3 0.1 -0.2
v 0.3 0.1 -0.3
v 0.3 0.1 -0.4
v 0.3 0.1 -0.5
v 0.3 0.2 -0.2
v 0.3 0.2 -0.3
v -0.2 0.1 0
v -0.2 0.1 -0.1
v -0.2 0.1 -0.2
v -0.2 0.2 0.3
v -0.2 0.2 0.2
v -0.2 0.2 0.1
v -0.2 0.2 0
v -0.2 0.2 -0.1
v -0.2 0.2 -0.2
v -0.2 0.3 0.3
v -0.2 0.3 0.2
v -0.2 0.3 0.1
v -0.2 0.3 0
v -0.2 0.3 -0.1
v -0.2 0.3 -0.2
v -0.2 0.4 0.3
v -0.2 0.4 0.2
v -0.2 0.4 0.1
v -0.2 0.4 0
v -0.2 0.4 -0.1
v -0.2 0.4 -0.2
v -0.2 0.5 0.3
v -0.2 0.5 0.2
v -0.2 0.5 0.1
v -0.2 0.5 0
v -0.2 0.5 -0.1
v -0.2 0.5 -0.2
v -0.1 0 0.1
v -0.1 0 0
v -0.1 0.1 0.1
v -0.1 0.1 0
v -2.98023e-008 0 -0.1
v -2.98023e-008 0 -0.2
v -2.98023e-008 0 -0.5
v -2.98023e-008 0 -0.6
v -2.98023e-008 0.1 -0.1
v -2.98023e-008 0.1 -0.2
v -2.98023e-008 0.1 -0.3
v -2.98023e-008 0.1 -0.5
v -2.98023e-008 0.1 -0.6
v -2.98023e-008 0.2 -0.1
v -2.98023e-008 0.2 -0.3
v -2.98023e-008 0.5 -0.1
v -2.98023e-008 0.5 -0.2
v -2.98023e-008 0.6 -0.1
v -2.98023e-008 0.6 -0.2
v 0.1 0 -0.2
v 0.1 0 -0.5
v 0.1 0.1 0
v 0.1 0.1 -0.1
v 0.1 0.1 -0.2
v 0.1 0.1 -0.3
v 0.1 0.1 -0.4
v 0.1 0.1 -0.5
v 0.1 0.2 0.3
v 0.1 0.2 0.2
v 0.1 0.2 0
v 0.1 0.2 -0.1
v 0.1 0.2 -0.3
v 0.1 0.2 -0.4
v 0.1 0.3 0.3
v 0.1 0.3 0.2
v 0.1 0.5 0
v 0.1 0.5 -0.1
v 0.1 0.6 0.4
v 0.1 0.6 0.3
v 0.1 0.6 0
v 0.1 0.6 -0.1
v 0.1 0.7 0.3
v 0.1 0.7 0
v 0.1 0.8 0.4
v 0.1 0.8 -0.1
v 0.2 0.5 0.1
v 0.2 0.5 0
v 0.2 0.6 0.1
v 0.2 0.6 0
v 0.3 0 0.4
v 0.3 0 0.2
v 0.3 0 0.1
v 0.3 0 0
v 0.3 0.1 0.4
v 0.3 0.1 0.3
v 0.3 0.1 0.2
v 0.3 0.1 0.1
v 0.3 0.1 0
v 0.3 0.1 -0.1
v 0.3 0.2 0.4
v 0.3 0.2 0.3
v 0.3 0.2 0.2
v 0.3 0.2 0.1
v 0.3 0.2 0
v 0.3 0.2 -0.1
v 0.3 0.3 0.4
v 0.3 0.3 0.3
v 0.3 0.3 0.2
v 0.3 0.3 0.1
v 0.3 0.4 0.4
v 0.3 0.4 0.3
v 0.3 0.4 0.2
v 0.3 0.4 0.1
v 0.3 0.5 0.3
v 0.3 0.5 0.2
v 0.3 0.6 0.4
v 0.3 0.6 0.1
v 0.4 0 0
v 0.4 0 -0.1
v 0.4 0 -0.2
v 0.4 0.1 0
v 0.4 0.1 -0.1
v 0.4 0.1 -0.2
v 0.4 0.1 -0.3
v 0.4 0.2 -0.2
v 0.4 0.2 -0.3
v 0.5 0 0.2
v 0.5 0 0.1
v 0.5 0 -0.2
v 0.5 0 -0.3
v 0.5 0 -0.4
v 0.5 0 -0.5
v 0.5 0.1 0.2
v 0.5 0.1 0.1
v 0.5 0.1 -0.2
v 0.5 0.1 -0.3
v 0.5 0.1 -0.4
v 0.5 0.1 -0.5
v -0.3 0 0.4
v -0.3 0.1 0.4
v -0.3 0.2 0.4
v -0.3 0.3 0.4
v -0.3 0.4 0.4
v -0.3 0.6 0.4
v -0.2 0 0.4
v -0.2 0.1 0.4
v -0.2 0.2 0.4
v -0.2 0.3 0.4
v -0.2 0.4 0.4
v -0.1 0 0.4
v -0.1 0.1 0.4
v -0.1 0.6 0.4
v -0.1 0.8 0.4
v -2.98023e-008 0 0.4
v -2.98023e-008 0.1 0.4
v 0.1 0 0.4
v 0.1 0.1 0.4
v 0.1 0.6 0.4
v 0.1 0.8 0.4
v 0.2 0.1 0.4
v 0.2 0.2 0.4
v 0.2 0.3 0.4
v 0.2 0.4 0.4
v 0.3 0 0.4
v 0.3 0.1 0.4
v 0.3 0.2 0.4
v 0.3 0.3 0.4
v 0.3 0.4 0.4
v 0.3 0.6 0.4
v 0.3 0 0.2
v 0.3 0.1 0.2
v 0.4 0 0.2
v 0.4 0.1 0.2
v 0.5 0 0.2
v 0.5 0.1 0.2
v -0.1 0 0
v -0.1 0.1 0
v -0.1 0.6 0
v -0.1 0.7 0
v -2.98023e-008 0 0
v -2.98023e-008 0.1 0
v 0.1 0.6 0
v 0.1 0.7 0
v 0.3 0 0
v 0.3 0.1 0
v 0.4 0 0
v 0.4 0.1 0
v -0.1 0.1 -0.1
v -0.1 0.2 -0.1
v -2.98023e-008 0.1 -0.1
v -2.98023e-008 0.2 -0.1
v -2.98023e-008 0 -0.2
v -2.98023e-008 0.1 -0.2
v 0.1 0 -0.2
v 0.1 0.1 -0.2
v 0.3 0.1 -0.2
v 0.3 0.2 -0.2
v 0.4 0 -0.2
v 0.4 0.1 -0.2
v 0.4 0.2 -0.2
v 0.5 0 -0.2
v 0.5 0.1 -0.2
v -2.98023e-008 0.1 -0.3
v -2.98023e-008 0.2 -0.3
v 0.1 0.1 -0.3
v 0.1 0.2 -0.3
v -0.1 0 -0.5
v -0.1 0.1 -0.5
v -2.98023e-008 0 -0.5
v -2.98023e-008 0.1 -0.5
v -0.2 0.2 0.3
v -0.2 0.3 0.3
v -0.2 0.4 0.3
v -0.2 0.5 0.3
v -0.1 0.6 0.3
v -0.1 0.7 0.3
v -2.98023e-008 0.2 0.3
v -2.98023e-008 0.3 0.3
v 0.1 0.2 0.3
v 0.1 0.3 0.3
v 0.1 0.6 0.3
v 0.1 0.7 0.3
v 0.2 0.2 0.3
v 0.2 0.3 0.3
v 0.2 0.4 0.3
v 0.2 0.5 0.3
v -2.98023e-008 0.2 0.2
v -2.98023e-008 0.3 0.2
v 0.1 0.2 0.2
v 0.1 0.3 0.2
v 0.2 0.3 0.2
v 0.2 0.4 0.2
v 0.3 0.3 0.2
v 0.3 0.4 0.2
v -0.1 0 0.1
v -0.1 0.1 0.1
v -2.98023e-008 0 0.1
v -2.98023e-008 0.1 0.1
v 0.2 0.2 0.1
v 0.2 0.3 0.1
v 0.2 0.4 0.1
v 0.2 0.5 0.1
v 0.2 0.6 0.1
v 0.3 0 0.1
v 0.3 0.1 0.1
v 0.3 0.2 0.1
v 0.3 0.3 0.1
v 0.3 0.4 0.1
v 0.3 0.6 0.1
v 0.4 0 0.1
v 0.4 0.1 0.1
v 0.5 0 0.1
v 0.5 0.1 0.1
v -0.2 0.1 0
v -0.2 0.2 0
v -0.1 0.1 0
v -2.98023e-008 0.1 0
v -2.98023e-008 0.2 0
v 0.1 0.1 0
v 0.1 0.2 0
v 0.1 0.5 0
v 0.1 0.6 0
v 0.2 0.1 0
v 0.2 0.2 0
v 0.2 0.5 0
v 0.2 0.6 0
v -0.1 0.6 -0.1
v -0.1 0.8 -0.1
v -2.98023e-008 0 -0.1
v -2.98023e-008 0.1 -0.1
v -2.98023e-008 0.2 -0.1
v -2.98023e-008 0.5 -0.1
v -2.98023e-008 0.6 -0.1
v 0.1 0 -0.1
v 0.1 0.1 -0.1
v 0.1 0.2 -0.1
v 0.1 0.5 -0.1
v 0.1 0.6 -0.1
v 0.1 0.8 -0.1
v 0.2 0.1 -0.1
v 0.2 0.2 -0.1
v 0.3 0.1 -0.1
v 0.3 0.2 -0.1
v -0.3 0 -0.2
v -0.3 0.2 -0.2
v -0.3 0.3 -0.2
v -0.3 0.4 -0.2
v -0.3 0.5 -0.2
v -0.3 0.6 -0.2
v -0.2 0 -0.2
v -0.2 0.1 -0.2
v -0.2 0.2 -0.2
v -0.2 0.3 -0.2
v -0.2 0.4 -0.2
v -0.2 0.5 -0.2
v -2.98023e-008 0.5 -0.2
v -2.98023e-008 0.6 -0.2
v 0.1 0 -0.2
v 0.1 0.1 -0.2
v 0.2 0 -0.2
v 0.2 0.1 -0.2
v -0.1 0.1 -0.3
v -0.1 0.2 -0.3
v -2.98023e-008 0.1 -0.3
v -2.98023e-008 0.2 -0.3
v 0.3 0.1 -0.3
v 0.3 0.2 -0.3
v 0.4 0.1 -0.3
v 0.4 0.2 -0.3
v -0.2 0 -0.4
v -0.2 0.1 -0.4
v -2.98023e-008 0 -0.4
v -2.98023e-008 0.1 -0.4
v -2.98023e-008 0.2 -0.4
v 0.1 0.1 -0.4
v 0.1 0.2 -0.4
v 0.2 0 -0.4
v 0.2 0.1 -0.4
v 0.3 0 -0.4
v 0.3 0.1 -0.4
v -2.98023e-008 0 -0.5
v -2.98023e-008 0.1 -0.5
v 0.1 0 -0.5
v 0.1 0.1 -0.5
v 0.3 0 -0.5
v 0.3 0.1 -0.5
v 0.4 0 -0.5
v 0.4 0.1 -0.5
v 0.5 0 -0.5
v 0.5 0.1 -0.5
v -0.1 0 -0.6
v -0.1 0.1 -0.6
v -2.98023e-008 0 -0.6
v -2.98023e-008 0.1 -0.6
v -0.3 0 0.4
v -0.2 0 0.4
v -0.1 0 0.4
v -2.98023e-008 0 0.4
v 0.1 0 0.4
v 0.3 0 0.4
v -0.2 0 0.3
v -0.1 0 0.3
v -2.98023e-008 0 0.3
v 0.1 0 0.3
v 0.2 0 0.3
v -0.2 0 0.2
v -0.1 0 0.2
v -2.98023e-008 0 0.2
v 0.1 0 0.2
v 0.2 0 0.2
v 0.3 0 0.2
v 0.4 0 0.2
v 0.5 0 0.2
v -0.2 0 0.1
v -0.1 0 0.1
v -2.98023e-008 0 0.1
v 0.1 0 0.1
v 0.2 0 0.1
v 0.3 0 0.1
v 0.4 0 0.1
v 0.5 0 0.1
v -0.2 0 0
v -0.1 0 0
v -2.98023e-008 0 0
v 0.1 0 0
v 0.2 0 0
v 0.3 0 0
v 0.4 0 0
v -0.2 0 -0.1
v -0.1 0 -0.1
v -2.98023e-008 0 -0.1
v 0.1 0 -0.1
v 0.2 0 -0.1
v 0.3 0 -0.1
v 0.4 0 -0.1
v -0.3 0 -0.2
v -0.2 0 -0.2
v -0.1 0 -0.2
v -2.98023e-008 0 -0.2
v 0.1 0 -0.2
v 0.2 0 -0.2
v 0.3 0 -0.2
v 0.4 0 -0.2
v 0.5 0 -0.2
v 0.3 0 -0.3
v 0.4 0 -0.3
v 0.5 0 -0.3
v -0.2 0 -0.4
v -2.98023e-008 0 -0.4
v 0.2 0 -0.4
v 0.3 0 -0.4
v 0.4 0 -0.4
v 0.5 0 -0.4
v -0.1 0 -0.5
v -2.98023e-008 0 -0.5
v 0.1 0 -0.5
v 0.3 0 -0.5
v 0.4 0 -0.5
v 0.5 0 -0.5
v -0.1 0 -0.6
v -2.98023e-008 0 -0.6
v -0.1 0.1 0.1
v -2.98023e-008 0.1 0.1
v -0.1 0.1 0
v -2.98023e-008 0.1 0
v 0.2 0.4 0.2
v 0.3 0.4 0.2
v 0.2 0.4 0.1
v 0.3 0.4 0.1
v -0.2 0.5 0.3
v 0.2 0.5 0.3
v -0.2 0.5 0.2
v 0.2 0.5 0.2
v -0.2 0.5 0.1
v 0.2 0.5 0.1
v -0.2 0.5 0
v 0.1 0.5 0
v 0.2 0.5 0
v -0.2 0.5 -0.1
v -2.98023e-008 0.5 -0.1
v 0.1 0.5 -0.1
v -0.2 0.5 -0.2
v -2.98023e-008 0.5 -0.2
v -0.1 0.7 0.3
v 0.1 0.7 0.3
v -0.1 0.7 0
v 0.1 0.7 0
v 0.3 0.1 0.2
v 0.4 0.1 0.2
v 0.5 0.1 0.2
v 0.3 0.1 0.1
v 0.4 0.1 0.1
v 0.5 0.1 0.1
v -0.2 0.1 0
v -0.1 0.1 0
v -2.98023e-008 0.1 0
v 0.1 0.1 0
v 0.2 0.1 0
v 0.3 0.1 0
v 0.4 0.1 0
v -0.2 0.1 -0.1
v -0.1 0.1 -0.1
v -2.98023e-008 0.1 -0.1
v 0.1 0.1 -0.1
v 0.2 0.1 -0.1
v 0.3 0.1 -0.1
v 0.4 0.1 -0.1
v -0.2 0.1 -0.2
v -0.1 0.1 -0.2
v -2.98023e-008 0.1 -0.2
v 0.1 0.1 -0.2
v 0.2 0.1 -0.2
v 0.3 0.1 -0.2
v 0.4 0.1 -0.2
v 0.5 0.1 -0.2
v -0.1 0.1 -0.3
v -2.98023e-008 0.1 -0.3
v 0.1 0.1 -0.3
v 0.3 0.1 -0.3
v 0.4 0.1 -0.3
v 0.5 0.1 -0.3
v -0.2 0.1 -0.4
v -2.98023e-008 0.1 -0.4
v 0.1 0.1 -0.4
v 0.2 0.1 -0.4
v 0.3 0.1 -0.4
v 0.4 0.1 -0.4
v 0.5 0.1 -0.4
v -0.1 0.1 -0.5
v -2.98023e-008 0.1 -0.5
v 0.1 0.1 -0.5
v 0.3 0.1 -0.5
v 0.4 0.1 -0.5
v 0.5 0.1 -0.5
v -0.1 0.1 -0.6
v -2.98023e-008 0.1 -0.6
v -0.2 0.2 0.3
v -2.98023e-008 0.2 0.3
v 0.1 0.2 0.3
v 0.2 0.2 0.3
v -0.2 0.2 0.2
v -2.98023e-008 0.2 0.2
v 0.1 0.2 0.2
v 0.2 0.2 0.2
v -0.2 0.2 0.1
v 0.2 0.2 0.1
v 0.3 0.2 0.1
v -0.2 0.2 0
v -2.98023e-008 0.2 0
v 0.1 0.2 0
v 0.2 0.2 0
v 0.3 0.2 0
v -0.1 0.2 -0.1
v -2.98023e-008 0.2 -0.1
v 0.1 0.2 -0.1
v 0.2 0.2 -0.1
v 0.3 0.2 -0.1
v 0.3 0.2 -0.2
v 0.4 0.2 -0.2
v -0.1 0.2 -0.3
v -2.98023e-008 0.2 -0.3
v 0.1 0.2 -0.3
v 0.3 0.2 -0.3
v 0.4 0.2 -0.3
v -2.98023e-008 0.2 -0.4
v 0.1 0.2 -0.4
v -2.98023e-008 0.3 0.3
v 0.1 0.3 0.3
v -2.98023e-008 0.3 0.2
v 0.1 0.3 0.2
v 0.2 0.3 0.2
v 0.3 0.3 0.2
v 0.2 0.3 0.1
v 0.3 0.3 0.1
v -0.3 0.6 0.4
v -0.1 0.6 0.4
v 0.1 0.6 0.4
v 0.3 0.6 0.4
v -0.1 0.6 0.3
v 0.1 0.6 0.3
v 0.2 0.6 0.1
v 0.3 0.6 0.1
v -0.1 0.6 0
v 0.1 0.6 0
v 0.2 0.6 0
v -0.1 0.6 -0.1
v -2.98023e-008 0.6 -0.1
v -0.3 0.6 -0.2
v -2.98023e-008 0.6 -0.2
v -0.1 0.8 0.4
v 0.1 0.8 0.4
v -0.1 0.8 -0.1
v 0.1 0.8 -0.1

# faces
f 3/1/1 2/1/1 1/1/1
f 4/1/1 2/1/1 3/1/1
f 5/1/1 2/1/1 4/1/1
f 6/1/1 2/1/1 5/1/1
f 7/1/1 2/1/1 6/1/1
f 8/1/1 2/1/1 7/1/1
f 9/3/1 4/3/1 3/3/1
f 10/1/1 5/1/1 4/1/1
f 10/3/1 4/3/1 9/3/1
f 11/3/1 6/3/1 5/3/1
f 11/1/1 5/1/1 10/1/1
f 12/1/1 7/1/1 6/1/1
f 12/3/1 6/3/1 11/3/1
f 13/3/1 8/3/1 7/3/1
f 13/1/1 7/1/1 12/1/1
f 14/1/1 2/1/1 8/1/1
f 14/3/1 8/3/1 13/3/1
f 15/1/1 2/1/1 14/1/1
f 16/1/1 10/1/1 9/1/1
f 17/3/1 11/3/1 10/3/1
f 17/1/1 10/1/1 16/1/1
f 18/1/1 12/1/1 11/1/1
f 18/3/1 11/3/1 17/3/1
f 19/3/1 13/3/1 12/3/1
f 19/1/1 12/1/1 18/1/1
f 20/1/1 14/1/1 13/1/1
f 20/3/1 13/3/1 19/3/1
f 21/3/1 15/3/1 14/3/1
f 21/1/1 14/1/1 20/1/1
f 22/3/1 15/3/1 21/3/1
f 23/3/1 17/3/1 16/3/1
f 24/1/1 18/1/1 17/1/1
f 24/3/1 17/3/1 23/3/1
f 25/3/1 19/3/1 18/3/1
f 25/1/1 18/1/1 24/1/1
f 26/1/1 20/1/1 19/1/1
f 26/3/1 19/3/1 25/3/1
f 27/3/1 21/3/1 20/3/1
f 27/1/1 20/1/1 26/1/1
f 28/1/1 22/1/1 21/1/1
f 28/3/1 21/3/1 27/3/1
f 29/1/1 22/1/1 28/1/1
f 30/1/1 24/1/1 23/1/1
f 30/3/1 25/3/1 24/3/1
f 31/1/1 26/1/1 25/1/1
f 31/3/1 25/3/1 30/3/1
f 32/3/1 27/3/1 26/3/1
f 32/1/1 26/1/1 31/1/1
f 33/1/1 28/1/1 27/1/1
f 33/3/1 27/3/1 32/3/1
f 34/3/1 29/3/1 28/3/1
f 34/1/1 28/1/1 33/1/1
f 35/3/1 29/3/1 34/3/1
f 36/1/1 33/1/1 32/1/1
f 36/1/1 30/1/1 23/1/1
f 36/1/1 35/1/1 34/1/1
f 36/1/1 34/1/1 33/1/1
f 36/1/1 32/1/1 31/1/1
f 36/1/1 31/1/1 30/1/1
f 37/1/1 35/1/1 36/1/1
f 40/4/1 39/4/1 38/4/1
f 41/4/1 39/4/1 40/4/1
f 47/4/1 43/4/1 42/4/1
f 48/4/1 43/4/1 47/4/1
f 49/4/1 46/4/1 45/4/1
f 49/4/1 45/4/1 44/4/1
f 50/4/1 46/4/1 49/4/1
f 55/2/1 52/2/1 51/2/1
f 56/2/1 54/2/1 53/2/1
f 57/2/1 55/2/1 51/2/1
f 57/2/1 56/2/1 55/2/1
f 58/2/1 54/2/1 56/2/1
f 58/2/1 56/2/1 57/2/1
f 63/1/1 60/1/1 59/1/1
f 64/1/1 60/1/1 63/1/1
f 67/4/1 62/4/1 61/4/1
f 68/4/1 62/4/1 67/4/1
f 71/4/1 65/4/1 64/4/1
f 72/4/1 65/4/1 71/4/1
f 73/4/1 67/4/1 66/4/1
f 74/4/1 67/4/1 73/4/1
f 75/4/1 70/4/1 69/4/1
f 76/4/1 70/4/1 75/4/1
f 79/4/1 78/4/1 77/4/1
f 80/4/1 78/4/1 79/4/1
f 85/4/1 82/4/1 81/4/1
f 86/4/1 82/4/1 85/4/1
f 90/3/1 84/3/1 83/3/1
f 91/3/1 84/3/1 90/3/1
f 92/3/1 88/3/1 87/3/1
f 93/1/1 89/1/1 88/1/1
f 93/3/1 88/3/1 92/3/1
f 94/1/1 89/1/1 93/1/1
f 95/1/1 93/1/1 92/1/1
f 96/1/1 93/1/1 95/1/1
f 98/3/1 96/3/1 95/3/1
f 99/1/1 97/1/1 96/1/1
f 99/3/1 96/3/1 98/3/1
f 100/1/1 97/1/1 99/1/1
f 105/4/1 102/4/1 101/4/1
f 106/4/1 102/4/1 105/4/1
f 107/1/1 104/1/1 103/1/1
f 108/1/1 104/1/1 107/1/1
f 109/3/2 110/3/2 115/3/2
f 110/1/2 111/1/2 116/1/2
f 115/3/2 110/3/2 116/3/2
f 116/1/2 111/1/2 117/1/2
f 112/3/2 113/3/2 118/3/2
f 113/1/2 114/1/2 119/1/2
f 118/3/2 113/3/2 119/3/2
f 114/3/2 115/3/2 120/3/2
f 119/1/2 114/1/2 120/1/2
f 115/1/2 116/1/2 121/1/2
f 120/3/2 115/3/2 121/3/2
f 116/3/2 117/3/2 122/3/2
f 121/1/2 116/1/2 122/1/2
f 122/3/2 117/3/2 123/3/2
f 118/1/2 119/1/2 124/1/2
f 119/3/2 120/3/2 125/3/2
f 124/1/2 119/1/2 125/1/2
f 120/1/2 121/1/2 126/1/2
f 125/3/2 120/3/2 126/3/2
f 121/3/2 122/3/2 127/3/2
f 126/1/2 121/1/2 127/1/2
f 122/1/2 123/1/2 128/1/2
f 127/3/2 122/3/2 128/3/2
f 128/1/2 123/1/2 129/1/2
f 124/3/2 125/3/2 130/3/2
f 125/1/2 126/1/2 131/1/2
f 130/3/2 125/3/2 131/3/2
f 126/3/2 127/3/2 132/3/2
f 131/1/2 126/1/2 132/1/2
f 127/1/2 128/1/2 133/1/2
f 132/3/2 127/3/2 133/3/2
f 128/3/2 129/3/2 134/3/2
f 133/1/2 128/1/2 134/1/2
f 134/3/2 129/3/2 135/3/2
f 136/1/2 137/1/2 138/1/2
f 138/1/2 137/1/2 139/1/2
f 140/3/2 141/3/2 144/3/2
f 144/3/2 141/3/2 145/3/2
f 142/4/2 143/4/2 147/4/2
f 147/4/2 143/4/2 148/4/2
f 145/4/2 146/4/2 149/4/2
f 144/4/2 145/4/2 149/4/2
f 149/4/2 146/4/2 150/4/2
f 151/1/2 152/1/2 153/1/2
f 153/1/2 152/1/2 154/1/2
f 155/4/2 156/4/2 159/4/2
f 159/4/2 156/4/2 160/4/2
f 160/4/2 156/4/2 161/4/2
f 161/4/2 156/4/2 162/4/2
f 157/4/2 158/4/2 165/4/2
f 165/4/2 158/4/2 166/4/2
f 160/4/2 161/4/2 167/4/2
f 167/4/2 161/4/2 168/4/2
f 163/4/2 164/4/2 169/4/2
f 169/4/2 164/4/2 170/4/2
f 171/1/2 172/1/2 175/1/2
f 175/1/2 172/1/2 176/1/2
f 173/2/2 174/2/2 177/2/2
f 175/2/2 176/2/2 178/2/2
f 173/2/2 177/2/2 179/2/2
f 177/2/2 178/2/2 179/2/2
f 178/2/2 176/2/2 180/2/2
f 179/2/2 178/2/2 180/2/2
f 181/1/2 182/1/2 183/1/2
f 183/1/2 182/1/2 184/1/2
f 185/1/2 186/1/2 189/1/2
f 189/1/2 186/1/2 190/1/2
f 190/1/2 186/1/2 191/1/2
f 187/1/2 188/1/2 192/1/2
f 192/1/2 188/1/2 193/1/2
f 189/3/2 190/3/2 195/3/2
f 190/1/2 191/1/2 196/1/2
f 195/3/2 190/3/2 196/3/2
f 191/3/2 192/3/2 197/3/2
f 196/1/2 191/1/2 197/1/2
f 192/1/2 193/1/2 198/1/2
f 197/3/2 192/3/2 198/3/2
f 193/3/2 194/3/2 199/3/2
f 198/1/2 193/1/2 199/1/2
f 199/3/2 194/3/2 200/3/2
f 195/1/2 196/1/2 201/1/2
f 196/3/2 197/3/2 202/3/2
f 201/1/2 196/1/2 202/1/2
f 197/1/2 198/1/2 203/1/2
f 202/3/2 197/3/2 203/3/2
f 203/1/2 198/1/2 204/1/2
f 201/3/2 202/3/2 205/3/2
f 202/1/2 203/1/2 206/1/2
f 205/3/2 202/3/2 206/3/2
f 206/1/2 203/1/2 207/1/2
f 205/1/2 206/1/2 209/1/2
f 206/3/2 207/3/2 209/3/2
f 207/1/2 208/1/2 210/1/2
f 209/3/2 207/3/2 210/3/2
f 205/1/2 209/1/2 211/1/2
f 209/1/2 210/1/2 211/1/2
f 210/1/2 208/1/2 212/1/2
f 211/1/2 210/1/2 212/1/2
f 213/1/2 214/1/2 216/1/2
f 214/3/2 215/3/2 217/3/2
f 216/1/2 214/1/2 217/1/2
f 217/3/2 215/3/2 218/3/2
f 218/1/2 219/1/2 220/1/2
f 220/1/2 219/1/2 221/1/2
f 222/3/2 223/3/2 228/3/2
f 228/3/2 223/3/2 229/3/2
f 224/3/2 225/3/2 230/3/2
f 225/4/2 226/4/2 231/4/2
f 230/3/2 225/3/2 231/3/2
f 226/1/2 227/1/2 232/1/2
f 231/4/2 226/4/2 232/4/2
f 232/1/2 227/1/2 233/1/2
f 240/1/3 235/1/3 234/1/3
f 241/3/3 236/3/3 235/3/3
f 241/1/3 235/1/3 240/1/3
f 242/1/3 237/1/3 236/1/3
f 242/3/3 236/3/3 241/3/3
f 243/3/3 238/3/3 237/3/3
f 243/1/3 237/1/3 242/1/3
f 244/1/3 239/1/3 238/1/3
f 244/3/3 238/3/3 243/3/3
f 245/3/3 241/3/3 240/3/3
f 246/1/3 243/1/3 242/1/3
f 246/3/3 241/3/3 245/3/3
f 246/1/3 242/1/3 241/1/3
f 246/1/3 244/1/3 243/1/3
f 247/1/3 239/1/3 244/1/3
f 247/1/3 244/1/3 246/1/3
f 249/1/3 246/1/3 245/1/3
f 249/1/3 247/1/3 246/1/3
f 250/1/3 247/1/3 249/1/3
f 251/3/3 250/3/3 249/3/3
f 252/1/3 247/1/3 250/1/3
f 252/3/3 250/3/3 251/3/3
f 253/2/3 248/2/3 247/2/3
f 253/1/3 247/1/3 252/1/3
f 254/2/3 248/2/3 253/2/3
f 255/1/3 252/1/3 251/1/3
f 255/1/3 253/1/3 252/1/3
f 256/1/3 253/1/3 255/1/3
f 257/1/3 253/1/3 256/1/3
f 258/1/3 253/1/3 257/1/3
f 259/1/3 255/1/3 251/1/3
f 260/3/3 256/3/3 255/3/3
f 260/1/3 255/1/3 259/1/3
f 261/1/3 257/1/3 256/1/3
f 261/3/3 256/3/3 260/3/3
f 262/3/3 258/3/3 257/3/3
f 262/1/3 257/1/3 261/1/3
f 263/1/3 253/1/3 258/1/3
f 263/3/3 258/3/3 262/3/3
f 264/1/3 253/1/3 263/1/3
f 267/1/3 266/1/3 265/1/3
f 268/1/3 266/1/3 267/1/3
f 269/3/3 268/3/3 267/3/3
f 270/3/3 268/3/3 269/3/3
f 275/4/3 272/4/3 271/4/3
f 276/4/3 272/4/3 275/4/3
f 277/2/3 274/2/3 273/2/3
f 278/2/3 274/2/3 277/2/3
f 281/1/3 280/1/3 279/1/3
f 282/1/3 280/1/3 281/1/3
f 285/4/3 284/4/3 283/4/3
f 286/4/3 284/4/3 285/4/3
f 289/4/3 288/4/3 287/4/3
f 290/4/3 288/4/3 289/4/3
f 294/1/3 292/1/3 291/1/3
f 295/1/3 292/1/3 294/1/3
f 296/3/3 294/3/3 293/3/3
f 297/3/3 294/3/3 296/3/3
f 300/4/3 299/4/3 298/4/3
f 301/4/3 299/4/3 300/4/3
f 304/4/3 303/4/3 302/4/3
f 305/4/3 303/4/3 304/4/3
f 306/1/4 307/1/4 312/1/4
f 307/1/4 308/1/4 312/1/4
f 308/1/4 309/1/4 312/1/4
f 312/1/4 309/1/4 313/1/4
f 313/1/4 309/1/4 315/1/4
f 310/2/4 311/2/4 316/2/4
f 316/2/4 311/2/4 317/2/4
f 314/1/4 315/1/4 318/1/4
f 315/1/4 309/1/4 319/1/4
f 318/1/4 315/1/4 319/1/4
f 319/1/4 309/1/4 320/1/4
f 320/1/4 309/1/4 321/1/4
f 322/4/4 323/4/4 324/4/4
f 324/4/4 323/4/4 325/4/4
f 326/1/4 327/1/4 328/1/4
f 328/1/4 327/1/4 329/1/4
f 330/1/4 331/1/4 332/1/4
f 332/1/4 331/1/4 333/1/4
f 334/1/4 335/1/4 341/1/4
f 341/1/4 335/1/4 342/1/4
f 336/1/4 337/1/4 343/1/4
f 337/1/4 338/1/4 343/1/4
f 343/1/4 338/1/4 344/1/4
f 339/1/4 340/1/4 345/1/4
f 345/1/4 340/1/4 346/1/4
f 345/3/4 346/3/4 347/3/4
f 347/3/4 346/3/4 348/3/4
f 349/4/4 350/4/4 351/4/4
f 351/4/4 350/4/4 352/4/4
f 352/4/4 350/4/4 353/4/4
f 354/4/4 355/4/4 358/4/4
f 358/4/4 355/4/4 359/4/4
f 356/1/4 357/1/4 360/1/4
f 360/1/4 357/1/4 361/1/4
f 362/2/4 363/2/4 368/2/4
f 365/4/4 366/4/4 369/4/4
f 364/4/4 365/4/4 369/4/4
f 369/4/4 366/4/4 370/4/4
f 370/4/4 366/4/4 371/4/4
f 367/1/4 368/1/4 372/1/4
f 368/2/4 363/2/4 373/2/4
f 372/1/4 368/1/4 373/1/4
f 373/2/4 363/2/4 374/2/4
f 375/3/4 376/3/4 377/3/4
f 377/3/4 376/3/4 378/3/4
f 379/1/4 380/1/4 385/1/4
f 385/1/4 380/1/4 386/1/4
f 380/3/4 381/3/4 387/3/4
f 386/1/4 380/1/4 387/1/4
f 381/1/4 382/1/4 388/1/4
f 387/3/4 381/3/4 388/3/4
f 382/3/4 383/3/4 389/3/4
f 388/1/4 382/1/4 389/1/4
f 383/1/4 384/1/4 390/1/4
f 389/3/4 383/3/4 390/3/4
f 390/1/4 384/1/4 391/1/4
f 391/1/4 384/1/4 392/1/4
f 393/4/4 394/4/4 395/4/4
f 395/4/4 394/4/4 396/4/4
f 397/4/4 398/4/4 399/4/4
f 399/4/4 398/4/4 400/4/4
f 401/1/4 402/1/4 403/1/4
f 403/1/4 402/1/4 404/1/4
f 405/4/4 406/4/4 407/4/4
f 407/4/4 406/4/4 408/4/4
f 408/4/4 409/4/4 410/4/4
f 410/4/4 409/4/4 411/4/4
f 412/4/4 413/4/4 414/4/4
f 414/4/4 413/4/4 415/4/4
f 416/4/4 417/4/4 418/4/4
f 418/4/4 417/4/4 419/4/4
f 420/4/4 421/4/4 422/4/4
f 422/4/4 421/4/4 423/4/4
f 422/1/4 423/1/4 424/1/4
f 424/1/4 423/1/4 425/1/4
f 426/4/4 427/4/4 428/4/4
f 428/4/4 427/4/4 429/4/4
f 436/1/5 431/1/5 430/1/5
f 436/3/5 432/3/5 431/3/5
f 437/1/5 433/1/5 432/1/5
f 437/3/5 432/3/5 436/3/5
f 438/3/5 434/3/5 433/3/5
f 438/1/5 433/1/5 437/1/5
f 439/1/5 435/1/5 434/1/5
f 439/3/5 434/3/5 438/3/5
f 440/1/5 435/1/5 439/1/5
f 441/1/5 437/1/5 436/1/5
f 441/1/5 436/1/5 430/1/5
f 442/3/5 438/3/5 437/3/5
f 442/1/5 437/1/5 441/1/5
f 443/1/5 439/1/5 438/1/5
f 443/3/5 438/3/5 442/3/5
f 444/3/5 440/3/5 439/3/5
f 444/1/5 439/1/5 443/1/5
f 445/1/5 435/1/5 440/1/5
f 445/3/5 440/3/5 444/3/5
f 446/1/5 435/1/5 445/1/5
f 449/1/5 441/1/5 430/1/5
f 449/3/5 442/3/5 441/3/5
f 450/1/5 443/1/5 442/1/5
f 450/3/5 442/3/5 449/3/5
f 451/3/5 444/3/5 443/3/5
f 451/1/5 443/1/5 450/1/5
f 452/1/5 447/1/5 446/1/5
f 452/3/5 444/3/5 451/3/5
f 452/1/5 445/1/5 444/1/5
f 452/1/5 446/1/5 445/1/5
f 453/1/5 447/1/5 452/1/5
f 454/1/5 447/1/5 453/1/5
f 455/3/5 448/3/5 447/3/5
f 455/1/5 447/1/5 454/1/5
f 456/3/5 448/3/5 455/3/5
f 457/1/5 450/1/5 449/1/5
f 457/1/5 449/1/5 430/1/5
f 458/1/5 450/1/5 457/1/5
f 459/1/5 452/1/5 451/1/5
f 460/3/5 453/3/5 452/3/5
f 460/1/5 452/1/5 459/1/5
f 461/1/5 454/1/5 453/1/5
f 461/3/5 453/3/5 460/3/5
f 462/1/5 454/1/5 461/1/5
f 464/3/5 458/3/5 457/3/5
f 464/1/5 457/1/5 430/1/5
f 465/4/5 460/4/5 459/4/5
f 465/3/5 458/3/5 464/3/5
f 465/4/5 459/4/5 458/4/5
f 466/4/5 460/4/5 465/4/5
f 467/1/5 461/1/5 460/1/5
f 467/4/5 460/4/5 466/4/5
f 467/1/5 463/1/5 462/1/5
f 467/1/5 462/1/5 461/1/5
f 468/1/5 463/1/5 467/1/5
f 469/1/5 463/1/5 468/1/5
f 470/1/5 463/1/5 469/1/5
f 471/1/5 464/1/5 430/1/5
f 471/1/5 465/1/5 464/1/5
f 472/1/5 465/1/5 471/1/5
f 473/3/5 466/3/5 465/3/5
f 473/1/5 465/1/5 472/1/5
f 474/3/5 466/3/5 473/3/5
f 475/4/5 468/4/5 467/4/5
f 476/1/5 469/1/5 468/1/5
f 476/4/5 468/4/5 475/4/5
f 477/3/5 470/3/5 469/3/5
f 477/1/5 469/1/5 476/1/5
f 478/3/5 470/3/5 477/3/5
f 480/1/5 478/1/5 477/1/5
f 480/4/5 477/4/5 476/4/5
f 481/3/5 479/3/5 478/3/5
f 481/1/5 478/1/5 480/1/5
f 482/3/5 479/3/5 481/3/5
f 483/4/5 473/4/5 472/4/5
f 483/4/5 475/4/5 474/4/5
f 483/4/5 474/4/5 473/4/5
f 484/4/5 475/4/5 483/4/5
f 485/4/5 480/4/5 476/4/5
f 486/3/5 481/3/5 480/3/5
f 486/4/5 480/4/5 485/4/5
f 487/4/5 482/4/5 481/4/5
f 487/3/5 481/3/5 486/3/5
f 488/4/5 482/4/5 487/4/5
f 490/4/5 475/4/5 484/4/5
f 491/4/5 475/4/5 490/4/5
f 492/4/5 487/4/5 486/4/5
f 493/1/5 488/1/5 487/1/5
f 493/4/5 487/4/5 492/4/5
f 494/1/5 488/1/5 493/1/5
f 495/4/5 490/4/5 489/4/5
f 496/4/5 490/4/5 495/4/5
f 499/4/5 498/4/5 497/4/5
f 500/4/5 498/4/5 499/4/5
f 503/1/5 502/1/5 501/1/5
f 504/1/5 502/1/5 503/1/5
f 507/1/5 506/1/5 505/1/5
f 508/1/5 506/1/5 507/1/5
f 509/1/5 508/1/5 507/1/5
f 510/1/5 508/1/5 509/1/5
f 511/1/5 510/1/5 509/1/5
f 512/1/5 510/1/5 511/1/5
f 513/1/5 510/1/5 512/1/5
f 514/1/5 512/1/5 511/1/5
f 515/1/5 512/1/5 514/1/5
f 516/1/5 512/1/5 515/1/5
f 517/1/5 515/1/5 514/1/5
f 518/1/5 515/1/5 517/1/5
f 521/2/5 520/2/5 519/2/5
f 522/2/5 520/2/5 521/2/5
f 523/1/6 524/1/6 526/1/6
f 524/3/6 525/3/6 527/3/6
f 526/1/6 524/1/6 527/1/6
f 527/3/6 525/3/6 528/3/6
f 529/3/6 530/3/6 536/3/6
f 530/4/6 531/4/6 537/4/6
f 536/3/6 530/3/6 537/3/6
f 537/4/6 531/4/6 538/4/6
f 532/1/6 533/1/6 539/1/6
f 539/1/6 533/1/6 540/1/6
f 534/1/6 535/1/6 541/1/6
f 541/1/6 535/1/6 542/1/6
f 536/1/6 537/1/6 543/1/6
f 543/1/6 537/1/6 544/1/6
f 539/4/6 540/4/6 546/4/6
f 540/1/6 541/1/6 547/1/6
f 546/4/6 540/4/6 547/4/6
f 541/3/6 542/3/6 548/3/6
f 547/1/6 541/1/6 548/1/6
f 548/3/6 542/3/6 549/3/6
f 543/4/6 544/4/6 551/4/6
f 545/4/6 546/4/6 552/4/6
f 552/4/6 546/4/6 553/4/6
f 547/4/6 548/4/6 554/4/6
f 549/3/6 550/3/6 555/3/6
f 555/3/6 550/3/6 556/3/6
f 543/4/6 551/4/6 557/4/6
f 551/4/6 552/4/6 557/4/6
f 557/4/6 552/4/6 558/4/6
f 547/4/6 554/4/6 560/4/6
f 554/3/6 555/3/6 561/3/6
f 560/4/6 554/4/6 561/4/6
f 555/4/6 556/4/6 562/4/6
f 561/3/6 555/3/6 562/3/6
f 562/4/6 556/4/6 563/4/6
f 558/4/6 559/4/6 565/4/6
f 565/4/6 559/4/6 566/4/6
f 561/4/6 562/4/6 567/4/6
f 562/1/6 563/1/6 568/1/6
f 567/4/6 562/4/6 568/4/6
f 568/1/6 563/1/6 569/1/6
f 564/4/6 565/4/6 570/4/6
f 570/4/6 565/4/6 571/4/6
f 572/4/6 573/4/6 576/4/6
f 576/4/6 573/4/6 577/4/6
f 574/4/6 575/4/6 578/4/6
f 578/4/6 575/4/6 579/4/6
f 576/4/6 577/4/6 580/4/6
f 577/4/6 578/4/6 580/4/6
f 578/4/6 579/4/6 580/4/6
f 580/4/6 579/4/6 581/4/6
f 580/4/6 581/4/6 583/4/6
f 583/4/6 581/4/6 584/4/6
f 584/4/6 581/4/6 585/4/6
f 581/1/6 582/1/6 586/1/6
f 585/4/6 581/4/6 586/4/6
f 586/1/6 582/1/6 587/1/6
f 584/4/6 585/4/6 589/4/6
f 589/4/6 585/4/6 590/4/6
f 586/3/6 587/3/6 591/3/6
f 591/3/6 587/3/6 592/3/6
f 588/4/6 589/4/6 595/4/6
f 595/4/6 589/4/6 596/4/6
f 593/1/6 594/1/6 598/1/6
f 598/1/6 594/1/6 599/1/6
f 596/4/6 597/4/6 600/4/6
f 600/4/6 597/4/6 601/4/6
f 602/4/6 603/4/6 604/4/6
f 604/4/6 603/4/6 605/4/6
f 606/1/6 607/1/6 608/1/6
f 608/1/6 607/1/6 609/1/6
f 610/1/6 611/1/6 614/1/6
f 612/1/6 613/1/6 615/1/6
f 615/1/6 613/1/6 616/1/6
f 614/1/6 615/1/6 616/1/6
f 616/1/6 613/1/6 617/1/6
f 610/1/6 614/1/6 618/1/6
f 614/1/6 616/1/6 618/1/6
f 618/1/6 616/1/6 619/1/6
f 619/1/6 616/1/6 620/1/6
f 610/1/6 618/1/6 621/1/6
f 610/1/6 621/1/6 623/1/6
f 621/1/6 622/1/6 623/1/6
f 623/1/6 622/1/6 624/1/6
f 625/2/6 626/2/6 627/2/6
f 627/2/6 626/2/6 628/2/6
