# MagicaVoxel @ Ephtracy

# group
o 

# material
mtllib CupGray_with_water.mtl
usemtl palette

# normals
vn -1 0 0
vn 1 0 0
vn 0 0 1
vn 0 0 -1
vn 0 -1 0
vn 0 1 0

# texcoords
vt 0.818359 0.5
vt 0.986328 0.5
vt 0.994141 0.5

# verts
v -0.3 0 0.2
v -0.3 0 -0.4
v -0.3 0.6 0.2
v -0.3 0.6 -0.4
v -0.1 0 0.4
v -0.1 0 0.2
v -0.1 0.1 0.3
v -0.1 0.1 0.2
v -0.1 0.4 0.3
v -0.1 0.4 0.2
v -0.1 0.5 0.4
v -0.1 0.5 0.2
v 0.2 0.3 0.1
v 0.2 0.3 -0.3
v 0.2 0.6 0.1
v 0.2 0.6 -0.3
v -0.2 0.3 0.1
v -0.2 0.3 -0.3
v -0.2 0.6 0.1
v -0.2 0.6 -0.3
v 0.1 0 0.4
v 0.1 0 0.2
v 0.1 0.1 0.3
v 0.1 0.1 0.2
v 0.1 0.4 0.3
v 0.1 0.4 0.2
v 0.1 0.5 0.4
v 0.1 0.5 0.2
v 0.3 0 0.2
v 0.3 0 -0.4
v 0.3 0.6 0.2
v 0.3 0.6 -0.4
v -0.1 0 0.4
v -0.1 0.5 0.4
v 0.1 0 0.4
v 0.1 0.5 0.4
v -0.3 0 0.2
v -0.3 0.6 0.2
v -0.1 0 0.2
v -0.1 0.1 0.2
v -0.1 0.4 0.2
v -0.1 0.5 0.2
v 0.1 0 0.2
v 0.1 0.1 0.2
v 0.1 0.4 0.2
v 0.1 0.5 0.2
v 0.3 0 0.2
v 0.3 0.6 0.2
v -0.2 0.3 -0.3
v -0.2 0.6 -0.3
v 0.2 0.3 -0.3
v 0.2 0.6 -0.3
v -0.1 0.1 0.3
v -0.1 0.4 0.3
v 0.1 0.1 0.3
v 0.1 0.4 0.3
v -0.2 0.3 0.1
v -0.2 0.6 0.1
v 0.2 0.3 0.1
v 0.2 0.6 0.1
v -0.3 0 -0.4
v -0.3 0.6 -0.4
v 0.3 0 -0.4
v 0.3 0.6 -0.4
v -0.1 0 0.4
v 0.1 0 0.4
v -0.3 0 0.2
v -0.1 0 0.2
v 0.1 0 0.2
v 0.3 0 0.2
v -0.3 0 -0.4
v 0.3 0 -0.4
v -0.1 0.4 0.3
v 0.1 0.4 0.3
v -0.1 0.4 0.2
v 0.1 0.4 0.2
v -0.1 0.1 0.3
v 0.1 0.1 0.3
v -0.1 0.1 0.2
v 0.1 0.1 0.2
v -0.2 0.3 0.1
v 0.2 0.3 0.1
v -0.2 0.3 -0.3
v 0.2 0.3 -0.3
v -0.1 0.5 0.4
v 0.1 0.5 0.4
v -0.1 0.5 0.2
v 0.1 0.5 0.2
v -0.3 0.6 0.2
v 0.3 0.6 0.2
v -0.2 0.6 0.1
v 0.2 0.6 0.1
v -0.2 0.6 -0.3
v 0.2 0.6 -0.3
v -0.3 0.6 -0.4
v 0.3 0.6 -0.4

# faces
f 3/3/1 2/3/1 1/3/1
f 4/3/1 2/3/1 3/3/1
f 7/1/1 6/1/1 5/1/1
f 8/1/1 6/1/1 7/1/1
f 9/1/1 7/1/1 5/1/1
f 11/1/1 9/1/1 5/1/1
f 11/1/1 10/1/1 9/1/1
f 12/1/1 10/1/1 11/1/1
f 15/3/1 14/3/1 13/3/1
f 16/3/1 14/3/1 15/3/1
f 17/3/2 18/3/2 19/3/2
f 19/3/2 18/3/2 20/3/2
f 21/1/2 22/1/2 23/1/2
f 23/1/2 22/1/2 24/1/2
f 21/1/2 23/1/2 25/1/2
f 21/1/2 25/1/2 27/1/2
f 25/1/2 26/1/2 27/1/2
f 27/1/2 26/1/2 28/1/2
f 29/3/2 30/3/2 31/3/2
f 31/3/2 30/3/2 32/3/2
f 35/1/3 34/1/3 33/1/3
f 36/1/3 34/1/3 35/1/3
f 39/3/3 38/3/3 37/3/3
f 40/3/3 38/3/3 39/3/3
f 41/3/3 38/3/3 40/3/3
f 42/3/3 38/3/3 41/3/3
f 44/3/3 41/3/3 40/3/3
f 45/3/3 41/3/3 44/3/3
f 46/3/3 38/3/3 42/3/3
f 47/3/3 45/3/3 44/3/3
f 47/3/3 46/3/3 45/3/3
f 47/3/3 44/3/3 43/3/3
f 48/3/3 38/3/3 46/3/3
f 48/3/3 46/3/3 47/3/3
f 51/3/3 50/3/3 49/3/3
f 52/3/3 50/3/3 51/3/3
f 53/1/4 54/1/4 55/1/4
f 55/1/4 54/1/4 56/1/4
f 57/3/4 58/3/4 59/3/4
f 59/3/4 58/3/4 60/3/4
f 61/3/4 62/3/4 63/3/4
f 63/3/4 62/3/4 64/3/4
f 68/1/5 66/1/5 65/1/5
f 69/1/5 66/1/5 68/1/5
f 71/3/5 68/3/5 67/3/5
f 71/3/5 70/3/5 69/3/5
f 71/3/5 69/3/5 68/3/5
f 72/3/5 70/3/5 71/3/5
f 75/1/5 74/1/5 73/1/5
f 76/1/5 74/1/5 75/1/5
f 77/1/6 78/1/6 79/1/6
f 79/1/6 78/1/6 80/1/6
f 81/2/6 82/2/6 83/2/6
f 83/2/6 82/2/6 84/2/6
f 85/1/6 86/1/6 87/1/6
f 87/1/6 86/1/6 88/1/6
f 89/3/6 90/3/6 91/3/6
f 91/3/6 90/3/6 92/3/6
f 89/3/6 91/3/6 93/3/6
f 92/3/6 90/3/6 94/3/6
f 89/3/6 93/3/6 95/3/6
f 93/3/6 94/3/6 95/3/6
f 94/3/6 90/3/6 96/3/6
f 95/3/6 94/3/6 96/3/6
