# MagicaVoxel @ Ephtracy

# group
o 

# material
mtllib light-brownDestroy.mtl
usemtl palette

# normals
vn -1 0 0
vn 1 0 0
vn 0 0 1
vn 0 0 -1
vn 0 -1 0
vn 0 1 0

# texcoords
vt 0.951172 0.5
vt 0.970703 0.5

# verts
v -0.3 0 0.4
v -0.3 0 -0.2
v -0.3 0.6 0.4
v -0.3 0.6 -0.2
v -0.1 0.6 0.4
v -0.1 0.6 0.3
v -0.1 0.6 0
v -0.1 0.6 -0.1
v -0.1 0.7 0.3
v -0.1 0.7 0
v -0.1 0.8 0.4
v -0.1 0.8 -0.1
v -2.98023e-008 0 0.1
v -2.98023e-008 0 0
v -2.98023e-008 0.1 0.1
v -2.98023e-008 0.1 0
v 0.1 0 0
v 0.1 0 -0.1
v 0.1 0.1 0
v 0.1 0.1 -0.1
v 0.2 0 -0.1
v 0.2 0 -0.2
v 0.2 0.1 0.3
v 0.2 0.1 -0.1
v 0.2 0.1 -0.2
v 0.2 0.2 0.1
v 0.2 0.2 -0.1
v 0.2 0.3 0.2
v 0.2 0.3 0.1
v 0.2 0.4 0.2
v 0.2 0.4 0.1
v 0.2 0.5 0.3
v 0.2 0.5 0.1
v 0.3 0 -0.2
v 0.3 0 -0.4
v 0.3 0.1 -0.2
v 0.3 0.1 -0.3
v 0.3 0.1 -0.4
v 0.3 0.2 -0.2
v 0.3 0.2 -0.3
v 0.4 0 -0.4
v 0.4 0 -0.5
v 0.4 0.1 -0.4
v 0.4 0.1 -0.5
v -0.2 0.1 0.3
v -0.2 0.1 -0.2
v -0.2 0.5 0.3
v -0.2 0.5 -0.2
v -0.1 0 0.1
v -0.1 0 -0.1
v -0.1 0.1 0.1
v -0.1 0.1 -0.1
v -2.98023e-008 0 -0.1
v -2.98023e-008 0 -0.2
v -2.98023e-008 0.1 -0.1
v -2.98023e-008 0.1 -0.2
v -2.98023e-008 0.5 -0.1
v -2.98023e-008 0.5 -0.2
v -2.98023e-008 0.6 -0.1
v -2.98023e-008 0.6 -0.2
v 0.1 0.5 0
v 0.1 0.5 -0.1
v 0.1 0.6 0.4
v 0.1 0.6 0.3
v 0.1 0.6 0
v 0.1 0.7 0.3
v 0.1 0.7 0
v 0.1 0.8 0.4
v 0.1 0.8 -0.1
v 0.2 0.5 0.1
v 0.2 0.5 0
v 0.2 0.6 0.1
v 0.2 0.6 0
v 0.3 0 0.4
v 0.3 0 0.2
v 0.3 0 0.1
v 0.3 0 0
v 0.3 0.1 0.2
v 0.3 0.1 0.1
v 0.3 0.1 0
v 0.3 0.1 -0.1
v 0.3 0.2 0.1
v 0.3 0.2 -0.1
v 0.3 0.3 0.2
v 0.3 0.3 0.1
v 0.3 0.4 0.2
v 0.3 0.4 0.1
v 0.3 0.6 0.4
v 0.3 0.6 0.1
v 0.4 0 0
v 0.4 0 -0.2
v 0.4 0 -0.3
v 0.4 0 -0.4
v 0.4 0.1 0
v 0.4 0.1 -0.2
v 0.4 0.1 -0.3
v 0.4 0.1 -0.4
v 0.4 0.2 -0.2
v 0.4 0.2 -0.3
v 0.5 0 0.2
v 0.5 0 0.1
v 0.5 0 -0.2
v 0.5 0 -0.3
v 0.5 0 -0.4
v 0.5 0 -0.5
v 0.5 0.1 0.2
v 0.5 0.1 0.1
v 0.5 0.1 -0.2
v 0.5 0.1 -0.3
v 0.5 0.1 -0.4
v 0.5 0.1 -0.5
v -0.3 0 0.4
v -0.3 0.6 0.4
v -0.1 0.6 0.4
v -0.1 0.8 0.4
v 0.1 0.6 0.4
v 0.1 0.8 0.4
v 0.3 0 0.4
v 0.3 0.6 0.4
v 0.3 0 0.2
v 0.3 0.1 0.2
v 0.5 0 0.2
v 0.5 0.1 0.2
v -0.1 0.6 0
v -0.1 0.7 0
v 0.1 0.6 0
v 0.1 0.7 0
v 0.3 0 0
v 0.3 0.1 0
v 0.4 0 0
v 0.4 0.1 0
v -0.1 0 -0.1
v -0.1 0.1 -0.1
v -2.98023e-008 0 -0.1
v -2.98023e-008 0.1 -0.1
v 0.3 0.1 -0.2
v 0.3 0.2 -0.2
v 0.4 0 -0.2
v 0.4 0.1 -0.2
v 0.4 0.2 -0.2
v 0.5 0 -0.2
v 0.5 0.1 -0.2
v 0.4 0 -0.4
v 0.4 0.1 -0.4
v 0.5 0 -0.4
v 0.5 0.1 -0.4
v -0.2 0.1 0.3
v -0.2 0.5 0.3
v -0.1 0.6 0.3
v -0.1 0.7 0.3
v 0.1 0.6 0.3
v 0.1 0.7 0.3
v 0.2 0.1 0.3
v 0.2 0.5 0.3
v 0.2 0.3 0.2
v 0.2 0.4 0.2
v 0.3 0.3 0.2
v 0.3 0.4 0.2
v -0.1 0 0.1
v -0.1 0.1 0.1
v -2.98023e-008 0 0.1
v -2.98023e-008 0.1 0.1
v 0.2 0.2 0.1
v 0.2 0.3 0.1
v 0.2 0.4 0.1
v 0.2 0.5 0.1
v 0.2 0.6 0.1
v 0.3 0 0.1
v 0.3 0.1 0.1
v 0.3 0.2 0.1
v 0.3 0.3 0.1
v 0.3 0.4 0.1
v 0.3 0.6 0.1
v 0.5 0 0.1
v 0.5 0.1 0.1
v -2.98023e-008 0 0
v -2.98023e-008 0.1 0
v 0.1 0 0
v 0.1 0.1 0
v 0.1 0.5 0
v 0.1 0.6 0
v 0.2 0.5 0
v 0.2 0.6 0
v -0.1 0.6 -0.1
v -0.1 0.8 -0.1
v -2.98023e-008 0.5 -0.1
v -2.98023e-008 0.6 -0.1
v 0.1 0 -0.1
v 0.1 0.1 -0.1
v 0.1 0.5 -0.1
v 0.1 0.8 -0.1
v 0.2 0 -0.1
v 0.2 0.1 -0.1
v 0.2 0.2 -0.1
v 0.3 0.1 -0.1
v 0.3 0.2 -0.1
v -0.3 0 -0.2
v -0.3 0.6 -0.2
v -0.2 0.1 -0.2
v -0.2 0.5 -0.2
v -0.1 0.5 -0.2
v -0.1 0.6 -0.2
v -2.98023e-008 0 -0.2
v -2.98023e-008 0.1 -0.2
v -2.98023e-008 0.5 -0.2
v -2.98023e-008 0.6 -0.2
v 0.2 0 -0.2
v 0.2 0.1 -0.2
v 0.3 0 -0.2
v 0.3 0.1 -0.2
v 0.3 0.1 -0.3
v 0.3 0.2 -0.3
v 0.4 0 -0.3
v 0.4 0.1 -0.3
v 0.4 0.2 -0.3
v 0.5 0 -0.3
v 0.5 0.1 -0.3
v 0.3 0 -0.4
v 0.3 0.1 -0.4
v 0.4 0 -0.4
v 0.4 0.1 -0.4
v 0.4 0 -0.5
v 0.4 0.1 -0.5
v 0.5 0 -0.5
v 0.5 0.1 -0.5
v -0.3 0 0.4
v 0.3 0 0.4
v 0.3 0 0.2
v 0.5 0 0.2
v -0.1 0 0.1
v -2.98023e-008 0 0.1
v 0.3 0 0.1
v 0.5 0 0.1
v -2.98023e-008 0 0
v 0.1 0 0
v 0.3 0 0
v 0.4 0 0
v -0.1 0 -0.1
v -2.98023e-008 0 -0.1
v 0.1 0 -0.1
v 0.2 0 -0.1
v -0.3 0 -0.2
v -2.98023e-008 0 -0.2
v 0.2 0 -0.2
v 0.3 0 -0.2
v 0.4 0 -0.2
v 0.5 0 -0.2
v 0.4 0 -0.3
v 0.5 0 -0.3
v 0.3 0 -0.4
v 0.4 0 -0.4
v 0.5 0 -0.4
v 0.4 0 -0.5
v 0.5 0 -0.5
v 0.2 0.4 0.2
v 0.3 0.4 0.2
v 0.2 0.4 0.1
v 0.3 0.4 0.1
v -0.2 0.5 0.3
v 0.2 0.5 0.3
v 0.2 0.5 0.1
v 0.1 0.5 0
v 0.2 0.5 0
v -0.1 0.5 -0.1
v -2.98023e-008 0.5 -0.1
v 0.1 0.5 -0.1
v -0.2 0.5 -0.2
v -0.1 0.5 -0.2
v -2.98023e-008 0.5 -0.2
v -0.1 0.7 0.3
v 0.1 0.7 0.3
v -0.1 0.7 0
v 0.1 0.7 0
v -0.2 0.1 0.3
v 0.2 0.1 0.3
v 0.3 0.1 0.2
v 0.5 0.1 0.2
v -0.1 0.1 0.1
v -2.98023e-008 0.1 0.1
v 0.3 0.1 0.1
v 0.5 0.1 0.1
v -2.98023e-008 0.1 0
v 0.1 0.1 0
v 0.3 0.1 0
v 0.4 0.1 0
v -0.1 0.1 -0.1
v -2.98023e-008 0.1 -0.1
v 0.1 0.1 -0.1
v 0.2 0.1 -0.1
v 0.3 0.1 -0.1
v -0.2 0.1 -0.2
v -2.98023e-008 0.1 -0.2
v 0.2 0.1 -0.2
v 0.3 0.1 -0.2
v 0.4 0.1 -0.2
v 0.5 0.1 -0.2
v 0.3 0.1 -0.3
v 0.4 0.1 -0.3
v 0.5 0.1 -0.3
v 0.3 0.1 -0.4
v 0.4 0.1 -0.4
v 0.5 0.1 -0.4
v 0.4 0.1 -0.5
v 0.5 0.1 -0.5
v 0.2 0.2 0.1
v 0.3 0.2 0.1
v 0.2 0.2 -0.1
v 0.3 0.2 -0.1
v 0.3 0.2 -0.2
v 0.4 0.2 -0.2
v 0.3 0.2 -0.3
v 0.4 0.2 -0.3
v 0.2 0.3 0.2
v 0.3 0.3 0.2
v 0.2 0.3 0.1
v 0.3 0.3 0.1
v -0.3 0.6 0.4
v -0.1 0.6 0.4
v 0.1 0.6 0.4
v 0.3 0.6 0.4
v -0.1 0.6 0.3
v 0.1 0.6 0.3
v 0.2 0.6 0.1
v 0.3 0.6 0.1
v -0.1 0.6 0
v 0.1 0.6 0
v 0.2 0.6 0
v -0.1 0.6 -0.1
v -2.98023e-008 0.6 -0.1
v -0.3 0.6 -0.2
v -0.1 0.6 -0.2
v -2.98023e-008 0.6 -0.2
v -0.1 0.8 0.4
v 0.1 0.8 0.4
v -0.1 0.8 -0.1
v 0.1 0.8 -0.1

# faces
f 3/2/1 2/2/1 1/2/1
f 4/2/1 2/2/1 3/2/1
f 9/2/1 6/2/1 5/2/1
f 10/2/1 8/2/1 7/2/1
f 11/2/1 9/2/1 5/2/1
f 11/2/1 10/2/1 9/2/1
f 12/2/1 8/2/1 10/2/1
f 12/2/1 10/2/1 11/2/1
f 15/2/1 14/2/1 13/2/1
f 16/2/1 14/2/1 15/2/1
f 19/2/1 18/2/1 17/2/1
f 20/2/1 18/2/1 19/2/1
f 24/2/1 22/2/1 21/2/1
f 25/2/1 22/2/1 24/2/1
f 26/2/1 24/2/1 23/2/1
f 27/2/1 24/2/1 26/2/1
f 28/2/1 26/2/1 23/2/1
f 29/2/1 26/2/1 28/2/1
f 30/2/1 28/2/1 23/2/1
f 32/2/1 30/2/1 23/2/1
f 32/2/1 31/2/1 30/2/1
f 33/2/1 31/2/1 32/2/1
f 36/2/1 35/2/1 34/2/1
f 37/2/1 35/2/1 36/2/1
f 38/2/1 35/2/1 37/2/1
f 39/2/1 37/2/1 36/2/1
f 40/2/1 37/2/1 39/2/1
f 43/2/1 42/2/1 41/2/1
f 44/2/1 42/2/1 43/2/1
f 45/2/2 46/2/2 47/2/2
f 47/2/2 46/2/2 48/2/2
f 49/2/2 50/2/2 51/2/2
f 51/2/2 50/2/2 52/2/2
f 53/2/2 54/2/2 55/2/2
f 55/2/2 54/2/2 56/2/2
f 57/1/2 58/1/2 59/1/2
f 59/1/2 58/1/2 60/1/2
f 61/2/2 62/2/2 65/2/2
f 63/2/2 64/2/2 66/2/2
f 65/2/2 62/2/2 67/2/2
f 63/2/2 66/2/2 68/2/2
f 66/2/2 67/2/2 68/2/2
f 67/2/2 62/2/2 69/2/2
f 68/2/2 67/2/2 69/2/2
f 70/2/2 71/2/2 72/2/2
f 72/2/2 71/2/2 73/2/2
f 74/2/2 75/2/2 78/2/2
f 76/2/2 77/2/2 79/2/2
f 79/2/2 77/2/2 80/2/2
f 78/2/2 79/2/2 82/2/2
f 80/2/2 81/2/2 82/2/2
f 79/2/2 80/2/2 82/2/2
f 82/2/2 81/2/2 83/2/2
f 74/2/2 78/2/2 84/2/2
f 78/2/2 82/2/2 84/2/2
f 84/2/2 82/2/2 85/2/2
f 74/2/2 84/2/2 86/2/2
f 74/2/2 86/2/2 88/2/2
f 86/2/2 87/2/2 88/2/2
f 88/2/2 87/2/2 89/2/2
f 90/2/2 91/2/2 94/2/2
f 94/2/2 91/2/2 95/2/2
f 92/2/2 93/2/2 96/2/2
f 96/2/2 93/2/2 97/2/2
f 95/2/2 96/2/2 98/2/2
f 98/2/2 96/2/2 99/2/2
f 100/2/2 101/2/2 106/2/2
f 106/2/2 101/2/2 107/2/2
f 102/2/2 103/2/2 108/2/2
f 108/2/2 103/2/2 109/2/2
f 104/2/2 105/2/2 110/2/2
f 110/2/2 105/2/2 111/2/2
f 114/2/3 113/2/3 112/2/3
f 116/2/3 114/2/3 112/2/3
f 116/2/3 115/2/3 114/2/3
f 117/2/3 115/2/3 116/2/3
f 118/2/3 116/2/3 112/2/3
f 119/2/3 116/2/3 118/2/3
f 122/2/3 121/2/3 120/2/3
f 123/2/3 121/2/3 122/2/3
f 126/2/3 125/2/3 124/2/3
f 127/2/3 125/2/3 126/2/3
f 130/2/3 129/2/3 128/2/3
f 131/2/3 129/2/3 130/2/3
f 134/2/3 133/2/3 132/2/3
f 135/2/3 133/2/3 134/2/3
f 139/2/3 137/2/3 136/2/3
f 140/2/3 137/2/3 139/2/3
f 141/2/3 139/2/3 138/2/3
f 142/2/3 139/2/3 141/2/3
f 145/2/3 144/2/3 143/2/3
f 146/2/3 144/2/3 145/2/3
f 149/2/4 150/2/4 151/2/4
f 151/2/4 150/2/4 152/2/4
f 147/2/4 148/2/4 153/2/4
f 153/2/4 148/2/4 154/2/4
f 155/2/4 156/2/4 157/2/4
f 157/2/4 156/2/4 158/2/4
f 159/2/4 160/2/4 161/2/4
f 161/2/4 160/2/4 162/2/4
f 163/2/4 164/2/4 170/2/4
f 170/2/4 164/2/4 171/2/4
f 165/2/4 166/2/4 172/2/4
f 166/2/4 167/2/4 172/2/4
f 172/2/4 167/2/4 173/2/4
f 168/2/4 169/2/4 174/2/4
f 174/2/4 169/2/4 175/2/4
f 176/2/4 177/2/4 178/2/4
f 178/2/4 177/2/4 179/2/4
f 180/2/4 181/2/4 182/2/4
f 182/2/4 181/2/4 183/2/4
f 184/2/4 185/2/4 187/2/4
f 186/2/4 187/2/4 190/2/4
f 187/2/4 185/2/4 191/2/4
f 190/2/4 187/2/4 191/2/4
f 188/2/4 189/2/4 192/2/4
f 192/2/4 189/2/4 193/2/4
f 193/2/4 194/2/4 195/2/4
f 195/2/4 194/2/4 196/2/4
f 197/2/4 198/2/4 199/2/4
f 199/2/4 198/2/4 200/2/4
f 200/2/4 198/2/4 201/2/4
f 201/2/4 198/2/4 202/2/4
f 197/2/4 199/2/4 203/2/4
f 203/2/4 199/2/4 204/2/4
f 201/1/4 202/1/4 205/1/4
f 205/1/4 202/1/4 206/1/4
f 207/2/4 208/2/4 209/2/4
f 209/2/4 208/2/4 210/2/4
f 211/2/4 212/2/4 214/2/4
f 214/2/4 212/2/4 215/2/4
f 213/2/4 214/2/4 216/2/4
f 216/2/4 214/2/4 217/2/4
f 218/2/4 219/2/4 220/2/4
f 220/2/4 219/2/4 221/2/4
f 222/2/4 223/2/4 224/2/4
f 224/2/4 223/2/4 225/2/4
f 228/2/5 227/2/5 226/2/5
f 230/2/5 228/2/5 226/2/5
f 230/2/5 229/2/5 228/2/5
f 231/2/5 229/2/5 230/2/5
f 232/2/5 229/2/5 231/2/5
f 233/2/5 229/2/5 232/2/5
f 234/2/5 232/2/5 231/2/5
f 235/2/5 232/2/5 234/2/5
f 236/2/5 232/2/5 235/2/5
f 238/2/5 230/2/5 226/2/5
f 240/2/5 237/2/5 236/2/5
f 240/2/5 236/2/5 235/2/5
f 241/2/5 237/2/5 240/2/5
f 242/2/5 239/2/5 238/2/5
f 242/2/5 238/2/5 226/2/5
f 243/2/5 239/2/5 242/2/5
f 244/2/5 237/2/5 241/2/5
f 245/2/5 237/2/5 244/2/5
f 246/2/5 237/2/5 245/2/5
f 248/2/5 247/2/5 246/2/5
f 248/2/5 246/2/5 245/2/5
f 249/2/5 247/2/5 248/2/5
f 250/2/5 248/2/5 245/2/5
f 251/2/5 248/2/5 250/2/5
f 253/2/5 252/2/5 251/2/5
f 254/2/5 252/2/5 253/2/5
f 257/2/5 256/2/5 255/2/5
f 258/2/5 256/2/5 257/2/5
f 261/2/5 260/2/5 259/2/5
f 262/2/5 261/2/5 259/2/5
f 263/2/5 261/2/5 262/2/5
f 264/2/5 262/2/5 259/2/5
f 265/2/5 262/2/5 264/2/5
f 266/2/5 262/2/5 265/2/5
f 267/2/5 264/2/5 259/2/5
f 268/1/5 265/1/5 264/1/5
f 268/2/5 264/2/5 267/2/5
f 269/1/5 265/1/5 268/1/5
f 272/2/5 271/2/5 270/2/5
f 273/2/5 271/2/5 272/2/5
f 274/2/6 275/2/6 278/2/6
f 278/2/6 275/2/6 279/2/6
f 276/2/6 277/2/6 280/2/6
f 280/2/6 277/2/6 281/2/6
f 279/2/6 275/2/6 282/2/6
f 282/2/6 275/2/6 283/2/6
f 274/2/6 278/2/6 286/2/6
f 283/2/6 275/2/6 288/2/6
f 288/2/6 275/2/6 289/2/6
f 284/2/6 285/2/6 290/2/6
f 286/2/6 287/2/6 291/2/6
f 274/2/6 286/2/6 291/2/6
f 291/2/6 287/2/6 292/2/6
f 289/2/6 290/2/6 293/2/6
f 290/2/6 285/2/6 294/2/6
f 293/2/6 290/2/6 294/2/6
f 294/2/6 285/2/6 295/2/6
f 295/2/6 296/2/6 298/2/6
f 298/2/6 296/2/6 299/2/6
f 297/2/6 298/2/6 300/2/6
f 300/2/6 298/2/6 301/2/6
f 301/2/6 302/2/6 303/2/6
f 303/2/6 302/2/6 304/2/6
f 305/2/6 306/2/6 307/2/6
f 307/2/6 306/2/6 308/2/6
f 309/2/6 310/2/6 311/2/6
f 311/2/6 310/2/6 312/2/6
f 313/2/6 314/2/6 315/2/6
f 315/2/6 314/2/6 316/2/6
f 317/2/6 318/2/6 321/2/6
f 319/2/6 320/2/6 322/2/6
f 322/2/6 320/2/6 323/2/6
f 321/2/6 322/2/6 323/2/6
f 323/2/6 320/2/6 324/2/6
f 317/2/6 321/2/6 325/2/6
f 321/2/6 323/2/6 325/2/6
f 325/2/6 323/2/6 326/2/6
f 326/2/6 323/2/6 327/2/6
f 317/2/6 325/2/6 328/2/6
f 317/2/6 328/2/6 330/2/6
f 328/1/6 329/1/6 331/1/6
f 330/2/6 328/2/6 331/2/6
f 331/1/6 329/1/6 332/1/6
f 333/2/6 334/2/6 335/2/6
f 335/2/6 334/2/6 336/2/6
