# MagicaVoxel @ Ephtracy

# group
o 

# material
mtllib Burger.mtl
usemtl palette

# normals
vn -1 0 0
vn 1 0 0
vn 0 0 1
vn 0 0 -1
vn 0 -1 0
vn 0 1 0

# texcoords
vt 0.689453 0.5
vt 0.845703 0.5
vt 0.876953 0.5
vt 0.939453 0.5
vt 0.943359 0.5
vt 0.970703 0.5

# verts
v -0.5 0 0.5
v -0.5 0 -0.5
v -0.5 0.2 0.5
v -0.5 0.2 -0.5
v -0.4 0 0.6
v -0.4 0 0.5
v -0.4 0 -0.5
v -0.4 0 -0.6
v -0.4 0.2 0.6
v -0.4 0.2 0.5
v -0.4 0.2 -0.5
v -0.4 0.2 -0.6
v -0.3 0.1 0.2
v -0.3 0.1 -0.2
v -0.3 0.2 0.2
v -0.3 0.2 -0.2
v -0.3 0.5 0.2
v -0.3 0.5 -0.2
v -0.3 0.6 0.2
v -0.3 0.6 -0.2
v -0.2 0.1 0.3
v -0.2 0.1 0.2
v -0.2 0.1 -0.2
v -0.2 0.1 -0.3
v -0.2 0.2 0.3
v -0.2 0.2 0.2
v -0.2 0.2 0.1
v -0.2 0.2 -0.1
v -0.2 0.2 -0.2
v -0.2 0.2 -0.3
v -0.2 0.3 0.1
v -0.2 0.3 -0.1
v -0.2 0.4 0.1
v -0.2 0.4 -0.1
v -0.2 0.5 0.3
v -0.2 0.5 0.2
v -0.2 0.5 -0.2
v -0.2 0.5 -0.3
v -0.2 0.6 0.3
v -0.2 0.6 0.2
v -0.2 0.6 -0.2
v -0.2 0.6 -0.3
v -0.2 0.7 0.2
v -0.2 0.7 -0.2
v -0.1 0.1 0.4
v -0.1 0.1 0.3
v -0.1 0.1 -0.3
v -0.1 0.1 -0.4
v -0.1 0.2 0.4
v -0.1 0.2 0.3
v -0.1 0.2 0.2
v -0.1 0.2 0.1
v -0.1 0.2 -0.1
v -0.1 0.2 -0.2
v -0.1 0.2 -0.3
v -0.1 0.2 -0.4
v -0.1 0.3 0.2
v -0.1 0.3 0.1
v -0.1 0.3 -0.1
v -0.1 0.3 -0.2
v -0.1 0.4 0.2
v -0.1 0.4 0.1
v -0.1 0.4 -0.1
v -0.1 0.4 -0.2
v -0.1 0.5 0.4
v -0.1 0.5 0.3
v -0.1 0.5 0.1
v -0.1 0.5 -0.1
v -0.1 0.5 -0.3
v -0.1 0.5 -0.4
v -0.1 0.6 0.4
v -0.1 0.6 0.3
v -0.1 0.6 0.2
v -0.1 0.6 -0.2
v -0.1 0.6 -0.3
v -0.1 0.6 -0.4
v -0.1 0.7 0.3
v -0.1 0.7 0.2
v -0.1 0.7 -0.2
v -0.1 0.7 -0.3
v 0 0.2 0.3
v 0 0.2 0.2
v 0 0.2 -0.2
v 0 0.2 -0.3
v 0 0.3 0.3
v 0 0.3 0.2
v 0 0.3 -0.2
v 0 0.3 -0.3
v 0 0.4 0.3
v 0 0.4 0.2
v 0 0.4 0.1
v 0 0.4 -0.1
v 0 0.4 -0.2
v 0 0.4 -0.3
v 0 0.5 0.2
v 0 0.5 0.1
v 0 0.5 -0.1
v 0 0.5 -0.2
v 0.6 0.1 0.5
v 0.6 0.1 -0.5
v 0.6 0.2 0.5
v 0.6 0.2 -0.5
v -0.4 0.1 0.5
v -0.4 0.1 -0.5
v -0.4 0.2 0.5
v -0.4 0.2 -0.5
v 0.2 0.2 0.3
v 0.2 0.2 0.2
v 0.2 0.2 -0.2
v 0.2 0.2 -0.3
v 0.2 0.3 0.3
v 0.2 0.3 0.2
v 0.2 0.3 -0.2
v 0.2 0.3 -0.3
v 0.2 0.4 0.3
v 0.2 0.4 0.2
v 0.2 0.4 0.1
v 0.2 0.4 -0.1
v 0.2 0.4 -0.2
v 0.2 0.4 -0.3
v 0.2 0.5 0.2
v 0.2 0.5 0.1
v 0.2 0.5 -0.1
v 0.2 0.5 -0.2
v 0.3 0.1 0.4
v 0.3 0.1 0.3
v 0.3 0.1 -0.3
v 0.3 0.1 -0.4
v 0.3 0.2 0.4
v 0.3 0.2 0.3
v 0.3 0.2 0.2
v 0.3 0.2 0.1
v 0.3 0.2 -0.1
v 0.3 0.2 -0.2
v 0.3 0.2 -0.3
v 0.3 0.2 -0.4
v 0.3 0.3 0.2
v 0.3 0.3 0.1
v 0.3 0.3 -0.1
v 0.3 0.3 -0.2
v 0.3 0.4 0.2
v 0.3 0.4 0.1
v 0.3 0.4 -0.1
v 0.3 0.4 -0.2
v 0.3 0.5 0.4
v 0.3 0.5 0.3
v 0.3 0.5 0.1
v 0.3 0.5 -0.1
v 0.3 0.5 -0.3
v 0.3 0.5 -0.4
v 0.3 0.6 0.4
v 0.3 0.6 0.3
v 0.3 0.6 0.2
v 0.3 0.6 -0.2
v 0.3 0.6 -0.3
v 0.3 0.6 -0.4
v 0.3 0.7 0.3
v 0.3 0.7 0.2
v 0.3 0.7 -0.2
v 0.3 0.7 -0.3
v 0.4 0.1 0.3
v 0.4 0.1 0.2
v 0.4 0.1 -0.2
v 0.4 0.1 -0.3
v 0.4 0.2 0.3
v 0.4 0.2 0.2
v 0.4 0.2 0.1
v 0.4 0.2 -0.1
v 0.4 0.2 -0.2
v 0.4 0.2 -0.3
v 0.4 0.3 0.1
v 0.4 0.3 -0.1
v 0.4 0.4 0.1
v 0.4 0.4 -0.1
v 0.4 0.5 0.3
v 0.4 0.5 0.2
v 0.4 0.5 -0.2
v 0.4 0.5 -0.3
v 0.4 0.6 0.3
v 0.4 0.6 0.2
v 0.4 0.6 -0.2
v 0.4 0.6 -0.3
v 0.4 0.7 0.2
v 0.4 0.7 -0.2
v 0.5 0.1 0.2
v 0.5 0.1 -0.2
v 0.5 0.2 0.2
v 0.5 0.2 -0.2
v 0.5 0.5 0.2
v 0.5 0.5 -0.2
v 0.5 0.6 0.2
v 0.5 0.6 -0.2
v 0.6 0 0.6
v 0.6 0 0.5
v 0.6 0 -0.5
v 0.6 0 -0.6
v 0.6 0.2 0.6
v 0.6 0.2 0.5
v 0.6 0.2 -0.5
v 0.6 0.2 -0.6
v 0.7 0 0.5
v 0.7 0 -0.5
v 0.7 0.2 0.5
v 0.7 0.2 -0.5
v -0.4 0 0.6
v -0.4 0.2 0.6
v 0.6 0 0.6
v 0.6 0.2 0.6
v -0.5 0 0.5
v -0.5 0.2 0.5
v -0.4 0 0.5
v -0.4 0.2 0.5
v 0.6 0 0.5
v 0.6 0.2 0.5
v 0.7 0 0.5
v 0.7 0.2 0.5
v -0.1 0.1 0.4
v -0.1 0.2 0.4
v -0.1 0.5 0.4
v -0.1 0.6 0.4
v 0.3 0.1 0.4
v 0.3 0.2 0.4
v 0.3 0.5 0.4
v 0.3 0.6 0.4
v -0.2 0.1 0.3
v -0.2 0.2 0.3
v -0.2 0.5 0.3
v -0.2 0.6 0.3
v -0.1 0.1 0.3
v -0.1 0.2 0.3
v -0.1 0.5 0.3
v -0.1 0.6 0.3
v -0.1 0.7 0.3
v 0 0.2 0.3
v 0 0.3 0.3
v 0 0.4 0.3
v 0.2 0.2 0.3
v 0.2 0.3 0.3
v 0.2 0.4 0.3
v 0.3 0.1 0.3
v 0.3 0.2 0.3
v 0.3 0.5 0.3
v 0.3 0.6 0.3
v 0.3 0.7 0.3
v 0.4 0.1 0.3
v 0.4 0.2 0.3
v 0.4 0.5 0.3
v 0.4 0.6 0.3
v -0.3 0.1 0.2
v -0.3 0.2 0.2
v -0.3 0.5 0.2
v -0.3 0.6 0.2
v -0.2 0.1 0.2
v -0.2 0.2 0.2
v -0.2 0.5 0.2
v -0.2 0.6 0.2
v -0.2 0.7 0.2
v -0.1 0.2 0.2
v -0.1 0.3 0.2
v -0.1 0.4 0.2
v -0.1 0.6 0.2
v -0.1 0.7 0.2
v 0 0.2 0.2
v 0 0.3 0.2
v 0 0.4 0.2
v 0 0.5 0.2
v 0.2 0.2 0.2
v 0.2 0.3 0.2
v 0.2 0.4 0.2
v 0.2 0.5 0.2
v 0.3 0.2 0.2
v 0.3 0.3 0.2
v 0.3 0.4 0.2
v 0.3 0.6 0.2
v 0.3 0.7 0.2
v 0.4 0.1 0.2
v 0.4 0.2 0.2
v 0.4 0.5 0.2
v 0.4 0.6 0.2
v 0.4 0.7 0.2
v 0.5 0.1 0.2
v 0.5 0.2 0.2
v 0.5 0.5 0.2
v 0.5 0.6 0.2
v -0.2 0.2 0.1
v -0.2 0.3 0.1
v -0.2 0.4 0.1
v -0.1 0.2 0.1
v -0.1 0.3 0.1
v -0.1 0.4 0.1
v -0.1 0.5 0.1
v 0 0.4 0.1
v 0 0.5 0.1
v 0.2 0.4 0.1
v 0.2 0.5 0.1
v 0.3 0.2 0.1
v 0.3 0.3 0.1
v 0.3 0.4 0.1
v 0.3 0.5 0.1
v 0.4 0.2 0.1
v 0.4 0.3 0.1
v 0.4 0.4 0.1
v -0.4 0.1 -0.5
v -0.4 0.2 -0.5
v 0.6 0.1 -0.5
v 0.6 0.2 -0.5
v -0.4 0.1 0.5
v -0.4 0.2 0.5
v 0.6 0.1 0.5
v 0.6 0.2 0.5
v -0.2 0.2 -0.1
v -0.2 0.3 -0.1
v -0.2 0.4 -0.1
v -0.1 0.2 -0.1
v -0.1 0.3 -0.1
v -0.1 0.4 -0.1
v -0.1 0.5 -0.1
v 0 0.4 -0.1
v 0 0.5 -0.1
v 0.2 0.4 -0.1
v 0.2 0.5 -0.1
v 0.3 0.2 -0.1
v 0.3 0.3 -0.1
v 0.3 0.4 -0.1
v 0.3 0.5 -0.1
v 0.4 0.2 -0.1
v 0.4 0.3 -0.1
v 0.4 0.4 -0.1
v -0.3 0.1 -0.2
v -0.3 0.2 -0.2
v -0.3 0.5 -0.2
v -0.3 0.6 -0.2
v -0.2 0.1 -0.2
v -0.2 0.2 -0.2
v -0.2 0.5 -0.2
v -0.2 0.6 -0.2
v -0.2 0.7 -0.2
v -0.1 0.2 -0.2
v -0.1 0.3 -0.2
v -0.1 0.4 -0.2
v -0.1 0.6 -0.2
v -0.1 0.7 -0.2
v 0 0.2 -0.2
v 0 0.3 -0.2
v 0 0.4 -0.2
v 0 0.5 -0.2
v 0.2 0.2 -0.2
v 0.2 0.3 -0.2
v 0.2 0.4 -0.2
v 0.2 0.5 -0.2
v 0.3 0.2 -0.2
v 0.3 0.3 -0.2
v 0.3 0.4 -0.2
v 0.3 0.6 -0.2
v 0.3 0.7 -0.2
v 0.4 0.1 -0.2
v 0.4 0.2 -0.2
v 0.4 0.5 -0.2
v 0.4 0.6 -0.2
v 0.4 0.7 -0.2
v 0.5 0.1 -0.2
v 0.5 0.2 -0.2
v 0.5 0.5 -0.2
v 0.5 0.6 -0.2
v -0.2 0.1 -0.3
v -0.2 0.2 -0.3
v -0.2 0.5 -0.3
v -0.2 0.6 -0.3
v -0.1 0.1 -0.3
v -0.1 0.2 -0.3
v -0.1 0.5 -0.3
v -0.1 0.6 -0.3
v -0.1 0.7 -0.3
v 0 0.2 -0.3
v 0 0.3 -0.3
v 0 0.4 -0.3
v 0.2 0.2 -0.3
v 0.2 0.3 -0.3
v 0.2 0.4 -0.3
v 0.3 0.1 -0.3
v 0.3 0.2 -0.3
v 0.3 0.5 -0.3
v 0.3 0.6 -0.3
v 0.3 0.7 -0.3
v 0.4 0.1 -0.3
v 0.4 0.2 -0.3
v 0.4 0.5 -0.3
v 0.4 0.6 -0.3
v -0.1 0.1 -0.4
v -0.1 0.2 -0.4
v -0.1 0.5 -0.4
v -0.1 0.6 -0.4
v 0.3 0.1 -0.4
v 0.3 0.2 -0.4
v 0.3 0.5 -0.4
v 0.3 0.6 -0.4
v -0.5 0 -0.5
v -0.5 0.2 -0.5
v -0.4 0 -0.5
v -0.4 0.2 -0.5
v 0.6 0 -0.5
v 0.6 0.2 -0.5
v 0.7 0 -0.5
v 0.7 0.2 -0.5
v -0.4 0 -0.6
v -0.4 0.2 -0.6
v 0.6 0 -0.6
v 0.6 0.2 -0.6
v -0.4 0 0.6
v 0.6 0 0.6
v -0.5 0 0.5
v -0.4 0 0.5
v 0.6 0 0.5
v 0.7 0 0.5
v -0.5 0 -0.5
v -0.4 0 -0.5
v 0.6 0 -0.5
v 0.7 0 -0.5
v -0.4 0 -0.6
v 0.6 0 -0.6
v -0.1 0.5 0.4
v 0.3 0.5 0.4
v -0.2 0.5 0.3
v -0.1 0.5 0.3
v 0.3 0.5 0.3
v 0.4 0.5 0.3
v -0.3 0.5 0.2
v -0.2 0.5 0.2
v 0 0.5 0.2
v 0.2 0.5 0.2
v 0.4 0.5 0.2
v 0.5 0.5 0.2
v -0.1 0.5 0.1
v 0 0.5 0.1
v 0.2 0.5 0.1
v 0.3 0.5 0.1
v -0.1 0.5 -0.1
v 0 0.5 -0.1
v 0.2 0.5 -0.1
v 0.3 0.5 -0.1
v -0.3 0.5 -0.2
v -0.2 0.5 -0.2
v 0 0.5 -0.2
v 0.2 0.5 -0.2
v 0.4 0.5 -0.2
v 0.5 0.5 -0.2
v -0.2 0.5 -0.3
v -0.1 0.5 -0.3
v 0.3 0.5 -0.3
v 0.4 0.5 -0.3
v -0.1 0.5 -0.4
v 0.3 0.5 -0.4
v -0.4 0.1 0.5
v 0.6 0.1 0.5
v -0.1 0.1 0.4
v 0.3 0.1 0.4
v -0.2 0.1 0.3
v -0.1 0.1 0.3
v 0.3 0.1 0.3
v 0.4 0.1 0.3
v -0.3 0.1 0.2
v -0.2 0.1 0.2
v 0.4 0.1 0.2
v 0.5 0.1 0.2
v -0.3 0.1 -0.2
v -0.2 0.1 -0.2
v 0.4 0.1 -0.2
v 0.5 0.1 -0.2
v -0.2 0.1 -0.3
v -0.1 0.1 -0.3
v 0.3 0.1 -0.3
v 0.4 0.1 -0.3
v -0.1 0.1 -0.4
v 0.3 0.1 -0.4
v -0.4 0.1 -0.5
v 0.6 0.1 -0.5
v -0.4 0.2 0.6
v 0.6 0.2 0.6
v -0.5 0.2 0.5
v -0.4 0.2 0.5
v 0.6 0.2 0.5
v 0.7 0.2 0.5
v -0.1 0.2 0.4
v 0.3 0.2 0.4
v -0.2 0.2 0.3
v -0.1 0.2 0.3
v 0 0.2 0.3
v 0.2 0.2 0.3
v 0.3 0.2 0.3
v 0.4 0.2 0.3
v -0.3 0.2 0.2
v -0.2 0.2 0.2
v -0.1 0.2 0.2
v 0 0.2 0.2
v 0.2 0.2 0.2
v 0.3 0.2 0.2
v 0.4 0.2 0.2
v 0.5 0.2 0.2
v -0.2 0.2 0.1
v -0.1 0.2 0.1
v 0.3 0.2 0.1
v 0.4 0.2 0.1
v -0.2 0.2 -0.1
v -0.1 0.2 -0.1
v 0.3 0.2 -0.1
v 0.4 0.2 -0.1
v -0.3 0.2 -0.2
v -0.2 0.2 -0.2
v -0.1 0.2 -0.2
v 0 0.2 -0.2
v 0.2 0.2 -0.2
v 0.3 0.2 -0.2
v 0.4 0.2 -0.2
v 0.5 0.2 -0.2
v -0.2 0.2 -0.3
v -0.1 0.2 -0.3
v 0 0.2 -0.3
v 0.2 0.2 -0.3
v 0.3 0.2 -0.3
v 0.4 0.2 -0.3
v -0.1 0.2 -0.4
v 0.3 0.2 -0.4
v -0.5 0.2 -0.5
v -0.4 0.2 -0.5
v 0.6 0.2 -0.5
v 0.7 0.2 -0.5
v -0.4 0.2 -0.6
v 0.6 0.2 -0.6
v 0 0.4 0.3
v 0.2 0.4 0.3
v -0.1 0.4 0.2
v 0 0.4 0.2
v 0.2 0.4 0.2
v 0.3 0.4 0.2
v -0.2 0.4 0.1
v -0.1 0.4 0.1
v 0 0.4 0.1
v 0.2 0.4 0.1
v 0.3 0.4 0.1
v 0.4 0.4 0.1
v -0.2 0.4 -0.1
v -0.1 0.4 -0.1
v 0 0.4 -0.1
v 0.2 0.4 -0.1
v 0.3 0.4 -0.1
v 0.4 0.4 -0.1
v -0.1 0.4 -0.2
v 0 0.4 -0.2
v 0.2 0.4 -0.2
v 0.3 0.4 -0.2
v 0 0.4 -0.3
v 0.2 0.4 -0.3
v -0.1 0.6 0.4
v 0.3 0.6 0.4
v -0.2 0.6 0.3
v -0.1 0.6 0.3
v 0.3 0.6 0.3
v 0.4 0.6 0.3
v -0.3 0.6 0.2
v -0.2 0.6 0.2
v -0.1 0.6 0.2
v 0.3 0.6 0.2
v 0.4 0.6 0.2
v 0.5 0.6 0.2
v -0.3 0.6 -0.2
v -0.2 0.6 -0.2
v -0.1 0.6 -0.2
v 0.3 0.6 -0.2
v 0.4 0.6 -0.2
v 0.5 0.6 -0.2
v -0.2 0.6 -0.3
v -0.1 0.6 -0.3
v 0.3 0.6 -0.3
v 0.4 0.6 -0.3
v -0.1 0.6 -0.4
v 0.3 0.6 -0.4
v -0.1 0.7 0.3
v 0.3 0.7 0.3
v -0.2 0.7 0.2
v -0.1 0.7 0.2
v 0.3 0.7 0.2
v 0.4 0.7 0.2
v -0.2 0.7 -0.2
v -0.1 0.7 -0.2
v 0.3 0.7 -0.2
v 0.4 0.7 -0.2
v -0.1 0.7 -0.3
v 0.3 0.7 -0.3

# faces
f 3/4/1 2/4/1 1/4/1
f 4/4/1 2/4/1 3/4/1
f 9/4/1 6/4/1 5/4/1
f 10/4/1 6/4/1 9/4/1
f 11/4/1 8/4/1 7/4/1
f 12/4/1 8/4/1 11/4/1
f 15/6/1 14/6/1 13/6/1
f 16/6/1 14/6/1 15/6/1
f 19/6/1 18/6/1 17/6/1
f 20/6/1 18/6/1 19/6/1
f 25/6/1 22/6/1 21/6/1
f 26/6/1 22/6/1 25/6/1
f 29/6/1 24/6/1 23/6/1
f 30/6/1 24/6/1 29/6/1
f 31/1/1 28/1/1 27/1/1
f 32/1/1 28/1/1 31/1/1
f 33/3/1 32/3/1 31/3/1
f 34/3/1 32/3/1 33/3/1
f 39/6/1 36/6/1 35/6/1
f 40/6/1 36/6/1 39/6/1
f 41/6/1 38/6/1 37/6/1
f 42/6/1 38/6/1 41/6/1
f 43/6/1 41/6/1 40/6/1
f 44/6/1 41/6/1 43/6/1
f 49/6/1 46/6/1 45/6/1
f 50/6/1 46/6/1 49/6/1
f 55/6/1 48/6/1 47/6/1
f 56/6/1 48/6/1 55/6/1
f 57/1/1 52/1/1 51/1/1
f 58/1/1 52/1/1 57/1/1
f 59/1/1 54/1/1 53/1/1
f 60/1/1 54/1/1 59/1/1
f 61/3/1 58/3/1 57/3/1
f 62/3/1 58/3/1 61/3/1
f 63/3/1 60/3/1 59/3/1
f 64/3/1 60/3/1 63/3/1
f 67/2/1 63/2/1 62/2/1
f 68/2/1 63/2/1 67/2/1
f 71/6/1 66/6/1 65/6/1
f 72/6/1 66/6/1 71/6/1
f 75/6/1 70/6/1 69/6/1
f 76/6/1 70/6/1 75/6/1
f 77/6/1 73/6/1 72/6/1
f 78/6/1 73/6/1 77/6/1
f 79/6/1 75/6/1 74/6/1
f 80/6/1 75/6/1 79/6/1
f 85/1/1 82/1/1 81/1/1
f 86/1/1 82/1/1 85/1/1
f 87/1/1 84/1/1 83/1/1
f 88/1/1 84/1/1 87/1/1
f 89/3/1 86/3/1 85/3/1
f 90/3/1 86/3/1 89/3/1
f 93/3/1 88/3/1 87/3/1
f 94/3/1 88/3/1 93/3/1
f 95/2/1 91/2/1 90/2/1
f 96/2/1 91/2/1 95/2/1
f 97/2/1 93/2/1 92/2/1
f 98/2/1 93/2/1 97/2/1
f 101/4/1 100/4/1 99/4/1
f 102/4/1 100/4/1 101/4/1
f 103/4/2 104/4/2 105/4/2
f 105/4/2 104/4/2 106/4/2
f 107/1/2 108/1/2 111/1/2
f 111/1/2 108/1/2 112/1/2
f 109/1/2 110/1/2 113/1/2
f 113/1/2 110/1/2 114/1/2
f 111/3/2 112/3/2 115/3/2
f 115/3/2 112/3/2 116/3/2
f 113/3/2 114/3/2 119/3/2
f 119/3/2 114/3/2 120/3/2
f 116/2/2 117/2/2 121/2/2
f 121/2/2 117/2/2 122/2/2
f 118/2/2 119/2/2 123/2/2
f 123/2/2 119/2/2 124/2/2
f 125/6/2 126/6/2 129/6/2
f 129/6/2 126/6/2 130/6/2
f 127/6/2 128/6/2 135/6/2
f 135/6/2 128/6/2 136/6/2
f 131/1/2 132/1/2 137/1/2
f 137/1/2 132/1/2 138/1/2
f 133/1/2 134/1/2 139/1/2
f 139/1/2 134/1/2 140/1/2
f 137/3/2 138/3/2 141/3/2
f 141/3/2 138/3/2 142/3/2
f 139/3/2 140/3/2 143/3/2
f 143/3/2 140/3/2 144/3/2
f 142/2/2 143/2/2 147/2/2
f 147/2/2 143/2/2 148/2/2
f 145/6/2 146/6/2 151/6/2
f 151/6/2 146/6/2 152/6/2
f 149/6/2 150/6/2 155/6/2
f 155/6/2 150/6/2 156/6/2
f 152/6/2 153/6/2 157/6/2
f 157/6/2 153/6/2 158/6/2
f 154/6/2 155/6/2 159/6/2
f 159/6/2 155/6/2 160/6/2
f 161/6/2 162/6/2 165/6/2
f 165/6/2 162/6/2 166/6/2
f 163/6/2 164/6/2 169/6/2
f 169/6/2 164/6/2 170/6/2
f 167/1/2 168/1/2 171/1/2
f 171/1/2 168/1/2 172/1/2
f 171/3/2 172/3/2 173/3/2
f 173/3/2 172/3/2 174/3/2
f 175/6/2 176/6/2 179/6/2
f 179/6/2 176/6/2 180/6/2
f 177/6/2 178/6/2 181/6/2
f 181/6/2 178/6/2 182/6/2
f 180/6/2 181/6/2 183/6/2
f 183/6/2 181/6/2 184/6/2
f 185/6/2 186/6/2 187/6/2
f 187/6/2 186/6/2 188/6/2
f 189/6/2 190/6/2 191/6/2
f 191/6/2 190/6/2 192/6/2
f 193/4/2 194/4/2 197/4/2
f 197/4/2 194/4/2 198/4/2
f 195/4/2 196/4/2 199/4/2
f 199/4/2 196/4/2 200/4/2
f 201/4/2 202/4/2 203/4/2
f 203/4/2 202/4/2 204/4/2
f 207/4/3 206/4/3 205/4/3
f 208/4/3 206/4/3 207/4/3
f 211/4/3 210/4/3 209/4/3
f 212/4/3 210/4/3 211/4/3
f 215/4/3 214/4/3 213/4/3
f 216/4/3 214/4/3 215/4/3
f 221/6/3 218/6/3 217/6/3
f 222/6/3 218/6/3 221/6/3
f 223/6/3 220/6/3 219/6/3
f 224/6/3 220/6/3 223/6/3
f 229/6/3 226/6/3 225/6/3
f 230/6/3 226/6/3 229/6/3
f 231/6/3 228/6/3 227/6/3
f 232/6/3 228/6/3 231/6/3
f 237/1/3 235/1/3 234/1/3
f 238/3/3 236/3/3 235/3/3
f 238/1/3 235/1/3 237/1/3
f 239/3/3 236/3/3 238/3/3
f 243/6/3 233/6/3 232/6/3
f 244/6/3 233/6/3 243/6/3
f 245/6/3 241/6/3 240/6/3
f 246/6/3 241/6/3 245/6/3
f 247/6/3 243/6/3 242/6/3
f 248/6/3 243/6/3 247/6/3
f 253/6/3 250/6/3 249/6/3
f 254/6/3 250/6/3 253/6/3
f 255/6/3 252/6/3 251/6/3
f 256/6/3 252/6/3 255/6/3
f 261/6/3 257/6/3 256/6/3
f 262/6/3 257/6/3 261/6/3
f 263/1/3 259/1/3 258/1/3
f 264/3/3 260/3/3 259/3/3
f 264/1/3 259/1/3 263/1/3
f 265/3/3 260/3/3 264/3/3
f 269/2/3 266/2/3 265/2/3
f 270/2/3 266/2/3 269/2/3
f 271/1/3 268/1/3 267/1/3
f 272/3/3 269/3/3 268/3/3
f 272/1/3 268/1/3 271/1/3
f 273/3/3 269/3/3 272/3/3
f 279/6/3 275/6/3 274/6/3
f 280/6/3 275/6/3 279/6/3
f 281/6/3 277/6/3 276/6/3
f 282/6/3 277/6/3 281/6/3
f 283/6/3 279/6/3 278/6/3
f 284/6/3 279/6/3 283/6/3
f 288/1/3 286/1/3 285/1/3
f 289/3/3 287/3/3 286/3/3
f 289/1/3 286/1/3 288/1/3
f 290/3/3 287/3/3 289/3/3
f 292/2/3 291/2/3 290/2/3
f 293/2/3 291/2/3 292/2/3
f 298/2/3 295/2/3 294/2/3
f 299/2/3 295/2/3 298/2/3
f 300/1/3 297/1/3 296/1/3
f 301/3/3 298/3/3 297/3/3
f 301/1/3 297/1/3 300/1/3
f 302/3/3 298/3/3 301/3/3
f 305/4/3 304/4/3 303/4/3
f 306/4/3 304/4/3 305/4/3
f 307/4/4 308/4/4 309/4/4
f 309/4/4 308/4/4 310/4/4
f 311/1/4 312/1/4 314/1/4
f 312/3/4 313/3/4 315/3/4
f 314/1/4 312/1/4 315/1/4
f 315/3/4 313/3/4 316/3/4
f 316/2/4 317/2/4 318/2/4
f 318/2/4 317/2/4 319/2/4
f 320/2/4 321/2/4 324/2/4
f 324/2/4 321/2/4 325/2/4
f 322/1/4 323/1/4 326/1/4
f 323/3/4 324/3/4 327/3/4
f 326/1/4 323/1/4 327/1/4
f 327/3/4 324/3/4 328/3/4
f 329/6/4 330/6/4 333/6/4
f 333/6/4 330/6/4 334/6/4
f 331/6/4 332/6/4 335/6/4
f 335/6/4 332/6/4 336/6/4
f 336/6/4 337/6/4 341/6/4
f 341/6/4 337/6/4 342/6/4
f 338/1/4 339/1/4 343/1/4
f 339/3/4 340/3/4 344/3/4
f 343/1/4 339/1/4 344/1/4
f 344/3/4 340/3/4 345/3/4
f 345/2/4 346/2/4 349/2/4
f 349/2/4 346/2/4 350/2/4
f 347/1/4 348/1/4 351/1/4
f 348/3/4 349/3/4 352/3/4
f 351/1/4 348/1/4 352/1/4
f 352/3/4 349/3/4 353/3/4
f 354/6/4 355/6/4 359/6/4
f 359/6/4 355/6/4 360/6/4
f 356/6/4 357/6/4 361/6/4
f 361/6/4 357/6/4 362/6/4
f 358/6/4 359/6/4 363/6/4
f 363/6/4 359/6/4 364/6/4
f 365/6/4 366/6/4 369/6/4
f 369/6/4 366/6/4 370/6/4
f 367/6/4 368/6/4 371/6/4
f 371/6/4 368/6/4 372/6/4
f 374/1/4 375/1/4 377/1/4
f 375/3/4 376/3/4 378/3/4
f 377/1/4 375/1/4 378/1/4
f 378/3/4 376/3/4 379/3/4
f 372/6/4 373/6/4 383/6/4
f 383/6/4 373/6/4 384/6/4
f 380/6/4 381/6/4 385/6/4
f 385/6/4 381/6/4 386/6/4
f 382/6/4 383/6/4 387/6/4
f 387/6/4 383/6/4 388/6/4
f 389/6/4 390/6/4 393/6/4
f 393/6/4 390/6/4 394/6/4
f 391/6/4 392/6/4 395/6/4
f 395/6/4 392/6/4 396/6/4
f 397/4/4 398/4/4 399/4/4
f 399/4/4 398/4/4 400/4/4
f 401/4/4 402/4/4 403/4/4
f 403/4/4 402/4/4 404/4/4
f 405/4/4 406/4/4 407/4/4
f 407/4/4 406/4/4 408/4/4
f 412/4/5 410/4/5 409/4/5
f 413/4/5 410/4/5 412/4/5
f 415/4/5 412/4/5 411/4/5
f 416/5/5 413/5/5 412/5/5
f 416/4/5 412/4/5 415/4/5
f 417/4/5 414/4/5 413/4/5
f 417/5/5 413/5/5 416/5/5
f 418/4/5 414/4/5 417/4/5
f 419/4/5 417/4/5 416/4/5
f 420/4/5 417/4/5 419/4/5
f 424/6/5 422/6/5 421/6/5
f 425/6/5 422/6/5 424/6/5
f 428/6/5 424/6/5 423/6/5
f 428/6/5 426/6/5 425/6/5
f 428/6/5 425/6/5 424/6/5
f 429/6/5 426/6/5 428/6/5
f 430/6/5 426/6/5 429/6/5
f 431/6/5 426/6/5 430/6/5
f 433/6/5 428/6/5 427/6/5
f 433/6/5 429/6/5 428/6/5
f 434/6/5 429/6/5 433/6/5
f 435/6/5 432/6/5 431/6/5
f 435/6/5 431/6/5 430/6/5
f 436/6/5 432/6/5 435/6/5
f 437/6/5 433/6/5 427/6/5
f 440/6/5 432/6/5 436/6/5
f 441/6/5 438/6/5 437/6/5
f 441/6/5 437/6/5 427/6/5
f 442/6/5 438/6/5 441/6/5
f 443/6/5 438/6/5 442/6/5
f 444/6/5 440/6/5 439/6/5
f 445/6/5 432/6/5 440/6/5
f 445/6/5 440/6/5 444/6/5
f 446/6/5 432/6/5 445/6/5
f 447/6/5 443/6/5 442/6/5
f 447/6/5 444/6/5 443/6/5
f 447/6/5 445/6/5 444/6/5
f 448/6/5 445/6/5 447/6/5
f 449/6/5 445/6/5 448/6/5
f 450/6/5 445/6/5 449/6/5
f 451/6/5 449/6/5 448/6/5
f 452/6/5 449/6/5 451/6/5
f 453/5/6 454/5/6 455/5/6
f 455/5/6 454/5/6 456/5/6
f 453/5/6 455/5/6 457/5/6
f 457/5/6 455/5/6 458/5/6
f 456/5/6 454/5/6 459/5/6
f 459/5/6 454/5/6 460/5/6
f 453/5/6 457/5/6 461/5/6
f 461/5/6 457/5/6 462/5/6
f 460/5/6 454/5/6 463/5/6
f 463/5/6 454/5/6 464/5/6
f 453/5/6 461/5/6 465/5/6
f 464/5/6 454/5/6 468/5/6
f 465/5/6 466/5/6 469/5/6
f 467/5/6 468/5/6 472/5/6
f 469/5/6 470/5/6 473/5/6
f 471/5/6 472/5/6 474/5/6
f 469/5/6 473/5/6 475/5/6
f 473/5/6 474/5/6 475/5/6
f 453/5/6 465/5/6 475/5/6
f 465/5/6 469/5/6 475/5/6
f 474/5/6 472/5/6 476/5/6
f 475/5/6 474/5/6 476/5/6
f 468/5/6 454/5/6 476/5/6
f 472/5/6 468/5/6 476/5/6
f 477/4/6 478/4/6 480/4/6
f 480/4/6 478/4/6 481/4/6
f 483/6/6 484/6/6 486/6/6
f 486/6/6 484/6/6 487/6/6
f 487/6/6 484/6/6 488/6/6
f 488/6/6 484/6/6 489/6/6
f 485/6/6 486/6/6 492/6/6
f 486/6/6 487/6/6 492/6/6
f 492/6/6 487/6/6 493/6/6
f 493/6/6 487/6/6 494/6/6
f 488/6/6 489/6/6 495/6/6
f 489/6/6 490/6/6 495/6/6
f 495/6/6 490/6/6 496/6/6
f 496/6/6 490/6/6 497/6/6
f 492/6/6 493/6/6 499/6/6
f 491/6/6 492/6/6 499/6/6
f 499/6/6 493/6/6 500/6/6
f 497/6/6 498/6/6 501/6/6
f 496/6/6 497/6/6 501/6/6
f 501/6/6 498/6/6 502/6/6
f 491/6/6 499/6/6 503/6/6
f 502/6/6 498/6/6 506/6/6
f 503/6/6 504/6/6 507/6/6
f 491/6/6 503/6/6 507/6/6
f 507/6/6 504/6/6 508/6/6
f 508/6/6 504/6/6 509/6/6
f 505/6/6 506/6/6 512/6/6
f 506/6/6 498/6/6 513/6/6
f 512/6/6 506/6/6 513/6/6
f 513/6/6 498/6/6 514/6/6
f 509/6/6 510/6/6 515/6/6
f 508/6/6 509/6/6 515/6/6
f 515/6/6 510/6/6 516/6/6
f 516/6/6 510/6/6 517/6/6
f 511/6/6 512/6/6 518/6/6
f 512/6/6 513/6/6 518/6/6
f 518/6/6 513/6/6 519/6/6
f 519/6/6 513/6/6 520/6/6
f 516/6/6 517/6/6 521/6/6
f 518/6/6 519/6/6 521/6/6
f 517/6/6 518/6/6 521/6/6
f 521/6/6 519/6/6 522/6/6
f 479/4/6 480/4/6 523/4/6
f 523/4/6 480/4/6 524/4/6
f 481/4/6 482/4/6 525/4/6
f 525/4/6 482/4/6 526/4/6
f 524/4/6 525/4/6 527/4/6
f 527/4/6 525/4/6 528/4/6
f 529/3/6 530/3/6 532/3/6
f 532/3/6 530/3/6 533/3/6
f 531/3/6 532/3/6 536/3/6
f 536/3/6 532/3/6 537/3/6
f 533/3/6 534/3/6 538/3/6
f 538/3/6 534/3/6 539/3/6
f 535/3/6 536/3/6 541/3/6
f 541/3/6 536/3/6 542/3/6
f 539/3/6 540/3/6 545/3/6
f 545/3/6 540/3/6 546/3/6
f 542/3/6 543/3/6 547/3/6
f 547/3/6 543/3/6 548/3/6
f 544/3/6 545/3/6 549/3/6
f 549/3/6 545/3/6 550/3/6
f 548/3/6 549/3/6 551/3/6
f 551/3/6 549/3/6 552/3/6
f 553/6/6 554/6/6 556/6/6
f 556/6/6 554/6/6 557/6/6
f 555/6/6 556/6/6 560/6/6
f 560/6/6 556/6/6 561/6/6
f 557/6/6 558/6/6 562/6/6
f 562/6/6 558/6/6 563/6/6
f 559/6/6 560/6/6 565/6/6
f 565/6/6 560/6/6 566/6/6
f 563/6/6 564/6/6 569/6/6
f 569/6/6 564/6/6 570/6/6
f 566/6/6 567/6/6 571/6/6
f 571/6/6 567/6/6 572/6/6
f 568/6/6 569/6/6 573/6/6
f 573/6/6 569/6/6 574/6/6
f 572/6/6 573/6/6 575/6/6
f 575/6/6 573/6/6 576/6/6
f 577/6/6 578/6/6 580/6/6
f 580/6/6 578/6/6 581/6/6
f 579/6/6 580/6/6 583/6/6
f 581/6/6 582/6/6 583/6/6
f 580/6/6 581/6/6 583/6/6
f 583/6/6 582/6/6 584/6/6
f 584/6/6 582/6/6 585/6/6
f 585/6/6 582/6/6 586/6/6
f 584/6/6 585/6/6 587/6/6
f 587/6/6 585/6/6 588/6/6
