# MagicaVoxel @ Ephtracy

# group
o 

# material
mtllib capsule_2-1.mtl
usemtl palette

# normals
vn -1 0 0
vn 1 0 0
vn 0 0 1
vn 0 0 -1
vn 0 -1 0
vn 0 1 0

# texcoords
vt 0.943359 0.5
vt 0.955078 0.5

# verts
v -2.6 0.9 1.2
v -2.6 0.9 -1.1
v -2.6 1 -0.7
v -2.6 1 -1.1
v -2.6 1.1 0.7
v -2.6 1.1 -0.7
v -2.6 1.2 1.2
v -2.6 1.2 0.7
v -2.5 0.7 1.2
v -2.5 0.7 -1.1
v -2.5 0.9 1.3
v -2.5 0.9 1.2
v -2.5 0.9 -1.1
v -2.5 0.9 -1.2
v -2.5 1 -1.1
v -2.5 1 -1.2
v -2.5 1.1 0.7
v -2.5 1.1 -0.5
v -2.5 1.2 1.3
v -2.5 1.2 1.2
v -2.5 1.2 0.8
v -2.5 1.2 0.7
v -2.5 1.2 -0.5
v -2.5 1.3 1.2
v -2.5 1.3 0.8
v -2.4 0.5 1.2
v -2.4 0.5 -1.1
v -2.4 0.7 1.3
v -2.4 0.7 1.2
v -2.4 0.7 -1.1
v -2.4 0.7 -1.2
v -2.4 0.9 1.4
v -2.4 0.9 1.3
v -2.4 0.9 1.2
v -2.4 0.9 -1.1
v -2.4 0.9 -1.2
v -2.4 0.9 -1.3
v -2.4 1 -1.2
v -2.4 1 -1.3
v -2.4 1.2 1.4
v -2.4 1.2 1.3
v -2.4 1.2 1.2
v -2.4 1.2 -0.3
v -2.4 1.2 -0.5
v -2.4 1.3 1.3
v -2.4 1.3 1.2
v -2.4 1.3 1
v -2.4 1.3 -0.3
v -2.4 1.3 -0.5
v -2.4 1.4 1.2
v -2.4 1.4 1
v -2.3 1 -0.5
v -2.3 1 -1
v -2.3 1.2 1.4
v -2.3 1.2 1.3
v -2.3 1.3 1.4
v -2.3 1.3 1.3
v -2.3 1.3 1.2
v -2.3 1.3 -0.3
v -2.3 1.3 -0.5
v -2.3 1.3 -1
v -2.3 1.4 1.3
v -2.3 1.4 1.2
v -2.3 1.4 1
v -2.3 1.4 -0.3
v -2.3 1.4 -0.5
v -2.3 1.5 1.2
v -2.3 1.5 1
v -2.1 0.6 -1.1
v -2.1 0.6 -1.2
v -2.1 0.7 -1.1
v -2.1 0.7 -1.2
v -2.1 0.7 -1.3
v -2.1 0.9 -1.2
v -2.1 0.9 -1.3
v -2 0.8 -1.3
v -2 0.8 -1.4
v -2 0.9 -1.3
v -2 1 -1.3
v -2 1 -1.4
v -1.6 1.1 1.1
v -1.6 1.1 1
v -1.6 1.2 1.1
v -1.6 1.2 1
v -1.6 1.4 1.2
v -1.6 1.4 1.1
v -1.6 1.5 1.2
v -1.6 1.5 1.1
v -1.5 1.4 1.1
v -1.5 1.4 1
v -1.5 1.5 1.1
v -1.5 1.5 1
v -1.4 0.9 -1.2
v -1.4 0.9 -1.3
v -1.4 1 -1.2
v -1.4 1 -1.3
v -1.4 1.2 1.1
v -1.4 1.2 1
v -1.4 1.4 1.1
v -1.4 1.4 1
v -1.3 1.1 1
v -1.3 1.1 -0.3
v -1.3 1.2 0.8
v -1.3 1.2 -0.3
v -1.3 1.3 1
v -1.3 1.3 0.8
v -1.2 1 -0.5
v -1.2 1 -0.7
v -1.2 1.1 -0.5
v -1.2 1.1 -0.7
v -2.5 1 -0.5
v -2.5 1 -0.7
v -2.5 1.1 -0.5
v -2.5 1.1 -0.7
v -2.4 1.1 1
v -2.4 1.1 -0.3
v -2.4 1.2 0.8
v -2.4 1.2 -0.3
v -2.4 1.3 1
v -2.4 1.3 0.8
v -2.3 0.9 -1.2
v -2.3 0.9 -1.3
v -2.3 1 -1.2
v -2.3 1 -1.3
v -2.2 1.1 1.1
v -2.2 1.1 1
v -2.2 1.5 1.1
v -2.2 1.5 1
v -2.1 1.4 1.2
v -2.1 1.4 1.1
v -2.1 1.5 1.2
v -2.1 1.5 1.1
v -1.7 0.8 -1.3
v -1.7 0.8 -1.4
v -1.7 0.9 -1.3
v -1.7 1 -1.3
v -1.7 1 -1.4
v -1.6 0.6 -1.1
v -1.6 0.6 -1.2
v -1.6 0.7 -1.1
v -1.6 0.7 -1.2
v -1.6 0.7 -1.3
v -1.6 0.9 -1.2
v -1.6 0.9 -1.3
v -1.4 1.2 1.4
v -1.4 1.2 1.3
v -1.4 1.3 1.4
v -1.4 1.3 1.3
v -1.4 1.3 1.2
v -1.4 1.3 -0.3
v -1.4 1.3 -0.5
v -1.4 1.4 1.3
v -1.4 1.4 1.2
v -1.4 1.4 1
v -1.4 1.4 -0.3
v -1.4 1.4 -0.5
v -1.4 1.5 1.2
v -1.4 1.5 1
v -1.3 0.5 1.2
v -1.3 0.5 -1.1
v -1.3 0.7 1.3
v -1.3 0.7 1.2
v -1.3 0.7 -1.1
v -1.3 0.7 -1.2
v -1.3 0.9 1.4
v -1.3 0.9 1.3
v -1.3 0.9 1.2
v -1.3 0.9 -1.1
v -1.3 0.9 -1.2
v -1.3 0.9 -1.3
v -1.3 1 -0.5
v -1.3 1 -1
v -1.3 1 -1.2
v -1.3 1 -1.3
v -1.3 1.2 1.4
v -1.3 1.2 1.3
v -1.3 1.2 1.2
v -1.3 1.2 -0.3
v -1.3 1.2 -0.5
v -1.3 1.3 1.3
v -1.3 1.3 1.2
v -1.3 1.3 1
v -1.3 1.3 -0.3
v -1.3 1.3 -1
v -1.3 1.4 1.2
v -1.3 1.4 1
v -1.2 0.7 1.2
v -1.2 0.7 -1.1
v -1.2 0.8 0.8
v -1.2 0.8 -0.9
v -1.2 0.9 1.3
v -1.2 0.9 1.2
v -1.2 0.9 0.8
v -1.2 0.9 -0.9
v -1.2 0.9 -1.1
v -1.2 0.9 -1.2
v -1.2 1 -1.1
v -1.2 1 -1.2
v -1.2 1.1 0.7
v -1.2 1.1 -0.5
v -1.2 1.2 1.3
v -1.2 1.2 1.2
v -1.2 1.2 0.8
v -1.2 1.2 0.7
v -1.2 1.2 -0.5
v -1.2 1.3 1.2
v -1.2 1.3 0.8
v -1.1 0.8 0.8
v -1.1 0.8 -0.9
v -1.1 0.9 1.2
v -1.1 0.9 0.8
v -1.1 0.9 -0.9
v -1.1 0.9 -1.1
v -1.1 1 0.8
v -1.1 1 -0.7
v -1.1 1 -0.9
v -1.1 1 -1.1
v -1.1 1.1 0.7
v -1.1 1.1 -0.7
v -1.1 1.2 1.2
v -1.1 1.2 0.7
v -1 0.9 0.8
v -1 0.9 -0.9
v -1 1 0.8
v -1 1 -0.9
v -2.4 0.9 1.4
v -2.4 1.2 1.4
v -2.3 1.2 1.4
v -2.3 1.3 1.4
v -1.4 1.2 1.4
v -1.4 1.3 1.4
v -1.3 0.9 1.4
v -1.3 1.2 1.4
v -2.5 0.9 1.3
v -2.5 1.2 1.3
v -2.4 0.7 1.3
v -2.4 0.9 1.3
v -2.4 1.2 1.3
v -2.4 1.3 1.3
v -2.3 1.2 1.3
v -2.3 1.3 1.3
v -2.3 1.4 1.3
v -1.4 1.2 1.3
v -1.4 1.3 1.3
v -1.4 1.4 1.3
v -1.3 0.7 1.3
v -1.3 0.9 1.3
v -1.3 1.2 1.3
v -1.3 1.3 1.3
v -1.2 0.9 1.3
v -1.2 1.2 1.3
v -2.6 0.9 1.2
v -2.6 1.2 1.2
v -2.5 0.7 1.2
v -2.5 0.9 1.2
v -2.5 1.2 1.2
v -2.5 1.3 1.2
v -2.4 0.5 1.2
v -2.4 0.7 1.2
v -2.4 0.9 1.2
v -2.4 1.2 1.2
v -2.4 1.3 1.2
v -2.4 1.4 1.2
v -2.3 1.3 1.2
v -2.3 1.4 1.2
v -2.3 1.5 1.2
v -2.1 1.4 1.2
v -2.1 1.5 1.2
v -1.6 1.4 1.2
v -1.6 1.5 1.2
v -1.4 1.3 1.2
v -1.4 1.4 1.2
v -1.4 1.5 1.2
v -1.3 0.5 1.2
v -1.3 0.7 1.2
v -1.3 0.9 1.2
v -1.3 1.2 1.2
v -1.3 1.3 1.2
v -1.3 1.4 1.2
v -1.2 0.7 1.2
v -1.2 0.9 1.2
v -1.2 1.2 1.2
v -1.2 1.3 1.2
v -1.1 0.9 1.2
v -1.1 1.2 1.2
v -1.2 0.8 0.8
v -1.2 0.9 0.8
v -1.1 0.8 0.8
v -1.1 0.9 0.8
v -1.1 1 0.8
v -1 0.9 0.8
v -1 1 0.8
v -2.4 1.1 -0.3
v -2.4 1.2 -0.3
v -2.4 1.3 -0.3
v -2.3 1.3 -0.3
v -2.3 1.4 -0.3
v -1.4 1.3 -0.3
v -1.4 1.4 -0.3
v -1.3 1.1 -0.3
v -1.3 1.2 -0.3
v -1.3 1.3 -0.3
v -2 0.9 -1.3
v -2 1 -1.3
v -1.7 0.9 -1.3
v -1.7 1 -1.3
v -2.2 1.1 1.1
v -2.2 1.5 1.1
v -2.1 1.4 1.1
v -2.1 1.5 1.1
v -1.6 1.1 1.1
v -1.6 1.2 1.1
v -1.6 1.4 1.1
v -1.6 1.5 1.1
v -1.5 1.4 1.1
v -1.5 1.5 1.1
v -1.4 1.2 1.1
v -1.4 1.4 1.1
v -2.4 1.1 1
v -2.4 1.3 1
v -2.4 1.4 1
v -2.3 1.4 1
v -2.3 1.5 1
v -2.2 1.1 1
v -2.2 1.5 1
v -1.6 1.1 1
v -1.6 1.2 1
v -1.5 1.4 1
v -1.5 1.5 1
v -1.4 1.2 1
v -1.4 1.4 1
v -1.4 1.5 1
v -1.3 1.1 1
v -1.3 1.3 1
v -1.3 1.4 1
v -2.5 1.2 0.8
v -2.5 1.3 0.8
v -2.4 1.2 0.8
v -2.4 1.3 0.8
v -1.3 1.2 0.8
v -1.3 1.3 0.8
v -1.2 1.2 0.8
v -1.2 1.3 0.8
v -2.6 1.1 0.7
v -2.6 1.2 0.7
v -2.5 1.1 0.7
v -2.5 1.2 0.7
v -1.2 1.1 0.7
v -1.2 1.2 0.7
v -1.1 1.1 0.7
v -1.1 1.2 0.7
v -2.5 1 -0.5
v -2.5 1.1 -0.5
v -2.5 1.2 -0.5
v -2.4 1.2 -0.5
v -2.4 1.3 -0.5
v -2.3 1 -0.5
v -2.3 1.3 -0.5
v -2.3 1.4 -0.5
v -1.4 1.3 -0.5
v -1.4 1.4 -0.5
v -1.3 1 -0.5
v -1.3 1.2 -0.5
v -1.2 1 -0.5
v -1.2 1.1 -0.5
v -1.2 1.2 -0.5
v -2.6 1 -0.7
v -2.6 1.1 -0.7
v -2.5 1 -0.7
v -2.5 1.1 -0.7
v -1.2 1 -0.7
v -1.2 1.1 -0.7
v -1.1 1 -0.7
v -1.1 1.1 -0.7
v -1.2 0.8 -0.9
v -1.2 0.9 -0.9
v -1.1 0.8 -0.9
v -1.1 0.9 -0.9
v -1.1 1 -0.9
v -1 0.9 -0.9
v -1 1 -0.9
v -2.3 1 -1
v -2.3 1.3 -1
v -1.3 1 -1
v -1.3 1.3 -1
v -2.6 0.9 -1.1
v -2.6 1 -1.1
v -2.5 0.7 -1.1
v -2.5 0.9 -1.1
v -2.5 1 -1.1
v -2.4 0.5 -1.1
v -2.4 0.7 -1.1
v -2.4 0.9 -1.1
v -2.1 0.6 -1.1
v -2.1 0.7 -1.1
v -1.6 0.6 -1.1
v -1.6 0.7 -1.1
v -1.3 0.5 -1.1
v -1.3 0.7 -1.1
v -1.3 0.9 -1.1
v -1.2 0.7 -1.1
v -1.2 0.9 -1.1
v -1.2 1 -1.1
v -1.1 0.9 -1.1
v -1.1 1 -1.1
v -2.5 0.9 -1.2
v -2.5 1 -1.2
v -2.4 0.7 -1.2
v -2.4 0.9 -1.2
v -2.4 1 -1.2
v -2.3 0.9 -1.2
v -2.3 1 -1.2
v -2.1 0.6 -1.2
v -2.1 0.7 -1.2
v -2.1 0.9 -1.2
v -1.6 0.6 -1.2
v -1.6 0.7 -1.2
v -1.6 0.9 -1.2
v -1.4 0.9 -1.2
v -1.4 1 -1.2
v -1.3 0.7 -1.2
v -1.3 0.9 -1.2
v -1.3 1 -1.2
v -1.2 0.9 -1.2
v -1.2 1 -1.2
v -2.4 0.9 -1.3
v -2.4 1 -1.3
v -2.3 0.9 -1.3
v -2.3 1 -1.3
v -2.1 0.7 -1.3
v -2.1 0.9 -1.3
v -2 0.8 -1.3
v -2 0.9 -1.3
v -1.7 0.8 -1.3
v -1.7 0.9 -1.3
v -1.6 0.7 -1.3
v -1.6 0.9 -1.3
v -1.4 0.9 -1.3
v -1.4 1 -1.3
v -1.3 0.9 -1.3
v -1.3 1 -1.3
v -2 0.8 -1.4
v -2 1 -1.4
v -1.7 0.8 -1.4
v -1.7 1 -1.4
v -2.4 0.5 1.2
v -1.3 0.5 1.2
v -2.4 0.5 -1.1
v -1.3 0.5 -1.1
v -2.1 0.6 -1.1
v -1.6 0.6 -1.1
v -2.1 0.6 -1.2
v -1.6 0.6 -1.2
v -2.4 0.7 1.3
v -1.3 0.7 1.3
v -2.5 0.7 1.2
v -2.4 0.7 1.2
v -1.3 0.7 1.2
v -1.2 0.7 1.2
v -2.5 0.7 -1.1
v -2.4 0.7 -1.1
v -2.1 0.7 -1.1
v -1.6 0.7 -1.1
v -1.3 0.7 -1.1
v -1.2 0.7 -1.1
v -2.4 0.7 -1.2
v -2.1 0.7 -1.2
v -1.6 0.7 -1.2
v -1.3 0.7 -1.2
v -2.1 0.7 -1.3
v -1.6 0.7 -1.3
v -1.2 0.8 0.8
v -1.1 0.8 0.8
v -1.2 0.8 -0.9
v -1.1 0.8 -0.9
v -2 0.8 -1.3
v -1.7 0.8 -1.3
v -2 0.8 -1.4
v -1.7 0.8 -1.4
v -2.4 0.9 1.4
v -1.3 0.9 1.4
v -2.5 0.9 1.3
v -2.4 0.9 1.3
v -1.3 0.9 1.3
v -1.2 0.9 1.3
v -2.6 0.9 1.2
v -2.5 0.9 1.2
v -2.4 0.9 1.2
v -1.3 0.9 1.2
v -1.2 0.9 1.2
v -1.1 0.9 1.2
v -1.2 0.9 0.8
v -1.1 0.9 0.8
v -1 0.9 0.8
v -1.2 0.9 -0.9
v -1.1 0.9 -0.9
v -1 0.9 -0.9
v -2.6 0.9 -1.1
v -2.5 0.9 -1.1
v -2.4 0.9 -1.1
v -1.3 0.9 -1.1
v -1.2 0.9 -1.1
v -1.1 0.9 -1.1
v -2.5 0.9 -1.2
v -2.4 0.9 -1.2
v -2.3 0.9 -1.2
v -1.4 0.9 -1.2
v -1.3 0.9 -1.2
v -1.2 0.9 -1.2
v -2.4 0.9 -1.3
v -2.3 0.9 -1.3
v -1.4 0.9 -1.3
v -1.3 0.9 -1.3
v -1.5 1.4 1.1
v -1.4 1.4 1.1
v -1.5 1.4 1
v -1.4 1.4 1
v -2.1 0.9 -1.2
v -1.6 0.9 -1.2
v -2.1 0.9 -1.3
v -2 0.9 -1.3
v -1.7 0.9 -1.3
v -1.6 0.9 -1.3
v -1.1 1 0.8
v -1 1 0.8
v -2.5 1 -0.5
v -2.3 1 -0.5
v -1.3 1 -0.5
v -1.2 1 -0.5
v -2.6 1 -0.7
v -2.5 1 -0.7
v -1.2 1 -0.7
v -1.1 1 -0.7
v -1.1 1 -0.9
v -1 1 -0.9
v -2.3 1 -1
v -1.3 1 -1
v -2.6 1 -1.1
v -2.5 1 -1.1
v -1.2 1 -1.1
v -1.1 1 -1.1
v -2.5 1 -1.2
v -2.4 1 -1.2
v -2.3 1 -1.2
v -1.4 1 -1.2
v -1.3 1 -1.2
v -1.2 1 -1.2
v -2.4 1 -1.3
v -2.3 1 -1.3
v -2 1 -1.3
v -1.7 1 -1.3
v -1.4 1 -1.3
v -1.3 1 -1.3
v -2 1 -1.4
v -1.7 1 -1.4
v -2.2 1.1 1.1
v -1.6 1.1 1.1
v -2.4 1.1 1
v -2.2 1.1 1
v -1.6 1.1 1
v -1.3 1.1 1
v -2.6 1.1 0.7
v -2.5 1.1 0.7
v -1.2 1.1 0.7
v -1.1 1.1 0.7
v -2.4 1.1 -0.3
v -1.3 1.1 -0.3
v -2.5 1.1 -0.5
v -1.2 1.1 -0.5
v -2.6 1.1 -0.7
v -2.5 1.1 -0.7
v -1.2 1.1 -0.7
v -1.1 1.1 -0.7
v -2.4 1.2 1.4
v -2.3 1.2 1.4
v -1.4 1.2 1.4
v -1.3 1.2 1.4
v -2.5 1.2 1.3
v -2.4 1.2 1.3
v -2.3 1.2 1.3
v -1.4 1.2 1.3
v -1.3 1.2 1.3
v -1.2 1.2 1.3
v -2.6 1.2 1.2
v -2.5 1.2 1.2
v -2.4 1.2 1.2
v -1.3 1.2 1.2
v -1.2 1.2 1.2
v -1.1 1.2 1.2
v -1.6 1.2 1.1
v -1.4 1.2 1.1
v -1.6 1.2 1
v -1.4 1.2 1
v -2.5 1.2 0.8
v -2.4 1.2 0.8
v -1.3 1.2 0.8
v -1.2 1.2 0.8
v -2.6 1.2 0.7
v -2.5 1.2 0.7
v -1.2 1.2 0.7
v -1.1 1.2 0.7
v -2.4 1.2 -0.3
v -1.3 1.2 -0.3
v -2.5 1.2 -0.5
v -2.4 1.2 -0.5
v -1.3 1.2 -0.5
v -1.2 1.2 -0.5
v -2.3 1.3 1.4
v -1.4 1.3 1.4
v -2.4 1.3 1.3
v -2.3 1.3 1.3
v -1.4 1.3 1.3
v -1.3 1.3 1.3
v -2.5 1.3 1.2
v -2.4 1.3 1.2
v -2.3 1.3 1.2
v -1.4 1.3 1.2
v -1.3 1.3 1.2
v -1.2 1.3 1.2
v -2.4 1.3 1
v -1.3 1.3 1
v -2.5 1.3 0.8
v -2.4 1.3 0.8
v -1.3 1.3 0.8
v -1.2 1.3 0.8
v -2.4 1.3 -0.3
v -2.3 1.3 -0.3
v -1.4 1.3 -0.3
v -1.3 1.3 -0.3
v -2.4 1.3 -0.5
v -2.3 1.3 -0.5
v -1.4 1.3 -0.5
v -2.3 1.3 -1
v -1.3 1.3 -1
v -2.3 1.4 1.3
v -1.4 1.4 1.3
v -2.4 1.4 1.2
v -2.3 1.4 1.2
v -2.1 1.4 1.2
v -1.6 1.4 1.2
v -1.4 1.4 1.2
v -1.3 1.4 1.2
v -2.1 1.4 1.1
v -1.6 1.4 1.1
v -2.4 1.4 1
v -2.3 1.4 1
v -1.4 1.4 1
v -1.3 1.4 1
v -2.3 1.4 -0.3
v -1.4 1.4 -0.3
v -2.3 1.4 -0.5
v -1.4 1.4 -0.5
v -2.3 1.5 1.2
v -2.1 1.5 1.2
v -1.6 1.5 1.2
v -1.4 1.5 1.2
v -2.2 1.5 1.1
v -2.1 1.5 1.1
v -1.6 1.5 1.1
v -1.5 1.5 1.1
v -2.3 1.5 1
v -2.2 1.5 1
v -1.5 1.5 1
v -1.4 1.5 1

# faces
f 3/1/1 2/1/1 1/1/1
f 4/1/1 2/1/1 3/1/1
f 5/1/1 3/1/1 1/1/1
f 6/1/1 3/1/1 5/1/1
f 7/1/1 5/1/1 1/1/1
f 8/1/1 5/1/1 7/1/1
f 12/1/1 10/1/1 9/1/1
f 13/1/1 10/1/1 12/1/1
f 15/1/1 14/1/1 13/1/1
f 16/1/1 14/1/1 15/1/1
f 19/1/1 12/1/1 11/1/1
f 20/1/1 12/1/1 19/1/1
f 22/1/1 18/1/1 17/1/1
f 23/1/1 18/1/1 22/1/1
f 24/1/1 21/1/1 20/1/1
f 25/1/1 21/1/1 24/1/1
f 29/1/1 27/1/1 26/1/1
f 30/1/1 27/1/1 29/1/1
f 33/1/1 29/1/1 28/1/1
f 34/1/1 29/1/1 33/1/1
f 35/1/1 31/1/1 30/1/1
f 36/1/1 31/1/1 35/1/1
f 38/1/1 37/1/1 36/1/1
f 39/1/1 37/1/1 38/1/1
f 40/1/1 33/1/1 32/1/1
f 41/1/1 33/1/1 40/1/1
f 45/1/1 42/1/1 41/1/1
f 46/1/1 42/1/1 45/1/1
f 48/1/1 44/1/1 43/1/1
f 49/1/1 44/1/1 48/1/1
f 50/1/1 47/1/1 46/1/1
f 51/1/1 47/1/1 50/1/1
f 56/1/1 55/1/1 54/1/1
f 57/1/1 55/1/1 56/1/1
f 60/1/1 53/1/1 52/1/1
f 61/1/1 53/1/1 60/1/1
f 62/1/1 58/1/1 57/1/1
f 63/1/1 58/1/1 62/1/1
f 65/1/1 60/1/1 59/1/1
f 66/1/1 60/1/1 65/1/1
f 67/1/1 64/1/1 63/1/1
f 68/1/1 64/1/1 67/1/1
f 71/2/1 70/2/1 69/2/1
f 72/2/1 70/2/1 71/2/1
f 74/2/1 73/2/1 72/2/1
f 75/2/1 73/2/1 74/2/1
f 78/2/1 77/2/1 76/2/1
f 79/2/1 77/2/1 78/2/1
f 80/2/1 77/2/1 79/2/1
f 83/1/1 82/1/1 81/1/1
f 84/1/1 82/1/1 83/1/1
f 87/1/1 86/1/1 85/1/1
f 88/1/1 86/1/1 87/1/1
f 91/1/1 90/1/1 89/1/1
f 92/1/1 90/1/1 91/1/1
f 95/1/1 94/1/1 93/1/1
f 96/1/1 94/1/1 95/1/1
f 99/1/1 98/1/1 97/1/1
f 100/1/1 98/1/1 99/1/1
f 103/1/1 102/1/1 101/1/1
f 104/1/1 102/1/1 103/1/1
f 105/1/1 103/1/1 101/1/1
f 106/1/1 103/1/1 105/1/1
f 109/1/1 108/1/1 107/1/1
f 110/1/1 108/1/1 109/1/1
f 111/1/2 112/1/2 113/1/2
f 113/1/2 112/1/2 114/1/2
f 115/1/2 116/1/2 117/1/2
f 117/1/2 116/1/2 118/1/2
f 115/1/2 117/1/2 119/1/2
f 119/1/2 117/1/2 120/1/2
f 121/1/2 122/1/2 123/1/2
f 123/1/2 122/1/2 124/1/2
f 125/1/2 126/1/2 127/1/2
f 127/1/2 126/1/2 128/1/2
f 129/1/2 130/1/2 131/1/2
f 131/1/2 130/1/2 132/1/2
f 133/2/2 134/2/2 135/2/2
f 135/2/2 134/2/2 136/2/2
f 136/2/2 134/2/2 137/2/2
f 138/2/2 139/2/2 140/2/2
f 140/2/2 139/2/2 141/2/2
f 141/2/2 142/2/2 143/2/2
f 143/2/2 142/2/2 144/2/2
f 145/1/2 146/1/2 147/1/2
f 147/1/2 146/1/2 148/1/2
f 148/1/2 149/1/2 152/1/2
f 152/1/2 149/1/2 153/1/2
f 150/1/2 151/1/2 155/1/2
f 155/1/2 151/1/2 156/1/2
f 153/1/2 154/1/2 157/1/2
f 157/1/2 154/1/2 158/1/2
f 159/1/2 160/1/2 162/1/2
f 162/1/2 160/1/2 163/1/2
f 161/1/2 162/1/2 166/1/2
f 166/1/2 162/1/2 167/1/2
f 163/1/2 164/1/2 168/1/2
f 168/1/2 164/1/2 169/1/2
f 169/1/2 170/1/2 173/1/2
f 173/1/2 170/1/2 174/1/2
f 165/1/2 166/1/2 175/1/2
f 175/1/2 166/1/2 176/1/2
f 171/1/2 172/1/2 179/1/2
f 176/1/2 177/1/2 180/1/2
f 180/1/2 177/1/2 181/1/2
f 178/1/2 179/1/2 183/1/2
f 179/1/2 172/1/2 184/1/2
f 183/1/2 179/1/2 184/1/2
f 181/1/2 182/1/2 185/1/2
f 185/1/2 182/1/2 186/1/2
f 187/1/2 188/1/2 189/1/2
f 189/1/2 188/1/2 190/1/2
f 187/1/2 189/1/2 192/1/2
f 192/1/2 189/1/2 193/1/2
f 190/1/2 188/1/2 194/1/2
f 194/1/2 188/1/2 195/1/2
f 195/1/2 196/1/2 197/1/2
f 197/1/2 196/1/2 198/1/2
f 191/1/2 192/1/2 201/1/2
f 201/1/2 192/1/2 202/1/2
f 199/1/2 200/1/2 204/1/2
f 204/1/2 200/1/2 205/1/2
f 202/1/2 203/1/2 206/1/2
f 206/1/2 203/1/2 207/1/2
f 208/2/2 209/2/2 211/2/2
f 211/2/2 209/2/2 212/2/2
f 210/1/2 211/1/2 214/1/2
f 212/1/2 213/1/2 216/1/2
f 216/1/2 213/1/2 217/1/2
f 214/1/2 215/1/2 218/1/2
f 218/1/2 215/1/2 219/1/2
f 210/1/2 214/1/2 220/1/2
f 214/1/2 218/1/2 220/1/2
f 220/1/2 218/1/2 221/1/2
f 222/2/2 223/2/2 224/2/2
f 224/2/2 223/2/2 225/2/2
f 228/1/3 227/1/3 226/1/3
f 230/1/3 228/1/3 226/1/3
f 230/1/3 229/1/3 228/1/3
f 231/1/3 229/1/3 230/1/3
f 232/1/3 230/1/3 226/1/3
f 233/1/3 230/1/3 232/1/3
f 237/1/3 235/1/3 234/1/3
f 238/1/3 235/1/3 237/1/3
f 240/1/3 239/1/3 238/1/3
f 241/1/3 239/1/3 240/1/3
f 244/1/3 242/1/3 241/1/3
f 245/1/3 242/1/3 244/1/3
f 246/1/3 237/1/3 236/1/3
f 247/1/3 237/1/3 246/1/3
f 248/1/3 244/1/3 243/1/3
f 249/1/3 244/1/3 248/1/3
f 250/1/3 248/1/3 247/1/3
f 251/1/3 248/1/3 250/1/3
f 255/1/3 253/1/3 252/1/3
f 256/1/3 253/1/3 255/1/3
f 259/1/3 255/1/3 254/1/3
f 260/1/3 255/1/3 259/1/3
f 261/1/3 257/1/3 256/1/3
f 262/1/3 257/1/3 261/1/3
f 264/1/3 263/1/3 262/1/3
f 265/1/3 263/1/3 264/1/3
f 267/1/3 266/1/3 265/1/3
f 268/1/3 266/1/3 267/1/3
f 272/1/3 270/1/3 269/1/3
f 273/1/3 270/1/3 272/1/3
f 274/1/3 259/1/3 258/1/3
f 275/1/3 259/1/3 274/1/3
f 278/1/3 272/1/3 271/1/3
f 279/1/3 272/1/3 278/1/3
f 280/1/3 276/1/3 275/1/3
f 281/1/3 276/1/3 280/1/3
f 282/1/3 278/1/3 277/1/3
f 283/1/3 278/1/3 282/1/3
f 284/1/3 282/1/3 281/1/3
f 285/1/3 282/1/3 284/1/3
f 288/2/3 287/2/3 286/2/3
f 289/2/3 287/2/3 288/2/3
f 291/2/3 290/2/3 289/2/3
f 292/2/3 290/2/3 291/2/3
f 296/1/3 294/1/3 293/1/3
f 296/1/3 295/1/3 294/1/3
f 298/1/3 296/1/3 293/1/3
f 298/1/3 297/1/3 296/1/3
f 299/1/3 297/1/3 298/1/3
f 300/1/3 298/1/3 293/1/3
f 301/1/3 298/1/3 300/1/3
f 302/1/3 298/1/3 301/1/3
f 305/2/3 304/2/3 303/2/3
f 306/2/3 304/2/3 305/2/3
f 307/1/4 308/1/4 309/1/4
f 309/1/4 308/1/4 310/1/4
f 307/1/4 309/1/4 311/1/4
f 311/1/4 309/1/4 312/1/4
f 312/1/4 309/1/4 313/1/4
f 313/1/4 314/1/4 315/1/4
f 312/1/4 313/1/4 315/1/4
f 315/1/4 314/1/4 316/1/4
f 312/1/4 315/1/4 317/1/4
f 317/1/4 315/1/4 318/1/4
f 319/1/4 320/1/4 322/1/4
f 320/1/4 321/1/4 322/1/4
f 319/1/4 322/1/4 324/1/4
f 322/1/4 323/1/4 324/1/4
f 324/1/4 323/1/4 325/1/4
f 326/1/4 327/1/4 330/1/4
f 328/1/4 329/1/4 331/1/4
f 331/1/4 329/1/4 332/1/4
f 326/1/4 330/1/4 333/1/4
f 330/1/4 331/1/4 333/1/4
f 333/1/4 331/1/4 334/1/4
f 334/1/4 331/1/4 335/1/4
f 336/1/4 337/1/4 338/1/4
f 338/1/4 337/1/4 339/1/4
f 340/1/4 341/1/4 342/1/4
f 342/1/4 341/1/4 343/1/4
f 344/1/4 345/1/4 346/1/4
f 346/1/4 345/1/4 347/1/4
f 348/1/4 349/1/4 350/1/4
f 350/1/4 349/1/4 351/1/4
f 352/1/4 353/1/4 355/1/4
f 353/1/4 354/1/4 355/1/4
f 352/1/4 355/1/4 357/1/4
f 355/1/4 356/1/4 357/1/4
f 357/1/4 356/1/4 358/1/4
f 358/1/4 359/1/4 360/1/4
f 360/1/4 359/1/4 361/1/4
f 362/1/4 363/1/4 364/1/4
f 364/1/4 363/1/4 365/1/4
f 365/1/4 363/1/4 366/1/4
f 367/1/4 368/1/4 369/1/4
f 369/1/4 368/1/4 370/1/4
f 371/1/4 372/1/4 373/1/4
f 373/1/4 372/1/4 374/1/4
f 375/2/4 376/2/4 377/2/4
f 377/2/4 376/2/4 378/2/4
f 378/2/4 379/2/4 380/2/4
f 380/2/4 379/2/4 381/2/4
f 382/1/4 383/1/4 384/1/4
f 384/1/4 383/1/4 385/1/4
f 386/1/4 387/1/4 389/1/4
f 389/1/4 387/1/4 390/1/4
f 388/1/4 389/1/4 392/1/4
f 392/1/4 389/1/4 393/1/4
f 391/1/4 392/1/4 394/1/4
f 394/1/4 392/1/4 395/1/4
f 391/1/4 394/1/4 396/1/4
f 391/1/4 396/1/4 398/1/4
f 396/1/4 397/1/4 398/1/4
f 398/1/4 397/1/4 399/1/4
f 399/1/4 400/1/4 401/1/4
f 401/1/4 400/1/4 402/1/4
f 402/1/4 403/1/4 404/1/4
f 404/1/4 403/1/4 405/1/4
f 406/1/4 407/1/4 409/1/4
f 409/1/4 407/1/4 410/1/4
f 408/1/4 409/1/4 411/1/4
f 408/1/4 411/1/4 414/1/4
f 411/1/4 412/1/4 414/1/4
f 414/1/4 412/1/4 415/1/4
f 413/2/4 414/2/4 416/2/4
f 416/2/4 414/2/4 417/2/4
f 415/1/4 412/1/4 418/1/4
f 417/1/4 418/1/4 419/1/4
f 418/1/4 412/1/4 419/1/4
f 419/1/4 412/1/4 420/1/4
f 417/1/4 419/1/4 421/1/4
f 421/1/4 419/1/4 422/1/4
f 422/1/4 423/1/4 424/1/4
f 424/1/4 423/1/4 425/1/4
f 426/1/4 427/1/4 428/1/4
f 428/1/4 427/1/4 429/1/4
f 430/2/4 431/2/4 432/2/4
f 432/2/4 431/2/4 433/2/4
f 430/2/4 432/2/4 434/2/4
f 430/2/4 434/2/4 436/2/4
f 434/2/4 435/2/4 436/2/4
f 436/2/4 435/2/4 437/2/4
f 438/1/4 439/1/4 440/1/4
f 440/1/4 439/1/4 441/1/4
f 442/2/4 443/2/4 444/2/4
f 444/2/4 443/2/4 445/2/4
f 448/1/5 447/1/5 446/1/5
f 449/1/5 447/1/5 448/1/5
f 452/2/5 451/2/5 450/2/5
f 453/2/5 451/2/5 452/2/5
f 457/1/5 455/1/5 454/1/5
f 458/1/5 455/1/5 457/1/5
f 460/1/5 457/1/5 456/1/5
f 461/1/5 457/1/5 460/1/5
f 464/1/5 459/1/5 458/1/5
f 465/1/5 459/1/5 464/1/5
f 466/1/5 462/1/5 461/1/5
f 467/1/5 462/1/5 466/1/5
f 468/1/5 464/1/5 463/1/5
f 469/1/5 464/1/5 468/1/5
f 470/2/5 468/2/5 467/2/5
f 471/2/5 468/2/5 470/2/5
f 474/2/5 473/2/5 472/2/5
f 475/2/5 473/2/5 474/2/5
f 478/2/5 477/2/5 476/2/5
f 479/2/5 477/2/5 478/2/5
f 483/1/5 481/1/5 480/1/5
f 484/1/5 481/1/5 483/1/5
f 487/1/5 483/1/5 482/1/5
f 488/1/5 483/1/5 487/1/5
f 489/1/5 485/1/5 484/1/5
f 490/1/5 485/1/5 489/1/5
f 492/1/5 491/1/5 490/1/5
f 493/1/5 491/1/5 492/1/5
f 496/2/5 494/2/5 493/2/5
f 497/2/5 494/2/5 496/2/5
f 498/1/5 487/1/5 486/1/5
f 499/1/5 487/1/5 498/1/5
f 502/1/5 496/1/5 495/1/5
f 503/1/5 496/1/5 502/1/5
f 504/1/5 500/1/5 499/1/5
f 505/1/5 500/1/5 504/1/5
f 508/1/5 502/1/5 501/1/5
f 509/1/5 502/1/5 508/1/5
f 510/1/5 506/1/5 505/1/5
f 511/1/5 506/1/5 510/1/5
f 512/1/5 508/1/5 507/1/5
f 513/1/5 508/1/5 512/1/5
f 516/1/5 515/1/5 514/1/5
f 517/1/5 515/1/5 516/1/5
f 518/2/6 519/2/6 520/2/6
f 520/2/6 519/2/6 521/2/6
f 521/2/6 519/2/6 522/2/6
f 522/2/6 519/2/6 523/2/6
f 526/1/6 527/1/6 531/1/6
f 528/1/6 529/1/6 532/1/6
f 524/2/6 525/2/6 533/2/6
f 533/2/6 525/2/6 534/2/6
f 532/1/6 533/1/6 534/1/6
f 534/2/6 525/2/6 535/2/6
f 530/1/6 531/1/6 536/1/6
f 531/1/6 527/1/6 536/1/6
f 528/1/6 532/1/6 537/1/6
f 532/1/6 534/1/6 537/1/6
f 530/1/6 536/1/6 538/1/6
f 536/1/6 537/1/6 538/1/6
f 538/1/6 537/1/6 539/1/6
f 537/1/6 534/1/6 540/1/6
f 539/1/6 537/1/6 540/1/6
f 540/1/6 534/1/6 541/1/6
f 539/1/6 540/1/6 542/1/6
f 542/1/6 540/1/6 543/1/6
f 543/1/6 540/1/6 544/1/6
f 544/1/6 540/1/6 545/1/6
f 545/1/6 540/1/6 546/1/6
f 546/1/6 540/1/6 547/1/6
f 543/1/6 544/1/6 548/1/6
f 548/1/6 544/1/6 549/1/6
f 545/1/6 546/1/6 552/1/6
f 552/1/6 546/1/6 553/1/6
f 550/2/6 551/2/6 554/2/6
f 554/2/6 551/2/6 555/2/6
f 556/1/6 557/1/6 559/1/6
f 559/1/6 557/1/6 560/1/6
f 558/1/6 559/1/6 566/1/6
f 559/1/6 560/1/6 566/1/6
f 560/1/6 561/1/6 566/1/6
f 566/1/6 561/1/6 567/1/6
f 562/1/6 563/1/6 568/1/6
f 564/1/6 565/1/6 569/1/6
f 562/1/6 568/1/6 570/1/6
f 570/1/6 568/1/6 571/1/6
f 569/1/6 565/1/6 572/1/6
f 572/1/6 565/1/6 573/1/6
f 574/1/6 575/1/6 579/1/6
f 579/1/6 575/1/6 580/1/6
f 576/1/6 577/1/6 581/1/6
f 581/1/6 577/1/6 582/1/6
f 578/1/6 579/1/6 585/1/6
f 585/1/6 579/1/6 586/1/6
f 582/1/6 583/1/6 587/1/6
f 587/1/6 583/1/6 588/1/6
f 590/1/6 591/1/6 592/1/6
f 592/1/6 591/1/6 593/1/6
f 584/1/6 585/1/6 594/1/6
f 588/1/6 589/1/6 597/1/6
f 584/1/6 594/1/6 598/1/6
f 594/1/6 595/1/6 598/1/6
f 598/1/6 595/1/6 599/1/6
f 596/1/6 597/1/6 600/1/6
f 597/1/6 589/1/6 600/1/6
f 600/1/6 589/1/6 601/1/6
f 599/1/6 595/1/6 602/1/6
f 596/1/6 600/1/6 603/1/6
f 599/1/6 602/1/6 604/1/6
f 604/1/6 602/1/6 605/1/6
f 603/1/6 600/1/6 606/1/6
f 606/1/6 600/1/6 607/1/6
f 608/1/6 609/1/6 611/1/6
f 611/1/6 609/1/6 612/1/6
f 610/1/6 611/1/6 615/1/6
f 615/1/6 611/1/6 616/1/6
f 612/1/6 613/1/6 617/1/6
f 617/1/6 613/1/6 618/1/6
f 614/1/6 615/1/6 620/1/6
f 618/1/6 619/1/6 621/1/6
f 614/1/6 620/1/6 622/1/6
f 622/1/6 620/1/6 623/1/6
f 621/1/6 619/1/6 624/1/6
f 624/1/6 619/1/6 625/1/6
f 626/1/6 627/1/6 630/1/6
f 630/1/6 627/1/6 631/1/6
f 628/1/6 629/1/6 632/1/6
f 631/1/6 632/1/6 633/1/6
f 632/1/6 629/1/6 634/1/6
f 633/1/6 632/1/6 634/1/6
f 635/1/6 636/1/6 638/1/6
f 638/1/6 636/1/6 639/1/6
f 639/1/6 636/1/6 640/1/6
f 640/1/6 636/1/6 641/1/6
f 639/1/6 640/1/6 643/1/6
f 643/1/6 640/1/6 644/1/6
f 637/1/6 638/1/6 645/1/6
f 645/1/6 638/1/6 646/1/6
f 641/1/6 642/1/6 647/1/6
f 647/1/6 642/1/6 648/1/6
f 649/1/6 650/1/6 651/1/6
f 651/1/6 650/1/6 652/1/6
f 653/1/6 654/1/6 657/1/6
f 657/1/6 654/1/6 658/1/6
f 655/1/6 656/1/6 659/1/6
f 659/1/6 656/1/6 660/1/6
f 653/1/6 657/1/6 661/1/6
f 661/1/6 657/1/6 662/1/6
f 660/1/6 656/1/6 663/1/6
f 663/1/6 656/1/6 664/1/6
