# MagicaVoxel @ Ephtracy

# group
o 

# material
mtllib capsule_2-0.mtl
usemtl palette

# normals
vn -1 0 0
vn 1 0 0
vn 0 0 1
vn 0 0 -1
vn 0 -1 0
vn 0 1 0

# texcoords
vt 0.916016 0.5
vt 0.947266 0.5
vt 0.986328 0.5

# verts
v -2.5 0.8 -0.7
v -2.5 0.8 -1
v -2.5 0.8 -1.1
v -2.5 0.9 0.7
v -2.5 0.9 -0.6
v -2.5 0.9 -0.7
v -2.5 0.9 -0.9
v -2.5 0.9 -1
v -2.5 1 0.7
v -2.5 1 -0.6
v -2.5 1 -0.9
v -2.5 1 -1.1
v -2.4 0.8 -0.5
v -2.4 0.8 -0.7
v -2.4 0.8 -1.1
v -2.4 0.8 -1.2
v -2.4 0.9 -0.5
v -2.4 0.9 -0.6
v -2.4 0.9 -0.7
v -2.4 1 0.8
v -2.4 1 0.7
v -2.4 1 -0.5
v -2.4 1 -0.6
v -2.4 1 -0.8
v -2.4 1 -0.9
v -2.4 1 -1.1
v -2.4 1 -1.2
v -2.4 1.1 0.8
v -2.4 1.1 -0.5
v -2.4 1.1 -0.8
v -2.4 1.1 -1.1
v -2.3 0.8 -1.2
v -2.3 0.8 -1.3
v -2.3 1 -1.1
v -2.3 1 -1.2
v -2.3 1 -1.3
v -2.3 1.1 0.9
v -2.3 1.1 0.8
v -2.3 1.1 -0.4
v -2.3 1.1 -0.5
v -2.3 1.1 -0.7
v -2.3 1.1 -0.8
v -2.3 1.1 -1.1
v -2.3 1.1 -1.2
v -2.3 1.2 0.9
v -2.3 1.2 -0.4
v -2.3 1.2 -0.7
v -2.3 1.2 -1.1
v -2.2 0.7 -1.2
v -2.2 0.7 -1.3
v -2.2 0.8 -1.2
v -2.2 0.8 -1.3
v -2.2 1 -1.2
v -2.2 1 -1.3
v -2.2 1.1 -1.1
v -2.2 1.1 -1.2
v -2.2 1.1 -1.3
v -2.2 1.2 1
v -2.2 1.2 0.9
v -2.2 1.2 0.5
v -2.2 1.2 0.3
v -2.2 1.2 -0.3
v -2.2 1.2 -0.4
v -2.2 1.2 -0.6
v -2.2 1.2 -0.7
v -2.2 1.2 -1.1
v -2.2 1.2 -1.2
v -2.2 1.3 1
v -2.2 1.3 0.5
v -2.2 1.3 0.3
v -2.2 1.3 -0.3
v -2.2 1.3 -0.6
v -2.2 1.3 -1.1
v -2.1 1.2 1.1
v -2.1 1.2 1
v -2.1 1.3 1.1
v -2.1 1.3 1
v -2 1.2 1.2
v -2 1.2 1.1
v -2 1.3 1.2
v -2 1.3 1.1
v -1.3 1 0.8
v -1.3 1 -0.3
v -1.3 1.1 0.9
v -1.3 1.1 0.8
v -1.3 1.1 -0.3
v -1.3 1.1 -0.4
v -1.3 1.1 -0.5
v -1.3 1.2 0.9
v -1.3 1.2 0.5
v -1.3 1.2 0.3
v -1.3 1.2 0.2
v -1.3 1.2 0
v -1.3 1.2 -0.3
v -1.3 1.2 -0.4
v -1.3 1.2 -0.5
v -1.2 0.8 -0.5
v -1.2 0.8 -1
v -1.2 1 -0.3
v -1.2 1 -0.5
v -1.2 1 -0.8
v -1.2 1.1 -0.3
v -1.2 1.1 -0.4
v -1.2 1.1 -0.5
v -1.2 1.1 -0.7
v -1.2 1.1 -0.8
v -1.2 1.1 -1
v -1.1 0.9 0.7
v -1.1 0.9 -0.5
v -1.1 1 0.7
v -1.1 1 -0.5
v -2.4 0.9 0.7
v -2.4 0.9 -0.5
v -2.4 1 0.7
v -2.4 1 -0.5
v -2.3 1 0.8
v -2.3 1 -0.5
v -2.3 1.1 0.8
v -2.3 1.1 -0.4
v -2.3 1.1 -0.5
v -2.2 0.8 -0.5
v -2.2 0.8 -1
v -2.2 1.1 0.9
v -2.2 1.1 -0.4
v -2.2 1.1 -0.5
v -2.2 1.1 -1
v -2.2 1.2 0.9
v -2.2 1.2 0.5
v -2.2 1.2 0.3
v -2.2 1.2 -0.3
v -2.2 1.2 -0.4
v -2.2 1.2 -0.5
v -1.5 1.2 1.2
v -1.5 1.2 1.1
v -1.5 1.3 1.2
v -1.5 1.3 1.1
v -1.4 1.2 1.1
v -1.4 1.2 1
v -1.4 1.3 1.1
v -1.4 1.3 1
v -1.3 0.7 -1.2
v -1.3 0.7 -1.3
v -1.3 0.8 -1.2
v -1.3 0.8 -1.3
v -1.3 1 -1.2
v -1.3 1 -1.3
v -1.3 1.1 -1.1
v -1.3 1.1 -1.2
v -1.3 1.1 -1.3
v -1.3 1.2 1
v -1.3 1.2 0.9
v -1.3 1.2 0.5
v -1.3 1.2 0.3
v -1.3 1.2 0.2
v -1.3 1.2 0
v -1.3 1.2 -0.3
v -1.3 1.2 -0.4
v -1.3 1.2 -0.6
v -1.3 1.2 -0.7
v -1.3 1.2 -1.1
v -1.3 1.2 -1.2
v -1.3 1.3 1
v -1.3 1.3 0.5
v -1.3 1.3 0.3
v -1.3 1.3 0.2
v -1.3 1.3 0
v -1.3 1.3 -0.3
v -1.3 1.3 -0.6
v -1.3 1.3 -1.1
v -1.2 0.8 -1.2
v -1.2 0.8 -1.3
v -1.2 1 -1.1
v -1.2 1 -1.2
v -1.2 1 -1.3
v -1.2 1.1 0.9
v -1.2 1.1 0.8
v -1.2 1.1 -0.4
v -1.2 1.1 -0.5
v -1.2 1.1 -0.7
v -1.2 1.1 -0.8
v -1.2 1.1 -1.1
v -1.2 1.1 -1.2
v -1.2 1.2 0.9
v -1.2 1.2 -0.4
v -1.2 1.2 -0.7
v -1.2 1.2 -1.1
v -1.1 0.8 -0.5
v -1.1 0.8 -0.7
v -1.1 0.8 -1.1
v -1.1 0.8 -1.2
v -1.1 0.9 -0.5
v -1.1 0.9 -0.6
v -1.1 0.9 -0.7
v -1.1 1 0.8
v -1.1 1 0.7
v -1.1 1 -0.5
v -1.1 1 -0.6
v -1.1 1 -0.8
v -1.1 1 -0.9
v -1.1 1 -1.1
v -1.1 1 -1.2
v -1.1 1.1 0.8
v -1.1 1.1 -0.5
v -1.1 1.1 -0.8
v -1.1 1.1 -1.1
v -1 0.8 -0.7
v -1 0.8 -1
v -1 0.8 -1.1
v -1 0.9 0.7
v -1 0.9 -0.6
v -1 0.9 -0.7
v -1 0.9 -0.9
v -1 0.9 -1
v -1 1 0.7
v -1 1 -0.6
v -1 1 -0.9
v -1 1 -1.1
v -2 1.2 1.2
v -2 1.3 1.2
v -1.5 1.2 1.2
v -1.5 1.3 1.2
v -2.1 1.2 1.1
v -2.1 1.3 1.1
v -2 1.2 1.1
v -2 1.3 1.1
v -1.5 1.2 1.1
v -1.5 1.3 1.1
v -1.4 1.2 1.1
v -1.4 1.3 1.1
v -2.2 1.2 1
v -2.2 1.3 1
v -2.1 1.2 1
v -2.1 1.3 1
v -1.4 1.2 1
v -1.4 1.3 1
v -1.3 1.2 1
v -1.3 1.3 1
v -2.3 1.1 0.9
v -2.3 1.2 0.9
v -2.2 1.1 0.9
v -2.2 1.2 0.9
v -1.3 1.1 0.9
v -1.3 1.2 0.9
v -1.2 1.1 0.9
v -1.2 1.2 0.9
v -2.4 1 0.8
v -2.4 1.1 0.8
v -2.3 1 0.8
v -2.3 1.1 0.8
v -1.3 1 0.8
v -1.3 1.1 0.8
v -1.2 1.1 0.8
v -1.1 1 0.8
v -1.1 1.1 0.8
v -2.5 0.9 0.7
v -2.5 1 0.7
v -2.4 0.9 0.7
v -2.4 1 0.7
v -1.1 0.9 0.7
v -1.1 1 0.7
v -1 0.9 0.7
v -1 1 0.7
v -2.4 0.8 -0.5
v -2.4 0.9 -0.5
v -2.4 1 -0.5
v -2.3 1 -0.5
v -2.3 1.1 -0.5
v -2.2 0.8 -0.5
v -2.2 1.1 -0.5
v -2.2 1.2 -0.5
v -1.3 1.1 -0.5
v -1.3 1.2 -0.5
v -1.2 0.8 -0.5
v -1.2 1 -0.5
v -1.1 0.8 -0.5
v -1.1 0.9 -0.5
v -1.1 1 -0.5
v -2.5 0.8 -0.7
v -2.5 0.9 -0.7
v -2.4 0.8 -0.7
v -2.4 0.9 -0.7
v -1.1 0.8 -0.7
v -1.1 0.9 -0.7
v -1 0.8 -0.7
v -1 0.9 -0.7
v -2.2 0.8 -1
v -2.2 1.1 -1
v -1.2 0.8 -1
v -1.2 1.1 -1
v -2.2 0.7 -1.2
v -2.2 0.8 -1.2
v -1.3 0.7 -1.2
v -1.3 0.8 -1.2
v -1.3 1 -0.3
v -1.3 1.1 -0.3
v -1.2 1 -0.3
v -1.2 1.1 -0.3
v -2.5 0.8 -1.1
v -2.5 1 -1.1
v -2.4 0.8 -1.1
v -2.4 1 -1.1
v -2.4 1.1 -1.1
v -2.3 1 -1.1
v -2.3 1.1 -1.1
v -2.3 1.2 -1.1
v -2.2 1.1 -1.1
v -2.2 1.2 -1.1
v -2.2 1.3 -1.1
v -1.3 1.1 -1.1
v -1.3 1.2 -1.1
v -1.3 1.3 -1.1
v -1.2 1 -1.1
v -1.2 1.1 -1.1
v -1.2 1.2 -1.1
v -1.1 0.8 -1.1
v -1.1 1 -1.1
v -1.1 1.1 -1.1
v -1 0.8 -1.1
v -1 1 -1.1
v -2.4 0.8 -1.2
v -2.4 1 -1.2
v -2.3 0.8 -1.2
v -2.3 1 -1.2
v -2.3 1.1 -1.2
v -2.2 1 -1.2
v -2.2 1.1 -1.2
v -2.2 1.2 -1.2
v -1.3 1 -1.2
v -1.3 1.1 -1.2
v -1.3 1.2 -1.2
v -1.2 0.8 -1.2
v -1.2 1 -1.2
v -1.2 1.1 -1.2
v -1.1 0.8 -1.2
v -1.1 1 -1.2
v -2.3 0.8 -1.3
v -2.3 1 -1.3
v -2.2 0.7 -1.3
v -2.2 0.8 -1.3
v -2.2 1 -1.3
v -2.2 1.1 -1.3
v -1.3 0.7 -1.3
v -1.3 0.8 -1.3
v -1.3 1 -1.3
v -1.3 1.1 -1.3
v -1.2 0.8 -1.3
v -1.2 1 -1.3
v -2.2 0.7 -1.2
v -1.3 0.7 -1.2
v -2.2 0.7 -1.3
v -1.3 0.7 -1.3
v -2.4 0.8 -0.5
v -2.2 0.8 -0.5
v -1.2 0.8 -0.5
v -1.1 0.8 -0.5
v -2.5 0.8 -0.7
v -2.4 0.8 -0.7
v -1.1 0.8 -0.7
v -1 0.8 -0.7
v -2.5 0.8 -1
v -2.4 0.8 -1
v -2.2 0.8 -1
v -1.2 0.8 -1
v -1.1 0.8 -1
v -1 0.8 -1
v -2.5 0.8 -1.1
v -2.4 0.8 -1.1
v -1.1 0.8 -1.1
v -1 0.8 -1.1
v -2.4 0.8 -1.2
v -2.3 0.8 -1.2
v -2.2 0.8 -1.2
v -1.3 0.8 -1.2
v -1.2 0.8 -1.2
v -1.1 0.8 -1.2
v -2.3 0.8 -1.3
v -2.2 0.8 -1.3
v -1.3 0.8 -1.3
v -1.2 0.8 -1.3
v -2.5 0.9 0.7
v -2.4 0.9 0.7
v -1.1 0.9 0.7
v -1 0.9 0.7
v -2.4 0.9 -0.5
v -1.1 0.9 -0.5
v -2.5 0.9 -0.6
v -2.4 0.9 -0.6
v -1.1 0.9 -0.6
v -1 0.9 -0.6
v -2.5 0.9 -0.7
v -2.4 0.9 -0.7
v -1.1 0.9 -0.7
v -1 0.9 -0.7
v -2.4 1 0.8
v -2.3 1 0.8
v -1.3 1 0.8
v -1.1 1 0.8
v -2.4 1 0.7
v -1.1 1 0.7
v -1.3 1 -0.3
v -1.2 1 -0.3
v -2.4 1 -0.5
v -2.3 1 -0.5
v -1.2 1 -0.5
v -1.1 1 -0.5
v -2.3 1.1 0.9
v -2.2 1.1 0.9
v -1.3 1.1 0.9
v -1.2 1.1 0.9
v -2.3 1.1 0.8
v -1.3 1.1 0.8
v -1.2 1.1 0.8
v -1.3 1.1 -0.3
v -1.2 1.1 -0.3
v -2.3 1.1 -0.4
v -2.2 1.1 -0.4
v -1.3 1.1 -0.4
v -1.2 1.1 -0.4
v -2.3 1.1 -0.5
v -2.2 1.1 -0.5
v -1.3 1.1 -0.5
v -1.2 1.1 -0.5
v -1.3 1.1 -0.7
v -1.2 1.1 -0.7
v -1.2 1.1 -0.8
v -2.2 1.1 -1
v -1.2 1.1 -1
v -2 1.2 1.2
v -1.5 1.2 1.2
v -2.1 1.2 1.1
v -2 1.2 1.1
v -1.5 1.2 1.1
v -1.4 1.2 1.1
v -2.2 1.2 1
v -2.1 1.2 1
v -1.4 1.2 1
v -1.3 1.2 1
v -2.2 1.2 0.9
v -1.3 1.2 0.9
v -2.1 1.2 0.6
v -1.9 1.2 0.6
v -1.6 1.2 0.6
v -1.4 1.2 0.6
v -2.2 1.2 0.5
v -2.1 1.2 0.5
v -1.9 1.2 0.5
v -1.7 1.2 0.5
v -1.6 1.2 0.5
v -1.4 1.2 0.5
v -1.3 1.2 0.5
v -2.2 1.2 0.3
v -2.1 1.2 0.3
v -1.9 1.2 0.3
v -1.7 1.2 0.3
v -1.6 1.2 0.3
v -1.4 1.2 0.3
v -1.3 1.2 0.3
v -2.1 1.2 0.2
v -1.9 1.2 0.2
v -1.8 1.2 0.2
v -1.7 1.2 0.2
v -1.6 1.2 0.2
v -1.4 1.2 0.2
v -1.3 1.2 0.2
v -2.1 1.2 0
v -1.9 1.2 0
v -1.8 1.2 0
v -1.7 1.2 0
v -1.6 1.2 0
v -1.4 1.2 0
v -1.3 1.2 0
v -2.1 1.2 -0.0999999
v -1.9 1.2 -0.0999999
v -1.6 1.2 -0.0999999
v -1.4 1.2 -0.0999999
v -2.1 1.2 -0.2
v -1.4 1.2 -0.2
v -2.2 1.2 -0.3
v -2.1 1.2 -0.3
v -1.4 1.2 -0.3
v -1.3 1.2 -0.3
v -2.2 1.2 -0.4
v -1.3 1.2 -0.4
v -2.2 1.2 -0.5
v -1.3 1.2 -0.5
v -2.5 1 0.7
v -2.4 1 0.7
v -1.1 1 0.7
v -1 1 0.7
v -2.4 1 -0.5
v -1.1 1 -0.5
v -2.5 1 -0.6
v -2.4 1 -0.6
v -1.1 1 -0.6
v -1 1 -0.6
v -2.4 1 -0.8
v -1.1 1 -0.8
v -2.5 1 -0.9
v -2.4 1 -0.9
v -1.1 1 -0.9
v -1 1 -0.9
v -2.5 1 -1.1
v -2.4 1 -1.1
v -2.3 1 -1.1
v -1.2 1 -1.1
v -1.1 1 -1.1
v -1 1 -1.1
v -2.4 1 -1.2
v -2.3 1 -1.2
v -2.2 1 -1.2
v -1.3 1 -1.2
v -1.2 1 -1.2
v -1.1 1 -1.2
v -2.3 1 -1.3
v -2.2 1 -1.3
v -1.3 1 -1.3
v -1.2 1 -1.3
v -2.4 1.1 0.8
v -2.3 1.1 0.8
v -1.2 1.1 0.8
v -1.1 1.1 0.8
v -2.3 1.1 -0.4
v -1.2 1.1 -0.4
v -2.4 1.1 -0.5
v -2.3 1.1 -0.5
v -1.2 1.1 -0.5
v -1.1 1.1 -0.5
v -2.3 1.1 -0.7
v -1.2 1.1 -0.7
v -2.4 1.1 -0.8
v -2.3 1.1 -0.8
v -1.2 1.1 -0.8
v -1.1 1.1 -0.8
v -2.4 1.1 -1.1
v -2.3 1.1 -1.1
v -2.2 1.1 -1.1
v -1.3 1.1 -1.1
v -1.2 1.1 -1.1
v -1.1 1.1 -1.1
v -2.3 1.1 -1.2
v -2.2 1.1 -1.2
v -1.3 1.1 -1.2
v -1.2 1.1 -1.2
v -2.2 1.1 -1.3
v -1.3 1.1 -1.3
v -2.3 1.2 0.9
v -2.2 1.2 0.9
v -1.3 1.2 0.9
v -1.2 1.2 0.9
v -2.2 1.2 0.5
v -1.3 1.2 0.5
v -2.2 1.2 0.3
v -1.3 1.2 0.3
v -1.3 1.2 0.2
v -1.3 1.2 0
v -2.2 1.2 -0.3
v -1.3 1.2 -0.3
v -2.3 1.2 -0.4
v -2.2 1.2 -0.4
v -1.3 1.2 -0.4
v -1.2 1.2 -0.4
v -2.2 1.2 -0.6
v -1.3 1.2 -0.6
v -2.3 1.2 -0.7
v -2.2 1.2 -0.7
v -1.3 1.2 -0.7
v -1.2 1.2 -0.7
v -2.3 1.2 -1.1
v -2.2 1.2 -1.1
v -1.3 1.2 -1.1
v -1.2 1.2 -1.1
v -2.2 1.2 -1.2
v -1.3 1.2 -1.2
v -2 1.3 1.2
v -1.5 1.3 1.2
v -2.1 1.3 1.1
v -2 1.3 1.1
v -1.5 1.3 1.1
v -1.4 1.3 1.1
v -2.2 1.3 1
v -2.1 1.3 1
v -1.4 1.3 1
v -1.3 1.3 1
v -2.1 1.3 0.6
v -1.9 1.3 0.6
v -1.6 1.3 0.6
v -1.4 1.3 0.6
v -2.2 1.3 0.5
v -2.1 1.3 0.5
v -1.9 1.3 0.5
v -1.7 1.3 0.5
v -1.6 1.3 0.5
v -1.4 1.3 0.5
v -1.3 1.3 0.5
v -2.2 1.3 0.3
v -2.1 1.3 0.3
v -1.9 1.3 0.3
v -1.7 1.3 0.3
v -1.6 1.3 0.3
v -1.4 1.3 0.3
v -1.3 1.3 0.3
v -2.1 1.3 0.2
v -1.9 1.3 0.2
v -1.8 1.3 0.2
v -1.7 1.3 0.2
v -1.6 1.3 0.2
v -1.4 1.3 0.2
v -1.3 1.3 0.2
v -2.1 1.3 0
v -1.9 1.3 0
v -1.8 1.3 0
v -1.7 1.3 0
v -1.6 1.3 0
v -1.4 1.3 0
v -1.3 1.3 0
v -2.1 1.3 -0.0999999
v -1.9 1.3 -0.0999999
v -1.6 1.3 -0.0999999
v -1.4 1.3 -0.0999999
v -2.1 1.3 -0.2
v -1.4 1.3 -0.2
v -2.2 1.3 -0.3
v -2.1 1.3 -0.3
v -1.4 1.3 -0.3
v -1.3 1.3 -0.3
v -2.1 1.3 -0.5
v -1.4 1.3 -0.5
v -2.2 1.3 -0.6
v -2.1 1.3 -0.6
v -1.4 1.3 -0.6
v -1.3 1.3 -0.6
v -2.1 1.3 -0.7
v -1.9 1.3 -0.7
v -1.7 1.3 -0.7
v -1.4 1.3 -0.7
v -1.7 1.3 -0.8
v -1.4 1.3 -0.8
v -1.6 1.3 -0.9
v -1.4 1.3 -0.9
v -2.1 1.3 -1
v -1.9 1.3 -1
v -1.6 1.3 -1
v -1.4 1.3 -1
v -2.2 1.3 -1.1
v -1.3 1.3 -1.1

# faces
f 6/2/1 2/2/1 1/2/1
f 7/2/1 2/2/1 6/2/1
f 8/3/1 3/3/1 2/3/1
f 8/2/1 2/2/1 7/2/1
f 9/3/1 5/3/1 4/3/1
f 10/2/1 7/2/1 6/2/1
f 10/3/1 5/3/1 9/3/1
f 10/2/1 6/2/1 5/2/1
f 11/3/1 8/3/1 7/3/1
f 11/2/1 7/2/1 10/2/1
f 12/3/1 3/3/1 8/3/1
f 12/3/1 8/3/1 11/3/1
f 17/3/1 14/3/1 13/3/1
f 18/3/1 14/3/1 17/3/1
f 19/3/1 14/3/1 18/3/1
f 26/3/1 16/3/1 15/3/1
f 27/3/1 16/3/1 26/3/1
f 28/3/1 21/3/1 20/3/1
f 28/3/1 22/3/1 21/3/1
f 29/2/1 23/2/1 22/2/1
f 29/3/1 22/3/1 28/3/1
f 29/2/1 24/2/1 23/2/1
f 30/3/1 25/3/1 24/3/1
f 30/2/1 24/2/1 29/2/1
f 30/3/1 26/3/1 25/3/1
f 31/3/1 26/3/1 30/3/1
f 35/3/1 33/3/1 32/3/1
f 36/3/1 33/3/1 35/3/1
f 43/3/1 35/3/1 34/3/1
f 44/3/1 35/3/1 43/3/1
f 45/3/1 38/3/1 37/3/1
f 45/3/1 39/3/1 38/3/1
f 46/2/1 40/2/1 39/2/1
f 46/3/1 39/3/1 45/3/1
f 46/2/1 41/2/1 40/2/1
f 47/3/1 42/3/1 41/3/1
f 47/2/1 41/2/1 46/2/1
f 47/3/1 43/3/1 42/3/1
f 48/3/1 43/3/1 47/3/1
f 51/3/1 50/3/1 49/3/1
f 52/3/1 50/3/1 51/3/1
f 56/3/1 54/3/1 53/3/1
f 57/3/1 54/3/1 56/3/1
f 66/3/1 56/3/1 55/3/1
f 67/3/1 56/3/1 66/3/1
f 68/3/1 59/3/1 58/3/1
f 68/3/1 60/3/1 59/3/1
f 69/1/1 61/1/1 60/1/1
f 69/3/1 60/3/1 68/3/1
f 70/3/1 62/3/1 61/3/1
f 70/1/1 61/1/1 69/1/1
f 71/2/1 63/2/1 62/2/1
f 71/3/1 62/3/1 70/3/1
f 71/2/1 64/2/1 63/2/1
f 72/3/1 65/3/1 64/3/1
f 72/2/1 64/2/1 71/2/1
f 72/3/1 66/3/1 65/3/1
f 73/3/1 66/3/1 72/3/1
f 76/3/1 75/3/1 74/3/1
f 77/3/1 75/3/1 76/3/1
f 80/3/1 79/3/1 78/3/1
f 81/3/1 79/3/1 80/3/1
f 85/3/1 83/3/1 82/3/1
f 86/3/1 83/3/1 85/3/1
f 89/3/1 85/3/1 84/3/1
f 89/3/1 86/3/1 85/3/1
f 89/3/1 87/3/1 86/3/1
f 90/3/1 87/3/1 89/3/1
f 91/3/1 87/3/1 90/3/1
f 92/3/1 87/3/1 91/3/1
f 93/3/1 87/3/1 92/3/1
f 94/3/1 87/3/1 93/3/1
f 95/2/1 88/2/1 87/2/1
f 95/3/1 87/3/1 94/3/1
f 96/2/1 88/2/1 95/2/1
f 100/3/1 98/3/1 97/3/1
f 101/3/1 98/3/1 100/3/1
f 102/3/1 100/3/1 99/3/1
f 103/3/1 100/3/1 102/3/1
f 104/2/1 101/2/1 100/2/1
f 104/3/1 100/3/1 103/3/1
f 105/2/1 101/2/1 104/2/1
f 106/3/1 98/3/1 101/3/1
f 106/2/1 101/2/1 105/2/1
f 107/3/1 98/3/1 106/3/1
f 110/3/1 109/3/1 108/3/1
f 111/3/1 109/3/1 110/3/1
f 112/3/2 113/3/2 114/3/2
f 114/3/2 113/3/2 115/3/2
f 116/3/2 117/3/2 118/3/2
f 118/3/2 117/3/2 119/3/2
f 119/3/2 117/3/2 120/3/2
f 121/3/2 122/3/2 125/3/2
f 125/3/2 122/3/2 126/3/2
f 123/3/2 124/3/2 127/3/2
f 127/3/2 124/3/2 128/3/2
f 128/3/2 124/3/2 129/3/2
f 129/3/2 124/3/2 130/3/2
f 124/2/2 125/2/2 131/2/2
f 130/3/2 124/3/2 131/3/2
f 131/2/2 125/2/2 132/2/2
f 133/3/2 134/3/2 135/3/2
f 135/3/2 134/3/2 136/3/2
f 137/3/2 138/3/2 139/3/2
f 139/3/2 138/3/2 140/3/2
f 141/3/2 142/3/2 143/3/2
f 143/3/2 142/3/2 144/3/2
f 145/3/2 146/3/2 148/3/2
f 148/3/2 146/3/2 149/3/2
f 147/3/2 148/3/2 160/3/2
f 160/3/2 148/3/2 161/3/2
f 150/3/2 151/3/2 162/3/2
f 151/3/2 152/3/2 162/3/2
f 152/1/2 153/1/2 163/1/2
f 162/3/2 152/3/2 163/3/2
f 153/3/2 154/3/2 164/3/2
f 163/1/2 153/1/2 164/1/2
f 154/1/2 155/1/2 165/1/2
f 164/3/2 154/3/2 165/3/2
f 155/3/2 156/3/2 166/3/2
f 165/1/2 155/1/2 166/1/2
f 156/2/2 157/2/2 167/2/2
f 166/3/2 156/3/2 167/3/2
f 157/2/2 158/2/2 167/2/2
f 158/3/2 159/3/2 168/3/2
f 167/2/2 158/2/2 168/2/2
f 159/3/2 160/3/2 168/3/2
f 168/3/2 160/3/2 169/3/2
f 170/3/2 171/3/2 173/3/2
f 173/3/2 171/3/2 174/3/2
f 172/3/2 173/3/2 181/3/2
f 181/3/2 173/3/2 182/3/2
f 175/3/2 176/3/2 183/3/2
f 176/3/2 177/3/2 183/3/2
f 177/2/2 178/2/2 184/2/2
f 183/3/2 177/3/2 184/3/2
f 178/2/2 179/2/2 184/2/2
f 179/3/2 180/3/2 185/3/2
f 184/2/2 179/2/2 185/2/2
f 180/3/2 181/3/2 185/3/2
f 185/3/2 181/3/2 186/3/2
f 187/3/2 188/3/2 191/3/2
f 191/3/2 188/3/2 192/3/2
f 192/3/2 188/3/2 193/3/2
f 189/3/2 190/3/2 200/3/2
f 200/3/2 190/3/2 201/3/2
f 194/3/2 195/3/2 202/3/2
f 195/3/2 196/3/2 202/3/2
f 196/2/2 197/2/2 203/2/2
f 202/3/2 196/3/2 203/3/2
f 197/2/2 198/2/2 203/2/2
f 198/3/2 199/3/2 204/3/2
f 203/2/2 198/2/2 204/2/2
f 199/3/2 200/3/2 204/3/2
f 204/3/2 200/3/2 205/3/2
f 206/2/2 207/2/2 211/2/2
f 211/2/2 207/2/2 212/2/2
f 207/3/2 208/3/2 213/3/2
f 212/2/2 207/2/2 213/2/2
f 209/3/2 210/3/2 214/3/2
f 211/2/2 212/2/2 215/2/2
f 214/3/2 210/3/2 215/3/2
f 210/2/2 211/2/2 215/2/2
f 212/3/2 213/3/2 216/3/2
f 215/2/2 212/2/2 216/2/2
f 213/3/2 208/3/2 217/3/2
f 216/3/2 213/3/2 217/3/2
f 220/3/3 219/3/3 218/3/3
f 221/3/3 219/3/3 220/3/3
f 224/3/3 223/3/3 222/3/3
f 225/3/3 223/3/3 224/3/3
f 228/3/3 227/3/3 226/3/3
f 229/3/3 227/3/3 228/3/3
f 232/3/3 231/3/3 230/3/3
f 233/3/3 231/3/3 232/3/3
f 236/3/3 235/3/3 234/3/3
f 237/3/3 235/3/3 236/3/3
f 240/3/3 239/3/3 238/3/3
f 241/3/3 239/3/3 240/3/3
f 244/3/3 243/3/3 242/3/3
f 245/3/3 243/3/3 244/3/3
f 248/3/3 247/3/3 246/3/3
f 249/3/3 247/3/3 248/3/3
f 252/3/3 251/3/3 250/3/3
f 253/3/3 252/3/3 250/3/3
f 254/3/3 252/3/3 253/3/3
f 257/3/3 256/3/3 255/3/3
f 258/3/3 256/3/3 257/3/3
f 261/3/3 260/3/3 259/3/3
f 262/3/3 260/3/3 261/3/3
f 266/3/3 264/3/3 263/3/3
f 266/3/3 265/3/3 264/3/3
f 268/3/3 266/3/3 263/3/3
f 268/3/3 267/3/3 266/3/3
f 269/3/3 267/3/3 268/3/3
f 271/3/3 270/3/3 269/3/3
f 272/3/3 270/3/3 271/3/3
f 275/3/3 274/3/3 273/3/3
f 276/3/3 274/3/3 275/3/3
f 277/3/3 274/3/3 276/3/3
f 280/2/3 279/2/3 278/2/3
f 281/2/3 279/2/3 280/2/3
f 284/2/3 283/2/3 282/2/3
f 285/2/3 283/2/3 284/2/3
f 288/3/3 287/3/3 286/3/3
f 289/3/3 287/3/3 288/3/3
f 292/3/3 291/3/3 290/3/3
f 293/3/3 291/3/3 292/3/3
f 294/3/4 295/3/4 296/3/4
f 296/3/4 295/3/4 297/3/4
f 298/3/4 299/3/4 300/3/4
f 300/3/4 299/3/4 301/3/4
f 301/3/4 302/3/4 303/3/4
f 303/3/4 302/3/4 304/3/4
f 304/3/4 305/3/4 306/3/4
f 306/3/4 305/3/4 307/3/4
f 307/3/4 308/3/4 310/3/4
f 310/3/4 308/3/4 311/3/4
f 309/3/4 310/3/4 313/3/4
f 313/3/4 310/3/4 314/3/4
f 312/3/4 313/3/4 316/3/4
f 316/3/4 313/3/4 317/3/4
f 315/3/4 316/3/4 318/3/4
f 318/3/4 316/3/4 319/3/4
f 320/3/4 321/3/4 322/3/4
f 322/3/4 321/3/4 323/3/4
f 323/3/4 324/3/4 325/3/4
f 325/3/4 324/3/4 326/3/4
f 326/3/4 327/3/4 329/3/4
f 329/3/4 327/3/4 330/3/4
f 328/3/4 329/3/4 332/3/4
f 332/3/4 329/3/4 333/3/4
f 331/3/4 332/3/4 334/3/4
f 334/3/4 332/3/4 335/3/4
f 336/3/4 337/3/4 339/3/4
f 339/3/4 337/3/4 340/3/4
f 338/3/4 339/3/4 342/3/4
f 340/3/4 341/3/4 342/3/4
f 339/3/4 340/3/4 342/3/4
f 342/3/4 341/3/4 343/3/4
f 343/3/4 341/3/4 344/3/4
f 344/3/4 341/3/4 345/3/4
f 343/3/4 344/3/4 346/3/4
f 346/3/4 344/3/4 347/3/4
f 350/3/5 349/3/5 348/3/5
f 351/3/5 349/3/5 350/3/5
f 357/3/5 353/3/5 352/3/5
f 358/3/5 355/3/5 354/3/5
f 360/2/5 357/2/5 356/2/5
f 361/3/5 353/3/5 357/3/5
f 361/2/5 357/2/5 360/2/5
f 362/3/5 353/3/5 361/3/5
f 363/3/5 358/3/5 354/3/5
f 364/2/5 359/2/5 358/2/5
f 364/3/5 358/3/5 363/3/5
f 365/2/5 359/2/5 364/2/5
f 366/3/5 363/3/5 362/3/5
f 366/3/5 362/3/5 361/3/5
f 366/3/5 365/3/5 364/3/5
f 366/3/5 364/3/5 363/3/5
f 366/3/5 361/3/5 360/3/5
f 367/3/5 365/3/5 366/3/5
f 368/3/5 365/3/5 367/3/5
f 369/3/5 365/3/5 368/3/5
f 370/3/5 368/3/5 367/3/5
f 371/3/5 368/3/5 370/3/5
f 372/3/5 368/3/5 371/3/5
f 373/3/5 368/3/5 372/3/5
f 374/3/5 368/3/5 373/3/5
f 375/3/5 368/3/5 374/3/5
f 376/3/5 372/3/5 371/3/5
f 377/3/5 372/3/5 376/3/5
f 378/3/5 374/3/5 373/3/5
f 379/3/5 374/3/5 378/3/5
f 384/3/5 381/3/5 380/3/5
f 385/3/5 383/3/5 382/3/5
f 386/3/5 384/3/5 380/3/5
f 387/3/5 384/3/5 386/3/5
f 388/3/5 383/3/5 385/3/5
f 389/3/5 383/3/5 388/3/5
f 390/2/5 387/2/5 386/2/5
f 391/2/5 387/2/5 390/2/5
f 392/2/5 389/2/5 388/2/5
f 393/2/5 389/2/5 392/2/5
f 398/3/5 395/3/5 394/3/5
f 399/3/5 397/3/5 396/3/5
f 400/3/5 399/3/5 396/3/5
f 401/3/5 399/3/5 400/3/5
f 402/3/5 395/3/5 398/3/5
f 403/3/5 395/3/5 402/3/5
f 404/3/5 399/3/5 401/3/5
f 405/3/5 399/3/5 404/3/5
f 410/3/5 407/3/5 406/3/5
f 411/3/5 409/3/5 408/3/5
f 412/3/5 409/3/5 411/3/5
f 415/3/5 407/3/5 410/3/5
f 416/3/5 407/3/5 415/3/5
f 417/3/5 414/3/5 413/3/5
f 418/3/5 414/3/5 417/3/5
f 419/2/5 416/2/5 415/2/5
f 420/2/5 416/2/5 419/2/5
f 421/2/5 418/2/5 417/2/5
f 422/2/5 418/2/5 421/2/5
f 423/3/5 421/3/5 420/3/5
f 423/2/5 422/2/5 421/2/5
f 424/2/5 422/2/5 423/2/5
f 425/3/5 424/3/5 423/3/5
f 426/3/5 423/3/5 420/3/5
f 426/3/5 425/3/5 423/3/5
f 427/3/5 425/3/5 426/3/5
f 431/3/5 429/3/5 428/3/5
f 432/3/5 429/3/5 431/3/5
f 435/3/5 431/3/5 430/3/5
f 435/3/5 433/3/5 432/3/5
f 435/3/5 432/3/5 431/3/5
f 436/3/5 433/3/5 435/3/5
f 438/3/5 435/3/5 434/3/5
f 438/3/5 437/3/5 436/3/5
f 438/3/5 436/3/5 435/3/5
f 439/3/5 437/3/5 438/3/5
f 440/3/5 439/3/5 438/3/5
f 441/3/5 439/3/5 440/3/5
f 442/3/5 439/3/5 441/3/5
f 443/3/5 439/3/5 442/3/5
f 444/3/5 440/3/5 438/3/5
f 445/1/5 441/1/5 440/1/5
f 445/3/5 440/3/5 444/3/5
f 446/3/5 442/3/5 441/3/5
f 446/1/5 441/1/5 445/1/5
f 447/3/5 442/3/5 446/3/5
f 448/1/5 443/1/5 442/1/5
f 448/3/5 442/3/5 447/3/5
f 449/3/5 439/3/5 443/3/5
f 449/1/5 443/1/5 448/1/5
f 450/3/5 439/3/5 449/3/5
f 451/1/5 445/1/5 444/1/5
f 452/3/5 447/3/5 446/3/5
f 452/1/5 445/1/5 451/1/5
f 452/3/5 446/3/5 445/3/5
f 453/3/5 447/3/5 452/3/5
f 454/1/5 448/1/5 447/1/5
f 454/3/5 447/3/5 453/3/5
f 455/3/5 449/3/5 448/3/5
f 455/1/5 448/1/5 454/1/5
f 456/1/5 450/1/5 449/1/5
f 456/3/5 449/3/5 455/3/5
f 457/1/5 450/1/5 456/1/5
f 458/1/5 453/1/5 452/1/5
f 458/3/5 452/3/5 451/3/5
f 459/3/5 455/3/5 454/3/5
f 459/1/5 453/1/5 458/1/5
f 459/3/5 454/3/5 453/3/5
f 459/3/5 456/3/5 455/3/5
f 459/3/5 457/3/5 456/3/5
f 460/3/5 457/3/5 459/3/5
f 461/3/5 457/3/5 460/3/5
f 462/3/5 457/3/5 461/3/5
f 463/3/5 457/3/5 462/3/5
f 464/3/5 457/3/5 463/3/5
f 465/3/5 458/3/5 451/3/5
f 465/3/5 459/3/5 458/3/5
f 466/1/5 460/1/5 459/1/5
f 466/3/5 459/3/5 465/3/5
f 467/3/5 461/3/5 460/3/5
f 467/1/5 460/1/5 466/1/5
f 468/1/5 462/1/5 461/1/5
f 468/3/5 461/3/5 467/3/5
f 469/3/5 463/3/5 462/3/5
f 469/1/5 462/1/5 468/1/5
f 470/1/5 464/1/5 463/1/5
f 470/3/5 463/3/5 469/3/5
f 471/1/5 464/1/5 470/1/5
f 472/3/5 465/3/5 451/3/5
f 472/1/5 466/1/5 465/1/5
f 473/3/5 469/3/5 468/3/5
f 473/1/5 466/1/5 472/1/5
f 473/3/5 467/3/5 466/3/5
f 473/3/5 468/3/5 467/3/5
f 474/1/5 470/1/5 469/1/5
f 474/3/5 469/3/5 473/3/5
f 475/3/5 471/3/5 470/3/5
f 475/1/5 470/1/5 474/1/5
f 476/3/5 472/3/5 451/3/5
f 476/3/5 474/3/5 473/3/5
f 476/3/5 475/3/5 474/3/5
f 476/3/5 473/3/5 472/3/5
f 477/3/5 471/3/5 475/3/5
f 477/3/5 475/3/5 476/3/5
f 478/3/5 476/3/5 451/3/5
f 479/2/5 477/2/5 476/2/5
f 479/3/5 476/3/5 478/3/5
f 480/3/5 471/3/5 477/3/5
f 480/2/5 477/2/5 479/2/5
f 481/3/5 471/3/5 480/3/5
f 482/2/5 479/2/5 478/2/5
f 482/2/5 480/2/5 479/2/5
f 482/2/5 481/2/5 480/2/5
f 483/2/5 481/2/5 482/2/5
f 484/2/5 483/2/5 482/2/5
f 485/2/5 483/2/5 484/2/5
f 486/3/6 487/3/6 490/3/6
f 488/3/6 489/3/6 491/3/6
f 486/3/6 490/3/6 492/3/6
f 492/3/6 490/3/6 493/3/6
f 491/3/6 489/3/6 494/3/6
f 494/3/6 489/3/6 495/3/6
f 492/2/6 493/2/6 496/2/6
f 494/2/6 495/2/6 497/2/6
f 492/2/6 496/2/6 498/2/6
f 498/2/6 496/2/6 499/2/6
f 497/2/6 495/2/6 500/2/6
f 500/2/6 495/2/6 501/2/6
f 498/3/6 499/3/6 502/3/6
f 502/3/6 499/3/6 503/3/6
f 500/3/6 501/3/6 506/3/6
f 506/3/6 501/3/6 507/3/6
f 503/3/6 504/3/6 508/3/6
f 508/3/6 504/3/6 509/3/6
f 505/3/6 506/3/6 512/3/6
f 512/3/6 506/3/6 513/3/6
f 509/3/6 510/3/6 514/3/6
f 514/3/6 510/3/6 515/3/6
f 511/3/6 512/3/6 516/3/6
f 516/3/6 512/3/6 517/3/6
f 518/3/6 519/3/6 522/3/6
f 520/3/6 521/3/6 523/3/6
f 518/3/6 522/3/6 524/3/6
f 524/3/6 522/3/6 525/3/6
f 523/3/6 521/3/6 526/3/6
f 526/3/6 521/3/6 527/3/6
f 524/2/6 525/2/6 528/2/6
f 526/2/6 527/2/6 529/2/6
f 524/2/6 528/2/6 530/2/6
f 530/2/6 528/2/6 531/2/6
f 529/2/6 527/2/6 532/2/6
f 532/2/6 527/2/6 533/2/6
f 530/3/6 531/3/6 534/3/6
f 534/3/6 531/3/6 535/3/6
f 532/3/6 533/3/6 538/3/6
f 538/3/6 533/3/6 539/3/6
f 535/3/6 536/3/6 540/3/6
f 540/3/6 536/3/6 541/3/6
f 537/3/6 538/3/6 542/3/6
f 542/3/6 538/3/6 543/3/6
f 541/3/6 542/3/6 544/3/6
f 544/3/6 542/3/6 545/3/6
f 546/3/6 547/3/6 550/3/6
f 548/3/6 549/3/6 551/3/6
f 546/3/6 550/3/6 552/3/6
f 551/3/6 549/3/6 553/3/6
f 553/3/6 549/3/6 554/3/6
f 554/3/6 549/3/6 555/3/6
f 546/3/6 552/3/6 556/3/6
f 555/3/6 549/3/6 557/3/6
f 546/3/6 556/3/6 558/3/6
f 558/3/6 556/3/6 559/3/6
f 557/3/6 549/3/6 560/3/6
f 560/3/6 549/3/6 561/3/6
f 558/2/6 559/2/6 562/2/6
f 560/2/6 561/2/6 563/2/6
f 558/2/6 562/2/6 564/2/6
f 564/2/6 562/2/6 565/2/6
f 563/2/6 561/2/6 566/2/6
f 566/2/6 561/2/6 567/2/6
f 564/3/6 565/3/6 568/3/6
f 568/3/6 565/3/6 569/3/6
f 566/3/6 567/3/6 570/3/6
f 570/3/6 567/3/6 571/3/6
f 569/3/6 570/3/6 572/3/6
f 572/3/6 570/3/6 573/3/6
f 574/3/6 575/3/6 577/3/6
f 577/3/6 575/3/6 578/3/6
f 576/3/6 577/3/6 581/3/6
f 578/3/6 579/3/6 581/3/6
f 577/3/6 578/3/6 581/3/6
f 581/3/6 579/3/6 582/3/6
f 580/3/6 581/3/6 584/3/6
f 582/3/6 583/3/6 584/3/6
f 581/3/6 582/3/6 584/3/6
f 584/3/6 583/3/6 585/3/6
f 585/3/6 583/3/6 586/3/6
f 586/3/6 583/3/6 587/3/6
f 580/3/6 584/3/6 588/3/6
f 584/1/6 585/1/6 589/1/6
f 588/3/6 584/3/6 589/3/6
f 585/3/6 586/3/6 590/3/6
f 589/1/6 585/1/6 590/1/6
f 590/3/6 586/3/6 591/3/6
f 586/1/6 587/1/6 592/1/6
f 591/3/6 586/3/6 592/3/6
f 587/3/6 583/3/6 593/3/6
f 592/1/6 587/1/6 593/1/6
f 593/3/6 583/3/6 594/3/6
f 588/1/6 589/1/6 595/1/6
f 590/3/6 591/3/6 596/3/6
f 595/1/6 589/1/6 596/1/6
f 589/3/6 590/3/6 596/3/6
f 596/3/6 591/3/6 597/3/6
f 591/1/6 592/1/6 598/1/6
f 597/3/6 591/3/6 598/3/6
f 592/3/6 593/3/6 599/3/6
f 598/1/6 592/1/6 599/1/6
f 593/1/6 594/1/6 600/1/6
f 599/3/6 593/3/6 600/3/6
f 600/1/6 594/1/6 601/1/6
f 596/1/6 597/1/6 602/1/6
f 595/3/6 596/3/6 602/3/6
f 598/3/6 599/3/6 603/3/6
f 602/1/6 597/1/6 603/1/6
f 597/3/6 598/3/6 603/3/6
f 599/3/6 600/3/6 603/3/6
f 600/3/6 601/3/6 603/3/6
f 603/3/6 601/3/6 604/3/6
f 604/3/6 601/3/6 605/3/6
f 605/3/6 601/3/6 606/3/6
f 606/3/6 601/3/6 607/3/6
f 607/3/6 601/3/6 608/3/6
f 595/3/6 602/3/6 609/3/6
f 602/3/6 603/3/6 609/3/6
f 603/1/6 604/1/6 610/1/6
f 609/3/6 603/3/6 610/3/6
f 604/3/6 605/3/6 611/3/6
f 610/1/6 604/1/6 611/1/6
f 605/1/6 606/1/6 612/1/6
f 611/3/6 605/3/6 612/3/6
f 606/3/6 607/3/6 613/3/6
f 612/1/6 606/1/6 613/1/6
f 607/1/6 608/1/6 614/1/6
f 613/3/6 607/3/6 614/3/6
f 614/1/6 608/1/6 615/1/6
f 595/3/6 609/3/6 616/3/6
f 609/1/6 610/1/6 616/1/6
f 612/3/6 613/3/6 617/3/6
f 616/1/6 610/1/6 617/1/6
f 610/3/6 611/3/6 617/3/6
f 611/3/6 612/3/6 617/3/6
f 613/1/6 614/1/6 618/1/6
f 617/3/6 613/3/6 618/3/6
f 614/3/6 615/3/6 619/3/6
f 618/1/6 614/1/6 619/1/6
f 595/3/6 616/3/6 620/3/6
f 617/3/6 618/3/6 620/3/6
f 618/3/6 619/3/6 620/3/6
f 616/3/6 617/3/6 620/3/6
f 619/3/6 615/3/6 621/3/6
f 620/3/6 619/3/6 621/3/6
f 595/3/6 620/3/6 622/3/6
f 620/2/6 621/2/6 623/2/6
f 622/3/6 620/3/6 623/3/6
f 621/3/6 615/3/6 624/3/6
f 623/2/6 621/2/6 624/2/6
f 624/3/6 615/3/6 625/3/6
f 622/2/6 623/2/6 626/2/6
f 623/2/6 624/2/6 626/2/6
f 624/2/6 625/2/6 626/2/6
f 626/2/6 625/2/6 627/2/6
f 622/2/6 626/2/6 628/2/6
f 626/3/6 627/3/6 629/3/6
f 628/2/6 626/2/6 629/2/6
f 627/2/6 625/2/6 630/2/6
f 629/3/6 627/3/6 630/3/6
f 630/2/6 625/2/6 631/2/6
f 628/3/6 629/3/6 632/3/6
f 629/3/6 630/3/6 632/3/6
f 630/3/6 631/3/6 632/3/6
f 632/3/6 631/3/6 633/3/6
f 633/3/6 631/3/6 634/3/6
f 634/3/6 631/3/6 635/3/6
f 633/3/6 634/3/6 636/3/6
f 634/1/6 635/1/6 636/1/6
f 635/3/6 631/3/6 637/3/6
f 636/1/6 635/1/6 637/1/6
f 636/3/6 637/3/6 638/3/6
f 637/3/6 631/3/6 639/3/6
f 638/3/6 637/3/6 639/3/6
f 628/3/6 632/3/6 640/3/6
f 632/1/6 633/1/6 640/1/6
f 633/3/6 636/3/6 641/3/6
f 640/1/6 633/1/6 641/1/6
f 636/3/6 638/3/6 641/3/6
f 638/1/6 639/1/6 642/1/6
f 641/3/6 638/3/6 642/3/6
f 639/3/6 631/3/6 643/3/6
f 642/1/6 639/1/6 643/1/6
f 641/3/6 642/3/6 644/3/6
f 640/3/6 641/3/6 644/3/6
f 642/3/6 643/3/6 644/3/6
f 628/3/6 640/3/6 644/3/6
f 643/3/6 631/3/6 645/3/6
f 644/3/6 643/3/6 645/3/6
