# MagicaVoxel @ Ephtracy

# group
o 

# material
mtllib Prototype_boss_animation-3.mtl
usemtl palette

# normals
vn -1 0 0
vn 1 0 0
vn 0 0 1
vn 0 0 -1
vn 0 -1 0
vn 0 1 0

# texcoords
vt 0.470703 0.5
vt 0.474609 0.5

# verts
v -0.2 0 -0.2
v -0.2 0 -0.6
v -0.2 0.3 -0.2
v -0.2 0.3 -0.6
v -0.1 0 -0.1
v -0.1 0 -0.2
v -0.1 0 -0.6
v -0.1 0 -0.7
v -0.1 0.2 -0.1
v -0.1 0.2 -0.2
v -0.1 0.3 -0.1
v -0.1 0.3 -0.2
v -0.1 0.3 -0.6
v -0.1 0.3 -0.7
v -0.1 0.4 -0.2
v -0.1 0.4 -0.3
v -0.1 0.5 -0.1
v -0.1 0.5 -0.2
v -0.1 0.5 -0.3
v -0.1 0.5 -0.4
v -0.1 0.7 -0.2
v -0.1 0.7 -0.3
v -0.1 0.7 -0.4
v -0.1 0.7 -0.6
v 0 0 0.1
v 0 0 -0.1
v 0 0 -0.7
v 0 0 -0.8
v 0 0.2 0.1
v 0 0.2 0
v 0 0.2 -0.1
v 0 0.3 0
v 0 0.3 -0.1
v 0 0.3 -0.6
v 0 0.3 -0.7
v 0 0.3 -0.8
v 0 0.4 0
v 0 0.4 -0.1
v 0 0.7 -0.2
v 0 0.7 -0.3
v 0 0.7 -0.4
v 0 0.7 -0.5
v 0 0.7 -0.6
v 0 0.8 -0.2
v 0 0.8 -0.3
v 0 0.8 -0.5
v 0 0.8 -0.7
v 0.1 0.8 -0.2
v 0.1 0.8 -0.3
v 0.1 0.8 -0.4
v 0.1 0.8 -0.5
v 0.1 0.8 -0.7
v 0.1 0.9 -0.2
v 0.1 0.9 -0.4
v 0.1 0.9 -0.5
v 0.1 0.9 -0.7
v 0.2 0.9 -0.2
v 0.2 0.9 -0.4
v 0.2 0.9 -0.5
v 0.2 0.9 -0.7
v 0.2 1 -0.2
v 0.2 1 -0.4
v 0.2 1 -0.5
v 0.2 1 -0.7
v 0.2 0 0.1
v 0.2 0 -0.1
v 0.2 0 -0.7
v 0.2 0 -0.8
v 0.2 0.2 0.1
v 0.2 0.2 0
v 0.2 0.3 -0.6
v 0.2 0.3 -0.7
v 0.2 0.3 -0.8
v 0.2 0.4 0
v 0.2 0.4 -0.1
v 0.2 0.4 -0.6
v 0.2 0.9 -0.6
v 0.2 0.9 -0.7
v 0.3 0 -0.1
v 0.3 0 -0.2
v 0.3 0 -0.6
v 0.3 0 -0.7
v 0.3 0.2 -0.2
v 0.3 0.2 -0.6
v 0.3 0.3 -0.2
v 0.3 0.3 -0.4
v 0.3 0.3 -0.6
v 0.3 0.3 -0.7
v 0.3 0.4 -0.1
v 0.3 0.4 -0.4
v 0.3 0.4 -0.6
v 0.3 0.5 -0.1
v 0.3 0.5 -0.2
v 0.3 0.5 -0.3
v 0.3 0.5 -0.4
v 0.3 0.7 -0.2
v 0.3 0.7 -0.3
v 0.3 0.8 -0.2
v 0.3 0.8 -0.6
v 0.4 0 -0.2
v 0.4 0 -0.6
v 0.4 0.2 -0.2
v 0.4 0.2 -0.6
v 0.4 0.3 -0.2
v 0.4 0.3 -0.6
v 0.4 0.8 -0.2
v 0.4 0.8 -0.6
v 0.4 0.9 -0.2
v 0.4 0.9 -0.6
v 0.5 0.9 -0.2
v 0.5 0.9 -0.7
v 0.5 1 -0.2
v 0.5 1 -0.7
v 0 0 0.1
v 0 0.2 0.1
v 0.2 0 0.1
v 0.2 0.2 0.1
v 0 0.2 0
v 0 0.3 0
v 0 0.4 0
v 0.1 0.3 0
v 0.1 0.4 0
v 0.2 0.2 0
v 0.2 0.4 0
v -0.1 0 -0.1
v -0.1 0.2 -0.1
v -0.1 0.3 -0.1
v -0.1 0.5 -0.1
v 0 0 -0.1
v 0 0.2 -0.1
v 0 0.3 -0.1
v 0 0.4 -0.1
v 0 0.5 -0.1
v 0.1 0.4 -0.1
v 0.1 0.5 -0.1
v 0.2 0 -0.1
v 0.2 0.4 -0.1
v 0.2 0.5 -0.1
v 0.3 0 -0.1
v 0.3 0.4 -0.1
v 0.3 0.5 -0.1
v -0.2 0 -0.2
v -0.2 0.3 -0.2
v -0.1 0 -0.2
v -0.1 0.2 -0.2
v -0.1 0.3 -0.2
v -0.1 0.5 -0.2
v -0.1 0.7 -0.2
v 0 0.5 -0.2
v 0 0.6 -0.2
v 0 0.7 -0.2
v 0 0.8 -0.2
v 0.1 0.5 -0.2
v 0.1 0.6 -0.2
v 0.1 0.8 -0.2
v 0.1 0.9 -0.2
v 0.2 0.5 -0.2
v 0.2 0.6 -0.2
v 0.2 0.7 -0.2
v 0.2 0.8 -0.2
v 0.2 0.9 -0.2
v 0.2 1 -0.2
v 0.3 0 -0.2
v 0.3 0.2 -0.2
v 0.3 0.3 -0.2
v 0.3 0.5 -0.2
v 0.3 0.7 -0.2
v 0.3 0.8 -0.2
v 0.4 0 -0.2
v 0.4 0.2 -0.2
v 0.4 0.3 -0.2
v 0.4 0.8 -0.2
v 0.4 0.9 -0.2
v 0.5 0.9 -0.2
v 0.5 1 -0.2
v -0.2 0 -0.6
v -0.2 0.3 -0.6
v -0.1 0 -0.6
v -0.1 0.3 -0.6
v -0.1 0.7 -0.6
v 0 0.3 -0.6
v 0 0.7 -0.6
v 0.2 0.3 -0.6
v 0.2 0.4 -0.6
v 0.2 0.9 -0.6
v 0.3 0 -0.6
v 0.3 0.2 -0.6
v 0.3 0.3 -0.6
v 0.3 0.4 -0.6
v 0.3 0.8 -0.6
v 0.4 0 -0.6
v 0.4 0.2 -0.6
v 0.4 0.3 -0.6
v 0.4 0.8 -0.6
v 0.4 0.9 -0.6
v -0.1 0 -0.7
v -0.1 0.3 -0.7
v 0 0 -0.7
v 0 0.3 -0.7
v 0 0.8 -0.7
v 0.1 0.8 -0.7
v 0.1 0.9 -0.7
v 0.2 0 -0.7
v 0.2 0.3 -0.7
v 0.2 0.9 -0.7
v 0.2 1 -0.7
v 0.3 0 -0.7
v 0.3 0.3 -0.7
v 0.5 0.9 -0.7
v 0.5 1 -0.7
v 0 0 -0.8
v 0 0.3 -0.8
v 0.2 0 -0.8
v 0.2 0.3 -0.8
v 0 0 0.1
v 0.2 0 0.1
v -0.1 0 -0.1
v 0 0 -0.1
v 0.2 0 -0.1
v 0.3 0 -0.1
v -0.2 0 -0.2
v -0.1 0 -0.2
v 0.3 0 -0.2
v 0.4 0 -0.2
v -0.2 0 -0.6
v -0.1 0 -0.6
v 0.3 0 -0.6
v 0.4 0 -0.6
v -0.1 0 -0.7
v 0 0 -0.7
v 0.2 0 -0.7
v 0.3 0 -0.7
v 0 0 -0.8
v 0.2 0 -0.8
v 0.3 0.8 -0.2
v 0.4 0.8 -0.2
v 0.3 0.8 -0.6
v 0.4 0.8 -0.6
v 0.4 0.9 -0.2
v 0.5 0.9 -0.2
v 0.2 0.9 -0.6
v 0.4 0.9 -0.6
v 0.2 0.9 -0.7
v 0.5 0.9 -0.7
v 0 0.2 0.1
v 0.2 0.2 0.1
v 0 0.2 0
v 0.2 0.2 0
v -0.2 0.3 -0.2
v -0.1 0.3 -0.2
v 0.3 0.3 -0.2
v 0.4 0.3 -0.2
v 0.3 0.3 -0.4
v -0.2 0.3 -0.6
v -0.1 0.3 -0.6
v 0 0.3 -0.6
v 0.2 0.3 -0.6
v 0.3 0.3 -0.6
v 0.4 0.3 -0.6
v -0.1 0.3 -0.7
v 0 0.3 -0.7
v 0.2 0.3 -0.7
v 0.3 0.3 -0.7
v 0 0.3 -0.8
v 0.2 0.3 -0.8
v 0 0.4 0
v 0.1 0.4 0
v 0.2 0.4 0
v 0 0.4 -0.1
v 0.1 0.4 -0.1
v 0.2 0.4 -0.1
v -0.1 0.5 -0.1
v 0 0.5 -0.1
v 0.1 0.5 -0.1
v 0.2 0.5 -0.1
v 0.3 0.5 -0.1
v -0.1 0.5 -0.2
v 0 0.5 -0.2
v 0.1 0.5 -0.2
v 0.2 0.5 -0.2
v 0.3 0.5 -0.2
v -0.1 0.7 -0.2
v 0 0.7 -0.2
v -0.1 0.7 -0.3
v 0 0.7 -0.3
v -0.1 0.7 -0.4
v 0 0.7 -0.4
v 0 0.7 -0.5
v -0.1 0.7 -0.6
v 0 0.7 -0.6
v 0 0.8 -0.2
v 0.1 0.8 -0.2
v 0 0.8 -0.3
v 0.1 0.8 -0.3
v 0.1 0.8 -0.4
v 0 0.8 -0.5
v 0.1 0.8 -0.5
v 0 0.8 -0.7
v 0.1 0.8 -0.7
v 0.1 0.9 -0.2
v 0.2 0.9 -0.2
v 0.1 0.9 -0.4
v 0.2 0.9 -0.4
v 0.1 0.9 -0.5
v 0.2 0.9 -0.5
v 0.1 0.9 -0.7
v 0.2 0.9 -0.7
v 0.2 1 -0.2
v 0.5 1 -0.2
v 0.2 1 -0.4
v 0.3 1 -0.4
v 0.2 1 -0.5
v 0.3 1 -0.5
v 0.2 1 -0.7
v 0.5 1 -0.7

# faces
f 3/1/1 2/1/1 1/1/1
f 4/1/1 2/1/1 3/1/1
f 9/1/1 6/1/1 5/1/1
f 10/1/1 6/1/1 9/1/1
f 11/2/1 10/2/1 9/2/1
f 12/2/1 10/2/1 11/2/1
f 13/1/1 8/1/1 7/1/1
f 14/1/1 8/1/1 13/1/1
f 15/1/1 12/1/1 11/1/1
f 15/1/1 13/1/1 12/1/1
f 16/1/1 13/1/1 15/1/1
f 17/1/1 15/1/1 11/1/1
f 18/2/1 16/2/1 15/2/1
f 18/1/1 15/1/1 17/1/1
f 19/1/1 13/1/1 16/1/1
f 19/2/1 16/2/1 18/2/1
f 20/1/1 13/1/1 19/1/1
f 21/1/1 19/1/1 18/1/1
f 22/2/1 20/2/1 19/2/1
f 22/1/1 19/1/1 21/1/1
f 23/1/1 13/1/1 20/1/1
f 23/2/1 20/2/1 22/2/1
f 24/1/1 13/1/1 23/1/1
f 29/1/1 26/1/1 25/1/1
f 30/1/1 26/1/1 29/1/1
f 31/1/1 26/1/1 30/1/1
f 32/1/1 31/1/1 30/1/1
f 33/1/1 31/1/1 32/1/1
f 35/1/1 28/1/1 27/1/1
f 36/1/1 28/1/1 35/1/1
f 37/2/1 33/2/1 32/2/1
f 38/2/1 33/2/1 37/2/1
f 43/1/1 35/1/1 34/1/1
f 44/1/1 40/1/1 39/1/1
f 45/2/1 42/2/1 41/2/1
f 45/1/1 40/1/1 44/1/1
f 45/2/1 41/2/1 40/2/1
f 46/1/1 43/1/1 42/1/1
f 46/2/1 42/2/1 45/2/1
f 47/1/1 35/1/1 43/1/1
f 47/1/1 43/1/1 46/1/1
f 53/1/1 49/1/1 48/1/1
f 53/1/1 50/1/1 49/1/1
f 54/2/1 51/2/1 50/2/1
f 54/1/1 50/1/1 53/1/1
f 55/1/1 52/1/1 51/1/1
f 55/2/1 51/2/1 54/2/1
f 56/1/1 52/1/1 55/1/1
f 61/1/1 58/1/1 57/1/1
f 62/2/1 59/2/1 58/2/1
f 62/1/1 58/1/1 61/1/1
f 63/1/1 60/1/1 59/1/1
f 63/2/1 59/2/1 62/2/1
f 64/1/1 60/1/1 63/1/1
f 65/1/2 66/1/2 69/1/2
f 69/1/2 66/1/2 70/1/2
f 67/1/2 68/1/2 72/1/2
f 72/1/2 68/1/2 73/1/2
f 70/1/2 66/1/2 74/1/2
f 74/1/2 66/1/2 75/1/2
f 71/1/2 72/1/2 76/1/2
f 76/1/2 72/1/2 77/1/2
f 77/1/2 72/1/2 78/1/2
f 79/1/2 80/1/2 83/1/2
f 81/1/2 82/1/2 84/1/2
f 79/1/2 83/1/2 85/1/2
f 84/1/2 82/1/2 87/1/2
f 87/1/2 82/1/2 88/1/2
f 85/1/2 86/1/2 89/1/2
f 79/1/2 85/1/2 89/1/2
f 86/2/2 87/2/2 90/2/2
f 89/1/2 86/1/2 90/1/2
f 90/2/2 87/2/2 91/2/2
f 89/2/2 90/2/2 92/2/2
f 92/2/2 90/2/2 93/2/2
f 93/2/2 90/2/2 94/2/2
f 90/1/2 91/1/2 95/1/2
f 94/2/2 90/2/2 95/2/2
f 93/2/2 94/2/2 96/2/2
f 94/1/2 95/1/2 97/1/2
f 96/2/2 94/2/2 97/2/2
f 96/1/2 97/1/2 98/1/2
f 95/1/2 91/1/2 99/1/2
f 98/1/2 97/1/2 99/1/2
f 97/1/2 95/1/2 99/1/2
f 100/1/2 101/1/2 102/1/2
f 102/1/2 101/1/2 103/1/2
f 102/2/2 103/2/2 104/2/2
f 104/2/2 103/2/2 105/2/2
f 106/1/2 107/1/2 108/1/2
f 108/1/2 107/1/2 109/1/2
f 110/1/2 111/1/2 112/1/2
f 112/1/2 111/1/2 113/1/2
f 116/1/3 115/1/3 114/1/3
f 117/1/3 115/1/3 116/1/3
f 121/1/3 119/1/3 118/1/3
f 121/2/3 120/2/3 119/2/3
f 122/2/3 120/2/3 121/2/3
f 123/1/3 121/1/3 118/1/3
f 123/1/3 122/1/3 121/1/3
f 124/1/3 122/1/3 123/1/3
f 129/1/3 126/1/3 125/1/3
f 130/2/3 127/2/3 126/2/3
f 130/1/3 126/1/3 129/1/3
f 131/1/3 128/1/3 127/1/3
f 131/2/3 127/2/3 130/2/3
f 132/1/3 128/1/3 131/1/3
f 133/1/3 128/1/3 132/1/3
f 134/2/3 133/2/3 132/2/3
f 135/2/3 133/2/3 134/2/3
f 137/1/3 135/1/3 134/1/3
f 138/1/3 135/1/3 137/1/3
f 139/1/3 137/1/3 136/1/3
f 140/2/3 138/2/3 137/2/3
f 140/1/3 137/1/3 139/1/3
f 141/2/3 138/2/3 140/2/3
f 144/1/3 143/1/3 142/1/3
f 145/1/3 143/1/3 144/1/3
f 146/1/3 143/1/3 145/1/3
f 149/1/3 148/1/3 147/1/3
f 150/1/3 148/1/3 149/1/3
f 151/1/3 148/1/3 150/1/3
f 153/2/3 150/2/3 149/2/3
f 154/1/3 152/1/3 151/1/3
f 154/2/3 150/2/3 153/2/3
f 154/1/3 151/1/3 150/1/3
f 155/1/3 152/1/3 154/1/3
f 157/1/3 154/1/3 153/1/3
f 158/2/3 155/2/3 154/2/3
f 158/1/3 154/1/3 157/1/3
f 159/2/3 155/2/3 158/2/3
f 160/1/3 156/1/3 155/1/3
f 160/2/3 155/2/3 159/2/3
f 161/1/3 156/1/3 160/1/3
f 166/2/3 159/2/3 158/2/3
f 166/2/3 158/2/3 157/2/3
f 167/1/3 160/1/3 159/1/3
f 167/2/3 159/2/3 166/2/3
f 167/1/3 161/1/3 160/1/3
f 167/1/3 162/1/3 161/1/3
f 168/1/3 162/1/3 167/1/3
f 169/1/3 164/1/3 163/1/3
f 170/2/3 165/2/3 164/2/3
f 170/1/3 164/1/3 169/1/3
f 171/2/3 165/2/3 170/2/3
f 172/1/3 162/1/3 168/1/3
f 173/1/3 162/1/3 172/1/3
f 174/1/3 162/1/3 173/1/3
f 175/1/3 162/1/3 174/1/3
f 176/1/4 177/1/4 178/1/4
f 178/1/4 177/1/4 179/1/4
f 179/1/4 180/1/4 181/1/4
f 181/1/4 180/1/4 182/1/4
f 183/2/4 184/2/4 188/2/4
f 184/1/4 185/1/4 189/1/4
f 188/2/4 184/2/4 189/2/4
f 189/1/4 185/1/4 190/1/4
f 186/1/4 187/1/4 191/1/4
f 187/2/4 188/2/4 192/2/4
f 191/1/4 187/1/4 192/1/4
f 192/2/4 188/2/4 193/2/4
f 190/1/4 185/1/4 194/1/4
f 194/1/4 185/1/4 195/1/4
f 196/1/4 197/1/4 198/1/4
f 198/1/4 197/1/4 199/1/4
f 199/1/4 200/1/4 201/1/4
f 199/1/4 201/1/4 204/1/4
f 201/1/4 202/1/4 204/1/4
f 204/1/4 202/1/4 205/1/4
f 203/1/4 204/1/4 207/1/4
f 207/1/4 204/1/4 208/1/4
f 205/1/4 206/1/4 209/1/4
f 209/1/4 206/1/4 210/1/4
f 211/1/4 212/1/4 213/1/4
f 213/1/4 212/1/4 214/1/4
f 218/1/5 216/1/5 215/1/5
f 219/1/5 216/1/5 218/1/5
f 222/1/5 218/1/5 217/1/5
f 222/1/5 220/1/5 219/1/5
f 222/1/5 219/1/5 218/1/5
f 223/1/5 220/1/5 222/1/5
f 225/1/5 222/1/5 221/1/5
f 225/1/5 224/1/5 223/1/5
f 225/1/5 223/1/5 222/1/5
f 226/1/5 224/1/5 225/1/5
f 227/1/5 224/1/5 226/1/5
f 228/1/5 224/1/5 227/1/5
f 229/1/5 227/1/5 226/1/5
f 230/1/5 227/1/5 229/1/5
f 231/1/5 227/1/5 230/1/5
f 232/1/5 227/1/5 231/1/5
f 233/1/5 231/1/5 230/1/5
f 234/1/5 231/1/5 233/1/5
f 237/1/5 236/1/5 235/1/5
f 238/1/5 236/1/5 237/1/5
f 242/1/5 240/1/5 239/1/5
f 243/1/5 242/1/5 241/1/5
f 244/1/5 240/1/5 242/1/5
f 244/1/5 242/1/5 243/1/5
f 245/1/6 246/1/6 247/1/6
f 247/1/6 246/1/6 248/1/6
f 251/2/6 252/2/6 253/2/6
f 249/1/6 250/1/6 254/1/6
f 254/1/6 250/1/6 255/1/6
f 253/2/6 252/2/6 258/2/6
f 258/2/6 252/2/6 259/2/6
f 255/1/6 256/1/6 260/1/6
f 260/1/6 256/1/6 261/1/6
f 257/1/6 258/1/6 262/1/6
f 262/1/6 258/1/6 263/1/6
f 261/1/6 262/1/6 264/1/6
f 264/1/6 262/1/6 265/1/6
f 266/2/6 267/2/6 269/2/6
f 267/1/6 268/1/6 270/1/6
f 269/2/6 267/2/6 270/2/6
f 270/1/6 268/1/6 271/1/6
f 272/1/6 273/1/6 277/1/6
f 273/2/6 274/2/6 278/2/6
f 277/1/6 273/1/6 278/1/6
f 274/1/6 275/1/6 279/1/6
f 278/2/6 274/2/6 279/2/6
f 275/2/6 276/2/6 280/2/6
f 279/1/6 275/1/6 280/1/6
f 280/2/6 276/2/6 281/2/6
f 282/1/6 283/1/6 284/1/6
f 284/1/6 283/1/6 285/1/6
f 284/2/6 285/2/6 286/2/6
f 286/2/6 285/2/6 287/2/6
f 286/1/6 287/1/6 288/1/6
f 286/1/6 288/1/6 289/1/6
f 289/1/6 288/1/6 290/1/6
f 291/1/6 292/1/6 293/1/6
f 293/1/6 292/1/6 294/1/6
f 293/2/6 294/2/6 295/2/6
f 293/2/6 295/2/6 296/2/6
f 296/2/6 295/2/6 297/2/6
f 296/1/6 297/1/6 298/1/6
f 298/1/6 297/1/6 299/1/6
f 300/1/6 301/1/6 302/1/6
f 302/1/6 301/1/6 303/1/6
f 302/2/6 303/2/6 304/2/6
f 304/2/6 303/2/6 305/2/6
f 304/1/6 305/1/6 306/1/6
f 306/1/6 305/1/6 307/1/6
f 308/1/6 309/1/6 310/1/6
f 310/1/6 309/1/6 311/1/6
f 310/2/6 311/2/6 312/2/6
f 311/1/6 309/1/6 313/1/6
f 312/2/6 311/2/6 313/2/6
f 312/1/6 313/1/6 314/1/6
f 313/1/6 309/1/6 315/1/6
f 314/1/6 313/1/6 315/1/6
