# MagicaVoxel @ Ephtracy

# group
o 

# material
mtllib wall_light2.mtl
usemtl palette

# normals
vn -1 0 0
vn 1 0 0
vn 0 0 1
vn 0 0 -1
vn 0 -1 0
vn 0 1 0

# texcoords
vt 0.939453 0.5
vt 0.947266 0.5
vt 0.990234 0.5

# verts
v -2 0 2
v -2 0 -2
v -2 0.1 1.9
v -2 0.1 -2
v -2 2.2 1.9
v -2 2.2 1.7
v -2 2.3 1.9
v -2 2.3 1.7
v -2 2.4 1.9
v -2 2.4 1.7
v -2 4 2
v -2 4 1.9
v 2.38419e-007 2.4 1.9
v 2.38419e-007 2.4 1.7
v 2.38419e-007 4 1.9
v 2.38419e-007 4 1.7
v 0.2 2.2 1.9
v 0.2 2.2 1.7
v 0.2 4 1.9
v 0.2 4 1.7
v 2 0 2
v 2 0 -2
v 2 0.1 1.9
v 2 0.1 -2
v 2 4 2
v 2 4 1.9
v -2 0 2
v -2 4 2
v 2 0 2
v 2 4 2
v -2 0.1 1.9
v -2 2.2 1.9
v -2 2.4 1.9
v -2 4 1.9
v 2.38419e-007 2.4 1.9
v 2.38419e-007 4 1.9
v 0.2 2.2 1.9
v 0.2 4 1.9
v 2 0.1 1.9
v 2 4 1.9
v -2 2.2 1.7
v -2 2.3 1.7
v -2 2.4 1.7
v 2.38419e-007 2.4 1.7
v 2.38419e-007 4 1.7
v 0.1 2.3 1.7
v 0.1 4 1.7
v 0.2 2.2 1.7
v 0.2 4 1.7
v -2 0 -2
v -2 0.1 -2
v 2 0 -2
v 2 0.1 -2
v -2 0 2
v 2 0 2
v -2 0 -2
v 2 0 -2
v -2 2.2 1.9
v 0.2 2.2 1.9
v -2 2.2 1.7
v 0.2 2.2 1.7
v -2 0.1 1.9
v 2 0.1 1.9
v -2 0.1 -2
v 2 0.1 -2
v -2 2.4 1.9
v 2.38419e-007 2.4 1.9
v -2 2.4 1.7
v 2.38419e-007 2.4 1.7
v -2 4 2
v 2 4 2
v -2 4 1.9
v 2.38419e-007 4 1.9
v 0.1 4 1.9
v 0.2 4 1.9
v 2 4 1.9
v 2.38419e-007 4 1.7
v 0.1 4 1.7
v 0.2 4 1.7

# faces
f 3/1/1 2/1/1 1/1/1
f 4/1/1 2/1/1 3/1/1
f 5/1/1 3/1/1 1/1/1
f 7/1/1 5/1/1 1/1/1
f 7/3/1 6/3/1 5/3/1
f 8/3/1 6/3/1 7/3/1
f 9/1/1 7/1/1 1/1/1
f 9/2/1 8/2/1 7/2/1
f 10/2/1 8/2/1 9/2/1
f 11/1/1 9/1/1 1/1/1
f 12/1/1 9/1/1 11/1/1
f 15/2/1 14/2/1 13/2/1
f 16/2/1 14/2/1 15/2/1
f 17/3/2 18/3/2 19/3/2
f 19/3/2 18/3/2 20/3/2
f 21/1/2 22/1/2 23/1/2
f 23/1/2 22/1/2 24/1/2
f 21/1/2 23/1/2 25/1/2
f 25/1/2 23/1/2 26/1/2
f 29/1/3 28/1/3 27/1/3
f 30/1/3 28/1/3 29/1/3
f 33/1/4 34/1/4 35/1/4
f 35/1/4 34/1/4 36/1/4
f 31/1/4 32/1/4 37/1/4
f 31/1/4 37/1/4 39/1/4
f 37/1/4 38/1/4 39/1/4
f 39/1/4 38/1/4 40/1/4
f 42/2/4 43/2/4 44/2/4
f 41/3/4 42/3/4 46/3/4
f 44/2/4 45/2/4 46/2/4
f 42/2/4 44/2/4 46/2/4
f 46/2/4 45/2/4 47/2/4
f 41/3/4 46/3/4 48/3/4
f 46/3/4 47/3/4 48/3/4
f 48/3/4 47/3/4 49/3/4
f 50/1/4 51/1/4 52/1/4
f 52/1/4 51/1/4 53/1/4
f 56/1/5 55/1/5 54/1/5
f 57/1/5 55/1/5 56/1/5
f 60/3/5 59/3/5 58/3/5
f 61/3/5 59/3/5 60/3/5
f 62/1/6 63/1/6 64/1/6
f 64/1/6 63/1/6 65/1/6
f 66/2/6 67/2/6 68/2/6
f 68/2/6 67/2/6 69/2/6
f 70/1/6 71/1/6 72/1/6
f 72/1/6 71/1/6 73/1/6
f 73/1/6 71/1/6 74/1/6
f 74/1/6 71/1/6 75/1/6
f 75/1/6 71/1/6 76/1/6
f 73/2/6 74/2/6 77/2/6
f 74/3/6 75/3/6 78/3/6
f 77/2/6 74/2/6 78/2/6
f 78/3/6 75/3/6 79/3/6
