# MagicaVoxel @ Ephtracy

# group
o 

# material
mtllib wall_light2_wf.mtl
usemtl palette

# normals
vn -1 0 0
vn 1 0 0
vn 0 0 1
vn 0 0 -1
vn 0 -1 0
vn 0 1 0

# texcoords
vt 0.939453 0.5
vt 0.947266 0.5
vt 0.990234 0.5

# verts
v -2 0.1 2
v -2 0.1 1.9
v -2 2.2 1.9
v -2 2.2 1.7
v -2 2.3 1.9
v -2 2.3 1.7
v -2 2.4 1.9
v -2 2.4 1.7
v -2 4 2
v -2 4 1.9
v 2.38419e-007 2.4 1.9
v 2.38419e-007 2.4 1.7
v 2.38419e-007 4 1.9
v 2.38419e-007 4 1.7
v 0.2 2.2 1.9
v 0.2 2.2 1.7
v 0.2 4 1.9
v 0.2 4 1.7
v 2 0.1 2
v 2 0.1 1.9
v 2 4 2
v 2 4 1.9
v -2 0.1 2
v -2 4 2
v 2 0.1 2
v 2 4 2
v -2 0.1 1.9
v -2 2.2 1.9
v -2 2.4 1.9
v -2 4 1.9
v 2.38419e-007 2.4 1.9
v 2.38419e-007 4 1.9
v 0.2 2.2 1.9
v 0.2 4 1.9
v 2 0.1 1.9
v 2 4 1.9
v -2 2.2 1.7
v -2 2.3 1.7
v -2 2.4 1.7
v 2.38419e-007 2.4 1.7
v 2.38419e-007 4 1.7
v 0.1 2.3 1.7
v 0.1 4 1.7
v 0.2 2.2 1.7
v 0.2 4 1.7
v -2 0.1 2
v 2 0.1 2
v -2 0.1 1.9
v 2 0.1 1.9
v -2 2.2 1.9
v 0.2 2.2 1.9
v -2 2.2 1.7
v 0.2 2.2 1.7
v -2 2.4 1.9
v 2.38419e-007 2.4 1.9
v -2 2.4 1.7
v 2.38419e-007 2.4 1.7
v -2 4 2
v 2 4 2
v -2 4 1.9
v 2.38419e-007 4 1.9
v 0.1 4 1.9
v 0.2 4 1.9
v 2 4 1.9
v 2.38419e-007 4 1.7
v 0.1 4 1.7
v 0.2 4 1.7

# faces
f 3/1/1 2/1/1 1/1/1
f 5/1/1 3/1/1 1/1/1
f 5/3/1 4/3/1 3/3/1
f 6/3/1 4/3/1 5/3/1
f 7/1/1 5/1/1 1/1/1
f 7/2/1 6/2/1 5/2/1
f 8/2/1 6/2/1 7/2/1
f 9/1/1 7/1/1 1/1/1
f 10/1/1 7/1/1 9/1/1
f 13/2/1 12/2/1 11/2/1
f 14/2/1 12/2/1 13/2/1
f 15/3/2 16/3/2 17/3/2
f 17/3/2 16/3/2 18/3/2
f 19/1/2 20/1/2 21/1/2
f 21/1/2 20/1/2 22/1/2
f 25/1/3 24/1/3 23/1/3
f 26/1/3 24/1/3 25/1/3
f 29/1/4 30/1/4 31/1/4
f 31/1/4 30/1/4 32/1/4
f 27/1/4 28/1/4 33/1/4
f 27/1/4 33/1/4 35/1/4
f 33/1/4 34/1/4 35/1/4
f 35/1/4 34/1/4 36/1/4
f 38/2/4 39/2/4 40/2/4
f 37/3/4 38/3/4 42/3/4
f 40/2/4 41/2/4 42/2/4
f 38/2/4 40/2/4 42/2/4
f 42/2/4 41/2/4 43/2/4
f 37/3/4 42/3/4 44/3/4
f 42/3/4 43/3/4 44/3/4
f 44/3/4 43/3/4 45/3/4
f 48/1/5 47/1/5 46/1/5
f 49/1/5 47/1/5 48/1/5
f 52/3/5 51/3/5 50/3/5
f 53/3/5 51/3/5 52/3/5
f 54/2/6 55/2/6 56/2/6
f 56/2/6 55/2/6 57/2/6
f 58/1/6 59/1/6 60/1/6
f 60/1/6 59/1/6 61/1/6
f 61/1/6 59/1/6 62/1/6
f 62/1/6 59/1/6 63/1/6
f 63/1/6 59/1/6 64/1/6
f 61/2/6 62/2/6 65/2/6
f 62/3/6 63/3/6 66/3/6
f 65/2/6 62/2/6 66/2/6
f 66/3/6 63/3/6 67/3/6
