# MagicaVoxel @ Ephtracy

# group
o 

# material
mtllib movable_wire_plus_turn.mtl
usemtl palette

# normals
vn -1 0 0
vn 1 0 0
vn 0 0 1
vn 0 0 -1
vn 0 -1 0
vn 0 1 0

# texcoords
vt 0.306641 0.5
vt 0.955078 0.5
vt 0.994141 0.5

# verts
v -2 0 2
v -2 0 0.0999999
v -2 0 -0.1
v -2 0 -2
v -2 0.1 2
v -2 0.1 0.0999999
v -2 0.1 -0.1
v -2 0.1 -2
v -0.0999999 0 1.8
v -0.0999999 0 0.0999999
v -0.0999999 0 -0.1
v -0.0999999 0 -1.8
v -0.0999999 0.1 1.8
v -0.0999999 0.1 0.0999999
v -0.0999999 0.1 -0.1
v -0.0999999 0.1 -1.8
v 1.8 0 1.8
v 1.8 0 0.0999999
v 1.8 0 -0.1
v 1.8 0 -1.8
v 1.8 0.1 1.8
v 1.8 0.1 0.0999999
v 1.8 0.1 -0.1
v 1.8 0.1 -1.8
v -1.8 0 1.8
v -1.8 0 0.0999999
v -1.8 0 -0.1
v -1.8 0 -1.8
v -1.8 0.1 1.8
v -1.8 0.1 0.0999999
v -1.8 0.1 -0.1
v -1.8 0.1 -1.8
v 0.1 0 1.8
v 0.1 0 0.0999999
v 0.1 0 -0.1
v 0.1 0 -1.8
v 0.1 0.1 1.8
v 0.1 0.1 0.0999999
v 0.1 0.1 -0.1
v 0.1 0.1 -1.8
v 2 0 2
v 2 0 0.0999999
v 2 0 -0.1
v 2 0 -2
v 2 0.1 2
v 2 0.1 0.0999999
v 2 0.1 -0.1
v 2 0.1 -2
v -2 0 2
v -2 0.1 2
v -0.0999999 0 2
v -0.0999999 0.1 2
v 0.1 0 2
v 0.1 0.1 2
v 2 0 2
v 2 0.1 2
v -1.8 0 0.0999999
v -1.8 0.1 0.0999999
v -0.0999999 0 0.0999999
v -0.0999999 0.1 0.0999999
v 0.1 0 0.0999999
v 0.1 0.1 0.0999999
v 1.8 0 0.0999999
v 1.8 0.1 0.0999999
v -1.8 0 -1.8
v -1.8 0.1 -1.8
v -0.0999999 0 -1.8
v -0.0999999 0.1 -1.8
v 0.1 0 -1.8
v 0.1 0.1 -1.8
v 1.8 0 -1.8
v 1.8 0.1 -1.8
v -1.8 0 1.8
v -1.8 0.1 1.8
v -0.0999999 0 1.8
v -0.0999999 0.1 1.8
v 0.1 0 1.8
v 0.1 0.1 1.8
v 1.8 0 1.8
v 1.8 0.1 1.8
v -1.8 0 -0.1
v -1.8 0.1 -0.1
v -0.0999999 0 -0.1
v -0.0999999 0.1 -0.1
v 0.1 0 -0.1
v 0.1 0.1 -0.1
v 1.8 0 -0.1
v 1.8 0.1 -0.1
v -2 0 -2
v -2 0.1 -2
v -0.0999999 0 -2
v -0.0999999 0.1 -2
v 0.1 0 -2
v 0.1 0.1 -2
v 2 0 -2
v 2 0.1 -2
v -2 0 2
v -0.0999999 0 2
v 0.1 0 2
v 2 0 2
v -1.8 0 1.8
v -0.0999999 0 1.8
v 0.1 0 1.8
v 1.8 0 1.8
v -2 0 0.0999999
v -1.8 0 0.0999999
v -0.0999999 0 0.0999999
v 0.1 0 0.0999999
v 1.8 0 0.0999999
v 2 0 0.0999999
v -2 0 -0.1
v -1.8 0 -0.1
v -0.0999999 0 -0.1
v 0.1 0 -0.1
v 1.8 0 -0.1
v 2 0 -0.1
v -1.8 0 -1.8
v -0.0999999 0 -1.8
v 0.1 0 -1.8
v 1.8 0 -1.8
v -2 0 -2
v -0.0999999 0 -2
v 0.1 0 -2
v 2 0 -2
v -2 0.1 2
v -0.0999999 0.1 2
v 0.1 0.1 2
v 2 0.1 2
v -1.8 0.1 1.8
v -0.0999999 0.1 1.8
v 0.1 0.1 1.8
v 1.8 0.1 1.8
v -2 0.1 0.0999999
v -1.8 0.1 0.0999999
v -0.0999999 0.1 0.0999999
v 0.1 0.1 0.0999999
v 1.8 0.1 0.0999999
v 2 0.1 0.0999999
v -2 0.1 -0.1
v -1.8 0.1 -0.1
v -0.0999999 0.1 -0.1
v 0.1 0.1 -0.1
v 1.8 0.1 -0.1
v 2 0.1 -0.1
v -1.8 0.1 -1.8
v -0.0999999 0.1 -1.8
v 0.1 0.1 -1.8
v 1.8 0.1 -1.8
v -2 0.1 -2
v -0.0999999 0.1 -2
v 0.1 0.1 -2
v 2 0.1 -2

# faces
f 5/2/1 2/2/1 1/2/1
f 6/1/1 3/1/1 2/1/1
f 6/2/1 2/2/1 5/2/1
f 7/2/1 4/2/1 3/2/1
f 7/1/1 3/1/1 6/1/1
f 8/2/1 4/2/1 7/2/1
f 13/1/1 10/1/1 9/1/1
f 14/1/1 10/1/1 13/1/1
f 15/3/1 12/3/1 11/3/1
f 16/3/1 12/3/1 15/3/1
f 21/2/1 18/2/1 17/2/1
f 22/2/1 18/2/1 21/2/1
f 23/2/1 20/2/1 19/2/1
f 24/2/1 20/2/1 23/2/1
f 25/2/2 26/2/2 29/2/2
f 29/2/2 26/2/2 30/2/2
f 27/2/2 28/2/2 31/2/2
f 31/2/2 28/2/2 32/2/2
f 33/1/2 34/1/2 37/1/2
f 37/1/2 34/1/2 38/1/2
f 35/3/2 36/3/2 39/3/2
f 39/3/2 36/3/2 40/3/2
f 41/2/2 42/2/2 45/2/2
f 42/3/2 43/3/2 46/3/2
f 45/2/2 42/2/2 46/2/2
f 43/2/2 44/2/2 47/2/2
f 46/3/2 43/3/2 47/3/2
f 47/2/2 44/2/2 48/2/2
f 51/2/3 50/2/3 49/2/3
f 52/2/3 50/2/3 51/2/3
f 53/1/3 52/1/3 51/1/3
f 54/1/3 52/1/3 53/1/3
f 55/2/3 54/2/3 53/2/3
f 56/2/3 54/2/3 55/2/3
f 59/1/3 58/1/3 57/1/3
f 60/1/3 58/1/3 59/1/3
f 63/3/3 62/3/3 61/3/3
f 64/3/3 62/3/3 63/3/3
f 67/2/3 66/2/3 65/2/3
f 68/2/3 66/2/3 67/2/3
f 71/2/3 70/2/3 69/2/3
f 72/2/3 70/2/3 71/2/3
f 73/2/4 74/2/4 75/2/4
f 75/2/4 74/2/4 76/2/4
f 77/2/4 78/2/4 79/2/4
f 79/2/4 78/2/4 80/2/4
f 81/1/4 82/1/4 83/1/4
f 83/1/4 82/1/4 84/1/4
f 85/3/4 86/3/4 87/3/4
f 87/3/4 86/3/4 88/3/4
f 89/2/4 90/2/4 91/2/4
f 91/2/4 90/2/4 92/2/4
f 91/3/4 92/3/4 93/3/4
f 93/3/4 92/3/4 94/3/4
f 93/2/4 94/2/4 95/2/4
f 95/2/4 94/2/4 96/2/4
f 101/2/5 98/2/5 97/2/5
f 102/1/5 99/1/5 98/1/5
f 102/2/5 98/2/5 101/2/5
f 103/2/5 100/2/5 99/2/5
f 103/1/5 99/1/5 102/1/5
f 104/2/5 100/2/5 103/2/5
f 105/2/5 101/2/5 97/2/5
f 106/2/5 101/2/5 105/2/5
f 107/1/5 103/1/5 102/1/5
f 108/1/5 103/1/5 107/1/5
f 109/2/5 100/2/5 104/2/5
f 110/2/5 100/2/5 109/2/5
f 111/1/5 108/1/5 107/1/5
f 111/1/5 106/1/5 105/1/5
f 111/1/5 107/1/5 106/1/5
f 112/1/5 108/1/5 111/1/5
f 113/1/5 108/1/5 112/1/5
f 114/3/5 110/3/5 109/3/5
f 114/1/5 108/1/5 113/1/5
f 114/3/5 109/3/5 108/3/5
f 115/3/5 110/3/5 114/3/5
f 116/3/5 110/3/5 115/3/5
f 117/2/5 112/2/5 111/2/5
f 118/3/5 114/3/5 113/3/5
f 119/3/5 114/3/5 118/3/5
f 120/2/5 116/2/5 115/2/5
f 121/2/5 117/2/5 111/2/5
f 121/2/5 118/2/5 117/2/5
f 122/3/5 119/3/5 118/3/5
f 122/2/5 118/2/5 121/2/5
f 123/2/5 120/2/5 119/2/5
f 123/3/5 119/3/5 122/3/5
f 124/2/5 116/2/5 120/2/5
f 124/2/5 120/2/5 123/2/5
f 125/2/6 126/2/6 129/2/6
f 126/1/6 127/1/6 130/1/6
f 129/2/6 126/2/6 130/2/6
f 127/2/6 128/2/6 131/2/6
f 130/1/6 127/1/6 131/1/6
f 131/2/6 128/2/6 132/2/6
f 125/2/6 129/2/6 133/2/6
f 133/2/6 129/2/6 134/2/6
f 130/1/6 131/1/6 135/1/6
f 135/1/6 131/1/6 136/1/6
f 132/2/6 128/2/6 137/2/6
f 137/2/6 128/2/6 138/2/6
f 135/1/6 136/1/6 139/1/6
f 133/1/6 134/1/6 139/1/6
f 134/1/6 135/1/6 139/1/6
f 139/1/6 136/1/6 140/1/6
f 140/1/6 136/1/6 141/1/6
f 137/3/6 138/3/6 142/3/6
f 141/1/6 136/1/6 142/1/6
f 136/3/6 137/3/6 142/3/6
f 142/3/6 138/3/6 143/3/6
f 143/3/6 138/3/6 144/3/6
f 139/2/6 140/2/6 145/2/6
f 141/3/6 142/3/6 146/3/6
f 146/3/6 142/3/6 147/3/6
f 143/2/6 144/2/6 148/2/6
f 139/2/6 145/2/6 149/2/6
f 145/2/6 146/2/6 149/2/6
f 146/3/6 147/3/6 150/3/6
f 149/2/6 146/2/6 150/2/6
f 147/2/6 148/2/6 151/2/6
f 150/3/6 147/3/6 151/3/6
f 148/2/6 144/2/6 152/2/6
f 151/2/6 148/2/6 152/2/6
