# MagicaVoxel @ Ephtracy

# group
o 

# material
mtllib server_opened.mtl
usemtl palette

# normals
vn -1 0 0
vn 1 0 0
vn 0 0 1
vn 0 0 -1
vn 0 -1 0
vn 0 1 0

# texcoords
vt 0.908203 0.5
vt 0.912109 0.5
vt 0.916016 0.5
vt 0.955078 0.5
vt 0.994141 0.5

# verts
v -2 0 -1.2
v -2 0 -1.3
v -2 0 -1.9
v -2 0 -2
v -2 0.1 -1.3
v -2 0.1 -1.9
v -2 1.6 -1.2
v -2 1.6 -2
v -1.9 1.6 -1.8
v -1.9 1.6 -1.9
v -1.9 1.7 -1.9
v -1.9 1.7 -2
v -1.9 2.2 -1.9
v -1.9 2.2 -2
v -1.9 2.3 -1.8
v -1.9 2.3 -1.9
v -1.8 1.6 -1.9
v -1.8 1.6 -2
v -1.8 1.7 -1.9
v -1.8 1.7 -2
v -1.8 2.2 -1.9
v -1.8 2.2 -2
v -1.8 2.3 -1.9
v -1.8 2.3 -2
v -1.1 0 -1.2
v -1.1 0 -1.3
v -1.1 0 -1.9
v -1.1 0 -2
v -1.1 0.1 -1.2
v -1.1 0.1 -1.3
v -1.1 0.1 -1.9
v -1.1 0.1 -2
v -1.1 0.3 -1.2
v -1.1 0.3 -1.3
v -1.1 0.4 -1.2
v -1.1 0.4 -1.3
v -1.1 0.5 -1.2
v -1.1 0.5 -1.3
v -1.1 0.6 -1.2
v -1.1 0.6 -1.3
v -1.1 0.7 -1.2
v -1.1 0.7 -1.3
v -1.1 0.8 -1.2
v -1.1 0.8 -1.3
v -1.1 0.9 -1.2
v -1.1 0.9 -1.3
v -1.1 1 -1.2
v -1.1 1 -1.3
v -1.1 1.1 -1.2
v -1.1 1.1 -1.3
v -1.1 1.2 -1.2
v -1.1 1.2 -1.3
v -1.1 1.3 -1.2
v -1.1 1.3 -1.3
v -1.1 1.4 -1.2
v -1.1 1.4 -1.3
v -1.1 1.5 -1.3
v -1.1 1.5 -1.4
v -1.1 1.5 -1.5
v -1.1 1.5 -1.6
v -1.1 1.5 -1.7
v -1.1 1.5 -1.8
v -1.1 1.6 -1.3
v -1.1 1.6 -1.8
v -1.9 0 -1.2
v -1.9 0 -1.3
v -1.9 0 -1.9
v -1.9 0 -2
v -1.9 0.1 -1.2
v -1.9 0.1 -1.3
v -1.9 0.1 -1.9
v -1.9 0.1 -2
v -1.9 1.5 -1.3
v -1.9 1.5 -1.4
v -1.9 1.5 -1.5
v -1.9 1.5 -1.6
v -1.9 1.5 -1.7
v -1.9 1.5 -1.8
v -1.9 1.6 -1.3
v -1.9 1.6 -1.8
v -1.8 0.3 -1.2
v -1.8 0.3 -1.3
v -1.8 0.4 -1.2
v -1.8 0.4 -1.3
v -1.8 0.5 -1.2
v -1.8 0.5 -1.3
v -1.8 0.6 -1.2
v -1.8 0.6 -1.3
v -1.6 0.7 -1.2
v -1.6 0.7 -1.3
v -1.6 0.8 -1.2
v -1.6 0.8 -1.3
v -1.6 0.9 -1.2
v -1.6 0.9 -1.3
v -1.6 1 -1.2
v -1.6 1 -1.3
v -1.6 1.1 -1.2
v -1.6 1.1 -1.3
v -1.6 1.2 -1.2
v -1.6 1.2 -1.3
v -1.6 1.3 -1.2
v -1.6 1.3 -1.3
v -1.6 1.4 -1.2
v -1.6 1.4 -1.3
v -1.2 1.6 -1.9
v -1.2 1.6 -2
v -1.2 1.7 -1.9
v -1.2 1.7 -2
v -1.2 2.2 -1.9
v -1.2 2.2 -2
v -1.2 2.3 -1.9
v -1.2 2.3 -2
v -1.1 1.6 -1.8
v -1.1 1.6 -1.9
v -1.1 1.7 -1.9
v -1.1 1.7 -2
v -1.1 2.2 -1.9
v -1.1 2.2 -2
v -1.1 2.3 -1.8
v -1.1 2.3 -1.9
v -1 0 -1.2
v -1 0 -1.3
v -1 0 -1.9
v -1 0 -2
v -1 0.1 -1.3
v -1 0.1 -1.9
v -1 1.6 -1.2
v -1 1.6 -2
v -2 0 -1.2
v -2 1.6 -1.2
v -1.9 0 -1.2
v -1.9 0.1 -1.2
v -1.8 0.3 -1.2
v -1.8 0.4 -1.2
v -1.8 0.5 -1.2
v -1.8 0.6 -1.2
v -1.8 0.7 -1.2
v -1.8 0.8 -1.2
v -1.8 0.9 -1.2
v -1.8 1 -1.2
v -1.8 1.1 -1.2
v -1.8 1.2 -1.2
v -1.8 1.3 -1.2
v -1.8 1.4 -1.2
v -1.7 0.7 -1.2
v -1.7 0.8 -1.2
v -1.7 0.9 -1.2
v -1.7 1 -1.2
v -1.7 1.1 -1.2
v -1.7 1.2 -1.2
v -1.7 1.3 -1.2
v -1.7 1.4 -1.2
v -1.6 0.7 -1.2
v -1.6 0.8 -1.2
v -1.6 0.9 -1.2
v -1.6 1 -1.2
v -1.6 1.1 -1.2
v -1.6 1.2 -1.2
v -1.6 1.3 -1.2
v -1.6 1.4 -1.2
v -1.1 0 -1.2
v -1.1 0.1 -1.2
v -1.1 0.3 -1.2
v -1.1 0.4 -1.2
v -1.1 0.5 -1.2
v -1.1 0.6 -1.2
v -1.1 0.7 -1.2
v -1.1 0.8 -1.2
v -1.1 0.9 -1.2
v -1.1 1 -1.2
v -1.1 1.1 -1.2
v -1.1 1.2 -1.2
v -1.1 1.3 -1.2
v -1.1 1.4 -1.2
v -1 0 -1.2
v -1 1.6 -1.2
v -1.8 0.3 -1.3
v -1.8 0.4 -1.3
v -1.8 0.5 -1.3
v -1.8 0.6 -1.3
v -1.6 0.7 -1.3
v -1.6 0.8 -1.3
v -1.6 0.9 -1.3
v -1.6 1 -1.3
v -1.6 1.1 -1.3
v -1.6 1.2 -1.3
v -1.6 1.3 -1.3
v -1.6 1.4 -1.3
v -1.1 0.3 -1.3
v -1.1 0.4 -1.3
v -1.1 0.5 -1.3
v -1.1 0.6 -1.3
v -1.1 0.7 -1.3
v -1.1 0.8 -1.3
v -1.1 0.9 -1.3
v -1.1 1 -1.3
v -1.1 1.1 -1.3
v -1.1 1.2 -1.3
v -1.1 1.3 -1.3
v -1.1 1.4 -1.3
v -1.9 1.5 -1.8
v -1.9 1.6 -1.8
v -1.9 2.3 -1.8
v -1.8 1.5 -1.8
v -1.8 1.6 -1.8
v -1.8 2.2 -1.8
v -1.7 1.5 -1.8
v -1.6 1.5 -1.8
v -1.5 1.5 -1.8
v -1.4 1.5 -1.8
v -1.3 1.5 -1.8
v -1.2 1.5 -1.8
v -1.2 1.6 -1.8
v -1.2 2.2 -1.8
v -1.1 1.5 -1.8
v -1.1 1.6 -1.8
v -1.1 2.3 -1.8
v -2 0 -1.9
v -2 0.1 -1.9
v -1.9 0 -1.9
v -1.9 0.1 -1.9
v -1.1 0 -1.9
v -1.1 0.1 -1.9
v -1 0 -1.9
v -1 0.1 -1.9
v -2 0 -1.3
v -2 0.1 -1.3
v -1.9 0 -1.3
v -1.9 0.1 -1.3
v -1.9 1.5 -1.3
v -1.9 1.6 -1.3
v -1.8 1.5 -1.3
v -1.7 1.5 -1.3
v -1.6 1.5 -1.3
v -1.5 1.5 -1.3
v -1.4 1.5 -1.3
v -1.3 1.5 -1.3
v -1.2 1.5 -1.3
v -1.1 0 -1.3
v -1.1 0.1 -1.3
v -1.1 1.5 -1.3
v -1.1 1.6 -1.3
v -1 0 -1.3
v -1 0.1 -1.3
v -1.9 1.6 -1.9
v -1.9 1.7 -1.9
v -1.9 2.2 -1.9
v -1.9 2.3 -1.9
v -1.8 1.6 -1.9
v -1.8 1.7 -1.9
v -1.8 2.2 -1.9
v -1.8 2.3 -1.9
v -1.2 1.6 -1.9
v -1.2 1.7 -1.9
v -1.2 2.2 -1.9
v -1.2 2.3 -1.9
v -1.1 1.6 -1.9
v -1.1 1.7 -1.9
v -1.1 2.2 -1.9
v -1.1 2.3 -1.9
v -2 0 -2
v -2 1.6 -2
v -1.9 0 -2
v -1.9 0.1 -2
v -1.9 1.7 -2
v -1.9 2.2 -2
v -1.8 1.6 -2
v -1.8 1.7 -2
v -1.8 2.2 -2
v -1.8 2.3 -2
v -1.2 1.6 -2
v -1.2 1.7 -2
v -1.2 2.2 -2
v -1.2 2.3 -2
v -1.1 0 -2
v -1.1 0.1 -2
v -1.1 1.7 -2
v -1.1 2.2 -2
v -1 0 -2
v -1 1.6 -2
v -2 0 -1.2
v -1.9 0 -1.2
v -1.1 0 -1.2
v -1 0 -1.2
v -2 0 -1.3
v -1.9 0 -1.3
v -1.1 0 -1.3
v -1 0 -1.3
v -2 0 -1.9
v -1.9 0 -1.9
v -1.1 0 -1.9
v -1 0 -1.9
v -2 0 -2
v -1.9 0 -2
v -1.1 0 -2
v -1 0 -2
v -1.9 0.1 -1.2
v -1.1 0.1 -1.2
v -2 0.1 -1.3
v -1.9 0.1 -1.3
v -1.1 0.1 -1.3
v -1 0.1 -1.3
v -2 0.1 -1.9
v -1.9 0.1 -1.9
v -1.1 0.1 -1.9
v -1 0.1 -1.9
v -1.9 0.1 -2
v -1.1 0.1 -2
v -1.8 0.4 -1.2
v -1.1 0.4 -1.2
v -1.8 0.4 -1.3
v -1.1 0.4 -1.3
v -1.8 0.6 -1.2
v -1.1 0.6 -1.2
v -1.8 0.6 -1.3
v -1.1 0.6 -1.3
v -1.6 0.8 -1.2
v -1.1 0.8 -1.2
v -1.6 0.8 -1.3
v -1.1 0.8 -1.3
v -1.6 1 -1.2
v -1.1 1 -1.2
v -1.6 1 -1.3
v -1.1 1 -1.3
v -1.6 1.2 -1.2
v -1.1 1.2 -1.2
v -1.6 1.2 -1.3
v -1.1 1.2 -1.3
v -1.6 1.4 -1.2
v -1.1 1.4 -1.2
v -1.6 1.4 -1.3
v -1.1 1.4 -1.3
v -1.9 1.7 -1.9
v -1.8 1.7 -1.9
v -1.2 1.7 -1.9
v -1.1 1.7 -1.9
v -1.9 1.7 -2
v -1.8 1.7 -2
v -1.2 1.7 -2
v -1.1 1.7 -2
v -1.8 0.3 -1.2
v -1.1 0.3 -1.2
v -1.8 0.3 -1.3
v -1.1 0.3 -1.3
v -1.8 0.5 -1.2
v -1.1 0.5 -1.2
v -1.8 0.5 -1.3
v -1.1 0.5 -1.3
v -1.6 0.7 -1.2
v -1.1 0.7 -1.2
v -1.6 0.7 -1.3
v -1.1 0.7 -1.3
v -1.6 0.9 -1.2
v -1.1 0.9 -1.2
v -1.6 0.9 -1.3
v -1.1 0.9 -1.3
v -1.6 1.1 -1.2
v -1.1 1.1 -1.2
v -1.6 1.1 -1.3
v -1.1 1.1 -1.3
v -1.6 1.3 -1.2
v -1.1 1.3 -1.2
v -1.6 1.3 -1.3
v -1.1 1.3 -1.3
v -1.9 1.5 -1.3
v -1.8 1.5 -1.3
v -1.7 1.5 -1.3
v -1.6 1.5 -1.3
v -1.5 1.5 -1.3
v -1.4 1.5 -1.3
v -1.3 1.5 -1.3
v -1.2 1.5 -1.3
v -1.1 1.5 -1.3
v -1.9 1.5 -1.4
v -1.8 1.5 -1.4
v -1.7 1.5 -1.4
v -1.6 1.5 -1.4
v -1.5 1.5 -1.4
v -1.4 1.5 -1.4
v -1.3 1.5 -1.4
v -1.2 1.5 -1.4
v -1.1 1.5 -1.4
v -1.9 1.5 -1.5
v -1.8 1.5 -1.5
v -1.7 1.5 -1.5
v -1.6 1.5 -1.5
v -1.5 1.5 -1.5
v -1.4 1.5 -1.5
v -1.3 1.5 -1.5
v -1.2 1.5 -1.5
v -1.1 1.5 -1.5
v -1.9 1.5 -1.6
v -1.8 1.5 -1.6
v -1.7 1.5 -1.6
v -1.6 1.5 -1.6
v -1.5 1.5 -1.6
v -1.4 1.5 -1.6
v -1.3 1.5 -1.6
v -1.2 1.5 -1.6
v -1.1 1.5 -1.6
v -1.9 1.5 -1.7
v -1.8 1.5 -1.7
v -1.7 1.5 -1.7
v -1.6 1.5 -1.7
v -1.5 1.5 -1.7
v -1.4 1.5 -1.7
v -1.3 1.5 -1.7
v -1.2 1.5 -1.7
v -1.1 1.5 -1.7
v -1.9 1.5 -1.8
v -1.8 1.5 -1.8
v -1.7 1.5 -1.8
v -1.6 1.5 -1.8
v -1.5 1.5 -1.8
v -1.4 1.5 -1.8
v -1.3 1.5 -1.8
v -1.2 1.5 -1.8
v -1.1 1.5 -1.8
v -2 1.6 -1.2
v -1 1.6 -1.2
v -1.9 1.6 -1.3
v -1.1 1.6 -1.3
v -1.9 1.6 -1.8
v -1.1 1.6 -1.8
v -1.9 1.6 -1.9
v -1.8 1.6 -1.9
v -1.2 1.6 -1.9
v -1.1 1.6 -1.9
v -2 1.6 -2
v -1.8 1.6 -2
v -1.2 1.6 -2
v -1 1.6 -2
v -1.9 2.2 -1.9
v -1.8 2.2 -1.9
v -1.2 2.2 -1.9
v -1.1 2.2 -1.9
v -1.9 2.2 -2
v -1.8 2.2 -2
v -1.2 2.2 -2
v -1.1 2.2 -2
v -1.9 2.3 -1.8
v -1.1 2.3 -1.8
v -1.9 2.3 -1.9
v -1.8 2.3 -1.9
v -1.2 2.3 -1.9
v -1.1 2.3 -1.9
v -1.8 2.3 -2
v -1.2 2.3 -2

# faces
f 5/5/1 2/5/1 1/5/1
f 6/5/1 4/5/1 3/5/1
f 7/5/1 5/5/1 1/5/1
f 7/5/1 6/5/1 5/5/1
f 8/5/1 4/5/1 6/5/1
f 8/5/1 6/5/1 7/5/1
f 11/5/1 10/5/1 9/5/1
f 13/5/1 11/5/1 9/5/1
f 13/5/1 12/5/1 11/5/1
f 14/5/1 12/5/1 13/5/1
f 15/5/1 13/5/1 9/5/1
f 16/5/1 13/5/1 15/5/1
f 19/5/1 18/5/1 17/5/1
f 20/5/1 18/5/1 19/5/1
f 23/5/1 22/5/1 21/5/1
f 24/5/1 22/5/1 23/5/1
f 29/5/1 26/5/1 25/5/1
f 30/5/1 26/5/1 29/5/1
f 31/5/1 28/5/1 27/5/1
f 32/5/1 28/5/1 31/5/1
f 35/5/1 34/5/1 33/5/1
f 36/5/1 34/5/1 35/5/1
f 39/5/1 38/5/1 37/5/1
f 40/5/1 38/5/1 39/5/1
f 43/5/1 42/5/1 41/5/1
f 44/5/1 42/5/1 43/5/1
f 47/5/1 46/5/1 45/5/1
f 48/5/1 46/5/1 47/5/1
f 51/5/1 50/5/1 49/5/1
f 52/5/1 50/5/1 51/5/1
f 55/5/1 54/5/1 53/5/1
f 56/5/1 54/5/1 55/5/1
f 63/5/1 58/5/1 57/5/1
f 63/5/1 62/5/1 61/5/1
f 63/5/1 61/5/1 60/5/1
f 63/5/1 60/5/1 59/5/1
f 63/5/1 59/5/1 58/5/1
f 64/5/1 62/5/1 63/5/1
f 65/5/2 66/5/2 69/5/2
f 69/5/2 66/5/2 70/5/2
f 67/5/2 68/5/2 71/5/2
f 71/5/2 68/5/2 72/5/2
f 73/5/2 74/5/2 79/5/2
f 77/5/2 78/5/2 79/5/2
f 76/5/2 77/5/2 79/5/2
f 75/5/2 76/5/2 79/5/2
f 74/5/2 75/5/2 79/5/2
f 79/5/2 78/5/2 80/5/2
f 81/5/2 82/5/2 83/5/2
f 83/5/2 82/5/2 84/5/2
f 85/5/2 86/5/2 87/5/2
f 87/5/2 86/5/2 88/5/2
f 89/5/2 90/5/2 91/5/2
f 91/5/2 90/5/2 92/5/2
f 93/5/2 94/5/2 95/5/2
f 95/5/2 94/5/2 96/5/2
f 97/5/2 98/5/2 99/5/2
f 99/5/2 98/5/2 100/5/2
f 101/5/2 102/5/2 103/5/2
f 103/5/2 102/5/2 104/5/2
f 105/5/2 106/5/2 107/5/2
f 107/5/2 106/5/2 108/5/2
f 109/5/2 110/5/2 111/5/2
f 111/5/2 110/5/2 112/5/2
f 113/5/2 114/5/2 115/5/2
f 113/5/2 115/5/2 117/5/2
f 115/5/2 116/5/2 117/5/2
f 117/5/2 116/5/2 118/5/2
f 113/5/2 117/5/2 119/5/2
f 119/5/2 117/5/2 120/5/2
f 121/5/2 122/5/2 125/5/2
f 123/5/2 124/5/2 126/5/2
f 121/5/2 125/5/2 127/5/2
f 125/5/2 126/5/2 127/5/2
f 126/5/2 124/5/2 128/5/2
f 127/5/2 126/5/2 128/5/2
f 131/5/3 130/5/3 129/5/3
f 132/5/3 130/5/3 131/5/3
f 133/5/3 130/5/3 132/5/3
f 134/5/3 130/5/3 133/5/3
f 135/5/3 130/5/3 134/5/3
f 136/5/3 130/5/3 135/5/3
f 137/5/3 130/5/3 136/5/3
f 138/5/3 130/5/3 137/5/3
f 139/5/3 130/5/3 138/5/3
f 140/5/3 130/5/3 139/5/3
f 141/5/3 130/5/3 140/5/3
f 142/5/3 130/5/3 141/5/3
f 143/5/3 130/5/3 142/5/3
f 144/5/3 130/5/3 143/5/3
f 145/5/3 137/5/3 136/5/3
f 145/1/3 138/1/3 137/1/3
f 146/5/3 139/5/3 138/5/3
f 146/1/3 138/1/3 145/1/3
f 147/1/3 140/1/3 139/1/3
f 147/5/3 139/5/3 146/5/3
f 148/5/3 141/5/3 140/5/3
f 148/1/3 140/1/3 147/1/3
f 149/2/3 142/2/3 141/2/3
f 149/5/3 141/5/3 148/5/3
f 150/5/3 143/5/3 142/5/3
f 150/2/3 142/2/3 149/2/3
f 151/1/3 144/1/3 143/1/3
f 151/5/3 143/5/3 150/5/3
f 152/5/3 130/5/3 144/5/3
f 152/1/3 144/1/3 151/1/3
f 153/5/3 151/5/3 150/5/3
f 153/5/3 150/5/3 149/5/3
f 153/5/3 152/5/3 151/5/3
f 153/5/3 147/5/3 146/5/3
f 153/5/3 146/5/3 145/5/3
f 153/5/3 145/5/3 136/5/3
f 153/5/3 148/5/3 147/5/3
f 153/5/3 149/5/3 148/5/3
f 154/5/3 152/5/3 153/5/3
f 155/5/3 152/5/3 154/5/3
f 156/5/3 152/5/3 155/5/3
f 157/5/3 152/5/3 156/5/3
f 158/5/3 152/5/3 157/5/3
f 159/5/3 152/5/3 158/5/3
f 160/5/3 130/5/3 152/5/3
f 160/5/3 152/5/3 159/5/3
f 162/5/3 133/5/3 132/5/3
f 163/5/3 133/5/3 162/5/3
f 164/5/3 135/5/3 134/5/3
f 165/5/3 135/5/3 164/5/3
f 166/5/3 153/5/3 136/5/3
f 167/5/3 153/5/3 166/5/3
f 168/5/3 155/5/3 154/5/3
f 169/5/3 155/5/3 168/5/3
f 170/5/3 157/5/3 156/5/3
f 171/5/3 157/5/3 170/5/3
f 172/5/3 159/5/3 158/5/3
f 173/5/3 159/5/3 172/5/3
f 174/5/3 130/5/3 160/5/3
f 175/5/3 169/5/3 168/5/3
f 175/5/3 174/5/3 173/5/3
f 175/5/3 171/5/3 170/5/3
f 175/5/3 163/5/3 162/5/3
f 175/5/3 172/5/3 171/5/3
f 175/5/3 165/5/3 164/5/3
f 175/5/3 170/5/3 169/5/3
f 175/5/3 173/5/3 172/5/3
f 175/5/3 168/5/3 167/5/3
f 175/5/3 167/5/3 166/5/3
f 175/5/3 166/5/3 165/5/3
f 175/5/3 162/5/3 161/5/3
f 175/5/3 164/5/3 163/5/3
f 176/5/3 130/5/3 174/5/3
f 176/5/3 174/5/3 175/5/3
f 189/4/3 178/4/3 177/4/3
f 190/4/3 178/4/3 189/4/3
f 191/4/3 180/4/3 179/4/3
f 192/4/3 180/4/3 191/4/3
f 193/4/3 182/4/3 181/4/3
f 194/4/3 182/4/3 193/4/3
f 195/4/3 184/4/3 183/4/3
f 196/4/3 184/4/3 195/4/3
f 197/4/3 186/4/3 185/4/3
f 198/4/3 186/4/3 197/4/3
f 199/4/3 188/4/3 187/4/3
f 200/4/3 188/4/3 199/4/3
f 204/5/3 202/5/3 201/5/3
f 204/5/3 203/5/3 202/5/3
f 205/5/3 203/5/3 204/5/3
f 206/5/3 203/5/3 205/5/3
f 207/5/3 205/5/3 204/5/3
f 208/5/3 205/5/3 207/5/3
f 209/5/3 205/5/3 208/5/3
f 210/5/3 205/5/3 209/5/3
f 211/5/3 205/5/3 210/5/3
f 212/5/3 205/5/3 211/5/3
f 213/3/3 206/3/3 205/3/3
f 213/5/3 205/5/3 212/5/3
f 214/5/3 203/5/3 206/5/3
f 214/3/3 206/3/3 213/3/3
f 215/5/3 213/5/3 212/5/3
f 215/5/3 214/5/3 213/5/3
f 216/5/3 214/5/3 215/5/3
f 217/5/3 203/5/3 214/5/3
f 217/5/3 214/5/3 216/5/3
f 220/5/3 219/5/3 218/5/3
f 221/5/3 219/5/3 220/5/3
f 224/5/3 223/5/3 222/5/3
f 225/5/3 223/5/3 224/5/3
f 226/5/4 227/5/4 228/5/4
f 228/5/4 227/5/4 229/5/4
f 230/5/4 231/5/4 232/5/4
f 232/5/4 231/5/4 233/5/4
f 233/5/4 231/5/4 234/5/4
f 234/5/4 231/5/4 235/5/4
f 235/5/4 231/5/4 236/5/4
f 236/5/4 231/5/4 237/5/4
f 237/5/4 231/5/4 238/5/4
f 238/5/4 231/5/4 241/5/4
f 241/5/4 231/5/4 242/5/4
f 239/5/4 240/5/4 243/5/4
f 243/5/4 240/5/4 244/5/4
f 245/5/4 246/5/4 249/5/4
f 249/5/4 246/5/4 250/5/4
f 247/5/4 248/5/4 251/5/4
f 251/5/4 248/5/4 252/5/4
f 253/5/4 254/5/4 257/5/4
f 257/5/4 254/5/4 258/5/4
f 255/5/4 256/5/4 259/5/4
f 259/5/4 256/5/4 260/5/4
f 261/5/4 262/5/4 263/5/4
f 263/5/4 262/5/4 264/5/4
f 264/5/4 262/5/4 267/5/4
f 265/5/4 266/5/4 268/5/4
f 268/5/4 266/5/4 269/5/4
f 264/5/4 267/5/4 271/5/4
f 269/5/4 270/5/4 271/5/4
f 268/5/4 269/5/4 271/5/4
f 267/5/4 268/5/4 271/5/4
f 271/5/4 270/5/4 272/5/4
f 272/5/4 270/5/4 273/5/4
f 273/5/4 270/5/4 274/5/4
f 264/5/4 271/5/4 276/5/4
f 272/5/4 273/5/4 277/5/4
f 277/5/4 273/5/4 278/5/4
f 275/5/4 276/5/4 279/5/4
f 276/5/4 271/5/4 280/5/4
f 279/5/4 276/5/4 280/5/4
f 285/5/5 282/5/5 281/5/5
f 286/5/5 282/5/5 285/5/5
f 287/5/5 284/5/5 283/5/5
f 288/5/5 284/5/5 287/5/5
f 293/5/5 290/5/5 289/5/5
f 294/5/5 290/5/5 293/5/5
f 295/5/5 292/5/5 291/5/5
f 296/5/5 292/5/5 295/5/5
f 300/5/5 298/5/5 297/5/5
f 301/5/5 298/5/5 300/5/5
f 303/5/5 300/5/5 299/5/5
f 303/5/5 302/5/5 301/5/5
f 303/5/5 301/5/5 300/5/5
f 304/5/5 302/5/5 303/5/5
f 305/5/5 302/5/5 304/5/5
f 306/5/5 302/5/5 305/5/5
f 307/5/5 305/5/5 304/5/5
f 308/5/5 305/5/5 307/5/5
f 311/5/5 310/5/5 309/5/5
f 312/5/5 310/5/5 311/5/5
f 315/5/5 314/5/5 313/5/5
f 316/5/5 314/5/5 315/5/5
f 319/5/5 318/5/5 317/5/5
f 320/5/5 318/5/5 319/5/5
f 323/5/5 322/5/5 321/5/5
f 324/5/5 322/5/5 323/5/5
f 327/5/5 326/5/5 325/5/5
f 328/5/5 326/5/5 327/5/5
f 331/5/5 330/5/5 329/5/5
f 332/5/5 330/5/5 331/5/5
f 337/5/5 334/5/5 333/5/5
f 338/5/5 334/5/5 337/5/5
f 339/5/5 336/5/5 335/5/5
f 340/5/5 336/5/5 339/5/5
f 341/5/6 342/5/6 343/5/6
f 343/5/6 342/5/6 344/5/6
f 345/5/6 346/5/6 347/5/6
f 347/5/6 346/5/6 348/5/6
f 349/5/6 350/5/6 351/5/6
f 351/5/6 350/5/6 352/5/6
f 353/5/6 354/5/6 355/5/6
f 355/5/6 354/5/6 356/5/6
f 357/5/6 358/5/6 359/5/6
f 359/5/6 358/5/6 360/5/6
f 361/5/6 362/5/6 363/5/6
f 363/5/6 362/5/6 364/5/6
f 365/4/6 366/4/6 374/4/6
f 366/5/6 367/5/6 375/5/6
f 374/4/6 366/4/6 375/4/6
f 367/4/6 368/4/6 376/4/6
f 375/5/6 367/5/6 376/5/6
f 368/5/6 369/5/6 377/5/6
f 376/4/6 368/4/6 377/4/6
f 369/4/6 370/4/6 378/4/6
f 377/5/6 369/5/6 378/5/6
f 370/5/6 371/5/6 379/5/6
f 378/4/6 370/4/6 379/4/6
f 371/4/6 372/4/6 380/4/6
f 379/5/6 371/5/6 380/5/6
f 372/5/6 373/5/6 381/5/6
f 380/4/6 372/4/6 381/4/6
f 381/5/6 373/5/6 382/5/6
f 374/5/6 375/5/6 383/5/6
f 375/4/6 376/4/6 384/4/6
f 383/5/6 375/5/6 384/5/6
f 376/5/6 377/5/6 385/5/6
f 384/4/6 376/4/6 385/4/6
f 377/4/6 378/4/6 386/4/6
f 385/5/6 377/5/6 386/5/6
f 378/5/6 379/5/6 387/5/6
f 386/4/6 378/4/6 387/4/6
f 379/4/6 380/4/6 388/4/6
f 387/5/6 379/5/6 388/5/6
f 380/5/6 381/5/6 389/5/6
f 388/4/6 380/4/6 389/4/6
f 381/4/6 382/4/6 390/4/6
f 389/5/6 381/5/6 390/5/6
f 390/4/6 382/4/6 391/4/6
f 383/4/6 384/4/6 392/4/6
f 384/5/6 385/5/6 393/5/6
f 392/4/6 384/4/6 393/4/6
f 385/4/6 386/4/6 394/4/6
f 393/5/6 385/5/6 394/5/6
f 386/5/6 387/5/6 395/5/6
f 394/4/6 386/4/6 395/4/6
f 387/4/6 388/4/6 396/4/6
f 395/5/6 387/5/6 396/5/6
f 388/5/6 389/5/6 397/5/6
f 396/4/6 388/4/6 397/4/6
f 389/4/6 390/4/6 398/4/6
f 397/5/6 389/5/6 398/5/6
f 390/5/6 391/5/6 399/5/6
f 398/4/6 390/4/6 399/4/6
f 399/5/6 391/5/6 400/5/6
f 392/5/6 393/5/6 401/5/6
f 393/4/6 394/4/6 402/4/6
f 401/5/6 393/5/6 402/5/6
f 394/5/6 395/5/6 403/5/6
f 402/4/6 394/4/6 403/4/6
f 395/4/6 396/4/6 404/4/6
f 403/5/6 395/5/6 404/5/6
f 396/5/6 397/5/6 405/5/6
f 404/4/6 396/4/6 405/4/6
f 397/4/6 398/4/6 406/4/6
f 405/5/6 397/5/6 406/5/6
f 398/5/6 399/5/6 407/5/6
f 406/4/6 398/4/6 407/4/6
f 399/4/6 400/4/6 408/4/6
f 407/5/6 399/5/6 408/5/6
f 408/4/6 400/4/6 409/4/6
f 401/4/6 402/4/6 410/4/6
f 402/5/6 403/5/6 411/5/6
f 410/4/6 402/4/6 411/4/6
f 403/4/6 404/4/6 412/4/6
f 411/5/6 403/5/6 412/5/6
f 404/5/6 405/5/6 413/5/6
f 412/4/6 404/4/6 413/4/6
f 405/4/6 406/4/6 414/4/6
f 413/5/6 405/5/6 414/5/6
f 406/5/6 407/5/6 415/5/6
f 414/4/6 406/4/6 415/4/6
f 407/4/6 408/4/6 416/4/6
f 415/5/6 407/5/6 416/5/6
f 408/5/6 409/5/6 417/5/6
f 416/4/6 408/4/6 417/4/6
f 417/5/6 409/5/6 418/5/6
f 419/5/6 420/5/6 421/5/6
f 421/5/6 420/5/6 422/5/6
f 419/5/6 421/5/6 423/5/6
f 422/5/6 420/5/6 424/5/6
f 419/5/6 423/5/6 425/5/6
f 424/5/6 420/5/6 428/5/6
f 425/5/6 426/5/6 429/5/6
f 419/5/6 425/5/6 429/5/6
f 429/5/6 426/5/6 430/5/6
f 427/5/6 428/5/6 431/5/6
f 428/5/6 420/5/6 432/5/6
f 431/5/6 428/5/6 432/5/6
f 433/5/6 434/5/6 437/5/6
f 437/5/6 434/5/6 438/5/6
f 435/5/6 436/5/6 439/5/6
f 439/5/6 436/5/6 440/5/6
f 441/5/6 442/5/6 443/5/6
f 443/5/6 442/5/6 444/5/6
f 444/5/6 442/5/6 445/5/6
f 445/5/6 442/5/6 446/5/6
f 444/5/6 445/5/6 447/5/6
f 447/5/6 445/5/6 448/5/6
