# MagicaVoxel @ Ephtracy

# group
o 

# material
mtllib Uprav_canter_draft-0.mtl
usemtl palette

# normals
vn -1 0 0
vn 1 0 0
vn 0 0 1
vn 0 0 -1
vn 0 -1 0
vn 0 1 0

# texcoords
vt 0.916016 0.5
vt 0.986328 0.5

# verts
v -0.4 0.7 0.8
v -0.4 0.7 0.7
v -0.4 0.7 -0.5
v -0.4 0.7 -1
v -0.4 0.8 0.8
v -0.4 0.8 0.7
v -0.4 0.8 -0.5
v -0.4 0.8 -1
v -0.4 0.9 0.6
v -0.4 0.9 0.5
v -0.4 0.9 -0.7
v -0.4 0.9 -1
v -0.4 1 0.6
v -0.4 1 0.5
v -0.4 1 0.4
v -0.4 1 0.3
v -0.4 1 -0.7
v -0.4 1 -1
v -0.4 1.1 0.4
v -0.4 1.1 0.3
v -0.4 1.1 0.2
v -0.4 1.1 0.1
v -0.4 1.1 -0.4
v -0.4 1.1 -1
v -0.4 1.2 0.2
v -0.4 1.2 0.1
v -0.4 1.2 -0.4
v -0.4 1.2 -1
v -0.4 1.4 0.8
v -0.4 1.4 0.3
v -0.4 1.5 0.8
v -0.4 1.5 0.3
v -0.4 1.5 -0.6
v -0.4 1.5 -0.7
v -0.4 1.5 -0.9
v -0.4 1.5 -1
v -0.4 1.6 0.8
v -0.4 1.6 0.4
v -0.4 1.6 -0.6
v -0.4 1.6 -0.7
v -0.4 1.6 -0.9
v -0.4 1.6 -1
v -0.4 1.7 0.8
v -0.4 1.7 0.4
v -0.4 1.8 0.8
v -0.4 1.8 0.3
v -0.4 1.8 -0.3
v -0.4 1.8 -0.4
v -0.4 1.8 -0.5
v -0.4 1.8 -0.6
v -0.4 1.8 -0.7
v -0.4 1.8 -0.8
v -0.4 1.8 -0.9
v -0.4 1.8 -1
v -0.4 1.9 0.8
v -0.4 1.9 0.3
v -0.4 1.9 -0.3
v -0.4 1.9 -0.4
v -0.4 1.9 -0.5
v -0.4 1.9 -0.6
v -0.4 1.9 -0.7
v -0.4 1.9 -0.8
v -0.4 1.9 -0.9
v -0.4 1.9 -1
v -0.3 0.6 0.9
v -0.3 0.6 -1.1
v -0.3 0.7 0.8
v -0.3 0.7 0.7
v -0.3 0.7 -0.5
v -0.3 0.7 -1
v -0.3 0.8 0.8
v -0.3 0.8 0.7
v -0.3 0.8 -0.5
v -0.3 0.8 -1
v -0.3 0.9 0.6
v -0.3 0.9 0.5
v -0.3 0.9 -0.7
v -0.3 0.9 -1
v -0.3 1 0.6
v -0.3 1 0.5
v -0.3 1 0.4
v -0.3 1 0.3
v -0.3 1 -0.7
v -0.3 1 -1
v -0.3 1.1 0.4
v -0.3 1.1 0.3
v -0.3 1.1 0.2
v -0.3 1.1 0.1
v -0.3 1.1 -0.4
v -0.3 1.1 -1
v -0.3 1.2 0.2
v -0.3 1.2 0.1
v -0.3 1.2 -0.4
v -0.3 1.2 -1
v -0.3 1.4 0.8
v -0.3 1.4 0.3
v -0.3 1.5 0.8
v -0.3 1.5 0.3
v -0.3 1.5 -0.6
v -0.3 1.5 -0.7
v -0.3 1.5 -0.9
v -0.3 1.5 -1
v -0.3 1.6 0.8
v -0.3 1.6 0.4
v -0.3 1.6 -0.6
v -0.3 1.6 -0.7
v -0.3 1.6 -0.9
v -0.3 1.6 -1
v -0.3 1.7 0.8
v -0.3 1.7 0.4
v -0.3 1.8 0.8
v -0.3 1.8 0.3
v -0.3 1.8 -0.3
v -0.3 1.8 -0.4
v -0.3 1.8 -0.5
v -0.3 1.8 -0.6
v -0.3 1.8 -0.7
v -0.3 1.8 -0.8
v -0.3 1.8 -0.9
v -0.3 1.8 -1
v -0.3 1.9 0.8
v -0.3 1.9 0.3
v -0.3 1.9 -0.3
v -0.3 1.9 -0.4
v -0.3 1.9 -0.5
v -0.3 1.9 -0.6
v -0.3 1.9 -0.7
v -0.3 1.9 -0.8
v -0.3 1.9 -0.9
v -0.3 1.9 -1
v -0.3 2 0.9
v -0.3 2 -1.1
v -0.2 0.6 0.9
v -0.2 0.6 -1.1
v -0.2 2 0.9
v -0.2 2 -1.1
v -0.3 0.6 0.9
v -0.3 2 0.9
v -0.2 0.6 0.9
v -0.2 2 0.9
v -0.4 0.7 0.8
v -0.4 0.8 0.8
v -0.4 1.4 0.8
v -0.4 1.5 0.8
v -0.4 1.6 0.8
v -0.4 1.7 0.8
v -0.4 1.8 0.8
v -0.4 1.9 0.8
v -0.3 0.7 0.8
v -0.3 0.8 0.8
v -0.3 1.4 0.8
v -0.3 1.5 0.8
v -0.3 1.6 0.8
v -0.3 1.7 0.8
v -0.3 1.8 0.8
v -0.3 1.9 0.8
v -0.4 0.9 0.6
v -0.4 1 0.6
v -0.3 0.9 0.6
v -0.3 1 0.6
v -0.4 1 0.4
v -0.4 1.1 0.4
v -0.3 1 0.4
v -0.3 1.1 0.4
v -0.4 1.1 0.2
v -0.4 1.2 0.2
v -0.3 1.1 0.2
v -0.3 1.2 0.2
v -0.4 1.8 -0.3
v -0.4 1.9 -0.3
v -0.3 1.8 -0.3
v -0.3 1.9 -0.3
v -0.4 1.1 -0.4
v -0.4 1.2 -0.4
v -0.3 1.1 -0.4
v -0.3 1.2 -0.4
v -0.4 0.7 -0.5
v -0.4 0.8 -0.5
v -0.4 1.8 -0.5
v -0.4 1.9 -0.5
v -0.3 0.7 -0.5
v -0.3 0.8 -0.5
v -0.3 1.8 -0.5
v -0.3 1.9 -0.5
v -0.4 1.5 -0.6
v -0.4 1.6 -0.6
v -0.3 1.5 -0.6
v -0.3 1.6 -0.6
v -0.4 0.9 -0.7
v -0.4 1 -0.7
v -0.4 1.8 -0.7
v -0.4 1.9 -0.7
v -0.3 0.9 -0.7
v -0.3 1 -0.7
v -0.3 1.8 -0.7
v -0.3 1.9 -0.7
v -0.4 1.5 -0.9
v -0.4 1.6 -0.9
v -0.4 1.8 -0.9
v -0.4 1.9 -0.9
v -0.3 1.5 -0.9
v -0.3 1.6 -0.9
v -0.3 1.8 -0.9
v -0.3 1.9 -0.9
v -0.4 0.7 0.7
v -0.4 0.8 0.7
v -0.3 0.7 0.7
v -0.3 0.8 0.7
v -0.4 0.9 0.5
v -0.4 1 0.5
v -0.3 0.9 0.5
v -0.3 1 0.5
v -0.4 1.6 0.4
v -0.4 1.7 0.4
v -0.3 1.6 0.4
v -0.3 1.7 0.4
v -0.4 1 0.3
v -0.4 1.1 0.3
v -0.4 1.4 0.3
v -0.4 1.5 0.3
v -0.4 1.8 0.3
v -0.4 1.9 0.3
v -0.3 1 0.3
v -0.3 1.1 0.3
v -0.3 1.4 0.3
v -0.3 1.5 0.3
v -0.3 1.8 0.3
v -0.3 1.9 0.3
v -0.4 1.1 0.1
v -0.4 1.2 0.1
v -0.3 1.1 0.1
v -0.3 1.2 0.1
v -0.4 1.8 -0.4
v -0.4 1.9 -0.4
v -0.3 1.8 -0.4
v -0.3 1.9 -0.4
v -0.4 1.8 -0.6
v -0.4 1.9 -0.6
v -0.3 1.8 -0.6
v -0.3 1.9 -0.6
v -0.4 1.5 -0.7
v -0.4 1.6 -0.7
v -0.3 1.5 -0.7
v -0.3 1.6 -0.7
v -0.4 1.8 -0.8
v -0.4 1.9 -0.8
v -0.3 1.8 -0.8
v -0.3 1.9 -0.8
v -0.4 0.7 -1
v -0.4 0.8 -1
v -0.4 0.9 -1
v -0.4 1 -1
v -0.4 1.1 -1
v -0.4 1.2 -1
v -0.4 1.5 -1
v -0.4 1.6 -1
v -0.4 1.8 -1
v -0.4 1.9 -1
v -0.3 0.7 -1
v -0.3 0.8 -1
v -0.3 0.9 -1
v -0.3 1 -1
v -0.3 1.1 -1
v -0.3 1.2 -1
v -0.3 1.5 -1
v -0.3 1.6 -1
v -0.3 1.8 -1
v -0.3 1.9 -1
v -0.3 0.6 -1.1
v -0.3 2 -1.1
v -0.2 0.6 -1.1
v -0.2 2 -1.1
v -0.3 0.6 0.9
v -0.2 0.6 0.9
v -0.3 0.6 -1.1
v -0.2 0.6 -1.1
v -0.4 0.7 0.8
v -0.3 0.7 0.8
v -0.4 0.7 0.7
v -0.3 0.7 0.7
v -0.4 0.7 -0.5
v -0.3 0.7 -0.5
v -0.4 0.7 -1
v -0.3 0.7 -1
v -0.4 0.9 0.6
v -0.3 0.9 0.6
v -0.4 0.9 0.5
v -0.3 0.9 0.5
v -0.4 0.9 -0.7
v -0.3 0.9 -0.7
v -0.4 0.9 -1
v -0.3 0.9 -1
v -0.4 1 0.4
v -0.3 1 0.4
v -0.4 1 0.3
v -0.3 1 0.3
v -0.4 1.1 0.2
v -0.3 1.1 0.2
v -0.4 1.1 0.1
v -0.3 1.1 0.1
v -0.4 1.1 -0.4
v -0.3 1.1 -0.4
v -0.4 1.1 -1
v -0.3 1.1 -1
v -0.4 1.4 0.8
v -0.3 1.4 0.8
v -0.4 1.4 0.3
v -0.3 1.4 0.3
v -0.4 1.5 -0.6
v -0.3 1.5 -0.6
v -0.4 1.5 -0.7
v -0.3 1.5 -0.7
v -0.4 1.5 -0.9
v -0.3 1.5 -0.9
v -0.4 1.5 -1
v -0.3 1.5 -1
v -0.4 1.6 0.8
v -0.3 1.6 0.8
v -0.4 1.6 0.4
v -0.3 1.6 0.4
v -0.4 1.8 0.8
v -0.3 1.8 0.8
v -0.4 1.8 0.3
v -0.3 1.8 0.3
v -0.4 1.8 -0.3
v -0.3 1.8 -0.3
v -0.4 1.8 -0.4
v -0.3 1.8 -0.4
v -0.4 1.8 -0.5
v -0.3 1.8 -0.5
v -0.4 1.8 -0.6
v -0.3 1.8 -0.6
v -0.4 1.8 -0.7
v -0.3 1.8 -0.7
v -0.4 1.8 -0.8
v -0.3 1.8 -0.8
v -0.4 1.8 -0.9
v -0.3 1.8 -0.9
v -0.4 1.8 -1
v -0.3 1.8 -1
v -0.4 0.8 0.8
v -0.3 0.8 0.8
v -0.4 0.8 0.7
v -0.3 0.8 0.7
v -0.4 0.8 -0.5
v -0.3 0.8 -0.5
v -0.4 0.8 -1
v -0.3 0.8 -1
v -0.4 1 0.6
v -0.3 1 0.6
v -0.4 1 0.5
v -0.3 1 0.5
v -0.4 1 -0.7
v -0.3 1 -0.7
v -0.4 1 -1
v -0.3 1 -1
v -0.4 1.1 0.4
v -0.3 1.1 0.4
v -0.4 1.1 0.3
v -0.3 1.1 0.3
v -0.4 1.2 0.2
v -0.3 1.2 0.2
v -0.4 1.2 0.1
v -0.3 1.2 0.1
v -0.4 1.2 -0.4
v -0.3 1.2 -0.4
v -0.4 1.2 -1
v -0.3 1.2 -1
v -0.4 1.5 0.8
v -0.3 1.5 0.8
v -0.4 1.5 0.3
v -0.3 1.5 0.3
v -0.4 1.6 -0.6
v -0.3 1.6 -0.6
v -0.4 1.6 -0.7
v -0.3 1.6 -0.7
v -0.4 1.6 -0.9
v -0.3 1.6 -0.9
v -0.4 1.6 -1
v -0.3 1.6 -1
v -0.4 1.7 0.8
v -0.3 1.7 0.8
v -0.4 1.7 0.4
v -0.3 1.7 0.4
v -0.4 1.9 0.8
v -0.3 1.9 0.8
v -0.4 1.9 0.3
v -0.3 1.9 0.3
v -0.4 1.9 -0.3
v -0.3 1.9 -0.3
v -0.4 1.9 -0.4
v -0.3 1.9 -0.4
v -0.4 1.9 -0.5
v -0.3 1.9 -0.5
v -0.4 1.9 -0.6
v -0.3 1.9 -0.6
v -0.4 1.9 -0.7
v -0.3 1.9 -0.7
v -0.4 1.9 -0.8
v -0.3 1.9 -0.8
v -0.4 1.9 -0.9
v -0.3 1.9 -0.9
v -0.4 1.9 -1
v -0.3 1.9 -1
v -0.3 2 0.9
v -0.2 2 0.9
v -0.3 2 -1.1
v -0.2 2 -1.1

# faces
f 5/1/1 2/1/1 1/1/1
f 6/1/1 2/1/1 5/1/1
f 7/1/1 4/1/1 3/1/1
f 8/1/1 4/1/1 7/1/1
f 13/1/1 10/1/1 9/1/1
f 14/1/1 10/1/1 13/1/1
f 17/1/1 12/1/1 11/1/1
f 18/1/1 12/1/1 17/1/1
f 19/1/1 16/1/1 15/1/1
f 20/1/1 16/1/1 19/1/1
f 25/1/1 22/1/1 21/1/1
f 26/1/1 22/1/1 25/1/1
f 27/1/1 24/1/1 23/1/1
f 28/1/1 24/1/1 27/1/1
f 31/1/1 30/1/1 29/1/1
f 32/1/1 30/1/1 31/1/1
f 39/1/1 34/1/1 33/1/1
f 40/1/1 34/1/1 39/1/1
f 41/1/1 36/1/1 35/1/1
f 42/1/1 36/1/1 41/1/1
f 43/1/1 38/1/1 37/1/1
f 44/1/1 38/1/1 43/1/1
f 55/1/1 46/1/1 45/1/1
f 56/1/1 46/1/1 55/1/1
f 57/1/1 48/1/1 47/1/1
f 58/1/1 48/1/1 57/1/1
f 59/1/1 50/1/1 49/1/1
f 60/1/1 50/1/1 59/1/1
f 61/1/1 52/1/1 51/1/1
f 62/1/1 52/1/1 61/1/1
f 63/1/1 54/1/1 53/1/1
f 64/1/1 54/1/1 63/1/1
f 67/2/1 66/2/1 65/2/1
f 68/2/1 66/2/1 67/2/1
f 69/2/1 66/2/1 68/2/1
f 70/2/1 66/2/1 69/2/1
f 71/2/1 67/2/1 65/2/1
f 72/2/1 69/2/1 68/2/1
f 73/2/1 69/2/1 72/2/1
f 74/2/1 66/2/1 70/2/1
f 75/2/1 73/2/1 72/2/1
f 75/2/1 74/2/1 73/2/1
f 75/2/1 72/2/1 71/2/1
f 76/2/1 74/2/1 75/2/1
f 77/2/1 74/2/1 76/2/1
f 78/2/1 66/2/1 74/2/1
f 78/2/1 74/2/1 77/2/1
f 79/2/1 75/2/1 71/2/1
f 80/2/1 77/2/1 76/2/1
f 81/2/1 77/2/1 80/2/1
f 82/2/1 77/2/1 81/2/1
f 83/2/1 77/2/1 82/2/1
f 84/2/1 66/2/1 78/2/1
f 85/2/1 80/2/1 79/2/1
f 85/2/1 81/2/1 80/2/1
f 86/2/1 83/2/1 82/2/1
f 86/2/1 84/2/1 83/2/1
f 87/2/1 84/2/1 86/2/1
f 88/2/1 84/2/1 87/2/1
f 89/2/1 84/2/1 88/2/1
f 90/2/1 66/2/1 84/2/1
f 90/2/1 84/2/1 89/2/1
f 91/2/1 86/2/1 85/2/1
f 91/2/1 87/2/1 86/2/1
f 92/2/1 89/2/1 88/2/1
f 93/2/1 89/2/1 92/2/1
f 94/2/1 66/2/1 90/2/1
f 95/2/1 79/2/1 71/2/1
f 95/2/1 94/2/1 93/2/1
f 95/2/1 71/2/1 65/2/1
f 95/2/1 85/2/1 79/2/1
f 95/2/1 92/2/1 91/2/1
f 95/2/1 91/2/1 85/2/1
f 95/2/1 93/2/1 92/2/1
f 96/2/1 94/2/1 95/2/1
f 97/2/1 95/2/1 65/2/1
f 98/2/1 94/2/1 96/2/1
f 99/2/1 94/2/1 98/2/1
f 100/2/1 94/2/1 99/2/1
f 101/2/1 94/2/1 100/2/1
f 102/2/1 66/2/1 94/2/1
f 102/2/1 94/2/1 101/2/1
f 103/2/1 97/2/1 65/2/1
f 103/2/1 98/2/1 97/2/1
f 103/2/1 99/2/1 98/2/1
f 104/2/1 99/2/1 103/2/1
f 105/2/1 99/2/1 104/2/1
f 106/2/1 101/2/1 100/2/1
f 107/2/1 101/2/1 106/2/1
f 108/2/1 66/2/1 102/2/1
f 109/2/1 103/2/1 65/2/1
f 110/2/1 105/2/1 104/2/1
f 110/2/1 107/2/1 106/2/1
f 110/2/1 108/2/1 107/2/1
f 110/2/1 106/2/1 105/2/1
f 111/2/1 109/2/1 65/2/1
f 111/2/1 110/2/1 109/2/1
f 112/2/1 108/2/1 110/2/1
f 112/2/1 110/2/1 111/2/1
f 113/2/1 108/2/1 112/2/1
f 114/2/1 108/2/1 113/2/1
f 115/2/1 108/2/1 114/2/1
f 116/2/1 108/2/1 115/2/1
f 117/2/1 108/2/1 116/2/1
f 118/2/1 108/2/1 117/2/1
f 119/2/1 108/2/1 118/2/1
f 120/2/1 66/2/1 108/2/1
f 120/2/1 108/2/1 119/2/1
f 121/2/1 111/2/1 65/2/1
f 122/2/1 113/2/1 112/2/1
f 123/2/1 113/2/1 122/2/1
f 124/2/1 115/2/1 114/2/1
f 125/2/1 115/2/1 124/2/1
f 126/2/1 117/2/1 116/2/1
f 127/2/1 117/2/1 126/2/1
f 128/2/1 119/2/1 118/2/1
f 129/2/1 119/2/1 128/2/1
f 130/2/1 66/2/1 120/2/1
f 131/2/1 129/2/1 128/2/1
f 131/2/1 130/2/1 129/2/1
f 131/2/1 127/2/1 126/2/1
f 131/2/1 125/2/1 124/2/1
f 131/2/1 128/2/1 127/2/1
f 131/2/1 121/2/1 65/2/1
f 131/2/1 126/2/1 125/2/1
f 131/2/1 123/2/1 122/2/1
f 131/2/1 124/2/1 123/2/1
f 131/2/1 122/2/1 121/2/1
f 132/2/1 66/2/1 130/2/1
f 132/2/1 130/2/1 131/2/1
f 133/2/2 134/2/2 135/2/2
f 135/2/2 134/2/2 136/2/2
f 139/2/3 138/2/3 137/2/3
f 140/2/3 138/2/3 139/2/3
f 149/1/3 142/1/3 141/1/3
f 150/1/3 142/1/3 149/1/3
f 151/1/3 144/1/3 143/1/3
f 152/1/3 144/1/3 151/1/3
f 153/1/3 146/1/3 145/1/3
f 154/1/3 146/1/3 153/1/3
f 155/1/3 148/1/3 147/1/3
f 156/1/3 148/1/3 155/1/3
f 159/1/3 158/1/3 157/1/3
f 160/1/3 158/1/3 159/1/3
f 163/1/3 162/1/3 161/1/3
f 164/1/3 162/1/3 163/1/3
f 167/1/3 166/1/3 165/1/3
f 168/1/3 166/1/3 167/1/3
f 171/1/3 170/1/3 169/1/3
f 172/1/3 170/1/3 171/1/3
f 175/1/3 174/1/3 173/1/3
f 176/1/3 174/1/3 175/1/3
f 181/1/3 178/1/3 177/1/3
f 182/1/3 178/1/3 181/1/3
f 183/1/3 180/1/3 179/1/3
f 184/1/3 180/1/3 183/1/3
f 187/1/3 186/1/3 185/1/3
f 188/1/3 186/1/3 187/1/3
f 193/1/3 190/1/3 189/1/3
f 194/1/3 190/1/3 193/1/3
f 195/1/3 192/1/3 191/1/3
f 196/1/3 192/1/3 195/1/3
f 201/1/3 198/1/3 197/1/3
f 202/1/3 198/1/3 201/1/3
f 203/1/3 200/1/3 199/1/3
f 204/1/3 200/1/3 203/1/3
f 205/1/4 206/1/4 207/1/4
f 207/1/4 206/1/4 208/1/4
f 209/1/4 210/1/4 211/1/4
f 211/1/4 210/1/4 212/1/4
f 213/1/4 214/1/4 215/1/4
f 215/1/4 214/1/4 216/1/4
f 217/1/4 218/1/4 223/1/4
f 223/1/4 218/1/4 224/1/4
f 219/1/4 220/1/4 225/1/4
f 225/1/4 220/1/4 226/1/4
f 221/1/4 222/1/4 227/1/4
f 227/1/4 222/1/4 228/1/4
f 229/1/4 230/1/4 231/1/4
f 231/1/4 230/1/4 232/1/4
f 233/1/4 234/1/4 235/1/4
f 235/1/4 234/1/4 236/1/4
f 237/1/4 238/1/4 239/1/4
f 239/1/4 238/1/4 240/1/4
f 241/1/4 242/1/4 243/1/4
f 243/1/4 242/1/4 244/1/4
f 245/1/4 246/1/4 247/1/4
f 247/1/4 246/1/4 248/1/4
f 249/1/4 250/1/4 259/1/4
f 259/1/4 250/1/4 260/1/4
f 251/1/4 252/1/4 261/1/4
f 261/1/4 252/1/4 262/1/4
f 253/1/4 254/1/4 263/1/4
f 263/1/4 254/1/4 264/1/4
f 255/1/4 256/1/4 265/1/4
f 265/1/4 256/1/4 266/1/4
f 257/1/4 258/1/4 267/1/4
f 267/1/4 258/1/4 268/1/4
f 269/2/4 270/2/4 271/2/4
f 271/2/4 270/2/4 272/2/4
f 275/2/5 274/2/5 273/2/5
f 276/2/5 274/2/5 275/2/5
f 279/1/5 278/1/5 277/1/5
f 280/1/5 278/1/5 279/1/5
f 283/1/5 282/1/5 281/1/5
f 284/1/5 282/1/5 283/1/5
f 287/1/5 286/1/5 285/1/5
f 288/1/5 286/1/5 287/1/5
f 291/1/5 290/1/5 289/1/5
f 292/1/5 290/1/5 291/1/5
f 295/1/5 294/1/5 293/1/5
f 296/1/5 294/1/5 295/1/5
f 299/1/5 298/1/5 297/1/5
f 300/1/5 298/1/5 299/1/5
f 303/1/5 302/1/5 301/1/5
f 304/1/5 302/1/5 303/1/5
f 307/1/5 306/1/5 305/1/5
f 308/1/5 306/1/5 307/1/5
f 311/1/5 310/1/5 309/1/5
f 312/1/5 310/1/5 311/1/5
f 315/1/5 314/1/5 313/1/5
f 316/1/5 314/1/5 315/1/5
f 319/1/5 318/1/5 317/1/5
f 320/1/5 318/1/5 319/1/5
f 323/1/5 322/1/5 321/1/5
f 324/1/5 322/1/5 323/1/5
f 327/1/5 326/1/5 325/1/5
f 328/1/5 326/1/5 327/1/5
f 331/1/5 330/1/5 329/1/5
f 332/1/5 330/1/5 331/1/5
f 335/1/5 334/1/5 333/1/5
f 336/1/5 334/1/5 335/1/5
f 339/1/5 338/1/5 337/1/5
f 340/1/5 338/1/5 339/1/5
f 341/1/6 342/1/6 343/1/6
f 343/1/6 342/1/6 344/1/6
f 345/1/6 346/1/6 347/1/6
f 347/1/6 346/1/6 348/1/6
f 349/1/6 350/1/6 351/1/6
f 351/1/6 350/1/6 352/1/6
f 353/1/6 354/1/6 355/1/6
f 355/1/6 354/1/6 356/1/6
f 357/1/6 358/1/6 359/1/6
f 359/1/6 358/1/6 360/1/6
f 361/1/6 362/1/6 363/1/6
f 363/1/6 362/1/6 364/1/6
f 365/1/6 366/1/6 367/1/6
f 367/1/6 366/1/6 368/1/6
f 369/1/6 370/1/6 371/1/6
f 371/1/6 370/1/6 372/1/6
f 373/1/6 374/1/6 375/1/6
f 375/1/6 374/1/6 376/1/6
f 377/1/6 378/1/6 379/1/6
f 379/1/6 378/1/6 380/1/6
f 381/1/6 382/1/6 383/1/6
f 383/1/6 382/1/6 384/1/6
f 385/1/6 386/1/6 387/1/6
f 387/1/6 386/1/6 388/1/6
f 389/1/6 390/1/6 391/1/6
f 391/1/6 390/1/6 392/1/6
f 393/1/6 394/1/6 395/1/6
f 395/1/6 394/1/6 396/1/6
f 397/1/6 398/1/6 399/1/6
f 399/1/6 398/1/6 400/1/6
f 401/1/6 402/1/6 403/1/6
f 403/1/6 402/1/6 404/1/6
f 405/2/6 406/2/6 407/2/6
f 407/2/6 406/2/6 408/2/6
