# MagicaVoxel @ Ephtracy

# group
o 

# material
mtllib Uprav_canter_draft-1.mtl
usemtl palette

# normals
vn -1 0 0
vn 1 0 0
vn 0 0 1
vn 0 0 -1
vn 0 -1 0
vn 0 1 0

# texcoords
vt 0.916016 0.5
vt 0.939453 0.5
vt 0.943359 0.5
vt 0.986328 0.5

# verts
v -0.5 0 0.3
v -0.5 0 -0.5
v -0.5 0.1 0.3
v -0.5 0.1 -0.5
v -0.4 0.1 0.2
v -0.4 0.1 -0.4
v -0.4 0.2 0.2
v -0.4 0.2 -0.4
v -0.3 0.2 0.1
v -0.3 0.2 -0.1
v -0.3 0.2 -0.2
v -0.3 0.2 -0.3
v -0.3 0.3 0.1
v -0.3 0.3 0
v -0.3 0.3 -0.1
v -0.3 0.3 -0.2
v -0.3 0.3 -0.3
v -0.3 2 0
v -0.3 2 -0.2
v -0.2 0.3 0.1
v -0.2 0.3 0
v -0.2 0.3 -0.2
v -0.2 0.3 -0.3
v -0.2 1.8 1
v -0.2 1.8 0.1
v -0.2 1.8 -0.3
v -0.2 1.8 -1.2
v -0.2 1.9 0.9
v -0.2 1.9 0
v -0.2 1.9 -0.2
v -0.2 1.9 -1.1
v -0.2 2 1
v -0.2 2 0.9
v -0.2 2 0.8
v -0.2 2 0.7
v -0.2 2 -0.5
v -0.2 2 -1
v -0.2 2 -1.1
v -0.2 2 -1.2
v -0.2 2.1 0.8
v -0.2 2.1 0.7
v -0.2 2.1 -0.5
v -0.2 2.1 -1
v -0.2 2.2 0.6
v -0.2 2.2 0.5
v -0.2 2.2 -0.7
v -0.2 2.2 -1
v -0.2 2.3 0.6
v -0.2 2.3 0.5
v -0.2 2.3 0.4
v -0.2 2.3 0.3
v -0.2 2.3 -0.7
v -0.2 2.3 -1
v -0.2 2.4 0.4
v -0.2 2.4 0.3
v -0.2 2.4 0.2
v -0.2 2.4 0.1
v -0.2 2.4 -0.4
v -0.2 2.4 -1
v -0.2 2.5 0.2
v -0.2 2.5 0.1
v -0.2 2.5 -0.4
v -0.2 2.5 -1
v -0.2 2.7 0.8
v -0.2 2.7 0.3
v -0.2 2.8 0.8
v -0.2 2.8 0.3
v -0.2 2.8 -0.6
v -0.2 2.8 -0.7
v -0.2 2.8 -0.9
v -0.2 2.8 -1
v -0.2 2.9 0.8
v -0.2 2.9 0.4
v -0.2 2.9 -0.6
v -0.2 2.9 -0.7
v -0.2 2.9 -0.9
v -0.2 2.9 -1
v -0.2 3 0.8
v -0.2 3 0.4
v -0.2 3.1 0.8
v -0.2 3.1 0.3
v -0.2 3.1 -0.3
v -0.2 3.1 -0.4
v -0.2 3.1 -0.5
v -0.2 3.1 -0.6
v -0.2 3.1 -0.7
v -0.2 3.1 -0.8
v -0.2 3.1 -0.9
v -0.2 3.1 -1
v -0.2 3.2 0.8
v -0.2 3.2 0.3
v -0.2 3.2 -0.3
v -0.2 3.2 -0.4
v -0.2 3.2 -0.5
v -0.2 3.2 -0.6
v -0.2 3.2 -0.7
v -0.2 3.2 -0.8
v -0.2 3.2 -0.9
v -0.2 3.2 -1
v -0.1 1.9 0.9
v -0.1 1.9 -1.1
v -0.1 2 0.9
v -0.1 2 0.8
v -0.1 2 0.7
v -0.1 2 -0.5
v -0.1 2 -1
v -0.1 2 -1.1
v -0.1 2.1 0.8
v -0.1 2.1 0.7
v -0.1 2.1 -0.5
v -0.1 2.1 -1
v -0.1 2.2 0.6
v -0.1 2.2 0.5
v -0.1 2.2 -0.7
v -0.1 2.2 -1
v -0.1 2.3 0.6
v -0.1 2.3 0.5
v -0.1 2.3 0.4
v -0.1 2.3 0.3
v -0.1 2.3 -0.7
v -0.1 2.3 -1
v -0.1 2.4 0.4
v -0.1 2.4 0.3
v -0.1 2.4 0.2
v -0.1 2.4 0.1
v -0.1 2.4 -0.4
v -0.1 2.4 -1
v -0.1 2.5 0.2
v -0.1 2.5 0.1
v -0.1 2.5 -0.4
v -0.1 2.5 -1
v -0.1 2.7 0.8
v -0.1 2.7 0.3
v -0.1 2.8 0.8
v -0.1 2.8 0.3
v -0.1 2.8 -0.6
v -0.1 2.8 -0.7
v -0.1 2.8 -0.9
v -0.1 2.8 -1
v -0.1 2.9 0.8
v -0.1 2.9 0.4
v -0.1 2.9 -0.6
v -0.1 2.9 -0.7
v -0.1 2.9 -0.9
v -0.1 2.9 -1
v -0.1 3 0.8
v -0.1 3 0.4
v -0.1 3.1 0.8
v -0.1 3.1 0.3
v -0.1 3.1 -0.3
v -0.1 3.1 -0.4
v -0.1 3.1 -0.5
v -0.1 3.1 -0.6
v -0.1 3.1 -0.7
v -0.1 3.1 -0.8
v -0.1 3.1 -0.9
v -0.1 3.1 -1
v -0.1 3.2 0.8
v -0.1 3.2 0.3
v -0.1 3.2 -0.3
v -0.1 3.2 -0.4
v -0.1 3.2 -0.5
v -0.1 3.2 -0.6
v -0.1 3.2 -0.7
v -0.1 3.2 -0.8
v -0.1 3.2 -0.9
v -0.1 3.2 -1
v -0.1 3.3 0.9
v -0.1 3.3 -1.1
v -0.2 1.9 0
v -0.2 1.9 -0.2
v -0.2 2 0
v -0.2 2 -0.2
v 0 0.3 0.1
v 0 0.3 0
v 0 0.3 -0.2
v 0 0.3 -0.3
v 0 1.8 1
v 0 1.8 0.1
v 0 1.8 -0.3
v 0 1.8 -1.2
v 0 1.9 0.9
v 0 1.9 0
v 0 1.9 -0.2
v 0 1.9 -1.1
v 0 2 1
v 0 2 0.9
v 0 2 0
v 0 2 -0.2
v 0 2 -1.1
v 0 2 -1.2
v 0 3.3 0.9
v 0 3.3 -1.1
v 0.1 0.2 0.1
v 0.1 0.2 -0.1
v 0.1 0.2 -0.2
v 0.1 0.2 -0.3
v 0.1 0.3 0.1
v 0.1 0.3 0
v 0.1 0.3 -0.1
v 0.1 0.3 -0.2
v 0.1 0.3 -0.3
v 0.1 2 0
v 0.1 2 -0.2
v 0.2 0.1 0.2
v 0.2 0.1 -0.4
v 0.2 0.2 0.2
v 0.2 0.2 -0.4
v 0.3 0 0.3
v 0.3 0 -0.5
v 0.3 0.1 0.3
v 0.3 0.1 -0.5
v -0.2 1.8 1
v -0.2 2 1
v 0 1.8 1
v 0 2 1
v -0.1 2 0.9
v -0.1 3.3 0.9
v 0 2 0.9
v 0 3.3 0.9
v -0.2 2 0.8
v -0.2 2.1 0.8
v -0.2 2.7 0.8
v -0.2 2.8 0.8
v -0.2 2.9 0.8
v -0.2 3 0.8
v -0.2 3.1 0.8
v -0.2 3.2 0.8
v -0.1 2 0.8
v -0.1 2.1 0.8
v -0.1 2.7 0.8
v -0.1 2.8 0.8
v -0.1 2.9 0.8
v -0.1 3 0.8
v -0.1 3.1 0.8
v -0.1 3.2 0.8
v -0.2 2.2 0.6
v -0.2 2.3 0.6
v -0.1 2.2 0.6
v -0.1 2.3 0.6
v -0.2 2.3 0.4
v -0.2 2.4 0.4
v -0.1 2.3 0.4
v -0.1 2.4 0.4
v -0.5 0 0.3
v -0.5 0.1 0.3
v 0.3 0 0.3
v 0.3 0.1 0.3
v -0.4 0.1 0.2
v -0.4 0.2 0.2
v -0.2 2.4 0.2
v -0.2 2.5 0.2
v -0.1 2.4 0.2
v -0.1 2.5 0.2
v 0.2 0.1 0.2
v 0.2 0.2 0.2
v -0.3 0.2 0.1
v -0.3 0.3 0.1
v -0.2 0.3 0.1
v -0.2 1.8 0.1
v 0 0.3 0.1
v 0 1.8 0.1
v 0.1 0.2 0.1
v 0.1 0.3 0.1
v -0.3 0.3 0
v -0.3 2 0
v -0.2 0.3 0
v -0.2 1.9 0
v -0.2 2 0
v 0 0.3 0
v 0 1.9 0
v 0 2 0
v 0.1 0.3 0
v 0.1 2 0
v -0.2 3.1 -0.3
v -0.2 3.2 -0.3
v -0.1 3.1 -0.3
v -0.1 3.2 -0.3
v -0.2 2.4 -0.4
v -0.2 2.5 -0.4
v -0.1 2.4 -0.4
v -0.1 2.5 -0.4
v -0.2 2 -0.5
v -0.2 2.1 -0.5
v -0.2 3.1 -0.5
v -0.2 3.2 -0.5
v -0.1 2 -0.5
v -0.1 2.1 -0.5
v -0.1 3.1 -0.5
v -0.1 3.2 -0.5
v -0.2 2.8 -0.6
v -0.2 2.9 -0.6
v -0.1 2.8 -0.6
v -0.1 2.9 -0.6
v -0.2 2.2 -0.7
v -0.2 2.3 -0.7
v -0.2 3.1 -0.7
v -0.2 3.2 -0.7
v -0.1 2.2 -0.7
v -0.1 2.3 -0.7
v -0.1 3.1 -0.7
v -0.1 3.2 -0.7
v -0.2 2.8 -0.9
v -0.2 2.9 -0.9
v -0.2 3.1 -0.9
v -0.2 3.2 -0.9
v -0.1 2.8 -0.9
v -0.1 2.9 -0.9
v -0.1 3.1 -0.9
v -0.1 3.2 -0.9
v -0.2 1.9 -1.1
v -0.2 2 -1.1
v -0.1 1.9 -1.1
v -0.1 2 -1.1
v -0.2 1.9 0.9
v -0.2 2 0.9
v -0.1 1.9 0.9
v -0.1 2 0.9
v -0.2 2 0.7
v -0.2 2.1 0.7
v -0.1 2 0.7
v -0.1 2.1 0.7
v -0.2 2.2 0.5
v -0.2 2.3 0.5
v -0.1 2.2 0.5
v -0.1 2.3 0.5
v -0.2 2.9 0.4
v -0.2 3 0.4
v -0.1 2.9 0.4
v -0.1 3 0.4
v -0.2 2.3 0.3
v -0.2 2.4 0.3
v -0.2 2.7 0.3
v -0.2 2.8 0.3
v -0.2 3.1 0.3
v -0.2 3.2 0.3
v -0.1 2.3 0.3
v -0.1 2.4 0.3
v -0.1 2.7 0.3
v -0.1 2.8 0.3
v -0.1 3.1 0.3
v -0.1 3.2 0.3
v -0.2 2.4 0.1
v -0.2 2.5 0.1
v -0.1 2.4 0.1
v -0.1 2.5 0.1
v -0.3 0.3 -0.2
v -0.3 2 -0.2
v -0.2 0.3 -0.2
v -0.2 1.9 -0.2
v -0.2 2 -0.2
v 0 0.3 -0.2
v 0 1.9 -0.2
v 0 2 -0.2
v 0.1 0.3 -0.2
v 0.1 2 -0.2
v -0.3 0.2 -0.3
v -0.3 0.3 -0.3
v -0.2 0.3 -0.3
v -0.2 1.8 -0.3
v 0 0.3 -0.3
v 0 1.8 -0.3
v 0.1 0.2 -0.3
v 0.1 0.3 -0.3
v -0.4 0.1 -0.4
v -0.4 0.2 -0.4
v -0.2 3.1 -0.4
v -0.2 3.2 -0.4
v -0.1 3.1 -0.4
v -0.1 3.2 -0.4
v 0.2 0.1 -0.4
v 0.2 0.2 -0.4
v -0.5 0 -0.5
v -0.5 0.1 -0.5
v 0.3 0 -0.5
v 0.3 0.1 -0.5
v -0.2 3.1 -0.6
v -0.2 3.2 -0.6
v -0.1 3.1 -0.6
v -0.1 3.2 -0.6
v -0.2 2.8 -0.7
v -0.2 2.9 -0.7
v -0.1 2.8 -0.7
v -0.1 2.9 -0.7
v -0.2 3.1 -0.8
v -0.2 3.2 -0.8
v -0.1 3.1 -0.8
v -0.1 3.2 -0.8
v -0.2 2 -1
v -0.2 2.1 -1
v -0.2 2.2 -1
v -0.2 2.3 -1
v -0.2 2.4 -1
v -0.2 2.5 -1
v -0.2 2.8 -1
v -0.2 2.9 -1
v -0.2 3.1 -1
v -0.2 3.2 -1
v -0.1 2 -1
v -0.1 2.1 -1
v -0.1 2.2 -1
v -0.1 2.3 -1
v -0.1 2.4 -1
v -0.1 2.5 -1
v -0.1 2.8 -1
v -0.1 2.9 -1
v -0.1 3.1 -1
v -0.1 3.2 -1
v -0.1 2 -1.1
v -0.1 3.3 -1.1
v 0 2 -1.1
v 0 3.3 -1.1
v -0.2 1.8 -1.2
v -0.2 2 -1.2
v 0 1.8 -1.2
v 0 2 -1.2
v -0.5 0 0.3
v 0.3 0 0.3
v -0.3 0 0.1
v 0.1 0 0.1
v -0.3 0 -0.1
v 0.1 0 -0.1
v -0.3 0 -0.2
v 0.1 0 -0.2
v -0.3 0 -0.3
v 0.1 0 -0.3
v -0.5 0 -0.5
v 0.3 0 -0.5
v -0.2 1.8 1
v 0 1.8 1
v -0.2 1.8 0.1
v 0 1.8 0.1
v -0.2 1.8 -0.3
v 0 1.8 -0.3
v -0.2 1.8 -1.2
v 0 1.8 -1.2
v -0.2 2 0.8
v -0.1 2 0.8
v -0.2 2 0.7
v -0.1 2 0.7
v -0.2 2 -0.5
v -0.1 2 -0.5
v -0.2 2 -1
v -0.1 2 -1
v -0.2 2.2 0.6
v -0.1 2.2 0.6
v -0.2 2.2 0.5
v -0.1 2.2 0.5
v -0.2 2.2 -0.7
v -0.1 2.2 -0.7
v -0.2 2.2 -1
v -0.1 2.2 -1
v -0.2 2.3 0.4
v -0.1 2.3 0.4
v -0.2 2.3 0.3
v -0.1 2.3 0.3
v -0.2 2.4 0.2
v -0.1 2.4 0.2
v -0.2 2.4 0.1
v -0.1 2.4 0.1
v -0.2 2.4 -0.4
v -0.1 2.4 -0.4
v -0.2 2.4 -1
v -0.1 2.4 -1
v -0.2 2.7 0.8
v -0.1 2.7 0.8
v -0.2 2.7 0.3
v -0.1 2.7 0.3
v -0.2 2.8 -0.6
v -0.1 2.8 -0.6
v -0.2 2.8 -0.7
v -0.1 2.8 -0.7
v -0.2 2.8 -0.9
v -0.1 2.8 -0.9
v -0.2 2.8 -1
v -0.1 2.8 -1
v -0.2 2.9 0.8
v -0.1 2.9 0.8
v -0.2 2.9 0.4
v -0.1 2.9 0.4
v -0.2 3.1 0.8
v -0.1 3.1 0.8
v -0.2 3.1 0.3
v -0.1 3.1 0.3
v -0.2 3.1 -0.3
v -0.1 3.1 -0.3
v -0.2 3.1 -0.4
v -0.1 3.1 -0.4
v -0.2 3.1 -0.5
v -0.1 3.1 -0.5
v -0.2 3.1 -0.6
v -0.1 3.1 -0.6
v -0.2 3.1 -0.7
v -0.1 3.1 -0.7
v -0.2 3.1 -0.8
v -0.1 3.1 -0.8
v -0.2 3.1 -0.9
v -0.1 3.1 -0.9
v -0.2 3.1 -1
v -0.1 3.1 -1
v -0.5 0.1 0.3
v 0.3 0.1 0.3
v -0.4 0.1 0.2
v 0.2 0.1 0.2
v -0.4 0.1 -0.4
v 0.2 0.1 -0.4
v -0.5 0.1 -0.5
v 0.3 0.1 -0.5
v -0.4 0.2 0.2
v 0.2 0.2 0.2
v -0.3 0.2 0.1
v 0.1 0.2 0.1
v -0.3 0.2 -0.1
v 0.1 0.2 -0.1
v -0.3 0.2 -0.2
v 0.1 0.2 -0.2
v -0.3 0.2 -0.3
v 0.1 0.2 -0.3
v -0.4 0.2 -0.4
v 0.2 0.2 -0.4
v -0.3 0.3 0.1
v -0.2 0.3 0.1
v 0 0.3 0.1
v 0.1 0.3 0.1
v -0.3 0.3 0
v -0.2 0.3 0
v 0 0.3 0
v 0.1 0.3 0
v -0.3 0.3 -0.2
v -0.2 0.3 -0.2
v 0 0.3 -0.2
v 0.1 0.3 -0.2
v -0.3 0.3 -0.3
v -0.2 0.3 -0.3
v 0 0.3 -0.3
v 0.1 0.3 -0.3
v -0.2 1.9 0.9
v -0.1 1.9 0.9
v -0.2 1.9 0
v -0.2 1.9 -0.2
v -0.2 1.9 -1.1
v -0.1 1.9 -1.1
v -0.2 2 1
v 0 2 1
v -0.2 2 0.9
v -0.1 2 0.9
v 0 2 0.9
v -0.3 2 0
v -0.2 2 0
v 0 2 0
v 0.1 2 0
v -0.3 2 -0.2
v -0.2 2 -0.2
v 0 2 -0.2
v 0.1 2 -0.2
v -0.2 2 -1.1
v -0.1 2 -1.1
v 0 2 -1.1
v -0.2 2 -1.2
v 0 2 -1.2
v -0.2 2.1 0.8
v -0.1 2.1 0.8
v -0.2 2.1 0.7
v -0.1 2.1 0.7
v -0.2 2.1 -0.5
v -0.1 2.1 -0.5
v -0.2 2.1 -1
v -0.1 2.1 -1
v -0.2 2.3 0.6
v -0.1 2.3 0.6
v -0.2 2.3 0.5
v -0.1 2.3 0.5
v -0.2 2.3 -0.7
v -0.1 2.3 -0.7
v -0.2 2.3 -1
v -0.1 2.3 -1
v -0.2 2.4 0.4
v -0.1 2.4 0.4
v -0.2 2.4 0.3
v -0.1 2.4 0.3
v -0.2 2.5 0.2
v -0.1 2.5 0.2
v -0.2 2.5 0.1
v -0.1 2.5 0.1
v -0.2 2.5 -0.4
v -0.1 2.5 -0.4
v -0.2 2.5 -1
v -0.1 2.5 -1
v -0.2 2.8 0.8
v -0.1 2.8 0.8
v -0.2 2.8 0.3
v -0.1 2.8 0.3
v -0.2 2.9 -0.6
v -0.1 2.9 -0.6
v -0.2 2.9 -0.7
v -0.1 2.9 -0.7
v -0.2 2.9 -0.9
v -0.1 2.9 -0.9
v -0.2 2.9 -1
v -0.1 2.9 -1
v -0.2 3 0.8
v -0.1 3 0.8
v -0.2 3 0.4
v -0.1 3 0.4
v -0.2 3.2 0.8
v -0.1 3.2 0.8
v -0.2 3.2 0.3
v -0.1 3.2 0.3
v -0.2 3.2 -0.3
v -0.1 3.2 -0.3
v -0.2 3.2 -0.4
v -0.1 3.2 -0.4
v -0.2 3.2 -0.5
v -0.1 3.2 -0.5
v -0.2 3.2 -0.6
v -0.1 3.2 -0.6
v -0.2 3.2 -0.7
v -0.1 3.2 -0.7
v -0.2 3.2 -0.8
v -0.1 3.2 -0.8
v -0.2 3.2 -0.9
v -0.1 3.2 -0.9
v -0.2 3.2 -1
v -0.1 3.2 -1
v -0.1 3.3 0.9
v 0 3.3 0.9
v -0.1 3.3 -1.1
v 0 3.3 -1.1

# faces
f 3/2/1 2/2/1 1/2/1
f 4/2/1 2/2/1 3/2/1
f 7/2/1 6/2/1 5/2/1
f 8/2/1 6/2/1 7/2/1
f 13/3/1 10/3/1 9/3/1
f 14/3/1 10/3/1 13/3/1
f 15/2/1 11/2/1 10/2/1
f 15/3/1 10/3/1 14/3/1
f 16/3/1 12/3/1 11/3/1
f 16/2/1 11/2/1 15/2/1
f 17/3/1 12/3/1 16/3/1
f 18/2/1 15/2/1 14/2/1
f 18/2/1 16/2/1 15/2/1
f 19/2/1 16/2/1 18/2/1
f 25/2/1 21/2/1 20/2/1
f 26/2/1 23/2/1 22/2/1
f 28/2/1 25/2/1 24/2/1
f 29/2/1 21/2/1 25/2/1
f 29/2/1 25/2/1 28/2/1
f 30/2/1 27/2/1 26/2/1
f 30/2/1 26/2/1 22/2/1
f 31/2/1 27/2/1 30/2/1
f 32/2/1 28/2/1 24/2/1
f 33/2/1 28/2/1 32/2/1
f 38/2/1 27/2/1 31/2/1
f 39/2/1 27/2/1 38/2/1
f 40/1/1 35/1/1 34/1/1
f 41/1/1 35/1/1 40/1/1
f 42/1/1 37/1/1 36/1/1
f 43/1/1 37/1/1 42/1/1
f 48/1/1 45/1/1 44/1/1
f 49/1/1 45/1/1 48/1/1
f 52/1/1 47/1/1 46/1/1
f 53/1/1 47/1/1 52/1/1
f 54/1/1 51/1/1 50/1/1
f 55/1/1 51/1/1 54/1/1
f 60/1/1 57/1/1 56/1/1
f 61/1/1 57/1/1 60/1/1
f 62/1/1 59/1/1 58/1/1
f 63/1/1 59/1/1 62/1/1
f 66/1/1 65/1/1 64/1/1
f 67/1/1 65/1/1 66/1/1
f 74/1/1 69/1/1 68/1/1
f 75/1/1 69/1/1 74/1/1
f 76/1/1 71/1/1 70/1/1
f 77/1/1 71/1/1 76/1/1
f 78/1/1 73/1/1 72/1/1
f 79/1/1 73/1/1 78/1/1
f 90/1/1 81/1/1 80/1/1
f 91/1/1 81/1/1 90/1/1
f 92/1/1 83/1/1 82/1/1
f 93/1/1 83/1/1 92/1/1
f 94/1/1 85/1/1 84/1/1
f 95/1/1 85/1/1 94/1/1
f 96/1/1 87/1/1 86/1/1
f 97/1/1 87/1/1 96/1/1
f 98/1/1 89/1/1 88/1/1
f 99/1/1 89/1/1 98/1/1
f 102/4/1 101/4/1 100/4/1
f 103/4/1 101/4/1 102/4/1
f 104/4/1 101/4/1 103/4/1
f 105/4/1 101/4/1 104/4/1
f 106/4/1 101/4/1 105/4/1
f 107/4/1 101/4/1 106/4/1
f 108/4/1 103/4/1 102/4/1
f 109/4/1 105/4/1 104/4/1
f 110/4/1 105/4/1 109/4/1
f 111/4/1 107/4/1 106/4/1
f 112/4/1 110/4/1 109/4/1
f 112/4/1 111/4/1 110/4/1
f 112/4/1 109/4/1 108/4/1
f 113/4/1 111/4/1 112/4/1
f 114/4/1 111/4/1 113/4/1
f 115/4/1 107/4/1 111/4/1
f 115/4/1 111/4/1 114/4/1
f 116/4/1 112/4/1 108/4/1
f 117/4/1 114/4/1 113/4/1
f 118/4/1 114/4/1 117/4/1
f 119/4/1 114/4/1 118/4/1
f 120/4/1 114/4/1 119/4/1
f 121/4/1 107/4/1 115/4/1
f 122/4/1 117/4/1 116/4/1
f 122/4/1 118/4/1 117/4/1
f 123/4/1 120/4/1 119/4/1
f 123/4/1 121/4/1 120/4/1
f 124/4/1 121/4/1 123/4/1
f 125/4/1 121/4/1 124/4/1
f 126/4/1 121/4/1 125/4/1
f 127/4/1 107/4/1 121/4/1
f 127/4/1 121/4/1 126/4/1
f 128/4/1 123/4/1 122/4/1
f 128/4/1 124/4/1 123/4/1
f 129/4/1 126/4/1 125/4/1
f 130/4/1 126/4/1 129/4/1
f 131/4/1 107/4/1 127/4/1
f 132/4/1 116/4/1 108/4/1
f 132/4/1 131/4/1 130/4/1
f 132/4/1 108/4/1 102/4/1
f 132/4/1 122/4/1 116/4/1
f 132/4/1 129/4/1 128/4/1
f 132/4/1 128/4/1 122/4/1
f 132/4/1 130/4/1 129/4/1
f 133/4/1 131/4/1 132/4/1
f 134/4/1 132/4/1 102/4/1
f 135/4/1 131/4/1 133/4/1
f 136/4/1 131/4/1 135/4/1
f 137/4/1 131/4/1 136/4/1
f 138/4/1 131/4/1 137/4/1
f 139/4/1 107/4/1 131/4/1
f 139/4/1 131/4/1 138/4/1
f 140/4/1 134/4/1 102/4/1
f 140/4/1 135/4/1 134/4/1
f 140/4/1 136/4/1 135/4/1
f 141/4/1 136/4/1 140/4/1
f 142/4/1 136/4/1 141/4/1
f 143/4/1 138/4/1 137/4/1
f 144/4/1 138/4/1 143/4/1
f 145/4/1 107/4/1 139/4/1
f 146/4/1 140/4/1 102/4/1
f 147/4/1 142/4/1 141/4/1
f 147/4/1 144/4/1 143/4/1
f 147/4/1 145/4/1 144/4/1
f 147/4/1 143/4/1 142/4/1
f 148/4/1 146/4/1 102/4/1
f 148/4/1 147/4/1 146/4/1
f 149/4/1 145/4/1 147/4/1
f 149/4/1 147/4/1 148/4/1
f 150/4/1 145/4/1 149/4/1
f 151/4/1 145/4/1 150/4/1
f 152/4/1 145/4/1 151/4/1
f 153/4/1 145/4/1 152/4/1
f 154/4/1 145/4/1 153/4/1
f 155/4/1 145/4/1 154/4/1
f 156/4/1 145/4/1 155/4/1
f 157/4/1 107/4/1 145/4/1
f 157/4/1 145/4/1 156/4/1
f 158/4/1 148/4/1 102/4/1
f 159/4/1 150/4/1 149/4/1
f 160/4/1 150/4/1 159/4/1
f 161/4/1 152/4/1 151/4/1
f 162/4/1 152/4/1 161/4/1
f 163/4/1 154/4/1 153/4/1
f 164/4/1 154/4/1 163/4/1
f 165/4/1 156/4/1 155/4/1
f 166/4/1 156/4/1 165/4/1
f 167/4/1 107/4/1 157/4/1
f 168/4/1 166/4/1 165/4/1
f 168/4/1 167/4/1 166/4/1
f 168/4/1 164/4/1 163/4/1
f 168/4/1 162/4/1 161/4/1
f 168/4/1 165/4/1 164/4/1
f 168/4/1 158/4/1 102/4/1
f 168/4/1 163/4/1 162/4/1
f 168/4/1 160/4/1 159/4/1
f 168/4/1 161/4/1 160/4/1
f 168/4/1 159/4/1 158/4/1
f 169/4/1 107/4/1 167/4/1
f 169/4/1 167/4/1 168/4/1
f 170/2/2 171/2/2 172/2/2
f 172/2/2 171/2/2 173/2/2
f 174/2/2 175/2/2 179/2/2
f 176/2/2 177/2/2 180/2/2
f 178/2/2 179/2/2 182/2/2
f 179/2/2 175/2/2 183/2/2
f 182/2/2 179/2/2 183/2/2
f 180/2/2 181/2/2 184/2/2
f 176/2/2 180/2/2 184/2/2
f 184/2/2 181/2/2 185/2/2
f 178/2/2 182/2/2 186/2/2
f 182/4/2 183/4/2 187/4/2
f 186/2/2 182/2/2 187/2/2
f 187/4/2 183/4/2 188/4/2
f 184/4/2 185/4/2 189/4/2
f 185/2/2 181/2/2 190/2/2
f 189/4/2 185/4/2 190/4/2
f 190/2/2 181/2/2 191/2/2
f 188/4/2 189/4/2 192/4/2
f 187/4/2 188/4/2 192/4/2
f 189/4/2 190/4/2 192/4/2
f 192/4/2 190/4/2 193/4/2
f 194/3/2 195/3/2 198/3/2
f 198/3/2 195/3/2 199/3/2
f 195/2/2 196/2/2 200/2/2
f 199/3/2 195/3/2 200/3/2
f 196/3/2 197/3/2 201/3/2
f 200/2/2 196/2/2 201/2/2
f 201/3/2 197/3/2 202/3/2
f 199/2/2 200/2/2 203/2/2
f 200/2/2 201/2/2 203/2/2
f 203/2/2 201/2/2 204/2/2
f 205/2/2 206/2/2 207/2/2
f 207/2/2 206/2/2 208/2/2
f 209/2/2 210/2/2 211/2/2
f 211/2/2 210/2/2 212/2/2
f 215/2/3 214/2/3 213/2/3
f 216/2/3 214/2/3 215/2/3
f 219/4/3 218/4/3 217/4/3
f 220/4/3 218/4/3 219/4/3
f 229/1/3 222/1/3 221/1/3
f 230/1/3 222/1/3 229/1/3
f 231/1/3 224/1/3 223/1/3
f 232/1/3 224/1/3 231/1/3
f 233/1/3 226/1/3 225/1/3
f 234/1/3 226/1/3 233/1/3
f 235/1/3 228/1/3 227/1/3
f 236/1/3 228/1/3 235/1/3
f 239/1/3 238/1/3 237/1/3
f 240/1/3 238/1/3 239/1/3
f 243/1/3 242/1/3 241/1/3
f 244/1/3 242/1/3 243/1/3
f 247/2/3 246/2/3 245/2/3
f 248/2/3 246/2/3 247/2/3
f 253/1/3 252/1/3 251/1/3
f 254/1/3 252/1/3 253/1/3
f 255/2/3 250/2/3 249/2/3
f 256/2/3 250/2/3 255/2/3
f 259/3/3 258/3/3 257/3/3
f 261/3/3 259/3/3 257/3/3
f 261/2/3 260/2/3 259/2/3
f 262/2/3 260/2/3 261/2/3
f 263/3/3 261/3/3 257/3/3
f 264/3/3 261/3/3 263/3/3
f 267/2/3 266/2/3 265/2/3
f 268/2/3 266/2/3 267/2/3
f 269/2/3 266/2/3 268/2/3
f 273/2/3 271/2/3 270/2/3
f 273/2/3 272/2/3 271/2/3
f 274/2/3 272/2/3 273/2/3
f 277/1/3 276/1/3 275/1/3
f 278/1/3 276/1/3 277/1/3
f 281/1/3 280/1/3 279/1/3
f 282/1/3 280/1/3 281/1/3
f 287/1/3 284/1/3 283/1/3
f 288/1/3 284/1/3 287/1/3
f 289/1/3 286/1/3 285/1/3
f 290/1/3 286/1/3 289/1/3
f 293/1/3 292/1/3 291/1/3
f 294/1/3 292/1/3 293/1/3
f 299/1/3 296/1/3 295/1/3
f 300/1/3 296/1/3 299/1/3
f 301/1/3 298/1/3 297/1/3
f 302/1/3 298/1/3 301/1/3
f 307/1/3 304/1/3 303/1/3
f 308/1/3 304/1/3 307/1/3
f 309/1/3 306/1/3 305/1/3
f 310/1/3 306/1/3 309/1/3
f 313/2/3 312/2/3 311/2/3
f 314/2/3 312/2/3 313/2/3
f 315/2/4 316/2/4 317/2/4
f 317/2/4 316/2/4 318/2/4
f 319/1/4 320/1/4 321/1/4
f 321/1/4 320/1/4 322/1/4
f 323/1/4 324/1/4 325/1/4
f 325/1/4 324/1/4 326/1/4
f 327/1/4 328/1/4 329/1/4
f 329/1/4 328/1/4 330/1/4
f 331/1/4 332/1/4 337/1/4
f 337/1/4 332/1/4 338/1/4
f 333/1/4 334/1/4 339/1/4
f 339/1/4 334/1/4 340/1/4
f 335/1/4 336/1/4 341/1/4
f 341/1/4 336/1/4 342/1/4
f 343/1/4 344/1/4 345/1/4
f 345/1/4 344/1/4 346/1/4
f 347/2/4 348/2/4 349/2/4
f 349/2/4 348/2/4 350/2/4
f 350/2/4 348/2/4 351/2/4
f 352/2/4 353/2/4 355/2/4
f 353/2/4 354/2/4 355/2/4
f 355/2/4 354/2/4 356/2/4
f 357/3/4 358/3/4 359/3/4
f 357/3/4 359/3/4 361/3/4
f 359/2/4 360/2/4 361/2/4
f 361/2/4 360/2/4 362/2/4
f 357/3/4 361/3/4 363/3/4
f 363/3/4 361/3/4 364/3/4
f 367/1/4 368/1/4 369/1/4
f 369/1/4 368/1/4 370/1/4
f 365/2/4 366/2/4 371/2/4
f 371/2/4 366/2/4 372/2/4
f 373/2/4 374/2/4 375/2/4
f 375/2/4 374/2/4 376/2/4
f 377/1/4 378/1/4 379/1/4
f 379/1/4 378/1/4 380/1/4
f 381/1/4 382/1/4 383/1/4
f 383/1/4 382/1/4 384/1/4
f 385/1/4 386/1/4 387/1/4
f 387/1/4 386/1/4 388/1/4
f 389/1/4 390/1/4 399/1/4
f 399/1/4 390/1/4 400/1/4
f 391/1/4 392/1/4 401/1/4
f 401/1/4 392/1/4 402/1/4
f 393/1/4 394/1/4 403/1/4
f 403/1/4 394/1/4 404/1/4
f 395/1/4 396/1/4 405/1/4
f 405/1/4 396/1/4 406/1/4
f 397/1/4 398/1/4 407/1/4
f 407/1/4 398/1/4 408/1/4
f 409/4/4 410/4/4 411/4/4
f 411/4/4 410/4/4 412/4/4
f 413/2/4 414/2/4 415/2/4
f 415/2/4 414/2/4 416/2/4
f 419/2/5 418/2/5 417/2/5
f 420/2/5 418/2/5 419/2/5
f 421/2/5 419/2/5 417/2/5
f 421/3/5 420/3/5 419/3/5
f 422/2/5 418/2/5 420/2/5
f 422/3/5 420/3/5 421/3/5
f 423/2/5 421/2/5 417/2/5
f 423/2/5 422/2/5 421/2/5
f 424/2/5 418/2/5 422/2/5
f 424/2/5 422/2/5 423/2/5
f 425/2/5 423/2/5 417/2/5
f 425/3/5 424/3/5 423/3/5
f 426/2/5 418/2/5 424/2/5
f 426/3/5 424/3/5 425/3/5
f 427/2/5 425/2/5 417/2/5
f 427/2/5 426/2/5 425/2/5
f 428/2/5 418/2/5 426/2/5
f 428/2/5 426/2/5 427/2/5
f 431/2/5 430/2/5 429/2/5
f 432/2/5 430/2/5 431/2/5
f 435/2/5 434/2/5 433/2/5
f 436/2/5 434/2/5 435/2/5
f 439/1/5 438/1/5 437/1/5
f 440/1/5 438/1/5 439/1/5
f 443/1/5 442/1/5 441/1/5
f 444/1/5 442/1/5 443/1/5
f 447/1/5 446/1/5 445/1/5
f 448/1/5 446/1/5 447/1/5
f 451/1/5 450/1/5 449/1/5
f 452/1/5 450/1/5 451/1/5
f 455/1/5 454/1/5 453/1/5
f 456/1/5 454/1/5 455/1/5
f 459/1/5 458/1/5 457/1/5
f 460/1/5 458/1/5 459/1/5
f 463/1/5 462/1/5 461/1/5
f 464/1/5 462/1/5 463/1/5
f 467/1/5 466/1/5 465/1/5
f 468/1/5 466/1/5 467/1/5
f 471/1/5 470/1/5 469/1/5
f 472/1/5 470/1/5 471/1/5
f 475/1/5 474/1/5 473/1/5
f 476/1/5 474/1/5 475/1/5
f 479/1/5 478/1/5 477/1/5
f 480/1/5 478/1/5 479/1/5
f 483/1/5 482/1/5 481/1/5
f 484/1/5 482/1/5 483/1/5
f 487/1/5 486/1/5 485/1/5
f 488/1/5 486/1/5 487/1/5
f 491/1/5 490/1/5 489/1/5
f 492/1/5 490/1/5 491/1/5
f 495/1/5 494/1/5 493/1/5
f 496/1/5 494/1/5 495/1/5
f 499/1/5 498/1/5 497/1/5
f 500/1/5 498/1/5 499/1/5
f 501/2/6 502/2/6 503/2/6
f 503/2/6 502/2/6 504/2/6
f 501/2/6 503/2/6 505/2/6
f 504/2/6 502/2/6 506/2/6
f 501/2/6 505/2/6 507/2/6
f 505/2/6 506/2/6 507/2/6
f 506/2/6 502/2/6 508/2/6
f 507/2/6 506/2/6 508/2/6
f 509/2/6 510/2/6 511/2/6
f 511/2/6 510/2/6 512/2/6
f 509/2/6 511/2/6 513/2/6
f 512/2/6 510/2/6 514/2/6
f 509/2/6 513/2/6 515/2/6
f 514/2/6 510/2/6 516/2/6
f 509/2/6 515/2/6 517/2/6
f 516/2/6 510/2/6 518/2/6
f 509/2/6 517/2/6 519/2/6
f 517/2/6 518/2/6 519/2/6
f 518/2/6 510/2/6 520/2/6
f 519/2/6 518/2/6 520/2/6
f 521/3/6 522/3/6 525/3/6
f 525/3/6 522/3/6 526/3/6
f 523/3/6 524/3/6 527/3/6
f 527/3/6 524/3/6 528/3/6
f 529/3/6 530/3/6 533/3/6
f 533/3/6 530/3/6 534/3/6
f 531/3/6 532/3/6 535/3/6
f 535/3/6 532/3/6 536/3/6
f 537/2/6 538/2/6 539/2/6
f 539/2/6 538/2/6 540/2/6
f 540/2/6 538/2/6 541/2/6
f 541/2/6 538/2/6 542/2/6
f 543/2/6 544/2/6 545/2/6
f 545/2/6 544/2/6 546/2/6
f 546/2/6 544/2/6 547/2/6
f 548/2/6 549/2/6 552/2/6
f 552/2/6 549/2/6 553/2/6
f 550/2/6 551/2/6 554/2/6
f 554/2/6 551/2/6 555/2/6
f 556/2/6 557/2/6 559/2/6
f 557/2/6 558/2/6 559/2/6
f 559/2/6 558/2/6 560/2/6
f 561/1/6 562/1/6 563/1/6
f 563/1/6 562/1/6 564/1/6
f 565/1/6 566/1/6 567/1/6
f 567/1/6 566/1/6 568/1/6
f 569/1/6 570/1/6 571/1/6
f 571/1/6 570/1/6 572/1/6
f 573/1/6 574/1/6 575/1/6
f 575/1/6 574/1/6 576/1/6
f 577/1/6 578/1/6 579/1/6
f 579/1/6 578/1/6 580/1/6
f 581/1/6 582/1/6 583/1/6
f 583/1/6 582/1/6 584/1/6
f 585/1/6 586/1/6 587/1/6
f 587/1/6 586/1/6 588/1/6
f 589/1/6 590/1/6 591/1/6
f 591/1/6 590/1/6 592/1/6
f 593/1/6 594/1/6 595/1/6
f 595/1/6 594/1/6 596/1/6
f 597/1/6 598/1/6 599/1/6
f 599/1/6 598/1/6 600/1/6
f 601/1/6 602/1/6 603/1/6
f 603/1/6 602/1/6 604/1/6
f 605/1/6 606/1/6 607/1/6
f 607/1/6 606/1/6 608/1/6
f 609/1/6 610/1/6 611/1/6
f 611/1/6 610/1/6 612/1/6
f 613/1/6 614/1/6 615/1/6
f 615/1/6 614/1/6 616/1/6
f 617/1/6 618/1/6 619/1/6
f 619/1/6 618/1/6 620/1/6
f 621/1/6 622/1/6 623/1/6
f 623/1/6 622/1/6 624/1/6
f 625/4/6 626/4/6 627/4/6
f 627/4/6 626/4/6 628/4/6
