# MagicaVoxel @ Ephtracy

# group
o 

# material
mtllib generation_of_chaos_1-2.mtl
usemtl palette

# normals
vn -1 0 0
vn 1 0 0
vn 0 0 1
vn 0 0 -1
vn 0 -1 0
vn 0 1 0

# texcoords
vt 0.658203 0.5
vt 0.662109 0.5

# verts
v -0.6 0.2 0.2
v -0.6 0.2 -0.1
v -0.6 0.2 -0.2
v -0.6 0.3 0.2
v -0.6 0.3 0.1
v -0.6 0.3 -0.1
v -0.6 0.3 -0.2
v -0.6 0.4 0.1
v -0.6 0.4 -0.1
v -0.5 0.2 0.3
v -0.5 0.2 0.2
v -0.5 0.3 0.2
v -0.5 0.3 0.1
v -0.5 0.4 0.3
v -0.5 0.4 0.1
v -0.4 0.2 0.4
v -0.4 0.2 0.3
v -0.4 0.4 0.4
v -0.4 0.4 0.3
v -0.4 0.4 0.2
v -0.4 0.4 0.1
v -0.4 0.5 0.3
v -0.4 0.5 0.2
v -0.4 0.5 0.1
v -0.4 0.6 0.3
v -0.4 0.6 0.2
v -0.4 0.6 0.1
v -0.3 0.4 0.4
v -0.3 0.4 0.3
v -0.3 0.4 0.1
v -0.3 0.4 0
v -0.3 0.5 0.4
v -0.3 0.5 0.3
v -0.3 0.5 0.1
v -0.3 0.6 0.4
v -0.3 0.6 0.3
v -0.3 0.6 0.2
v -0.3 0.6 0.1
v -0.3 0.6 0
v -0.3 0.8 0.3
v -0.3 0.8 0.2
v -0.3 0.8 0.1
v -0.2 0.6 0.4
v -0.2 0.6 0.3
v -0.2 0.6 0.1
v -0.2 0.6 0
v -0.2 0.8 0.4
v -0.2 0.8 0.3
v -0.2 0.8 0.2
v -0.2 0.8 0.1
v -0.2 0.8 0
v -0.2 0.9 0.3
v -0.2 0.9 0.2
v -0.2 0.9 0.1
v -0.1 0.8 0.4
v -0.1 0.8 0.3
v -0.1 0.9 0.4
v -0.1 0.9 0.3
v -0.4 0.2 -0.1
v -0.4 0.2 -0.2
v -0.4 0.3 0
v -0.4 0.3 -0.1
v -0.4 0.3 -0.2
v -0.4 0.4 0
v -0.4 0.4 -0.1
v -0.3 0.2 0
v -0.3 0.2 -0.1
v -0.3 0.3 0
v -0.3 0.3 -0.1
v -0.2 0.2 0.4
v -0.2 0.2 0.3
v -0.2 0.2 0.1
v -0.2 0.2 0
v -0.2 0.4 0.4
v -0.2 0.4 0.3
v -0.2 0.4 0.1
v -0.2 0.4 0
v -0.1 0.2 0.3
v -0.1 0.2 0.1
v -0.1 0.4 0.3
v -0.1 0.4 0.1
v -0.1 0.4 0
v -0.1 0.6 0.1
v -0.1 0.6 0
v -5.96046e-008 0.4 0.2
v -5.96046e-008 0.4 0.1
v -5.96046e-008 0.5 0.2
v -5.96046e-008 0.5 0.1
v -5.96046e-008 0.6 0.1
v -5.96046e-008 0.6 0
v -5.96046e-008 0.7 0.1
v -5.96046e-008 0.8 0.2
v -5.96046e-008 0.8 0.1
v -5.96046e-008 0.8 0
v -5.96046e-008 0.9 0.2
v -5.96046e-008 0.9 0.1
v 0.1 0.7 0.2
v 0.1 0.7 0.1
v 0.1 0.8 0.3
v 0.1 0.8 0.2
v 0.1 0.8 0.1
v 0.1 0.9 0.3
v 0.1 0.9 0.2
v 0.2 0.4 0.4
v 0.2 0.4 0.2
v 0.2 0.5 0.4
v 0.2 0.5 0.2
v 0.2 0.5 0.1
v 0.2 0.7 0.2
v 0.2 0.7 0.1
v 0.3 0.5 0.4
v 0.3 0.5 0.2
v 0.3 0.7 0.3
v 0.3 0.7 0.2
v 0.3 0.8 0.3
v 0.3 0.8 0.2
v 0.3 0.9 0.4
v 0.3 0.9 0.3
v -0.4 0.2 0.4
v -0.4 0.4 0.4
v -0.3 0.4 0.4
v -0.3 0.5 0.4
v -0.3 0.6 0.4
v -0.2 0.2 0.4
v -0.2 0.4 0.4
v -0.2 0.6 0.4
v -0.2 0.8 0.4
v -0.1 0.5 0.4
v -0.1 0.6 0.4
v -0.1 0.8 0.4
v -0.1 0.9 0.4
v 0.2 0.4 0.4
v 0.2 0.5 0.4
v 0.3 0.5 0.4
v 0.3 0.9 0.4
v -0.5 0.2 0.3
v -0.5 0.4 0.3
v -0.4 0.2 0.3
v -0.4 0.4 0.3
v -0.4 0.5 0.3
v -0.4 0.6 0.3
v -0.3 0.4 0.3
v -0.3 0.5 0.3
v -0.3 0.6 0.3
v -0.3 0.8 0.3
v -0.2 0.2 0.3
v -0.2 0.4 0.3
v -0.2 0.6 0.3
v -0.2 0.8 0.3
v -0.2 0.9 0.3
v -0.1 0.2 0.3
v -0.1 0.4 0.3
v -0.1 0.8 0.3
v -0.1 0.9 0.3
v -0.6 0.2 0.2
v -0.6 0.3 0.2
v -0.5 0.2 0.2
v -0.5 0.3 0.2
v -0.6 0.3 0.1
v -0.6 0.4 0.1
v -0.5 0.3 0.1
v -0.5 0.4 0.1
v 0.1 0.8 0.3
v 0.1 0.9 0.3
v 0.3 0.8 0.3
v 0.3 0.9 0.3
v -5.96046e-008 0.4 0.2
v -5.96046e-008 0.5 0.2
v -5.96046e-008 0.8 0.2
v -5.96046e-008 0.9 0.2
v 0.1 0.7 0.2
v 0.1 0.8 0.2
v 0.1 0.9 0.2
v 0.2 0.4 0.2
v 0.2 0.5 0.2
v 0.2 0.7 0.2
v 0.3 0.5 0.2
v 0.3 0.7 0.2
v 0.3 0.8 0.2
v -0.4 0.4 0.1
v -0.4 0.5 0.1
v -0.4 0.6 0.1
v -0.3 0.4 0.1
v -0.3 0.5 0.1
v -0.3 0.6 0.1
v -0.3 0.8 0.1
v -0.2 0.2 0.1
v -0.2 0.4 0.1
v -0.2 0.6 0.1
v -0.2 0.8 0.1
v -0.2 0.9 0.1
v -0.1 0.2 0.1
v -0.1 0.4 0.1
v -0.1 0.6 0.1
v -5.96046e-008 0.4 0.1
v -5.96046e-008 0.5 0.1
v -5.96046e-008 0.6 0.1
v -5.96046e-008 0.7 0.1
v -5.96046e-008 0.8 0.1
v -5.96046e-008 0.9 0.1
v 0.1 0.7 0.1
v 0.1 0.8 0.1
v 0.2 0.5 0.1
v 0.2 0.7 0.1
v -0.4 0.3 0
v -0.4 0.4 0
v -0.3 0.2 0
v -0.3 0.3 0
v -0.3 0.4 0
v -0.3 0.6 0
v -0.2 0.2 0
v -0.2 0.4 0
v -0.2 0.6 0
v -0.2 0.8 0
v -0.1 0.4 0
v -0.1 0.6 0
v -5.96046e-008 0.6 0
v -5.96046e-008 0.8 0
v -0.6 0.3 -0.1
v -0.6 0.4 -0.1
v -0.5 0.3 -0.1
v -0.5 0.4 -0.1
v -0.4 0.2 -0.1
v -0.4 0.3 -0.1
v -0.4 0.4 -0.1
v -0.3 0.2 -0.1
v -0.3 0.3 -0.1
v -0.6 0.2 -0.2
v -0.6 0.3 -0.2
v -0.4 0.2 -0.2
v -0.4 0.3 -0.2
v -0.4 0.2 0.4
v -0.2 0.2 0.4
v -0.5 0.2 0.3
v -0.4 0.2 0.3
v -0.2 0.2 0.3
v -0.1 0.2 0.3
v -0.6 0.2 0.2
v -0.5 0.2 0.2
v -0.2 0.2 0.1
v -0.1 0.2 0.1
v -0.3 0.2 0
v -0.2 0.2 0
v -0.6 0.2 -0.1
v -0.4 0.2 -0.1
v -0.3 0.2 -0.1
v -0.6 0.2 -0.2
v -0.4 0.2 -0.2
v -0.2 0.4 0.4
v 0.2 0.4 0.4
v -0.2 0.4 0.3
v -0.1 0.4 0.3
v -5.96046e-008 0.4 0.2
v 0.2 0.4 0.2
v -0.2 0.4 0.1
v -0.1 0.4 0.1
v -5.96046e-008 0.4 0.1
v -0.2 0.4 0
v -0.1 0.4 0
v 0.2 0.5 0.4
v 0.3 0.5 0.4
v -5.96046e-008 0.5 0.2
v 0.2 0.5 0.2
v 0.3 0.5 0.2
v -5.96046e-008 0.5 0.1
v 0.2 0.5 0.1
v -0.1 0.6 0.1
v -5.96046e-008 0.6 0.1
v -0.1 0.6 0
v -5.96046e-008 0.6 0
v -0.6 0.3 0.2
v -0.5 0.3 0.2
v -0.6 0.3 0.1
v -0.5 0.3 0.1
v -0.4 0.3 0
v -0.3 0.3 0
v -0.6 0.3 -0.1
v -0.5 0.3 -0.1
v -0.4 0.3 -0.1
v -0.3 0.3 -0.1
v -0.6 0.3 -0.2
v -0.4 0.3 -0.2
v -0.4 0.4 0.4
v -0.3 0.4 0.4
v -0.5 0.4 0.3
v -0.4 0.4 0.3
v -0.3 0.4 0.3
v -0.4 0.4 0.2
v -0.6 0.4 0.1
v -0.5 0.4 0.1
v -0.4 0.4 0.1
v -0.3 0.4 0.1
v -0.4 0.4 0
v -0.3 0.4 0
v -0.6 0.4 -0.1
v -0.5 0.4 -0.1
v -0.4 0.4 -0.1
v -0.3 0.6 0.4
v -0.2 0.6 0.4
v -0.4 0.6 0.3
v -0.3 0.6 0.3
v -0.2 0.6 0.3
v -0.4 0.6 0.2
v -0.3 0.6 0.2
v -0.4 0.6 0.1
v -0.3 0.6 0.1
v -0.2 0.6 0.1
v -0.3 0.6 0
v -0.2 0.6 0
v 0.1 0.7 0.2
v 0.2 0.7 0.2
v 0.1 0.7 0.1
v 0.2 0.7 0.1
v -0.2 0.8 0.4
v -0.1 0.8 0.4
v -0.3 0.8 0.3
v -0.2 0.8 0.3
v -0.1 0.8 0.3
v 0.1 0.8 0.3
v 0.3 0.8 0.3
v -0.3 0.8 0.2
v -0.2 0.8 0.2
v -5.96046e-008 0.8 0.2
v 0.1 0.8 0.2
v 0.3 0.8 0.2
v -0.3 0.8 0.1
v -0.2 0.8 0.1
v -5.96046e-008 0.8 0.1
v 0.1 0.8 0.1
v -0.2 0.8 0
v -5.96046e-008 0.8 0
v -0.1 0.9 0.4
v 0.3 0.9 0.4
v -0.2 0.9 0.3
v -0.1 0.9 0.3
v -5.96046e-008 0.9 0.3
v 0.1 0.9 0.3
v 0.3 0.9 0.3
v -0.2 0.9 0.2
v -5.96046e-008 0.9 0.2
v 0.1 0.9 0.2
v -0.2 0.9 0.1
v -5.96046e-008 0.9 0.1

# faces
f 4/1/1 2/1/1 1/1/1
f 5/1/1 2/1/1 4/1/1
f 6/2/1 3/2/1 2/2/1
f 6/1/1 2/1/1 5/1/1
f 7/2/1 3/2/1 6/2/1
f 8/1/1 6/1/1 5/1/1
f 9/1/1 6/1/1 8/1/1
f 12/1/1 11/1/1 10/1/1
f 14/1/1 12/1/1 10/1/1
f 14/1/1 13/1/1 12/1/1
f 15/1/1 13/1/1 14/1/1
f 18/1/1 17/1/1 16/1/1
f 19/1/1 17/1/1 18/1/1
f 22/2/1 20/2/1 19/2/1
f 23/1/1 21/1/1 20/1/1
f 23/2/1 20/2/1 22/2/1
f 24/1/1 21/1/1 23/1/1
f 25/1/1 23/1/1 22/1/1
f 26/2/1 24/2/1 23/2/1
f 26/1/1 23/1/1 25/1/1
f 27/2/1 24/2/1 26/2/1
f 32/1/1 29/1/1 28/1/1
f 33/1/1 29/1/1 32/1/1
f 34/1/1 31/1/1 30/1/1
f 35/2/1 33/2/1 32/2/1
f 36/2/1 33/2/1 35/2/1
f 38/1/1 31/1/1 34/1/1
f 39/1/1 31/1/1 38/1/1
f 40/1/1 37/1/1 36/1/1
f 41/2/1 38/2/1 37/2/1
f 41/1/1 37/1/1 40/1/1
f 42/2/1 38/2/1 41/2/1
f 47/1/1 44/1/1 43/1/1
f 48/1/1 44/1/1 47/1/1
f 50/1/1 46/1/1 45/1/1
f 51/1/1 46/1/1 50/1/1
f 52/1/1 49/1/1 48/1/1
f 53/2/1 50/2/1 49/2/1
f 53/1/1 49/1/1 52/1/1
f 54/2/1 50/2/1 53/2/1
f 57/1/1 56/1/1 55/1/1
f 58/1/1 56/1/1 57/1/1
f 59/2/2 60/2/2 62/2/2
f 62/2/2 60/2/2 63/2/2
f 61/2/2 62/2/2 64/2/2
f 64/2/2 62/2/2 65/2/2
f 66/1/2 67/1/2 68/1/2
f 68/1/2 67/1/2 69/1/2
f 70/1/2 71/1/2 74/1/2
f 74/1/2 71/1/2 75/1/2
f 72/1/2 73/1/2 76/1/2
f 76/1/2 73/1/2 77/1/2
f 78/1/2 79/1/2 80/1/2
f 80/1/2 79/1/2 81/1/2
f 81/1/2 82/1/2 83/1/2
f 83/1/2 82/1/2 84/1/2
f 85/1/2 86/1/2 87/1/2
f 87/1/2 86/1/2 88/1/2
f 89/1/2 90/1/2 91/1/2
f 91/1/2 90/1/2 93/1/2
f 93/1/2 90/1/2 94/1/2
f 92/2/2 93/2/2 95/2/2
f 95/2/2 93/2/2 96/2/2
f 97/2/2 98/2/2 100/2/2
f 100/2/2 98/2/2 101/2/2
f 99/2/2 100/2/2 102/2/2
f 102/2/2 100/2/2 103/2/2
f 104/1/2 105/1/2 106/1/2
f 106/1/2 105/1/2 107/1/2
f 107/1/2 108/1/2 109/1/2
f 109/1/2 108/1/2 110/1/2
f 111/1/2 112/1/2 113/1/2
f 113/1/2 112/1/2 114/1/2
f 111/1/2 113/1/2 115/1/2
f 113/2/2 114/2/2 115/2/2
f 115/2/2 114/2/2 116/2/2
f 111/1/2 115/1/2 117/1/2
f 117/1/2 115/1/2 118/1/2
f 121/1/3 120/1/3 119/1/3
f 124/1/3 121/1/3 119/1/3
f 124/1/3 122/1/3 121/1/3
f 125/1/3 122/1/3 124/1/3
f 126/2/3 123/2/3 122/2/3
f 128/1/3 122/1/3 125/1/3
f 128/2/3 126/2/3 122/2/3
f 129/1/3 127/1/3 126/1/3
f 129/2/3 126/2/3 128/2/3
f 130/1/3 127/1/3 129/1/3
f 132/1/3 128/1/3 125/1/3
f 132/1/3 131/1/3 130/1/3
f 132/1/3 130/1/3 129/1/3
f 132/1/3 129/1/3 128/1/3
f 133/1/3 131/1/3 132/1/3
f 134/1/3 131/1/3 133/1/3
f 135/1/3 131/1/3 134/1/3
f 138/1/3 137/1/3 136/1/3
f 139/1/3 137/1/3 138/1/3
f 142/2/3 140/2/3 139/2/3
f 143/1/3 141/1/3 140/1/3
f 143/2/3 140/2/3 142/2/3
f 144/1/3 141/1/3 143/1/3
f 148/1/3 145/1/3 144/1/3
f 149/1/3 145/1/3 148/1/3
f 151/1/3 147/1/3 146/1/3
f 152/1/3 147/1/3 151/1/3
f 153/1/3 150/1/3 149/1/3
f 154/1/3 150/1/3 153/1/3
f 157/1/3 156/1/3 155/1/3
f 158/1/3 156/1/3 157/1/3
f 161/1/3 160/1/3 159/1/3
f 162/1/3 160/1/3 161/1/3
f 163/1/4 164/1/4 165/1/4
f 165/1/4 164/1/4 166/1/4
f 169/2/4 170/2/4 172/2/4
f 172/2/4 170/2/4 173/2/4
f 167/1/4 168/1/4 174/1/4
f 174/1/4 168/1/4 175/1/4
f 171/2/4 172/2/4 176/2/4
f 175/1/4 176/1/4 177/1/4
f 176/2/4 172/2/4 178/2/4
f 177/1/4 176/1/4 178/1/4
f 178/2/4 172/2/4 179/2/4
f 180/1/4 181/1/4 183/1/4
f 181/2/4 182/2/4 184/2/4
f 183/1/4 181/1/4 184/1/4
f 184/2/4 182/2/4 185/2/4
f 185/2/4 186/2/4 189/2/4
f 189/2/4 186/2/4 190/2/4
f 187/1/4 188/1/4 192/1/4
f 192/1/4 188/1/4 193/1/4
f 193/1/4 194/1/4 195/1/4
f 195/1/4 194/1/4 196/1/4
f 196/1/4 194/1/4 197/1/4
f 190/2/4 191/2/4 199/2/4
f 199/2/4 191/2/4 200/2/4
f 197/1/4 198/1/4 201/1/4
f 198/2/4 199/2/4 201/2/4
f 196/1/4 197/1/4 201/1/4
f 201/2/4 199/2/4 202/2/4
f 196/1/4 201/1/4 203/1/4
f 203/1/4 201/1/4 204/1/4
f 205/2/4 206/2/4 208/2/4
f 208/2/4 206/2/4 209/2/4
f 207/1/4 208/1/4 211/1/4
f 209/1/4 210/1/4 211/1/4
f 208/1/4 209/1/4 211/1/4
f 211/1/4 210/1/4 212/1/4
f 212/1/4 210/1/4 213/1/4
f 213/1/4 214/1/4 215/1/4
f 212/1/4 213/1/4 215/1/4
f 215/1/4 214/1/4 216/1/4
f 216/1/4 214/1/4 217/1/4
f 217/1/4 214/1/4 218/1/4
f 219/1/4 220/1/4 221/1/4
f 221/1/4 220/1/4 222/1/4
f 221/2/4 222/2/4 224/2/4
f 224/2/4 222/2/4 225/2/4
f 223/1/4 224/1/4 226/1/4
f 226/1/4 224/1/4 227/1/4
f 228/2/4 229/2/4 230/2/4
f 230/2/4 229/2/4 231/2/4
f 235/1/5 233/1/5 232/1/5
f 236/1/5 233/1/5 235/1/5
f 239/1/5 235/1/5 234/1/5
f 239/1/5 237/1/5 236/1/5
f 239/1/5 236/1/5 235/1/5
f 240/1/5 237/1/5 239/1/5
f 240/1/5 239/1/5 238/1/5
f 241/1/5 237/1/5 240/1/5
f 242/1/5 240/1/5 238/1/5
f 243/1/5 240/1/5 242/1/5
f 244/1/5 242/1/5 238/1/5
f 245/1/5 242/1/5 244/1/5
f 246/1/5 242/1/5 245/1/5
f 247/2/5 245/2/5 244/2/5
f 248/2/5 245/2/5 247/2/5
f 251/1/5 250/1/5 249/1/5
f 252/1/5 250/1/5 251/1/5
f 253/1/5 250/1/5 252/1/5
f 254/1/5 250/1/5 253/1/5
f 256/1/5 253/1/5 252/1/5
f 257/1/5 253/1/5 256/1/5
f 258/1/5 256/1/5 255/1/5
f 259/1/5 256/1/5 258/1/5
f 263/1/5 261/1/5 260/1/5
f 264/1/5 261/1/5 263/1/5
f 265/1/5 263/1/5 262/1/5
f 266/1/5 263/1/5 265/1/5
f 269/1/5 268/1/5 267/1/5
f 270/1/5 268/1/5 269/1/5
f 271/1/6 272/1/6 273/1/6
f 273/1/6 272/1/6 274/1/6
f 275/1/6 276/1/6 279/1/6
f 279/1/6 276/1/6 280/1/6
f 277/2/6 278/2/6 281/2/6
f 278/2/6 279/2/6 281/2/6
f 281/2/6 279/2/6 282/2/6
f 283/1/6 284/1/6 286/1/6
f 286/1/6 284/1/6 287/1/6
f 285/1/6 286/1/6 288/1/6
f 285/1/6 288/1/6 290/1/6
f 290/1/6 288/1/6 291/1/6
f 290/2/6 291/2/6 293/2/6
f 291/2/6 292/2/6 293/2/6
f 293/2/6 292/2/6 294/2/6
f 289/1/6 290/1/6 295/1/6
f 290/2/6 293/2/6 296/2/6
f 295/1/6 290/1/6 296/1/6
f 296/2/6 293/2/6 297/2/6
f 298/2/6 299/2/6 301/2/6
f 301/2/6 299/2/6 302/2/6
f 300/1/6 301/1/6 303/1/6
f 303/1/6 301/1/6 304/1/6
f 303/2/6 304/2/6 305/2/6
f 305/2/6 304/2/6 306/2/6
f 306/1/6 307/1/6 308/1/6
f 308/1/6 307/1/6 309/1/6
f 310/1/6 311/1/6 312/1/6
f 312/1/6 311/1/6 313/1/6
f 314/1/6 315/1/6 317/1/6
f 317/1/6 315/1/6 318/1/6
f 316/1/6 317/1/6 321/1/6
f 321/1/6 317/1/6 322/1/6
f 319/2/6 320/2/6 324/2/6
f 324/2/6 320/2/6 325/2/6
f 321/2/6 322/2/6 326/2/6
f 326/2/6 322/2/6 327/2/6
f 323/2/6 324/2/6 328/2/6
f 328/2/6 324/2/6 329/2/6
f 327/1/6 328/1/6 330/1/6
f 330/1/6 328/1/6 331/1/6
f 332/1/6 333/1/6 335/1/6
f 335/1/6 333/1/6 336/1/6
f 336/1/6 333/1/6 337/1/6
f 337/1/6 333/1/6 338/1/6
f 334/1/6 335/1/6 339/1/6
f 335/1/6 336/1/6 339/1/6
f 336/2/6 337/2/6 340/2/6
f 339/1/6 336/1/6 340/1/6
f 340/2/6 337/2/6 341/2/6
f 339/2/6 340/2/6 342/2/6
f 342/2/6 340/2/6 343/2/6
