# MagicaVoxel @ Ephtracy

# group
o 

# material
mtllib draft_for_export-0.mtl
usemtl palette

# normals
vn -1 0 0
vn 1 0 0
vn 0 0 1
vn 0 0 -1
vn 0 -1 0
vn 0 1 0

# texcoords
vt 0.970703 0.5
vt 0.974609 0.5
vt 0.978516 0.5
vt 0.982422 0.5

# verts
v -0.3 0.6 0.3
v -0.3 0.6 -0.1
v -0.3 1 0.3
v -0.3 1 -0.1
v -0.2 0.5 0.3
v -0.2 0.5 -0.1
v -0.2 0.6 0.4
v -0.2 0.6 0.3
v -0.2 0.6 -0.1
v -0.2 0.6 -0.2
v -0.2 1 0.4
v -0.2 1 0.3
v -0.2 1 -0.1
v -0.2 1 -0.2
v -0.2 1.1 0.3
v -0.2 1.1 0.2
v -0.2 1.1 0
v -0.2 1.1 -0.1
v -0.2 1.2 0.2
v -0.2 1.2 0
v -0.1 1.1 0.3
v -0.1 1.1 0.2
v -0.1 1.1 0
v -0.1 1.1 -0.1
v -0.1 1.2 0.3
v -0.1 1.2 0.2
v -0.1 1.2 0
v -0.1 1.2 -0.1
v 0.1 1.1 0.3
v 0.1 1.1 0.2
v 0.1 1.1 0
v 0.1 1.1 -0.1
v 0.1 1.2 0.3
v 0.1 1.2 0.2
v 0.1 1.2 0
v 0.1 1.2 -0.1
v 0.2 0.5 0.3
v 0.2 0.5 -0.1
v 0.2 0.6 0.4
v 0.2 0.6 0.3
v 0.2 0.6 -0.1
v 0.2 0.6 -0.2
v 0.2 0.7 0.3
v 0.2 0.7 -0.1
v 0.2 0.8 0.3
v 0.2 0.8 -0.1
v 0.2 0.9 0.3
v 0.2 0.9 -0.1
v 0.2 1 0.4
v 0.2 1 0.3
v 0.2 1 -0.1
v 0.2 1 -0.2
v 0.2 1.1 0.3
v 0.2 1.1 0.2
v 0.2 1.1 0
v 0.2 1.1 -0.1
v 0.2 1.2 0.2
v 0.2 1.2 0
v 0.3 0.6 0.3
v 0.3 0.6 -0.1
v 0.3 0.7 0.3
v 0.3 0.7 0.2
v 0.3 0.7 0
v 0.3 0.7 -0.1
v 0.3 0.8 0.3
v 0.3 0.8 0.2
v 0.3 0.8 0
v 0.3 0.8 -0.1
v 0.3 0.9 0.3
v 0.3 0.9 0.2
v 0.3 0.9 0
v 0.3 0.9 -0.1
v 0.3 1 0.3
v 0.3 1 -0.1
v 0.4 0.7 0.2
v 0.4 0.7 0
v 0.4 0.8 0.2
v 0.4 0.8 0
v -0.2 0.6 0.4
v -0.2 1 0.4
v 0.2 0.6 0.4
v 0.2 1 0.4
v -0.3 0.6 0.3
v -0.3 1 0.3
v -0.2 0.5 0.3
v -0.2 0.6 0.3
v -0.2 1 0.3
v -0.2 1.1 0.3
v -0.1 1.1 0.3
v -0.1 1.2 0.3
v 0.1 1.1 0.3
v 0.1 1.2 0.3
v 0.2 0.5 0.3
v 0.2 0.6 0.3
v 0.2 0.7 0.3
v 0.2 0.8 0.3
v 0.2 0.9 0.3
v 0.2 1 0.3
v 0.2 1.1 0.3
v 0.3 0.6 0.3
v 0.3 0.7 0.3
v 0.3 0.8 0.3
v 0.3 0.9 0.3
v 0.3 1 0.3
v -0.2 1.1 0.2
v -0.2 1.2 0.2
v -0.1 1.1 0.2
v -0.1 1.2 0.2
v 0.1 1.1 0.2
v 0.1 1.2 0.2
v 0.2 1.1 0.2
v 0.2 1.2 0.2
v 0.3 0.7 0.2
v 0.3 0.8 0.2
v 0.4 0.7 0.2
v 0.4 0.8 0.2
v -0.2 1.1 0
v -0.2 1.2 0
v -0.1 1.1 0
v -0.1 1.2 0
v 0.1 1.1 0
v 0.1 1.2 0
v 0.2 1.1 0
v 0.2 1.2 0
v 0.3 0.7 0
v 0.3 0.8 0
v 0.4 0.7 0
v 0.4 0.8 0
v -0.3 0.6 -0.1
v -0.3 1 -0.1
v -0.2 0.5 -0.1
v -0.2 0.6 -0.1
v -0.2 1 -0.1
v -0.2 1.1 -0.1
v -0.1 1.1 -0.1
v -0.1 1.2 -0.1
v 0.1 1.1 -0.1
v 0.1 1.2 -0.1
v 0.2 0.5 -0.1
v 0.2 0.6 -0.1
v 0.2 0.7 -0.1
v 0.2 0.8 -0.1
v 0.2 0.9 -0.1
v 0.2 1 -0.1
v 0.2 1.1 -0.1
v 0.3 0.6 -0.1
v 0.3 0.7 -0.1
v 0.3 0.8 -0.1
v 0.3 0.9 -0.1
v 0.3 1 -0.1
v -0.2 0.6 -0.2
v -0.2 1 -0.2
v 0.2 0.6 -0.2
v 0.2 1 -0.2
v -0.2 0.5 0.3
v 0.2 0.5 0.3
v -0.2 0.5 -0.1
v 0.2 0.5 -0.1
v -0.2 0.6 0.4
v 0.2 0.6 0.4
v -0.3 0.6 0.3
v -0.2 0.6 0.3
v 0.2 0.6 0.3
v 0.3 0.6 0.3
v -0.3 0.6 -0.1
v -0.2 0.6 -0.1
v 0.2 0.6 -0.1
v 0.3 0.6 -0.1
v -0.2 0.6 -0.2
v 0.2 0.6 -0.2
v 0.3 0.7 0.2
v 0.4 0.7 0.2
v 0.3 0.7 0
v 0.4 0.7 0
v 0.3 0.8 0.2
v 0.4 0.8 0.2
v 0.3 0.8 0
v 0.4 0.8 0
v -0.2 1 0.4
v 0.2 1 0.4
v -0.3 1 0.3
v -0.2 1 0.3
v 0.2 1 0.3
v 0.3 1 0.3
v -0.3 1 -0.1
v -0.2 1 -0.1
v 0.2 1 -0.1
v 0.3 1 -0.1
v -0.2 1 -0.2
v 0.2 1 -0.2
v -0.2 1.1 0.3
v -0.1 1.1 0.3
v 0.1 1.1 0.3
v 0.2 1.1 0.3
v -0.2 1.1 0.2
v -0.1 1.1 0.2
v 0.1 1.1 0.2
v 0.2 1.1 0.2
v -0.2 1.1 0
v -0.1 1.1 0
v 0.1 1.1 0
v 0.2 1.1 0
v -0.2 1.1 -0.1
v -0.1 1.1 -0.1
v 0.1 1.1 -0.1
v 0.2 1.1 -0.1
v -0.1 1.2 0.3
v 0.1 1.2 0.3
v -0.2 1.2 0.2
v -0.1 1.2 0.2
v 0.1 1.2 0.2
v 0.2 1.2 0.2
v -0.2 1.2 0
v -0.1 1.2 0
v 0.1 1.2 0
v 0.2 1.2 0
v -0.1 1.2 -0.1
v 0.1 1.2 -0.1

# faces
f 3/1/1 2/1/1 1/1/1
f 4/1/1 2/1/1 3/1/1
f 8/1/1 6/1/1 5/1/1
f 9/1/1 6/1/1 8/1/1
f 11/1/1 8/1/1 7/1/1
f 12/1/1 8/1/1 11/1/1
f 13/1/1 10/1/1 9/1/1
f 14/1/1 10/1/1 13/1/1
f 15/1/1 13/1/1 12/1/1
f 16/1/1 13/1/1 15/1/1
f 17/1/1 13/1/1 16/1/1
f 18/1/1 13/1/1 17/1/1
f 19/3/1 17/3/1 16/3/1
f 20/3/1 17/3/1 19/3/1
f 25/3/1 22/3/1 21/3/1
f 26/3/1 22/3/1 25/3/1
f 27/3/1 24/3/1 23/3/1
f 28/3/1 24/3/1 27/3/1
f 29/3/2 30/3/2 33/3/2
f 33/3/2 30/3/2 34/3/2
f 31/3/2 32/3/2 35/3/2
f 35/3/2 32/3/2 36/3/2
f 37/1/2 38/1/2 40/1/2
f 40/1/2 38/1/2 41/1/2
f 39/1/2 40/1/2 43/1/2
f 41/1/2 42/1/2 44/1/2
f 39/1/2 43/1/2 45/1/2
f 44/1/2 42/1/2 46/1/2
f 39/1/2 45/1/2 47/1/2
f 46/1/2 42/1/2 48/1/2
f 39/1/2 47/1/2 49/1/2
f 49/1/2 47/1/2 50/1/2
f 48/1/2 42/1/2 51/1/2
f 51/1/2 42/1/2 52/1/2
f 50/1/2 51/1/2 53/1/2
f 53/1/2 51/1/2 54/1/2
f 54/1/2 51/1/2 55/1/2
f 55/1/2 51/1/2 56/1/2
f 54/3/2 55/3/2 57/3/2
f 57/3/2 55/3/2 58/3/2
f 59/1/2 60/1/2 61/1/2
f 61/1/2 60/1/2 62/1/2
f 62/1/2 60/1/2 63/1/2
f 63/1/2 60/1/2 64/1/2
f 61/4/2 62/4/2 65/4/2
f 65/4/2 62/4/2 66/4/2
f 63/4/2 64/4/2 67/4/2
f 67/4/2 64/4/2 68/4/2
f 65/2/2 66/2/2 69/2/2
f 66/1/2 67/1/2 70/1/2
f 69/2/2 66/2/2 70/2/2
f 67/2/2 68/2/2 71/2/2
f 70/1/2 67/1/2 71/1/2
f 71/2/2 68/2/2 72/2/2
f 69/1/2 70/1/2 73/1/2
f 70/1/2 71/1/2 73/1/2
f 71/1/2 72/1/2 73/1/2
f 73/1/2 72/1/2 74/1/2
f 75/1/2 76/1/2 77/1/2
f 77/1/2 76/1/2 78/1/2
f 81/1/3 80/1/3 79/1/3
f 82/1/3 80/1/3 81/1/3
f 86/1/3 84/1/3 83/1/3
f 87/1/3 84/1/3 86/1/3
f 89/1/3 88/1/3 87/1/3
f 91/1/3 89/1/3 87/1/3
f 91/3/3 90/3/3 89/3/3
f 92/3/3 90/3/3 91/3/3
f 93/1/3 86/1/3 85/1/3
f 94/1/3 86/1/3 93/1/3
f 98/1/3 91/1/3 87/1/3
f 99/1/3 91/1/3 98/1/3
f 100/1/3 95/1/3 94/1/3
f 101/4/3 96/4/3 95/4/3
f 101/1/3 95/1/3 100/1/3
f 102/2/3 97/2/3 96/2/3
f 102/4/3 96/4/3 101/4/3
f 103/1/3 98/1/3 97/1/3
f 103/2/3 97/2/3 102/2/3
f 104/1/3 98/1/3 103/1/3
f 107/3/3 106/3/3 105/3/3
f 108/3/3 106/3/3 107/3/3
f 111/3/3 110/3/3 109/3/3
f 112/3/3 110/3/3 111/3/3
f 115/1/3 114/1/3 113/1/3
f 116/1/3 114/1/3 115/1/3
f 117/3/4 118/3/4 119/3/4
f 119/3/4 118/3/4 120/3/4
f 121/3/4 122/3/4 123/3/4
f 123/3/4 122/3/4 124/3/4
f 125/1/4 126/1/4 127/1/4
f 127/1/4 126/1/4 128/1/4
f 129/1/4 130/1/4 132/1/4
f 132/1/4 130/1/4 133/1/4
f 133/1/4 134/1/4 135/1/4
f 133/1/4 135/1/4 137/1/4
f 135/3/4 136/3/4 137/3/4
f 137/3/4 136/3/4 138/3/4
f 131/1/4 132/1/4 139/1/4
f 139/1/4 132/1/4 140/1/4
f 133/1/4 137/1/4 144/1/4
f 144/1/4 137/1/4 145/1/4
f 140/1/4 141/1/4 146/1/4
f 141/4/4 142/4/4 147/4/4
f 146/1/4 141/1/4 147/1/4
f 142/2/4 143/2/4 148/2/4
f 147/4/4 142/4/4 148/4/4
f 143/1/4 144/1/4 149/1/4
f 148/2/4 143/2/4 149/2/4
f 149/1/4 144/1/4 150/1/4
f 151/1/4 152/1/4 153/1/4
f 153/1/4 152/1/4 154/1/4
f 157/1/5 156/1/5 155/1/5
f 158/1/5 156/1/5 157/1/5
f 162/1/5 160/1/5 159/1/5
f 163/1/5 160/1/5 162/1/5
f 165/1/5 162/1/5 161/1/5
f 166/1/5 162/1/5 165/1/5
f 167/1/5 164/1/5 163/1/5
f 168/1/5 164/1/5 167/1/5
f 169/1/5 167/1/5 166/1/5
f 170/1/5 167/1/5 169/1/5
f 173/1/5 172/1/5 171/1/5
f 174/1/5 172/1/5 173/1/5
f 175/1/6 176/1/6 177/1/6
f 177/1/6 176/1/6 178/1/6
f 179/1/6 180/1/6 182/1/6
f 182/1/6 180/1/6 183/1/6
f 181/1/6 182/1/6 185/1/6
f 185/1/6 182/1/6 186/1/6
f 183/1/6 184/1/6 187/1/6
f 187/1/6 184/1/6 188/1/6
f 186/1/6 187/1/6 189/1/6
f 189/1/6 187/1/6 190/1/6
f 191/1/6 192/1/6 195/1/6
f 195/1/6 192/1/6 196/1/6
f 193/1/6 194/1/6 197/1/6
f 197/1/6 194/1/6 198/1/6
f 199/1/6 200/1/6 203/1/6
f 203/1/6 200/1/6 204/1/6
f 201/1/6 202/1/6 205/1/6
f 205/1/6 202/1/6 206/1/6
f 207/3/6 208/3/6 210/3/6
f 210/3/6 208/3/6 211/3/6
f 209/3/6 210/3/6 213/3/6
f 211/3/6 212/3/6 213/3/6
f 210/3/6 211/3/6 213/3/6
f 213/3/6 212/3/6 214/3/6
f 214/3/6 212/3/6 215/3/6
f 215/3/6 212/3/6 216/3/6
f 214/3/6 215/3/6 217/3/6
f 217/3/6 215/3/6 218/3/6
