# MagicaVoxel @ Ephtracy

# group
o 

# material
mtllib draft_for_export-5.mtl
usemtl palette

# normals
vn -1 0 0
vn 1 0 0
vn 0 0 1
vn 0 0 -1
vn 0 -1 0
vn 0 1 0

# texcoords
vt 0.306641 0.5
vt 0.970703 0.5
vt 0.974609 0.5
vt 0.978516 0.5
vt 0.986328 0.5
vt 0.990234 0.5

# verts
v -0.2 0.2 0.4
v -0.2 0.2 -0.2
v -0.2 1.1 0.5
v -0.2 1.1 0.4
v -0.2 1.1 -0.2
v -0.2 1.1 -0.3
v -0.2 1.3 0.3
v -0.2 1.3 -0.1
v -0.2 1.4 0.5
v -0.2 1.4 0.3
v -0.2 1.4 0.2
v -0.2 1.4 0
v -0.2 1.4 -0.1
v -0.2 1.4 -0.3
v -0.2 1.5 0.2
v -0.2 1.5 0
v -0.1 0.2 0.5
v -0.1 0.2 0.4
v -0.1 0.2 -0.2
v -0.1 0.2 -0.3
v -0.1 1.1 0.5
v -0.1 1.1 0.4
v -0.1 1.1 -0.2
v -0.1 1.1 -0.3
v -0.1 1.4 0.3
v -0.1 1.4 0.2
v -0.1 1.4 0
v -0.1 1.4 -0.1
v -0.1 1.5 0.3
v -0.1 1.5 0.2
v -0.1 1.5 0
v -0.1 1.5 -0.1
v 0.1 0.2 0.5
v 0.1 0.2 0.4
v 0.1 0.2 -0.2
v 0.1 0.2 -0.3
v 0.1 0.3 0.4
v 0.1 0.3 -0.2
v 0.1 0.4 0.4
v 0.1 0.4 -0.2
v 0.1 0.5 0.4
v 0.1 0.5 -0.2
v 0.1 1 0.5
v 0.1 1 0.4
v 0.1 1 -0.2
v 0.1 1 -0.3
v 0.1 1.4 0.3
v 0.1 1.4 0.2
v 0.1 1.4 0
v 0.1 1.4 -0.1
v 0.1 1.5 0.3
v 0.1 1.5 0.2
v 0.1 1.5 0
v 0.1 1.5 -0.1
v 0.2 0.2 0.4
v 0.2 0.2 -0.2
v 0.2 0.3 0.4
v 0.2 0.3 -0.2
v 0.2 0.4 0.4
v 0.2 0.4 -0.2
v 0.2 0.5 0.4
v 0.2 0.5 0.3
v 0.2 0.5 -0.1
v 0.2 0.5 -0.2
v 0.2 1 0.5
v 0.2 1 0.4
v 0.2 1 -0.2
v 0.2 1 -0.3
v 0.2 1.2 0.2
v 0.2 1.2 0
v 0.2 1.3 0.3
v 0.2 1.3 0.2
v 0.2 1.3 0
v 0.2 1.3 -0.1
v 0.2 1.4 0.5
v 0.2 1.4 0.3
v 0.2 1.4 0.2
v 0.2 1.4 0
v 0.2 1.4 -0.1
v 0.2 1.4 -0.3
v 0.2 1.5 0.2
v 0.2 1.5 0
v -0.2 1.1 0.5
v -0.2 1.4 0.5
v -0.1 0.2 0.5
v -0.1 1.1 0.5
v -0.1 1.2 0.5
v -0.1 1.3 0.5
v 0 1.2 0.5
v 0 1.3 0.5
v 0.1 0.2 0.5
v 0.1 1 0.5
v 0.2 1 0.5
v 0.2 1.4 0.5
v -0.2 0.2 0.4
v -0.2 1.1 0.4
v -0.1 0.2 0.4
v -0.1 1.1 0.4
v 0.1 0.2 0.4
v 0.1 0.3 0.4
v 0.1 0.4 0.4
v 0.1 0.5 0.4
v 0.1 1 0.4
v 0.2 0.2 0.4
v 0.2 0.3 0.4
v 0.2 0.4 0.4
v 0.2 0.5 0.4
v 0.2 1 0.4
v -0.1 1.4 0.3
v -0.1 1.5 0.3
v 0.1 1.4 0.3
v 0.1 1.5 0.3
v -0.2 1.4 0.2
v -0.2 1.5 0.2
v -0.1 1.4 0.2
v -0.1 1.5 0.2
v 0.1 1.4 0.2
v 0.1 1.5 0.2
v 0.2 1.4 0.2
v 0.2 1.5 0.2
v -0.2 1.4 0
v -0.2 1.5 0
v -0.1 1.4 0
v -0.1 1.5 0
v 0.1 1.4 0
v 0.1 1.5 0
v 0.2 1.4 0
v 0.2 1.5 0
v -0.1 1.4 -0.1
v -0.1 1.5 -0.1
v 0.1 1.4 -0.1
v 0.1 1.5 -0.1
v -0.2 0.2 -0.2
v -0.2 1.1 -0.2
v -0.1 0.2 -0.2
v -0.1 1.1 -0.2
v 0.1 0.2 -0.2
v 0.1 0.3 -0.2
v 0.1 0.4 -0.2
v 0.1 0.5 -0.2
v 0.1 1 -0.2
v 0.2 0.2 -0.2
v 0.2 0.3 -0.2
v 0.2 0.4 -0.2
v 0.2 0.5 -0.2
v 0.2 1 -0.2
v -0.2 1.1 -0.3
v -0.2 1.4 -0.3
v -0.1 0.2 -0.3
v -0.1 1.1 -0.3
v -0.1 1.2 -0.3
v -0.1 1.3 -0.3
v 0 1.2 -0.3
v 0 1.3 -0.3
v 0.1 0.2 -0.3
v 0.1 1 -0.3
v 0.2 1 -0.3
v 0.2 1.4 -0.3
v -0.1 0.2 0.5
v 0.1 0.2 0.5
v -0.2 0.2 0.4
v -0.1 0.2 0.4
v 0 0.2 0.4
v 0.1 0.2 0.4
v 0.2 0.2 0.4
v -0.2 0.2 -0.2
v -0.1 0.2 -0.2
v 0 0.2 -0.2
v 0.1 0.2 -0.2
v 0.2 0.2 -0.2
v -0.1 0.2 -0.3
v 0.1 0.2 -0.3
v 0.1 1 0.5
v 0.2 1 0.5
v 0.1 1 0.4
v 0.2 1 0.4
v 0.1 1 -0.2
v 0.2 1 -0.2
v 0.1 1 -0.3
v 0.2 1 -0.3
v -0.2 1.1 0.5
v -0.1 1.1 0.5
v -0.2 1.1 0.4
v -0.1 1.1 0.4
v -0.2 1.1 -0.2
v -0.1 1.1 -0.2
v -0.2 1.1 -0.3
v -0.1 1.1 -0.3
v -0.2 1.4 0.5
v 0.2 1.4 0.5
v -0.1 1.4 0.4
v 0.1 1.4 0.4
v -0.2 1.4 0.3
v -0.1 1.4 0.3
v 0.1 1.4 0.3
v 0.2 1.4 0.3
v -0.2 1.4 0.2
v -0.1 1.4 0.2
v 0.1 1.4 0.2
v 0.2 1.4 0.2
v -0.2 1.4 0
v -0.1 1.4 0
v 0.1 1.4 0
v 0.2 1.4 0
v -0.2 1.4 -0.1
v -0.1 1.4 -0.1
v 0.1 1.4 -0.1
v 0.2 1.4 -0.1
v -0.1 1.4 -0.2
v 0.1 1.4 -0.2
v -0.2 1.4 -0.3
v 0.2 1.4 -0.3
v -0.1 1.5 0.3
v 0.1 1.5 0.3
v -0.2 1.5 0.2
v -0.1 1.5 0.2
v 0.1 1.5 0.2
v 0.2 1.5 0.2
v -0.2 1.5 0
v -0.1 1.5 0
v 0.1 1.5 0
v 0.2 1.5 0
v -0.1 1.5 -0.1
v 0.1 1.5 -0.1

# faces
f 4/6/1 2/6/1 1/6/1
f 5/6/1 2/6/1 4/6/1
f 7/6/1 4/6/1 3/6/1
f 7/6/1 6/6/1 5/6/1
f 7/6/1 5/6/1 4/6/1
f 8/6/1 6/6/1 7/6/1
f 9/6/1 7/6/1 3/6/1
f 10/2/1 8/2/1 7/2/1
f 10/6/1 7/6/1 9/6/1
f 11/2/1 8/2/1 10/2/1
f 12/2/1 8/2/1 11/2/1
f 13/6/1 6/6/1 8/6/1
f 13/2/1 8/2/1 12/2/1
f 14/6/1 6/6/1 13/6/1
f 15/2/1 12/2/1 11/2/1
f 16/2/1 12/2/1 15/2/1
f 21/6/1 18/6/1 17/6/1
f 22/6/1 18/6/1 21/6/1
f 23/6/1 20/6/1 19/6/1
f 24/6/1 20/6/1 23/6/1
f 29/2/1 26/2/1 25/2/1
f 30/2/1 26/2/1 29/2/1
f 31/2/1 28/2/1 27/2/1
f 32/2/1 28/2/1 31/2/1
f 33/6/2 34/6/2 37/6/2
f 35/6/2 36/6/2 38/6/2
f 33/6/2 37/6/2 39/6/2
f 38/6/2 36/6/2 40/6/2
f 33/6/2 39/6/2 41/6/2
f 40/6/2 36/6/2 42/6/2
f 33/6/2 41/6/2 43/6/2
f 43/6/2 41/6/2 44/6/2
f 42/6/2 36/6/2 45/6/2
f 45/6/2 36/6/2 46/6/2
f 47/2/2 48/2/2 51/2/2
f 51/2/2 48/2/2 52/2/2
f 49/2/2 50/2/2 53/2/2
f 53/2/2 50/2/2 54/2/2
f 55/5/2 56/5/2 57/5/2
f 57/5/2 56/5/2 58/5/2
f 57/4/2 58/4/2 59/4/2
f 59/4/2 58/4/2 60/4/2
f 59/3/2 60/3/2 61/3/2
f 61/3/2 60/3/2 62/3/2
f 62/3/2 60/3/2 63/3/2
f 63/3/2 60/3/2 64/3/2
f 61/6/2 62/6/2 66/6/2
f 63/6/2 64/6/2 67/6/2
f 62/3/2 63/3/2 69/3/2
f 69/3/2 63/3/2 70/3/2
f 66/6/2 62/6/2 71/6/2
f 65/6/2 66/6/2 71/6/2
f 62/3/2 69/3/2 71/3/2
f 69/2/2 70/2/2 72/2/2
f 71/3/2 69/3/2 72/3/2
f 70/3/2 63/3/2 73/3/2
f 72/2/2 70/2/2 73/2/2
f 63/6/2 67/6/2 74/6/2
f 73/3/2 63/3/2 74/3/2
f 67/6/2 68/6/2 74/6/2
f 65/6/2 71/6/2 75/6/2
f 72/2/2 73/2/2 76/2/2
f 75/6/2 71/6/2 76/6/2
f 71/2/2 72/2/2 76/2/2
f 73/2/2 74/2/2 76/2/2
f 76/2/2 74/2/2 77/2/2
f 77/2/2 74/2/2 78/2/2
f 74/6/2 68/6/2 79/6/2
f 78/2/2 74/2/2 79/2/2
f 79/6/2 68/6/2 80/6/2
f 77/2/2 78/2/2 81/2/2
f 81/2/2 78/2/2 82/2/2
f 86/6/3 84/6/3 83/6/3
f 87/6/3 84/6/3 86/6/3
f 88/6/3 84/6/3 87/6/3
f 89/6/3 86/6/3 85/6/3
f 89/6/3 87/6/3 86/6/3
f 89/1/3 88/1/3 87/1/3
f 90/6/3 84/6/3 88/6/3
f 90/1/3 88/1/3 89/1/3
f 91/6/3 89/6/3 85/6/3
f 91/6/3 90/6/3 89/6/3
f 92/6/3 90/6/3 91/6/3
f 93/6/3 90/6/3 92/6/3
f 94/6/3 84/6/3 90/6/3
f 94/6/3 90/6/3 93/6/3
f 97/6/3 96/6/3 95/6/3
f 98/6/3 96/6/3 97/6/3
f 104/5/3 100/5/3 99/5/3
f 105/4/3 101/4/3 100/4/3
f 105/5/3 100/5/3 104/5/3
f 106/3/3 102/3/3 101/3/3
f 106/4/3 101/4/3 105/4/3
f 107/6/3 103/6/3 102/6/3
f 107/3/3 102/3/3 106/3/3
f 108/6/3 103/6/3 107/6/3
f 111/2/3 110/2/3 109/2/3
f 112/2/3 110/2/3 111/2/3
f 115/2/3 114/2/3 113/2/3
f 116/2/3 114/2/3 115/2/3
f 119/2/3 118/2/3 117/2/3
f 120/2/3 118/2/3 119/2/3
f 121/2/4 122/2/4 123/2/4
f 123/2/4 122/2/4 124/2/4
f 125/2/4 126/2/4 127/2/4
f 127/2/4 126/2/4 128/2/4
f 129/2/4 130/2/4 131/2/4
f 131/2/4 130/2/4 132/2/4
f 133/6/4 134/6/4 135/6/4
f 135/6/4 134/6/4 136/6/4
f 137/5/4 138/5/4 142/5/4
f 138/4/4 139/4/4 143/4/4
f 142/5/4 138/5/4 143/5/4
f 139/3/4 140/3/4 144/3/4
f 143/4/4 139/4/4 144/4/4
f 140/6/4 141/6/4 145/6/4
f 144/3/4 140/3/4 145/3/4
f 145/6/4 141/6/4 146/6/4
f 147/6/4 148/6/4 150/6/4
f 150/6/4 148/6/4 151/6/4
f 151/6/4 148/6/4 152/6/4
f 149/6/4 150/6/4 153/6/4
f 150/6/4 151/6/4 153/6/4
f 151/1/4 152/1/4 153/1/4
f 152/6/4 148/6/4 154/6/4
f 153/1/4 152/1/4 154/1/4
f 149/6/4 153/6/4 155/6/4
f 153/6/4 154/6/4 155/6/4
f 155/6/4 154/6/4 156/6/4
f 156/6/4 154/6/4 157/6/4
f 154/6/4 148/6/4 158/6/4
f 157/6/4 154/6/4 158/6/4
f 162/6/5 160/6/5 159/6/5
f 163/6/5 160/6/5 162/6/5
f 164/6/5 160/6/5 163/6/5
f 166/6/5 162/6/5 161/6/5
f 166/6/5 163/6/5 162/6/5
f 167/6/5 163/6/5 166/6/5
f 168/1/5 164/1/5 163/1/5
f 168/6/5 163/6/5 167/6/5
f 169/5/5 165/5/5 164/5/5
f 169/1/5 164/1/5 168/1/5
f 170/5/5 165/5/5 169/5/5
f 171/6/5 168/6/5 167/6/5
f 171/6/5 169/6/5 168/6/5
f 172/6/5 169/6/5 171/6/5
f 175/6/5 174/6/5 173/6/5
f 176/6/5 174/6/5 175/6/5
f 179/6/5 178/6/5 177/6/5
f 180/6/5 178/6/5 179/6/5
f 183/6/5 182/6/5 181/6/5
f 184/6/5 182/6/5 183/6/5
f 187/6/5 186/6/5 185/6/5
f 188/6/5 186/6/5 187/6/5
f 189/6/6 190/6/6 191/6/6
f 191/6/6 190/6/6 192/6/6
f 189/6/6 191/6/6 193/6/6
f 191/2/6 192/2/6 194/2/6
f 193/6/6 191/6/6 194/6/6
f 192/6/6 190/6/6 195/6/6
f 194/2/6 192/2/6 195/2/6
f 195/6/6 190/6/6 196/6/6
f 193/2/6 194/2/6 197/2/6
f 197/2/6 194/2/6 198/2/6
f 195/2/6 196/2/6 199/2/6
f 199/2/6 196/2/6 200/2/6
f 201/2/6 202/2/6 205/2/6
f 205/2/6 202/2/6 206/2/6
f 203/2/6 204/2/6 207/2/6
f 207/2/6 204/2/6 208/2/6
f 205/6/6 206/6/6 209/6/6
f 206/2/6 207/2/6 209/2/6
f 207/6/6 208/6/6 210/6/6
f 209/2/6 207/2/6 210/2/6
f 205/6/6 209/6/6 211/6/6
f 209/6/6 210/6/6 211/6/6
f 210/6/6 208/6/6 212/6/6
f 211/6/6 210/6/6 212/6/6
f 213/2/6 214/2/6 216/2/6
f 216/2/6 214/2/6 217/2/6
f 215/2/6 216/2/6 219/2/6
f 217/2/6 218/2/6 219/2/6
f 216/2/6 217/2/6 219/2/6
f 219/2/6 218/2/6 220/2/6
f 220/2/6 218/2/6 221/2/6
f 221/2/6 218/2/6 222/2/6
f 220/2/6 221/2/6 223/2/6
f 223/2/6 221/2/6 224/2/6
