# MagicaVoxel @ Ephtracy

# group
o 

# material
mtllib Shotgun.mtl
usemtl palette

# normals
vn -1 0 0
vn 1 0 0
vn 0 0 1
vn 0 0 -1
vn 0 -1 0
vn 0 1 0

# texcoords
vt 0.689453 0.5
vt 0.693359 0.5
vt 0.697266 0.5
vt 0.701172 0.5
vt 0.705078 0.5
vt 0.708984 0.5
vt 0.712891 0.5
vt 0.791016 0.5

# verts
v -1.8 0.3 -0.1
v -1.8 0.3 -0.2
v -1.8 0.8 -0.1
v -1.8 0.8 -0.2
v -1.1 0.7 -0.1
v -1.1 0.7 -0.2
v -1.1 0.8 -0.1
v -1.1 0.8 -0.2
v -1 0.8 -0.1
v -1 0.8 -0.2
v -1 0.9 -0.1
v -1 0.9 -0.2
v -0.9 0.9 -0.1
v -0.9 0.9 -0.2
v -0.9 1 -0.1
v -0.9 1 -0.2
v -0.8 0.2 -0.1
v -0.8 0.2 -0.2
v -0.8 0.4 -0.1
v -0.8 0.4 -0.2
v -0.7 0.4 -0.1
v -0.7 0.4 -0.2
v -0.7 0.5 -0.1
v -0.7 0.5 -0.2
v -0.4 0.4 -0.1
v -0.4 0.4 -0.2
v -0.4 0.5 -0.1
v -0.4 0.5 -0.2
v -0.1 0.4 -0.1
v -0.1 0.4 -0.2
v -0.1 0.5 -0.1
v -0.1 0.5 -0.2
v 0.7 1 -0.1
v 0.7 1 -0.2
v 0.7 1.1 -0.1
v 0.7 1.1 -0.2
v -1.4 0.3 -0.1
v -1.4 0.3 -0.2
v -1.4 0.4 -0.1
v -1.4 0.4 -0.2
v -1.3 0.7 -0.1
v -1.3 0.7 -0.2
v -1.3 0.8 -0.1
v -1.3 0.8 -0.2
v -1.1 0.4 -0.1
v -1.1 0.4 -0.2
v -1.1 0.5 -0.1
v -1.1 0.5 -0.2
v -0.6 0.2 -0.1
v -0.6 0.2 -0.2
v -0.6 0.3 -0.1
v -0.6 0.3 -0.2
v -0.5 0.4 -0.1
v -0.5 0.4 -0.2
v -0.5 0.5 -0.1
v -0.5 0.5 -0.2
v -0.4 0.3 -0.1
v -0.4 0.3 -0.2
v -0.4 0.4 -0.1
v -0.4 0.4 -0.2
v -0.3 0.4 -0.1
v -0.3 0.4 -0.2
v -0.3 0.5 -0.1
v -0.3 0.5 -0.2
v 0.5 0.4 -0.1
v 0.5 0.4 -0.2
v 0.5 0.5 -0.1
v 0.5 0.5 -0.2
v 0.8 0.5 -0.1
v 0.8 0.5 -0.2
v 0.8 0.7 -0.1
v 0.8 0.7 -0.2
v 0.8 1 -0.1
v 0.8 1 -0.2
v 0.8 1.1 -0.1
v 0.8 1.1 -0.2
v 1 0.7 -0.1
v 1 0.7 -0.2
v 1 1 -0.1
v 1 1 -0.2
v -1.8 0.3 -0.1
v -1.8 0.8 -0.1
v -1.7 0.4 -0.1
v -1.7 0.5 -0.1
v -1.7 0.6 -0.1
v -1.7 0.7 -0.1
v -1.4 0.3 -0.1
v -1.4 0.4 -0.1
v -1.4 0.5 -0.1
v -1.3 0.6 -0.1
v -1.3 0.7 -0.1
v -1.3 0.8 -0.1
v -1.1 0.4 -0.1
v -1.1 0.5 -0.1
v -1.1 0.6 -0.1
v -1.1 0.7 -0.1
v -1.1 0.8 -0.1
v -1 0.7 -0.1
v -1 0.8 -0.1
v -1 0.9 -0.1
v -0.9 0.5 -0.1
v -0.9 0.6 -0.1
v -0.9 0.7 -0.1
v -0.9 0.8 -0.1
v -0.9 0.9 -0.1
v -0.9 1 -0.1
v -0.8 0.2 -0.1
v -0.8 0.4 -0.1
v -0.8 0.6 -0.1
v -0.8 0.7 -0.1
v -0.8 0.8 -0.1
v -0.8 0.9 -0.1
v -0.7 0.4 -0.1
v -0.7 0.5 -0.1
v -0.7 0.8 -0.1
v -0.7 0.9 -0.1
v -0.6 0.2 -0.1
v -0.6 0.3 -0.1
v -0.6 0.4 -0.1
v -0.6 0.5 -0.1
v -0.6 0.7 -0.1
v -0.6 0.8 -0.1
v -0.6 0.9 -0.1
v -0.5 0.4 -0.1
v -0.5 0.5 -0.1
v -0.4 0.3 -0.1
v -0.4 0.4 -0.1
v -0.4 0.5 -0.1
v -0.4 0.6 -0.1
v -0.4 0.7 -0.1
v -0.4 0.8 -0.1
v -0.4 0.9 -0.1
v -0.3 0.4 -0.1
v -0.3 0.5 -0.1
v -0.3 0.6 -0.1
v -0.3 0.7 -0.1
v -0.1 0.4 -0.1
v -0.1 0.5 -0.1
v -0.1 0.6 -0.1
v -0.1 0.7 -0.1
v -1.19209e-007 0.5 -0.1
v -1.19209e-007 0.7 -0.1
v 0.0999999 0.5 -0.1
v 0.0999999 0.7 -0.1
v 0.2 0.5 -0.1
v 0.2 0.7 -0.1
v 0.3 0.5 -0.1
v 0.3 0.7 -0.1
v 0.4 0.5 -0.1
v 0.4 0.7 -0.1
v 0.5 0.4 -0.1
v 0.5 0.5 -0.1
v 0.5 0.6 -0.1
v 0.5 0.7 -0.1
v 0.7 0.6 -0.1
v 0.7 0.7 -0.1
v 0.7 1 -0.1
v 0.7 1.1 -0.1
v 0.8 0.5 -0.1
v 0.8 0.7 -0.1
v 0.8 1 -0.1
v 0.8 1.1 -0.1
v 0.9 0.8 -0.1
v 0.9 0.9 -0.1
v 1 0.7 -0.1
v 1 1 -0.1
v -1.8 0.3 -0.2
v -1.8 0.8 -0.2
v -1.7 0.4 -0.2
v -1.7 0.5 -0.2
v -1.7 0.6 -0.2
v -1.7 0.7 -0.2
v -1.4 0.3 -0.2
v -1.4 0.4 -0.2
v -1.4 0.5 -0.2
v -1.3 0.6 -0.2
v -1.3 0.7 -0.2
v -1.3 0.8 -0.2
v -1.1 0.4 -0.2
v -1.1 0.5 -0.2
v -1.1 0.6 -0.2
v -1.1 0.7 -0.2
v -1.1 0.8 -0.2
v -1 0.7 -0.2
v -1 0.8 -0.2
v -1 0.9 -0.2
v -0.9 0.5 -0.2
v -0.9 0.6 -0.2
v -0.9 0.7 -0.2
v -0.9 0.8 -0.2
v -0.9 0.9 -0.2
v -0.9 1 -0.2
v -0.8 0.2 -0.2
v -0.8 0.4 -0.2
v -0.8 0.6 -0.2
v -0.8 0.7 -0.2
v -0.8 0.8 -0.2
v -0.8 0.9 -0.2
v -0.7 0.4 -0.2
v -0.7 0.5 -0.2
v -0.7 0.8 -0.2
v -0.7 0.9 -0.2
v -0.6 0.2 -0.2
v -0.6 0.3 -0.2
v -0.6 0.4 -0.2
v -0.6 0.5 -0.2
v -0.6 0.7 -0.2
v -0.6 0.8 -0.2
v -0.6 0.9 -0.2
v -0.5 0.4 -0.2
v -0.5 0.5 -0.2
v -0.4 0.3 -0.2
v -0.4 0.4 -0.2
v -0.4 0.5 -0.2
v -0.4 0.6 -0.2
v -0.4 0.7 -0.2
v -0.4 0.8 -0.2
v -0.4 0.9 -0.2
v -0.3 0.4 -0.2
v -0.3 0.5 -0.2
v -0.3 0.6 -0.2
v -0.3 0.7 -0.2
v -0.1 0.4 -0.2
v -0.1 0.5 -0.2
v -0.1 0.6 -0.2
v -0.1 0.7 -0.2
v -1.19209e-007 0.5 -0.2
v -1.19209e-007 0.7 -0.2
v 0.0999999 0.5 -0.2
v 0.0999999 0.7 -0.2
v 0.2 0.5 -0.2
v 0.2 0.7 -0.2
v 0.3 0.5 -0.2
v 0.3 0.7 -0.2
v 0.4 0.5 -0.2
v 0.4 0.7 -0.2
v 0.5 0.4 -0.2
v 0.5 0.5 -0.2
v 0.5 0.6 -0.2
v 0.5 0.7 -0.2
v 0.7 0.6 -0.2
v 0.7 0.7 -0.2
v 0.7 1 -0.2
v 0.7 1.1 -0.2
v 0.8 0.5 -0.2
v 0.8 0.7 -0.2
v 0.8 1 -0.2
v 0.8 1.1 -0.2
v 0.9 0.8 -0.2
v 0.9 0.9 -0.2
v 1 0.7 -0.2
v 1 1 -0.2
v -0.8 0.2 -0.1
v -0.6 0.2 -0.1
v -0.8 0.2 -0.2
v -0.6 0.2 -0.2
v -1.8 0.3 -0.1
v -1.4 0.3 -0.1
v -0.6 0.3 -0.1
v -0.4 0.3 -0.1
v -1.8 0.3 -0.2
v -1.4 0.3 -0.2
v -0.6 0.3 -0.2
v -0.4 0.3 -0.2
v -1.4 0.4 -0.1
v -1.1 0.4 -0.1
v -0.4 0.4 -0.1
v -0.3 0.4 -0.1
v -0.1 0.4 -0.1
v 0.5 0.4 -0.1
v -1.4 0.4 -0.2
v -1.1 0.4 -0.2
v -0.4 0.4 -0.2
v -0.3 0.4 -0.2
v -0.1 0.4 -0.2
v 0.5 0.4 -0.2
v -1.1 0.5 -0.1
v -0.9 0.5 -0.1
v -0.7 0.5 -0.1
v -0.5 0.5 -0.1
v -0.4 0.5 -0.1
v -0.3 0.5 -0.1
v -0.1 0.5 -0.1
v 0.5 0.5 -0.1
v 0.8 0.5 -0.1
v -1.1 0.5 -0.2
v -0.9 0.5 -0.2
v -0.7 0.5 -0.2
v -0.5 0.5 -0.2
v -0.4 0.5 -0.2
v -0.3 0.5 -0.2
v -0.1 0.5 -0.2
v 0.5 0.5 -0.2
v 0.8 0.5 -0.2
v 0.8 0.7 -0.1
v 1 0.7 -0.1
v 0.8 0.7 -0.2
v 1 0.7 -0.2
v -0.8 0.4 -0.1
v -0.7 0.4 -0.1
v -0.5 0.4 -0.1
v -0.4 0.4 -0.1
v -0.8 0.4 -0.2
v -0.7 0.4 -0.2
v -0.5 0.4 -0.2
v -0.4 0.4 -0.2
v -1.3 0.7 -0.1
v -1.1 0.7 -0.1
v -1.3 0.7 -0.2
v -1.1 0.7 -0.2
v -1.8 0.8 -0.1
v -1.3 0.8 -0.1
v -1.1 0.8 -0.1
v -1 0.8 -0.1
v -1.8 0.8 -0.2
v -1.3 0.8 -0.2
v -1.1 0.8 -0.2
v -1 0.8 -0.2
v -1 0.9 -0.1
v -0.9 0.9 -0.1
v -1 0.9 -0.2
v -0.9 0.9 -0.2
v -0.9 1 -0.1
v 0.7 1 -0.1
v 0.8 1 -0.1
v 1 1 -0.1
v -0.9 1 -0.2
v 0.7 1 -0.2
v 0.8 1 -0.2
v 1 1 -0.2
v 0.7 1.1 -0.1
v 0.8 1.1 -0.1
v 0.7 1.1 -0.2
v 0.8 1.1 -0.2

# faces
f 3/2/1 2/2/1 1/2/1
f 4/2/1 2/2/1 3/2/1
f 7/2/1 6/2/1 5/2/1
f 8/2/1 6/2/1 7/2/1
f 11/2/1 10/2/1 9/2/1
f 12/2/1 10/2/1 11/2/1
f 15/1/1 14/1/1 13/1/1
f 16/1/1 14/1/1 15/1/1
f 19/1/1 18/1/1 17/1/1
f 20/1/1 18/1/1 19/1/1
f 23/1/1 22/1/1 21/1/1
f 24/1/1 22/1/1 23/1/1
f 27/1/1 26/1/1 25/1/1
f 28/1/1 26/1/1 27/1/1
f 31/1/1 30/1/1 29/1/1
f 32/1/1 30/1/1 31/1/1
f 35/1/1 34/1/1 33/1/1
f 36/1/1 34/1/1 35/1/1
f 37/2/2 38/2/2 39/2/2
f 39/2/2 38/2/2 40/2/2
f 41/2/2 42/2/2 43/2/2
f 43/2/2 42/2/2 44/2/2
f 45/2/2 46/2/2 47/2/2
f 47/2/2 46/2/2 48/2/2
f 49/1/2 50/1/2 51/1/2
f 51/1/2 50/1/2 52/1/2
f 53/7/2 54/7/2 55/7/2
f 55/7/2 54/7/2 56/7/2
f 57/1/2 58/1/2 59/1/2
f 59/1/2 58/1/2 60/1/2
f 61/1/2 62/1/2 63/1/2
f 63/1/2 62/1/2 64/1/2
f 65/1/2 66/1/2 67/1/2
f 67/1/2 66/1/2 68/1/2
f 69/1/2 70/1/2 71/1/2
f 71/1/2 70/1/2 72/1/2
f 73/1/2 74/1/2 75/1/2
f 75/1/2 74/1/2 76/1/2
f 77/1/2 78/1/2 79/1/2
f 79/1/2 78/1/2 80/1/2
f 83/2/3 82/2/3 81/2/3
f 84/2/3 82/2/3 83/2/3
f 85/2/3 82/2/3 84/2/3
f 86/2/3 82/2/3 85/2/3
f 87/2/3 83/2/3 81/2/3
f 88/5/3 84/5/3 83/5/3
f 88/2/3 83/2/3 87/2/3
f 89/4/3 85/4/3 84/4/3
f 89/5/3 84/5/3 88/5/3
f 90/4/3 85/4/3 89/4/3
f 90/3/3 86/3/3 85/3/3
f 91/2/3 82/2/3 86/2/3
f 91/3/3 86/3/3 90/3/3
f 92/2/3 82/2/3 91/2/3
f 93/2/3 89/2/3 88/2/3
f 94/4/3 90/4/3 89/4/3
f 94/2/3 89/2/3 93/2/3
f 95/2/3 91/2/3 90/2/3
f 95/4/3 90/4/3 94/4/3
f 96/2/3 91/2/3 95/2/3
f 98/2/3 97/2/3 96/2/3
f 98/4/3 96/4/3 95/4/3
f 99/2/3 97/2/3 98/2/3
f 101/2/3 95/2/3 94/2/3
f 102/4/3 98/4/3 95/4/3
f 102/2/3 95/2/3 101/2/3
f 103/3/3 99/3/3 98/3/3
f 103/4/3 98/4/3 102/4/3
f 104/2/3 100/2/3 99/2/3
f 104/3/3 99/3/3 103/3/3
f 105/2/3 100/2/3 104/2/3
f 109/1/3 102/1/3 101/1/3
f 109/1/3 103/1/3 102/1/3
f 109/1/3 106/1/3 105/1/3
f 109/1/3 105/1/3 104/1/3
f 109/1/3 104/1/3 103/1/3
f 110/1/3 106/1/3 109/1/3
f 111/1/3 106/1/3 110/1/3
f 112/1/3 106/1/3 111/1/3
f 113/1/3 108/1/3 107/1/3
f 114/1/3 109/1/3 101/1/3
f 115/4/3 111/4/3 110/4/3
f 115/3/3 112/3/3 111/3/3
f 116/1/3 106/1/3 112/1/3
f 116/3/3 112/3/3 115/3/3
f 117/1/3 113/1/3 107/1/3
f 117/1/3 114/1/3 113/1/3
f 118/1/3 114/1/3 117/1/3
f 119/1/3 114/1/3 118/1/3
f 120/1/3 109/1/3 114/1/3
f 120/1/3 114/1/3 119/1/3
f 121/4/3 115/4/3 110/4/3
f 121/5/3 110/5/3 109/5/3
f 122/1/3 116/1/3 115/1/3
f 122/4/3 115/4/3 121/4/3
f 123/1/3 106/1/3 116/1/3
f 123/1/3 116/1/3 122/1/3
f 124/7/3 120/7/3 119/7/3
f 124/1/3 119/1/3 118/1/3
f 125/1/3 109/1/3 120/1/3
f 125/7/3 120/7/3 124/7/3
f 126/1/3 124/1/3 118/1/3
f 127/1/3 124/1/3 126/1/3
f 128/1/3 109/1/3 125/1/3
f 129/5/3 121/5/3 109/5/3
f 129/1/3 109/1/3 128/1/3
f 130/1/3 122/1/3 121/1/3
f 130/5/3 121/5/3 129/5/3
f 131/8/3 123/8/3 122/8/3
f 131/1/3 122/1/3 130/1/3
f 132/1/3 106/1/3 123/1/3
f 132/8/3 123/8/3 131/8/3
f 133/1/3 129/1/3 128/1/3
f 133/1/3 131/1/3 130/1/3
f 133/1/3 128/1/3 127/1/3
f 133/1/3 130/1/3 129/1/3
f 134/1/3 131/1/3 133/1/3
f 135/1/3 131/1/3 134/1/3
f 136/1/3 131/1/3 135/1/3
f 138/1/3 135/1/3 134/1/3
f 139/7/3 136/7/3 135/7/3
f 139/1/3 135/1/3 138/1/3
f 140/1/3 131/1/3 136/1/3
f 140/7/3 136/7/3 139/7/3
f 141/1/3 139/1/3 138/1/3
f 141/1/3 138/1/3 137/1/3
f 141/1/3 140/1/3 139/1/3
f 142/1/3 131/1/3 140/1/3
f 142/1/3 140/1/3 141/1/3
f 143/1/3 141/1/3 137/1/3
f 143/3/3 142/3/3 141/3/3
f 144/1/3 131/1/3 142/1/3
f 144/3/3 142/3/3 143/3/3
f 145/1/3 143/1/3 137/1/3
f 145/4/3 144/4/3 143/4/3
f 146/1/3 131/1/3 144/1/3
f 146/4/3 144/4/3 145/4/3
f 147/1/3 145/1/3 137/1/3
f 147/3/3 146/3/3 145/3/3
f 148/1/3 131/1/3 146/1/3
f 148/3/3 146/3/3 147/3/3
f 149/1/3 147/1/3 137/1/3
f 149/4/3 148/4/3 147/4/3
f 150/1/3 131/1/3 148/1/3
f 150/4/3 148/4/3 149/4/3
f 151/1/3 149/1/3 137/1/3
f 151/1/3 150/1/3 149/1/3
f 152/1/3 150/1/3 151/1/3
f 153/1/3 150/1/3 152/1/3
f 154/1/3 131/1/3 150/1/3
f 154/1/3 150/1/3 153/1/3
f 155/1/3 153/1/3 152/1/3
f 155/7/3 154/7/3 153/7/3
f 156/1/3 131/1/3 154/1/3
f 156/7/3 154/7/3 155/7/3
f 157/1/3 106/1/3 132/1/3
f 159/1/3 155/1/3 152/1/3
f 159/1/3 156/1/3 155/1/3
f 160/1/3 131/1/3 156/1/3
f 160/1/3 156/1/3 159/1/3
f 161/1/3 158/1/3 157/1/3
f 161/1/3 157/1/3 132/1/3
f 162/1/3 158/1/3 161/1/3
f 163/6/3 132/6/3 131/6/3
f 163/1/3 131/1/3 160/1/3
f 164/1/3 161/1/3 132/1/3
f 164/6/3 132/6/3 163/6/3
f 165/1/3 163/1/3 160/1/3
f 165/1/3 164/1/3 163/1/3
f 166/1/3 161/1/3 164/1/3
f 166/1/3 164/1/3 165/1/3
f 167/2/4 168/2/4 169/2/4
f 169/2/4 168/2/4 170/2/4
f 170/2/4 168/2/4 171/2/4
f 171/2/4 168/2/4 172/2/4
f 167/2/4 169/2/4 173/2/4
f 169/5/4 170/5/4 174/5/4
f 173/2/4 169/2/4 174/2/4
f 170/4/4 171/4/4 175/4/4
f 174/5/4 170/5/4 175/5/4
f 175/4/4 171/4/4 176/4/4
f 171/3/4 172/3/4 176/3/4
f 172/2/4 168/2/4 177/2/4
f 176/3/4 172/3/4 177/3/4
f 177/2/4 168/2/4 178/2/4
f 174/2/4 175/2/4 179/2/4
f 175/4/4 176/4/4 180/4/4
f 179/2/4 175/2/4 180/2/4
f 176/2/4 177/2/4 181/2/4
f 180/4/4 176/4/4 181/4/4
f 181/2/4 177/2/4 182/2/4
f 182/2/4 183/2/4 184/2/4
f 181/4/4 182/4/4 184/4/4
f 184/2/4 183/2/4 185/2/4
f 180/2/4 181/2/4 187/2/4
f 181/4/4 184/4/4 188/4/4
f 187/2/4 181/2/4 188/2/4
f 184/3/4 185/3/4 189/3/4
f 188/4/4 184/4/4 189/4/4
f 185/2/4 186/2/4 190/2/4
f 189/3/4 185/3/4 190/3/4
f 190/2/4 186/2/4 191/2/4
f 187/1/4 188/1/4 195/1/4
f 188/1/4 189/1/4 195/1/4
f 191/1/4 192/1/4 195/1/4
f 190/1/4 191/1/4 195/1/4
f 189/1/4 190/1/4 195/1/4
f 195/1/4 192/1/4 196/1/4
f 196/1/4 192/1/4 197/1/4
f 197/1/4 192/1/4 198/1/4
f 193/1/4 194/1/4 199/1/4
f 187/1/4 195/1/4 200/1/4
f 196/4/4 197/4/4 201/4/4
f 197/3/4 198/3/4 201/3/4
f 198/1/4 192/1/4 202/1/4
f 201/3/4 198/3/4 202/3/4
f 193/1/4 199/1/4 203/1/4
f 199/1/4 200/1/4 203/1/4
f 203/1/4 200/1/4 204/1/4
f 204/1/4 200/1/4 205/1/4
f 200/1/4 195/1/4 206/1/4
f 205/1/4 200/1/4 206/1/4
f 196/4/4 201/4/4 207/4/4
f 195/5/4 196/5/4 207/5/4
f 201/1/4 202/1/4 208/1/4
f 207/4/4 201/4/4 208/4/4
f 202/1/4 192/1/4 209/1/4
f 208/1/4 202/1/4 209/1/4
f 205/7/4 206/7/4 210/7/4
f 204/1/4 205/1/4 210/1/4
f 206/1/4 195/1/4 211/1/4
f 210/7/4 206/7/4 211/7/4
f 204/1/4 210/1/4 212/1/4
f 212/1/4 210/1/4 213/1/4
f 211/1/4 195/1/4 214/1/4
f 195/5/4 207/5/4 215/5/4
f 214/1/4 195/1/4 215/1/4
f 207/1/4 208/1/4 216/1/4
f 215/5/4 207/5/4 216/5/4
f 208/8/4 209/8/4 217/8/4
f 216/1/4 208/1/4 217/1/4
f 209/1/4 192/1/4 218/1/4
f 217/8/4 209/8/4 218/8/4
f 214/1/4 215/1/4 219/1/4
f 216/1/4 217/1/4 219/1/4
f 213/1/4 214/1/4 219/1/4
f 215/1/4 216/1/4 219/1/4
f 219/1/4 217/1/4 220/1/4
f 220/1/4 217/1/4 221/1/4
f 221/1/4 217/1/4 222/1/4
f 220/1/4 221/1/4 224/1/4
f 221/7/4 222/7/4 225/7/4
f 224/1/4 221/1/4 225/1/4
f 222/1/4 217/1/4 226/1/4
f 225/7/4 222/7/4 226/7/4
f 224/1/4 225/1/4 227/1/4
f 223/1/4 224/1/4 227/1/4
f 225/1/4 226/1/4 227/1/4
f 226/1/4 217/1/4 228/1/4
f 227/1/4 226/1/4 228/1/4
f 223/1/4 227/1/4 229/1/4
f 227/3/4 228/3/4 229/3/4
f 228/1/4 217/1/4 230/1/4
f 229/3/4 228/3/4 230/3/4
f 223/1/4 229/1/4 231/1/4
f 229/4/4 230/4/4 231/4/4
f 230/1/4 217/1/4 232/1/4
f 231/4/4 230/4/4 232/4/4
f 223/1/4 231/1/4 233/1/4
f 231/3/4 232/3/4 233/3/4
f 232/1/4 217/1/4 234/1/4
f 233/3/4 232/3/4 234/3/4
f 223/1/4 233/1/4 235/1/4
f 233/4/4 234/4/4 235/4/4
f 234/1/4 217/1/4 236/1/4
f 235/4/4 234/4/4 236/4/4
f 223/1/4 235/1/4 237/1/4
f 235/1/4 236/1/4 237/1/4
f 237/1/4 236/1/4 238/1/4
f 238/1/4 236/1/4 239/1/4
f 236/1/4 217/1/4 240/1/4
f 239/1/4 236/1/4 240/1/4
f 238/1/4 239/1/4 241/1/4
f 239/7/4 240/7/4 241/7/4
f 240/1/4 217/1/4 242/1/4
f 241/7/4 240/7/4 242/7/4
f 218/1/4 192/1/4 243/1/4
f 238/1/4 241/1/4 245/1/4
f 241/1/4 242/1/4 245/1/4
f 242/1/4 217/1/4 246/1/4
f 245/1/4 242/1/4 246/1/4
f 243/1/4 244/1/4 247/1/4
f 218/1/4 243/1/4 247/1/4
f 247/1/4 244/1/4 248/1/4
f 217/6/4 218/6/4 249/6/4
f 246/1/4 217/1/4 249/1/4
f 218/1/4 247/1/4 250/1/4
f 249/6/4 218/6/4 250/6/4
f 246/1/4 249/1/4 251/1/4
f 249/1/4 250/1/4 251/1/4
f 250/1/4 247/1/4 252/1/4
f 251/1/4 250/1/4 252/1/4
f 255/1/5 254/1/5 253/1/5
f 256/1/5 254/1/5 255/1/5
f 261/2/5 258/2/5 257/2/5
f 262/2/5 258/2/5 261/2/5
f 263/1/5 260/1/5 259/1/5
f 264/1/5 260/1/5 263/1/5
f 271/2/5 266/2/5 265/2/5
f 272/2/5 266/2/5 271/2/5
f 273/1/5 268/1/5 267/1/5
f 274/1/5 268/1/5 273/1/5
f 275/1/5 270/1/5 269/1/5
f 276/1/5 270/1/5 275/1/5
f 286/2/5 278/2/5 277/2/5
f 287/1/5 279/1/5 278/1/5
f 287/2/5 278/2/5 286/2/5
f 288/1/5 279/1/5 287/1/5
f 289/1/5 281/1/5 280/1/5
f 290/1/5 281/1/5 289/1/5
f 291/1/5 283/1/5 282/1/5
f 292/1/5 283/1/5 291/1/5
f 293/1/5 285/1/5 284/1/5
f 294/1/5 285/1/5 293/1/5
f 297/1/5 296/1/5 295/1/5
f 298/1/5 296/1/5 297/1/5
f 299/1/6 300/1/6 303/1/6
f 303/1/6 300/1/6 304/1/6
f 301/1/6 302/1/6 305/1/6
f 305/1/6 302/1/6 306/1/6
f 307/2/6 308/2/6 309/2/6
f 309/2/6 308/2/6 310/2/6
f 311/2/6 312/2/6 315/2/6
f 315/2/6 312/2/6 316/2/6
f 313/2/6 314/2/6 317/2/6
f 317/2/6 314/2/6 318/2/6
f 319/2/6 320/2/6 321/2/6
f 321/2/6 320/2/6 322/2/6
f 323/1/6 324/1/6 327/1/6
f 327/1/6 324/1/6 328/1/6
f 325/1/6 326/1/6 329/1/6
f 329/1/6 326/1/6 330/1/6
f 331/1/6 332/1/6 333/1/6
f 333/1/6 332/1/6 334/1/6
