# MagicaVoxel @ Ephtracy

# group
o 

# material
mtllib Chair.mtl
usemtl palette

# normals
vn -1 0 0
vn 1 0 0
vn 0 0 1
vn 0 0 -1
vn 0 -1 0
vn 0 1 0

# texcoords
vt 0.783203 0.5
vt 0.947266 0.5
vt 0.951172 0.5

# verts
v -0.7 0 0.6
v -0.7 0 0.4
v -0.7 0 -0.7
v -0.7 0 -0.9
v -0.7 1 0.6
v -0.7 1 0.4
v -0.7 1 -0.7
v -0.7 1 -0.9
v -0.7 1.1 0.6
v -0.7 1.1 -0.8
v -0.7 2.1 -0.8
v -0.7 2.1 -0.9
v -0.6 2.1 -0.8
v -0.6 2.1 -0.9
v -0.6 2.2 -0.8
v -0.6 2.2 -0.9
v -0.5 2.2 -0.8
v -0.5 2.2 -0.9
v -0.5 2.3 -0.8
v -0.5 2.3 -0.9
v -0.4 2.3 -0.8
v -0.4 2.3 -0.9
v -0.4 2.4 -0.8
v -0.4 2.4 -0.9
v 0.5 0 0.6
v 0.5 0 0.5
v 0.5 0 -0.8
v 0.5 0 -0.9
v 0.5 1 0.6
v 0.5 1 0.5
v 0.5 1 -0.8
v 0.5 1 -0.9
v 0.6 0 0.5
v 0.6 0 0.4
v 0.6 0 -0.7
v 0.6 0 -0.8
v 0.6 1 0.5
v 0.6 1 0.4
v 0.6 1 -0.7
v 0.6 1 -0.8
v -0.6 0 0.5
v -0.6 0 0.4
v -0.6 0 -0.7
v -0.6 0 -0.8
v -0.6 1 0.5
v -0.6 1 0.4
v -0.6 1 -0.7
v -0.6 1 -0.8
v -0.5 0 0.6
v -0.5 0 0.5
v -0.5 0 -0.8
v -0.5 0 -0.9
v -0.5 1 0.6
v -0.5 1 0.5
v -0.5 1 -0.8
v -0.5 1 -0.9
v 0.4 2.3 -0.8
v 0.4 2.3 -0.9
v 0.4 2.4 -0.8
v 0.4 2.4 -0.9
v 0.5 2.2 -0.8
v 0.5 2.2 -0.9
v 0.5 2.3 -0.8
v 0.5 2.3 -0.9
v 0.6 2.1 -0.8
v 0.6 2.1 -0.9
v 0.6 2.2 -0.8
v 0.6 2.2 -0.9
v 0.7 0 0.6
v 0.7 0 0.4
v 0.7 0 -0.7
v 0.7 0 -0.9
v 0.7 1 0.6
v 0.7 1 0.4
v 0.7 1 -0.7
v 0.7 1 -0.9
v 0.7 1.1 0.6
v 0.7 1.1 -0.8
v 0.7 2.1 -0.8
v 0.7 2.1 -0.9
v -0.7 0 0.6
v -0.7 1 0.6
v -0.7 1.1 0.6
v -0.5 0 0.6
v -0.5 1 0.6
v 0.5 0 0.6
v 0.5 1 0.6
v 0.7 0 0.6
v 0.7 1 0.6
v 0.7 1.1 0.6
v -0.7 0 -0.7
v -0.7 1 -0.7
v -0.6 0 -0.7
v -0.6 1 -0.7
v 0.6 0 -0.7
v 0.6 1 -0.7
v 0.7 0 -0.7
v 0.7 1 -0.7
v -0.7 1.1 -0.8
v -0.7 2.1 -0.8
v -0.6 0 -0.8
v -0.6 1 -0.8
v -0.6 1.1 -0.8
v -0.6 2.1 -0.8
v -0.6 2.2 -0.8
v -0.5 0 -0.8
v -0.5 1 -0.8
v -0.5 2.1 -0.8
v -0.5 2.2 -0.8
v -0.5 2.3 -0.8
v -0.4 2.2 -0.8
v -0.4 2.3 -0.8
v -0.4 2.4 -0.8
v 0.4 2.2 -0.8
v 0.4 2.3 -0.8
v 0.4 2.4 -0.8
v 0.5 0 -0.8
v 0.5 1 -0.8
v 0.5 2.1 -0.8
v 0.5 2.2 -0.8
v 0.5 2.3 -0.8
v 0.6 0 -0.8
v 0.6 1 -0.8
v 0.6 1.1 -0.8
v 0.6 2.1 -0.8
v 0.6 2.2 -0.8
v 0.7 1.1 -0.8
v 0.7 2.1 -0.8
v -0.6 0 0.5
v -0.6 1 0.5
v -0.5 0 0.5
v -0.5 1 0.5
v 0.5 0 0.5
v 0.5 1 0.5
v 0.6 0 0.5
v 0.6 1 0.5
v -0.7 0 0.4
v -0.7 1 0.4
v -0.6 0 0.4
v -0.6 1 0.4
v 0.6 0 0.4
v 0.6 1 0.4
v 0.7 0 0.4
v 0.7 1 0.4
v -0.7 0 -0.9
v -0.7 1 -0.9
v -0.7 2.1 -0.9
v -0.6 1.1 -0.9
v -0.6 2.1 -0.9
v -0.6 2.2 -0.9
v -0.5 0 -0.9
v -0.5 1 -0.9
v -0.5 2.1 -0.9
v -0.5 2.2 -0.9
v -0.5 2.3 -0.9
v -0.4 2.2 -0.9
v -0.4 2.3 -0.9
v -0.4 2.4 -0.9
v 0.4 2.2 -0.9
v 0.4 2.3 -0.9
v 0.4 2.4 -0.9
v 0.5 0 -0.9
v 0.5 1 -0.9
v 0.5 2.1 -0.9
v 0.5 2.2 -0.9
v 0.5 2.3 -0.9
v 0.6 1.1 -0.9
v 0.6 2.1 -0.9
v 0.6 2.2 -0.9
v 0.7 0 -0.9
v 0.7 1 -0.9
v 0.7 2.1 -0.9
v -0.7 0 0.6
v -0.5 0 0.6
v 0.5 0 0.6
v 0.7 0 0.6
v -0.6 0 0.5
v -0.5 0 0.5
v 0.5 0 0.5
v 0.6 0 0.5
v -0.7 0 0.4
v -0.6 0 0.4
v 0.6 0 0.4
v 0.7 0 0.4
v -0.7 0 -0.7
v -0.6 0 -0.7
v 0.6 0 -0.7
v 0.7 0 -0.7
v -0.6 0 -0.8
v -0.5 0 -0.8
v 0.5 0 -0.8
v 0.6 0 -0.8
v -0.7 0 -0.9
v -0.5 0 -0.9
v 0.5 0 -0.9
v 0.7 0 -0.9
v -0.5 1 0.6
v 0.5 1 0.6
v -0.6 1 0.5
v -0.5 1 0.5
v 0.5 1 0.5
v 0.6 1 0.5
v -0.7 1 0.4
v -0.6 1 0.4
v 0.6 1 0.4
v 0.7 1 0.4
v -0.7 1 -0.7
v -0.6 1 -0.7
v 0.6 1 -0.7
v 0.7 1 -0.7
v -0.6 1 -0.8
v -0.5 1 -0.8
v 0.5 1 -0.8
v 0.6 1 -0.8
v -0.5 1 -0.9
v 0.5 1 -0.9
v -0.7 1.1 0.6
v 0.7 1.1 0.6
v -0.7 1.1 -0.8
v -0.6 1.1 -0.8
v 0.6 1.1 -0.8
v 0.7 1.1 -0.8
v -0.7 2.1 -0.8
v -0.6 2.1 -0.8
v 0.6 2.1 -0.8
v 0.7 2.1 -0.8
v -0.7 2.1 -0.9
v -0.6 2.1 -0.9
v 0.6 2.1 -0.9
v 0.7 2.1 -0.9
v -0.6 2.2 -0.8
v -0.5 2.2 -0.8
v 0.5 2.2 -0.8
v 0.6 2.2 -0.8
v -0.6 2.2 -0.9
v -0.5 2.2 -0.9
v 0.5 2.2 -0.9
v 0.6 2.2 -0.9
v -0.5 2.3 -0.8
v -0.4 2.3 -0.8
v 0.4 2.3 -0.8
v 0.5 2.3 -0.8
v -0.5 2.3 -0.9
v -0.4 2.3 -0.9
v 0.4 2.3 -0.9
v 0.5 2.3 -0.9
v -0.4 2.4 -0.8
v 0.4 2.4 -0.8
v -0.4 2.4 -0.9
v 0.4 2.4 -0.9

# faces
f 5/3/1 2/3/1 1/3/1
f 6/3/1 2/3/1 5/3/1
f 7/3/1 4/3/1 3/3/1
f 8/3/1 4/3/1 7/3/1
f 9/2/1 6/2/1 5/2/1
f 9/2/1 7/2/1 6/2/1
f 9/2/1 8/2/1 7/2/1
f 10/2/1 8/2/1 9/2/1
f 11/2/1 8/2/1 10/2/1
f 12/2/1 8/2/1 11/2/1
f 15/2/1 14/2/1 13/2/1
f 16/2/1 14/2/1 15/2/1
f 19/2/1 18/2/1 17/2/1
f 20/2/1 18/2/1 19/2/1
f 23/2/1 22/2/1 21/2/1
f 24/2/1 22/2/1 23/2/1
f 29/3/1 26/3/1 25/3/1
f 30/3/1 26/3/1 29/3/1
f 31/3/1 28/3/1 27/3/1
f 32/3/1 28/3/1 31/3/1
f 37/3/1 34/3/1 33/3/1
f 38/3/1 34/3/1 37/3/1
f 39/3/1 36/3/1 35/3/1
f 40/3/1 36/3/1 39/3/1
f 41/3/2 42/3/2 45/3/2
f 45/3/2 42/3/2 46/3/2
f 43/3/2 44/3/2 47/3/2
f 47/3/2 44/3/2 48/3/2
f 49/3/2 50/3/2 53/3/2
f 53/3/2 50/3/2 54/3/2
f 51/3/2 52/3/2 55/3/2
f 55/3/2 52/3/2 56/3/2
f 57/2/2 58/2/2 59/2/2
f 59/2/2 58/2/2 60/2/2
f 61/2/2 62/2/2 63/2/2
f 63/2/2 62/2/2 64/2/2
f 65/2/2 66/2/2 67/2/2
f 67/2/2 66/2/2 68/2/2
f 69/3/2 70/3/2 73/3/2
f 73/3/2 70/3/2 74/3/2
f 71/3/2 72/3/2 75/3/2
f 75/3/2 72/3/2 76/3/2
f 73/2/2 74/2/2 77/2/2
f 74/2/2 75/2/2 77/2/2
f 75/2/2 76/2/2 77/2/2
f 77/2/2 76/2/2 78/2/2
f 78/2/2 76/2/2 79/2/2
f 79/2/2 76/2/2 80/2/2
f 84/3/3 82/3/3 81/3/3
f 85/2/3 83/2/3 82/2/3
f 85/3/3 82/3/3 84/3/3
f 87/2/3 83/2/3 85/2/3
f 88/3/3 87/3/3 86/3/3
f 89/2/3 83/2/3 87/2/3
f 89/3/3 87/3/3 88/3/3
f 90/2/3 83/2/3 89/2/3
f 93/3/3 92/3/3 91/3/3
f 94/3/3 92/3/3 93/3/3
f 97/3/3 96/3/3 95/3/3
f 98/3/3 96/3/3 97/3/3
f 103/2/3 100/2/3 99/2/3
f 104/2/3 100/2/3 103/2/3
f 106/3/3 102/3/3 101/3/3
f 107/3/3 102/3/3 106/3/3
f 108/2/3 105/2/3 104/2/3
f 108/1/3 104/1/3 103/1/3
f 109/2/3 105/2/3 108/2/3
f 111/2/3 110/2/3 109/2/3
f 111/1/3 109/1/3 108/1/3
f 112/2/3 110/2/3 111/2/3
f 114/1/3 111/1/3 108/1/3
f 114/1/3 112/1/3 111/1/3
f 115/2/3 113/2/3 112/2/3
f 115/1/3 112/1/3 114/1/3
f 116/2/3 113/2/3 115/2/3
f 119/1/3 108/1/3 103/1/3
f 119/1/3 114/1/3 108/1/3
f 120/2/3 115/2/3 114/2/3
f 120/1/3 114/1/3 119/1/3
f 121/2/3 115/2/3 120/2/3
f 122/3/3 118/3/3 117/3/3
f 123/3/3 118/3/3 122/3/3
f 124/1/3 119/1/3 103/1/3
f 125/2/3 120/2/3 119/2/3
f 125/1/3 119/1/3 124/1/3
f 126/2/3 120/2/3 125/2/3
f 127/2/3 125/2/3 124/2/3
f 128/2/3 125/2/3 127/2/3
f 129/3/4 130/3/4 131/3/4
f 131/3/4 130/3/4 132/3/4
f 133/3/4 134/3/4 135/3/4
f 135/3/4 134/3/4 136/3/4
f 137/3/4 138/3/4 139/3/4
f 139/3/4 138/3/4 140/3/4
f 141/3/4 142/3/4 143/3/4
f 143/3/4 142/3/4 144/3/4
f 146/2/4 147/2/4 148/2/4
f 148/2/4 147/2/4 149/2/4
f 145/3/4 146/3/4 151/3/4
f 146/2/4 148/2/4 152/2/4
f 151/3/4 146/3/4 152/3/4
f 149/2/4 150/2/4 153/2/4
f 148/1/4 149/1/4 153/1/4
f 153/2/4 150/2/4 154/2/4
f 154/2/4 155/2/4 156/2/4
f 153/1/4 154/1/4 156/1/4
f 156/2/4 155/2/4 157/2/4
f 153/1/4 156/1/4 159/1/4
f 156/1/4 157/1/4 159/1/4
f 157/2/4 158/2/4 160/2/4
f 159/1/4 157/1/4 160/1/4
f 160/2/4 158/2/4 161/2/4
f 152/2/4 148/2/4 163/2/4
f 148/1/4 153/1/4 164/1/4
f 153/1/4 159/1/4 164/1/4
f 159/2/4 160/2/4 165/2/4
f 164/1/4 159/1/4 165/1/4
f 165/2/4 160/2/4 166/2/4
f 163/2/4 148/2/4 167/2/4
f 148/1/4 164/1/4 167/1/4
f 164/2/4 165/2/4 168/2/4
f 167/1/4 164/1/4 168/1/4
f 168/2/4 165/2/4 169/2/4
f 162/3/4 163/3/4 170/3/4
f 163/2/4 167/2/4 171/2/4
f 170/3/4 163/3/4 171/3/4
f 167/2/4 168/2/4 171/2/4
f 171/2/4 168/2/4 172/2/4
f 177/3/5 174/3/5 173/3/5
f 178/3/5 174/3/5 177/3/5
f 179/3/5 176/3/5 175/3/5
f 180/3/5 176/3/5 179/3/5
f 181/3/5 177/3/5 173/3/5
f 182/3/5 177/3/5 181/3/5
f 183/3/5 176/3/5 180/3/5
f 184/3/5 176/3/5 183/3/5
f 189/3/5 186/3/5 185/3/5
f 192/3/5 188/3/5 187/3/5
f 193/3/5 190/3/5 189/3/5
f 193/3/5 189/3/5 185/3/5
f 194/3/5 190/3/5 193/3/5
f 195/3/5 192/3/5 191/3/5
f 196/3/5 188/3/5 192/3/5
f 196/3/5 192/3/5 195/3/5
f 200/2/5 198/2/5 197/2/5
f 201/2/5 198/2/5 200/2/5
f 204/2/5 200/2/5 199/2/5
f 204/2/5 202/2/5 201/2/5
f 204/2/5 201/2/5 200/2/5
f 205/2/5 202/2/5 204/2/5
f 207/2/5 204/2/5 203/2/5
f 207/2/5 206/2/5 205/2/5
f 207/2/5 205/2/5 204/2/5
f 208/2/5 206/2/5 207/2/5
f 209/2/5 206/2/5 208/2/5
f 210/2/5 206/2/5 209/2/5
f 211/2/5 209/2/5 208/2/5
f 212/2/5 209/2/5 211/2/5
f 213/2/5 209/2/5 212/2/5
f 214/2/5 209/2/5 213/2/5
f 215/2/5 213/2/5 212/2/5
f 216/2/5 213/2/5 215/2/5
f 217/2/6 218/2/6 219/2/6
f 219/2/6 218/2/6 220/2/6
f 220/2/6 218/2/6 221/2/6
f 221/2/6 218/2/6 222/2/6
f 223/2/6 224/2/6 227/2/6
f 227/2/6 224/2/6 228/2/6
f 225/2/6 226/2/6 229/2/6
f 229/2/6 226/2/6 230/2/6
f 231/2/6 232/2/6 235/2/6
f 235/2/6 232/2/6 236/2/6
f 233/2/6 234/2/6 237/2/6
f 237/2/6 234/2/6 238/2/6
f 239/2/6 240/2/6 243/2/6
f 243/2/6 240/2/6 244/2/6
f 241/2/6 242/2/6 245/2/6
f 245/2/6 242/2/6 246/2/6
f 247/2/6 248/2/6 249/2/6
f 249/2/6 248/2/6 250/2/6
