# MagicaVoxel @ Ephtracy

# group
o 

# material
mtllib Prototype_boss_animation-0.mtl
usemtl palette

# normals
vn -1 0 0
vn 1 0 0
vn 0 0 1
vn 0 0 -1
vn 0 -1 0
vn 0 1 0

# texcoords
vt 0.470703 0.5
vt 0.474609 0.5

# verts
v -0.3 1.3 -0.1
v -0.3 1.3 -0.2
v -0.3 1.3 -0.7
v -0.3 1.3 -0.8
v -0.3 1.5 -0.1
v -0.3 1.5 -0.2
v -0.3 1.5 -0.7
v -0.3 1.5 -0.8
v -0.2 1.4 -0.2
v -0.2 1.4 -0.3
v -0.2 1.4 -0.6
v -0.2 1.4 -0.7
v -0.2 1.5 -0.2
v -0.2 1.5 -0.3
v -0.2 1.5 -0.6
v -0.2 1.5 -0.7
v -0.1 1.4 -0.3
v -0.1 1.4 -0.4
v -0.1 1.4 -0.5
v -0.1 1.4 -0.6
v -0.1 1.5 -0.3
v -0.1 1.5 -0.4
v -0.1 1.5 -0.5
v -0.1 1.5 -0.6
v -0.1 1.6 -0.3
v -0.1 1.6 -0.6
v 0 1.5 -0.2
v 0 1.5 -0.3
v 0 1.5 -0.6
v 0 1.5 -0.7
v 0 1.6 -0.3
v 0 1.6 -0.6
v 0 1.6 -0.7
v 0 1.8 -0.5
v 0 1.8 -0.6
v 0 1.8 -0.7
v 0 1.9 -0.2
v 0 1.9 -0.5
v 0 1.9 -0.6
v 0 1.9 -0.7
v 0.1 1.9 -0.2
v 0.1 1.9 -0.4
v 0.1 1.9 -0.5
v 0.1 1.9 -0.6
v 0.1 1.9 -0.7
v 0.1 2 -0.2
v 0.1 2 -0.4
v 0.1 2 -0.7
v 0.2 1.4 -0.3
v 0.2 1.4 -0.4
v 0.2 1.4 -0.5
v 0.2 1.4 -0.6
v 0.2 1.5 -0.3
v 0.2 1.5 -0.4
v 0.2 1.5 -0.5
v 0.2 1.5 -0.6
v 0.2 2 -0.2
v 0.2 2 -0.3
v 0.2 2 -0.4
v 0.2 2 -0.5
v 0.2 2 -0.6
v 0.2 2 -0.7
v 0.2 2.1 -0.2
v 0.2 2.1 -0.3
v 0.2 2.1 -0.5
v 0.2 2.1 -0.6
v 0.2 2.1 -0.7
v 0.3 1.4 -0.2
v 0.3 1.4 -0.3
v 0.3 1.4 -0.6
v 0.3 1.4 -0.7
v 0.3 1.5 -0.2
v 0.3 1.5 -0.3
v 0.3 1.5 -0.6
v 0.3 1.5 -0.7
v 0.3 2.1 -0.2
v 0.3 2.1 -0.3
v 0.3 2.1 -0.4
v 0.3 2.1 -0.5
v 0.3 2.1 -0.6
v 0.3 2.1 -0.7
v 0.3 2.2 -0.2
v 0.3 2.2 -0.3
v 0.3 2.2 -0.4
v 0.3 2.2 -0.6
v 0.3 2.2 -0.7
v 0.4 1.3 -0.1
v 0.4 1.3 -0.2
v 0.4 1.3 -0.7
v 0.4 1.3 -0.8
v 0.4 1.4 -0.2
v 0.4 1.4 -0.7
v 0.4 1.5 -0.1
v 0.4 1.5 -0.2
v 0.4 1.5 -0.7
v 0.4 1.5 -0.8
v 0.4 2.2 -0.2
v 0.4 2.2 -0.3
v 0.4 2.2 -0.4
v 0.4 2.2 -0.6
v 0.4 2.2 -0.7
v 0.4 2.3 -0.2
v 0.4 2.3 -0.7
v -0.2 1.3 -0.1
v -0.2 1.3 -0.2
v -0.2 1.3 -0.7
v -0.2 1.3 -0.8
v -0.2 1.4 -0.2
v -0.2 1.4 -0.7
v -0.2 1.5 -0.1
v -0.2 1.5 -0.2
v -0.2 1.5 -0.7
v -0.2 1.5 -0.8
v -0.1 1.4 -0.2
v -0.1 1.4 -0.3
v -0.1 1.4 -0.6
v -0.1 1.4 -0.7
v -0.1 1.5 -0.2
v -0.1 1.5 -0.3
v -0.1 1.5 -0.6
v -0.1 1.5 -0.7
v 0 1.4 -0.3
v 0 1.4 -0.4
v 0 1.4 -0.5
v 0 1.4 -0.6
v 0 1.5 -0.3
v 0 1.5 -0.4
v 0 1.5 -0.5
v 0 1.5 -0.6
v 0.2 1.5 -0.2
v 0.2 1.5 -0.3
v 0.2 1.5 -0.6
v 0.2 1.5 -0.7
v 0.2 1.6 -0.3
v 0.2 1.6 -0.4
v 0.2 1.6 -0.6
v 0.2 1.9 -0.2
v 0.2 1.9 -0.7
v 0.3 1.4 -0.3
v 0.3 1.4 -0.4
v 0.3 1.4 -0.5
v 0.3 1.4 -0.6
v 0.3 1.5 -0.3
v 0.3 1.5 -0.4
v 0.3 1.5 -0.5
v 0.3 1.5 -0.6
v 0.3 1.6 -0.3
v 0.3 1.6 -0.4
v 0.3 1.6 -0.6
v 0.3 1.9 -0.2
v 0.3 1.9 -0.7
v 0.3 2 -0.2
v 0.3 2 -0.7
v 0.4 1.4 -0.2
v 0.4 1.4 -0.3
v 0.4 1.4 -0.6
v 0.4 1.4 -0.7
v 0.4 1.5 -0.2
v 0.4 1.5 -0.3
v 0.4 1.5 -0.6
v 0.4 1.5 -0.7
v 0.4 2 -0.2
v 0.4 2 -0.7
v 0.4 2.1 -0.2
v 0.4 2.1 -0.7
v 0.5 1.3 -0.1
v 0.5 1.3 -0.2
v 0.5 1.3 -0.7
v 0.5 1.3 -0.8
v 0.5 1.5 -0.1
v 0.5 1.5 -0.2
v 0.5 1.5 -0.7
v 0.5 1.5 -0.8
v 0.5 2.1 -0.2
v 0.5 2.1 -0.7
v 0.5 2.3 -0.2
v 0.5 2.3 -0.7
v -0.3 1.3 -0.1
v -0.3 1.5 -0.1
v -0.2 1.3 -0.1
v -0.2 1.5 -0.1
v 0.4 1.3 -0.1
v 0.4 1.5 -0.1
v 0.5 1.3 -0.1
v 0.5 1.5 -0.1
v -0.2 1.4 -0.2
v -0.2 1.5 -0.2
v -0.1 1.4 -0.2
v -0.1 1.5 -0.2
v 0 1.5 -0.2
v 0 1.9 -0.2
v 0.1 1.9 -0.2
v 0.1 2 -0.2
v 0.2 1.5 -0.2
v 0.2 1.9 -0.2
v 0.2 2 -0.2
v 0.2 2.1 -0.2
v 0.3 1.4 -0.2
v 0.3 1.5 -0.2
v 0.3 1.9 -0.2
v 0.3 2 -0.2
v 0.3 2.1 -0.2
v 0.3 2.2 -0.2
v 0.4 1.4 -0.2
v 0.4 1.5 -0.2
v 0.4 2 -0.2
v 0.4 2.1 -0.2
v 0.4 2.2 -0.2
v 0.4 2.3 -0.2
v 0.5 2.1 -0.2
v 0.5 2.3 -0.2
v -0.1 1.4 -0.3
v -0.1 1.5 -0.3
v -0.1 1.6 -0.3
v 0 1.4 -0.3
v 0 1.5 -0.3
v 0 1.6 -0.3
v 0.2 1.4 -0.3
v 0.2 1.5 -0.3
v 0.2 1.6 -0.3
v 0.3 1.4 -0.3
v 0.3 1.5 -0.3
v 0.3 1.6 -0.3
v -0.1 1.4 -0.5
v -0.1 1.5 -0.5
v 0 1.4 -0.5
v 0 1.5 -0.5
v 0.2 1.4 -0.5
v 0.2 1.5 -0.5
v 0.3 1.4 -0.5
v 0.3 1.5 -0.5
v -0.2 1.4 -0.6
v -0.2 1.5 -0.6
v -0.1 1.4 -0.6
v -0.1 1.5 -0.6
v 0.3 1.4 -0.6
v 0.3 1.5 -0.6
v 0.4 1.4 -0.6
v 0.4 1.5 -0.6
v -0.3 1.3 -0.7
v -0.3 1.5 -0.7
v -0.2 1.3 -0.7
v -0.2 1.4 -0.7
v -0.2 1.5 -0.7
v 0.4 1.3 -0.7
v 0.4 1.4 -0.7
v 0.4 1.5 -0.7
v 0.5 1.3 -0.7
v 0.5 1.5 -0.7
v -0.3 1.3 -0.2
v -0.3 1.5 -0.2
v -0.2 1.3 -0.2
v -0.2 1.4 -0.2
v -0.2 1.5 -0.2
v 0.4 1.3 -0.2
v 0.4 1.4 -0.2
v 0.4 1.5 -0.2
v 0.5 1.3 -0.2
v 0.5 1.5 -0.2
v -0.2 1.4 -0.3
v -0.2 1.5 -0.3
v -0.1 1.4 -0.3
v -0.1 1.5 -0.3
v 0.3 1.4 -0.3
v 0.3 1.5 -0.3
v 0.4 1.4 -0.3
v 0.4 1.5 -0.3
v -0.1 1.4 -0.4
v -0.1 1.5 -0.4
v 0 1.4 -0.4
v 0 1.5 -0.4
v 0.2 1.4 -0.4
v 0.2 1.5 -0.4
v 0.3 1.4 -0.4
v 0.3 1.5 -0.4
v -0.1 1.4 -0.6
v -0.1 1.5 -0.6
v -0.1 1.6 -0.6
v 0 1.4 -0.6
v 0 1.5 -0.6
v 0 1.6 -0.6
v 0.2 1.4 -0.6
v 0.2 1.5 -0.6
v 0.2 1.6 -0.6
v 0.3 1.4 -0.6
v 0.3 1.5 -0.6
v 0.3 1.6 -0.6
v -0.2 1.4 -0.7
v -0.2 1.5 -0.7
v -0.1 1.4 -0.7
v -0.1 1.5 -0.7
v 0 1.5 -0.7
v 0 1.6 -0.7
v 0 1.8 -0.7
v 0 1.9 -0.7
v 0.1 1.6 -0.7
v 0.1 1.8 -0.7
v 0.1 1.9 -0.7
v 0.1 2 -0.7
v 0.2 1.5 -0.7
v 0.2 1.9 -0.7
v 0.2 2 -0.7
v 0.2 2.1 -0.7
v 0.3 1.4 -0.7
v 0.3 1.5 -0.7
v 0.3 1.9 -0.7
v 0.3 2 -0.7
v 0.3 2.1 -0.7
v 0.3 2.2 -0.7
v 0.4 1.4 -0.7
v 0.4 1.5 -0.7
v 0.4 2 -0.7
v 0.4 2.1 -0.7
v 0.4 2.2 -0.7
v 0.4 2.3 -0.7
v 0.5 2.1 -0.7
v 0.5 2.3 -0.7
v -0.3 1.3 -0.8
v -0.3 1.5 -0.8
v -0.2 1.3 -0.8
v -0.2 1.5 -0.8
v 0.4 1.3 -0.8
v 0.4 1.5 -0.8
v 0.5 1.3 -0.8
v 0.5 1.5 -0.8
v -0.3 1.3 -0.1
v -0.2 1.3 -0.1
v 0.4 1.3 -0.1
v 0.5 1.3 -0.1
v -0.3 1.3 -0.2
v -0.2 1.3 -0.2
v 0.4 1.3 -0.2
v 0.5 1.3 -0.2
v -0.3 1.3 -0.7
v -0.2 1.3 -0.7
v 0.4 1.3 -0.7
v 0.5 1.3 -0.7
v -0.3 1.3 -0.8
v -0.2 1.3 -0.8
v 0.4 1.3 -0.8
v 0.5 1.3 -0.8
v -0.2 1.4 -0.2
v -0.1 1.4 -0.2
v 0.3 1.4 -0.2
v 0.4 1.4 -0.2
v -0.2 1.4 -0.3
v -0.1 1.4 -0.3
v 0 1.4 -0.3
v 0.2 1.4 -0.3
v 0.3 1.4 -0.3
v 0.4 1.4 -0.3
v -0.1 1.4 -0.4
v 0 1.4 -0.4
v 0.2 1.4 -0.4
v 0.3 1.4 -0.4
v -0.1 1.4 -0.5
v 0 1.4 -0.5
v 0.2 1.4 -0.5
v 0.3 1.4 -0.5
v -0.2 1.4 -0.6
v -0.1 1.4 -0.6
v 0 1.4 -0.6
v 0.2 1.4 -0.6
v 0.3 1.4 -0.6
v 0.4 1.4 -0.6
v -0.2 1.4 -0.7
v -0.1 1.4 -0.7
v 0.3 1.4 -0.7
v 0.4 1.4 -0.7
v 0 1.5 -0.2
v 0.2 1.5 -0.2
v 0 1.5 -0.3
v 0.2 1.5 -0.3
v -0.1 1.5 -0.4
v 0 1.5 -0.4
v 0.2 1.5 -0.4
v 0.3 1.5 -0.4
v -0.1 1.5 -0.5
v 0 1.5 -0.5
v 0.2 1.5 -0.5
v 0.3 1.5 -0.5
v 0 1.5 -0.6
v 0.2 1.5 -0.6
v 0 1.5 -0.7
v 0.2 1.5 -0.7
v 0.2 1.9 -0.2
v 0.3 1.9 -0.2
v 0.2 1.9 -0.7
v 0.3 1.9 -0.7
v 0.3 2 -0.2
v 0.4 2 -0.2
v 0.3 2 -0.7
v 0.4 2 -0.7
v 0.4 2.1 -0.2
v 0.5 2.1 -0.2
v 0.4 2.1 -0.7
v 0.5 2.1 -0.7
v -0.3 1.5 -0.1
v -0.2 1.5 -0.1
v 0.4 1.5 -0.1
v 0.5 1.5 -0.1
v -0.3 1.5 -0.2
v -0.2 1.5 -0.2
v -0.1 1.5 -0.2
v 0.3 1.5 -0.2
v 0.4 1.5 -0.2
v 0.5 1.5 -0.2
v -0.2 1.5 -0.3
v -0.1 1.5 -0.3
v 0.3 1.5 -0.3
v 0.4 1.5 -0.3
v -0.2 1.5 -0.6
v -0.1 1.5 -0.6
v 0.3 1.5 -0.6
v 0.4 1.5 -0.6
v -0.3 1.5 -0.7
v -0.2 1.5 -0.7
v -0.1 1.5 -0.7
v 0.3 1.5 -0.7
v 0.4 1.5 -0.7
v 0.5 1.5 -0.7
v -0.3 1.5 -0.8
v -0.2 1.5 -0.8
v 0.4 1.5 -0.8
v 0.5 1.5 -0.8
v -0.1 1.6 -0.3
v 0 1.6 -0.3
v 0.2 1.6 -0.3
v 0.3 1.6 -0.3
v 0.2 1.6 -0.4
v 0.3 1.6 -0.4
v -0.1 1.6 -0.6
v 0 1.6 -0.6
v 0.2 1.6 -0.6
v 0.3 1.6 -0.6
v 0 1.9 -0.2
v 0.1 1.9 -0.2
v 0.1 1.9 -0.4
v 0 1.9 -0.5
v 0.1 1.9 -0.5
v 0 1.9 -0.6
v 0.1 1.9 -0.6
v 0 1.9 -0.7
v 0.1 1.9 -0.7
v 0.1 2 -0.2
v 0.2 2 -0.2
v 0.2 2 -0.3
v 0.1 2 -0.4
v 0.2 2 -0.4
v 0.2 2 -0.5
v 0.2 2 -0.6
v 0.1 2 -0.7
v 0.2 2 -0.7
v 0.2 2.1 -0.2
v 0.3 2.1 -0.2
v 0.2 2.1 -0.3
v 0.3 2.1 -0.3
v 0.3 2.1 -0.4
v 0.2 2.1 -0.5
v 0.3 2.1 -0.5
v 0.2 2.1 -0.6
v 0.3 2.1 -0.6
v 0.2 2.1 -0.7
v 0.3 2.1 -0.7
v 0.3 2.2 -0.2
v 0.4 2.2 -0.2
v 0.3 2.2 -0.3
v 0.4 2.2 -0.3
v 0.3 2.2 -0.4
v 0.4 2.2 -0.4
v 0.3 2.2 -0.6
v 0.4 2.2 -0.6
v 0.3 2.2 -0.7
v 0.4 2.2 -0.7
v 0.4 2.3 -0.2
v 0.5 2.3 -0.2
v 0.4 2.3 -0.7
v 0.5 2.3 -0.7

# faces
f 5/1/1 2/1/1 1/1/1
f 6/1/1 2/1/1 5/1/1
f 7/2/1 4/2/1 3/2/1
f 8/2/1 4/2/1 7/2/1
f 13/1/1 10/1/1 9/1/1
f 14/1/1 10/1/1 13/1/1
f 15/2/1 12/2/1 11/2/1
f 16/2/1 12/2/1 15/2/1
f 21/1/1 18/1/1 17/1/1
f 22/1/1 18/1/1 21/1/1
f 23/1/1 20/1/1 19/1/1
f 24/1/1 20/1/1 23/1/1
f 25/1/1 22/1/1 21/1/1
f 25/1/1 23/1/1 22/1/1
f 25/1/1 24/1/1 23/1/1
f 26/1/1 24/1/1 25/1/1
f 31/1/1 28/1/1 27/1/1
f 32/1/1 30/1/1 29/1/1
f 33/1/1 30/1/1 32/1/1
f 34/1/1 32/1/1 31/1/1
f 35/2/1 33/2/1 32/2/1
f 35/1/1 32/1/1 34/1/1
f 36/2/1 33/2/1 35/2/1
f 37/1/1 31/1/1 27/1/1
f 37/1/1 34/1/1 31/1/1
f 38/2/1 35/2/1 34/2/1
f 38/1/1 34/1/1 37/1/1
f 39/1/1 36/1/1 35/1/1
f 39/2/1 35/2/1 38/2/1
f 40/1/1 36/1/1 39/1/1
f 46/1/1 42/1/1 41/1/1
f 47/2/1 45/2/1 44/2/1
f 47/1/1 42/1/1 46/1/1
f 47/2/1 43/2/1 42/2/1
f 47/2/1 44/2/1 43/2/1
f 48/2/1 45/2/1 47/2/1
f 53/1/1 50/1/1 49/1/1
f 54/1/1 50/1/1 53/1/1
f 55/1/1 52/1/1 51/1/1
f 56/1/1 52/1/1 55/1/1
f 63/1/1 58/1/1 57/1/1
f 64/2/1 59/2/1 58/2/1
f 64/1/1 58/1/1 63/1/1
f 64/2/1 60/2/1 59/2/1
f 65/1/1 61/1/1 60/1/1
f 65/2/1 60/2/1 64/2/1
f 66/2/1 62/2/1 61/2/1
f 66/1/1 61/1/1 65/1/1
f 67/2/1 62/2/1 66/2/1
f 72/2/1 69/2/1 68/2/1
f 73/2/1 69/2/1 72/2/1
f 74/1/1 71/1/1 70/1/1
f 75/1/1 71/1/1 74/1/1
f 82/1/1 77/1/1 76/1/1
f 83/2/1 78/2/1 77/2/1
f 83/1/1 77/1/1 82/1/1
f 84/1/1 79/1/1 78/1/1
f 84/2/1 78/2/1 83/2/1
f 84/1/1 80/1/1 79/1/1
f 85/2/1 81/2/1 80/2/1
f 85/1/1 80/1/1 84/1/1
f 86/2/1 81/2/1 85/2/1
f 91/2/1 88/2/1 87/2/1
f 92/1/1 90/1/1 89/1/1
f 93/2/1 91/2/1 87/2/1
f 94/2/1 91/2/1 93/2/1
f 95/1/1 90/1/1 92/1/1
f 96/1/1 90/1/1 95/1/1
f 102/1/1 98/1/1 97/1/1
f 102/1/1 101/1/1 100/1/1
f 102/1/1 100/1/1 99/1/1
f 102/1/1 99/1/1 98/1/1
f 103/1/1 101/1/1 102/1/1
f 104/1/2 105/1/2 108/1/2
f 106/2/2 107/2/2 109/2/2
f 104/1/2 108/1/2 110/1/2
f 110/1/2 108/1/2 111/1/2
f 109/2/2 107/2/2 112/2/2
f 112/2/2 107/2/2 113/2/2
f 114/1/2 115/1/2 118/1/2
f 118/1/2 115/1/2 119/1/2
f 116/2/2 117/2/2 120/2/2
f 120/2/2 117/2/2 121/2/2
f 122/1/2 123/1/2 126/1/2
f 126/1/2 123/1/2 127/1/2
f 124/1/2 125/1/2 128/1/2
f 128/1/2 125/1/2 129/1/2
f 130/1/2 131/1/2 134/1/2
f 132/1/2 133/1/2 136/1/2
f 134/1/2 135/1/2 137/1/2
f 135/1/2 136/1/2 137/1/2
f 130/1/2 134/1/2 137/1/2
f 136/1/2 133/1/2 138/1/2
f 137/1/2 136/1/2 138/1/2
f 139/1/2 140/1/2 143/1/2
f 143/1/2 140/1/2 144/1/2
f 141/1/2 142/1/2 145/1/2
f 145/1/2 142/1/2 146/1/2
f 143/2/2 144/2/2 147/2/2
f 144/1/2 145/1/2 148/1/2
f 147/2/2 144/2/2 148/2/2
f 145/1/2 146/1/2 148/1/2
f 148/1/2 146/1/2 149/1/2
f 150/1/2 151/1/2 152/1/2
f 152/1/2 151/1/2 153/1/2
f 154/2/2 155/2/2 158/2/2
f 158/2/2 155/2/2 159/2/2
f 156/1/2 157/1/2 160/1/2
f 160/1/2 157/1/2 161/1/2
f 162/1/2 163/1/2 164/1/2
f 164/1/2 163/1/2 165/1/2
f 166/2/2 167/2/2 170/2/2
f 170/2/2 167/2/2 171/2/2
f 168/1/2 169/1/2 172/1/2
f 172/1/2 169/1/2 173/1/2
f 174/1/2 175/1/2 176/1/2
f 176/1/2 175/1/2 177/1/2
f 180/1/3 179/1/3 178/1/3
f 181/1/3 179/1/3 180/1/3
f 184/2/3 183/2/3 182/2/3
f 185/2/3 183/2/3 184/2/3
f 188/1/3 187/1/3 186/1/3
f 189/1/3 187/1/3 188/1/3
f 192/1/3 191/1/3 190/1/3
f 194/1/3 192/1/3 190/1/3
f 194/1/3 193/1/3 192/1/3
f 195/1/3 193/1/3 194/1/3
f 196/1/3 193/1/3 195/1/3
f 200/1/3 197/1/3 196/1/3
f 200/1/3 196/1/3 195/1/3
f 201/1/3 197/1/3 200/1/3
f 202/1/3 197/1/3 201/1/3
f 204/2/3 199/2/3 198/2/3
f 205/2/3 199/2/3 204/2/3
f 206/1/3 203/1/3 202/1/3
f 206/1/3 202/1/3 201/1/3
f 207/1/3 203/1/3 206/1/3
f 208/1/3 203/1/3 207/1/3
f 210/1/3 209/1/3 208/1/3
f 210/1/3 208/1/3 207/1/3
f 211/1/3 209/1/3 210/1/3
f 215/1/3 213/1/3 212/1/3
f 215/1/3 214/1/3 213/1/3
f 216/1/3 214/1/3 215/1/3
f 217/1/3 214/1/3 216/1/3
f 221/1/3 219/1/3 218/1/3
f 222/2/3 220/2/3 219/2/3
f 222/1/3 219/1/3 221/1/3
f 223/2/3 220/2/3 222/2/3
f 226/1/3 225/1/3 224/1/3
f 227/1/3 225/1/3 226/1/3
f 230/1/3 229/1/3 228/1/3
f 231/1/3 229/1/3 230/1/3
f 234/2/3 233/2/3 232/2/3
f 235/2/3 233/2/3 234/2/3
f 238/1/3 237/1/3 236/1/3
f 239/1/3 237/1/3 238/1/3
f 242/2/3 241/2/3 240/2/3
f 243/2/3 241/2/3 242/2/3
f 244/2/3 241/2/3 243/2/3
f 248/1/3 246/1/3 245/1/3
f 248/1/3 247/1/3 246/1/3
f 249/1/3 247/1/3 248/1/3
f 250/1/4 251/1/4 252/1/4
f 252/1/4 251/1/4 253/1/4
f 253/1/4 251/1/4 254/1/4
f 255/2/4 256/2/4 258/2/4
f 256/2/4 257/2/4 258/2/4
f 258/2/4 257/2/4 259/2/4
f 260/1/4 261/1/4 262/1/4
f 262/1/4 261/1/4 263/1/4
f 264/2/4 265/2/4 266/2/4
f 266/2/4 265/2/4 267/2/4
f 268/1/4 269/1/4 270/1/4
f 270/1/4 269/1/4 271/1/4
f 272/1/4 273/1/4 274/1/4
f 274/1/4 273/1/4 275/1/4
f 276/1/4 277/1/4 279/1/4
f 277/1/4 278/1/4 279/1/4
f 279/1/4 278/1/4 280/1/4
f 280/1/4 278/1/4 281/1/4
f 282/1/4 283/1/4 285/1/4
f 283/1/4 284/1/4 285/1/4
f 285/1/4 284/1/4 286/1/4
f 286/1/4 284/1/4 287/1/4
f 288/2/4 289/2/4 290/2/4
f 290/2/4 289/2/4 291/2/4
f 292/1/4 293/1/4 296/1/4
f 293/2/4 294/2/4 296/2/4
f 294/1/4 295/1/4 297/1/4
f 296/2/4 294/2/4 297/2/4
f 297/1/4 295/1/4 298/1/4
f 292/1/4 296/1/4 300/1/4
f 296/1/4 297/1/4 300/1/4
f 297/1/4 298/1/4 300/1/4
f 298/2/4 299/2/4 301/2/4
f 300/1/4 298/1/4 301/1/4
f 301/2/4 299/2/4 302/2/4
f 301/1/4 302/1/4 306/1/4
f 302/2/4 303/2/4 307/2/4
f 306/1/4 302/1/4 307/1/4
f 307/2/4 303/2/4 308/2/4
f 304/1/4 305/1/4 310/1/4
f 310/1/4 305/1/4 311/1/4
f 307/1/4 308/1/4 312/1/4
f 308/2/4 309/2/4 313/2/4
f 312/1/4 308/1/4 313/1/4
f 313/2/4 309/2/4 314/2/4
f 314/1/4 315/1/4 316/1/4
f 313/1/4 314/1/4 316/1/4
f 316/1/4 315/1/4 317/1/4
f 318/2/4 319/2/4 320/2/4
f 320/2/4 319/2/4 321/2/4
f 322/1/4 323/1/4 324/1/4
f 324/1/4 323/1/4 325/1/4
f 330/1/5 327/1/5 326/1/5
f 331/1/5 327/1/5 330/1/5
f 332/2/5 329/2/5 328/2/5
f 333/2/5 329/2/5 332/2/5
f 338/2/5 335/2/5 334/2/5
f 339/2/5 335/2/5 338/2/5
f 340/1/5 337/1/5 336/1/5
f 341/1/5 337/1/5 340/1/5
f 346/1/5 343/1/5 342/1/5
f 347/1/5 343/1/5 346/1/5
f 350/2/5 345/2/5 344/2/5
f 351/2/5 345/2/5 350/2/5
f 352/1/5 348/1/5 347/1/5
f 353/1/5 348/1/5 352/1/5
f 354/1/5 350/1/5 349/1/5
f 355/1/5 350/1/5 354/1/5
f 361/1/5 357/1/5 356/1/5
f 362/1/5 357/1/5 361/1/5
f 363/1/5 359/1/5 358/1/5
f 364/1/5 359/1/5 363/1/5
f 366/2/5 361/2/5 360/2/5
f 367/2/5 361/2/5 366/2/5
f 368/1/5 365/1/5 364/1/5
f 369/1/5 365/1/5 368/1/5
f 372/1/5 371/1/5 370/1/5
f 373/1/5 371/1/5 372/1/5
f 375/1/5 373/1/5 372/1/5
f 376/1/5 373/1/5 375/1/5
f 378/1/5 376/1/5 375/1/5
f 378/1/5 377/1/5 376/1/5
f 378/1/5 375/1/5 374/1/5
f 379/1/5 377/1/5 378/1/5
f 380/1/5 377/1/5 379/1/5
f 381/1/5 377/1/5 380/1/5
f 382/1/5 380/1/5 379/1/5
f 383/1/5 380/1/5 382/1/5
f 384/1/5 383/1/5 382/1/5
f 385/1/5 383/1/5 384/1/5
f 388/1/5 387/1/5 386/1/5
f 389/1/5 387/1/5 388/1/5
f 392/1/5 391/1/5 390/1/5
f 393/1/5 391/1/5 392/1/5
f 396/1/5 395/1/5 394/1/5
f 397/1/5 395/1/5 396/1/5
f 398/1/6 399/1/6 402/1/6
f 402/1/6 399/1/6 403/1/6
f 400/2/6 401/2/6 406/2/6
f 406/2/6 401/2/6 407/2/6
f 403/1/6 404/1/6 408/1/6
f 408/1/6 404/1/6 409/1/6
f 405/2/6 406/2/6 410/2/6
f 410/2/6 406/2/6 411/2/6
f 412/2/6 413/2/6 417/2/6
f 417/2/6 413/2/6 418/2/6
f 414/1/6 415/1/6 419/1/6
f 419/1/6 415/1/6 420/1/6
f 416/2/6 417/2/6 422/2/6
f 422/2/6 417/2/6 423/2/6
f 420/1/6 421/1/6 424/1/6
f 424/1/6 421/1/6 425/1/6
f 428/2/6 429/2/6 430/2/6
f 430/2/6 429/2/6 431/2/6
f 426/1/6 427/1/6 432/1/6
f 432/1/6 427/1/6 433/1/6
f 430/1/6 431/1/6 434/1/6
f 434/1/6 431/1/6 435/1/6
f 436/1/6 437/1/6 438/1/6
f 436/1/6 438/1/6 439/1/6
f 439/1/6 438/1/6 440/1/6
f 439/2/6 440/2/6 441/2/6
f 441/2/6 440/2/6 442/2/6
f 441/1/6 442/1/6 443/1/6
f 443/1/6 442/1/6 444/1/6
f 445/1/6 446/1/6 447/1/6
f 445/1/6 447/1/6 448/1/6
f 448/1/6 447/1/6 449/1/6
f 448/2/6 449/2/6 450/2/6
f 448/2/6 450/2/6 451/2/6
f 448/2/6 451/2/6 452/2/6
f 452/2/6 451/2/6 453/2/6
f 454/1/6 455/1/6 456/1/6
f 456/1/6 455/1/6 457/1/6
f 456/2/6 457/2/6 458/2/6
f 456/2/6 458/2/6 459/2/6
f 459/2/6 458/2/6 460/2/6
f 459/1/6 460/1/6 461/1/6
f 461/1/6 460/1/6 462/1/6
f 461/2/6 462/2/6 463/2/6
f 463/2/6 462/2/6 464/2/6
f 465/1/6 466/1/6 467/1/6
f 467/1/6 466/1/6 468/1/6
f 467/2/6 468/2/6 469/2/6
f 469/2/6 468/2/6 470/2/6
f 469/1/6 470/1/6 471/1/6
f 471/1/6 470/1/6 472/1/6
f 471/2/6 472/2/6 473/2/6
f 473/2/6 472/2/6 474/2/6
f 475/1/6 476/1/6 477/1/6
f 477/1/6 476/1/6 478/1/6
