# MagicaVoxel @ Ephtracy

# group
o 

# material
mtllib Prototype_1_for_animation-0.mtl
usemtl palette

# normals
vn -1 0 0
vn 1 0 0
vn 0 0 1
vn 0 0 -1
vn 0 -1 0
vn 0 1 0

# texcoords
vt 0.470703 0.5
vt 0.474609 0.5

# verts
v -0.3 1.1 0.2
v -0.3 1.1 -0.1
v -0.3 1.4 0.2
v -0.3 1.4 -0.1
v -0.2 1 0.2
v -0.2 1 -0.1
v -0.2 1.1 0.3
v -0.2 1.1 0.2
v -0.2 1.1 -0.1
v -0.2 1.1 -0.2
v -0.2 1.4 0.3
v -0.2 1.4 0.2
v -0.2 1.4 -0.1
v -0.2 1.4 -0.2
v -0.1 1 0.3
v -0.1 1 0.2
v -0.1 1 -0.1
v -0.1 1 -0.2
v -0.1 1.1 0.4
v -0.1 1.1 0.3
v -0.1 1.1 0.2
v -0.1 1.1 -0.1
v -0.1 1.1 -0.2
v -0.1 1.1 -0.3
v -0.1 1.4 0.4
v -0.1 1.4 0.3
v -0.1 1.4 -0.2
v -0.1 1.4 -0.3
v 0 1.2 0.3
v 0 1.2 0.2
v 0 1.2 -0.1
v 0 1.2 -0.2
v 0 1.3 0.3
v 0 1.3 0.2
v 0 1.3 -0.1
v 0 1.3 -0.2
v 0.2 1.1 0.3
v 0.2 1.1 0.2
v 0.2 1.1 -0.1
v 0.2 1.1 -0.2
v 0.2 1.2 0.2
v 0.2 1.2 0.1
v 0.2 1.2 0
v 0.2 1.2 -0.1
v 0.2 1.3 0.2
v 0.2 1.3 0.1
v 0.2 1.3 0
v 0.2 1.3 -0.1
v 0.2 1.4 0.3
v 0.2 1.4 0.2
v 0.2 1.4 -0.1
v 0.2 1.4 -0.2
v 0.3 1.1 0.2
v 0.3 1.1 -0.1
v 0.3 1.2 0.2
v 0.3 1.2 0.1
v 0.3 1.2 0
v 0.3 1.2 -0.1
v 0.3 1.3 0.2
v 0.3 1.3 0.1
v 0.3 1.3 0
v 0.3 1.3 -0.1
v 0.3 1.4 0.2
v 0.3 1.4 -0.1
v -0.2 1.1 0.2
v -0.2 1.1 -0.1
v -0.2 1.2 0.2
v -0.2 1.2 0.1
v -0.2 1.2 0
v -0.2 1.2 -0.1
v -0.2 1.3 0.2
v -0.2 1.3 0.1
v -0.2 1.3 0
v -0.2 1.3 -0.1
v -0.2 1.4 0.2
v -0.2 1.4 -0.1
v -0.1 1.1 0.3
v -0.1 1.1 0.2
v -0.1 1.1 -0.1
v -0.1 1.1 -0.2
v -0.1 1.2 0.2
v -0.1 1.2 0.1
v -0.1 1.2 0
v -0.1 1.2 -0.1
v -0.1 1.3 0.2
v -0.1 1.3 0.1
v -0.1 1.3 0
v -0.1 1.3 -0.1
v -0.1 1.4 0.3
v -0.1 1.4 0.2
v -0.1 1.4 -0.1
v -0.1 1.4 -0.2
v 0.1 1.2 0.3
v 0.1 1.2 0.2
v 0.1 1.2 -0.1
v 0.1 1.2 -0.2
v 0.1 1.3 0.3
v 0.1 1.3 0.2
v 0.1 1.3 -0.1
v 0.1 1.3 -0.2
v 0.2 1 0.3
v 0.2 1 0.2
v 0.2 1 -0.1
v 0.2 1 -0.2
v 0.2 1.1 0.4
v 0.2 1.1 0.3
v 0.2 1.1 0.2
v 0.2 1.1 -0.1
v 0.2 1.1 -0.2
v 0.2 1.1 -0.3
v 0.2 1.4 0.4
v 0.2 1.4 0.3
v 0.2 1.4 -0.2
v 0.2 1.4 -0.3
v 0.3 1 0.2
v 0.3 1 -0.1
v 0.3 1.1 0.3
v 0.3 1.1 0.2
v 0.3 1.1 -0.1
v 0.3 1.1 -0.2
v 0.3 1.4 0.3
v 0.3 1.4 0.2
v 0.3 1.4 -0.1
v 0.3 1.4 -0.2
v 0.4 1.1 0.2
v 0.4 1.1 -0.1
v 0.4 1.4 0.2
v 0.4 1.4 -0.1
v -0.1 1.1 0.4
v -0.1 1.4 0.4
v 0.2 1.1 0.4
v 0.2 1.4 0.4
v -0.2 1.1 0.3
v -0.2 1.4 0.3
v -0.1 1 0.3
v -0.1 1.1 0.3
v -0.1 1.4 0.3
v 0.2 1 0.3
v 0.2 1.1 0.3
v 0.2 1.4 0.3
v 0.3 1.1 0.3
v 0.3 1.4 0.3
v -0.3 1.1 0.2
v -0.3 1.4 0.2
v -0.2 1 0.2
v -0.2 1.1 0.2
v -0.2 1.4 0.2
v -0.1 1 0.2
v -0.1 1.1 0.2
v 0.2 1 0.2
v 0.2 1.1 0.2
v 0.3 1 0.2
v 0.3 1.1 0.2
v 0.3 1.4 0.2
v 0.4 1.1 0.2
v 0.4 1.4 0.2
v -0.2 1.2 0
v -0.2 1.3 0
v -0.1 1.2 0
v -0.1 1.3 0
v 0.2 1.2 0
v 0.2 1.3 0
v 0.3 1.2 0
v 0.3 1.3 0
v -0.2 1.1 -0.1
v -0.2 1.2 -0.1
v -0.2 1.3 -0.1
v -0.2 1.4 -0.1
v -0.1 1.1 -0.1
v -0.1 1.2 -0.1
v -0.1 1.3 -0.1
v -0.1 1.4 -0.1
v 0 1.2 -0.1
v 0 1.3 -0.1
v 0.1 1.2 -0.1
v 0.1 1.3 -0.1
v 0.2 1.1 -0.1
v 0.2 1.2 -0.1
v 0.2 1.3 -0.1
v 0.2 1.4 -0.1
v 0.3 1.1 -0.1
v 0.3 1.2 -0.1
v 0.3 1.3 -0.1
v 0.3 1.4 -0.1
v -0.1 1.1 -0.2
v -0.1 1.4 -0.2
v 0 1.2 -0.2
v 0 1.3 -0.2
v 0.1 1.2 -0.2
v 0.1 1.3 -0.2
v 0.2 1.1 -0.2
v 0.2 1.4 -0.2
v -0.1 1.1 0.3
v -0.1 1.4 0.3
v 0 1.2 0.3
v 0 1.3 0.3
v 0.1 1.2 0.3
v 0.1 1.3 0.3
v 0.2 1.1 0.3
v 0.2 1.4 0.3
v -0.2 1.1 0.2
v -0.2 1.2 0.2
v -0.2 1.3 0.2
v -0.2 1.4 0.2
v -0.1 1.1 0.2
v -0.1 1.2 0.2
v -0.1 1.3 0.2
v -0.1 1.4 0.2
v 0 1.2 0.2
v 0 1.3 0.2
v 0.1 1.2 0.2
v 0.1 1.3 0.2
v 0.2 1.1 0.2
v 0.2 1.2 0.2
v 0.2 1.3 0.2
v 0.2 1.4 0.2
v 0.3 1.1 0.2
v 0.3 1.2 0.2
v 0.3 1.3 0.2
v 0.3 1.4 0.2
v -0.2 1.2 0.1
v -0.2 1.3 0.1
v -0.1 1.2 0.1
v -0.1 1.3 0.1
v 0.2 1.2 0.1
v 0.2 1.3 0.1
v 0.3 1.2 0.1
v 0.3 1.3 0.1
v -0.3 1.1 -0.1
v -0.3 1.4 -0.1
v -0.2 1 -0.1
v -0.2 1.1 -0.1
v -0.2 1.4 -0.1
v -0.1 1 -0.1
v -0.1 1.1 -0.1
v 0.2 1 -0.1
v 0.2 1.1 -0.1
v 0.3 1 -0.1
v 0.3 1.1 -0.1
v 0.3 1.4 -0.1
v 0.4 1.1 -0.1
v 0.4 1.4 -0.1
v -0.2 1.1 -0.2
v -0.2 1.4 -0.2
v -0.1 1 -0.2
v -0.1 1.1 -0.2
v -0.1 1.4 -0.2
v 0.2 1 -0.2
v 0.2 1.1 -0.2
v 0.2 1.4 -0.2
v 0.3 1.1 -0.2
v 0.3 1.4 -0.2
v -0.1 1.1 -0.3
v -0.1 1.4 -0.3
v 0.2 1.1 -0.3
v 0.2 1.4 -0.3
v -0.1 1 0.3
v 0.2 1 0.3
v -0.2 1 0.2
v -0.1 1 0.2
v 0.2 1 0.2
v 0.3 1 0.2
v -0.2 1 -0.1
v -0.1 1 -0.1
v 0.2 1 -0.1
v 0.3 1 -0.1
v -0.1 1 -0.2
v 0.2 1 -0.2
v -0.1 1.1 0.4
v 0.2 1.1 0.4
v -0.2 1.1 0.3
v -0.1 1.1 0.3
v 0.2 1.1 0.3
v 0.3 1.1 0.3
v -0.3 1.1 0.2
v -0.2 1.1 0.2
v -0.1 1.1 0.2
v 0.2 1.1 0.2
v 0.3 1.1 0.2
v 0.4 1.1 0.2
v -0.3 1.1 -0.1
v -0.2 1.1 -0.1
v -0.1 1.1 -0.1
v 0.2 1.1 -0.1
v 0.3 1.1 -0.1
v 0.4 1.1 -0.1
v -0.2 1.1 -0.2
v -0.1 1.1 -0.2
v 0.2 1.1 -0.2
v 0.3 1.1 -0.2
v -0.1 1.1 -0.3
v 0.2 1.1 -0.3
v 0 1.2 0.3
v 0.1 1.2 0.3
v -0.2 1.2 0.2
v -0.1 1.2 0.2
v 0 1.2 0.2
v 0.1 1.2 0.2
v 0.2 1.2 0.2
v 0.3 1.2 0.2
v -0.2 1.2 0.1
v -0.1 1.2 0.1
v 0.2 1.2 0.1
v 0.3 1.2 0.1
v -0.2 1.2 0
v -0.1 1.2 0
v 0.2 1.2 0
v 0.3 1.2 0
v -0.2 1.2 -0.1
v -0.1 1.2 -0.1
v 0 1.2 -0.1
v 0.1 1.2 -0.1
v 0.2 1.2 -0.1
v 0.3 1.2 -0.1
v 0 1.2 -0.2
v 0.1 1.2 -0.2
v -0.1 1.1 0.3
v 0.2 1.1 0.3
v -0.2 1.1 0.2
v -0.1 1.1 0.2
v 0.2 1.1 0.2
v 0.3 1.1 0.2
v -0.2 1.1 -0.1
v -0.1 1.1 -0.1
v 0.2 1.1 -0.1
v 0.3 1.1 -0.1
v -0.1 1.1 -0.2
v 0.2 1.1 -0.2
v 0 1.3 0.3
v 0.1 1.3 0.3
v -0.2 1.3 0.2
v -0.1 1.3 0.2
v 0 1.3 0.2
v 0.1 1.3 0.2
v 0.2 1.3 0.2
v 0.3 1.3 0.2
v -0.2 1.3 0.1
v -0.1 1.3 0.1
v 0.2 1.3 0.1
v 0.3 1.3 0.1
v -0.2 1.3 0
v -0.1 1.3 0
v 0.2 1.3 0
v 0.3 1.3 0
v -0.2 1.3 -0.1
v -0.1 1.3 -0.1
v 0 1.3 -0.1
v 0.1 1.3 -0.1
v 0.2 1.3 -0.1
v 0.3 1.3 -0.1
v 0 1.3 -0.2
v 0.1 1.3 -0.2
v -0.1 1.4 0.4
v 0.2 1.4 0.4
v -0.2 1.4 0.3
v -0.1 1.4 0.3
v 0.2 1.4 0.3
v 0.3 1.4 0.3
v -0.3 1.4 0.2
v -0.2 1.4 0.2
v -0.1 1.4 0.2
v 0.2 1.4 0.2
v 0.3 1.4 0.2
v 0.4 1.4 0.2
v -0.3 1.4 -0.1
v -0.2 1.4 -0.1
v -0.1 1.4 -0.1
v 0.2 1.4 -0.1
v 0.3 1.4 -0.1
v 0.4 1.4 -0.1
v -0.2 1.4 -0.2
v -0.1 1.4 -0.2
v 0.2 1.4 -0.2
v 0.3 1.4 -0.2
v -0.1 1.4 -0.3
v 0.2 1.4 -0.3

# faces
f 3/1/1 2/1/1 1/1/1
f 4/1/1 2/1/1 3/1/1
f 8/1/1 6/1/1 5/1/1
f 9/1/1 6/1/1 8/1/1
f 11/1/1 8/1/1 7/1/1
f 12/1/1 8/1/1 11/1/1
f 13/1/1 10/1/1 9/1/1
f 14/1/1 10/1/1 13/1/1
f 20/1/1 16/1/1 15/1/1
f 21/1/1 16/1/1 20/1/1
f 22/1/1 18/1/1 17/1/1
f 23/1/1 18/1/1 22/1/1
f 25/1/1 20/1/1 19/1/1
f 26/1/1 20/1/1 25/1/1
f 27/1/1 24/1/1 23/1/1
f 28/1/1 24/1/1 27/1/1
f 33/2/1 30/2/1 29/2/1
f 34/2/1 30/2/1 33/2/1
f 35/2/1 32/2/1 31/2/1
f 36/2/1 32/2/1 35/2/1
f 41/1/1 38/1/1 37/1/1
f 44/1/1 40/1/1 39/1/1
f 45/2/1 42/2/1 41/2/1
f 45/1/1 41/1/1 37/1/1
f 46/2/1 42/2/1 45/2/1
f 47/2/1 44/2/1 43/2/1
f 48/1/1 40/1/1 44/1/1
f 48/2/1 44/2/1 47/2/1
f 49/1/1 45/1/1 37/1/1
f 50/1/1 45/1/1 49/1/1
f 51/1/1 40/1/1 48/1/1
f 52/1/1 40/1/1 51/1/1
f 55/1/1 54/1/1 53/1/1
f 56/1/1 54/1/1 55/1/1
f 57/1/1 54/1/1 56/1/1
f 58/1/1 54/1/1 57/1/1
f 60/1/1 57/1/1 56/1/1
f 61/1/1 57/1/1 60/1/1
f 63/1/1 60/1/1 59/1/1
f 63/1/1 62/1/1 61/1/1
f 63/1/1 61/1/1 60/1/1
f 64/1/1 62/1/1 63/1/1
f 65/1/2 66/1/2 67/1/2
f 67/1/2 66/1/2 68/1/2
f 68/1/2 66/1/2 69/1/2
f 69/1/2 66/1/2 70/1/2
f 68/1/2 69/1/2 72/1/2
f 72/1/2 69/1/2 73/1/2
f 71/1/2 72/1/2 75/1/2
f 73/1/2 74/1/2 75/1/2
f 72/1/2 73/1/2 75/1/2
f 75/1/2 74/1/2 76/1/2
f 77/1/2 78/1/2 81/1/2
f 79/1/2 80/1/2 84/1/2
f 81/2/2 82/2/2 85/2/2
f 77/1/2 81/1/2 85/1/2
f 85/2/2 82/2/2 86/2/2
f 83/2/2 84/2/2 87/2/2
f 84/1/2 80/1/2 88/1/2
f 87/2/2 84/2/2 88/2/2
f 77/1/2 85/1/2 89/1/2
f 89/1/2 85/1/2 90/1/2
f 88/1/2 80/1/2 91/1/2
f 91/1/2 80/1/2 92/1/2
f 93/2/2 94/2/2 97/2/2
f 97/2/2 94/2/2 98/2/2
f 95/2/2 96/2/2 99/2/2
f 99/2/2 96/2/2 100/2/2
f 101/1/2 102/1/2 106/1/2
f 106/1/2 102/1/2 107/1/2
f 103/1/2 104/1/2 108/1/2
f 108/1/2 104/1/2 109/1/2
f 105/1/2 106/1/2 111/1/2
f 111/1/2 106/1/2 112/1/2
f 109/1/2 110/1/2 113/1/2
f 113/1/2 110/1/2 114/1/2
f 115/1/2 116/1/2 118/1/2
f 118/1/2 116/1/2 119/1/2
f 117/1/2 118/1/2 121/1/2
f 121/1/2 118/1/2 122/1/2
f 119/1/2 120/1/2 123/1/2
f 123/1/2 120/1/2 124/1/2
f 125/1/2 126/1/2 127/1/2
f 127/1/2 126/1/2 128/1/2
f 131/1/3 130/1/3 129/1/3
f 132/1/3 130/1/3 131/1/3
f 136/1/3 134/1/3 133/1/3
f 137/1/3 134/1/3 136/1/3
f 138/1/3 136/1/3 135/1/3
f 139/1/3 136/1/3 138/1/3
f 141/1/3 140/1/3 139/1/3
f 142/1/3 140/1/3 141/1/3
f 146/1/3 144/1/3 143/1/3
f 147/1/3 144/1/3 146/1/3
f 148/1/3 146/1/3 145/1/3
f 149/1/3 146/1/3 148/1/3
f 152/1/3 151/1/3 150/1/3
f 153/1/3 151/1/3 152/1/3
f 155/1/3 154/1/3 153/1/3
f 156/1/3 154/1/3 155/1/3
f 159/2/3 158/2/3 157/2/3
f 160/2/3 158/2/3 159/2/3
f 163/2/3 162/2/3 161/2/3
f 164/2/3 162/2/3 163/2/3
f 169/1/3 166/1/3 165/1/3
f 170/1/3 166/1/3 169/1/3
f 171/1/3 168/1/3 167/1/3
f 172/1/3 168/1/3 171/1/3
f 175/2/3 174/2/3 173/2/3
f 176/2/3 174/2/3 175/2/3
f 181/1/3 178/1/3 177/1/3
f 182/1/3 178/1/3 181/1/3
f 183/1/3 180/1/3 179/1/3
f 184/1/3 180/1/3 183/1/3
f 187/1/3 186/1/3 185/1/3
f 188/1/3 186/1/3 187/1/3
f 189/1/3 187/1/3 185/1/3
f 190/1/3 186/1/3 188/1/3
f 191/1/3 189/1/3 185/1/3
f 191/1/3 190/1/3 189/1/3
f 192/1/3 186/1/3 190/1/3
f 192/1/3 190/1/3 191/1/3
f 193/1/4 194/1/4 195/1/4
f 195/1/4 194/1/4 196/1/4
f 193/1/4 195/1/4 197/1/4
f 196/1/4 194/1/4 198/1/4
f 193/1/4 197/1/4 199/1/4
f 197/1/4 198/1/4 199/1/4
f 198/1/4 194/1/4 200/1/4
f 199/1/4 198/1/4 200/1/4
f 201/1/4 202/1/4 205/1/4
f 205/1/4 202/1/4 206/1/4
f 203/1/4 204/1/4 207/1/4
f 207/1/4 204/1/4 208/1/4
f 209/2/4 210/2/4 211/2/4
f 211/2/4 210/2/4 212/2/4
f 213/1/4 214/1/4 217/1/4
f 217/1/4 214/1/4 218/1/4
f 215/1/4 216/1/4 219/1/4
f 219/1/4 216/1/4 220/1/4
f 221/2/4 222/2/4 223/2/4
f 223/2/4 222/2/4 224/2/4
f 225/2/4 226/2/4 227/2/4
f 227/2/4 226/2/4 228/2/4
f 229/1/4 230/1/4 232/1/4
f 232/1/4 230/1/4 233/1/4
f 231/1/4 232/1/4 234/1/4
f 234/1/4 232/1/4 235/1/4
f 236/1/4 237/1/4 238/1/4
f 238/1/4 237/1/4 239/1/4
f 239/1/4 240/1/4 241/1/4
f 241/1/4 240/1/4 242/1/4
f 243/1/4 244/1/4 246/1/4
f 246/1/4 244/1/4 247/1/4
f 245/1/4 246/1/4 248/1/4
f 248/1/4 246/1/4 249/1/4
f 249/1/4 250/1/4 251/1/4
f 251/1/4 250/1/4 252/1/4
f 253/1/4 254/1/4 255/1/4
f 255/1/4 254/1/4 256/1/4
f 260/1/5 258/1/5 257/1/5
f 261/1/5 258/1/5 260/1/5
f 263/1/5 260/1/5 259/1/5
f 263/1/5 262/1/5 261/1/5
f 263/1/5 261/1/5 260/1/5
f 264/1/5 262/1/5 263/1/5
f 265/1/5 262/1/5 264/1/5
f 266/1/5 262/1/5 265/1/5
f 267/1/5 265/1/5 264/1/5
f 268/1/5 265/1/5 267/1/5
f 272/1/5 270/1/5 269/1/5
f 273/1/5 270/1/5 272/1/5
f 276/1/5 272/1/5 271/1/5
f 277/1/5 272/1/5 276/1/5
f 278/1/5 274/1/5 273/1/5
f 279/1/5 274/1/5 278/1/5
f 281/1/5 276/1/5 275/1/5
f 282/1/5 276/1/5 281/1/5
f 285/1/5 280/1/5 279/1/5
f 286/1/5 280/1/5 285/1/5
f 287/1/5 283/1/5 282/1/5
f 288/1/5 283/1/5 287/1/5
f 289/1/5 285/1/5 284/1/5
f 290/1/5 285/1/5 289/1/5
f 291/1/5 289/1/5 288/1/5
f 292/1/5 289/1/5 291/1/5
f 297/2/5 294/2/5 293/2/5
f 298/2/5 294/2/5 297/2/5
f 301/2/5 296/2/5 295/2/5
f 302/2/5 296/2/5 301/2/5
f 303/2/5 300/2/5 299/2/5
f 304/2/5 300/2/5 303/2/5
f 309/2/5 306/2/5 305/2/5
f 310/2/5 306/2/5 309/2/5
f 313/2/5 308/2/5 307/2/5
f 314/2/5 308/2/5 313/2/5
f 315/2/5 312/2/5 311/2/5
f 316/2/5 312/2/5 315/2/5
f 317/1/6 318/1/6 320/1/6
f 320/1/6 318/1/6 321/1/6
f 319/1/6 320/1/6 323/1/6
f 321/1/6 322/1/6 323/1/6
f 320/1/6 321/1/6 323/1/6
f 323/1/6 322/1/6 324/1/6
f 324/1/6 322/1/6 325/1/6
f 325/1/6 322/1/6 326/1/6
f 324/1/6 325/1/6 327/1/6
f 327/1/6 325/1/6 328/1/6
f 329/2/6 330/2/6 333/2/6
f 333/2/6 330/2/6 334/2/6
f 331/2/6 332/2/6 337/2/6
f 337/2/6 332/2/6 338/2/6
f 335/2/6 336/2/6 339/2/6
f 339/2/6 336/2/6 340/2/6
f 341/2/6 342/2/6 345/2/6
f 345/2/6 342/2/6 346/2/6
f 343/2/6 344/2/6 349/2/6
f 349/2/6 344/2/6 350/2/6
f 347/2/6 348/2/6 351/2/6
f 351/2/6 348/2/6 352/2/6
f 353/1/6 354/1/6 356/1/6
f 356/1/6 354/1/6 357/1/6
f 355/1/6 356/1/6 360/1/6
f 360/1/6 356/1/6 361/1/6
f 357/1/6 358/1/6 362/1/6
f 362/1/6 358/1/6 363/1/6
f 359/1/6 360/1/6 365/1/6
f 365/1/6 360/1/6 366/1/6
f 363/1/6 364/1/6 369/1/6
f 369/1/6 364/1/6 370/1/6
f 366/1/6 367/1/6 371/1/6
f 371/1/6 367/1/6 372/1/6
f 368/1/6 369/1/6 373/1/6
f 373/1/6 369/1/6 374/1/6
f 372/1/6 373/1/6 375/1/6
f 375/1/6 373/1/6 376/1/6
