# MagicaVoxel @ Ephtracy

# group
o 

# material
mtllib wire_end0.mtl
usemtl palette

# normals
vn -1 0 0
vn 1 0 0
vn 0 0 1
vn 0 0 -1
vn 0 -1 0
vn 0 1 0

# texcoords
vt 0.306641 0.5
vt 0.923828 0.5
vt 0.955078 0.5
vt 0.994141 0.5

# verts
v -1.8 0 1.7
v -1.8 0 -1.8
v -1.8 0.1 1.7
v -1.8 0.1 -1.8
v -1.7 0 1.8
v -1.7 0 1.7
v -1.7 0.1 1.8
v -1.7 0.1 1.7
v -0.5 0 0.3
v -0.5 0 -0.3
v -0.5 0.1 0.3
v -0.5 0.1 -0.3
v -0.4 0 0.4
v -0.4 0 0.3
v -0.4 0 -0.3
v -0.4 0 -0.4
v -0.4 0.1 0.4
v -0.4 0.1 0.3
v -0.4 0.1 -0.3
v -0.4 0.1 -0.4
v -0.3 0 1.6
v -0.3 0 1.2
v -0.3 0 0.0999999
v -0.3 0 -0.1
v -0.3 0.1 1.6
v -0.3 0.1 1.2
v -0.3 0.1 0.0999999
v -0.3 0.1 -0.1
v -0.2 0 1.2
v -0.2 0 1.1
v -0.2 0 0.2
v -0.2 0 0.0999999
v -0.2 0 -0.1
v -0.2 0 -0.2
v -0.2 0.1 1.4
v -0.2 0.1 1.2
v -0.2 0.1 1.1
v -0.2 0.1 0.2
v -0.2 0.1 0.0999999
v -0.2 0.1 -0.1
v -0.2 0.1 -0.2
v -0.2 0.2 1.4
v -0.2 0.2 1.2
v -0.0999999 0 1.1
v -0.0999999 0 0.4
v -0.0999999 0 0.3
v -0.0999999 0 0.2
v -0.0999999 0 -0.2
v -0.0999999 0 -0.3
v -0.0999999 0 -0.4
v -0.0999999 0 -0.9
v -0.0999999 0 -1
v -0.0999999 0 -1.6
v -0.0999999 0 -1.8
v -0.0999999 0 -2
v -0.0999999 0.1 1.5
v -0.0999999 0.1 1.4
v -0.0999999 0.1 1.2
v -0.0999999 0.1 1.1
v -0.0999999 0.1 0.4
v -0.0999999 0.1 0.3
v -0.0999999 0.1 0.2
v -0.0999999 0.1 -0.2
v -0.0999999 0.1 -0.3
v -0.0999999 0.1 -0.4
v -0.0999999 0.1 -0.9
v -0.0999999 0.1 -1
v -0.0999999 0.1 -1.6
v -0.0999999 0.1 -1.8
v -0.0999999 0.1 -2
v -0.0999999 0.2 1.5
v -0.0999999 0.2 1.4
v -0.0999999 0.2 1.2
v -0.0999999 0.2 1.1
v -0.0999999 0.3 1.4
v -0.0999999 0.3 1.2
v 0.3 0 0.3
v 0.3 0 0.2
v 0.3 0 -0.2
v 0.3 0 -0.3
v 0.3 0.1 0.3
v 0.3 0.1 0.2
v 0.3 0.1 -0.2
v 0.3 0.1 -0.3
v 0.4 0 0.2
v 0.4 0 -0.2
v 0.4 0.1 0.2
v 0.4 0.1 -0.2
v 1.6 0 1.6
v 1.6 0 -1.6
v 1.6 0.1 1.6
v 1.6 0.1 -1.6
v -1.6 0 1.6
v -1.6 0 -1.6
v -1.6 0.1 1.6
v -1.6 0.1 -1.6
v -0.4 0 0.2
v -0.4 0 -0.2
v -0.4 0.1 0.2
v -0.4 0.1 -0.2
v -0.3 0 0.3
v -0.3 0 0.2
v -0.3 0 -0.2
v -0.3 0 -0.3
v -0.3 0.1 0.3
v -0.3 0.1 0.2
v -0.3 0.1 -0.2
v -0.3 0.1 -0.3
v 0.1 0 1.1
v 0.1 0 0.4
v 0.1 0 0.3
v 0.1 0 0.2
v 0.1 0 -0.2
v 0.1 0 -0.3
v 0.1 0 -0.4
v 0.1 0 -1.6
v 0.1 0 -1.8
v 0.1 0 -2
v 0.1 0.1 1.5
v 0.1 0.1 1.4
v 0.1 0.1 1.2
v 0.1 0.1 1.1
v 0.1 0.1 0.4
v 0.1 0.1 0.3
v 0.1 0.1 0.2
v 0.1 0.1 -0.2
v 0.1 0.1 -0.3
v 0.1 0.1 -0.4
v 0.1 0.1 -1.6
v 0.1 0.1 -1.8
v 0.1 0.1 -2
v 0.1 0.2 1.5
v 0.1 0.2 1.4
v 0.1 0.2 1.2
v 0.1 0.2 1.1
v 0.1 0.3 1.4
v 0.1 0.3 1.2
v 0.2 0 1.2
v 0.2 0 1.1
v 0.2 0 0.2
v 0.2 0 0.0999999
v 0.2 0 -0.1
v 0.2 0 -0.2
v 0.2 0.1 1.4
v 0.2 0.1 1.2
v 0.2 0.1 1.1
v 0.2 0.1 0.2
v 0.2 0.1 0.0999999
v 0.2 0.1 -0.1
v 0.2 0.1 -0.2
v 0.2 0.2 1.4
v 0.2 0.2 1.2
v 0.3 0 1.6
v 0.3 0 1.2
v 0.3 0 0.0999999
v 0.3 0 -0.1
v 0.3 0.1 1.6
v 0.3 0.1 1.2
v 0.3 0.1 0.0999999
v 0.3 0.1 -0.1
v 0.4 0 0.4
v 0.4 0 0.3
v 0.4 0 -0.3
v 0.4 0 -0.4
v 0.4 0.1 0.4
v 0.4 0.1 0.3
v 0.4 0.1 -0.3
v 0.4 0.1 -0.4
v 0.5 0 0.3
v 0.5 0 -0.3
v 0.5 0.1 0.3
v 0.5 0.1 -0.3
v 1.7 0 1.8
v 1.7 0 1.7
v 1.7 0 -1.7
v 1.7 0 -1.8
v 1.7 0.1 1.8
v 1.7 0.1 1.7
v 1.7 0.1 -1.7
v 1.7 0.1 -1.8
v 1.8 0 1.7
v 1.8 0 -1.7
v 1.8 0.1 1.7
v 1.8 0.1 -1.7
v -1.7 0 1.8
v -1.7 0.1 1.8
v 1.7 0 1.8
v 1.7 0.1 1.8
v -1.8 0 1.7
v -1.8 0.1 1.7
v -1.7 0 1.7
v -1.7 0.1 1.7
v 1.7 0 1.7
v 1.7 0.1 1.7
v 1.8 0 1.7
v 1.8 0.1 1.7
v -0.0999999 0.1 1.5
v -0.0999999 0.2 1.5
v 0.1 0.1 1.5
v 0.1 0.2 1.5
v -0.2 0.1 1.4
v -0.2 0.2 1.4
v -0.0999999 0.1 1.4
v -0.0999999 0.2 1.4
v -0.0999999 0.3 1.4
v 0.1 0.1 1.4
v 0.1 0.2 1.4
v 0.1 0.3 1.4
v 0.2 0.1 1.4
v 0.2 0.2 1.4
v -0.4 0 0.4
v -0.4 0.1 0.4
v -0.0999999 0 0.4
v -0.0999999 0.1 0.4
v 0.1 0 0.4
v 0.1 0.1 0.4
v 0.4 0 0.4
v 0.4 0.1 0.4
v -0.5 0 0.3
v -0.5 0.1 0.3
v -0.4 0 0.3
v -0.4 0.1 0.3
v 0.4 0 0.3
v 0.4 0.1 0.3
v 0.5 0 0.3
v 0.5 0.1 0.3
v -0.2 0 0.2
v -0.2 0.1 0.2
v -0.0999999 0 0.2
v -0.0999999 0.1 0.2
v 0.1 0 0.2
v 0.1 0.1 0.2
v 0.2 0 0.2
v 0.2 0.1 0.2
v -0.3 0 0.0999999
v -0.3 0.1 0.0999999
v -0.2 0 0.0999999
v -0.2 0.1 0.0999999
v 0.2 0 0.0999999
v 0.2 0.1 0.0999999
v 0.3 0 0.0999999
v 0.3 0.1 0.0999999
v -0.4 0 -0.2
v -0.4 0.1 -0.2
v -0.3 0 -0.2
v -0.3 0.1 -0.2
v 0.3 0 -0.2
v 0.3 0.1 -0.2
v 0.4 0 -0.2
v 0.4 0.1 -0.2
v -0.3 0 -0.3
v -0.3 0.1 -0.3
v -0.0999999 0 -0.3
v -0.0999999 0.1 -0.3
v 0.1 0 -0.3
v 0.1 0.1 -0.3
v 0.3 0 -0.3
v 0.3 0.1 -0.3
v -1.6 0 -1.6
v -1.6 0.1 -1.6
v -0.0999999 0 -1.6
v -0.0999999 0.1 -1.6
v 0.1 0 -1.6
v 0.1 0.1 -1.6
v 1.6 0 -1.6
v 1.6 0.1 -1.6
v -1.6 0 1.6
v -1.6 0.1 1.6
v -0.3 0 1.6
v -0.3 0.1 1.6
v 0.3 0 1.6
v 0.3 0.1 1.6
v 1.6 0 1.6
v 1.6 0.1 1.6
v -0.3 0 1.2
v -0.3 0.1 1.2
v -0.2 0 1.2
v -0.2 0.1 1.2
v -0.2 0.2 1.2
v -0.0999999 0.1 1.2
v -0.0999999 0.2 1.2
v -0.0999999 0.3 1.2
v 0.1 0.1 1.2
v 0.1 0.2 1.2
v 0.1 0.3 1.2
v 0.2 0 1.2
v 0.2 0.1 1.2
v 0.2 0.2 1.2
v 0.3 0 1.2
v 0.3 0.1 1.2
v -0.2 0 1.1
v -0.2 0.1 1.1
v -0.0999999 0 1.1
v -0.0999999 0.1 1.1
v -0.0999999 0.2 1.1
v 0.1 0 1.1
v 0.1 0.1 1.1
v 0.1 0.2 1.1
v 0.2 0 1.1
v 0.2 0.1 1.1
v -0.3 0 0.3
v -0.3 0.1 0.3
v -0.0999999 0 0.3
v -0.0999999 0.1 0.3
v 0.1 0 0.3
v 0.1 0.1 0.3
v 0.3 0 0.3
v 0.3 0.1 0.3
v -0.4 0 0.2
v -0.4 0.1 0.2
v -0.3 0 0.2
v -0.3 0.1 0.2
v 0.3 0 0.2
v 0.3 0.1 0.2
v 0.4 0 0.2
v 0.4 0.1 0.2
v -0.3 0 -0.1
v -0.3 0.1 -0.1
v -0.2 0 -0.1
v -0.2 0.1 -0.1
v 0.2 0 -0.1
v 0.2 0.1 -0.1
v 0.3 0 -0.1
v 0.3 0.1 -0.1
v -0.2 0 -0.2
v -0.2 0.1 -0.2
v -0.0999999 0 -0.2
v -0.0999999 0.1 -0.2
v 0.1 0 -0.2
v 0.1 0.1 -0.2
v 0.2 0 -0.2
v 0.2 0.1 -0.2
v -0.5 0 -0.3
v -0.5 0.1 -0.3
v -0.4 0 -0.3
v -0.4 0.1 -0.3
v 0.4 0 -0.3
v 0.4 0.1 -0.3
v 0.5 0 -0.3
v 0.5 0.1 -0.3
v -0.4 0 -0.4
v -0.4 0.1 -0.4
v -0.0999999 0 -0.4
v -0.0999999 0.1 -0.4
v 0.1 0 -0.4
v 0.1 0.1 -0.4
v 0.4 0 -0.4
v 0.4 0.1 -0.4
v 1.7 0 -1.7
v 1.7 0.1 -1.7
v 1.8 0 -1.7
v 1.8 0.1 -1.7
v -1.8 0 -1.8
v -1.8 0.1 -1.8
v -0.0999999 0 -1.8
v -0.0999999 0.1 -1.8
v 0.1 0 -1.8
v 0.1 0.1 -1.8
v 1.7 0 -1.8
v 1.7 0.1 -1.8
v -0.0999999 0 -2
v -0.0999999 0.1 -2
v 0.1 0 -2
v 0.1 0.1 -2
v -1.7 0 1.8
v 1.7 0 1.8
v -1.8 0 1.7
v -1.7 0 1.7
v 1.7 0 1.7
v 1.8 0 1.7
v -1.6 0 1.6
v -0.3 0 1.6
v 0.3 0 1.6
v 1.6 0 1.6
v -0.0999999 0 1.3
v 0.1 0 1.3
v -0.3 0 1.2
v -0.2 0 1.2
v -0.0999999 0 1.2
v 0.1 0 1.2
v 0.2 0 1.2
v 0.3 0 1.2
v -0.2 0 1.1
v -0.0999999 0 1.1
v 0.1 0 1.1
v 0.2 0 1.1
v -0.4 0 0.4
v -0.0999999 0 0.4
v 0.1 0 0.4
v 0.4 0 0.4
v -0.5 0 0.3
v -0.4 0 0.3
v -0.3 0 0.3
v -0.0999999 0 0.3
v 0.1 0 0.3
v 0.3 0 0.3
v 0.4 0 0.3
v 0.5 0 0.3
v -0.4 0 0.2
v -0.3 0 0.2
v -0.2 0 0.2
v -0.0999999 0 0.2
v 0.1 0 0.2
v 0.2 0 0.2
v 0.3 0 0.2
v 0.4 0 0.2
v -0.3 0 0.0999999
v -0.2 0 0.0999999
v 0.2 0 0.0999999
v 0.3 0 0.0999999
v -0.3 0 -0.1
v -0.2 0 -0.1
v 0.2 0 -0.1
v 0.3 0 -0.1
v -0.4 0 -0.2
v -0.3 0 -0.2
v -0.2 0 -0.2
v -0.0999999 0 -0.2
v 0.1 0 -0.2
v 0.2 0 -0.2
v 0.3 0 -0.2
v 0.4 0 -0.2
v -0.5 0 -0.3
v -0.4 0 -0.3
v -0.3 0 -0.3
v -0.0999999 0 -0.3
v 0.1 0 -0.3
v 0.3 0 -0.3
v 0.4 0 -0.3
v 0.5 0 -0.3
v -0.4 0 -0.4
v -0.0999999 0 -0.4
v 0.1 0 -0.4
v 0.4 0 -0.4
v -0.0999999 0 -0.9
v 0 0 -0.9
v -0.0999999 0 -1
v 0 0 -1
v -1.6 0 -1.6
v -0.0999999 0 -1.6
v 0.1 0 -1.6
v 1.6 0 -1.6
v 1.7 0 -1.7
v 1.8 0 -1.7
v -1.8 0 -1.8
v -0.0999999 0 -1.8
v 0.1 0 -1.8
v 1.7 0 -1.8
v -0.0999999 0 -2
v 0.1 0 -2
v -1.7 0.1 1.8
v 1.7 0.1 1.8
v -1.8 0.1 1.7
v -1.7 0.1 1.7
v 1.7 0.1 1.7
v 1.8 0.1 1.7
v -1.6 0.1 1.6
v -0.3 0.1 1.6
v 0.3 0.1 1.6
v 1.6 0.1 1.6
v -0.0999999 0.1 1.5
v 0.1 0.1 1.5
v -0.2 0.1 1.4
v -0.0999999 0.1 1.4
v 0.1 0.1 1.4
v 0.2 0.1 1.4
v -0.3 0.1 1.2
v -0.2 0.1 1.2
v -0.0999999 0.1 1.2
v 0.1 0.1 1.2
v 0.2 0.1 1.2
v 0.3 0.1 1.2
v -0.2 0.1 1.1
v -0.0999999 0.1 1.1
v 0.1 0.1 1.1
v 0.2 0.1 1.1
v -0.4 0.1 0.4
v -0.0999999 0.1 0.4
v 0.1 0.1 0.4
v 0.4 0.1 0.4
v -0.5 0.1 0.3
v -0.4 0.1 0.3
v -0.3 0.1 0.3
v -0.0999999 0.1 0.3
v 0.1 0.1 0.3
v 0.3 0.1 0.3
v 0.4 0.1 0.3
v 0.5 0.1 0.3
v -0.4 0.1 0.2
v -0.3 0.1 0.2
v -0.2 0.1 0.2
v -0.0999999 0.1 0.2
v 0.1 0.1 0.2
v 0.2 0.1 0.2
v 0.3 0.1 0.2
v 0.4 0.1 0.2
v -0.3 0.1 0.0999999
v -0.2 0.1 0.0999999
v 0.2 0.1 0.0999999
v 0.3 0.1 0.0999999
v -0.3 0.1 -0.1
v -0.2 0.1 -0.1
v 0.2 0.1 -0.1
v 0.3 0.1 -0.1
v -0.4 0.1 -0.2
v -0.3 0.1 -0.2
v -0.2 0.1 -0.2
v -0.0999999 0.1 -0.2
v 0.1 0.1 -0.2
v 0.2 0.1 -0.2
v 0.3 0.1 -0.2
v 0.4 0.1 -0.2
v -0.5 0.1 -0.3
v -0.4 0.1 -0.3
v -0.3 0.1 -0.3
v -0.0999999 0.1 -0.3
v 0.1 0.1 -0.3
v 0.3 0.1 -0.3
v 0.4 0.1 -0.3
v 0.5 0.1 -0.3
v -0.4 0.1 -0.4
v -0.0999999 0.1 -0.4
v 0.1 0.1 -0.4
v 0.4 0.1 -0.4
v -0.0999999 0.1 -0.9
v 0 0.1 -0.9
v -0.0999999 0.1 -1
v 0 0.1 -1
v -1.6 0.1 -1.6
v -0.0999999 0.1 -1.6
v 0.1 0.1 -1.6
v 1.6 0.1 -1.6
v 1.7 0.1 -1.7
v 1.8 0.1 -1.7
v -1.8 0.1 -1.8
v -0.0999999 0.1 -1.8
v 0.1 0.1 -1.8
v 1.7 0.1 -1.8
v -0.0999999 0.1 -2
v 0.1 0.1 -2
v -0.0999999 0.2 1.5
v 0.1 0.2 1.5
v -0.2 0.2 1.4
v -0.0999999 0.2 1.4
v 0.1 0.2 1.4
v 0.2 0.2 1.4
v -0.2 0.2 1.2
v -0.0999999 0.2 1.2
v 0.1 0.2 1.2
v 0.2 0.2 1.2
v -0.0999999 0.2 1.1
v 0.1 0.2 1.1
v -0.0999999 0.3 1.4
v 0.1 0.3 1.4
v -0.0999999 0.3 1.2
v 0.1 0.3 1.2

# faces
f 3/2/1 2/2/1 1/2/1
f 4/2/1 2/2/1 3/2/1
f 7/2/1 6/2/1 5/2/1
f 8/2/1 6/2/1 7/2/1
f 11/2/1 10/2/1 9/2/1
f 12/2/1 10/2/1 11/2/1
f 17/2/1 14/2/1 13/2/1
f 18/2/1 14/2/1 17/2/1
f 19/2/1 16/2/1 15/2/1
f 20/2/1 16/2/1 19/2/1
f 25/3/1 22/3/1 21/3/1
f 26/3/1 22/3/1 25/3/1
f 27/2/1 24/2/1 23/2/1
f 28/2/1 24/2/1 27/2/1
f 36/2/1 30/2/1 29/2/1
f 37/2/1 30/2/1 36/2/1
f 38/2/1 32/2/1 31/2/1
f 39/2/1 32/2/1 38/2/1
f 40/2/1 34/2/1 33/2/1
f 41/2/1 34/2/1 40/2/1
f 42/3/1 36/3/1 35/3/1
f 43/3/1 36/3/1 42/3/1
f 59/1/1 45/1/1 44/1/1
f 60/1/1 45/1/1 59/1/1
f 61/2/1 47/2/1 46/2/1
f 62/2/1 47/2/1 61/2/1
f 63/2/1 49/2/1 48/2/1
f 64/2/1 49/2/1 63/2/1
f 65/1/1 51/1/1 50/1/1
f 66/4/1 52/4/1 51/4/1
f 66/1/1 51/1/1 65/1/1
f 67/1/1 53/1/1 52/1/1
f 67/4/1 52/4/1 66/4/1
f 68/1/1 53/1/1 67/1/1
f 69/1/1 55/1/1 54/1/1
f 70/1/1 55/1/1 69/1/1
f 71/3/1 57/3/1 56/3/1
f 72/3/1 57/3/1 71/3/1
f 73/2/1 59/2/1 58/2/1
f 74/2/1 59/2/1 73/2/1
f 75/3/1 73/3/1 72/3/1
f 76/3/1 73/3/1 75/3/1
f 81/2/1 78/2/1 77/2/1
f 82/2/1 78/2/1 81/2/1
f 83/2/1 80/2/1 79/2/1
f 84/2/1 80/2/1 83/2/1
f 87/2/1 86/2/1 85/2/1
f 88/2/1 86/2/1 87/2/1
f 91/2/1 90/2/1 89/2/1
f 92/2/1 90/2/1 91/2/1
f 93/2/2 94/2/2 95/2/2
f 95/2/2 94/2/2 96/2/2
f 97/2/2 98/2/2 99/2/2
f 99/2/2 98/2/2 100/2/2
f 101/2/2 102/2/2 105/2/2
f 105/2/2 102/2/2 106/2/2
f 103/2/2 104/2/2 107/2/2
f 107/2/2 104/2/2 108/2/2
f 109/1/2 110/1/2 122/1/2
f 122/1/2 110/1/2 123/1/2
f 111/2/2 112/2/2 124/2/2
f 124/2/2 112/2/2 125/2/2
f 113/2/2 114/2/2 126/2/2
f 126/2/2 114/2/2 127/2/2
f 115/1/2 116/1/2 128/1/2
f 128/1/2 116/1/2 129/1/2
f 117/1/2 118/1/2 130/1/2
f 130/1/2 118/1/2 131/1/2
f 119/3/2 120/3/2 132/3/2
f 132/3/2 120/3/2 133/3/2
f 121/2/2 122/2/2 134/2/2
f 134/2/2 122/2/2 135/2/2
f 133/3/2 134/3/2 136/3/2
f 136/3/2 134/3/2 137/3/2
f 138/2/2 139/2/2 145/2/2
f 145/2/2 139/2/2 146/2/2
f 140/2/2 141/2/2 147/2/2
f 147/2/2 141/2/2 148/2/2
f 142/2/2 143/2/2 149/2/2
f 149/2/2 143/2/2 150/2/2
f 144/3/2 145/3/2 151/3/2
f 151/3/2 145/3/2 152/3/2
f 153/3/2 154/3/2 157/3/2
f 157/3/2 154/3/2 158/3/2
f 155/2/2 156/2/2 159/2/2
f 159/2/2 156/2/2 160/2/2
f 161/2/2 162/2/2 165/2/2
f 165/2/2 162/2/2 166/2/2
f 163/2/2 164/2/2 167/2/2
f 167/2/2 164/2/2 168/2/2
f 169/2/2 170/2/2 171/2/2
f 171/2/2 170/2/2 172/2/2
f 173/2/2 174/2/2 177/2/2
f 177/2/2 174/2/2 178/2/2
f 175/2/2 176/2/2 179/2/2
f 179/2/2 176/2/2 180/2/2
f 181/2/2 182/2/2 183/2/2
f 183/2/2 182/2/2 184/2/2
f 187/2/3 186/2/3 185/2/3
f 188/2/3 186/2/3 187/2/3
f 191/2/3 190/2/3 189/2/3
f 192/2/3 190/2/3 191/2/3
f 195/2/3 194/2/3 193/2/3
f 196/2/3 194/2/3 195/2/3
f 199/3/3 198/3/3 197/3/3
f 200/3/3 198/3/3 199/3/3
f 203/3/3 202/3/3 201/3/3
f 204/3/3 202/3/3 203/3/3
f 207/3/3 205/3/3 204/3/3
f 208/3/3 205/3/3 207/3/3
f 209/3/3 207/3/3 206/3/3
f 210/3/3 207/3/3 209/3/3
f 213/2/3 212/2/3 211/2/3
f 214/2/3 212/2/3 213/2/3
f 217/2/3 216/2/3 215/2/3
f 218/2/3 216/2/3 217/2/3
f 221/2/3 220/2/3 219/2/3
f 222/2/3 220/2/3 221/2/3
f 225/2/3 224/2/3 223/2/3
f 226/2/3 224/2/3 225/2/3
f 229/2/3 228/2/3 227/2/3
f 230/2/3 228/2/3 229/2/3
f 233/2/3 232/2/3 231/2/3
f 234/2/3 232/2/3 233/2/3
f 237/2/3 236/2/3 235/2/3
f 238/2/3 236/2/3 237/2/3
f 241/2/3 240/2/3 239/2/3
f 242/2/3 240/2/3 241/2/3
f 245/2/3 244/2/3 243/2/3
f 246/2/3 244/2/3 245/2/3
f 249/2/3 248/2/3 247/2/3
f 250/2/3 248/2/3 249/2/3
f 253/2/3 252/2/3 251/2/3
f 254/2/3 252/2/3 253/2/3
f 257/2/3 256/2/3 255/2/3
f 258/2/3 256/2/3 257/2/3
f 261/2/3 260/2/3 259/2/3
f 262/2/3 260/2/3 261/2/3
f 265/2/3 264/2/3 263/2/3
f 266/2/3 264/2/3 265/2/3
f 267/2/4 268/2/4 269/2/4
f 269/2/4 268/2/4 270/2/4
f 271/2/4 272/2/4 273/2/4
f 273/2/4 272/2/4 274/2/4
f 275/3/4 276/3/4 277/3/4
f 277/3/4 276/3/4 278/3/4
f 278/3/4 279/3/4 280/3/4
f 280/3/4 279/3/4 281/3/4
f 281/3/4 282/3/4 284/3/4
f 284/3/4 282/3/4 285/3/4
f 283/3/4 284/3/4 287/3/4
f 287/3/4 284/3/4 288/3/4
f 286/3/4 287/3/4 289/3/4
f 289/3/4 287/3/4 290/3/4
f 291/2/4 292/2/4 293/2/4
f 293/2/4 292/2/4 294/2/4
f 294/2/4 295/2/4 297/2/4
f 297/2/4 295/2/4 298/2/4
f 296/2/4 297/2/4 299/2/4
f 299/2/4 297/2/4 300/2/4
f 301/2/4 302/2/4 303/2/4
f 303/2/4 302/2/4 304/2/4
f 305/2/4 306/2/4 307/2/4
f 307/2/4 306/2/4 308/2/4
f 309/2/4 310/2/4 311/2/4
f 311/2/4 310/2/4 312/2/4
f 313/2/4 314/2/4 315/2/4
f 315/2/4 314/2/4 316/2/4
f 317/2/4 318/2/4 319/2/4
f 319/2/4 318/2/4 320/2/4
f 321/2/4 322/2/4 323/2/4
f 323/2/4 322/2/4 324/2/4
f 325/2/4 326/2/4 327/2/4
f 327/2/4 326/2/4 328/2/4
f 329/2/4 330/2/4 331/2/4
f 331/2/4 330/2/4 332/2/4
f 333/2/4 334/2/4 335/2/4
f 335/2/4 334/2/4 336/2/4
f 337/2/4 338/2/4 339/2/4
f 339/2/4 338/2/4 340/2/4
f 341/2/4 342/2/4 343/2/4
f 343/2/4 342/2/4 344/2/4
f 345/2/4 346/2/4 347/2/4
f 347/2/4 346/2/4 348/2/4
f 349/2/4 350/2/4 351/2/4
f 351/2/4 350/2/4 352/2/4
f 353/2/4 354/2/4 355/2/4
f 355/2/4 354/2/4 356/2/4
f 357/2/4 358/2/4 359/2/4
f 359/2/4 358/2/4 360/2/4
f 361/1/4 362/1/4 363/1/4
f 363/1/4 362/1/4 364/1/4
f 368/2/5 366/2/5 365/2/5
f 369/2/5 366/2/5 368/2/5
f 371/2/5 368/2/5 367/2/5
f 371/2/5 370/2/5 369/2/5
f 371/2/5 369/2/5 368/2/5
f 372/2/5 370/2/5 371/2/5
f 373/2/5 370/2/5 372/2/5
f 374/2/5 370/2/5 373/2/5
f 375/3/5 373/3/5 372/3/5
f 376/3/5 373/3/5 375/3/5
f 377/3/5 375/3/5 372/3/5
f 378/3/5 375/3/5 377/3/5
f 379/1/5 376/1/5 375/1/5
f 379/3/5 375/3/5 378/3/5
f 380/3/5 373/3/5 376/3/5
f 380/1/5 376/1/5 379/1/5
f 381/3/5 373/3/5 380/3/5
f 382/3/5 373/3/5 381/3/5
f 383/2/5 379/2/5 378/2/5
f 384/1/5 380/1/5 379/1/5
f 384/2/5 379/2/5 383/2/5
f 385/2/5 381/2/5 380/2/5
f 385/1/5 380/1/5 384/1/5
f 386/2/5 381/2/5 385/2/5
f 388/1/5 385/1/5 384/1/5
f 389/1/5 385/1/5 388/1/5
f 392/2/5 388/2/5 387/2/5
f 393/2/5 388/2/5 392/2/5
f 394/1/5 389/1/5 388/1/5
f 394/2/5 388/2/5 393/2/5
f 395/2/5 390/2/5 389/2/5
f 395/1/5 389/1/5 394/1/5
f 396/2/5 390/2/5 395/2/5
f 397/2/5 390/2/5 396/2/5
f 399/2/5 393/2/5 392/2/5
f 399/2/5 392/2/5 391/2/5
f 400/2/5 393/2/5 399/2/5
f 402/2/5 395/2/5 394/2/5
f 403/2/5 395/2/5 402/2/5
f 405/2/5 398/2/5 397/2/5
f 405/2/5 397/2/5 396/2/5
f 406/2/5 398/2/5 405/2/5
f 408/2/5 404/2/5 403/2/5
f 408/2/5 403/2/5 402/2/5
f 408/2/5 402/2/5 401/2/5
f 409/2/5 404/2/5 408/2/5
f 411/2/5 408/2/5 407/2/5
f 411/2/5 410/2/5 409/2/5
f 411/2/5 409/2/5 408/2/5
f 412/2/5 410/2/5 411/2/5
f 413/2/5 410/2/5 412/2/5
f 414/2/5 410/2/5 413/2/5
f 415/2/5 399/2/5 391/2/5
f 417/2/5 413/2/5 412/2/5
f 418/2/5 413/2/5 417/2/5
f 419/2/5 413/2/5 418/2/5
f 420/2/5 413/2/5 419/2/5
f 422/2/5 398/2/5 406/2/5
f 423/2/5 416/2/5 415/2/5
f 423/2/5 415/2/5 391/2/5
f 424/2/5 416/2/5 423/2/5
f 425/2/5 416/2/5 424/2/5
f 426/2/5 419/2/5 418/2/5
f 427/2/5 419/2/5 426/2/5
f 428/2/5 422/2/5 421/2/5
f 429/2/5 398/2/5 422/2/5
f 429/2/5 422/2/5 428/2/5
f 430/2/5 398/2/5 429/2/5
f 431/2/5 425/2/5 424/2/5
f 431/2/5 426/2/5 425/2/5
f 432/1/5 427/1/5 426/1/5
f 432/2/5 426/2/5 431/2/5
f 433/2/5 428/2/5 427/2/5
f 433/1/5 427/1/5 432/1/5
f 433/2/5 429/2/5 428/2/5
f 434/2/5 429/2/5 433/2/5
f 435/1/5 433/1/5 432/1/5
f 436/1/5 433/1/5 435/1/5
f 437/4/5 436/4/5 435/4/5
f 438/1/5 433/1/5 436/1/5
f 438/4/5 436/4/5 437/4/5
f 439/2/5 371/2/5 367/2/5
f 440/1/5 438/1/5 437/1/5
f 441/1/5 433/1/5 438/1/5
f 441/1/5 438/1/5 440/1/5
f 442/2/5 370/2/5 374/2/5
f 443/2/5 370/2/5 442/2/5
f 443/2/5 442/2/5 441/2/5
f 444/2/5 370/2/5 443/2/5
f 445/2/5 440/2/5 439/2/5
f 445/2/5 439/2/5 367/2/5
f 446/1/5 441/1/5 440/1/5
f 446/2/5 440/2/5 445/2/5
f 447/2/5 443/2/5 441/2/5
f 447/1/5 441/1/5 446/1/5
f 448/2/5 443/2/5 447/2/5
f 449/1/5 447/1/5 446/1/5
f 450/1/5 447/1/5 449/1/5
f 451/2/6 452/2/6 454/2/6
f 454/2/6 452/2/6 455/2/6
f 453/2/6 454/2/6 457/2/6
f 455/2/6 456/2/6 457/2/6
f 454/2/6 455/2/6 457/2/6
f 457/2/6 456/2/6 458/2/6
f 458/2/6 456/2/6 459/2/6
f 459/2/6 456/2/6 460/2/6
f 458/3/6 459/3/6 461/3/6
f 461/3/6 459/3/6 462/3/6
f 458/3/6 461/3/6 463/3/6
f 463/3/6 461/3/6 464/3/6
f 462/3/6 459/3/6 465/3/6
f 465/3/6 459/3/6 466/3/6
f 458/3/6 463/3/6 467/3/6
f 467/3/6 463/3/6 468/3/6
f 466/3/6 459/3/6 471/3/6
f 471/3/6 459/3/6 472/3/6
f 468/2/6 469/2/6 473/2/6
f 473/2/6 469/2/6 474/2/6
f 470/2/6 471/2/6 475/2/6
f 475/2/6 471/2/6 476/2/6
f 474/1/6 475/1/6 478/1/6
f 478/1/6 475/1/6 479/1/6
f 477/2/6 478/2/6 482/2/6
f 482/2/6 478/2/6 483/2/6
f 478/1/6 479/1/6 484/1/6
f 483/2/6 478/2/6 484/2/6
f 479/2/6 480/2/6 485/2/6
f 484/1/6 479/1/6 485/1/6
f 485/2/6 480/2/6 486/2/6
f 486/2/6 480/2/6 487/2/6
f 482/2/6 483/2/6 489/2/6
f 481/2/6 482/2/6 489/2/6
f 489/2/6 483/2/6 490/2/6
f 484/2/6 485/2/6 492/2/6
f 492/2/6 485/2/6 493/2/6
f 487/2/6 488/2/6 495/2/6
f 486/2/6 487/2/6 495/2/6
f 495/2/6 488/2/6 496/2/6
f 493/2/6 494/2/6 498/2/6
f 492/2/6 493/2/6 498/2/6
f 491/2/6 492/2/6 498/2/6
f 498/2/6 494/2/6 499/2/6
f 497/2/6 498/2/6 501/2/6
f 499/2/6 500/2/6 501/2/6
f 498/2/6 499/2/6 501/2/6
f 501/2/6 500/2/6 502/2/6
f 502/2/6 500/2/6 503/2/6
f 503/2/6 500/2/6 504/2/6
f 481/2/6 489/2/6 505/2/6
f 502/2/6 503/2/6 507/2/6
f 507/2/6 503/2/6 508/2/6
f 508/2/6 503/2/6 509/2/6
f 509/2/6 503/2/6 510/2/6
f 496/2/6 488/2/6 512/2/6
f 505/2/6 506/2/6 513/2/6
f 481/2/6 505/2/6 513/2/6
f 513/2/6 506/2/6 514/2/6
f 514/2/6 506/2/6 515/2/6
f 508/2/6 509/2/6 516/2/6
f 516/2/6 509/2/6 517/2/6
f 511/2/6 512/2/6 518/2/6
f 512/2/6 488/2/6 519/2/6
f 518/2/6 512/2/6 519/2/6
f 519/2/6 488/2/6 520/2/6
f 514/2/6 515/2/6 521/2/6
f 515/2/6 516/2/6 521/2/6
f 516/1/6 517/1/6 522/1/6
f 521/2/6 516/2/6 522/2/6
f 517/2/6 518/2/6 523/2/6
f 522/1/6 517/1/6 523/1/6
f 518/2/6 519/2/6 523/2/6
f 523/2/6 519/2/6 524/2/6
f 522/1/6 523/1/6 525/1/6
f 525/1/6 523/1/6 526/1/6
f 525/4/6 526/4/6 527/4/6
f 526/1/6 523/1/6 528/1/6
f 527/4/6 526/4/6 528/4/6
f 453/2/6 457/2/6 529/2/6
f 527/1/6 528/1/6 530/1/6
f 528/1/6 523/1/6 531/1/6
f 530/1/6 528/1/6 531/1/6
f 460/2/6 456/2/6 532/2/6
f 532/2/6 456/2/6 533/2/6
f 531/2/6 532/2/6 533/2/6
f 533/2/6 456/2/6 534/2/6
f 529/2/6 530/2/6 535/2/6
f 453/2/6 529/2/6 535/2/6
f 530/1/6 531/1/6 536/1/6
f 535/2/6 530/2/6 536/2/6
f 531/2/6 533/2/6 537/2/6
f 536/1/6 531/1/6 537/1/6
f 537/2/6 533/2/6 538/2/6
f 536/1/6 537/1/6 539/1/6
f 539/1/6 537/1/6 540/1/6
f 541/3/6 542/3/6 544/3/6
f 544/3/6 542/3/6 545/3/6
f 543/3/6 544/3/6 547/3/6
f 547/3/6 544/3/6 548/3/6
f 545/3/6 546/3/6 549/3/6
f 549/3/6 546/3/6 550/3/6
f 548/2/6 549/2/6 551/2/6
f 551/2/6 549/2/6 552/2/6
f 553/3/6 554/3/6 555/3/6
f 555/3/6 554/3/6 556/3/6
