# MagicaVoxel @ Ephtracy

# group
o 

# material
mtllib Right_door.mtl
usemtl palette

# normals
vn -1 0 0
vn 1 0 0
vn 0 0 1
vn 0 0 -1
vn 0 -1 0
vn 0 1 0

# texcoords
vt 0.787109 0.5
vt 0.947266 0.5

# verts
v 1.8 0.1 -0.9
v 1.8 0.1 -1
v 1.8 0.1 -1.8
v 1.8 0.1 -1.9
v 1.8 2.8 -1
v 1.8 2.8 -1.8
v 1.8 2.9 -0.9
v 1.8 2.9 -1.9
v 1.9 0.1 -0.9
v 1.9 0.1 -1
v 1.9 0.1 -1.8
v 1.9 0.1 -1.9
v 1.9 2.8 -1
v 1.9 2.8 -1.8
v 1.9 2.9 -0.9
v 1.9 2.9 -1.9
v 1.8 0.1 -0.9
v 1.8 2.9 -0.9
v 1.9 0.1 -0.9
v 1.9 2.9 -0.9
v 1.8 0.1 -1.9
v 1.8 2.9 -1.9
v 1.9 0.1 -1.9
v 1.9 2.9 -1.9
v 1.8 0.1 -0.9
v 1.9 0.1 -0.9
v 1.8 0.1 -1
v 1.9 0.1 -1
v 1.8 0.1 -1.8
v 1.9 0.1 -1.8
v 1.8 0.1 -1.9
v 1.9 0.1 -1.9
v 1.8 2.9 -0.9
v 1.9 2.9 -0.9
v 1.8 2.9 -1.9
v 1.9 2.9 -1.9

# faces
f 5/1/1 2/1/1 1/1/1
f 5/2/1 3/2/1 2/2/1
f 6/1/1 4/1/1 3/1/1
f 6/2/1 3/2/1 5/2/1
f 7/1/1 5/1/1 1/1/1
f 7/1/1 6/1/1 5/1/1
f 8/1/1 4/1/1 6/1/1
f 8/1/1 6/1/1 7/1/1
f 9/1/2 10/1/2 13/1/2
f 10/2/2 11/2/2 13/2/2
f 11/1/2 12/1/2 14/1/2
f 13/2/2 11/2/2 14/2/2
f 9/1/2 13/1/2 15/1/2
f 13/1/2 14/1/2 15/1/2
f 14/1/2 12/1/2 16/1/2
f 15/1/2 14/1/2 16/1/2
f 19/1/3 18/1/3 17/1/3
f 20/1/3 18/1/3 19/1/3
f 21/1/4 22/1/4 23/1/4
f 23/1/4 22/1/4 24/1/4
f 27/1/5 26/1/5 25/1/5
f 28/1/5 26/1/5 27/1/5
f 29/2/5 28/2/5 27/2/5
f 30/2/5 28/2/5 29/2/5
f 31/1/5 30/1/5 29/1/5
f 32/1/5 30/1/5 31/1/5
f 33/1/6 34/1/6 35/1/6
f 35/1/6 34/1/6 36/1/6
