# MagicaVoxel @ Ephtracy

# group
o 

# material
mtllib Door_for_wall_open_Ver2.1.mtl
usemtl palette

# normals
vn -1 0 0
vn 1 0 0
vn 0 0 1
vn 0 0 -1
vn 0 -1 0
vn 0 1 0

# texcoords
vt 0.783203 0.5
vt 0.787109 0.5

# verts
v 0.9 0.1 1.1
v 0.9 0.1 1
v 0.9 0.1 -0.9
v 0.9 0.1 -1
v 0.9 2.9 1.1
v 0.9 2.9 1
v 0.9 2.9 -0.9
v 0.9 2.9 -1
v 1.1 1.4 1.3
v 1.1 1.4 1.1
v 1.1 1.4 1
v 1.1 1.4 0.8
v 1.1 1.4 -0.7
v 1.1 1.4 -0.9
v 1.1 1.4 -1
v 1.1 1.4 -1.2
v 1.1 1.5 1.2
v 1.1 1.5 1.1
v 1.1 1.5 1
v 1.1 1.5 0.9
v 1.1 1.5 -0.8
v 1.1 1.5 -0.9
v 1.1 1.5 -1
v 1.1 1.5 -1.1
v 1.1 1.7 1.2
v 1.1 1.7 1.1
v 1.1 1.7 1
v 1.1 1.7 0.9
v 1.1 1.7 -0.8
v 1.1 1.7 -0.9
v 1.1 1.7 -1
v 1.1 1.7 -1.1
v 1.1 1.8 1.3
v 1.1 1.8 1.1
v 1.1 1.8 1
v 1.1 1.8 0.8
v 1.1 1.8 -0.7
v 1.1 1.8 -0.9
v 1.1 1.8 -1
v 1.1 1.8 -1.2
v 1.9 2.8 1
v 1.9 2.8 -0.9
v 1.9 2.9 1
v 1.9 2.9 -0.9
v 1.2 1.4 1.3
v 1.2 1.4 1.1
v 1.2 1.4 1
v 1.2 1.4 0.8
v 1.2 1.4 -0.7
v 1.2 1.4 -0.9
v 1.2 1.4 -1
v 1.2 1.4 -1.2
v 1.2 1.5 1.2
v 1.2 1.5 1.1
v 1.2 1.5 1
v 1.2 1.5 0.9
v 1.2 1.5 -0.8
v 1.2 1.5 -0.9
v 1.2 1.5 -1
v 1.2 1.5 -1.1
v 1.2 1.7 1.2
v 1.2 1.7 1.1
v 1.2 1.7 1
v 1.2 1.7 0.9
v 1.2 1.7 -0.8
v 1.2 1.7 -0.9
v 1.2 1.7 -1
v 1.2 1.7 -1.1
v 1.2 1.8 1.3
v 1.2 1.8 1.1
v 1.2 1.8 1
v 1.2 1.8 0.8
v 1.2 1.8 -0.7
v 1.2 1.8 -0.9
v 1.2 1.8 -1
v 1.2 1.8 -1.2
v 2 0.1 1.1
v 2 0.1 1
v 2 0.1 -0.9
v 2 0.1 -1
v 2 2.8 1
v 2 2.8 -0.9
v 2 2.9 1.1
v 2 2.9 -1
v 1.1 1.4 1.3
v 1.1 1.8 1.3
v 1.2 1.4 1.3
v 1.2 1.8 1.3
v 0.9 0.1 1.1
v 0.9 2.9 1.1
v 1 0.1 1.1
v 1 2.8 1.1
v 1.1 1.4 1.1
v 1.1 1.5 1.1
v 1.1 1.7 1.1
v 1.1 1.8 1.1
v 1.2 1.4 1.1
v 1.2 1.5 1.1
v 1.2 1.7 1.1
v 1.2 1.8 1.1
v 1.9 0.1 1.1
v 1.9 2.8 1.1
v 2 0.1 1.1
v 2 2.9 1.1
v 1.1 1.5 0.9
v 1.1 1.7 0.9
v 1.2 1.5 0.9
v 1.2 1.7 0.9
v 1.1 1.4 -0.7
v 1.1 1.8 -0.7
v 1.2 1.4 -0.7
v 1.2 1.8 -0.7
v 0.9 0.1 -0.9
v 0.9 2.9 -0.9
v 1 0.1 -0.9
v 1 2.8 -0.9
v 1.1 1.4 -0.9
v 1.1 1.5 -0.9
v 1.1 1.7 -0.9
v 1.1 1.8 -0.9
v 1.2 1.4 -0.9
v 1.2 1.5 -0.9
v 1.2 1.7 -0.9
v 1.2 1.8 -0.9
v 1.9 0.1 -0.9
v 1.9 2.8 -0.9
v 1.9 2.9 -0.9
v 2 0.1 -0.9
v 2 2.8 -0.9
v 1.1 1.5 -1.1
v 1.1 1.7 -1.1
v 1.2 1.5 -1.1
v 1.2 1.7 -1.1
v 1.1 1.5 1.2
v 1.1 1.7 1.2
v 1.2 1.5 1.2
v 1.2 1.7 1.2
v 0.9 0.1 1
v 0.9 2.9 1
v 1 0.1 1
v 1 2.8 1
v 1.1 1.4 1
v 1.1 1.5 1
v 1.1 1.7 1
v 1.1 1.8 1
v 1.2 1.4 1
v 1.2 1.5 1
v 1.2 1.7 1
v 1.2 1.8 1
v 1.9 0.1 1
v 1.9 2.8 1
v 1.9 2.9 1
v 2 0.1 1
v 2 2.8 1
v 1.1 1.4 0.8
v 1.1 1.8 0.8
v 1.2 1.4 0.8
v 1.2 1.8 0.8
v 1.1 1.5 -0.8
v 1.1 1.7 -0.8
v 1.2 1.5 -0.8
v 1.2 1.7 -0.8
v 0.9 0.1 -1
v 0.9 2.9 -1
v 1 0.1 -1
v 1 2.8 -1
v 1.1 1.4 -1
v 1.1 1.5 -1
v 1.1 1.7 -1
v 1.1 1.8 -1
v 1.2 1.4 -1
v 1.2 1.5 -1
v 1.2 1.7 -1
v 1.2 1.8 -1
v 1.9 0.1 -1
v 1.9 2.8 -1
v 2 0.1 -1
v 2 2.9 -1
v 1.1 1.4 -1.2
v 1.1 1.8 -1.2
v 1.2 1.4 -1.2
v 1.2 1.8 -1.2
v 0.9 0.1 1.1
v 1 0.1 1.1
v 1.9 0.1 1.1
v 2 0.1 1.1
v 0.9 0.1 1
v 1 0.1 1
v 1.9 0.1 1
v 2 0.1 1
v 0.9 0.1 -0.9
v 1 0.1 -0.9
v 1.9 0.1 -0.9
v 2 0.1 -0.9
v 0.9 0.1 -1
v 1 0.1 -1
v 1.9 0.1 -1
v 2 0.1 -1
v 1.1 1.4 1.3
v 1.2 1.4 1.3
v 1.1 1.4 1.1
v 1.2 1.4 1.1
v 1.1 1.4 1
v 1.2 1.4 1
v 1.1 1.4 0.8
v 1.2 1.4 0.8
v 1.1 1.4 -0.7
v 1.2 1.4 -0.7
v 1.1 1.4 -0.9
v 1.2 1.4 -0.9
v 1.1 1.4 -1
v 1.2 1.4 -1
v 1.1 1.4 -1.2
v 1.2 1.4 -1.2
v 1.1 1.7 1.2
v 1.2 1.7 1.2
v 1.1 1.7 1.1
v 1.2 1.7 1.1
v 1.1 1.7 1
v 1.2 1.7 1
v 1.1 1.7 0.9
v 1.2 1.7 0.9
v 1.1 1.7 -0.8
v 1.2 1.7 -0.8
v 1.1 1.7 -0.9
v 1.2 1.7 -0.9
v 1.1 1.7 -1
v 1.2 1.7 -1
v 1.1 1.7 -1.1
v 1.2 1.7 -1.1
v 1.9 2.8 1
v 2 2.8 1
v 1.9 2.8 -0.9
v 2 2.8 -0.9
v 1.1 1.5 1.2
v 1.2 1.5 1.2
v 1.1 1.5 1.1
v 1.2 1.5 1.1
v 1.1 1.5 1
v 1.2 1.5 1
v 1.1 1.5 0.9
v 1.2 1.5 0.9
v 1.1 1.5 -0.8
v 1.2 1.5 -0.8
v 1.1 1.5 -0.9
v 1.2 1.5 -0.9
v 1.1 1.5 -1
v 1.2 1.5 -1
v 1.1 1.5 -1.1
v 1.2 1.5 -1.1
v 1.1 1.8 1.3
v 1.2 1.8 1.3
v 1.1 1.8 1.1
v 1.2 1.8 1.1
v 1.1 1.8 1
v 1.2 1.8 1
v 1.1 1.8 0.8
v 1.2 1.8 0.8
v 1.1 1.8 -0.7
v 1.2 1.8 -0.7
v 1.1 1.8 -0.9
v 1.2 1.8 -0.9
v 1.1 1.8 -1
v 1.2 1.8 -1
v 1.1 1.8 -1.2
v 1.2 1.8 -1.2
v 0.9 2.9 1.1
v 2 2.9 1.1
v 0.9 2.9 1
v 1.9 2.9 1
v 0.9 2.9 -0.9
v 1.9 2.9 -0.9
v 0.9 2.9 -1
v 2 2.9 -1

# faces
f 5/2/1 2/2/1 1/2/1
f 6/2/1 2/2/1 5/2/1
f 7/2/1 4/2/1 3/2/1
f 8/2/1 4/2/1 7/2/1
f 17/2/1 10/2/1 9/2/1
f 18/2/1 10/2/1 17/2/1
f 19/2/1 12/2/1 11/2/1
f 20/2/1 12/2/1 19/2/1
f 21/2/1 14/2/1 13/2/1
f 22/2/1 14/2/1 21/2/1
f 23/2/1 16/2/1 15/2/1
f 24/2/1 16/2/1 23/2/1
f 25/2/1 17/2/1 9/2/1
f 28/2/1 12/2/1 20/2/1
f 29/2/1 21/2/1 13/2/1
f 32/2/1 16/2/1 24/2/1
f 33/2/1 26/2/1 25/2/1
f 33/2/1 25/2/1 9/2/1
f 34/2/1 26/2/1 33/2/1
f 35/2/1 28/2/1 27/2/1
f 36/2/1 12/2/1 28/2/1
f 36/2/1 28/2/1 35/2/1
f 37/2/1 30/2/1 29/2/1
f 37/2/1 29/2/1 13/2/1
f 38/2/1 30/2/1 37/2/1
f 39/2/1 32/2/1 31/2/1
f 40/2/1 16/2/1 32/2/1
f 40/2/1 32/2/1 39/2/1
f 43/2/1 42/2/1 41/2/1
f 44/2/1 42/2/1 43/2/1
f 45/2/2 46/2/2 53/2/2
f 53/2/2 46/2/2 54/2/2
f 47/2/2 48/2/2 55/2/2
f 55/2/2 48/2/2 56/2/2
f 49/2/2 50/2/2 57/2/2
f 57/2/2 50/2/2 58/2/2
f 51/2/2 52/2/2 59/2/2
f 59/2/2 52/2/2 60/2/2
f 45/2/2 53/2/2 61/2/2
f 56/2/2 48/2/2 64/2/2
f 49/2/2 57/2/2 65/2/2
f 60/2/2 52/2/2 68/2/2
f 61/2/2 62/2/2 69/2/2
f 45/2/2 61/2/2 69/2/2
f 69/2/2 62/2/2 70/2/2
f 63/2/2 64/2/2 71/2/2
f 64/2/2 48/2/2 72/2/2
f 71/2/2 64/2/2 72/2/2
f 65/2/2 66/2/2 73/2/2
f 49/2/2 65/2/2 73/2/2
f 73/2/2 66/2/2 74/2/2
f 67/2/2 68/2/2 75/2/2
f 68/2/2 52/2/2 76/2/2
f 75/2/2 68/2/2 76/2/2
f 77/2/2 78/2/2 81/2/2
f 79/2/2 80/2/2 82/2/2
f 77/2/2 81/2/2 83/2/2
f 81/2/2 82/2/2 83/2/2
f 82/2/2 80/2/2 84/2/2
f 83/2/2 82/2/2 84/2/2
f 87/2/3 86/2/3 85/2/3
f 88/2/3 86/2/3 87/2/3
f 91/2/3 90/2/3 89/2/3
f 92/2/3 90/2/3 91/2/3
f 93/1/3 92/1/3 91/1/3
f 94/1/3 92/1/3 93/1/3
f 95/1/3 92/1/3 94/1/3
f 96/1/3 92/1/3 95/1/3
f 97/1/3 93/1/3 91/1/3
f 98/1/3 95/1/3 94/1/3
f 99/1/3 95/1/3 98/1/3
f 100/1/3 92/1/3 96/1/3
f 101/1/3 99/1/3 98/1/3
f 101/1/3 100/1/3 99/1/3
f 101/1/3 97/1/3 91/1/3
f 101/1/3 98/1/3 97/1/3
f 102/2/3 90/2/3 92/2/3
f 102/1/3 100/1/3 101/1/3
f 102/1/3 92/1/3 100/1/3
f 103/2/3 102/2/3 101/2/3
f 104/2/3 90/2/3 102/2/3
f 104/2/3 102/2/3 103/2/3
f 107/2/3 106/2/3 105/2/3
f 108/2/3 106/2/3 107/2/3
f 111/2/3 110/2/3 109/2/3
f 112/2/3 110/2/3 111/2/3
f 115/2/3 114/2/3 113/2/3
f 116/2/3 114/2/3 115/2/3
f 117/1/3 116/1/3 115/1/3
f 118/1/3 116/1/3 117/1/3
f 119/1/3 116/1/3 118/1/3
f 120/1/3 116/1/3 119/1/3
f 121/1/3 117/1/3 115/1/3
f 122/1/3 119/1/3 118/1/3
f 123/1/3 119/1/3 122/1/3
f 124/1/3 116/1/3 120/1/3
f 125/1/3 123/1/3 122/1/3
f 125/1/3 124/1/3 123/1/3
f 125/1/3 121/1/3 115/1/3
f 125/1/3 122/1/3 121/1/3
f 126/2/3 114/2/3 116/2/3
f 126/1/3 124/1/3 125/1/3
f 126/1/3 116/1/3 124/1/3
f 127/2/3 114/2/3 126/2/3
f 128/2/3 126/2/3 125/2/3
f 129/2/3 126/2/3 128/2/3
f 132/2/3 131/2/3 130/2/3
f 133/2/3 131/2/3 132/2/3
f 134/2/4 135/2/4 136/2/4
f 136/2/4 135/2/4 137/2/4
f 138/2/4 139/2/4 140/2/4
f 140/2/4 139/2/4 141/2/4
f 140/1/4 141/1/4 142/1/4
f 142/1/4 141/1/4 143/1/4
f 143/1/4 141/1/4 144/1/4
f 144/1/4 141/1/4 145/1/4
f 140/1/4 142/1/4 146/1/4
f 143/1/4 144/1/4 147/1/4
f 147/1/4 144/1/4 148/1/4
f 145/1/4 141/1/4 149/1/4
f 147/1/4 148/1/4 150/1/4
f 148/1/4 149/1/4 150/1/4
f 140/1/4 146/1/4 150/1/4
f 146/1/4 147/1/4 150/1/4
f 141/2/4 139/2/4 151/2/4
f 150/1/4 149/1/4 151/1/4
f 149/1/4 141/1/4 151/1/4
f 151/2/4 139/2/4 152/2/4
f 150/2/4 151/2/4 153/2/4
f 153/2/4 151/2/4 154/2/4
f 155/2/4 156/2/4 157/2/4
f 157/2/4 156/2/4 158/2/4
f 159/2/4 160/2/4 161/2/4
f 161/2/4 160/2/4 162/2/4
f 163/2/4 164/2/4 165/2/4
f 165/2/4 164/2/4 166/2/4
f 165/1/4 166/1/4 167/1/4
f 167/1/4 166/1/4 168/1/4
f 168/1/4 166/1/4 169/1/4
f 169/1/4 166/1/4 170/1/4
f 165/1/4 167/1/4 171/1/4
f 168/1/4 169/1/4 172/1/4
f 172/1/4 169/1/4 173/1/4
f 170/1/4 166/1/4 174/1/4
f 172/1/4 173/1/4 175/1/4
f 173/1/4 174/1/4 175/1/4
f 165/1/4 171/1/4 175/1/4
f 171/1/4 172/1/4 175/1/4
f 166/2/4 164/2/4 176/2/4
f 175/1/4 174/1/4 176/1/4
f 174/1/4 166/1/4 176/1/4
f 175/2/4 176/2/4 177/2/4
f 176/2/4 164/2/4 178/2/4
f 177/2/4 176/2/4 178/2/4
f 179/2/4 180/2/4 181/2/4
f 181/2/4 180/2/4 182/2/4
f 187/2/5 184/2/5 183/2/5
f 188/1/5 185/1/5 184/1/5
f 188/2/5 184/2/5 187/2/5
f 189/2/5 186/2/5 185/2/5
f 189/1/5 185/1/5 188/1/5
f 190/2/5 186/2/5 189/2/5
f 195/2/5 192/2/5 191/2/5
f 196/1/5 193/1/5 192/1/5
f 196/2/5 192/2/5 195/2/5
f 197/2/5 194/2/5 193/2/5
f 197/1/5 193/1/5 196/1/5
f 198/2/5 194/2/5 197/2/5
f 201/2/5 200/2/5 199/2/5
f 202/2/5 200/2/5 201/2/5
f 205/2/5 204/2/5 203/2/5
f 206/2/5 204/2/5 205/2/5
f 209/2/5 208/2/5 207/2/5
f 210/2/5 208/2/5 209/2/5
f 213/2/5 212/2/5 211/2/5
f 214/2/5 212/2/5 213/2/5
f 217/2/5 216/2/5 215/2/5
f 218/2/5 216/2/5 217/2/5
f 221/2/5 220/2/5 219/2/5
f 222/2/5 220/2/5 221/2/5
f 225/2/5 224/2/5 223/2/5
f 226/2/5 224/2/5 225/2/5
f 229/2/5 228/2/5 227/2/5
f 230/2/5 228/2/5 229/2/5
f 233/2/5 232/2/5 231/2/5
f 234/2/5 232/2/5 233/2/5
f 235/2/6 236/2/6 237/2/6
f 237/2/6 236/2/6 238/2/6
f 239/2/6 240/2/6 241/2/6
f 241/2/6 240/2/6 242/2/6
f 243/2/6 244/2/6 245/2/6
f 245/2/6 244/2/6 246/2/6
f 247/2/6 248/2/6 249/2/6
f 249/2/6 248/2/6 250/2/6
f 251/2/6 252/2/6 253/2/6
f 253/2/6 252/2/6 254/2/6
f 255/2/6 256/2/6 257/2/6
f 257/2/6 256/2/6 258/2/6
f 259/2/6 260/2/6 261/2/6
f 261/2/6 260/2/6 262/2/6
f 263/2/6 264/2/6 265/2/6
f 265/2/6 264/2/6 266/2/6
f 267/2/6 268/2/6 269/2/6
f 269/2/6 268/2/6 270/2/6
f 270/2/6 268/2/6 272/2/6
f 271/2/6 272/2/6 273/2/6
f 272/2/6 268/2/6 274/2/6
f 273/2/6 272/2/6 274/2/6
