# MagicaVoxel @ Ephtracy

# group
o 

# material
mtllib Door_for_wall_open_Ver2.2.mtl
usemtl palette

# normals
vn -1 0 0
vn 1 0 0
vn 0 0 1
vn 0 0 -1
vn 0 -1 0
vn 0 1 0

# texcoords
vt 0.783203 0.5
vt 0.787109 0.5

# verts
v 1.2 0.1 1.8
v 1.2 0.1 1.7
v 1.2 0.1 -1.6
v 1.2 0.1 -1.7
v 1.2 2.9 1.8
v 1.2 2.9 1.7
v 1.2 2.9 -1.6
v 1.2 2.9 -1.7
v 1.3 0.1 1.7
v 1.3 0.1 1.6
v 1.3 0.1 -1.5
v 1.3 0.1 -1.6
v 1.3 1.4 1.6
v 1.3 1.4 1.4
v 1.3 1.4 -1.3
v 1.3 1.4 -1.5
v 1.3 1.5 1.6
v 1.3 1.5 1.5
v 1.3 1.5 -1.4
v 1.3 1.5 -1.5
v 1.3 1.7 1.6
v 1.3 1.7 1.5
v 1.3 1.7 -1.4
v 1.3 1.7 -1.5
v 1.3 1.8 1.6
v 1.3 1.8 1.4
v 1.3 1.8 -1.3
v 1.3 1.8 -1.5
v 1.3 2.8 1.7
v 1.3 2.8 1.6
v 1.3 2.8 -1.5
v 1.3 2.8 -1.6
v 1.3 2.9 1.7
v 1.3 2.9 1.6
v 1.3 2.9 -1.5
v 1.3 2.9 -1.6
v 1.4 0.1 1.6
v 1.4 0.1 1.5
v 1.4 0.1 -1.4
v 1.4 0.1 -1.5
v 1.4 1.4 1.6
v 1.4 1.4 1.5
v 1.4 1.4 -1.4
v 1.4 1.4 -1.5
v 1.4 1.5 1.6
v 1.4 1.5 1.5
v 1.4 1.5 -1.4
v 1.4 1.5 -1.5
v 1.4 1.7 1.6
v 1.4 1.7 1.5
v 1.4 1.7 -1.4
v 1.4 1.7 -1.5
v 1.4 1.8 1.6
v 1.4 1.8 1.5
v 1.4 1.8 -1.4
v 1.4 1.8 -1.5
v 1.4 2.8 1.6
v 1.4 2.8 1.5
v 1.4 2.8 -1.4
v 1.4 2.8 -1.5
v 1.4 2.9 1.6
v 1.4 2.9 1.5
v 1.4 2.9 -1.4
v 1.4 2.9 -1.5
v 1.5 0.1 1.5
v 1.5 0.1 1.4
v 1.5 0.1 -1.3
v 1.5 0.1 -1.4
v 1.5 1.4 1.5
v 1.5 1.4 1.4
v 1.5 1.4 -1.3
v 1.5 1.4 -1.4
v 1.5 1.5 1.5
v 1.5 1.5 1.4
v 1.5 1.5 -1.3
v 1.5 1.5 -1.4
v 1.5 1.5 -1.5
v 1.5 1.5 -1.6
v 1.5 1.6 1.7
v 1.5 1.6 1.6
v 1.5 1.7 1.5
v 1.5 1.7 1.4
v 1.5 1.7 -1.3
v 1.5 1.7 -1.4
v 1.5 1.7 -1.5
v 1.5 1.7 -1.6
v 1.5 1.8 1.7
v 1.5 1.8 1.6
v 1.5 1.8 1.5
v 1.5 1.8 1.4
v 1.5 1.8 -1.3
v 1.5 1.8 -1.4
v 1.5 2.8 1.5
v 1.5 2.8 1.4
v 1.5 2.8 -1.3
v 1.5 2.8 -1.4
v 1.5 2.9 1.5
v 1.5 2.9 1.4
v 1.5 2.9 -1.3
v 1.5 2.9 -1.4
v 1.6 0.1 1.4
v 1.6 0.1 1.3
v 1.6 0.1 -1.2
v 1.6 0.1 -1.3
v 1.6 2.8 1.4
v 1.6 2.8 1.3
v 1.6 2.8 -1.2
v 1.6 2.8 -1.3
v 1.6 2.9 1.4
v 1.6 2.9 1.3
v 1.6 2.9 -1.2
v 1.6 2.9 -1.3
v 1.7 0.1 1.3
v 1.7 0.1 1.2
v 1.7 0.1 -1.1
v 1.7 0.1 -1.2
v 1.7 2.8 1.3
v 1.7 2.8 1.2
v 1.7 2.8 -1.1
v 1.7 2.8 -1.2
v 1.7 2.9 1.3
v 1.7 2.9 1.2
v 1.7 2.9 -1.1
v 1.7 2.9 -1.2
v 1.8 0.1 1.2
v 1.8 0.1 1.1
v 1.8 0.1 -1
v 1.8 0.1 -1.1
v 1.8 2.8 1.2
v 1.8 2.8 1.1
v 1.8 2.8 -1
v 1.8 2.8 -1.1
v 1.8 2.9 1.2
v 1.8 2.9 1.1
v 1.8 2.9 -1
v 1.8 2.9 -1.1
v 1.9 0.1 1.1
v 1.9 0.1 1
v 1.9 0.1 -0.9
v 1.9 0.1 -1
v 1.9 2.8 1.1
v 1.9 2.8 1
v 1.9 2.8 -0.9
v 1.9 2.8 -1
v 1.9 2.9 1.1
v 1.9 2.9 -1
v 1.3 0.1 1.8
v 1.3 0.1 1.7
v 1.3 0.1 -1.6
v 1.3 0.1 -1.7
v 1.3 2.8 1.7
v 1.3 2.8 -1.6
v 1.3 2.9 1.8
v 1.3 2.9 1.7
v 1.3 2.9 -1.6
v 1.3 2.9 -1.7
v 1.4 0.1 1.7
v 1.4 0.1 1.6
v 1.4 0.1 -1.5
v 1.4 0.1 -1.6
v 1.4 1.4 -1.5
v 1.4 1.4 -1.6
v 1.4 1.5 1.7
v 1.4 1.5 1.6
v 1.4 1.5 1.5
v 1.4 1.5 1.4
v 1.4 1.5 -1.3
v 1.4 1.5 -1.4
v 1.4 1.5 -1.5
v 1.4 1.5 -1.6
v 1.4 1.6 1.7
v 1.4 1.6 1.6
v 1.4 1.7 1.5
v 1.4 1.7 1.4
v 1.4 1.7 -1.3
v 1.4 1.7 -1.4
v 1.4 1.7 -1.5
v 1.4 1.7 -1.6
v 1.4 1.8 1.7
v 1.4 1.8 1.6
v 1.4 1.8 -1.5
v 1.4 1.8 -1.6
v 1.4 1.9 1.7
v 1.4 1.9 1.6
v 1.4 2.8 1.7
v 1.4 2.8 1.6
v 1.4 2.8 -1.5
v 1.4 2.8 -1.6
v 1.4 2.9 1.7
v 1.4 2.9 1.6
v 1.4 2.9 -1.5
v 1.4 2.9 -1.6
v 1.5 0.1 1.6
v 1.5 0.1 1.5
v 1.5 0.1 -1.4
v 1.5 0.1 -1.5
v 1.5 1.4 -1.4
v 1.5 1.4 -1.5
v 1.5 1.5 1.6
v 1.5 1.5 1.5
v 1.5 1.5 -1.4
v 1.5 1.5 -1.5
v 1.5 1.6 1.6
v 1.5 1.6 1.5
v 1.5 1.7 -1.4
v 1.5 1.7 -1.5
v 1.5 1.8 1.6
v 1.5 1.8 1.5
v 1.5 1.8 -1.4
v 1.5 1.8 -1.5
v 1.5 1.9 1.6
v 1.5 1.9 1.5
v 1.5 2.8 1.6
v 1.5 2.8 1.5
v 1.5 2.8 -1.4
v 1.5 2.8 -1.5
v 1.5 2.9 1.6
v 1.5 2.9 1.5
v 1.5 2.9 -1.4
v 1.5 2.9 -1.5
v 1.6 0.1 1.5
v 1.6 0.1 1.4
v 1.6 0.1 -1.3
v 1.6 0.1 -1.4
v 1.6 1.4 -1.4
v 1.6 1.4 -1.6
v 1.6 1.5 1.7
v 1.6 1.5 1.5
v 1.6 1.5 -1.4
v 1.6 1.5 -1.5
v 1.6 1.6 1.6
v 1.6 1.6 1.5
v 1.6 1.7 -1.4
v 1.6 1.7 -1.5
v 1.6 1.8 1.6
v 1.6 1.8 1.5
v 1.6 1.8 -1.4
v 1.6 1.8 -1.6
v 1.6 1.9 1.7
v 1.6 1.9 1.5
v 1.6 2.8 1.5
v 1.6 2.8 1.4
v 1.6 2.8 -1.3
v 1.6 2.8 -1.4
v 1.6 2.9 1.5
v 1.6 2.9 1.4
v 1.6 2.9 -1.3
v 1.6 2.9 -1.4
v 1.7 0.1 1.4
v 1.7 0.1 1.3
v 1.7 0.1 -1.2
v 1.7 0.1 -1.3
v 1.7 2.8 1.4
v 1.7 2.8 1.3
v 1.7 2.8 -1.2
v 1.7 2.8 -1.3
v 1.7 2.9 1.4
v 1.7 2.9 1.3
v 1.7 2.9 -1.2
v 1.7 2.9 -1.3
v 1.8 0.1 1.3
v 1.8 0.1 1.2
v 1.8 0.1 -1.1
v 1.8 0.1 -1.2
v 1.8 2.8 1.3
v 1.8 2.8 1.2
v 1.8 2.8 -1.1
v 1.8 2.8 -1.2
v 1.8 2.9 1.3
v 1.8 2.9 1.2
v 1.8 2.9 -1.1
v 1.8 2.9 -1.2
v 1.9 0.1 1.2
v 1.9 0.1 1.1
v 1.9 0.1 -1
v 1.9 0.1 -1.1
v 1.9 2.8 1.2
v 1.9 2.8 1.1
v 1.9 2.8 -1
v 1.9 2.8 -1.1
v 1.9 2.9 1.2
v 1.9 2.9 1.1
v 1.9 2.9 -1
v 1.9 2.9 -1.1
v 2 0.1 1.1
v 2 0.1 1
v 2 0.1 -0.9
v 2 0.1 -1
v 2 2.8 1
v 2 2.8 -0.9
v 2 2.9 1.1
v 2 2.9 -1
v 1.2 0.1 1.8
v 1.2 2.9 1.8
v 1.3 0.1 1.8
v 1.3 2.9 1.8
v 1.3 0.1 1.7
v 1.3 2.8 1.7
v 1.3 2.9 1.7
v 1.4 0.1 1.7
v 1.4 1.5 1.7
v 1.4 1.6 1.7
v 1.4 1.8 1.7
v 1.4 1.9 1.7
v 1.4 2.8 1.7
v 1.4 2.9 1.7
v 1.5 1.6 1.7
v 1.5 1.8 1.7
v 1.6 1.5 1.7
v 1.6 1.9 1.7
v 1.4 0.1 1.6
v 1.4 1.5 1.6
v 1.4 1.6 1.6
v 1.4 1.8 1.6
v 1.4 1.9 1.6
v 1.4 2.8 1.6
v 1.4 2.9 1.6
v 1.5 0.1 1.6
v 1.5 1.5 1.6
v 1.5 1.6 1.6
v 1.5 1.8 1.6
v 1.5 1.9 1.6
v 1.5 2.8 1.6
v 1.5 2.9 1.6
v 1.3 1.5 1.5
v 1.3 1.7 1.5
v 1.4 1.5 1.5
v 1.4 1.7 1.5
v 1.5 0.1 1.5
v 1.5 1.5 1.5
v 1.5 1.6 1.5
v 1.5 1.8 1.5
v 1.5 1.9 1.5
v 1.5 2.8 1.5
v 1.5 2.9 1.5
v 1.6 0.1 1.5
v 1.6 1.5 1.5
v 1.6 1.6 1.5
v 1.6 1.8 1.5
v 1.6 1.9 1.5
v 1.6 2.8 1.5
v 1.6 2.9 1.5
v 1.6 0.1 1.4
v 1.6 2.8 1.4
v 1.6 2.9 1.4
v 1.7 0.1 1.4
v 1.7 2.8 1.4
v 1.7 2.9 1.4
v 1.7 0.1 1.3
v 1.7 2.8 1.3
v 1.7 2.9 1.3
v 1.8 0.1 1.3
v 1.8 2.8 1.3
v 1.8 2.9 1.3
v 1.8 0.1 1.2
v 1.8 2.8 1.2
v 1.8 2.9 1.2
v 1.9 0.1 1.2
v 1.9 2.8 1.2
v 1.9 2.9 1.2
v 1.9 0.1 1.1
v 1.9 2.8 1.1
v 1.9 2.9 1.1
v 2 0.1 1.1
v 2 2.9 1.1
v 1.9 0.1 -0.9
v 1.9 2.8 -0.9
v 2 0.1 -0.9
v 2 2.8 -0.9
v 1.8 0.1 -1
v 1.8 2.8 -1
v 1.8 2.9 -1
v 1.9 0.1 -1
v 1.9 2.8 -1
v 1.9 2.9 -1
v 1.7 0.1 -1.1
v 1.7 2.8 -1.1
v 1.7 2.9 -1.1
v 1.8 0.1 -1.1
v 1.8 2.8 -1.1
v 1.8 2.9 -1.1
v 1.6 0.1 -1.2
v 1.6 2.8 -1.2
v 1.6 2.9 -1.2
v 1.7 0.1 -1.2
v 1.7 2.8 -1.2
v 1.7 2.9 -1.2
v 1.3 1.4 -1.3
v 1.3 1.8 -1.3
v 1.4 1.5 -1.3
v 1.4 1.7 -1.3
v 1.5 0.1 -1.3
v 1.5 1.4 -1.3
v 1.5 1.5 -1.3
v 1.5 1.7 -1.3
v 1.5 1.8 -1.3
v 1.5 2.8 -1.3
v 1.5 2.9 -1.3
v 1.6 0.1 -1.3
v 1.6 2.8 -1.3
v 1.6 2.9 -1.3
v 1.4 0.1 -1.4
v 1.4 1.4 -1.4
v 1.4 1.5 -1.4
v 1.4 1.7 -1.4
v 1.4 1.8 -1.4
v 1.4 2.8 -1.4
v 1.4 2.9 -1.4
v 1.5 0.1 -1.4
v 1.5 1.4 -1.4
v 1.5 1.5 -1.4
v 1.5 1.7 -1.4
v 1.5 1.8 -1.4
v 1.5 2.8 -1.4
v 1.5 2.9 -1.4
v 1.3 0.1 -1.5
v 1.3 1.4 -1.5
v 1.3 1.5 -1.5
v 1.3 1.7 -1.5
v 1.3 1.8 -1.5
v 1.3 2.8 -1.5
v 1.3 2.9 -1.5
v 1.4 0.1 -1.5
v 1.4 1.4 -1.5
v 1.4 1.5 -1.5
v 1.4 1.7 -1.5
v 1.4 1.8 -1.5
v 1.4 2.8 -1.5
v 1.4 2.9 -1.5
v 1.5 1.5 -1.5
v 1.5 1.7 -1.5
v 1.6 1.5 -1.5
v 1.6 1.7 -1.5
v 1.2 0.1 -1.6
v 1.2 2.9 -1.6
v 1.3 0.1 -1.6
v 1.3 2.8 -1.6
v 1.3 2.9 -1.6
v 1.2 0.1 1.7
v 1.2 2.9 1.7
v 1.3 0.1 1.7
v 1.3 2.8 1.7
v 1.3 2.9 1.7
v 1.3 0.1 1.6
v 1.3 1.4 1.6
v 1.3 1.5 1.6
v 1.3 1.7 1.6
v 1.3 1.8 1.6
v 1.3 2.8 1.6
v 1.3 2.9 1.6
v 1.4 0.1 1.6
v 1.4 1.4 1.6
v 1.4 1.5 1.6
v 1.4 1.7 1.6
v 1.4 1.8 1.6
v 1.4 2.8 1.6
v 1.4 2.9 1.6
v 1.5 1.6 1.6
v 1.5 1.8 1.6
v 1.6 1.6 1.6
v 1.6 1.8 1.6
v 1.4 0.1 1.5
v 1.4 1.4 1.5
v 1.4 1.5 1.5
v 1.4 1.7 1.5
v 1.4 1.8 1.5
v 1.4 2.8 1.5
v 1.4 2.9 1.5
v 1.5 0.1 1.5
v 1.5 1.4 1.5
v 1.5 1.5 1.5
v 1.5 1.7 1.5
v 1.5 1.8 1.5
v 1.5 2.8 1.5
v 1.5 2.9 1.5
v 1.3 1.4 1.4
v 1.3 1.8 1.4
v 1.4 1.5 1.4
v 1.4 1.7 1.4
v 1.5 0.1 1.4
v 1.5 1.4 1.4
v 1.5 1.5 1.4
v 1.5 1.7 1.4
v 1.5 1.8 1.4
v 1.5 2.8 1.4
v 1.5 2.9 1.4
v 1.6 0.1 1.4
v 1.6 2.8 1.4
v 1.6 2.9 1.4
v 1.6 0.1 1.3
v 1.6 2.8 1.3
v 1.6 2.9 1.3
v 1.7 0.1 1.3
v 1.7 2.8 1.3
v 1.7 2.9 1.3
v 1.7 0.1 1.2
v 1.7 2.8 1.2
v 1.7 2.9 1.2
v 1.8 0.1 1.2
v 1.8 2.8 1.2
v 1.8 2.9 1.2
v 1.8 0.1 1.1
v 1.8 2.8 1.1
v 1.8 2.9 1.1
v 1.9 0.1 1.1
v 1.9 2.8 1.1
v 1.9 2.9 1.1
v 1.9 0.1 1
v 1.9 2.8 1
v 2 0.1 1
v 2 2.8 1
v 1.9 0.1 -1
v 1.9 2.8 -1
v 1.9 2.9 -1
v 2 0.1 -1
v 2 2.9 -1
v 1.8 0.1 -1.1
v 1.8 2.8 -1.1
v 1.8 2.9 -1.1
v 1.9 0.1 -1.1
v 1.9 2.8 -1.1
v 1.9 2.9 -1.1
v 1.7 0.1 -1.2
v 1.7 2.8 -1.2
v 1.7 2.9 -1.2
v 1.8 0.1 -1.2
v 1.8 2.8 -1.2
v 1.8 2.9 -1.2
v 1.6 0.1 -1.3
v 1.6 2.8 -1.3
v 1.6 2.9 -1.3
v 1.7 0.1 -1.3
v 1.7 2.8 -1.3
v 1.7 2.9 -1.3
v 1.3 1.5 -1.4
v 1.3 1.7 -1.4
v 1.4 1.5 -1.4
v 1.4 1.7 -1.4
v 1.5 0.1 -1.4
v 1.5 1.4 -1.4
v 1.5 1.5 -1.4
v 1.5 1.7 -1.4
v 1.5 1.8 -1.4
v 1.5 2.8 -1.4
v 1.5 2.9 -1.4
v 1.6 0.1 -1.4
v 1.6 1.4 -1.4
v 1.6 1.5 -1.4
v 1.6 1.7 -1.4
v 1.6 1.8 -1.4
v 1.6 2.8 -1.4
v 1.6 2.9 -1.4
v 1.4 0.1 -1.5
v 1.4 1.4 -1.5
v 1.4 1.5 -1.5
v 1.4 1.7 -1.5
v 1.4 1.8 -1.5
v 1.4 2.8 -1.5
v 1.4 2.9 -1.5
v 1.5 0.1 -1.5
v 1.5 1.4 -1.5
v 1.5 1.5 -1.5
v 1.5 1.7 -1.5
v 1.5 1.8 -1.5
v 1.5 2.8 -1.5
v 1.5 2.9 -1.5
v 1.3 0.1 -1.6
v 1.3 2.8 -1.6
v 1.3 2.9 -1.6
v 1.4 0.1 -1.6
v 1.4 1.4 -1.6
v 1.4 1.5 -1.6
v 1.4 1.7 -1.6
v 1.4 1.8 -1.6
v 1.4 2.8 -1.6
v 1.4 2.9 -1.6
v 1.5 1.5 -1.6
v 1.5 1.7 -1.6
v 1.6 1.4 -1.6
v 1.6 1.8 -1.6
v 1.2 0.1 -1.7
v 1.2 2.9 -1.7
v 1.3 0.1 -1.7
v 1.3 2.9 -1.7
v 1.2 0.1 1.8
v 1.3 0.1 1.8
v 1.2 0.1 1.7
v 1.3 0.1 1.7
v 1.4 0.1 1.7
v 1.3 0.1 1.6
v 1.4 0.1 1.6
v 1.5 0.1 1.6
v 1.4 0.1 1.5
v 1.5 0.1 1.5
v 1.6 0.1 1.5
v 1.5 0.1 1.4
v 1.6 0.1 1.4
v 1.7 0.1 1.4
v 1.6 0.1 1.3
v 1.7 0.1 1.3
v 1.8 0.1 1.3
v 1.7 0.1 1.2
v 1.8 0.1 1.2
v 1.9 0.1 1.2
v 1.8 0.1 1.1
v 1.9 0.1 1.1
v 2 0.1 1.1
v 1.9 0.1 1
v 2 0.1 1
v 1.9 0.1 -0.9
v 2 0.1 -0.9
v 1.8 0.1 -1
v 1.9 0.1 -1
v 2 0.1 -1
v 1.7 0.1 -1.1
v 1.8 0.1 -1.1
v 1.9 0.1 -1.1
v 1.6 0.1 -1.2
v 1.7 0.1 -1.2
v 1.8 0.1 -1.2
v 1.5 0.1 -1.3
v 1.6 0.1 -1.3
v 1.7 0.1 -1.3
v 1.4 0.1 -1.4
v 1.5 0.1 -1.4
v 1.6 0.1 -1.4
v 1.3 0.1 -1.5
v 1.4 0.1 -1.5
v 1.5 0.1 -1.5
v 1.2 0.1 -1.6
v 1.3 0.1 -1.6
v 1.4 0.1 -1.6
v 1.2 0.1 -1.7
v 1.3 0.1 -1.7
v 1.3 1.4 1.6
v 1.4 1.4 1.6
v 1.4 1.4 1.5
v 1.5 1.4 1.5
v 1.3 1.4 1.4
v 1.5 1.4 1.4
v 1.3 1.4 -1.3
v 1.5 1.4 -1.3
v 1.4 1.4 -1.4
v 1.5 1.4 -1.4
v 1.6 1.4 -1.4
v 1.3 1.4 -1.5
v 1.4 1.4 -1.5
v 1.5 1.4 -1.5
v 1.4 1.4 -1.6
v 1.6 1.4 -1.6
v 1.4 1.5 1.7
v 1.6 1.5 1.7
v 1.4 1.5 1.6
v 1.5 1.5 1.6
v 1.5 1.5 1.5
v 1.6 1.5 1.5
v 1.3 1.7 1.6
v 1.4 1.7 1.6
v 1.3 1.7 1.5
v 1.4 1.7 1.5
v 1.5 1.7 1.5
v 1.4 1.7 1.4
v 1.5 1.7 1.4
v 1.4 1.7 -1.3
v 1.5 1.7 -1.3
v 1.3 1.7 -1.4
v 1.4 1.7 -1.4
v 1.5 1.7 -1.4
v 1.6 1.7 -1.4
v 1.3 1.7 -1.5
v 1.4 1.7 -1.5
v 1.5 1.7 -1.5
v 1.6 1.7 -1.5
v 1.4 1.7 -1.6
v 1.5 1.7 -1.6
v 1.4 1.8 1.7
v 1.5 1.8 1.7
v 1.4 1.8 1.6
v 1.5 1.8 1.6
v 1.6 1.8 1.6
v 1.5 1.8 1.5
v 1.6 1.8 1.5
v 1.9 2.8 1
v 2 2.8 1
v 1.9 2.8 -0.9
v 2 2.8 -0.9
v 1.3 1.5 1.6
v 1.4 1.5 1.6
v 1.3 1.5 1.5
v 1.4 1.5 1.5
v 1.5 1.5 1.5
v 1.4 1.5 1.4
v 1.5 1.5 1.4
v 1.4 1.5 -1.3
v 1.5 1.5 -1.3
v 1.3 1.5 -1.4
v 1.4 1.5 -1.4
v 1.5 1.5 -1.4
v 1.6 1.5 -1.4
v 1.3 1.5 -1.5
v 1.4 1.5 -1.5
v 1.5 1.5 -1.5
v 1.6 1.5 -1.5
v 1.4 1.5 -1.6
v 1.5 1.5 -1.6
v 1.4 1.6 1.7
v 1.5 1.6 1.7
v 1.4 1.6 1.6
v 1.5 1.6 1.6
v 1.6 1.6 1.6
v 1.5 1.6 1.5
v 1.6 1.6 1.5
v 1.3 1.8 1.6
v 1.4 1.8 1.6
v 1.4 1.8 1.5
v 1.5 1.8 1.5
v 1.3 1.8 1.4
v 1.5 1.8 1.4
v 1.3 1.8 -1.3
v 1.5 1.8 -1.3
v 1.4 1.8 -1.4
v 1.5 1.8 -1.4
v 1.6 1.8 -1.4
v 1.3 1.8 -1.5
v 1.4 1.8 -1.5
v 1.5 1.8 -1.5
v 1.4 1.8 -1.6
v 1.6 1.8 -1.6
v 1.4 1.9 1.7
v 1.6 1.9 1.7
v 1.4 1.9 1.6
v 1.5 1.9 1.6
v 1.5 1.9 1.5
v 1.6 1.9 1.5
v 1.2 2.9 1.8
v 1.3 2.9 1.8
v 1.2 2.9 1.7
v 1.3 2.9 1.7
v 1.4 2.9 1.7
v 1.3 2.9 1.6
v 1.4 2.9 1.6
v 1.5 2.9 1.6
v 1.4 2.9 1.5
v 1.5 2.9 1.5
v 1.6 2.9 1.5
v 1.5 2.9 1.4
v 1.6 2.9 1.4
v 1.7 2.9 1.4
v 1.6 2.9 1.3
v 1.7 2.9 1.3
v 1.8 2.9 1.3
v 1.7 2.9 1.2
v 1.8 2.9 1.2
v 1.9 2.9 1.2
v 1.8 2.9 1.1
v 1.9 2.9 1.1
v 2 2.9 1.1
v 1.8 2.9 -1
v 1.9 2.9 -1
v 2 2.9 -1
v 1.7 2.9 -1.1
v 1.8 2.9 -1.1
v 1.9 2.9 -1.1
v 1.6 2.9 -1.2
v 1.7 2.9 -1.2
v 1.8 2.9 -1.2
v 1.5 2.9 -1.3
v 1.6 2.9 -1.3
v 1.7 2.9 -1.3
v 1.4 2.9 -1.4
v 1.5 2.9 -1.4
v 1.6 2.9 -1.4
v 1.3 2.9 -1.5
v 1.4 2.9 -1.5
v 1.5 2.9 -1.5
v 1.2 2.9 -1.6
v 1.3 2.9 -1.6
v 1.4 2.9 -1.6
v 1.2 2.9 -1.7
v 1.3 2.9 -1.7

# faces
f 5/2/1 2/2/1 1/2/1
f 6/2/1 2/2/1 5/2/1
f 7/2/1 4/2/1 3/2/1
f 8/2/1 4/2/1 7/2/1
f 13/1/1 10/1/1 9/1/1
f 16/1/1 12/1/1 11/1/1
f 17/2/1 14/2/1 13/2/1
f 17/1/1 13/1/1 9/1/1
f 18/2/1 14/2/1 17/2/1
f 19/2/1 16/2/1 15/2/1
f 20/1/1 12/1/1 16/1/1
f 20/2/1 16/2/1 19/2/1
f 21/1/1 17/1/1 9/1/1
f 22/2/1 14/2/1 18/2/1
f 23/2/1 19/2/1 15/2/1
f 24/1/1 12/1/1 20/1/1
f 25/1/1 21/1/1 9/1/1
f 25/2/1 22/2/1 21/2/1
f 26/2/1 14/2/1 22/2/1
f 26/2/1 22/2/1 25/2/1
f 27/2/1 24/2/1 23/2/1
f 27/2/1 23/2/1 15/2/1
f 28/1/1 12/1/1 24/1/1
f 28/2/1 24/2/1 27/2/1
f 29/1/1 25/1/1 9/1/1
f 30/1/1 25/1/1 29/1/1
f 31/1/1 12/1/1 28/1/1
f 32/1/1 12/1/1 31/1/1
f 33/2/1 30/2/1 29/2/1
f 34/2/1 30/2/1 33/2/1
f 35/2/1 32/2/1 31/2/1
f 36/2/1 32/2/1 35/2/1
f 41/1/1 38/1/1 37/1/1
f 42/1/1 38/1/1 41/1/1
f 43/1/1 40/1/1 39/1/1
f 44/1/1 40/1/1 43/1/1
f 49/1/1 46/1/1 45/1/1
f 50/1/1 46/1/1 49/1/1
f 51/1/1 48/1/1 47/1/1
f 52/1/1 48/1/1 51/1/1
f 57/1/1 54/1/1 53/1/1
f 58/1/1 54/1/1 57/1/1
f 59/1/1 56/1/1 55/1/1
f 60/1/1 56/1/1 59/1/1
f 61/2/1 58/2/1 57/2/1
f 62/2/1 58/2/1 61/2/1
f 63/2/1 60/2/1 59/2/1
f 64/2/1 60/2/1 63/2/1
f 69/1/1 66/1/1 65/1/1
f 70/1/1 66/1/1 69/1/1
f 71/1/1 68/1/1 67/1/1
f 72/1/1 68/1/1 71/1/1
f 81/1/1 74/1/1 73/1/1
f 82/1/1 74/1/1 81/1/1
f 83/1/1 76/1/1 75/1/1
f 84/1/1 76/1/1 83/1/1
f 85/2/1 78/2/1 77/2/1
f 86/2/1 78/2/1 85/2/1
f 87/2/1 80/2/1 79/2/1
f 88/2/1 80/2/1 87/2/1
f 93/1/1 90/1/1 89/1/1
f 94/1/1 90/1/1 93/1/1
f 95/1/1 92/1/1 91/1/1
f 96/1/1 92/1/1 95/1/1
f 97/2/1 94/2/1 93/2/1
f 98/2/1 94/2/1 97/2/1
f 99/2/1 96/2/1 95/2/1
f 100/2/1 96/2/1 99/2/1
f 105/1/1 102/1/1 101/1/1
f 106/1/1 102/1/1 105/1/1
f 107/1/1 104/1/1 103/1/1
f 108/1/1 104/1/1 107/1/1
f 109/2/1 106/2/1 105/2/1
f 110/2/1 106/2/1 109/2/1
f 111/2/1 108/2/1 107/2/1
f 112/2/1 108/2/1 111/2/1
f 117/1/1 114/1/1 113/1/1
f 118/1/1 114/1/1 117/1/1
f 119/1/1 116/1/1 115/1/1
f 120/1/1 116/1/1 119/1/1
f 121/2/1 118/2/1 117/2/1
f 122/2/1 118/2/1 121/2/1
f 123/2/1 120/2/1 119/2/1
f 124/2/1 120/2/1 123/2/1
f 129/1/1 126/1/1 125/1/1
f 130/1/1 126/1/1 129/1/1
f 131/1/1 128/1/1 127/1/1
f 132/1/1 128/1/1 131/1/1
f 133/2/1 130/2/1 129/2/1
f 134/2/1 130/2/1 133/2/1
f 135/2/1 132/2/1 131/2/1
f 136/2/1 132/2/1 135/2/1
f 141/2/1 138/2/1 137/2/1
f 142/2/1 138/2/1 141/2/1
f 143/2/1 140/2/1 139/2/1
f 144/2/1 140/2/1 143/2/1
f 145/2/1 142/2/1 141/2/1
f 145/2/1 143/2/1 142/2/1
f 145/2/1 144/2/1 143/2/1
f 146/2/1 144/2/1 145/2/1
f 147/2/2 148/2/2 151/2/2
f 149/2/2 150/2/2 152/2/2
f 147/2/2 151/2/2 153/2/2
f 153/2/2 151/2/2 154/2/2
f 152/2/2 150/2/2 155/2/2
f 155/2/2 150/2/2 156/2/2
f 159/1/2 160/1/2 161/1/2
f 161/1/2 160/1/2 162/1/2
f 157/1/2 158/1/2 163/1/2
f 163/1/2 158/1/2 164/1/2
f 165/2/2 166/2/2 173/2/2
f 173/2/2 166/2/2 174/2/2
f 167/2/2 168/2/2 175/2/2
f 175/2/2 168/2/2 176/2/2
f 169/1/2 170/1/2 177/1/2
f 177/1/2 170/1/2 178/1/2
f 171/1/2 172/1/2 179/1/2
f 179/1/2 172/1/2 180/1/2
f 183/1/2 184/1/2 185/1/2
f 185/1/2 184/1/2 186/1/2
f 181/1/2 182/1/2 187/1/2
f 187/1/2 182/1/2 188/1/2
f 185/2/2 186/2/2 189/2/2
f 189/2/2 186/2/2 190/2/2
f 187/2/2 188/2/2 191/2/2
f 191/2/2 188/2/2 192/2/2
f 195/1/2 196/1/2 197/1/2
f 197/1/2 196/1/2 198/1/2
f 193/1/2 194/1/2 199/1/2
f 199/1/2 194/1/2 200/1/2
f 201/1/2 202/1/2 205/1/2
f 205/1/2 202/1/2 206/1/2
f 203/1/2 204/1/2 207/1/2
f 207/1/2 204/1/2 208/1/2
f 211/1/2 212/1/2 213/1/2
f 213/1/2 212/1/2 214/1/2
f 209/1/2 210/1/2 215/1/2
f 215/1/2 210/1/2 216/1/2
f 213/2/2 214/2/2 217/2/2
f 217/2/2 214/2/2 218/2/2
f 215/2/2 216/2/2 219/2/2
f 219/2/2 216/2/2 220/2/2
f 223/1/2 224/1/2 225/1/2
f 221/1/2 222/1/2 228/1/2
f 225/2/2 226/2/2 229/2/2
f 223/1/2 225/1/2 229/1/2
f 229/2/2 226/2/2 230/2/2
f 227/2/2 228/2/2 231/2/2
f 228/1/2 222/1/2 232/1/2
f 231/2/2 228/2/2 232/2/2
f 223/1/2 229/1/2 233/1/2
f 230/2/2 226/2/2 234/2/2
f 227/2/2 231/2/2 235/2/2
f 232/1/2 222/1/2 236/1/2
f 223/1/2 233/1/2 237/1/2
f 233/2/2 234/2/2 237/2/2
f 234/2/2 226/2/2 238/2/2
f 237/2/2 234/2/2 238/2/2
f 235/2/2 236/2/2 239/2/2
f 227/2/2 235/2/2 239/2/2
f 236/1/2 222/1/2 240/1/2
f 239/2/2 236/2/2 240/2/2
f 240/1/2 222/1/2 241/1/2
f 241/1/2 222/1/2 242/1/2
f 223/1/2 237/1/2 243/1/2
f 243/1/2 237/1/2 244/1/2
f 241/2/2 242/2/2 245/2/2
f 245/2/2 242/2/2 246/2/2
f 243/2/2 244/2/2 247/2/2
f 247/2/2 244/2/2 248/2/2
f 249/1/2 250/1/2 253/1/2
f 253/1/2 250/1/2 254/1/2
f 251/1/2 252/1/2 255/1/2
f 255/1/2 252/1/2 256/1/2
f 253/2/2 254/2/2 257/2/2
f 257/2/2 254/2/2 258/2/2
f 255/2/2 256/2/2 259/2/2
f 259/2/2 256/2/2 260/2/2
f 261/1/2 262/1/2 265/1/2
f 265/1/2 262/1/2 266/1/2
f 263/1/2 264/1/2 267/1/2
f 267/1/2 264/1/2 268/1/2
f 265/2/2 266/2/2 269/2/2
f 269/2/2 266/2/2 270/2/2
f 267/2/2 268/2/2 271/2/2
f 271/2/2 268/2/2 272/2/2
f 273/1/2 274/1/2 277/1/2
f 277/1/2 274/1/2 278/1/2
f 275/1/2 276/1/2 279/1/2
f 279/1/2 276/1/2 280/1/2
f 277/2/2 278/2/2 281/2/2
f 281/2/2 278/2/2 282/2/2
f 279/2/2 280/2/2 283/2/2
f 283/2/2 280/2/2 284/2/2
f 285/2/2 286/2/2 289/2/2
f 287/2/2 288/2/2 290/2/2
f 285/2/2 289/2/2 291/2/2
f 289/2/2 290/2/2 291/2/2
f 290/2/2 288/2/2 292/2/2
f 291/2/2 290/2/2 292/2/2
f 295/2/3 294/2/3 293/2/3
f 296/2/3 294/2/3 295/2/3
f 300/1/3 298/1/3 297/1/3
f 301/1/3 298/1/3 300/1/3
f 302/1/3 298/1/3 301/1/3
f 303/1/3 298/1/3 302/1/3
f 304/1/3 298/1/3 303/1/3
f 305/2/3 299/2/3 298/2/3
f 305/1/3 298/1/3 304/1/3
f 306/2/3 299/2/3 305/2/3
f 307/2/3 302/2/3 301/2/3
f 308/2/3 304/2/3 303/2/3
f 309/2/3 307/2/3 301/2/3
f 309/2/3 308/2/3 307/2/3
f 310/2/3 304/2/3 308/2/3
f 310/2/3 308/2/3 309/2/3
f 318/1/3 312/1/3 311/1/3
f 319/1/3 312/1/3 318/1/3
f 320/1/3 314/1/3 313/1/3
f 321/1/3 314/1/3 320/1/3
f 322/1/3 316/1/3 315/1/3
f 323/2/3 317/2/3 316/2/3
f 323/1/3 316/1/3 322/1/3
f 324/2/3 317/2/3 323/2/3
f 327/2/3 326/2/3 325/2/3
f 328/2/3 326/2/3 327/2/3
f 336/1/3 330/1/3 329/1/3
f 337/1/3 330/1/3 336/1/3
f 338/1/3 332/1/3 331/1/3
f 339/1/3 332/1/3 338/1/3
f 340/1/3 334/1/3 333/1/3
f 341/2/3 335/2/3 334/2/3
f 341/1/3 334/1/3 340/1/3
f 342/2/3 335/2/3 341/2/3
f 346/1/3 344/1/3 343/1/3
f 347/2/3 345/2/3 344/2/3
f 347/1/3 344/1/3 346/1/3
f 348/2/3 345/2/3 347/2/3
f 352/1/3 350/1/3 349/1/3
f 353/2/3 351/2/3 350/2/3
f 353/1/3 350/1/3 352/1/3
f 354/2/3 351/2/3 353/2/3
f 358/1/3 356/1/3 355/1/3
f 359/2/3 357/2/3 356/2/3
f 359/1/3 356/1/3 358/1/3
f 360/2/3 357/2/3 359/2/3
f 364/2/3 362/2/3 361/2/3
f 364/2/3 363/2/3 362/2/3
f 365/2/3 363/2/3 364/2/3
f 368/2/3 367/2/3 366/2/3
f 369/2/3 367/2/3 368/2/3
f 373/1/3 371/1/3 370/1/3
f 374/2/3 372/2/3 371/2/3
f 374/1/3 371/1/3 373/1/3
f 375/2/3 372/2/3 374/2/3
f 379/1/3 377/1/3 376/1/3
f 380/2/3 378/2/3 377/2/3
f 380/1/3 377/1/3 379/1/3
f 381/2/3 378/2/3 380/2/3
f 385/1/3 383/1/3 382/1/3
f 386/2/3 384/2/3 383/2/3
f 386/1/3 383/1/3 385/1/3
f 387/2/3 384/2/3 386/2/3
f 390/2/3 389/2/3 388/2/3
f 391/2/3 389/2/3 390/2/3
f 393/2/3 390/2/3 388/2/3
f 394/2/3 390/2/3 393/2/3
f 395/2/3 389/2/3 391/2/3
f 396/2/3 389/2/3 395/2/3
f 399/1/3 394/1/3 393/1/3
f 399/1/3 393/1/3 392/1/3
f 399/1/3 397/1/3 396/1/3
f 399/1/3 396/1/3 395/1/3
f 399/1/3 395/1/3 394/1/3
f 400/2/3 398/2/3 397/2/3
f 400/1/3 397/1/3 399/1/3
f 401/2/3 398/2/3 400/2/3
f 409/1/3 403/1/3 402/1/3
f 410/1/3 403/1/3 409/1/3
f 411/1/3 405/1/3 404/1/3
f 412/1/3 405/1/3 411/1/3
f 413/1/3 407/1/3 406/1/3
f 414/2/3 408/2/3 407/2/3
f 414/1/3 407/1/3 413/1/3
f 415/2/3 408/2/3 414/2/3
f 423/1/3 417/1/3 416/1/3
f 424/1/3 417/1/3 423/1/3
f 425/1/3 419/1/3 418/1/3
f 426/1/3 419/1/3 425/1/3
f 427/1/3 421/1/3 420/1/3
f 428/2/3 422/2/3 421/2/3
f 428/1/3 421/1/3 427/1/3
f 429/2/3 422/2/3 428/2/3
f 432/2/3 431/2/3 430/2/3
f 433/2/3 431/2/3 432/2/3
f 436/2/3 435/2/3 434/2/3
f 437/2/3 435/2/3 436/2/3
f 438/2/3 435/2/3 437/2/3
f 439/2/4 440/2/4 441/2/4
f 441/2/4 440/2/4 442/2/4
f 442/2/4 440/2/4 443/2/4
f 444/1/4 445/1/4 451/1/4
f 451/1/4 445/1/4 452/1/4
f 446/1/4 447/1/4 453/1/4
f 453/1/4 447/1/4 454/1/4
f 448/1/4 449/1/4 455/1/4
f 449/2/4 450/2/4 456/2/4
f 455/1/4 449/1/4 456/1/4
f 456/2/4 450/2/4 457/2/4
f 458/2/4 459/2/4 460/2/4
f 460/2/4 459/2/4 461/2/4
f 462/1/4 463/1/4 469/1/4
f 469/1/4 463/1/4 470/1/4
f 464/1/4 465/1/4 471/1/4
f 471/1/4 465/1/4 472/1/4
f 466/1/4 467/1/4 473/1/4
f 467/2/4 468/2/4 474/2/4
f 473/1/4 467/1/4 474/1/4
f 474/2/4 468/2/4 475/2/4
f 476/2/4 477/2/4 478/2/4
f 478/2/4 477/2/4 479/2/4
f 476/2/4 478/2/4 481/2/4
f 481/2/4 478/2/4 482/2/4
f 479/2/4 477/2/4 483/2/4
f 483/2/4 477/2/4 484/2/4
f 481/1/4 482/1/4 487/1/4
f 480/1/4 481/1/4 487/1/4
f 484/1/4 485/1/4 487/1/4
f 483/1/4 484/1/4 487/1/4
f 482/1/4 483/1/4 487/1/4
f 485/2/4 486/2/4 488/2/4
f 487/1/4 485/1/4 488/1/4
f 488/2/4 486/2/4 489/2/4
f 490/1/4 491/1/4 493/1/4
f 491/2/4 492/2/4 494/2/4
f 493/1/4 491/1/4 494/1/4
f 494/2/4 492/2/4 495/2/4
f 496/1/4 497/1/4 499/1/4
f 497/2/4 498/2/4 500/2/4
f 499/1/4 497/1/4 500/1/4
f 500/2/4 498/2/4 501/2/4
f 502/1/4 503/1/4 505/1/4
f 503/2/4 504/2/4 506/2/4
f 505/1/4 503/1/4 506/1/4
f 506/2/4 504/2/4 507/2/4
f 508/2/4 509/2/4 510/2/4
f 510/2/4 509/2/4 511/2/4
f 512/2/4 513/2/4 515/2/4
f 513/2/4 514/2/4 515/2/4
f 515/2/4 514/2/4 516/2/4
f 517/1/4 518/1/4 520/1/4
f 518/2/4 519/2/4 521/2/4
f 520/1/4 518/1/4 521/1/4
f 521/2/4 519/2/4 522/2/4
f 523/1/4 524/1/4 526/1/4
f 524/2/4 525/2/4 527/2/4
f 526/1/4 524/1/4 527/1/4
f 527/2/4 525/2/4 528/2/4
f 529/1/4 530/1/4 532/1/4
f 530/2/4 531/2/4 533/2/4
f 532/1/4 530/1/4 533/1/4
f 533/2/4 531/2/4 534/2/4
f 535/2/4 536/2/4 537/2/4
f 537/2/4 536/2/4 538/2/4
f 539/1/4 540/1/4 546/1/4
f 546/1/4 540/1/4 547/1/4
f 541/1/4 542/1/4 548/1/4
f 548/1/4 542/1/4 549/1/4
f 543/1/4 544/1/4 550/1/4
f 544/2/4 545/2/4 551/2/4
f 550/1/4 544/1/4 551/1/4
f 551/2/4 545/2/4 552/2/4
f 553/1/4 554/1/4 560/1/4
f 560/1/4 554/1/4 561/1/4
f 555/1/4 556/1/4 562/1/4
f 562/1/4 556/1/4 563/1/4
f 557/1/4 558/1/4 564/1/4
f 558/2/4 559/2/4 565/2/4
f 564/1/4 558/1/4 565/1/4
f 565/2/4 559/2/4 566/2/4
f 567/1/4 568/1/4 570/1/4
f 570/1/4 568/1/4 571/1/4
f 571/1/4 568/1/4 572/1/4
f 572/1/4 568/1/4 573/1/4
f 573/1/4 568/1/4 574/1/4
f 568/2/4 569/2/4 575/2/4
f 574/1/4 568/1/4 575/1/4
f 575/2/4 569/2/4 576/2/4
f 571/2/4 572/2/4 577/2/4
f 573/2/4 574/2/4 578/2/4
f 571/2/4 577/2/4 579/2/4
f 577/2/4 578/2/4 579/2/4
f 578/2/4 574/2/4 580/2/4
f 579/2/4 578/2/4 580/2/4
f 581/2/4 582/2/4 583/2/4
f 583/2/4 582/2/4 584/2/4
f 587/2/5 586/2/5 585/2/5
f 588/2/5 586/2/5 587/2/5
f 590/1/5 589/1/5 588/1/5
f 591/1/5 589/1/5 590/1/5
f 593/1/5 592/1/5 591/1/5
f 594/1/5 592/1/5 593/1/5
f 596/1/5 595/1/5 594/1/5
f 597/1/5 595/1/5 596/1/5
f 599/1/5 598/1/5 597/1/5
f 600/1/5 598/1/5 599/1/5
f 602/1/5 601/1/5 600/1/5
f 603/1/5 601/1/5 602/1/5
f 605/1/5 604/1/5 603/1/5
f 606/1/5 604/1/5 605/1/5
f 608/2/5 607/2/5 606/2/5
f 609/2/5 607/2/5 608/2/5
f 613/2/5 611/2/5 610/2/5
f 614/2/5 611/2/5 613/2/5
f 616/1/5 613/1/5 612/1/5
f 617/1/5 613/1/5 616/1/5
f 619/1/5 616/1/5 615/1/5
f 620/1/5 616/1/5 619/1/5
f 622/1/5 619/1/5 618/1/5
f 623/1/5 619/1/5 622/1/5
f 625/1/5 622/1/5 621/1/5
f 626/1/5 622/1/5 625/1/5
f 628/1/5 625/1/5 624/1/5
f 629/1/5 625/1/5 628/1/5
f 631/1/5 628/1/5 627/1/5
f 632/1/5 628/1/5 631/1/5
f 633/2/5 631/2/5 630/2/5
f 634/2/5 631/2/5 633/2/5
f 637/2/5 636/2/5 635/2/5
f 639/2/5 637/2/5 635/2/5
f 639/2/5 638/2/5 637/2/5
f 640/2/5 638/2/5 639/2/5
f 643/2/5 642/2/5 641/2/5
f 644/2/5 642/2/5 643/2/5
f 646/2/5 643/2/5 641/2/5
f 647/2/5 643/2/5 646/2/5
f 648/2/5 645/2/5 644/2/5
f 649/2/5 648/2/5 647/2/5
f 650/2/5 645/2/5 648/2/5
f 650/2/5 648/2/5 649/2/5
f 653/2/5 652/2/5 651/2/5
f 654/2/5 652/2/5 653/2/5
f 655/2/5 652/2/5 654/2/5
f 656/2/5 652/2/5 655/2/5
f 659/2/5 658/2/5 657/2/5
f 660/2/5 658/2/5 659/2/5
f 662/2/5 661/2/5 660/2/5
f 663/2/5 661/2/5 662/2/5
f 667/2/5 665/2/5 664/2/5
f 668/2/5 665/2/5 667/2/5
f 670/2/5 667/2/5 666/2/5
f 671/2/5 667/2/5 670/2/5
f 672/2/5 669/2/5 668/2/5
f 673/2/5 669/2/5 672/2/5
f 674/2/5 672/2/5 671/2/5
f 675/2/5 672/2/5 674/2/5
f 678/2/5 677/2/5 676/2/5
f 679/2/5 677/2/5 678/2/5
f 681/2/5 680/2/5 679/2/5
f 682/2/5 680/2/5 681/2/5
f 685/2/5 684/2/5 683/2/5
f 686/2/5 684/2/5 685/2/5
f 687/2/6 688/2/6 689/2/6
f 689/2/6 688/2/6 690/2/6
f 690/2/6 691/2/6 692/2/6
f 692/2/6 691/2/6 693/2/6
f 694/2/6 695/2/6 697/2/6
f 697/2/6 695/2/6 698/2/6
f 696/2/6 697/2/6 700/2/6
f 700/2/6 697/2/6 701/2/6
f 698/2/6 699/2/6 702/2/6
f 702/2/6 699/2/6 703/2/6
f 701/2/6 702/2/6 704/2/6
f 704/2/6 702/2/6 705/2/6
f 706/2/6 707/2/6 708/2/6
f 708/2/6 707/2/6 709/2/6
f 709/2/6 710/2/6 711/2/6
f 711/2/6 710/2/6 712/2/6
f 713/2/6 714/2/6 715/2/6
f 713/2/6 715/2/6 717/2/6
f 715/2/6 716/2/6 717/2/6
f 717/2/6 716/2/6 718/2/6
f 719/2/6 720/2/6 721/2/6
f 721/2/6 720/2/6 722/2/6
f 719/2/6 721/2/6 724/2/6
f 724/2/6 721/2/6 725/2/6
f 722/2/6 723/2/6 726/2/6
f 725/2/6 726/2/6 727/2/6
f 726/2/6 723/2/6 728/2/6
f 727/2/6 726/2/6 728/2/6
f 729/2/6 730/2/6 731/2/6
f 731/2/6 730/2/6 732/2/6
f 732/2/6 730/2/6 733/2/6
f 733/2/6 730/2/6 734/2/6
f 735/2/6 736/2/6 737/2/6
f 737/2/6 736/2/6 738/2/6
f 738/2/6 739/2/6 740/2/6
f 740/2/6 739/2/6 741/2/6
f 741/2/6 742/2/6 743/2/6
f 743/2/6 742/2/6 744/2/6
f 744/2/6 745/2/6 746/2/6
f 746/2/6 745/2/6 747/2/6
f 747/2/6 748/2/6 749/2/6
f 749/2/6 748/2/6 750/2/6
f 750/2/6 751/2/6 752/2/6
f 752/2/6 751/2/6 753/2/6
f 753/2/6 754/2/6 755/2/6
f 755/2/6 754/2/6 756/2/6
f 756/2/6 757/2/6 759/2/6
f 759/2/6 757/2/6 760/2/6
f 758/2/6 759/2/6 762/2/6
f 762/2/6 759/2/6 763/2/6
f 761/2/6 762/2/6 765/2/6
f 765/2/6 762/2/6 766/2/6
f 764/2/6 765/2/6 768/2/6
f 768/2/6 765/2/6 769/2/6
f 767/2/6 768/2/6 771/2/6
f 771/2/6 768/2/6 772/2/6
f 770/2/6 771/2/6 774/2/6
f 774/2/6 771/2/6 775/2/6
f 773/2/6 774/2/6 777/2/6
f 777/2/6 774/2/6 778/2/6
f 776/2/6 777/2/6 779/2/6
f 779/2/6 777/2/6 780/2/6
