# MagicaVoxel @ Ephtracy

# group
o 

# material
mtllib Door_for_wall_open_Ver1.mtl
usemtl palette

# normals
vn -1 0 0
vn 1 0 0
vn 0 0 1
vn 0 0 -1
vn 0 -1 0
vn 0 1 0

# texcoords
vt 0.787109 0.5
vt 0.845703 0.5
vt 0.947266 0.5

# verts
v 1.8 0.1 2
v 1.8 0.1 1.9
v 1.8 0.1 1.1
v 1.8 0.1 1
v 1.8 0.1 -0.9
v 1.8 0.1 -1
v 1.8 0.1 -1.8
v 1.8 0.1 -1.9
v 1.8 1.6 1.5
v 1.8 1.6 1.2
v 1.8 1.7 1.4
v 1.8 1.7 1.3
v 1.8 1.8 1.4
v 1.8 1.8 1.3
v 1.8 1.9 1.5
v 1.8 1.9 1.2
v 1.8 2.8 1.9
v 1.8 2.8 1.1
v 1.8 2.8 -1
v 1.8 2.8 -1.8
v 1.8 2.9 2
v 1.8 2.9 1
v 1.8 2.9 -0.9
v 1.8 2.9 -1.9
v 1.9 0.1 2
v 1.9 0.1 1.9
v 1.9 0.1 1.1
v 1.9 0.1 1
v 1.9 0.1 -0.9
v 1.9 0.1 -1
v 1.9 0.1 -1.8
v 1.9 0.1 -1.9
v 1.9 1.6 1.5
v 1.9 1.6 1.2
v 1.9 1.7 1.4
v 1.9 1.7 1.3
v 1.9 1.8 1.4
v 1.9 1.8 1.3
v 1.9 1.9 1.5
v 1.9 1.9 1.2
v 1.9 2.8 1.9
v 1.9 2.8 1.1
v 1.9 2.8 -1
v 1.9 2.8 -1.8
v 1.9 2.9 2
v 1.9 2.9 1
v 1.9 2.9 -0.9
v 1.9 2.9 -1.9
v 1.8 0.1 2
v 1.8 2.9 2
v 1.9 0.1 2
v 1.9 2.9 2
v 1.8 0.1 -0.9
v 1.8 2.9 -0.9
v 1.9 0.1 -0.9
v 1.9 2.9 -0.9
v 1.8 0.1 1
v 1.8 2.9 1
v 1.9 0.1 1
v 1.9 2.9 1
v 1.8 0.1 -1.9
v 1.8 2.9 -1.9
v 1.9 0.1 -1.9
v 1.9 2.9 -1.9
v 1.8 0.1 2
v 1.9 0.1 2
v 1.8 0.1 1.9
v 1.9 0.1 1.9
v 1.8 0.1 1.1
v 1.9 0.1 1.1
v 1.8 0.1 1
v 1.9 0.1 1
v 1.8 0.1 -0.9
v 1.9 0.1 -0.9
v 1.8 0.1 -1
v 1.9 0.1 -1
v 1.8 0.1 -1.8
v 1.9 0.1 -1.8
v 1.8 0.1 -1.9
v 1.9 0.1 -1.9
v 1.8 2.9 2
v 1.9 2.9 2
v 1.8 2.9 1
v 1.9 2.9 1
v 1.8 2.9 -0.9
v 1.9 2.9 -0.9
v 1.8 2.9 -1.9
v 1.9 2.9 -1.9

# faces
f 9/3/1 3/3/1 2/3/1
f 10/3/1 3/3/1 9/3/1
f 11/1/1 10/1/1 9/1/1
f 12/1/1 10/1/1 11/1/1
f 13/1/1 11/1/1 9/1/1
f 13/2/1 12/2/1 11/2/1
f 14/1/1 10/1/1 12/1/1
f 14/2/1 12/2/1 13/2/1
f 15/3/1 9/3/1 2/3/1
f 15/1/1 13/1/1 9/1/1
f 15/1/1 14/1/1 13/1/1
f 16/1/1 10/1/1 14/1/1
f 16/1/1 14/1/1 15/1/1
f 16/3/1 3/3/1 10/3/1
f 17/1/1 2/1/1 1/1/1
f 17/3/1 15/3/1 2/3/1
f 17/3/1 16/3/1 15/3/1
f 18/3/1 3/3/1 16/3/1
f 18/3/1 16/3/1 17/3/1
f 18/1/1 4/1/1 3/1/1
f 19/3/1 7/3/1 6/3/1
f 19/1/1 6/1/1 5/1/1
f 20/1/1 8/1/1 7/1/1
f 20/3/1 7/3/1 19/3/1
f 21/1/1 17/1/1 1/1/1
f 21/1/1 18/1/1 17/1/1
f 22/1/1 4/1/1 18/1/1
f 22/1/1 18/1/1 21/1/1
f 23/1/1 19/1/1 5/1/1
f 23/1/1 20/1/1 19/1/1
f 24/1/1 8/1/1 20/1/1
f 24/1/1 20/1/1 23/1/1
f 26/3/2 27/3/2 33/3/2
f 33/3/2 27/3/2 34/3/2
f 33/1/2 34/1/2 35/1/2
f 35/1/2 34/1/2 36/1/2
f 33/1/2 35/1/2 37/1/2
f 35/2/2 36/2/2 37/2/2
f 36/1/2 34/1/2 38/1/2
f 37/2/2 36/2/2 38/2/2
f 26/3/2 33/3/2 39/3/2
f 33/1/2 37/1/2 39/1/2
f 37/1/2 38/1/2 39/1/2
f 38/1/2 34/1/2 40/1/2
f 39/1/2 38/1/2 40/1/2
f 34/3/2 27/3/2 40/3/2
f 25/1/2 26/1/2 41/1/2
f 26/3/2 39/3/2 41/3/2
f 39/3/2 40/3/2 41/3/2
f 40/3/2 27/3/2 42/3/2
f 41/3/2 40/3/2 42/3/2
f 27/1/2 28/1/2 42/1/2
f 30/3/2 31/3/2 43/3/2
f 29/1/2 30/1/2 43/1/2
f 31/1/2 32/1/2 44/1/2
f 43/3/2 31/3/2 44/3/2
f 25/1/2 41/1/2 45/1/2
f 41/1/2 42/1/2 45/1/2
f 42/1/2 28/1/2 46/1/2
f 45/1/2 42/1/2 46/1/2
f 29/1/2 43/1/2 47/1/2
f 43/1/2 44/1/2 47/1/2
f 44/1/2 32/1/2 48/1/2
f 47/1/2 44/1/2 48/1/2
f 51/1/3 50/1/3 49/1/3
f 52/1/3 50/1/3 51/1/3
f 55/1/3 54/1/3 53/1/3
f 56/1/3 54/1/3 55/1/3
f 57/1/4 58/1/4 59/1/4
f 59/1/4 58/1/4 60/1/4
f 61/1/4 62/1/4 63/1/4
f 63/1/4 62/1/4 64/1/4
f 67/1/5 66/1/5 65/1/5
f 68/1/5 66/1/5 67/1/5
f 69/3/5 68/3/5 67/3/5
f 70/3/5 68/3/5 69/3/5
f 71/1/5 70/1/5 69/1/5
f 72/1/5 70/1/5 71/1/5
f 75/1/5 74/1/5 73/1/5
f 76/1/5 74/1/5 75/1/5
f 77/3/5 76/3/5 75/3/5
f 78/3/5 76/3/5 77/3/5
f 79/1/5 78/1/5 77/1/5
f 80/1/5 78/1/5 79/1/5
f 81/1/6 82/1/6 83/1/6
f 83/1/6 82/1/6 84/1/6
f 85/1/6 86/1/6 87/1/6
f 87/1/6 86/1/6 88/1/6
