# MagicaVoxel @ Ephtracy

# group
o 

# material
mtllib Door_for_wall_Ver2.mtl
usemtl palette

# normals
vn -1 0 0
vn 1 0 0
vn 0 0 1
vn 0 0 -1
vn 0 -1 0
vn 0 1 0

# texcoords
vt 0.783203 0.5
vt 0.787109 0.5

# verts
v 1.7 1.4 0.3
v 1.7 1.4 0.2
v 1.7 1.4 -0.1
v 1.7 1.4 -0.2
v 1.7 1.8 0.3
v 1.7 1.8 0.2
v 1.7 1.8 -0.1
v 1.7 1.8 -0.2
v 1.9 0.1 1.1
v 1.9 0.1 1
v 1.9 0.1 0.1
v 1.9 0.1 0
v 1.9 0.1 -0.9
v 1.9 0.1 -1
v 1.9 1.4 0.3
v 1.9 1.4 0.2
v 1.9 1.4 -0.1
v 1.9 1.4 -0.2
v 1.9 1.5 0.3
v 1.9 1.5 0.2
v 1.9 1.5 -0.1
v 1.9 1.5 -0.2
v 1.9 1.7 0.3
v 1.9 1.7 0.2
v 1.9 1.7 -0.1
v 1.9 1.7 -0.2
v 1.9 1.8 0.3
v 1.9 1.8 0.2
v 1.9 1.8 -0.1
v 1.9 1.8 -0.2
v 1.9 2.8 1
v 1.9 2.8 0.1
v 1.9 2.8 0
v 1.9 2.8 -0.9
v 1.9 2.9 1.1
v 1.9 2.9 -1
v 1.8 1.5 0.3
v 1.8 1.5 0.2
v 1.8 1.5 -0.1
v 1.8 1.5 -0.2
v 1.8 1.7 0.3
v 1.8 1.7 0.2
v 1.8 1.7 -0.1
v 1.8 1.7 -0.2
v 2 0.1 1.1
v 2 0.1 1
v 2 0.1 0.1
v 2 0.1 0
v 2 0.1 -0.9
v 2 0.1 -1
v 2 2.8 1
v 2 2.8 0.1
v 2 2.8 0
v 2 2.8 -0.9
v 2 2.9 1.1
v 2 2.9 -1
v 1.9 0.1 1.1
v 1.9 2.9 1.1
v 2 0.1 1.1
v 2 2.9 1.1
v 1.7 1.4 0.3
v 1.7 1.8 0.3
v 1.8 1.5 0.3
v 1.8 1.7 0.3
v 1.9 1.4 0.3
v 1.9 1.5 0.3
v 1.9 1.7 0.3
v 1.9 1.8 0.3
v 1.7 1.4 -0.1
v 1.7 1.8 -0.1
v 1.8 1.5 -0.1
v 1.8 1.7 -0.1
v 1.9 1.4 -0.1
v 1.9 1.5 -0.1
v 1.9 1.7 -0.1
v 1.9 1.8 -0.1
v 1.7 1.4 0.2
v 1.7 1.8 0.2
v 1.8 1.5 0.2
v 1.8 1.7 0.2
v 1.9 1.4 0.2
v 1.9 1.5 0.2
v 1.9 1.7 0.2
v 1.9 1.8 0.2
v 1.7 1.4 -0.2
v 1.7 1.8 -0.2
v 1.8 1.5 -0.2
v 1.8 1.7 -0.2
v 1.9 1.4 -0.2
v 1.9 1.5 -0.2
v 1.9 1.7 -0.2
v 1.9 1.8 -0.2
v 1.9 0.1 -1
v 1.9 2.9 -1
v 2 0.1 -1
v 2 2.9 -1
v 1.9 0.1 1.1
v 2 0.1 1.1
v 1.9 0.1 1
v 2 0.1 1
v 1.9 0.1 0.1
v 2 0.1 0.1
v 1.9 0.1 0
v 2 0.1 0
v 1.9 0.1 -0.9
v 2 0.1 -0.9
v 1.9 0.1 -1
v 2 0.1 -1
v 1.7 1.4 0.3
v 1.9 1.4 0.3
v 1.7 1.4 0.2
v 1.9 1.4 0.2
v 1.7 1.4 -0.1
v 1.9 1.4 -0.1
v 1.7 1.4 -0.2
v 1.9 1.4 -0.2
v 1.8 1.7 0.3
v 1.9 1.7 0.3
v 1.8 1.7 0.2
v 1.9 1.7 0.2
v 1.8 1.7 -0.1
v 1.9 1.7 -0.1
v 1.8 1.7 -0.2
v 1.9 1.7 -0.2
v 1.8 1.5 0.3
v 1.9 1.5 0.3
v 1.8 1.5 0.2
v 1.9 1.5 0.2
v 1.8 1.5 -0.1
v 1.9 1.5 -0.1
v 1.8 1.5 -0.2
v 1.9 1.5 -0.2
v 1.7 1.8 0.3
v 1.9 1.8 0.3
v 1.7 1.8 0.2
v 1.9 1.8 0.2
v 1.7 1.8 -0.1
v 1.9 1.8 -0.1
v 1.7 1.8 -0.2
v 1.9 1.8 -0.2
v 1.9 2.9 1.1
v 2 2.9 1.1
v 1.9 2.9 -1
v 2 2.9 -1

# faces
f 5/2/1 2/2/1 1/2/1
f 6/2/1 2/2/1 5/2/1
f 7/2/1 4/2/1 3/2/1
f 8/2/1 4/2/1 7/2/1
f 15/1/1 11/1/1 10/1/1
f 16/1/1 11/1/1 15/1/1
f 17/1/1 13/1/1 12/1/1
f 18/1/1 13/1/1 17/1/1
f 19/1/1 15/1/1 10/1/1
f 20/1/1 11/1/1 16/1/1
f 21/1/1 17/1/1 12/1/1
f 22/1/1 13/1/1 18/1/1
f 23/1/1 19/1/1 10/1/1
f 23/1/1 20/1/1 19/1/1
f 24/1/1 11/1/1 20/1/1
f 24/1/1 20/1/1 23/1/1
f 25/1/1 22/1/1 21/1/1
f 25/1/1 21/1/1 12/1/1
f 26/1/1 13/1/1 22/1/1
f 26/1/1 22/1/1 25/1/1
f 27/1/1 23/1/1 10/1/1
f 28/1/1 11/1/1 24/1/1
f 29/1/1 25/1/1 12/1/1
f 30/1/1 13/1/1 26/1/1
f 31/2/1 10/2/1 9/2/1
f 31/1/1 27/1/1 10/1/1
f 31/1/1 28/1/1 27/1/1
f 32/2/1 12/2/1 11/2/1
f 32/1/1 28/1/1 31/1/1
f 32/1/1 11/1/1 28/1/1
f 33/1/1 30/1/1 29/1/1
f 33/2/1 12/2/1 32/2/1
f 33/1/1 29/1/1 12/1/1
f 34/2/1 14/2/1 13/2/1
f 34/1/1 30/1/1 33/1/1
f 34/1/1 13/1/1 30/1/1
f 35/2/1 32/2/1 31/2/1
f 35/2/1 33/2/1 32/2/1
f 35/2/1 34/2/1 33/2/1
f 35/2/1 31/2/1 9/2/1
f 36/2/1 14/2/1 34/2/1
f 36/2/1 34/2/1 35/2/1
f 37/2/2 38/2/2 41/2/2
f 41/2/2 38/2/2 42/2/2
f 39/2/2 40/2/2 43/2/2
f 43/2/2 40/2/2 44/2/2
f 45/2/2 46/2/2 51/2/2
f 46/1/2 47/1/2 51/1/2
f 47/2/2 48/2/2 52/2/2
f 51/1/2 47/1/2 52/1/2
f 48/1/2 49/1/2 53/1/2
f 52/2/2 48/2/2 53/2/2
f 49/2/2 50/2/2 54/2/2
f 53/1/2 49/1/2 54/1/2
f 52/2/2 53/2/2 55/2/2
f 51/2/2 52/2/2 55/2/2
f 53/2/2 54/2/2 55/2/2
f 45/2/2 51/2/2 55/2/2
f 54/2/2 50/2/2 56/2/2
f 55/2/2 54/2/2 56/2/2
f 59/2/3 58/2/3 57/2/3
f 60/2/3 58/2/3 59/2/3
f 63/2/3 62/2/3 61/2/3
f 64/2/3 62/2/3 63/2/3
f 65/2/3 63/2/3 61/2/3
f 66/2/3 63/2/3 65/2/3
f 67/2/3 62/2/3 64/2/3
f 68/2/3 62/2/3 67/2/3
f 71/2/3 70/2/3 69/2/3
f 72/2/3 70/2/3 71/2/3
f 73/2/3 71/2/3 69/2/3
f 74/2/3 71/2/3 73/2/3
f 75/2/3 70/2/3 72/2/3
f 76/2/3 70/2/3 75/2/3
f 77/2/4 78/2/4 79/2/4
f 79/2/4 78/2/4 80/2/4
f 77/2/4 79/2/4 81/2/4
f 81/2/4 79/2/4 82/2/4
f 80/2/4 78/2/4 83/2/4
f 83/2/4 78/2/4 84/2/4
f 85/2/4 86/2/4 87/2/4
f 87/2/4 86/2/4 88/2/4
f 85/2/4 87/2/4 89/2/4
f 89/2/4 87/2/4 90/2/4
f 88/2/4 86/2/4 91/2/4
f 91/2/4 86/2/4 92/2/4
f 93/2/4 94/2/4 95/2/4
f 95/2/4 94/2/4 96/2/4
f 99/2/5 98/2/5 97/2/5
f 100/2/5 98/2/5 99/2/5
f 101/1/5 100/1/5 99/1/5
f 102/1/5 100/1/5 101/1/5
f 103/2/5 102/2/5 101/2/5
f 104/2/5 102/2/5 103/2/5
f 105/1/5 104/1/5 103/1/5
f 106/1/5 104/1/5 105/1/5
f 107/2/5 106/2/5 105/2/5
f 108/2/5 106/2/5 107/2/5
f 111/2/5 110/2/5 109/2/5
f 112/2/5 110/2/5 111/2/5
f 115/2/5 114/2/5 113/2/5
f 116/2/5 114/2/5 115/2/5
f 119/2/5 118/2/5 117/2/5
f 120/2/5 118/2/5 119/2/5
f 123/2/5 122/2/5 121/2/5
f 124/2/5 122/2/5 123/2/5
f 125/2/6 126/2/6 127/2/6
f 127/2/6 126/2/6 128/2/6
f 129/2/6 130/2/6 131/2/6
f 131/2/6 130/2/6 132/2/6
f 133/2/6 134/2/6 135/2/6
f 135/2/6 134/2/6 136/2/6
f 137/2/6 138/2/6 139/2/6
f 139/2/6 138/2/6 140/2/6
f 141/2/6 142/2/6 143/2/6
f 143/2/6 142/2/6 144/2/6
