# MagicaVoxel @ Ephtracy

# group
o 

# material
mtllib Door_for_wall_Ver1.mtl
usemtl palette

# normals
vn -1 0 0
vn 1 0 0
vn 0 0 1
vn 0 0 -1
vn 0 -1 0
vn 0 1 0

# texcoords
vt 0.787109 0.5
vt 0.845703 0.5
vt 0.947266 0.5

# verts
v 1.8 0.1 1.1
v 1.8 0.1 1
v 1.8 0.1 0.1
v 1.8 0.1 0
v 1.8 0.1 -0.9
v 1.8 0.1 -1
v 1.8 1.6 0.5
v 1.8 1.6 0.2
v 1.8 1.7 0.4
v 1.8 1.7 0.3
v 1.8 1.8 0.4
v 1.8 1.8 0.3
v 1.8 1.9 0.5
v 1.8 1.9 0.2
v 1.8 2.8 1
v 1.8 2.8 0.1
v 1.8 2.8 0
v 1.8 2.8 -0.9
v 1.8 2.9 1.1
v 1.8 2.9 -1
v 1.9 0.1 1.1
v 1.9 0.1 1
v 1.9 0.1 0.1
v 1.9 0.1 0
v 1.9 0.1 -0.9
v 1.9 0.1 -1
v 1.9 1.6 0.5
v 1.9 1.6 0.2
v 1.9 1.7 0.4
v 1.9 1.7 0.3
v 1.9 1.8 0.4
v 1.9 1.8 0.3
v 1.9 1.9 0.5
v 1.9 1.9 0.2
v 1.9 2.8 1
v 1.9 2.8 0.1
v 1.9 2.8 0
v 1.9 2.8 -0.9
v 1.9 2.9 1.1
v 1.9 2.9 -1
v 1.8 0.1 1.1
v 1.8 2.9 1.1
v 1.9 0.1 1.1
v 1.9 2.9 1.1
v 1.8 0.1 -1
v 1.8 2.9 -1
v 1.9 0.1 -1
v 1.9 2.9 -1
v 1.8 0.1 1.1
v 1.9 0.1 1.1
v 1.8 0.1 1
v 1.9 0.1 1
v 1.8 0.1 0.1
v 1.9 0.1 0.1
v 1.8 0.1 0
v 1.9 0.1 0
v 1.8 0.1 -0.9
v 1.9 0.1 -0.9
v 1.8 0.1 -1
v 1.9 0.1 -1
v 1.8 2.9 1.1
v 1.9 2.9 1.1
v 1.8 2.9 -1
v 1.9 2.9 -1

# faces
f 7/3/1 3/3/1 2/3/1
f 8/3/1 3/3/1 7/3/1
f 9/1/1 8/1/1 7/1/1
f 10/1/1 8/1/1 9/1/1
f 11/1/1 9/1/1 7/1/1
f 11/2/1 10/2/1 9/2/1
f 12/1/1 8/1/1 10/1/1
f 12/2/1 10/2/1 11/2/1
f 13/3/1 7/3/1 2/3/1
f 13/1/1 11/1/1 7/1/1
f 13/1/1 12/1/1 11/1/1
f 14/1/1 8/1/1 12/1/1
f 14/1/1 12/1/1 13/1/1
f 14/3/1 3/3/1 8/3/1
f 15/1/1 2/1/1 1/1/1
f 15/3/1 13/3/1 2/3/1
f 15/3/1 14/3/1 13/3/1
f 16/3/1 3/3/1 14/3/1
f 16/3/1 14/3/1 15/3/1
f 16/1/1 4/1/1 3/1/1
f 17/3/1 5/3/1 4/3/1
f 17/1/1 4/1/1 16/1/1
f 18/1/1 6/1/1 5/1/1
f 18/3/1 5/3/1 17/3/1
f 19/1/1 15/1/1 1/1/1
f 19/1/1 17/1/1 16/1/1
f 19/1/1 18/1/1 17/1/1
f 19/1/1 16/1/1 15/1/1
f 20/1/1 6/1/1 18/1/1
f 20/1/1 18/1/1 19/1/1
f 22/3/2 23/3/2 27/3/2
f 27/3/2 23/3/2 28/3/2
f 27/1/2 28/1/2 29/1/2
f 29/1/2 28/1/2 30/1/2
f 27/1/2 29/1/2 31/1/2
f 29/2/2 30/2/2 31/2/2
f 30/1/2 28/1/2 32/1/2
f 31/2/2 30/2/2 32/2/2
f 22/3/2 27/3/2 33/3/2
f 27/1/2 31/1/2 33/1/2
f 31/1/2 32/1/2 33/1/2
f 32/1/2 28/1/2 34/1/2
f 33/1/2 32/1/2 34/1/2
f 28/3/2 23/3/2 34/3/2
f 21/1/2 22/1/2 35/1/2
f 22/3/2 33/3/2 35/3/2
f 33/3/2 34/3/2 35/3/2
f 34/3/2 23/3/2 36/3/2
f 35/3/2 34/3/2 36/3/2
f 23/1/2 24/1/2 36/1/2
f 24/3/2 25/3/2 37/3/2
f 36/1/2 24/1/2 37/1/2
f 25/1/2 26/1/2 38/1/2
f 37/3/2 25/3/2 38/3/2
f 21/1/2 35/1/2 39/1/2
f 36/1/2 37/1/2 39/1/2
f 37/1/2 38/1/2 39/1/2
f 35/1/2 36/1/2 39/1/2
f 38/1/2 26/1/2 40/1/2
f 39/1/2 38/1/2 40/1/2
f 43/1/3 42/1/3 41/1/3
f 44/1/3 42/1/3 43/1/3
f 45/1/4 46/1/4 47/1/4
f 47/1/4 46/1/4 48/1/4
f 51/1/5 50/1/5 49/1/5
f 52/1/5 50/1/5 51/1/5
f 53/3/5 52/3/5 51/3/5
f 54/3/5 52/3/5 53/3/5
f 55/1/5 54/1/5 53/1/5
f 56/1/5 54/1/5 55/1/5
f 57/3/5 56/3/5 55/3/5
f 58/3/5 56/3/5 57/3/5
f 59/1/5 58/1/5 57/1/5
f 60/1/5 58/1/5 59/1/5
f 61/1/6 62/1/6 63/1/6
f 63/1/6 62/1/6 64/1/6
