# MagicaVoxel @ Ephtracy

# group
o 

# material
mtllib Wall_for_door_Ver1.mtl
usemtl palette

# normals
vn -1 0 0
vn 1 0 0
vn 0 0 1
vn 0 0 -1
vn 0 -1 0
vn 0 1 0

# texcoords
vt 0.939453 0.5
vt 0.947266 0.5
vt 0.990234 0.5

# verts
v -2 0 2
v -2 0 -2
v -2 0.1 2
v -2 0.1 -1.9
v -2 2.2 -1.7
v -2 2.2 -1.9
v -2 2.3 -1.7
v -2 2.3 -1.9
v -2 2.4 -1.7
v -2 2.4 -1.9
v -2 4 -1.9
v -2 4 -2
v 1.9 0.1 2
v 1.9 0.1 1.1
v 1.9 0.1 -1
v 1.9 0.1 -1.9
v 1.9 2.2 -1.7
v 1.9 2.2 -1.9
v 1.9 2.3 -1.7
v 1.9 2.4 -1.7
v 1.9 2.4 -1.9
v 1.9 2.9 1.1
v 1.9 2.9 -1
v 1.9 4 2
v 1.9 4 -1.9
v 2 0 2
v 2 0 -2
v 2 0.1 1.1
v 2 0.1 -1
v 2 2.9 1.1
v 2 2.9 -1
v 2 4 2
v 2 4 -2
v -2 0 2
v -2 0.1 2
v 1.9 0.1 2
v 1.9 4 2
v 2 0 2
v 2 4 2
v 1.9 0.1 -1
v 1.9 2.9 -1
v 2 0.1 -1
v 2 2.9 -1
v -2 2.2 -1.7
v -2 2.3 -1.7
v -2 2.4 -1.7
v 1.9 2.2 -1.7
v 1.9 2.3 -1.7
v 1.9 2.4 -1.7
v -2 0.1 -1.9
v -2 2.2 -1.9
v -2 2.4 -1.9
v -2 4 -1.9
v 1.9 0.1 -1.9
v 1.9 2.2 -1.9
v 1.9 2.4 -1.9
v 1.9 4 -1.9
v 1.9 0.1 1.1
v 1.9 2.9 1.1
v 2 0.1 1.1
v 2 2.9 1.1
v -2 0 -2
v -2 4 -2
v 2 0 -2
v 2 4 -2
v -2 0 2
v 2 0 2
v -2 0 -2
v 2 0 -2
v -2 2.2 -1.7
v 1.9 2.2 -1.7
v -2 2.2 -1.9
v 1.9 2.2 -1.9
v 1.9 2.9 1.1
v 2 2.9 1.1
v 1.9 2.9 -1
v 2 2.9 -1
v -2 0.1 2
v 1.9 0.1 2
v 1.9 0.1 1.1
v 2 0.1 1.1
v 1.9 0.1 -1
v 2 0.1 -1
v -2 0.1 -1.9
v 1.9 0.1 -1.9
v -2 2.4 -1.7
v 1.9 2.4 -1.7
v -2 2.4 -1.9
v 1.9 2.4 -1.9
v 1.9 4 2
v 2 4 2
v -2 4 -1.9
v 1.9 4 -1.9
v -2 4 -2
v 2 4 -2

# faces
f 3/1/1 2/1/1 1/1/1
f 4/1/1 2/1/1 3/1/1
f 6/1/1 2/1/1 4/1/1
f 7/3/1 6/3/1 5/3/1
f 8/1/1 2/1/1 6/1/1
f 8/3/1 6/3/1 7/3/1
f 9/2/1 8/2/1 7/2/1
f 10/1/1 2/1/1 8/1/1
f 10/2/1 8/2/1 9/2/1
f 11/1/1 2/1/1 10/1/1
f 12/1/1 2/1/1 11/1/1
f 17/1/1 16/1/1 15/1/1
f 18/1/1 16/1/1 17/1/1
f 19/1/1 17/1/1 15/1/1
f 20/1/1 19/1/1 15/1/1
f 22/1/1 14/1/1 13/1/1
f 23/1/1 21/1/1 20/1/1
f 23/1/1 20/1/1 15/1/1
f 24/1/1 22/1/1 13/1/1
f 24/1/1 23/1/1 22/1/1
f 25/1/1 21/1/1 23/1/1
f 25/1/1 23/1/1 24/1/1
f 26/1/2 27/1/2 28/1/2
f 28/1/2 27/1/2 29/1/2
f 26/1/2 28/1/2 30/1/2
f 29/1/2 27/1/2 31/1/2
f 26/1/2 30/1/2 32/1/2
f 30/1/2 31/1/2 32/1/2
f 31/1/2 27/1/2 33/1/2
f 32/1/2 31/1/2 33/1/2
f 36/1/3 35/1/3 34/1/3
f 38/1/3 36/1/3 34/1/3
f 38/1/3 37/1/3 36/1/3
f 39/1/3 37/1/3 38/1/3
f 42/1/3 41/1/3 40/1/3
f 43/1/3 41/1/3 42/1/3
f 47/3/3 45/3/3 44/3/3
f 48/2/3 46/2/3 45/2/3
f 48/3/3 45/3/3 47/3/3
f 49/2/3 46/2/3 48/2/3
f 54/1/3 51/1/3 50/1/3
f 55/1/3 51/1/3 54/1/3
f 56/1/3 53/1/3 52/1/3
f 57/1/3 53/1/3 56/1/3
f 58/1/4 59/1/4 60/1/4
f 60/1/4 59/1/4 61/1/4
f 62/1/4 63/1/4 64/1/4
f 64/1/4 63/1/4 65/1/4
f 68/1/5 67/1/5 66/1/5
f 69/1/5 67/1/5 68/1/5
f 72/3/5 71/3/5 70/3/5
f 73/3/5 71/3/5 72/3/5
f 76/1/5 75/1/5 74/1/5
f 77/1/5 75/1/5 76/1/5
f 78/1/6 79/1/6 80/1/6
f 78/1/6 80/1/6 82/1/6
f 80/1/6 81/1/6 82/1/6
f 82/1/6 81/1/6 83/1/6
f 78/1/6 82/1/6 84/1/6
f 84/1/6 82/1/6 85/1/6
f 86/2/6 87/2/6 88/2/6
f 88/2/6 87/2/6 89/2/6
f 90/1/6 91/1/6 93/1/6
f 92/1/6 93/1/6 94/1/6
f 93/1/6 91/1/6 95/1/6
f 94/1/6 93/1/6 95/1/6
