# MagicaVoxel @ Ephtracy

# group
o 

# material
mtllib Wall_for_door_Ver2.mtl
usemtl palette

# normals
vn -1 0 0
vn 1 0 0
vn 0 0 1
vn 0 0 -1
vn 0 -1 0
vn 0 1 0

# texcoords
vt 0.939453 0.5
vt 0.947266 0.5
vt 0.990234 0.5

# verts
v -2 0 2
v -2 0 -2
v -2 0.1 2
v -2 0.1 -1.9
v -2 2.2 -1.7
v -2 2.2 -1.9
v -2 2.3 -1.7
v -2 2.3 -1.9
v -2 2.4 -1.7
v -2 2.4 -1.9
v -2 4 -1.9
v -2 4 -2
v 1.9 0.1 2
v 1.9 0.1 1.1
v 1.9 0.1 -1
v 1.9 0.1 -1.9
v 1.9 2.9 1.1
v 1.9 2.9 -1
v 1.9 4 2
v 1.9 4 -1.9
v 1.8 2.2 -1.7
v 1.8 2.2 -1.9
v 1.8 2.3 -1.7
v 1.8 2.3 -1.9
v 1.8 2.4 -1.7
v 1.8 2.4 -1.9
v 2 0 2
v 2 0 -2
v 2 0.1 1.1
v 2 0.1 -1
v 2 2.9 1.1
v 2 2.9 -1
v 2 4 2
v 2 4 -2
v -2 0 2
v -2 0.1 2
v 1.9 0.1 2
v 1.9 4 2
v 2 0 2
v 2 4 2
v 1.9 0.1 -1
v 1.9 2.9 -1
v 2 0.1 -1
v 2 2.9 -1
v -2 2.2 -1.7
v -2 2.3 -1.7
v -2 2.4 -1.7
v 1.8 2.2 -1.7
v 1.8 2.3 -1.7
v 1.8 2.4 -1.7
v -2 0.1 -1.9
v -2 2.2 -1.9
v -2 2.4 -1.9
v -2 4 -1.9
v 1.8 2.2 -1.9
v 1.8 2.3 -1.9
v 1.8 2.4 -1.9
v 1.9 0.1 -1.9
v 1.9 4 -1.9
v 1.9 0.1 1.1
v 1.9 2.9 1.1
v 2 0.1 1.1
v 2 2.9 1.1
v -2 0 -2
v -2 4 -2
v 2 0 -2
v 2 4 -2
v -2 0 2
v 2 0 2
v -2 0 -2
v 2 0 -2
v -2 2.2 -1.7
v 1.8 2.2 -1.7
v -2 2.2 -1.9
v 1.8 2.2 -1.9
v 1.9 2.9 1.1
v 2 2.9 1.1
v 1.9 2.9 -1
v 2 2.9 -1
v -2 0.1 2
v 1.9 0.1 2
v 1.9 0.1 1.1
v 2 0.1 1.1
v 1.9 0.1 -1
v 2 0.1 -1
v -2 0.1 -1.9
v 1.9 0.1 -1.9
v -2 2.4 -1.7
v 1.8 2.4 -1.7
v -2 2.4 -1.9
v 1.8 2.4 -1.9
v 1.9 4 2
v 2 4 2
v -2 4 -1.9
v 1.9 4 -1.9
v -2 4 -2
v 2 4 -2

# faces
f 3/1/1 2/1/1 1/1/1
f 4/1/1 2/1/1 3/1/1
f 6/1/1 2/1/1 4/1/1
f 7/3/1 6/3/1 5/3/1
f 8/1/1 2/1/1 6/1/1
f 8/3/1 6/3/1 7/3/1
f 9/2/1 8/2/1 7/2/1
f 10/1/1 2/1/1 8/1/1
f 10/2/1 8/2/1 9/2/1
f 11/1/1 2/1/1 10/1/1
f 12/1/1 2/1/1 11/1/1
f 17/1/1 14/1/1 13/1/1
f 18/1/1 16/1/1 15/1/1
f 19/1/1 17/1/1 13/1/1
f 19/1/1 18/1/1 17/1/1
f 20/1/1 16/1/1 18/1/1
f 20/1/1 18/1/1 19/1/1
f 21/3/2 22/3/2 23/3/2
f 23/3/2 22/3/2 24/3/2
f 23/2/2 24/2/2 25/2/2
f 25/2/2 24/2/2 26/2/2
f 27/1/2 28/1/2 29/1/2
f 29/1/2 28/1/2 30/1/2
f 27/1/2 29/1/2 31/1/2
f 30/1/2 28/1/2 32/1/2
f 27/1/2 31/1/2 33/1/2
f 31/1/2 32/1/2 33/1/2
f 32/1/2 28/1/2 34/1/2
f 33/1/2 32/1/2 34/1/2
f 37/1/3 36/1/3 35/1/3
f 39/1/3 37/1/3 35/1/3
f 39/1/3 38/1/3 37/1/3
f 40/1/3 38/1/3 39/1/3
f 43/1/3 42/1/3 41/1/3
f 44/1/3 42/1/3 43/1/3
f 48/3/3 46/3/3 45/3/3
f 49/2/3 47/2/3 46/2/3
f 49/3/3 46/3/3 48/3/3
f 50/2/3 47/2/3 49/2/3
f 55/1/3 52/1/3 51/1/3
f 57/1/3 54/1/3 53/1/3
f 58/1/3 56/1/3 55/1/3
f 58/1/3 57/1/3 56/1/3
f 58/1/3 55/1/3 51/1/3
f 59/1/3 54/1/3 57/1/3
f 59/1/3 57/1/3 58/1/3
f 60/1/4 61/1/4 62/1/4
f 62/1/4 61/1/4 63/1/4
f 64/1/4 65/1/4 66/1/4
f 66/1/4 65/1/4 67/1/4
f 70/1/5 69/1/5 68/1/5
f 71/1/5 69/1/5 70/1/5
f 74/3/5 73/3/5 72/3/5
f 75/3/5 73/3/5 74/3/5
f 78/1/5 77/1/5 76/1/5
f 79/1/5 77/1/5 78/1/5
f 80/1/6 81/1/6 82/1/6
f 80/1/6 82/1/6 84/1/6
f 82/1/6 83/1/6 84/1/6
f 84/1/6 83/1/6 85/1/6
f 80/1/6 84/1/6 86/1/6
f 86/1/6 84/1/6 87/1/6
f 88/2/6 89/2/6 90/2/6
f 90/2/6 89/2/6 91/2/6
f 92/1/6 93/1/6 95/1/6
f 94/1/6 95/1/6 96/1/6
f 95/1/6 93/1/6 97/1/6
f 96/1/6 95/1/6 97/1/6
