# MagicaVoxel @ Ephtracy

# group
o 

# material
mtllib Deck.mtl
usemtl palette

# normals
vn -1 0 0
vn 1 0 0
vn 0 0 1
vn 0 0 -1
vn 0 -1 0
vn 0 1 0

# texcoords
vt 0.720703 0.5
vt 0.724609 0.5
vt 0.728516 0.5
vt 0.732422 0.5
vt 0.939453 0.5
vt 0.947266 0.5
vt 0.955078 0.5

# verts
v -1.7 0.2 0.5
v -1.7 0.2 0.4
v -1.7 0.2 0.1
v -1.7 0.2 0
v -1.7 0.3 0.5
v -1.7 0.3 0.4
v -1.7 0.3 0.1
v -1.7 0.3 0
v -1.6 0.3 0.5
v -1.6 0.3 0.4
v -1.6 0.3 0.1
v -1.6 0.3 0
v -1.6 0.4 0.4
v -1.6 0.4 0.1
v -1.6 0.5 0.5
v -1.6 0.5 0.3
v -1.6 0.5 0.2
v -1.6 0.5 0
v -1.6 1.8 0.5
v -1.6 1.8 0.3
v -1.6 1.8 0.2
v -1.6 1.8 0.1
v -1.6 1.9 0.4
v -1.6 1.9 0.3
v -1.6 1.9 0.2
v -1.6 1.9 0.1
v -1.6 2 0.5
v -1.6 2 0.4
v -1.6 3.5 0.3
v -1.6 3.5 0.2
v -1.5 1.9 0.4
v -1.5 1.9 0.3
v -1.5 2 0.4
v -1.5 2 0.3
v -1 0.2 0.5
v -1 0.2 0.4
v -1 0.2 0.1
v -1 0.3 0.5
v -1 0.3 0.4
v -1 0.3 0.1
v 0.2 1.9 0.4
v 0.2 1.9 0.3
v 0.2 2 0.4
v 0.2 2 0.3
v 1.4 0.2 0.5
v 1.4 0.2 0.4
v 1.4 0.2 0.1
v 1.4 0.2 0
v 1.4 0.3 0.5
v 1.4 0.3 0.4
v 1.4 0.3 0.1
v 1.4 0.3 0
v 1.5 0.3 0.5
v 1.5 0.3 0.4
v 1.5 0.3 0.1
v 1.5 0.3 0
v 1.5 0.4 0.4
v 1.5 0.4 0.1
v 1.5 0.5 0.5
v 1.5 0.5 0.3
v 1.5 0.5 0.2
v 1.5 0.5 0
v 1.5 1.8 0.3
v 1.5 1.8 0.2
v -1.5 0.3 0.5
v -1.5 0.3 0.4
v -1.5 0.3 0.1
v -1.5 0.3 0
v -1.5 0.4 0.4
v -1.5 0.4 0.1
v -1.5 0.5 0.5
v -1.5 0.5 0.3
v -1.5 0.5 0.2
v -1.5 0.5 0
v -1.5 1.8 0.3
v -1.5 1.8 0.2
v -1.4 0.2 0.5
v -1.4 0.2 0.4
v -1.4 0.2 0.1
v -1.4 0.2 0
v -1.4 0.3 0.5
v -1.4 0.3 0.4
v -1.4 0.3 0.1
v -1.4 0.3 0
v -1.1 1.9 0.4
v -1.1 1.9 0.3
v -1.1 2 0.4
v -1.1 2 0.3
v -0.9 0.2 0.5
v -0.9 0.2 0.4
v -0.9 0.2 0.1
v -0.9 0.3 0.5
v -0.9 0.3 0.4
v -0.9 0.3 0.1
v 0.6 1.9 0.4
v 0.6 1.9 0.3
v 0.6 2 0.4
v 0.6 2 0.3
v 1.6 0.3 0.5
v 1.6 0.3 0.4
v 1.6 0.3 0.1
v 1.6 0.3 0
v 1.6 0.4 0.4
v 1.6 0.4 0.1
v 1.6 0.5 0.5
v 1.6 0.5 0.3
v 1.6 0.5 0.2
v 1.6 0.5 0
v 1.6 1.8 0.5
v 1.6 1.8 0.3
v 1.6 1.8 0.2
v 1.6 1.8 0.1
v 1.6 1.9 0.4
v 1.6 1.9 0.3
v 1.6 1.9 0.2
v 1.6 1.9 0.1
v 1.6 2 0.5
v 1.6 2 0.4
v 1.6 3.5 0.3
v 1.6 3.5 0.2
v 1.7 0.2 0.5
v 1.7 0.2 0.4
v 1.7 0.2 0.1
v 1.7 0.2 0
v 1.7 0.3 0.5
v 1.7 0.3 0.4
v 1.7 0.3 0.1
v 1.7 0.3 0
v -1.7 0.2 0.5
v -1.7 0.3 0.5
v -1.6 0.2 0.5
v -1.6 0.3 0.5
v -1.6 0.5 0.5
v -1.6 1.8 0.5
v -1.6 2 0.5
v -1.5 0.2 0.5
v -1.5 0.3 0.5
v -1.5 0.5 0.5
v -1.4 0.2 0.5
v -1.4 0.3 0.5
v -1 0.2 0.5
v -1 0.3 0.5
v -0.9 0.2 0.5
v -0.9 0.3 0.5
v 1.4 0.2 0.5
v 1.4 0.3 0.5
v 1.5 0.2 0.5
v 1.5 0.3 0.5
v 1.5 0.5 0.5
v 1.6 0.2 0.5
v 1.6 0.3 0.5
v 1.6 0.5 0.5
v 1.6 1.8 0.5
v 1.6 2 0.5
v 1.7 0.2 0.5
v 1.7 0.3 0.5
v -1.6 0.5 0.3
v -1.6 1.8 0.3
v -1.6 1.9 0.3
v -1.6 3.5 0.3
v -1.5 0.5 0.3
v -1.5 1.8 0.3
v -1.5 1.9 0.3
v -1.5 2 0.3
v -1.5 3.4 0.3
v -1.2 2 0.3
v -1.1 1.9 0.3
v -1.1 2 0.3
v 0.2 1.9 0.3
v 0.2 2 0.3
v 0.3 2 0.3
v 0.6 1.9 0.3
v 0.6 2 0.3
v 1.5 0.5 0.3
v 1.5 1.8 0.3
v 1.5 2 0.3
v 1.5 3.4 0.3
v 1.6 0.5 0.3
v 1.6 1.8 0.3
v 1.6 1.9 0.3
v 1.6 3.5 0.3
v -1.7 0.2 0.1
v -1.7 0.3 0.1
v -1.6 0.2 0.1
v -1.6 0.3 0.1
v -1.6 0.4 0.1
v -1.5 0.2 0.1
v -1.5 0.3 0.1
v -1.5 0.4 0.1
v -1.4 0.2 0.1
v -1.4 0.3 0.1
v 1.4 0.2 0.1
v 1.4 0.3 0.1
v 1.5 0.2 0.1
v 1.5 0.3 0.1
v 1.5 0.4 0.1
v 1.6 0.2 0.1
v 1.6 0.3 0.1
v 1.6 0.4 0.1
v 1.7 0.2 0.1
v 1.7 0.3 0.1
v -1.7 0.2 0.4
v -1.7 0.3 0.4
v -1.6 0.2 0.4
v -1.6 0.3 0.4
v -1.6 0.4 0.4
v -1.6 1.9 0.4
v -1.6 2 0.4
v -1.5 0.2 0.4
v -1.5 0.3 0.4
v -1.5 0.4 0.4
v -1.5 1.9 0.4
v -1.5 2 0.4
v -1.4 0.2 0.4
v -1.4 0.3 0.4
v -1.1 1.9 0.4
v -1.1 2 0.4
v 0.2 1.9 0.4
v 0.2 2 0.4
v 0.6 1.9 0.4
v 0.6 2 0.4
v 1.4 0.2 0.4
v 1.4 0.3 0.4
v 1.5 0.2 0.4
v 1.5 0.3 0.4
v 1.5 0.4 0.4
v 1.6 0.2 0.4
v 1.6 0.3 0.4
v 1.6 0.4 0.4
v 1.6 1.9 0.4
v 1.6 2 0.4
v 1.7 0.2 0.4
v 1.7 0.3 0.4
v -1.6 0.5 0.2
v -1.6 1.8 0.2
v -1.6 1.9 0.2
v -1.6 3.5 0.2
v -1.5 0.5 0.2
v -1.5 1.8 0.2
v -1.5 2 0.2
v -1.5 3.4 0.2
v 1.5 0.5 0.2
v 1.5 1.8 0.2
v 1.5 2 0.2
v 1.5 3.4 0.2
v 1.6 0.5 0.2
v 1.6 1.8 0.2
v 1.6 1.9 0.2
v 1.6 3.5 0.2
v -1.6 1.8 0.1
v -1.6 1.9 0.1
v -1 0.2 0.1
v -1 0.3 0.1
v -0.9 0.2 0.1
v -0.9 0.3 0.1
v 1.6 1.8 0.1
v 1.6 1.9 0.1
v -1.7 0.2 0
v -1.7 0.3 0
v -1.6 0.2 0
v -1.6 0.3 0
v -1.6 0.5 0
v -1.5 0.2 0
v -1.5 0.3 0
v -1.5 0.5 0
v -1.4 0.2 0
v -1.4 0.3 0
v 1.4 0.2 0
v 1.4 0.3 0
v 1.5 0.2 0
v 1.5 0.3 0
v 1.5 0.5 0
v 1.6 0.2 0
v 1.6 0.3 0
v 1.6 0.5 0
v 1.7 0.2 0
v 1.7 0.3 0
v -1.7 0.2 0.5
v -1.6 0.2 0.5
v -1.5 0.2 0.5
v -1.4 0.2 0.5
v -1 0.2 0.5
v -0.9 0.2 0.5
v 1.4 0.2 0.5
v 1.5 0.2 0.5
v 1.6 0.2 0.5
v 1.7 0.2 0.5
v -1.7 0.2 0.4
v -1.6 0.2 0.4
v -1.5 0.2 0.4
v -1.4 0.2 0.4
v -1 0.2 0.4
v -0.9 0.2 0.4
v 1.4 0.2 0.4
v 1.5 0.2 0.4
v 1.6 0.2 0.4
v 1.7 0.2 0.4
v -1.7 0.2 0.1
v -1.6 0.2 0.1
v -1.5 0.2 0.1
v -1.4 0.2 0.1
v -1 0.2 0.1
v -0.9 0.2 0.1
v 1.4 0.2 0.1
v 1.5 0.2 0.1
v 1.6 0.2 0.1
v 1.7 0.2 0.1
v -1.7 0.2 0
v -1.6 0.2 0
v -1.5 0.2 0
v -1.4 0.2 0
v 1.4 0.2 0
v 1.5 0.2 0
v 1.6 0.2 0
v 1.7 0.2 0
v -1.6 0.4 0.4
v -1.5 0.4 0.4
v 1.5 0.4 0.4
v 1.6 0.4 0.4
v -1.6 0.4 0.1
v -1.5 0.4 0.1
v 1.5 0.4 0.1
v 1.6 0.4 0.1
v -1.6 1.8 0.5
v 1.6 1.8 0.5
v -1.6 1.8 0.3
v -1.5 1.8 0.3
v 1.5 1.8 0.3
v 1.6 1.8 0.3
v -1.6 1.8 0.2
v -1.5 1.8 0.2
v 1.5 1.8 0.2
v 1.6 1.8 0.2
v -1.6 1.8 0.1
v 1.6 1.8 0.1
v -1.7 0.3 0.5
v -1.6 0.3 0.5
v -1.5 0.3 0.5
v -1.4 0.3 0.5
v -1 0.3 0.5
v -0.9 0.3 0.5
v 1.4 0.3 0.5
v 1.5 0.3 0.5
v 1.6 0.3 0.5
v 1.7 0.3 0.5
v -1.7 0.3 0.4
v -1.6 0.3 0.4
v -1.5 0.3 0.4
v -1.4 0.3 0.4
v -1 0.3 0.4
v -0.9 0.3 0.4
v 1.4 0.3 0.4
v 1.5 0.3 0.4
v 1.6 0.3 0.4
v 1.7 0.3 0.4
v -1.7 0.3 0.1
v -1.6 0.3 0.1
v -1.5 0.3 0.1
v -1.4 0.3 0.1
v -1 0.3 0.1
v -0.9 0.3 0.1
v 1.4 0.3 0.1
v 1.5 0.3 0.1
v 1.6 0.3 0.1
v 1.7 0.3 0.1
v -1.7 0.3 0
v -1.6 0.3 0
v -1.5 0.3 0
v -1.4 0.3 0
v 1.4 0.3 0
v 1.5 0.3 0
v 1.6 0.3 0
v 1.7 0.3 0
v -1.6 0.5 0.5
v -1.5 0.5 0.5
v 1.5 0.5 0.5
v 1.6 0.5 0.5
v -1.6 0.5 0.3
v -1.5 0.5 0.3
v 1.5 0.5 0.3
v 1.6 0.5 0.3
v -1.6 0.5 0.2
v -1.5 0.5 0.2
v 1.5 0.5 0.2
v 1.6 0.5 0.2
v -1.6 0.5 0
v -1.5 0.5 0
v 1.5 0.5 0
v 1.6 0.5 0
v -1.6 1.9 0.4
v -1.5 1.9 0.4
v -1.1 1.9 0.4
v 0.2 1.9 0.4
v 0.6 1.9 0.4
v 1.6 1.9 0.4
v -1.6 1.9 0.3
v -1.5 1.9 0.3
v -1.1 1.9 0.3
v 0.2 1.9 0.3
v 0.6 1.9 0.3
v 1.6 1.9 0.3
v -1.6 1.9 0.2
v 1.6 1.9 0.2
v -1.6 1.9 0.1
v 1.6 1.9 0.1
v -1.6 2 0.5
v 1.6 2 0.5
v -1.6 2 0.4
v -1.5 2 0.4
v -1.2 2 0.4
v -1.1 2 0.4
v 0.2 2 0.4
v 0.3 2 0.4
v 0.6 2 0.4
v 1.6 2 0.4
v -1.5 2 0.3
v -1.2 2 0.3
v -1.1 2 0.3
v 0.2 2 0.3
v 0.3 2 0.3
v 0.6 2 0.3
v -1.6 3.5 0.3
v 1.6 3.5 0.3
v -1.6 3.5 0.2
v 1.6 3.5 0.2

# faces
f 5/7/1 2/7/1 1/7/1
f 6/7/1 2/7/1 5/7/1
f 7/7/1 4/7/1 3/7/1
f 8/7/1 4/7/1 7/7/1
f 13/6/1 10/6/1 9/6/1
f 14/6/1 12/6/1 11/6/1
f 15/6/1 13/6/1 9/6/1
f 15/6/1 14/6/1 13/6/1
f 16/6/1 14/6/1 15/6/1
f 17/6/1 14/6/1 16/6/1
f 18/6/1 12/6/1 14/6/1
f 18/6/1 14/6/1 17/6/1
f 20/6/1 17/6/1 16/6/1
f 21/6/1 17/6/1 20/6/1
f 23/6/1 20/6/1 19/6/1
f 23/6/1 22/6/1 21/6/1
f 23/6/1 21/6/1 20/6/1
f 24/6/1 22/6/1 23/6/1
f 25/6/1 22/6/1 24/6/1
f 26/6/1 22/6/1 25/6/1
f 27/6/1 23/6/1 19/6/1
f 28/6/1 23/6/1 27/6/1
f 29/6/1 25/6/1 24/6/1
f 30/6/1 25/6/1 29/6/1
f 33/1/1 32/1/1 31/1/1
f 34/1/1 32/1/1 33/1/1
f 38/4/1 36/4/1 35/4/1
f 39/1/1 37/1/1 36/1/1
f 39/4/1 36/4/1 38/4/1
f 40/1/1 37/1/1 39/1/1
f 43/3/1 42/3/1 41/3/1
f 44/3/1 42/3/1 43/3/1
f 49/7/1 46/7/1 45/7/1
f 50/7/1 46/7/1 49/7/1
f 51/7/1 48/7/1 47/7/1
f 52/7/1 48/7/1 51/7/1
f 57/6/1 54/6/1 53/6/1
f 58/6/1 56/6/1 55/6/1
f 59/6/1 57/6/1 53/6/1
f 59/6/1 58/6/1 57/6/1
f 60/6/1 58/6/1 59/6/1
f 61/6/1 58/6/1 60/6/1
f 62/6/1 56/6/1 58/6/1
f 62/6/1 58/6/1 61/6/1
f 63/6/1 61/6/1 60/6/1
f 64/6/1 61/6/1 63/6/1
f 65/6/2 66/6/2 69/6/2
f 67/6/2 68/6/2 70/6/2
f 65/6/2 69/6/2 71/6/2
f 69/6/2 70/6/2 71/6/2
f 71/6/2 70/6/2 72/6/2
f 72/6/2 70/6/2 73/6/2
f 70/6/2 68/6/2 74/6/2
f 73/6/2 70/6/2 74/6/2
f 72/6/2 73/6/2 75/6/2
f 75/6/2 73/6/2 76/6/2
f 77/7/2 78/7/2 81/7/2
f 81/7/2 78/7/2 82/7/2
f 79/7/2 80/7/2 83/7/2
f 83/7/2 80/7/2 84/7/2
f 85/2/2 86/2/2 87/2/2
f 87/2/2 86/2/2 88/2/2
f 89/4/2 90/4/2 92/4/2
f 90/1/2 91/1/2 93/1/2
f 92/4/2 90/4/2 93/4/2
f 93/1/2 91/1/2 94/1/2
f 95/1/2 96/1/2 97/1/2
f 97/1/2 96/1/2 98/1/2
f 99/6/2 100/6/2 103/6/2
f 101/6/2 102/6/2 104/6/2
f 99/6/2 103/6/2 105/6/2
f 103/6/2 104/6/2 105/6/2
f 105/6/2 104/6/2 106/6/2
f 106/6/2 104/6/2 107/6/2
f 104/6/2 102/6/2 108/6/2
f 107/6/2 104/6/2 108/6/2
f 106/6/2 107/6/2 110/6/2
f 110/6/2 107/6/2 111/6/2
f 109/6/2 110/6/2 113/6/2
f 111/6/2 112/6/2 113/6/2
f 110/6/2 111/6/2 113/6/2
f 113/6/2 112/6/2 114/6/2
f 114/6/2 112/6/2 115/6/2
f 115/6/2 112/6/2 116/6/2
f 109/6/2 113/6/2 117/6/2
f 117/6/2 113/6/2 118/6/2
f 114/6/2 115/6/2 119/6/2
f 119/6/2 115/6/2 120/6/2
f 121/7/2 122/7/2 125/7/2
f 125/7/2 122/7/2 126/7/2
f 123/7/2 124/7/2 127/7/2
f 127/7/2 124/7/2 128/7/2
f 131/7/3 130/7/3 129/7/3
f 132/7/3 130/7/3 131/7/3
f 136/6/3 132/6/3 131/6/3
f 136/6/3 133/6/3 132/6/3
f 137/6/3 133/6/3 136/6/3
f 138/6/3 133/6/3 137/6/3
f 139/7/3 137/7/3 136/7/3
f 140/7/3 137/7/3 139/7/3
f 143/4/3 142/4/3 141/4/3
f 144/4/3 142/4/3 143/4/3
f 147/7/3 146/7/3 145/7/3
f 148/7/3 146/7/3 147/7/3
f 150/6/3 148/6/3 147/6/3
f 150/6/3 149/6/3 148/6/3
f 151/6/3 149/6/3 150/6/3
f 152/6/3 149/6/3 151/6/3
f 153/6/3 135/6/3 134/6/3
f 154/6/3 135/6/3 153/6/3
f 155/7/3 151/7/3 150/7/3
f 156/7/3 151/7/3 155/7/3
f 161/6/3 158/6/3 157/6/3
f 162/6/3 158/6/3 161/6/3
f 163/6/3 160/6/3 159/6/3
f 164/6/3 160/6/3 163/6/3
f 165/6/3 160/6/3 164/6/3
f 166/5/3 165/5/3 164/5/3
f 168/5/3 165/5/3 166/5/3
f 169/6/3 168/6/3 167/6/3
f 170/5/3 165/5/3 168/5/3
f 170/6/3 168/6/3 169/6/3
f 171/5/3 165/5/3 170/5/3
f 173/5/3 165/5/3 171/5/3
f 176/5/3 165/5/3 173/5/3
f 176/6/3 173/6/3 172/6/3
f 177/6/3 160/6/3 165/6/3
f 177/5/3 165/5/3 176/5/3
f 178/6/3 175/6/3 174/6/3
f 179/6/3 175/6/3 178/6/3
f 180/6/3 176/6/3 172/6/3
f 180/6/3 177/6/3 176/6/3
f 181/6/3 160/6/3 177/6/3
f 181/6/3 177/6/3 180/6/3
f 184/7/3 183/7/3 182/7/3
f 185/7/3 183/7/3 184/7/3
f 187/6/3 185/6/3 184/6/3
f 187/6/3 186/6/3 185/6/3
f 188/6/3 186/6/3 187/6/3
f 189/6/3 186/6/3 188/6/3
f 190/7/3 188/7/3 187/7/3
f 191/7/3 188/7/3 190/7/3
f 194/7/3 193/7/3 192/7/3
f 195/7/3 193/7/3 194/7/3
f 197/6/3 195/6/3 194/6/3
f 197/6/3 196/6/3 195/6/3
f 198/6/3 196/6/3 197/6/3
f 199/6/3 196/6/3 198/6/3
f 200/7/3 198/7/3 197/7/3
f 201/7/3 198/7/3 200/7/3
f 202/7/4 203/7/4 204/7/4
f 204/7/4 203/7/4 205/7/4
f 204/6/4 205/6/4 209/6/4
f 205/6/4 206/6/4 209/6/4
f 209/6/4 206/6/4 210/6/4
f 210/6/4 206/6/4 211/6/4
f 207/6/4 208/6/4 212/6/4
f 212/6/4 208/6/4 213/6/4
f 209/7/4 210/7/4 214/7/4
f 214/7/4 210/7/4 215/7/4
f 216/6/4 217/6/4 218/6/4
f 218/6/4 217/6/4 219/6/4
f 222/7/4 223/7/4 224/7/4
f 224/7/4 223/7/4 225/7/4
f 224/6/4 225/6/4 227/6/4
f 225/6/4 226/6/4 227/6/4
f 227/6/4 226/6/4 228/6/4
f 228/6/4 226/6/4 229/6/4
f 220/6/4 221/6/4 230/6/4
f 230/6/4 221/6/4 231/6/4
f 227/7/4 228/7/4 232/7/4
f 232/7/4 228/7/4 233/7/4
f 234/6/4 235/6/4 238/6/4
f 238/6/4 235/6/4 239/6/4
f 236/6/4 237/6/4 240/6/4
f 240/6/4 237/6/4 241/6/4
f 236/6/4 240/6/4 244/6/4
f 240/5/4 241/5/4 244/5/4
f 241/6/4 237/6/4 245/6/4
f 244/5/4 241/5/4 245/5/4
f 242/6/4 243/6/4 246/6/4
f 246/6/4 243/6/4 247/6/4
f 236/6/4 244/6/4 248/6/4
f 244/6/4 245/6/4 248/6/4
f 245/6/4 237/6/4 249/6/4
f 248/6/4 245/6/4 249/6/4
f 252/1/4 253/1/4 254/1/4
f 254/1/4 253/1/4 255/1/4
f 250/6/4 251/6/4 256/6/4
f 256/6/4 251/6/4 257/6/4
f 258/7/4 259/7/4 260/7/4
f 260/7/4 259/7/4 261/7/4
f 260/6/4 261/6/4 263/6/4
f 261/6/4 262/6/4 263/6/4
f 263/6/4 262/6/4 264/6/4
f 264/6/4 262/6/4 265/6/4
f 263/7/4 264/7/4 266/7/4
f 266/7/4 264/7/4 267/7/4
f 268/7/4 269/7/4 270/7/4
f 270/7/4 269/7/4 271/7/4
f 270/6/4 271/6/4 273/6/4
f 271/6/4 272/6/4 273/6/4
f 273/6/4 272/6/4 274/6/4
f 274/6/4 272/6/4 275/6/4
f 273/7/4 274/7/4 276/7/4
f 276/7/4 274/7/4 277/7/4
f 288/7/5 279/7/5 278/7/5
f 289/6/5 280/6/5 279/6/5
f 289/7/5 279/7/5 288/7/5
f 290/7/5 281/7/5 280/7/5
f 290/6/5 280/6/5 289/6/5
f 291/7/5 281/7/5 290/7/5
f 292/4/5 283/4/5 282/4/5
f 293/4/5 283/4/5 292/4/5
f 294/7/5 285/7/5 284/7/5
f 295/6/5 286/6/5 285/6/5
f 295/7/5 285/7/5 294/7/5
f 296/7/5 287/7/5 286/7/5
f 296/6/5 286/6/5 295/6/5
f 297/7/5 287/7/5 296/7/5
f 302/1/5 293/1/5 292/1/5
f 303/1/5 293/1/5 302/1/5
f 308/7/5 299/7/5 298/7/5
f 309/6/5 300/6/5 299/6/5
f 309/7/5 299/7/5 308/7/5
f 310/7/5 301/7/5 300/7/5
f 310/6/5 300/6/5 309/6/5
f 311/7/5 301/7/5 310/7/5
f 312/7/5 305/7/5 304/7/5
f 313/6/5 306/6/5 305/6/5
f 313/7/5 305/7/5 312/7/5
f 314/7/5 307/7/5 306/7/5
f 314/6/5 306/6/5 313/6/5
f 315/7/5 307/7/5 314/7/5
f 320/6/5 317/6/5 316/6/5
f 321/6/5 317/6/5 320/6/5
f 322/6/5 319/6/5 318/6/5
f 323/6/5 319/6/5 322/6/5
f 326/6/5 325/6/5 324/6/5
f 327/6/5 325/6/5 326/6/5
f 328/6/5 325/6/5 327/6/5
f 329/6/5 325/6/5 328/6/5
f 331/6/5 328/6/5 327/6/5
f 332/6/5 328/6/5 331/6/5
f 334/6/5 331/6/5 330/6/5
f 334/6/5 333/6/5 332/6/5
f 334/6/5 332/6/5 331/6/5
f 335/6/5 333/6/5 334/6/5
f 336/7/6 337/7/6 346/7/6
f 346/7/6 337/7/6 347/7/6
f 338/7/6 339/7/6 348/7/6
f 348/7/6 339/7/6 349/7/6
f 340/4/6 341/4/6 350/4/6
f 350/4/6 341/4/6 351/4/6
f 342/7/6 343/7/6 352/7/6
f 352/7/6 343/7/6 353/7/6
f 344/7/6 345/7/6 354/7/6
f 354/7/6 345/7/6 355/7/6
f 350/1/6 351/1/6 360/1/6
f 360/1/6 351/1/6 361/1/6
f 356/7/6 357/7/6 366/7/6
f 366/7/6 357/7/6 367/7/6
f 358/7/6 359/7/6 368/7/6
f 368/7/6 359/7/6 369/7/6
f 362/7/6 363/7/6 370/7/6
f 370/7/6 363/7/6 371/7/6
f 364/7/6 365/7/6 372/7/6
f 372/7/6 365/7/6 373/7/6
f 374/6/6 375/6/6 378/6/6
f 378/6/6 375/6/6 379/6/6
f 376/6/6 377/6/6 380/6/6
f 380/6/6 377/6/6 381/6/6
f 382/6/6 383/6/6 386/6/6
f 386/6/6 383/6/6 387/6/6
f 384/6/6 385/6/6 388/6/6
f 388/6/6 385/6/6 389/6/6
f 390/6/6 391/6/6 396/6/6
f 396/6/6 391/6/6 397/6/6
f 392/6/6 393/6/6 398/6/6
f 398/6/6 393/6/6 399/6/6
f 394/6/6 395/6/6 400/6/6
f 400/6/6 395/6/6 401/6/6
f 402/6/6 403/6/6 404/6/6
f 404/6/6 403/6/6 405/6/6
f 406/6/6 407/6/6 408/6/6
f 408/6/6 407/6/6 409/6/6
f 409/6/6 407/6/6 410/6/6
f 410/6/6 407/6/6 411/6/6
f 411/6/6 407/6/6 412/6/6
f 412/6/6 407/6/6 413/6/6
f 413/6/6 407/6/6 414/6/6
f 414/6/6 407/6/6 415/6/6
f 409/1/6 410/1/6 416/1/6
f 410/2/6 411/2/6 417/2/6
f 416/1/6 410/1/6 417/1/6
f 417/2/6 411/2/6 418/2/6
f 412/3/6 413/3/6 419/3/6
f 413/1/6 414/1/6 420/1/6
f 419/3/6 413/3/6 420/3/6
f 420/1/6 414/1/6 421/1/6
f 422/6/6 423/6/6 424/6/6
f 424/6/6 423/6/6 425/6/6
