# MagicaVoxel @ Ephtracy

# group
o 

# material
mtllib Table_for_texturing-1.mtl
usemtl palette

# normals
vn -1 0 0
vn 1 0 0
vn 0 0 1
vn 0 0 -1
vn 0 -1 0
vn 0 1 0

# texcoords
vt 0.701172 0.5
vt 0.705078 0.5
vt 0.947266 0.5

# verts
v -1.2 0 2
v -1.2 0 1.8
v -1.2 0 -1.8
v -1.2 0 -2
v -1.2 2.2 2
v -1.2 2.2 1.8
v -1.2 2.2 -1.8
v -1.2 2.2 -2
v -1.2 2.4 2
v -1.2 2.4 -2
v -1.1 2.1 1.8
v -1.1 2.1 -1.8
v -1.1 2.2 1.8
v -1.1 2.2 -1.8
v 0.6 0 2
v 0.6 0 1.8
v 0.6 0 -1.8
v 0.6 0 -2
v 0.6 2.1 1.9
v 0.6 2.1 1.8
v 0.6 2.1 -1.8
v 0.6 2.1 -1.9
v 0.6 2.2 2
v 0.6 2.2 1.9
v 0.6 2.2 -1.9
v 0.6 2.2 -2
v 0.6 2.3 1.8
v 0.6 2.3 -1.8
v 0.7 2.3 1.9
v 0.7 2.3 -1.9
v 0.7 2.4 1.9
v 0.7 2.4 -1.9
v -1.1 2.3 1.9
v -1.1 2.3 -1.9
v -1.1 2.4 1.9
v -1.1 2.4 -1.9
v -1 0 2
v -1 0 1.8
v -1 0 -1.8
v -1 0 -2
v -1 2.1 1.9
v -1 2.1 1.8
v -1 2.1 -1.8
v -1 2.1 -1.9
v -1 2.2 2
v -1 2.2 1.9
v -1 2.2 -1.9
v -1 2.2 -2
v -1 2.3 1.8
v -1 2.3 -1.8
v 0.7 2.1 1.8
v 0.7 2.1 -1.8
v 0.7 2.2 1.8
v 0.7 2.2 -1.8
v 0.8 0 2
v 0.8 0 1.8
v 0.8 0 -1.8
v 0.8 0 -2
v 0.8 2.2 2
v 0.8 2.2 1.8
v 0.8 2.2 -1.8
v 0.8 2.2 -2
v 0.8 2.4 2
v 0.8 2.4 -2
v -1.2 0 2
v -1.2 2.2 2
v -1.2 2.4 2
v -1 0 2
v -1 2.2 2
v 0.6 0 2
v 0.6 2.2 2
v 0.8 0 2
v 0.8 2.2 2
v 0.8 2.4 2
v -1 2.1 1.9
v -1 2.2 1.9
v 0.6 2.1 1.9
v 0.6 2.2 1.9
v -1.2 0 -1.8
v -1.2 2.2 -1.8
v -1.1 2.1 -1.8
v -1.1 2.2 -1.8
v -1 0 -1.8
v -1 2.1 -1.8
v -1 2.3 -1.8
v 0.6 0 -1.8
v 0.6 2.1 -1.8
v 0.6 2.3 -1.8
v 0.7 2.1 -1.8
v 0.7 2.2 -1.8
v 0.8 0 -1.8
v 0.8 2.2 -1.8
v -1.1 2.3 -1.9
v -1.1 2.4 -1.9
v 0.7 2.3 -1.9
v 0.7 2.4 -1.9
v -1.1 2.3 1.9
v -1.1 2.4 1.9
v 0.7 2.3 1.9
v 0.7 2.4 1.9
v -1.2 0 1.8
v -1.2 2.2 1.8
v -1.1 2.1 1.8
v -1.1 2.2 1.8
v -1 0 1.8
v -1 2.1 1.8
v -1 2.3 1.8
v 0.6 0 1.8
v 0.6 2.1 1.8
v 0.6 2.3 1.8
v 0.7 2.1 1.8
v 0.7 2.2 1.8
v 0.8 0 1.8
v 0.8 2.2 1.8
v -1 2.1 -1.9
v -1 2.2 -1.9
v 0.6 2.1 -1.9
v 0.6 2.2 -1.9
v -1.2 0 -2
v -1.2 2.2 -2
v -1.2 2.4 -2
v -1 0 -2
v -1 2.2 -2
v 0.6 0 -2
v 0.6 2.2 -2
v 0.8 0 -2
v 0.8 2.2 -2
v 0.8 2.4 -2
v -1.2 0 2
v -1 0 2
v 0.6 0 2
v 0.8 0 2
v -1.2 0 1.8
v -1 0 1.8
v 0.6 0 1.8
v 0.8 0 1.8
v -1.2 0 -1.8
v -1 0 -1.8
v 0.6 0 -1.8
v 0.8 0 -1.8
v -1.2 0 -2
v -1 0 -2
v 0.6 0 -2
v 0.8 0 -2
v -1 2.1 1.9
v 0.6 2.1 1.9
v -1.1 2.1 1.8
v -1 2.1 1.8
v 0.6 2.1 1.8
v 0.7 2.1 1.8
v -1.1 2.1 -1.8
v -1 2.1 -1.8
v 0.6 2.1 -1.8
v 0.7 2.1 -1.8
v -1 2.1 -1.9
v 0.6 2.1 -1.9
v -1 2.2 2
v 0.6 2.2 2
v -1 2.2 1.9
v 0.6 2.2 1.9
v -1.2 2.2 1.8
v -1.1 2.2 1.8
v 0.7 2.2 1.8
v 0.8 2.2 1.8
v -1.2 2.2 -1.8
v -1.1 2.2 -1.8
v 0.7 2.2 -1.8
v 0.8 2.2 -1.8
v -1 2.2 -1.9
v 0.6 2.2 -1.9
v -1 2.2 -2
v 0.6 2.2 -2
v -1.1 2.3 1.9
v 0.7 2.3 1.9
v -1 2.3 1.8
v 0.6 2.3 1.8
v -1 2.3 -1.8
v 0.6 2.3 -1.8
v -1.1 2.3 -1.9
v 0.7 2.3 -1.9
v -1.2 2.4 2
v 0.8 2.4 2
v -1.1 2.4 1.9
v 0.7 2.4 1.9
v -1.1 2.4 -1.9
v 0.7 2.4 -1.9
v -1.2 2.4 -2
v 0.8 2.4 -2

# faces
f 5/2/1 2/2/1 1/2/1
f 6/2/1 2/2/1 5/2/1
f 7/2/1 4/2/1 3/2/1
f 8/2/1 4/2/1 7/2/1
f 9/3/1 6/3/1 5/3/1
f 9/3/1 7/3/1 6/3/1
f 9/3/1 8/3/1 7/3/1
f 10/3/1 8/3/1 9/3/1
f 13/1/1 12/1/1 11/1/1
f 14/1/1 12/1/1 13/1/1
f 19/2/1 16/2/1 15/2/1
f 20/2/1 16/2/1 19/2/1
f 21/2/1 18/2/1 17/2/1
f 22/2/1 18/2/1 21/2/1
f 23/2/1 19/2/1 15/2/1
f 24/2/1 19/2/1 23/2/1
f 25/2/1 18/2/1 22/2/1
f 26/2/1 18/2/1 25/2/1
f 27/1/1 21/1/1 20/1/1
f 28/1/1 21/1/1 27/1/1
f 31/3/1 30/3/1 29/3/1
f 32/3/1 30/3/1 31/3/1
f 33/3/2 34/3/2 35/3/2
f 35/3/2 34/3/2 36/3/2
f 37/2/2 38/2/2 41/2/2
f 41/2/2 38/2/2 42/2/2
f 39/2/2 40/2/2 43/2/2
f 43/2/2 40/2/2 44/2/2
f 37/2/2 41/2/2 45/2/2
f 45/2/2 41/2/2 46/2/2
f 44/2/2 40/2/2 47/2/2
f 47/2/2 40/2/2 48/2/2
f 42/1/2 43/1/2 49/1/2
f 49/1/2 43/1/2 50/1/2
f 51/1/2 52/1/2 53/1/2
f 53/1/2 52/1/2 54/1/2
f 55/2/2 56/2/2 59/2/2
f 59/2/2 56/2/2 60/2/2
f 57/2/2 58/2/2 61/2/2
f 61/2/2 58/2/2 62/2/2
f 59/3/2 60/3/2 63/3/2
f 60/3/2 61/3/2 63/3/2
f 61/3/2 62/3/2 63/3/2
f 63/3/2 62/3/2 64/3/2
f 68/2/3 66/2/3 65/2/3
f 69/3/3 67/3/3 66/3/3
f 69/2/3 66/2/3 68/2/3
f 71/3/3 67/3/3 69/3/3
f 72/2/3 71/2/3 70/2/3
f 73/3/3 67/3/3 71/3/3
f 73/2/3 71/2/3 72/2/3
f 74/3/3 67/3/3 73/3/3
f 77/1/3 76/1/3 75/1/3
f 78/1/3 76/1/3 77/1/3
f 81/2/3 80/2/3 79/2/3
f 82/2/3 80/2/3 81/2/3
f 83/2/3 81/2/3 79/2/3
f 84/2/3 81/2/3 83/2/3
f 87/1/3 85/1/3 84/1/3
f 88/1/3 85/1/3 87/1/3
f 89/2/3 87/2/3 86/2/3
f 91/2/3 89/2/3 86/2/3
f 91/2/3 90/2/3 89/2/3
f 92/2/3 90/2/3 91/2/3
f 95/3/3 94/3/3 93/3/3
f 96/3/3 94/3/3 95/3/3
f 97/3/4 98/3/4 99/3/4
f 99/3/4 98/3/4 100/3/4
f 101/2/4 102/2/4 103/2/4
f 103/2/4 102/2/4 104/2/4
f 101/2/4 103/2/4 105/2/4
f 105/2/4 103/2/4 106/2/4
f 106/1/4 107/1/4 109/1/4
f 109/1/4 107/1/4 110/1/4
f 108/2/4 109/2/4 111/2/4
f 108/2/4 111/2/4 113/2/4
f 111/2/4 112/2/4 113/2/4
f 113/2/4 112/2/4 114/2/4
f 115/1/4 116/1/4 117/1/4
f 117/1/4 116/1/4 118/1/4
f 119/2/4 120/2/4 122/2/4
f 120/3/4 121/3/4 123/3/4
f 122/2/4 120/2/4 123/2/4
f 123/3/4 121/3/4 125/3/4
f 124/2/4 125/2/4 126/2/4
f 125/3/4 121/3/4 127/3/4
f 126/2/4 125/2/4 127/2/4
f 127/3/4 121/3/4 128/3/4
f 133/2/5 130/2/5 129/2/5
f 134/2/5 130/2/5 133/2/5
f 135/2/5 132/2/5 131/2/5
f 136/2/5 132/2/5 135/2/5
f 141/2/5 138/2/5 137/2/5
f 142/2/5 138/2/5 141/2/5
f 143/2/5 140/2/5 139/2/5
f 144/2/5 140/2/5 143/2/5
f 148/1/5 146/1/5 145/1/5
f 149/1/5 146/1/5 148/1/5
f 151/1/5 148/1/5 147/1/5
f 152/1/5 148/1/5 151/1/5
f 153/1/5 150/1/5 149/1/5
f 154/1/5 150/1/5 153/1/5
f 155/1/5 153/1/5 152/1/5
f 156/1/5 153/1/5 155/1/5
f 159/3/5 158/3/5 157/3/5
f 160/3/5 158/3/5 159/3/5
f 165/3/5 162/3/5 161/3/5
f 166/3/5 162/3/5 165/3/5
f 167/3/5 164/3/5 163/3/5
f 168/3/5 164/3/5 167/3/5
f 171/3/5 170/3/5 169/3/5
f 172/3/5 170/3/5 171/3/5
f 173/1/6 174/1/6 175/1/6
f 175/1/6 174/1/6 176/1/6
f 173/1/6 175/1/6 177/1/6
f 176/1/6 174/1/6 178/1/6
f 173/1/6 177/1/6 179/1/6
f 177/1/6 178/1/6 179/1/6
f 178/1/6 174/1/6 180/1/6
f 179/1/6 178/1/6 180/1/6
f 181/3/6 182/3/6 183/3/6
f 183/3/6 182/3/6 184/3/6
f 181/3/6 183/3/6 185/3/6
f 184/3/6 182/3/6 186/3/6
f 181/3/6 185/3/6 187/3/6
f 185/3/6 186/3/6 187/3/6
f 186/3/6 182/3/6 188/3/6
f 187/3/6 186/3/6 188/3/6
