# MagicaVoxel @ Ephtracy

# group
o 

# material
mtllib Wall_with_door_Open_ver_1.mtl
usemtl palette

# normals
vn -1 0 0
vn 1 0 0
vn 0 0 1
vn 0 0 -1
vn 0 -1 0
vn 0 1 0

# texcoords
vt 0.783203 0.5
vt 0.787109 0.5
vt 0.939453 0.5
vt 0.947266 0.5
vt 0.990234 0.5

# verts
v -2 0 2
v -2 0 -2
v -2 0.1 2
v -2 0.1 -2
v 0.9 0.1 1.1
v 0.9 0.1 1
v 0.9 0.1 -0.9
v 0.9 0.1 -1
v 0.9 2.9 1.1
v 0.9 2.9 1
v 0.9 2.9 -0.9
v 0.9 2.9 -1
v 1.1 1.4 1.3
v 1.1 1.4 1.1
v 1.1 1.4 1
v 1.1 1.4 0.8
v 1.1 1.4 -0.7
v 1.1 1.4 -0.9
v 1.1 1.4 -1
v 1.1 1.4 -1.2
v 1.1 1.5 1.2
v 1.1 1.5 1.1
v 1.1 1.5 1
v 1.1 1.5 0.9
v 1.1 1.5 -0.8
v 1.1 1.5 -0.9
v 1.1 1.5 -1
v 1.1 1.5 -1.1
v 1.1 1.7 1.2
v 1.1 1.7 1.1
v 1.1 1.7 1
v 1.1 1.7 0.9
v 1.1 1.7 -0.8
v 1.1 1.7 -0.9
v 1.1 1.7 -1
v 1.1 1.7 -1.1
v 1.1 1.8 1.3
v 1.1 1.8 1.1
v 1.1 1.8 1
v 1.1 1.8 0.8
v 1.1 1.8 -0.7
v 1.1 1.8 -0.9
v 1.1 1.8 -1
v 1.1 1.8 -1.2
v 1.7 2.2 2
v 1.7 2.2 1.1
v 1.7 2.2 -1
v 1.7 2.2 -2
v 1.7 2.3 2
v 1.7 2.3 1.1
v 1.7 2.3 -1
v 1.7 2.3 -2
v 1.7 2.4 2
v 1.7 2.4 1.1
v 1.7 2.4 -1
v 1.7 2.4 -2
v 1.9 0.1 2
v 1.9 0.1 1.1
v 1.9 0.1 -1
v 1.9 0.1 -2
v 1.9 2.2 2
v 1.9 2.2 1.1
v 1.9 2.2 -1
v 1.9 2.2 -2
v 1.9 2.4 2
v 1.9 2.4 1.1
v 1.9 2.4 -1
v 1.9 2.4 -2
v 1.9 2.8 1.1
v 1.9 2.8 1
v 1.9 2.8 -0.9
v 1.9 2.8 -1
v 1.9 2.9 1.1
v 1.9 2.9 1
v 1.9 2.9 -0.9
v 1.9 2.9 -1
v 1.9 4 2
v 1.9 4 -2
v 1.2 1.4 1.3
v 1.2 1.4 1.1
v 1.2 1.4 1
v 1.2 1.4 0.8
v 1.2 1.4 -0.7
v 1.2 1.4 -0.9
v 1.2 1.4 -1
v 1.2 1.4 -1.2
v 1.2 1.5 1.2
v 1.2 1.5 1.1
v 1.2 1.5 1
v 1.2 1.5 0.9
v 1.2 1.5 -0.8
v 1.2 1.5 -0.9
v 1.2 1.5 -1
v 1.2 1.5 -1.1
v 1.2 1.7 1.2
v 1.2 1.7 1.1
v 1.2 1.7 1
v 1.2 1.7 0.9
v 1.2 1.7 -0.8
v 1.2 1.7 -0.9
v 1.2 1.7 -1
v 1.2 1.7 -1.1
v 1.2 1.8 1.3
v 1.2 1.8 1.1
v 1.2 1.8 1
v 1.2 1.8 0.8
v 1.2 1.8 -0.7
v 1.2 1.8 -0.9
v 1.2 1.8 -1
v 1.2 1.8 -1.2
v 2 0 2
v 2 0 -2
v 2 0.1 1.1
v 2 0.1 1
v 2 0.1 -0.9
v 2 0.1 -1
v 2 2.8 1
v 2 2.8 -0.9
v 2 2.9 1.1
v 2 2.9 -1
v 2 4 2
v 2 4 -2
v -2 0 2
v -2 0.1 2
v 1.7 2.2 2
v 1.7 2.3 2
v 1.7 2.4 2
v 1.9 0.1 2
v 1.9 2.2 2
v 1.9 2.3 2
v 1.9 2.4 2
v 1.9 4 2
v 2 0 2
v 2 4 2
v 1.1 1.4 1.3
v 1.1 1.8 1.3
v 1.2 1.4 1.3
v 1.2 1.8 1.3
v 0.9 0.1 1.1
v 0.9 2.9 1.1
v 1 0.1 1.1
v 1 2.8 1.1
v 1.1 1.4 1.1
v 1.1 1.5 1.1
v 1.1 1.7 1.1
v 1.1 1.8 1.1
v 1.2 1.4 1.1
v 1.2 1.5 1.1
v 1.2 1.7 1.1
v 1.2 1.8 1.1
v 1.7 2.2 1.1
v 1.7 2.3 1.1
v 1.7 2.4 1.1
v 1.9 0.1 1.1
v 1.9 2.2 1.1
v 1.9 2.4 1.1
v 1.9 2.8 1.1
v 1.9 2.9 1.1
v 1.1 1.5 0.9
v 1.1 1.7 0.9
v 1.2 1.5 0.9
v 1.2 1.7 0.9
v 1.1 1.4 -0.7
v 1.1 1.8 -0.7
v 1.2 1.4 -0.7
v 1.2 1.8 -0.7
v 0.9 0.1 -0.9
v 0.9 2.9 -0.9
v 1 0.1 -0.9
v 1 2.8 -0.9
v 1.1 1.4 -0.9
v 1.1 1.5 -0.9
v 1.1 1.7 -0.9
v 1.1 1.8 -0.9
v 1.2 1.4 -0.9
v 1.2 1.5 -0.9
v 1.2 1.7 -0.9
v 1.2 1.8 -0.9
v 1.9 0.1 -0.9
v 1.9 2.8 -0.9
v 1.9 2.9 -0.9
v 2 0.1 -0.9
v 2 2.8 -0.9
v 1.1 1.5 -1.1
v 1.1 1.7 -1.1
v 1.2 1.5 -1.1
v 1.2 1.7 -1.1
v 1.1 1.5 1.2
v 1.1 1.7 1.2
v 1.2 1.5 1.2
v 1.2 1.7 1.2
v 0.9 0.1 1
v 0.9 2.9 1
v 1 0.1 1
v 1 2.8 1
v 1.1 1.4 1
v 1.1 1.5 1
v 1.1 1.7 1
v 1.1 1.8 1
v 1.2 1.4 1
v 1.2 1.5 1
v 1.2 1.7 1
v 1.2 1.8 1
v 1.9 0.1 1
v 1.9 2.8 1
v 1.9 2.9 1
v 2 0.1 1
v 2 2.8 1
v 1.1 1.4 0.8
v 1.1 1.8 0.8
v 1.2 1.4 0.8
v 1.2 1.8 0.8
v 1.1 1.5 -0.8
v 1.1 1.7 -0.8
v 1.2 1.5 -0.8
v 1.2 1.7 -0.8
v 0.9 0.1 -1
v 0.9 2.9 -1
v 1 0.1 -1
v 1 2.8 -1
v 1.1 1.4 -1
v 1.1 1.5 -1
v 1.1 1.7 -1
v 1.1 1.8 -1
v 1.2 1.4 -1
v 1.2 1.5 -1
v 1.2 1.7 -1
v 1.2 1.8 -1
v 1.7 2.2 -1
v 1.7 2.3 -1
v 1.7 2.4 -1
v 1.9 0.1 -1
v 1.9 2.2 -1
v 1.9 2.4 -1
v 1.9 2.8 -1
v 1.9 2.9 -1
v 1.1 1.4 -1.2
v 1.1 1.8 -1.2
v 1.2 1.4 -1.2
v 1.2 1.8 -1.2
v -2 0 -2
v -2 0.1 -2
v 1.7 2.2 -2
v 1.7 2.3 -2
v 1.7 2.4 -2
v 1.9 0.1 -2
v 1.9 2.2 -2
v 1.9 2.3 -2
v 1.9 2.4 -2
v 1.9 4 -2
v 2 0 -2
v 2 4 -2
v -2 0 2
v 2 0 2
v -2 0 -2
v 2 0 -2
v 1.1 1.4 1.3
v 1.2 1.4 1.3
v 1.1 1.4 1.1
v 1.2 1.4 1.1
v 1.1 1.4 1
v 1.2 1.4 1
v 1.1 1.4 0.8
v 1.2 1.4 0.8
v 1.1 1.4 -0.7
v 1.2 1.4 -0.7
v 1.1 1.4 -0.9
v 1.2 1.4 -0.9
v 1.1 1.4 -1
v 1.2 1.4 -1
v 1.1 1.4 -1.2
v 1.2 1.4 -1.2
v 1.1 1.7 1.2
v 1.2 1.7 1.2
v 1.1 1.7 1.1
v 1.2 1.7 1.1
v 1.1 1.7 1
v 1.2 1.7 1
v 1.1 1.7 0.9
v 1.2 1.7 0.9
v 1.1 1.7 -0.8
v 1.2 1.7 -0.8
v 1.1 1.7 -0.9
v 1.2 1.7 -0.9
v 1.1 1.7 -1
v 1.2 1.7 -1
v 1.1 1.7 -1.1
v 1.2 1.7 -1.1
v 1.7 2.2 2
v 1.9 2.2 2
v 1.7 2.2 1.1
v 1.9 2.2 1.1
v 1.7 2.2 -1
v 1.9 2.2 -1
v 1.7 2.2 -2
v 1.9 2.2 -2
v 1.9 2.8 1
v 2 2.8 1
v 1.9 2.8 -0.9
v 2 2.8 -0.9
v -2 0.1 2
v 1.9 0.1 2
v 0.9 0.1 1.1
v 1 0.1 1.1
v 1.9 0.1 1.1
v 0.9 0.1 1
v 1 0.1 1
v 1.9 0.1 1
v 2 0.1 1
v 0.9 0.1 -0.9
v 1 0.1 -0.9
v 1.9 0.1 -0.9
v 2 0.1 -0.9
v 0.9 0.1 -1
v 1 0.1 -1
v 1.9 0.1 -1
v -2 0.1 -2
v 1.9 0.1 -2
v 1.1 1.5 1.2
v 1.2 1.5 1.2
v 1.1 1.5 1.1
v 1.2 1.5 1.1
v 1.1 1.5 1
v 1.2 1.5 1
v 1.1 1.5 0.9
v 1.2 1.5 0.9
v 1.1 1.5 -0.8
v 1.2 1.5 -0.8
v 1.1 1.5 -0.9
v 1.2 1.5 -0.9
v 1.1 1.5 -1
v 1.2 1.5 -1
v 1.1 1.5 -1.1
v 1.2 1.5 -1.1
v 1.1 1.8 1.3
v 1.2 1.8 1.3
v 1.1 1.8 1.1
v 1.2 1.8 1.1
v 1.1 1.8 1
v 1.2 1.8 1
v 1.1 1.8 0.8
v 1.2 1.8 0.8
v 1.1 1.8 -0.7
v 1.2 1.8 -0.7
v 1.1 1.8 -0.9
v 1.2 1.8 -0.9
v 1.1 1.8 -1
v 1.2 1.8 -1
v 1.1 1.8 -1.2
v 1.2 1.8 -1.2
v 1.7 2.4 2
v 1.9 2.4 2
v 1.7 2.4 1.1
v 1.9 2.4 1.1
v 1.7 2.4 -1
v 1.9 2.4 -1
v 1.7 2.4 -2
v 1.9 2.4 -2
v 0.9 2.9 1.1
v 1.9 2.9 1.1
v 0.9 2.9 1
v 1.9 2.9 1
v 0.9 2.9 -0.9
v 1.9 2.9 -0.9
v 0.9 2.9 -1
v 1.9 2.9 -1
v 1.9 4 2
v 2 4 2
v 1.9 4 -2
v 2 4 -2

# faces
f 3/3/1 2/3/1 1/3/1
f 4/3/1 2/3/1 3/3/1
f 9/2/1 6/2/1 5/2/1
f 10/2/1 6/2/1 9/2/1
f 11/2/1 8/2/1 7/2/1
f 12/2/1 8/2/1 11/2/1
f 21/2/1 14/2/1 13/2/1
f 22/2/1 14/2/1 21/2/1
f 23/2/1 16/2/1 15/2/1
f 24/2/1 16/2/1 23/2/1
f 25/2/1 18/2/1 17/2/1
f 26/2/1 18/2/1 25/2/1
f 27/2/1 20/2/1 19/2/1
f 28/2/1 20/2/1 27/2/1
f 29/2/1 21/2/1 13/2/1
f 32/2/1 16/2/1 24/2/1
f 33/2/1 25/2/1 17/2/1
f 36/2/1 20/2/1 28/2/1
f 37/2/1 30/2/1 29/2/1
f 37/2/1 29/2/1 13/2/1
f 38/2/1 30/2/1 37/2/1
f 39/2/1 32/2/1 31/2/1
f 40/2/1 16/2/1 32/2/1
f 40/2/1 32/2/1 39/2/1
f 41/2/1 34/2/1 33/2/1
f 41/2/1 33/2/1 17/2/1
f 42/2/1 34/2/1 41/2/1
f 43/2/1 36/2/1 35/2/1
f 44/2/1 20/2/1 36/2/1
f 44/2/1 36/2/1 43/2/1
f 49/5/1 46/5/1 45/5/1
f 50/5/1 46/5/1 49/5/1
f 51/5/1 48/5/1 47/5/1
f 52/5/1 48/5/1 51/5/1
f 53/4/1 50/4/1 49/4/1
f 54/4/1 50/4/1 53/4/1
f 55/4/1 52/4/1 51/4/1
f 56/4/1 52/4/1 55/4/1
f 61/3/1 58/3/1 57/3/1
f 62/3/1 58/3/1 61/3/1
f 63/3/1 60/3/1 59/3/1
f 64/3/1 60/3/1 63/3/1
f 69/3/1 66/3/1 65/3/1
f 72/3/1 68/3/1 67/3/1
f 73/3/1 69/3/1 65/3/1
f 74/2/1 71/2/1 70/2/1
f 75/2/1 71/2/1 74/2/1
f 76/3/1 68/3/1 72/3/1
f 77/3/1 73/3/1 65/3/1
f 77/3/1 76/3/1 75/3/1
f 77/3/1 75/3/1 74/3/1
f 77/3/1 74/3/1 73/3/1
f 78/3/1 68/3/1 76/3/1
f 78/3/1 76/3/1 77/3/1
f 79/2/2 80/2/2 87/2/2
f 87/2/2 80/2/2 88/2/2
f 81/2/2 82/2/2 89/2/2
f 89/2/2 82/2/2 90/2/2
f 83/2/2 84/2/2 91/2/2
f 91/2/2 84/2/2 92/2/2
f 85/2/2 86/2/2 93/2/2
f 93/2/2 86/2/2 94/2/2
f 79/2/2 87/2/2 95/2/2
f 90/2/2 82/2/2 98/2/2
f 83/2/2 91/2/2 99/2/2
f 94/2/2 86/2/2 102/2/2
f 95/2/2 96/2/2 103/2/2
f 79/2/2 95/2/2 103/2/2
f 103/2/2 96/2/2 104/2/2
f 97/2/2 98/2/2 105/2/2
f 98/2/2 82/2/2 106/2/2
f 105/2/2 98/2/2 106/2/2
f 99/2/2 100/2/2 107/2/2
f 83/2/2 99/2/2 107/2/2
f 107/2/2 100/2/2 108/2/2
f 101/2/2 102/2/2 109/2/2
f 102/2/2 86/2/2 110/2/2
f 109/2/2 102/2/2 110/2/2
f 111/3/2 112/3/2 113/3/2
f 113/3/2 112/3/2 114/3/2
f 114/3/2 112/3/2 115/3/2
f 115/3/2 112/3/2 116/3/2
f 113/2/2 114/2/2 117/2/2
f 115/2/2 116/2/2 118/2/2
f 111/3/2 113/3/2 119/3/2
f 117/2/2 118/2/2 119/2/2
f 113/2/2 117/2/2 119/2/2
f 118/2/2 116/2/2 120/2/2
f 119/2/2 118/2/2 120/2/2
f 116/3/2 112/3/2 120/3/2
f 111/3/2 119/3/2 121/3/2
f 119/3/2 120/3/2 121/3/2
f 120/3/2 112/3/2 122/3/2
f 121/3/2 120/3/2 122/3/2
f 128/3/3 124/3/3 123/3/3
f 129/5/3 126/5/3 125/5/3
f 130/4/3 127/4/3 126/4/3
f 130/5/3 126/5/3 129/5/3
f 131/4/3 127/4/3 130/4/3
f 133/3/3 129/3/3 128/3/3
f 133/3/3 132/3/3 131/3/3
f 133/3/3 131/3/3 130/3/3
f 133/3/3 130/3/3 129/3/3
f 133/3/3 128/3/3 123/3/3
f 134/3/3 132/3/3 133/3/3
f 137/2/3 136/2/3 135/2/3
f 138/2/3 136/2/3 137/2/3
f 141/2/3 140/2/3 139/2/3
f 142/2/3 140/2/3 141/2/3
f 143/1/3 142/1/3 141/1/3
f 144/1/3 142/1/3 143/1/3
f 145/1/3 142/1/3 144/1/3
f 146/1/3 142/1/3 145/1/3
f 147/1/3 143/1/3 141/1/3
f 148/1/3 145/1/3 144/1/3
f 149/1/3 145/1/3 148/1/3
f 150/1/3 142/1/3 146/1/3
f 151/1/3 149/1/3 148/1/3
f 151/1/3 150/1/3 149/1/3
f 151/1/3 142/1/3 150/1/3
f 151/1/3 148/1/3 147/1/3
f 152/1/3 142/1/3 151/1/3
f 153/1/3 142/1/3 152/1/3
f 154/1/3 147/1/3 141/1/3
f 154/1/3 151/1/3 147/1/3
f 155/1/3 151/1/3 154/1/3
f 156/1/3 142/1/3 153/1/3
f 157/2/3 140/2/3 142/2/3
f 157/1/3 142/1/3 156/1/3
f 158/2/3 140/2/3 157/2/3
f 161/2/3 160/2/3 159/2/3
f 162/2/3 160/2/3 161/2/3
f 165/2/3 164/2/3 163/2/3
f 166/2/3 164/2/3 165/2/3
f 169/2/3 168/2/3 167/2/3
f 170/2/3 168/2/3 169/2/3
f 171/1/3 170/1/3 169/1/3
f 172/1/3 170/1/3 171/1/3
f 173/1/3 170/1/3 172/1/3
f 174/1/3 170/1/3 173/1/3
f 175/1/3 171/1/3 169/1/3
f 176/1/3 173/1/3 172/1/3
f 177/1/3 173/1/3 176/1/3
f 178/1/3 170/1/3 174/1/3
f 179/1/3 177/1/3 176/1/3
f 179/1/3 178/1/3 177/1/3
f 179/1/3 175/1/3 169/1/3
f 179/1/3 176/1/3 175/1/3
f 180/2/3 168/2/3 170/2/3
f 180/1/3 178/1/3 179/1/3
f 180/1/3 170/1/3 178/1/3
f 181/2/3 168/2/3 180/2/3
f 182/2/3 180/2/3 179/2/3
f 183/2/3 180/2/3 182/2/3
f 186/2/3 185/2/3 184/2/3
f 187/2/3 185/2/3 186/2/3
f 188/2/4 189/2/4 190/2/4
f 190/2/4 189/2/4 191/2/4
f 192/2/4 193/2/4 194/2/4
f 194/2/4 193/2/4 195/2/4
f 194/1/4 195/1/4 196/1/4
f 196/1/4 195/1/4 197/1/4
f 197/1/4 195/1/4 198/1/4
f 198/1/4 195/1/4 199/1/4
f 194/1/4 196/1/4 200/1/4
f 197/1/4 198/1/4 201/1/4
f 201/1/4 198/1/4 202/1/4
f 199/1/4 195/1/4 203/1/4
f 201/1/4 202/1/4 204/1/4
f 202/1/4 203/1/4 204/1/4
f 194/1/4 200/1/4 204/1/4
f 200/1/4 201/1/4 204/1/4
f 195/2/4 193/2/4 205/2/4
f 204/1/4 203/1/4 205/1/4
f 203/1/4 195/1/4 205/1/4
f 205/2/4 193/2/4 206/2/4
f 204/2/4 205/2/4 207/2/4
f 207/2/4 205/2/4 208/2/4
f 209/2/4 210/2/4 211/2/4
f 211/2/4 210/2/4 212/2/4
f 213/2/4 214/2/4 215/2/4
f 215/2/4 214/2/4 216/2/4
f 217/2/4 218/2/4 219/2/4
f 219/2/4 218/2/4 220/2/4
f 219/1/4 220/1/4 221/1/4
f 221/1/4 220/1/4 222/1/4
f 222/1/4 220/1/4 223/1/4
f 223/1/4 220/1/4 224/1/4
f 219/1/4 221/1/4 225/1/4
f 222/1/4 223/1/4 226/1/4
f 226/1/4 223/1/4 227/1/4
f 224/1/4 220/1/4 228/1/4
f 226/1/4 227/1/4 229/1/4
f 227/1/4 228/1/4 229/1/4
f 228/1/4 220/1/4 229/1/4
f 225/1/4 226/1/4 229/1/4
f 229/1/4 220/1/4 230/1/4
f 230/1/4 220/1/4 231/1/4
f 219/1/4 225/1/4 232/1/4
f 225/1/4 229/1/4 232/1/4
f 232/1/4 229/1/4 233/1/4
f 231/1/4 220/1/4 234/1/4
f 220/2/4 218/2/4 235/2/4
f 234/1/4 220/1/4 235/1/4
f 235/2/4 218/2/4 236/2/4
f 237/2/4 238/2/4 239/2/4
f 239/2/4 238/2/4 240/2/4
f 241/3/4 242/3/4 246/3/4
f 243/5/4 244/5/4 247/5/4
f 244/4/4 245/4/4 248/4/4
f 247/5/4 244/5/4 248/5/4
f 248/4/4 245/4/4 249/4/4
f 246/3/4 247/3/4 251/3/4
f 249/3/4 250/3/4 251/3/4
f 248/3/4 249/3/4 251/3/4
f 247/3/4 248/3/4 251/3/4
f 241/3/4 246/3/4 251/3/4
f 251/3/4 250/3/4 252/3/4
f 255/3/5 254/3/5 253/3/5
f 256/3/5 254/3/5 255/3/5
f 259/2/5 258/2/5 257/2/5
f 260/2/5 258/2/5 259/2/5
f 263/2/5 262/2/5 261/2/5
f 264/2/5 262/2/5 263/2/5
f 267/2/5 266/2/5 265/2/5
f 268/2/5 266/2/5 267/2/5
f 271/2/5 270/2/5 269/2/5
f 272/2/5 270/2/5 271/2/5
f 275/2/5 274/2/5 273/2/5
f 276/2/5 274/2/5 275/2/5
f 279/2/5 278/2/5 277/2/5
f 280/2/5 278/2/5 279/2/5
f 283/2/5 282/2/5 281/2/5
f 284/2/5 282/2/5 283/2/5
f 287/2/5 286/2/5 285/2/5
f 288/2/5 286/2/5 287/2/5
f 291/5/5 290/5/5 289/5/5
f 292/5/5 290/5/5 291/5/5
f 295/5/5 294/5/5 293/5/5
f 296/5/5 294/5/5 295/5/5
f 299/2/5 298/2/5 297/2/5
f 300/2/5 298/2/5 299/2/5
f 301/3/6 302/3/6 303/3/6
f 303/3/6 302/3/6 304/3/6
f 304/3/6 302/3/6 305/3/6
f 301/3/6 303/3/6 306/3/6
f 307/3/6 308/3/6 310/3/6
f 308/3/6 309/3/6 310/3/6
f 306/3/6 307/3/6 310/3/6
f 301/3/6 306/3/6 310/3/6
f 310/3/6 309/3/6 311/3/6
f 311/3/6 309/3/6 312/3/6
f 312/3/6 309/3/6 313/3/6
f 301/3/6 310/3/6 314/3/6
f 301/3/6 314/3/6 317/3/6
f 315/3/6 316/3/6 317/3/6
f 314/3/6 315/3/6 317/3/6
f 317/3/6 316/3/6 318/3/6
f 319/2/6 320/2/6 321/2/6
f 321/2/6 320/2/6 322/2/6
f 323/2/6 324/2/6 325/2/6
f 325/2/6 324/2/6 326/2/6
f 327/2/6 328/2/6 329/2/6
f 329/2/6 328/2/6 330/2/6
f 331/2/6 332/2/6 333/2/6
f 333/2/6 332/2/6 334/2/6
f 335/2/6 336/2/6 337/2/6
f 337/2/6 336/2/6 338/2/6
f 339/2/6 340/2/6 341/2/6
f 341/2/6 340/2/6 342/2/6
f 343/2/6 344/2/6 345/2/6
f 345/2/6 344/2/6 346/2/6
f 347/2/6 348/2/6 349/2/6
f 349/2/6 348/2/6 350/2/6
f 351/4/6 352/4/6 353/4/6
f 353/4/6 352/4/6 354/4/6
f 355/4/6 356/4/6 357/4/6
f 357/4/6 356/4/6 358/4/6
f 359/2/6 360/2/6 361/2/6
f 361/2/6 360/2/6 362/2/6
f 363/2/6 364/2/6 365/2/6
f 365/2/6 364/2/6 366/2/6
f 367/3/6 368/3/6 369/3/6
f 369/3/6 368/3/6 370/3/6
