# MagicaVoxel @ Ephtracy

# group
o 

# material
mtllib Wall(Alarm).mtl
usemtl palette

# normals
vn -1 0 0
vn 1 0 0
vn 0 0 1
vn 0 0 -1
vn 0 -1 0
vn 0 1 0

# texcoords
vt 0.845703 0.5
vt 0.939453 0.5
vt 0.947266 0.5
vt 0.990234 0.5

# verts
v -2 0 2
v -2 0 -2
v -2 0.1 2
v -2 0.1 -1.9
v -2 2.2 -1.7
v -2 2.2 -1.9
v -2 2.3 -1.7
v -2 2.3 -1.9
v -2 2.4 -1.7
v -2 2.4 -1.9
v -2 4 -1.9
v -2 4 -2
v -0.2 3 -1.8
v -0.2 3 -1.9
v -0.2 3.6 -1.8
v -0.2 3.6 -1.9
v -0.0999999 3.1 -1.7
v -0.0999999 3.1 -1.8
v -0.0999999 3.5 -1.7
v -0.0999999 3.5 -1.8
v 2.38419e-007 3.2 -1.6
v 2.38419e-007 3.2 -1.7
v 2.38419e-007 3.4 -1.6
v 2.38419e-007 3.4 -1.7
v 0.2 2.9 -1.8
v 0.2 2.9 -1.9
v 0.2 3 -1.8
v 0.2 3 -1.9
v 0.3 2.8 -1.8
v 0.3 2.8 -1.9
v 0.3 2.9 -1.8
v 0.3 2.9 -1.9
v 0.5 2.9 -1.8
v 0.5 2.9 -1.9
v 0.5 3 -1.8
v 0.5 3 -1.9
v 0.5 3.3 -1.8
v 0.5 3.3 -1.9
v 0.5 3.4 -1.8
v 0.5 3.4 -1.9
v 0.6 3 -1.8
v 0.6 3 -1.9
v 0.6 3.3 -1.8
v 0.6 3.3 -1.9
v 0.2 3.2 -1.6
v 0.2 3.2 -1.7
v 0.2 3.4 -1.6
v 0.2 3.4 -1.7
v 0.3 2.9 -1.8
v 0.3 2.9 -1.9
v 0.3 3 -1.8
v 0.3 3 -1.9
v 0.3 3.1 -1.7
v 0.3 3.1 -1.8
v 0.3 3.5 -1.7
v 0.3 3.5 -1.8
v 0.4 3 -1.8
v 0.4 3 -1.9
v 0.4 3.4 -1.8
v 0.4 3.4 -1.9
v 0.4 3.5 -1.8
v 0.4 3.5 -1.9
v 0.4 3.6 -1.8
v 0.4 3.6 -1.9
v 0.5 2.8 -1.8
v 0.5 2.8 -1.9
v 0.5 2.9 -1.8
v 0.5 2.9 -1.9
v 0.5 3.4 -1.8
v 0.5 3.4 -1.9
v 0.5 3.5 -1.8
v 0.5 3.5 -1.9
v 0.6 2.9 -1.8
v 0.6 2.9 -1.9
v 0.6 3 -1.8
v 0.6 3 -1.9
v 0.6 3.3 -1.8
v 0.6 3.3 -1.9
v 0.6 3.4 -1.8
v 0.6 3.4 -1.9
v 0.7 3 -1.8
v 0.7 3 -1.9
v 0.7 3.3 -1.8
v 0.7 3.3 -1.9
v 2 0 2
v 2 0 -2
v 2 0.1 2
v 2 0.1 -1.9
v 2 2.2 -1.7
v 2 2.2 -1.9
v 2 2.3 -1.7
v 2 2.3 -1.9
v 2 2.4 -1.7
v 2 2.4 -1.9
v 2 4 -1.9
v 2 4 -2
v -2 0 2
v -2 0.1 2
v 2 0 2
v 2 0.1 2
v 2.38419e-007 3.2 -1.6
v 2.38419e-007 3.4 -1.6
v 0.2 3.2 -1.6
v 0.2 3.4 -1.6
v -2 2.2 -1.7
v -2 2.3 -1.7
v -2 2.4 -1.7
v -0.0999999 3.1 -1.7
v -0.0999999 3.5 -1.7
v 2.38419e-007 3.2 -1.7
v 2.38419e-007 3.4 -1.7
v 0.2 3.2 -1.7
v 0.2 3.4 -1.7
v 0.3 3.1 -1.7
v 0.3 3.5 -1.7
v 2 2.2 -1.7
v 2 2.3 -1.7
v 2 2.4 -1.7
v -0.2 3 -1.8
v -0.2 3.6 -1.8
v -0.0999999 3.1 -1.8
v -0.0999999 3.5 -1.8
v 0.2 2.9 -1.8
v 0.2 3 -1.8
v 0.3 2.8 -1.8
v 0.3 2.9 -1.8
v 0.3 3 -1.8
v 0.3 3.1 -1.8
v 0.3 3.5 -1.8
v 0.4 3 -1.8
v 0.4 3.4 -1.8
v 0.4 3.5 -1.8
v 0.4 3.6 -1.8
v 0.5 2.8 -1.8
v 0.5 2.9 -1.8
v 0.5 3 -1.8
v 0.5 3.3 -1.8
v 0.5 3.4 -1.8
v 0.5 3.5 -1.8
v 0.6 2.9 -1.8
v 0.6 3 -1.8
v 0.6 3.3 -1.8
v 0.6 3.4 -1.8
v 0.7 3 -1.8
v 0.7 3.3 -1.8
v -2 0.1 -1.9
v -2 2.2 -1.9
v -2 2.4 -1.9
v -2 4 -1.9
v -0.2 3 -1.9
v -0.2 3.6 -1.9
v 0.2 2.9 -1.9
v 0.2 3 -1.9
v 0.3 2.8 -1.9
v 0.3 2.9 -1.9
v 0.3 3 -1.9
v 0.4 3 -1.9
v 0.4 3.4 -1.9
v 0.4 3.5 -1.9
v 0.4 3.6 -1.9
v 0.5 2.8 -1.9
v 0.5 2.9 -1.9
v 0.5 3 -1.9
v 0.5 3.3 -1.9
v 0.5 3.4 -1.9
v 0.5 3.5 -1.9
v 0.6 2.9 -1.9
v 0.6 3 -1.9
v 0.6 3.3 -1.9
v 0.6 3.4 -1.9
v 0.7 3 -1.9
v 0.7 3.3 -1.9
v 2 0.1 -1.9
v 2 2.2 -1.9
v 2 2.4 -1.9
v 2 4 -1.9
v -2 0 -2
v -2 4 -2
v 2 0 -2
v 2 4 -2
v -2 0 2
v 2 0 2
v -2 0 -2
v 2 0 -2
v -2 2.2 -1.7
v 2 2.2 -1.7
v -2 2.2 -1.9
v 2 2.2 -1.9
v 0.3 2.8 -1.8
v 0.5 2.8 -1.8
v 0.3 2.8 -1.9
v 0.5 2.8 -1.9
v 0.2 2.9 -1.8
v 0.3 2.9 -1.8
v 0.5 2.9 -1.8
v 0.6 2.9 -1.8
v 0.2 2.9 -1.9
v 0.3 2.9 -1.9
v 0.5 2.9 -1.9
v 0.6 2.9 -1.9
v -0.2 3 -1.8
v 0.2 3 -1.8
v 0.3 3 -1.8
v 0.4 3 -1.8
v 0.6 3 -1.8
v 0.7 3 -1.8
v -0.2 3 -1.9
v 0.2 3 -1.9
v 0.3 3 -1.9
v 0.4 3 -1.9
v 0.6 3 -1.9
v 0.7 3 -1.9
v -0.0999999 3.1 -1.7
v 0.3 3.1 -1.7
v -0.0999999 3.1 -1.8
v 0.3 3.1 -1.8
v 2.38419e-007 3.2 -1.6
v 0.2 3.2 -1.6
v 2.38419e-007 3.2 -1.7
v 0.2 3.2 -1.7
v 0.5 3.3 -1.8
v 0.6 3.3 -1.8
v 0.5 3.3 -1.9
v 0.6 3.3 -1.9
v 0.4 3.4 -1.8
v 0.5 3.4 -1.8
v 0.4 3.4 -1.9
v 0.5 3.4 -1.9
v -2 0.1 2
v 2 0.1 2
v -2 0.1 -1.9
v 2 0.1 -1.9
v -2 2.4 -1.7
v 2 2.4 -1.7
v -2 2.4 -1.9
v 2 2.4 -1.9
v 0.3 2.9 -1.8
v 0.5 2.9 -1.8
v 0.3 2.9 -1.9
v 0.5 2.9 -1.9
v 0.5 3 -1.8
v 0.6 3 -1.8
v 0.5 3 -1.9
v 0.6 3 -1.9
v 0.6 3.3 -1.8
v 0.7 3.3 -1.8
v 0.6 3.3 -1.9
v 0.7 3.3 -1.9
v 2.38419e-007 3.4 -1.6
v 0.2 3.4 -1.6
v 2.38419e-007 3.4 -1.7
v 0.2 3.4 -1.7
v 0.5 3.4 -1.8
v 0.6 3.4 -1.8
v 0.5 3.4 -1.9
v 0.6 3.4 -1.9
v -0.0999999 3.5 -1.7
v 0.3 3.5 -1.7
v -0.0999999 3.5 -1.8
v 0.3 3.5 -1.8
v 0.4 3.5 -1.8
v 0.5 3.5 -1.8
v 0.4 3.5 -1.9
v 0.5 3.5 -1.9
v -0.2 3.6 -1.8
v 0.4 3.6 -1.8
v -0.2 3.6 -1.9
v 0.4 3.6 -1.9
v -2 4 -1.9
v 2 4 -1.9
v -2 4 -2
v 2 4 -2

# faces
f 3/2/1 2/2/1 1/2/1
f 4/2/1 2/2/1 3/2/1
f 6/2/1 2/2/1 4/2/1
f 7/4/1 6/4/1 5/4/1
f 8/2/1 2/2/1 6/2/1
f 8/4/1 6/4/1 7/4/1
f 9/3/1 8/3/1 7/3/1
f 10/2/1 2/2/1 8/2/1
f 10/3/1 8/3/1 9/3/1
f 11/2/1 2/2/1 10/2/1
f 12/2/1 2/2/1 11/2/1
f 15/1/1 14/1/1 13/1/1
f 16/1/1 14/1/1 15/1/1
f 19/1/1 18/1/1 17/1/1
f 20/1/1 18/1/1 19/1/1
f 23/1/1 22/1/1 21/1/1
f 24/1/1 22/1/1 23/1/1
f 27/3/1 26/3/1 25/3/1
f 28/3/1 26/3/1 27/3/1
f 31/3/1 30/3/1 29/3/1
f 32/3/1 30/3/1 31/3/1
f 35/3/1 34/3/1 33/3/1
f 36/3/1 34/3/1 35/3/1
f 39/3/1 38/3/1 37/3/1
f 40/3/1 38/3/1 39/3/1
f 43/3/1 42/3/1 41/3/1
f 44/3/1 42/3/1 43/3/1
f 45/1/2 46/1/2 47/1/2
f 47/1/2 46/1/2 48/1/2
f 49/3/2 50/3/2 51/3/2
f 51/3/2 50/3/2 52/3/2
f 53/1/2 54/1/2 55/1/2
f 55/1/2 54/1/2 56/1/2
f 57/1/2 58/1/2 59/1/2
f 59/1/2 58/1/2 60/1/2
f 61/1/2 62/1/2 63/1/2
f 63/1/2 62/1/2 64/1/2
f 65/3/2 66/3/2 67/3/2
f 67/3/2 66/3/2 68/3/2
f 69/3/2 70/3/2 71/3/2
f 71/3/2 70/3/2 72/3/2
f 73/3/2 74/3/2 75/3/2
f 75/3/2 74/3/2 76/3/2
f 77/3/2 78/3/2 79/3/2
f 79/3/2 78/3/2 80/3/2
f 81/3/2 82/3/2 83/3/2
f 83/3/2 82/3/2 84/3/2
f 85/2/2 86/2/2 87/2/2
f 87/2/2 86/2/2 88/2/2
f 88/2/2 86/2/2 90/2/2
f 89/4/2 90/4/2 91/4/2
f 90/2/2 86/2/2 92/2/2
f 91/4/2 90/4/2 92/4/2
f 91/3/2 92/3/2 93/3/2
f 92/2/2 86/2/2 94/2/2
f 93/3/2 92/3/2 94/3/2
f 94/2/2 86/2/2 95/2/2
f 95/2/2 86/2/2 96/2/2
f 99/2/3 98/2/3 97/2/3
f 100/2/3 98/2/3 99/2/3
f 103/1/3 102/1/3 101/1/3
f 104/1/3 102/1/3 103/1/3
f 110/1/3 109/1/3 108/1/3
f 111/1/3 109/1/3 110/1/3
f 112/1/3 110/1/3 108/1/3
f 113/1/3 109/1/3 111/1/3
f 114/1/3 112/1/3 108/1/3
f 114/1/3 113/1/3 112/1/3
f 115/1/3 109/1/3 113/1/3
f 115/1/3 113/1/3 114/1/3
f 116/4/3 106/4/3 105/4/3
f 117/3/3 107/3/3 106/3/3
f 117/4/3 106/4/3 116/4/3
f 118/3/3 107/3/3 117/3/3
f 121/1/3 120/1/3 119/1/3
f 122/1/3 120/1/3 121/1/3
f 124/1/3 121/1/3 119/1/3
f 126/3/3 124/3/3 123/3/3
f 127/1/3 121/1/3 124/1/3
f 127/3/3 124/3/3 126/3/3
f 128/1/3 121/1/3 127/1/3
f 129/1/3 120/1/3 122/1/3
f 130/1/3 128/1/3 127/1/3
f 130/1/3 129/1/3 128/1/3
f 131/1/3 129/1/3 130/1/3
f 132/1/3 120/1/3 129/1/3
f 132/1/3 129/1/3 131/1/3
f 133/1/3 120/1/3 132/1/3
f 134/3/3 126/3/3 125/3/3
f 135/3/3 126/3/3 134/3/3
f 138/3/3 132/3/3 131/3/3
f 139/3/3 132/3/3 138/3/3
f 140/3/3 136/3/3 135/3/3
f 141/3/3 136/3/3 140/3/3
f 142/3/3 138/3/3 137/3/3
f 143/3/3 138/3/3 142/3/3
f 144/3/3 142/3/3 141/3/3
f 145/3/3 142/3/3 144/3/3
f 150/2/3 149/2/3 148/2/3
f 151/2/3 149/2/3 150/2/3
f 152/2/3 150/2/3 148/2/3
f 153/2/3 150/2/3 152/2/3
f 154/2/3 152/2/3 148/2/3
f 155/2/3 152/2/3 154/2/3
f 157/2/3 156/2/3 155/2/3
f 160/2/3 149/2/3 151/2/3
f 161/2/3 154/2/3 148/2/3
f 162/2/3 158/2/3 157/2/3
f 162/2/3 157/2/3 155/2/3
f 163/2/3 158/2/3 162/2/3
f 164/2/3 158/2/3 163/2/3
f 165/2/3 158/2/3 164/2/3
f 166/2/3 160/2/3 159/2/3
f 167/2/3 162/2/3 161/2/3
f 168/2/3 164/2/3 163/2/3
f 169/2/3 164/2/3 168/2/3
f 170/2/3 166/2/3 165/2/3
f 171/2/3 168/2/3 167/2/3
f 172/2/3 170/2/3 169/2/3
f 173/2/3 147/2/3 146/2/3
f 174/2/3 147/2/3 173/2/3
f 175/2/3 172/2/3 171/2/3
f 175/2/3 161/2/3 148/2/3
f 175/2/3 171/2/3 167/2/3
f 175/2/3 167/2/3 161/2/3
f 176/2/3 149/2/3 160/2/3
f 176/2/3 172/2/3 175/2/3
f 176/2/3 170/2/3 172/2/3
f 176/2/3 160/2/3 166/2/3
f 176/2/3 166/2/3 170/2/3
f 177/2/4 178/2/4 179/2/4
f 179/2/4 178/2/4 180/2/4
f 183/2/5 182/2/5 181/2/5
f 184/2/5 182/2/5 183/2/5
f 187/4/5 186/4/5 185/4/5
f 188/4/5 186/4/5 187/4/5
f 191/3/5 190/3/5 189/3/5
f 192/3/5 190/3/5 191/3/5
f 197/3/5 194/3/5 193/3/5
f 198/3/5 194/3/5 197/3/5
f 199/3/5 196/3/5 195/3/5
f 200/3/5 196/3/5 199/3/5
f 207/1/5 202/1/5 201/1/5
f 208/1/5 202/1/5 207/1/5
f 209/1/5 204/1/5 203/1/5
f 210/1/5 204/1/5 209/1/5
f 211/3/5 206/3/5 205/3/5
f 212/3/5 206/3/5 211/3/5
f 215/1/5 214/1/5 213/1/5
f 216/1/5 214/1/5 215/1/5
f 219/1/5 218/1/5 217/1/5
f 220/1/5 218/1/5 219/1/5
f 223/3/5 222/3/5 221/3/5
f 224/3/5 222/3/5 223/3/5
f 227/3/5 226/3/5 225/3/5
f 228/3/5 226/3/5 227/3/5
f 229/2/6 230/2/6 231/2/6
f 231/2/6 230/2/6 232/2/6
f 233/3/6 234/3/6 235/3/6
f 235/3/6 234/3/6 236/3/6
f 237/3/6 238/3/6 239/3/6
f 239/3/6 238/3/6 240/3/6
f 241/3/6 242/3/6 243/3/6
f 243/3/6 242/3/6 244/3/6
f 245/3/6 246/3/6 247/3/6
f 247/3/6 246/3/6 248/3/6
f 249/1/6 250/1/6 251/1/6
f 251/1/6 250/1/6 252/1/6
f 253/3/6 254/3/6 255/3/6
f 255/3/6 254/3/6 256/3/6
f 257/1/6 258/1/6 259/1/6
f 259/1/6 258/1/6 260/1/6
f 261/3/6 262/3/6 263/3/6
f 263/3/6 262/3/6 264/3/6
f 265/1/6 266/1/6 267/1/6
f 267/1/6 266/1/6 268/1/6
f 269/2/6 270/2/6 271/2/6
f 271/2/6 270/2/6 272/2/6
