# MagicaVoxel @ Ephtracy

# group
o 

# material
mtllib Wall_with_door.mtl
usemtl palette

# normals
vn -1 0 0
vn 1 0 0
vn 0 0 1
vn 0 0 -1
vn 0 -1 0
vn 0 1 0

# texcoords
vt 0.783203 0.5
vt 0.787109 0.5
vt 0.939453 0.5
vt 0.947266 0.5
vt 0.990234 0.5

# verts
v -2 0 2
v -2 0 -2
v -2 0.1 2
v -2 0.1 -2
v 1.7 1.4 0.3
v 1.7 1.4 0.2
v 1.7 1.4 -0.1
v 1.7 1.4 -0.2
v 1.7 1.8 0.3
v 1.7 1.8 0.2
v 1.7 1.8 -0.1
v 1.7 1.8 -0.2
v 1.7 2.2 2
v 1.7 2.2 1.1
v 1.7 2.2 -1
v 1.7 2.2 -2
v 1.7 2.3 2
v 1.7 2.3 1.1
v 1.7 2.3 -1
v 1.7 2.3 -2
v 1.7 2.4 2
v 1.7 2.4 1.1
v 1.7 2.4 -1
v 1.7 2.4 -2
v 1.9 0.1 2
v 1.9 0.1 1.1
v 1.9 0.1 1
v 1.9 0.1 0.0999999
v 1.9 0.1 -2.38419e-007
v 1.9 0.1 -0.9
v 1.9 0.1 -1
v 1.9 0.1 -2
v 1.9 1.4 0.3
v 1.9 1.4 0.2
v 1.9 1.4 -0.1
v 1.9 1.4 -0.2
v 1.9 1.5 0.3
v 1.9 1.5 0.2
v 1.9 1.5 -0.1
v 1.9 1.5 -0.2
v 1.9 1.7 0.3
v 1.9 1.7 0.2
v 1.9 1.7 -0.1
v 1.9 1.7 -0.2
v 1.9 1.8 0.3
v 1.9 1.8 0.2
v 1.9 1.8 -0.1
v 1.9 1.8 -0.2
v 1.9 2.2 2
v 1.9 2.2 1.1
v 1.9 2.2 -1
v 1.9 2.2 -2
v 1.9 2.3 1.1
v 1.9 2.3 -1
v 1.9 2.4 2
v 1.9 2.4 1.1
v 1.9 2.4 -1
v 1.9 2.4 -2
v 1.9 2.8 1
v 1.9 2.8 0.0999999
v 1.9 2.8 -2.38419e-007
v 1.9 2.8 -0.9
v 1.9 2.9 1.1
v 1.9 2.9 -1
v 1.9 4 2
v 1.9 4 -2
v 1.8 1.5 0.3
v 1.8 1.5 0.2
v 1.8 1.5 -0.1
v 1.8 1.5 -0.2
v 1.8 1.7 0.3
v 1.8 1.7 0.2
v 1.8 1.7 -0.1
v 1.8 1.7 -0.2
v 2 0 2
v 2 0 -2
v 2 0.1 1.1
v 2 0.1 1
v 2 0.1 0.0999999
v 2 0.1 -2.38419e-007
v 2 0.1 -0.9
v 2 0.1 -1
v 2 2.8 1
v 2 2.8 0.0999999
v 2 2.8 -2.38419e-007
v 2 2.8 -0.9
v 2 2.9 1.1
v 2 2.9 -1
v 2 4 2
v 2 4 -2
v -2 0 2
v -2 0.1 2
v 1.7 2.2 2
v 1.7 2.3 2
v 1.7 2.4 2
v 1.9 0.1 2
v 1.9 2.2 2
v 1.9 2.3 2
v 1.9 2.4 2
v 1.9 4 2
v 2 0 2
v 2 4 2
v 1.7 1.4 0.3
v 1.7 1.8 0.3
v 1.8 1.5 0.3
v 1.8 1.7 0.3
v 1.9 1.4 0.3
v 1.9 1.5 0.3
v 1.9 1.7 0.3
v 1.9 1.8 0.3
v 1.7 1.4 -0.1
v 1.7 1.8 -0.1
v 1.8 1.5 -0.1
v 1.8 1.7 -0.1
v 1.9 1.4 -0.1
v 1.9 1.5 -0.1
v 1.9 1.7 -0.1
v 1.9 1.8 -0.1
v 1.7 2.2 -1
v 1.7 2.3 -1
v 1.7 2.4 -1
v 1.9 2.2 -1
v 1.9 2.3 -1
v 1.9 2.4 -1
v 1.7 2.2 1.1
v 1.7 2.3 1.1
v 1.7 2.4 1.1
v 1.9 2.2 1.1
v 1.9 2.3 1.1
v 1.9 2.4 1.1
v 1.7 1.4 0.2
v 1.7 1.8 0.2
v 1.8 1.5 0.2
v 1.8 1.7 0.2
v 1.9 1.4 0.2
v 1.9 1.5 0.2
v 1.9 1.7 0.2
v 1.9 1.8 0.2
v 1.7 1.4 -0.2
v 1.7 1.8 -0.2
v 1.8 1.5 -0.2
v 1.8 1.7 -0.2
v 1.9 1.4 -0.2
v 1.9 1.5 -0.2
v 1.9 1.7 -0.2
v 1.9 1.8 -0.2
v -2 0 -2
v -2 0.1 -2
v 1.7 2.2 -2
v 1.7 2.3 -2
v 1.7 2.4 -2
v 1.9 0.1 -2
v 1.9 2.2 -2
v 1.9 2.3 -2
v 1.9 2.4 -2
v 1.9 4 -2
v 2 0 -2
v 2 4 -2
v -2 0 2
v 2 0 2
v -2 0 -2
v 2 0 -2
v 1.7 1.4 0.3
v 1.9 1.4 0.3
v 1.7 1.4 0.2
v 1.9 1.4 0.2
v 1.7 1.4 -0.1
v 1.9 1.4 -0.1
v 1.7 1.4 -0.2
v 1.9 1.4 -0.2
v 1.8 1.7 0.3
v 1.9 1.7 0.3
v 1.8 1.7 0.2
v 1.9 1.7 0.2
v 1.8 1.7 -0.1
v 1.9 1.7 -0.1
v 1.8 1.7 -0.2
v 1.9 1.7 -0.2
v 1.7 2.2 2
v 1.9 2.2 2
v 1.7 2.2 1.1
v 1.9 2.2 1.1
v 1.7 2.2 -1
v 1.9 2.2 -1
v 1.7 2.2 -2
v 1.9 2.2 -2
v -2 0.1 2
v 1.9 0.1 2
v 1.9 0.1 1.1
v 1.9 0.1 1
v 1.9 0.1 0.0999999
v 1.9 0.1 -2.38419e-007
v 1.9 0.1 -0.9
v 1.9 0.1 -1
v -2 0.1 -2
v 1.9 0.1 -2
v 1.8 1.5 0.3
v 1.9 1.5 0.3
v 1.8 1.5 0.2
v 1.9 1.5 0.2
v 1.8 1.5 -0.1
v 1.9 1.5 -0.1
v 1.8 1.5 -0.2
v 1.9 1.5 -0.2
v 1.7 1.8 0.3
v 1.9 1.8 0.3
v 1.7 1.8 0.2
v 1.9 1.8 0.2
v 1.7 1.8 -0.1
v 1.9 1.8 -0.1
v 1.7 1.8 -0.2
v 1.9 1.8 -0.2
v 1.7 2.4 2
v 1.9 2.4 2
v 1.7 2.4 1.1
v 1.9 2.4 1.1
v 1.7 2.4 -1
v 1.9 2.4 -1
v 1.7 2.4 -2
v 1.9 2.4 -2
v 1.9 4 2
v 2 4 2
v 1.9 4 -2
v 2 4 -2

# faces
f 3/3/1 2/3/1 1/3/1
f 4/3/1 2/3/1 3/3/1
f 9/2/1 6/2/1 5/2/1
f 10/2/1 6/2/1 9/2/1
f 11/2/1 8/2/1 7/2/1
f 12/2/1 8/2/1 11/2/1
f 17/5/1 14/5/1 13/5/1
f 18/5/1 14/5/1 17/5/1
f 19/5/1 16/5/1 15/5/1
f 20/5/1 16/5/1 19/5/1
f 21/4/1 18/4/1 17/4/1
f 22/4/1 18/4/1 21/4/1
f 23/4/1 20/4/1 19/4/1
f 24/4/1 20/4/1 23/4/1
f 33/1/1 28/1/1 27/1/1
f 34/1/1 28/1/1 33/1/1
f 35/1/1 30/1/1 29/1/1
f 36/1/1 30/1/1 35/1/1
f 37/1/1 33/1/1 27/1/1
f 38/1/1 28/1/1 34/1/1
f 39/1/1 35/1/1 29/1/1
f 40/1/1 30/1/1 36/1/1
f 41/1/1 37/1/1 27/1/1
f 41/1/1 38/1/1 37/1/1
f 42/1/1 28/1/1 38/1/1
f 42/1/1 38/1/1 41/1/1
f 43/1/1 40/1/1 39/1/1
f 43/1/1 39/1/1 29/1/1
f 44/1/1 30/1/1 40/1/1
f 44/1/1 40/1/1 43/1/1
f 45/1/1 41/1/1 27/1/1
f 46/1/1 28/1/1 42/1/1
f 47/1/1 43/1/1 29/1/1
f 48/1/1 30/1/1 44/1/1
f 49/3/1 26/3/1 25/3/1
f 50/2/1 27/2/1 26/2/1
f 50/3/1 26/3/1 49/3/1
f 51/3/1 32/3/1 31/3/1
f 51/2/1 31/2/1 30/2/1
f 52/3/1 32/3/1 51/3/1
f 53/2/1 27/2/1 50/2/1
f 54/2/1 51/2/1 30/2/1
f 56/2/1 27/2/1 53/2/1
f 57/2/1 54/2/1 30/2/1
f 59/1/1 45/1/1 27/1/1
f 59/1/1 46/1/1 45/1/1
f 59/2/1 27/2/1 56/2/1
f 60/2/1 29/2/1 28/2/1
f 60/1/1 46/1/1 59/1/1
f 60/1/1 28/1/1 46/1/1
f 61/1/1 48/1/1 47/1/1
f 61/2/1 29/2/1 60/2/1
f 61/1/1 47/1/1 29/1/1
f 62/2/1 57/2/1 30/2/1
f 62/1/1 48/1/1 61/1/1
f 62/1/1 30/1/1 48/1/1
f 63/2/1 60/2/1 59/2/1
f 63/2/1 59/2/1 56/2/1
f 63/2/1 62/2/1 61/2/1
f 63/2/1 61/2/1 60/2/1
f 63/3/1 56/3/1 55/3/1
f 64/2/1 57/2/1 62/2/1
f 64/2/1 62/2/1 63/2/1
f 64/3/1 58/3/1 57/3/1
f 65/3/1 63/3/1 55/3/1
f 65/3/1 64/3/1 63/3/1
f 66/3/1 58/3/1 64/3/1
f 66/3/1 64/3/1 65/3/1
f 67/2/2 68/2/2 71/2/2
f 71/2/2 68/2/2 72/2/2
f 69/2/2 70/2/2 73/2/2
f 73/2/2 70/2/2 74/2/2
f 75/3/2 76/3/2 77/3/2
f 77/3/2 76/3/2 78/3/2
f 78/3/2 76/3/2 79/3/2
f 79/3/2 76/3/2 80/3/2
f 80/3/2 76/3/2 81/3/2
f 81/3/2 76/3/2 82/3/2
f 77/2/2 78/2/2 83/2/2
f 78/1/2 79/1/2 83/1/2
f 79/2/2 80/2/2 84/2/2
f 83/1/2 79/1/2 84/1/2
f 80/1/2 81/1/2 85/1/2
f 84/2/2 80/2/2 85/2/2
f 81/2/2 82/2/2 86/2/2
f 85/1/2 81/1/2 86/1/2
f 75/3/2 77/3/2 87/3/2
f 84/2/2 85/2/2 87/2/2
f 85/2/2 86/2/2 87/2/2
f 83/2/2 84/2/2 87/2/2
f 77/2/2 83/2/2 87/2/2
f 86/2/2 82/2/2 88/2/2
f 87/2/2 86/2/2 88/2/2
f 82/3/2 76/3/2 88/3/2
f 75/3/2 87/3/2 89/3/2
f 87/3/2 88/3/2 89/3/2
f 88/3/2 76/3/2 90/3/2
f 89/3/2 88/3/2 90/3/2
f 96/3/3 92/3/3 91/3/3
f 97/5/3 94/5/3 93/5/3
f 98/4/3 95/4/3 94/4/3
f 98/5/3 94/5/3 97/5/3
f 99/4/3 95/4/3 98/4/3
f 101/3/3 97/3/3 96/3/3
f 101/3/3 100/3/3 99/3/3
f 101/3/3 99/3/3 98/3/3
f 101/3/3 98/3/3 97/3/3
f 101/3/3 96/3/3 91/3/3
f 102/3/3 100/3/3 101/3/3
f 105/2/3 104/2/3 103/2/3
f 106/2/3 104/2/3 105/2/3
f 107/2/3 105/2/3 103/2/3
f 108/2/3 105/2/3 107/2/3
f 109/2/3 104/2/3 106/2/3
f 110/2/3 104/2/3 109/2/3
f 113/2/3 112/2/3 111/2/3
f 114/2/3 112/2/3 113/2/3
f 115/2/3 113/2/3 111/2/3
f 116/2/3 113/2/3 115/2/3
f 117/2/3 112/2/3 114/2/3
f 118/2/3 112/2/3 117/2/3
f 122/5/3 120/5/3 119/5/3
f 123/4/3 121/4/3 120/4/3
f 123/5/3 120/5/3 122/5/3
f 124/4/3 121/4/3 123/4/3
f 125/5/4 126/5/4 128/5/4
f 126/4/4 127/4/4 129/4/4
f 128/5/4 126/5/4 129/5/4
f 129/4/4 127/4/4 130/4/4
f 131/2/4 132/2/4 133/2/4
f 133/2/4 132/2/4 134/2/4
f 131/2/4 133/2/4 135/2/4
f 135/2/4 133/2/4 136/2/4
f 134/2/4 132/2/4 137/2/4
f 137/2/4 132/2/4 138/2/4
f 139/2/4 140/2/4 141/2/4
f 141/2/4 140/2/4 142/2/4
f 139/2/4 141/2/4 143/2/4
f 143/2/4 141/2/4 144/2/4
f 142/2/4 140/2/4 145/2/4
f 145/2/4 140/2/4 146/2/4
f 147/3/4 148/3/4 152/3/4
f 149/5/4 150/5/4 153/5/4
f 150/4/4 151/4/4 154/4/4
f 153/5/4 150/5/4 154/5/4
f 154/4/4 151/4/4 155/4/4
f 152/3/4 153/3/4 157/3/4
f 155/3/4 156/3/4 157/3/4
f 154/3/4 155/3/4 157/3/4
f 153/3/4 154/3/4 157/3/4
f 147/3/4 152/3/4 157/3/4
f 157/3/4 156/3/4 158/3/4
f 161/3/5 160/3/5 159/3/5
f 162/3/5 160/3/5 161/3/5
f 165/2/5 164/2/5 163/2/5
f 166/2/5 164/2/5 165/2/5
f 169/2/5 168/2/5 167/2/5
f 170/2/5 168/2/5 169/2/5
f 173/2/5 172/2/5 171/2/5
f 174/2/5 172/2/5 173/2/5
f 177/2/5 176/2/5 175/2/5
f 178/2/5 176/2/5 177/2/5
f 181/5/5 180/5/5 179/5/5
f 182/5/5 180/5/5 181/5/5
f 185/5/5 184/5/5 183/5/5
f 186/5/5 184/5/5 185/5/5
f 187/3/6 188/3/6 189/3/6
f 187/3/6 189/3/6 190/3/6
f 187/3/6 190/3/6 191/3/6
f 187/3/6 191/3/6 192/3/6
f 187/3/6 192/3/6 193/3/6
f 187/3/6 193/3/6 194/3/6
f 187/3/6 194/3/6 195/3/6
f 195/3/6 194/3/6 196/3/6
f 197/2/6 198/2/6 199/2/6
f 199/2/6 198/2/6 200/2/6
f 201/2/6 202/2/6 203/2/6
f 203/2/6 202/2/6 204/2/6
f 205/2/6 206/2/6 207/2/6
f 207/2/6 206/2/6 208/2/6
f 209/2/6 210/2/6 211/2/6
f 211/2/6 210/2/6 212/2/6
f 213/4/6 214/4/6 215/4/6
f 215/4/6 214/4/6 216/4/6
f 217/4/6 218/4/6 219/4/6
f 219/4/6 218/4/6 220/4/6
f 221/3/6 222/3/6 223/3/6
f 223/3/6 222/3/6 224/3/6
