# MagicaVoxel @ Ephtracy

# group
o 

# material
mtllib corner_light.mtl
usemtl palette

# normals
vn -1 0 0
vn 1 0 0
vn 0 0 1
vn 0 0 -1
vn 0 -1 0
vn 0 1 0

# texcoords
vt 0.939453 0.5
vt 0.947266 0.5
vt 0.990234 0.5

# verts
v -2 0 2
v -2 0 -2
v -2 4 2
v -2 4 -2
v -1.9 0.1 1.9
v -1.9 0.1 -2
v -1.9 2.2 1.9
v -1.9 2.2 -2
v -1.9 2.4 1.9
v -1.9 2.4 -2
v -1.9 4 1.9
v -1.9 4 -2
v -1.7 2.2 1.7
v -1.7 2.2 -2
v -1.7 2.3 1.7
v -1.7 2.3 -2
v -1.7 2.4 1.7
v -1.7 2.4 -2
v 2 0 2
v 2 0 -2
v 2 0.1 1.9
v 2 0.1 -2
v 2 2.2 1.9
v 2 2.2 1.7
v 2 2.3 1.9
v 2 2.3 1.7
v 2 2.4 1.9
v 2 2.4 1.7
v 2 4 2
v 2 4 1.9
v -2 0 2
v -2 4 2
v 2 0 2
v 2 4 2
v -1.9 0.1 1.9
v -1.9 2.2 1.9
v -1.9 2.4 1.9
v -1.9 4 1.9
v 2 0.1 1.9
v 2 2.2 1.9
v 2 2.4 1.9
v 2 4 1.9
v -1.7 2.2 1.7
v -1.7 2.3 1.7
v -1.7 2.4 1.7
v 2 2.2 1.7
v 2 2.3 1.7
v 2 2.4 1.7
v -2 0 -2
v -2 4 -2
v -1.9 0.1 -2
v -1.9 2.2 -2
v -1.9 2.3 -2
v -1.9 2.4 -2
v -1.9 4 -2
v -1.7 2.2 -2
v -1.7 2.3 -2
v -1.7 2.4 -2
v 2 0 -2
v 2 0.1 -2
v -2 0 2
v 2 0 2
v -2 0 -2
v 2 0 -2
v -1.9 2.2 1.9
v 2 2.2 1.9
v -1.7 2.2 1.7
v 2 2.2 1.7
v -1.9 2.2 -2
v -1.7 2.2 -2
v -1.9 0.1 1.9
v 2 0.1 1.9
v -1.9 0.1 -2
v 2 0.1 -2
v -1.9 2.4 1.9
v 2 2.4 1.9
v -1.7 2.4 1.7
v 2 2.4 1.7
v -1.9 2.4 -2
v -1.7 2.4 -2
v -2 4 2
v 2 4 2
v -1.9 4 1.9
v 2 4 1.9
v -2 4 -2
v -1.9 4 -2

# faces
f 3/1/1 2/1/1 1/1/1
f 4/1/1 2/1/1 3/1/1
f 5/1/2 6/1/2 7/1/2
f 7/1/2 6/1/2 8/1/2
f 9/1/2 10/1/2 11/1/2
f 11/1/2 10/1/2 12/1/2
f 13/3/2 14/3/2 15/3/2
f 15/3/2 14/3/2 16/3/2
f 15/2/2 16/2/2 17/2/2
f 17/2/2 16/2/2 18/2/2
f 19/1/2 20/1/2 21/1/2
f 21/1/2 20/1/2 22/1/2
f 19/1/2 21/1/2 23/1/2
f 19/1/2 23/1/2 25/1/2
f 23/3/2 24/3/2 25/3/2
f 25/3/2 24/3/2 26/3/2
f 19/1/2 25/1/2 27/1/2
f 25/2/2 26/2/2 27/2/2
f 27/2/2 26/2/2 28/2/2
f 19/1/2 27/1/2 29/1/2
f 29/1/2 27/1/2 30/1/2
f 33/1/3 32/1/3 31/1/3
f 34/1/3 32/1/3 33/1/3
f 35/1/4 36/1/4 39/1/4
f 39/1/4 36/1/4 40/1/4
f 37/1/4 38/1/4 41/1/4
f 41/1/4 38/1/4 42/1/4
f 43/3/4 44/3/4 46/3/4
f 44/2/4 45/2/4 47/2/4
f 46/3/4 44/3/4 47/3/4
f 47/2/4 45/2/4 48/2/4
f 49/1/4 50/1/4 51/1/4
f 51/1/4 50/1/4 52/1/4
f 52/1/4 50/1/4 53/1/4
f 53/1/4 50/1/4 54/1/4
f 54/1/4 50/1/4 55/1/4
f 52/3/4 53/3/4 56/3/4
f 53/2/4 54/2/4 57/2/4
f 56/3/4 53/3/4 57/3/4
f 57/2/4 54/2/4 58/2/4
f 49/1/4 51/1/4 59/1/4
f 59/1/4 51/1/4 60/1/4
f 63/1/5 62/1/5 61/1/5
f 64/1/5 62/1/5 63/1/5
f 67/3/5 66/3/5 65/3/5
f 68/3/5 66/3/5 67/3/5
f 69/3/5 67/3/5 65/3/5
f 70/3/5 67/3/5 69/3/5
f 71/1/6 72/1/6 73/1/6
f 73/1/6 72/1/6 74/1/6
f 75/2/6 76/2/6 77/2/6
f 77/2/6 76/2/6 78/2/6
f 75/2/6 77/2/6 79/2/6
f 79/2/6 77/2/6 80/2/6
f 81/1/6 82/1/6 83/1/6
f 83/1/6 82/1/6 84/1/6
f 81/1/6 83/1/6 85/1/6
f 85/1/6 83/1/6 86/1/6
