# MagicaVoxel @ Ephtracy

# group
o 

# material
mtllib cornerA7.mtl
usemtl palette

# normals
vn -1 0 0
vn 1 0 0
vn 0 0 1
vn 0 0 -1
vn 0 -1 0
vn 0 1 0

# texcoords
vt 0.939453 0.5
vt 0.947266 0.5
vt 0.951172 0.5
vt 0.990234 0.5

# verts
v -2 0 2
v -2 0 -2
v -2 1.6 1.3
v -2 1.6 1.1
v -2 1.6 0.6
v -2 1.6 0.4
v -2 1.6 -1.2
v -2 1.6 -1.4
v -2 2.1 1.3
v -2 2.1 1.1
v -2 2.1 0.6
v -2 2.1 0.4
v -2 2.1 0.2
v -2 2.1 -0.3
v -2 2.1 -1.2
v -2 2.1 -1.4
v -2 2.3 1.3
v -2 2.3 1.1
v -2 2.3 0.6
v -2 2.3 0.4
v -2 2.3 0.2
v -2 2.3 -0.3
v -2 2.3 -1.2
v -2 2.3 -1.4
v -2 2.7 1.3
v -2 2.7 1.1
v -2 2.7 0.6
v -2 2.7 0.4
v -2 2.7 -0.7
v -2 2.7 -1.2
v -2 2.7 -1.4
v -2 2.9 1.1
v -2 2.9 0.6
v -2 2.9 -0.7
v -2 2.9 -1.2
v -2 4 2
v -2 4 -2
v -1.9 0.1 1.9
v -1.9 0.1 -2
v -1.9 1.6 1.3
v -1.9 1.6 1.1
v -1.9 1.6 0.6
v -1.9 1.6 0.4
v -1.9 1.6 -1.2
v -1.9 1.6 -1.4
v -1.9 2.1 1.3
v -1.9 2.1 1.1
v -1.9 2.1 0.6
v -1.9 2.1 0.4
v -1.9 2.1 0.2
v -1.9 2.1 -0.3
v -1.9 2.1 -1.2
v -1.9 2.1 -1.4
v -1.9 2.2 1.9
v -1.9 2.2 1.7
v -1.9 2.3 1.7
v -1.9 2.3 1.3
v -1.9 2.3 1.1
v -1.9 2.3 0.6
v -1.9 2.3 0.4
v -1.9 2.3 0.2
v -1.9 2.3 -0.3
v -1.9 2.3 -1.2
v -1.9 2.3 -1.4
v -1.9 2.4 1.9
v -1.9 2.4 1.7
v -1.9 2.7 1.3
v -1.9 2.7 1.1
v -1.9 2.7 0.6
v -1.9 2.7 0.4
v -1.9 2.7 -0.7
v -1.9 2.7 -1.2
v -1.9 2.7 -1.4
v -1.9 2.9 1.1
v -1.9 2.9 0.6
v -1.9 2.9 -0.7
v -1.9 2.9 -1.2
v -1.9 4 1.9
v -1.9 4 -2
v 2 0 2
v 2 0 -2
v 2 0.1 1.9
v 2 0.1 -2
v 2 2.2 1.9
v 2 2.2 1.7
v 2 2.3 1.9
v 2 2.3 1.7
v 2 2.4 1.9
v 2 2.4 1.7
v 2 4 2
v 2 4 1.9
v -2 0 2
v -2 4 2
v 2 0 2
v 2 4 2
v -1.9 0.1 1.9
v -1.9 2.2 1.9
v -1.9 2.4 1.9
v -1.9 4 1.9
v 2 0.1 1.9
v 2 2.2 1.9
v 2 2.4 1.9
v 2 4 1.9
v -1.9 2.2 1.7
v -1.9 2.3 1.7
v -1.9 2.4 1.7
v 2 2.2 1.7
v 2 2.3 1.7
v 2 2.4 1.7
v -2 0 -2
v -2 4 -2
v -1.9 0.1 -2
v -1.9 4 -2
v 2 0 -2
v 2 0.1 -2
v -2 0 2
v 2 0 2
v -2 0 -2
v 2 0 -2
v -1.9 2.2 1.9
v 2 2.2 1.9
v -1.9 2.2 1.7
v 2 2.2 1.7
v -1.9 0.1 1.9
v 2 0.1 1.9
v -1.9 0.1 -2
v 2 0.1 -2
v -1.9 2.4 1.9
v 2 2.4 1.9
v -1.9 2.4 1.7
v 2 2.4 1.7
v -2 4 2
v 2 4 2
v -1.9 4 1.9
v 2 4 1.9
v -2 4 -2
v -1.9 4 -2

# faces
f 3/1/1 2/1/1 1/1/1
f 4/1/1 2/1/1 3/1/1
f 5/1/1 2/1/1 4/1/1
f 6/1/1 2/1/1 5/1/1
f 7/1/1 2/1/1 6/1/1
f 8/1/1 2/1/1 7/1/1
f 9/1/1 3/1/1 1/1/1
f 9/3/1 4/3/1 3/3/1
f 10/1/1 5/1/1 4/1/1
f 10/3/1 4/3/1 9/3/1
f 11/3/1 6/3/1 5/3/1
f 11/1/1 5/1/1 10/1/1
f 12/1/1 7/1/1 6/1/1
f 12/3/1 6/3/1 11/3/1
f 13/1/1 7/1/1 12/1/1
f 14/1/1 7/1/1 13/1/1
f 15/3/1 8/3/1 7/3/1
f 15/1/1 7/1/1 14/1/1
f 16/1/1 2/1/1 8/1/1
f 16/3/1 8/3/1 15/3/1
f 17/1/1 9/1/1 1/1/1
f 17/1/1 10/1/1 9/1/1
f 18/3/1 11/3/1 10/3/1
f 18/1/1 10/1/1 17/1/1
f 19/1/1 12/1/1 11/1/1
f 19/3/1 11/3/1 18/3/1
f 19/1/1 13/1/1 12/1/1
f 20/1/1 13/1/1 19/1/1
f 21/3/1 14/3/1 13/3/1
f 21/1/1 13/1/1 20/1/1
f 22/1/1 15/1/1 14/1/1
f 22/3/1 14/3/1 21/3/1
f 22/1/1 16/1/1 15/1/1
f 23/1/1 16/1/1 22/1/1
f 24/1/1 2/1/1 16/1/1
f 24/1/1 16/1/1 23/1/1
f 25/1/1 17/1/1 1/1/1
f 25/3/1 18/3/1 17/3/1
f 26/1/1 19/1/1 18/1/1
f 26/3/1 18/3/1 25/3/1
f 27/3/1 20/3/1 19/3/1
f 27/1/1 19/1/1 26/1/1
f 28/1/1 21/1/1 20/1/1
f 28/3/1 20/3/1 27/3/1
f 28/1/1 23/1/1 22/1/1
f 28/1/1 22/1/1 21/1/1
f 29/1/1 23/1/1 28/1/1
f 30/3/1 24/3/1 23/3/1
f 30/1/1 23/1/1 29/1/1
f 31/1/1 2/1/1 24/1/1
f 31/3/1 24/3/1 30/3/1
f 32/3/1 27/3/1 26/3/1
f 32/1/1 26/1/1 25/1/1
f 33/1/1 29/1/1 28/1/1
f 33/3/1 27/3/1 32/3/1
f 33/1/1 28/1/1 27/1/1
f 34/3/1 30/3/1 29/3/1
f 34/1/1 29/1/1 33/1/1
f 35/1/1 31/1/1 30/1/1
f 35/3/1 30/3/1 34/3/1
f 36/1/1 34/1/1 33/1/1
f 36/1/1 32/1/1 25/1/1
f 36/1/1 35/1/1 34/1/1
f 36/1/1 33/1/1 32/1/1
f 36/1/1 25/1/1 1/1/1
f 37/1/1 2/1/1 31/1/1
f 37/1/1 35/1/1 36/1/1
f 37/1/1 31/1/1 35/1/1
f 38/1/2 39/1/2 40/1/2
f 40/1/2 39/1/2 41/1/2
f 41/1/2 39/1/2 42/1/2
f 42/1/2 39/1/2 43/1/2
f 43/1/2 39/1/2 44/1/2
f 44/1/2 39/1/2 45/1/2
f 38/1/2 40/1/2 46/1/2
f 40/3/2 41/3/2 46/3/2
f 41/1/2 42/1/2 47/1/2
f 46/3/2 41/3/2 47/3/2
f 42/3/2 43/3/2 48/3/2
f 47/1/2 42/1/2 48/1/2
f 43/1/2 44/1/2 49/1/2
f 48/3/2 43/3/2 49/3/2
f 49/1/2 44/1/2 50/1/2
f 50/1/2 44/1/2 51/1/2
f 44/3/2 45/3/2 52/3/2
f 51/1/2 44/1/2 52/1/2
f 45/1/2 39/1/2 53/1/2
f 52/3/2 45/3/2 53/3/2
f 38/1/2 46/1/2 54/1/2
f 46/1/2 47/1/2 54/1/2
f 54/1/2 47/1/2 55/1/2
f 55/1/2 47/1/2 56/1/2
f 56/1/2 47/1/2 57/1/2
f 47/3/2 48/3/2 58/3/2
f 57/1/2 47/1/2 58/1/2
f 48/1/2 49/1/2 59/1/2
f 58/3/2 48/3/2 59/3/2
f 49/1/2 50/1/2 59/1/2
f 59/1/2 50/1/2 60/1/2
f 50/3/2 51/3/2 61/3/2
f 60/1/2 50/1/2 61/1/2
f 51/1/2 52/1/2 62/1/2
f 61/3/2 51/3/2 62/3/2
f 52/1/2 53/1/2 62/1/2
f 62/1/2 53/1/2 63/1/2
f 53/1/2 39/1/2 64/1/2
f 63/1/2 53/1/2 64/1/2
f 56/1/2 57/1/2 66/1/2
f 57/3/2 58/3/2 67/3/2
f 65/1/2 66/1/2 67/1/2
f 66/1/2 57/1/2 67/1/2
f 58/1/2 59/1/2 68/1/2
f 67/3/2 58/3/2 68/3/2
f 59/3/2 60/3/2 69/3/2
f 68/1/2 59/1/2 69/1/2
f 60/1/2 61/1/2 70/1/2
f 69/3/2 60/3/2 70/3/2
f 62/1/2 63/1/2 70/1/2
f 61/1/2 62/1/2 70/1/2
f 70/1/2 63/1/2 71/1/2
f 63/3/2 64/3/2 72/3/2
f 71/1/2 63/1/2 72/1/2
f 64/1/2 39/1/2 73/1/2
f 72/3/2 64/3/2 73/3/2
f 68/3/2 69/3/2 74/3/2
f 67/1/2 68/1/2 74/1/2
f 70/1/2 71/1/2 75/1/2
f 74/3/2 69/3/2 75/3/2
f 69/1/2 70/1/2 75/1/2
f 71/3/2 72/3/2 76/3/2
f 75/1/2 71/1/2 76/1/2
f 72/1/2 73/1/2 77/1/2
f 76/3/2 72/3/2 77/3/2
f 75/1/2 76/1/2 78/1/2
f 67/1/2 74/1/2 78/1/2
f 76/1/2 77/1/2 78/1/2
f 65/1/2 67/1/2 78/1/2
f 74/1/2 75/1/2 78/1/2
f 73/1/2 39/1/2 79/1/2
f 78/1/2 77/1/2 79/1/2
f 77/1/2 73/1/2 79/1/2
f 80/1/2 81/1/2 82/1/2
f 82/1/2 81/1/2 83/1/2
f 80/1/2 82/1/2 84/1/2
f 80/1/2 84/1/2 86/1/2
f 84/4/2 85/4/2 86/4/2
f 86/4/2 85/4/2 87/4/2
f 80/1/2 86/1/2 88/1/2
f 86/2/2 87/2/2 88/2/2
f 88/2/2 87/2/2 89/2/2
f 80/1/2 88/1/2 90/1/2
f 90/1/2 88/1/2 91/1/2
f 94/1/3 93/1/3 92/1/3
f 95/1/3 93/1/3 94/1/3
f 96/1/4 97/1/4 100/1/4
f 100/1/4 97/1/4 101/1/4
f 98/1/4 99/1/4 102/1/4
f 102/1/4 99/1/4 103/1/4
f 104/4/4 105/4/4 107/4/4
f 105/2/4 106/2/4 108/2/4
f 107/4/4 105/4/4 108/4/4
f 108/2/4 106/2/4 109/2/4
f 110/1/4 111/1/4 112/1/4
f 112/1/4 111/1/4 113/1/4
f 110/1/4 112/1/4 114/1/4
f 114/1/4 112/1/4 115/1/4
f 118/1/5 117/1/5 116/1/5
f 119/1/5 117/1/5 118/1/5
f 122/4/5 121/4/5 120/4/5
f 123/4/5 121/4/5 122/4/5
f 124/1/6 125/1/6 126/1/6
f 126/1/6 125/1/6 127/1/6
f 128/2/6 129/2/6 130/2/6
f 130/2/6 129/2/6 131/2/6
f 132/1/6 133/1/6 134/1/6
f 134/1/6 133/1/6 135/1/6
f 132/1/6 134/1/6 136/1/6
f 136/1/6 134/1/6 137/1/6
