# MagicaVoxel @ Ephtracy

# group
o 

# material
mtllib Inversed_corner_light.mtl
usemtl palette

# normals
vn -1 0 0
vn 1 0 0
vn 0 0 1
vn 0 0 -1
vn 0 -1 0
vn 0 1 0

# texcoords
vt 0.939453 0.5
vt 0.947266 0.5
vt 0.990234 0.5

# verts
v -2 0 2
v -2 0 -2
v -2 0.1 1.9
v -2 0.1 -2
v -2 2.2 1.9
v -2 2.2 1.7
v -2 2.3 1.9
v -2 2.3 1.7
v -2 2.4 1.9
v -2 2.4 1.7
v -2 4 2
v -2 4 1.9
v -1.9 0.1 2
v -1.9 0.1 1.9
v -1.9 2.2 2
v -1.9 2.2 1.9
v -1.9 2.4 2
v -1.9 2.4 1.9
v -1.9 4 2
v -1.9 4 1.9
v -1.8 2.2 1.8
v -1.8 2.2 1.7
v -1.8 2.3 1.8
v -1.8 2.3 1.7
v -1.8 2.4 1.8
v -1.8 2.4 1.7
v -1.7 2.2 2
v -1.7 2.2 1.8
v -1.7 2.3 2
v -1.7 2.3 1.8
v -1.7 2.4 2
v -1.7 2.4 1.8
v 2 0 2
v 2 0 -2
v 2 0.1 2
v 2 0.1 -2
v -2 0 2
v -2 4 2
v -1.9 0.1 2
v -1.9 2.2 2
v -1.9 2.3 2
v -1.9 2.4 2
v -1.9 4 2
v -1.7 2.2 2
v -1.7 2.3 2
v -1.7 2.4 2
v 2 0 2
v 2 0.1 2
v -2 0.1 1.9
v -2 2.2 1.9
v -2 2.4 1.9
v -2 4 1.9
v -1.9 0.1 1.9
v -1.9 2.2 1.9
v -1.9 2.4 1.9
v -1.9 4 1.9
v -1.8 2.2 1.8
v -1.8 2.3 1.8
v -1.8 2.4 1.8
v -1.7 2.2 1.8
v -1.7 2.3 1.8
v -1.7 2.4 1.8
v -2 2.2 1.7
v -2 2.3 1.7
v -2 2.4 1.7
v -1.8 2.2 1.7
v -1.8 2.3 1.7
v -1.8 2.4 1.7
v -2 0 -2
v -2 0.1 -2
v 2 0 -2
v 2 0.1 -2
v -2 0 2
v 2 0 2
v -2 0 -2
v 2 0 -2
v -1.9 2.2 2
v -1.7 2.2 2
v -2 2.2 1.9
v -1.9 2.2 1.9
v -1.8 2.2 1.8
v -1.7 2.2 1.8
v -2 2.2 1.7
v -1.8 2.2 1.7
v -1.9 0.1 2
v 2 0.1 2
v -2 0.1 1.9
v -1.9 0.1 1.9
v -2 0.1 -2
v 2 0.1 -2
v -1.9 2.4 2
v -1.7 2.4 2
v -2 2.4 1.9
v -1.9 2.4 1.9
v -1.8 2.4 1.8
v -1.7 2.4 1.8
v -2 2.4 1.7
v -1.8 2.4 1.7
v -2 4 2
v -1.9 4 2
v -2 4 1.9
v -1.9 4 1.9

# faces
f 3/1/1 2/1/1 1/1/1
f 4/1/1 2/1/1 3/1/1
f 5/1/1 3/1/1 1/1/1
f 7/1/1 5/1/1 1/1/1
f 7/3/1 6/3/1 5/3/1
f 8/3/1 6/3/1 7/3/1
f 9/1/1 7/1/1 1/1/1
f 9/2/1 8/2/1 7/2/1
f 10/2/1 8/2/1 9/2/1
f 11/1/1 9/1/1 1/1/1
f 12/1/1 9/1/1 11/1/1
f 13/1/2 14/1/2 15/1/2
f 15/1/2 14/1/2 16/1/2
f 17/1/2 18/1/2 19/1/2
f 19/1/2 18/1/2 20/1/2
f 21/3/2 22/3/2 23/3/2
f 23/3/2 22/3/2 24/3/2
f 23/2/2 24/2/2 25/2/2
f 25/2/2 24/2/2 26/2/2
f 27/3/2 28/3/2 29/3/2
f 29/3/2 28/3/2 30/3/2
f 29/2/2 30/2/2 31/2/2
f 31/2/2 30/2/2 32/2/2
f 33/1/2 34/1/2 35/1/2
f 35/1/2 34/1/2 36/1/2
f 39/1/3 38/1/3 37/1/3
f 40/1/3 38/1/3 39/1/3
f 41/1/3 38/1/3 40/1/3
f 42/1/3 38/1/3 41/1/3
f 43/1/3 38/1/3 42/1/3
f 44/3/3 41/3/3 40/3/3
f 45/2/3 42/2/3 41/2/3
f 45/3/3 41/3/3 44/3/3
f 46/2/3 42/2/3 45/2/3
f 47/1/3 39/1/3 37/1/3
f 48/1/3 39/1/3 47/1/3
f 49/1/4 50/1/4 53/1/4
f 53/1/4 50/1/4 54/1/4
f 51/1/4 52/1/4 55/1/4
f 55/1/4 52/1/4 56/1/4
f 57/3/4 58/3/4 60/3/4
f 58/2/4 59/2/4 61/2/4
f 60/3/4 58/3/4 61/3/4
f 61/2/4 59/2/4 62/2/4
f 63/3/4 64/3/4 66/3/4
f 64/2/4 65/2/4 67/2/4
f 66/3/4 64/3/4 67/3/4
f 67/2/4 65/2/4 68/2/4
f 69/1/4 70/1/4 71/1/4
f 71/1/4 70/1/4 72/1/4
f 75/1/5 74/1/5 73/1/5
f 76/1/5 74/1/5 75/1/5
f 80/3/5 78/3/5 77/3/5
f 81/3/5 78/3/5 80/3/5
f 81/3/5 80/3/5 79/3/5
f 82/3/5 78/3/5 81/3/5
f 83/3/5 81/3/5 79/3/5
f 84/3/5 81/3/5 83/3/5
f 85/1/6 86/1/6 88/1/6
f 87/1/6 88/1/6 89/1/6
f 88/1/6 86/1/6 90/1/6
f 89/1/6 88/1/6 90/1/6
f 91/2/6 92/2/6 94/2/6
f 94/2/6 92/2/6 95/2/6
f 93/2/6 94/2/6 95/2/6
f 95/2/6 92/2/6 96/2/6
f 93/2/6 95/2/6 97/2/6
f 97/2/6 95/2/6 98/2/6
f 99/1/6 100/1/6 101/1/6
f 101/1/6 100/1/6 102/1/6
