# MagicaVoxel @ Ephtracy

# group
o 

# material
mtllib Wall_Corner_with_duble_door_open(Ver_1).mtl
usemtl palette

# normals
vn -1 0 0
vn 1 0 0
vn 0 0 1
vn 0 0 -1
vn 0 -1 0
vn 0 1 0

# texcoords
vt 0.783203 0.5
vt 0.787109 0.5
vt 0.939453 0.5
vt 0.947266 0.5
vt 0.990234 0.5

# verts
v -2 0 2
v -2 0 -2
v -2 0.1 2
v -2 0.1 -1.9
v -2 2.2 -1.7
v -2 2.2 -1.9
v -2 2.3 -1.7
v -2 2.3 -1.9
v -2 2.4 -1.7
v -2 2.4 -1.9
v -2 4 -1.9
v -2 4 -2
v 0.9 0.1 1.1
v 0.9 0.1 1
v 0.9 0.1 -0.9
v 0.9 0.1 -1
v 0.9 2.9 1.1
v 0.9 2.9 1
v 0.9 2.9 -0.9
v 0.9 2.9 -1
v 1.1 1.4 1.3
v 1.1 1.4 1.1
v 1.1 1.4 1
v 1.1 1.4 0.8
v 1.1 1.4 -0.7
v 1.1 1.4 -0.9
v 1.1 1.4 -1
v 1.1 1.4 -1.2
v 1.1 1.5 1.2
v 1.1 1.5 1.1
v 1.1 1.5 1
v 1.1 1.5 0.9
v 1.1 1.5 -0.8
v 1.1 1.5 -0.9
v 1.1 1.5 -1
v 1.1 1.5 -1.1
v 1.1 1.7 1.2
v 1.1 1.7 1.1
v 1.1 1.7 1
v 1.1 1.7 0.9
v 1.1 1.7 -0.8
v 1.1 1.7 -0.9
v 1.1 1.7 -1
v 1.1 1.7 -1.1
v 1.1 1.8 1.3
v 1.1 1.8 1.1
v 1.1 1.8 1
v 1.1 1.8 0.8
v 1.1 1.8 -0.7
v 1.1 1.8 -0.9
v 1.1 1.8 -1
v 1.1 1.8 -1.2
v 1.9 0.1 2
v 1.9 0.1 1.1
v 1.9 0.1 -1
v 1.9 0.1 -1.9
v 1.9 2.2 -1.7
v 1.9 2.2 -1.9
v 1.9 2.3 -1.7
v 1.9 2.4 -1.7
v 1.9 2.4 -1.9
v 1.9 2.8 1.1
v 1.9 2.8 1
v 1.9 2.8 -0.9
v 1.9 2.8 -1
v 1.9 2.9 1.1
v 1.9 2.9 1
v 1.9 2.9 -0.9
v 1.9 2.9 -1
v 1.9 4 2
v 1.9 4 -1.9
v 1.2 1.4 1.3
v 1.2 1.4 1.1
v 1.2 1.4 1
v 1.2 1.4 0.8
v 1.2 1.4 -0.7
v 1.2 1.4 -0.9
v 1.2 1.4 -1
v 1.2 1.4 -1.2
v 1.2 1.5 1.2
v 1.2 1.5 1.1
v 1.2 1.5 1
v 1.2 1.5 0.9
v 1.2 1.5 -0.8
v 1.2 1.5 -0.9
v 1.2 1.5 -1
v 1.2 1.5 -1.1
v 1.2 1.7 1.2
v 1.2 1.7 1.1
v 1.2 1.7 1
v 1.2 1.7 0.9
v 1.2 1.7 -0.8
v 1.2 1.7 -0.9
v 1.2 1.7 -1
v 1.2 1.7 -1.1
v 1.2 1.8 1.3
v 1.2 1.8 1.1
v 1.2 1.8 1
v 1.2 1.8 0.8
v 1.2 1.8 -0.7
v 1.2 1.8 -0.9
v 1.2 1.8 -1
v 1.2 1.8 -1.2
v 2 0 2
v 2 0 -2
v 2 0.1 1.1
v 2 0.1 1
v 2 0.1 -0.9
v 2 0.1 -1
v 2 2.8 1
v 2 2.8 -0.9
v 2 2.9 1.1
v 2 2.9 -1
v 2 4 2
v 2 4 -2
v -2 0 2
v -2 0.1 2
v 1.9 0.1 2
v 1.9 4 2
v 2 0 2
v 2 4 2
v 1.1 1.4 1.3
v 1.1 1.8 1.3
v 1.2 1.4 1.3
v 1.2 1.8 1.3
v 0.9 0.1 1.1
v 0.9 2.9 1.1
v 1 0.1 1.1
v 1 2.8 1.1
v 1.1 1.4 1.1
v 1.1 1.5 1.1
v 1.1 1.7 1.1
v 1.1 1.8 1.1
v 1.2 1.4 1.1
v 1.2 1.5 1.1
v 1.2 1.7 1.1
v 1.2 1.8 1.1
v 1.9 0.1 1.1
v 1.9 2.8 1.1
v 1.9 2.9 1.1
v 1.1 1.5 0.9
v 1.1 1.7 0.9
v 1.2 1.5 0.9
v 1.2 1.7 0.9
v 1.1 1.4 -0.7
v 1.1 1.8 -0.7
v 1.2 1.4 -0.7
v 1.2 1.8 -0.7
v 0.9 0.1 -0.9
v 0.9 2.9 -0.9
v 1 0.1 -0.9
v 1 2.8 -0.9
v 1.1 1.4 -0.9
v 1.1 1.5 -0.9
v 1.1 1.7 -0.9
v 1.1 1.8 -0.9
v 1.2 1.4 -0.9
v 1.2 1.5 -0.9
v 1.2 1.7 -0.9
v 1.2 1.8 -0.9
v 1.9 0.1 -0.9
v 1.9 2.8 -0.9
v 1.9 2.9 -0.9
v 2 0.1 -0.9
v 2 2.8 -0.9
v 1.1 1.5 -1.1
v 1.1 1.7 -1.1
v 1.2 1.5 -1.1
v 1.2 1.7 -1.1
v -2 2.2 -1.7
v -2 2.3 -1.7
v -2 2.4 -1.7
v 1.9 2.2 -1.7
v 1.9 2.3 -1.7
v 1.9 2.4 -1.7
v -2 0.1 -1.9
v -2 2.2 -1.9
v -2 2.4 -1.9
v -2 4 -1.9
v 1.9 0.1 -1.9
v 1.9 2.2 -1.9
v 1.9 2.4 -1.9
v 1.9 4 -1.9
v 1.1 1.5 1.2
v 1.1 1.7 1.2
v 1.2 1.5 1.2
v 1.2 1.7 1.2
v 0.9 0.1 1
v 0.9 2.9 1
v 1 0.1 1
v 1 2.8 1
v 1.1 1.4 1
v 1.1 1.5 1
v 1.1 1.7 1
v 1.1 1.8 1
v 1.2 1.4 1
v 1.2 1.5 1
v 1.2 1.7 1
v 1.2 1.8 1
v 1.9 0.1 1
v 1.9 2.8 1
v 1.9 2.9 1
v 2 0.1 1
v 2 2.8 1
v 1.1 1.4 0.8
v 1.1 1.8 0.8
v 1.2 1.4 0.8
v 1.2 1.8 0.8
v 1.1 1.5 -0.8
v 1.1 1.7 -0.8
v 1.2 1.5 -0.8
v 1.2 1.7 -0.8
v 0.9 0.1 -1
v 0.9 2.9 -1
v 1 0.1 -1
v 1 2.8 -1
v 1.1 1.4 -1
v 1.1 1.5 -1
v 1.1 1.7 -1
v 1.1 1.8 -1
v 1.2 1.4 -1
v 1.2 1.5 -1
v 1.2 1.7 -1
v 1.2 1.8 -1
v 1.9 0.1 -1
v 1.9 2.8 -1
v 1.9 2.9 -1
v 1.1 1.4 -1.2
v 1.1 1.8 -1.2
v 1.2 1.4 -1.2
v 1.2 1.8 -1.2
v -2 0 -2
v -2 4 -2
v 2 0 -2
v 2 4 -2
v -2 0 2
v 2 0 2
v -2 0 -2
v 2 0 -2
v 1.1 1.4 1.3
v 1.2 1.4 1.3
v 1.1 1.4 1.1
v 1.2 1.4 1.1
v 1.1 1.4 1
v 1.2 1.4 1
v 1.1 1.4 0.8
v 1.2 1.4 0.8
v 1.1 1.4 -0.7
v 1.2 1.4 -0.7
v 1.1 1.4 -0.9
v 1.2 1.4 -0.9
v 1.1 1.4 -1
v 1.2 1.4 -1
v 1.1 1.4 -1.2
v 1.2 1.4 -1.2
v 1.1 1.7 1.2
v 1.2 1.7 1.2
v 1.1 1.7 1.1
v 1.2 1.7 1.1
v 1.1 1.7 1
v 1.2 1.7 1
v 1.1 1.7 0.9
v 1.2 1.7 0.9
v 1.1 1.7 -0.8
v 1.2 1.7 -0.8
v 1.1 1.7 -0.9
v 1.2 1.7 -0.9
v 1.1 1.7 -1
v 1.2 1.7 -1
v 1.1 1.7 -1.1
v 1.2 1.7 -1.1
v -2 2.2 -1.7
v 1.9 2.2 -1.7
v -2 2.2 -1.9
v 1.9 2.2 -1.9
v 1.9 2.8 1
v 2 2.8 1
v 1.9 2.8 -0.9
v 2 2.8 -0.9
v -2 0.1 2
v 1.9 0.1 2
v 0.9 0.1 1.1
v 1 0.1 1.1
v 1.9 0.1 1.1
v 0.9 0.1 1
v 1 0.1 1
v 1.9 0.1 1
v 2 0.1 1
v 0.9 0.1 -0.9
v 1 0.1 -0.9
v 1.9 0.1 -0.9
v 2 0.1 -0.9
v 0.9 0.1 -1
v 1 0.1 -1
v 1.9 0.1 -1
v -2 0.1 -1.9
v 1.9 0.1 -1.9
v 1.1 1.5 1.2
v 1.2 1.5 1.2
v 1.1 1.5 1.1
v 1.2 1.5 1.1
v 1.1 1.5 1
v 1.2 1.5 1
v 1.1 1.5 0.9
v 1.2 1.5 0.9
v 1.1 1.5 -0.8
v 1.2 1.5 -0.8
v 1.1 1.5 -0.9
v 1.2 1.5 -0.9
v 1.1 1.5 -1
v 1.2 1.5 -1
v 1.1 1.5 -1.1
v 1.2 1.5 -1.1
v 1.1 1.8 1.3
v 1.2 1.8 1.3
v 1.1 1.8 1.1
v 1.2 1.8 1.1
v 1.1 1.8 1
v 1.2 1.8 1
v 1.1 1.8 0.8
v 1.2 1.8 0.8
v 1.1 1.8 -0.7
v 1.2 1.8 -0.7
v 1.1 1.8 -0.9
v 1.2 1.8 -0.9
v 1.1 1.8 -1
v 1.2 1.8 -1
v 1.1 1.8 -1.2
v 1.2 1.8 -1.2
v -2 2.4 -1.7
v 1.9 2.4 -1.7
v -2 2.4 -1.9
v 1.9 2.4 -1.9
v 0.9 2.9 1.1
v 1.9 2.9 1.1
v 0.9 2.9 1
v 1.9 2.9 1
v 0.9 2.9 -0.9
v 1.9 2.9 -0.9
v 0.9 2.9 -1
v 1.9 2.9 -1
v 1.9 4 2
v 2 4 2
v -2 4 -1.9
v 1.9 4 -1.9
v -2 4 -2
v 2 4 -2

# faces
f 3/3/1 2/3/1 1/3/1
f 4/3/1 2/3/1 3/3/1
f 6/3/1 2/3/1 4/3/1
f 7/5/1 6/5/1 5/5/1
f 8/3/1 2/3/1 6/3/1
f 8/5/1 6/5/1 7/5/1
f 9/4/1 8/4/1 7/4/1
f 10/3/1 2/3/1 8/3/1
f 10/4/1 8/4/1 9/4/1
f 11/3/1 2/3/1 10/3/1
f 12/3/1 2/3/1 11/3/1
f 17/2/1 14/2/1 13/2/1
f 18/2/1 14/2/1 17/2/1
f 19/2/1 16/2/1 15/2/1
f 20/2/1 16/2/1 19/2/1
f 29/2/1 22/2/1 21/2/1
f 30/2/1 22/2/1 29/2/1
f 31/2/1 24/2/1 23/2/1
f 32/2/1 24/2/1 31/2/1
f 33/2/1 26/2/1 25/2/1
f 34/2/1 26/2/1 33/2/1
f 35/2/1 28/2/1 27/2/1
f 36/2/1 28/2/1 35/2/1
f 37/2/1 29/2/1 21/2/1
f 40/2/1 24/2/1 32/2/1
f 41/2/1 33/2/1 25/2/1
f 44/2/1 28/2/1 36/2/1
f 45/2/1 38/2/1 37/2/1
f 45/2/1 37/2/1 21/2/1
f 46/2/1 38/2/1 45/2/1
f 47/2/1 40/2/1 39/2/1
f 48/2/1 24/2/1 40/2/1
f 48/2/1 40/2/1 47/2/1
f 49/2/1 42/2/1 41/2/1
f 49/2/1 41/2/1 25/2/1
f 50/2/1 42/2/1 49/2/1
f 51/2/1 44/2/1 43/2/1
f 52/2/1 28/2/1 44/2/1
f 52/2/1 44/2/1 51/2/1
f 57/3/1 56/3/1 55/3/1
f 58/3/1 56/3/1 57/3/1
f 59/3/1 57/3/1 55/3/1
f 60/3/1 59/3/1 55/3/1
f 62/3/1 54/3/1 53/3/1
f 65/3/1 61/3/1 60/3/1
f 65/3/1 60/3/1 55/3/1
f 66/3/1 62/3/1 53/3/1
f 67/2/1 64/2/1 63/2/1
f 68/2/1 64/2/1 67/2/1
f 69/3/1 61/3/1 65/3/1
f 70/3/1 66/3/1 53/3/1
f 70/3/1 69/3/1 68/3/1
f 70/3/1 68/3/1 67/3/1
f 70/3/1 67/3/1 66/3/1
f 71/3/1 61/3/1 69/3/1
f 71/3/1 69/3/1 70/3/1
f 72/2/2 73/2/2 80/2/2
f 80/2/2 73/2/2 81/2/2
f 74/2/2 75/2/2 82/2/2
f 82/2/2 75/2/2 83/2/2
f 76/2/2 77/2/2 84/2/2
f 84/2/2 77/2/2 85/2/2
f 78/2/2 79/2/2 86/2/2
f 86/2/2 79/2/2 87/2/2
f 72/2/2 80/2/2 88/2/2
f 83/2/2 75/2/2 91/2/2
f 76/2/2 84/2/2 92/2/2
f 87/2/2 79/2/2 95/2/2
f 88/2/2 89/2/2 96/2/2
f 72/2/2 88/2/2 96/2/2
f 96/2/2 89/2/2 97/2/2
f 90/2/2 91/2/2 98/2/2
f 91/2/2 75/2/2 99/2/2
f 98/2/2 91/2/2 99/2/2
f 92/2/2 93/2/2 100/2/2
f 76/2/2 92/2/2 100/2/2
f 100/2/2 93/2/2 101/2/2
f 94/2/2 95/2/2 102/2/2
f 95/2/2 79/2/2 103/2/2
f 102/2/2 95/2/2 103/2/2
f 104/3/2 105/3/2 106/3/2
f 106/3/2 105/3/2 107/3/2
f 107/3/2 105/3/2 108/3/2
f 108/3/2 105/3/2 109/3/2
f 106/2/2 107/2/2 110/2/2
f 108/2/2 109/2/2 111/2/2
f 104/3/2 106/3/2 112/3/2
f 110/2/2 111/2/2 112/2/2
f 106/2/2 110/2/2 112/2/2
f 111/2/2 109/2/2 113/2/2
f 112/2/2 111/2/2 113/2/2
f 109/3/2 105/3/2 113/3/2
f 104/3/2 112/3/2 114/3/2
f 112/3/2 113/3/2 114/3/2
f 113/3/2 105/3/2 115/3/2
f 114/3/2 113/3/2 115/3/2
f 118/3/3 117/3/3 116/3/3
f 120/3/3 118/3/3 116/3/3
f 120/3/3 119/3/3 118/3/3
f 121/3/3 119/3/3 120/3/3
f 124/2/3 123/2/3 122/2/3
f 125/2/3 123/2/3 124/2/3
f 128/2/3 127/2/3 126/2/3
f 129/2/3 127/2/3 128/2/3
f 130/1/3 129/1/3 128/1/3
f 131/1/3 129/1/3 130/1/3
f 132/1/3 129/1/3 131/1/3
f 133/1/3 129/1/3 132/1/3
f 134/1/3 130/1/3 128/1/3
f 135/1/3 132/1/3 131/1/3
f 136/1/3 132/1/3 135/1/3
f 137/1/3 129/1/3 133/1/3
f 138/1/3 136/1/3 135/1/3
f 138/1/3 137/1/3 136/1/3
f 138/1/3 134/1/3 128/1/3
f 138/1/3 135/1/3 134/1/3
f 139/2/3 127/2/3 129/2/3
f 139/1/3 137/1/3 138/1/3
f 139/1/3 129/1/3 137/1/3
f 140/2/3 127/2/3 139/2/3
f 143/2/3 142/2/3 141/2/3
f 144/2/3 142/2/3 143/2/3
f 147/2/3 146/2/3 145/2/3
f 148/2/3 146/2/3 147/2/3
f 151/2/3 150/2/3 149/2/3
f 152/2/3 150/2/3 151/2/3
f 153/1/3 152/1/3 151/1/3
f 154/1/3 152/1/3 153/1/3
f 155/1/3 152/1/3 154/1/3
f 156/1/3 152/1/3 155/1/3
f 157/1/3 153/1/3 151/1/3
f 158/1/3 155/1/3 154/1/3
f 159/1/3 155/1/3 158/1/3
f 160/1/3 152/1/3 156/1/3
f 161/1/3 159/1/3 158/1/3
f 161/1/3 160/1/3 159/1/3
f 161/1/3 157/1/3 151/1/3
f 161/1/3 158/1/3 157/1/3
f 162/2/3 150/2/3 152/2/3
f 162/1/3 160/1/3 161/1/3
f 162/1/3 152/1/3 160/1/3
f 163/2/3 150/2/3 162/2/3
f 164/2/3 162/2/3 161/2/3
f 165/2/3 162/2/3 164/2/3
f 168/2/3 167/2/3 166/2/3
f 169/2/3 167/2/3 168/2/3
f 173/5/3 171/5/3 170/5/3
f 174/4/3 172/4/3 171/4/3
f 174/5/3 171/5/3 173/5/3
f 175/4/3 172/4/3 174/4/3
f 180/3/3 177/3/3 176/3/3
f 181/3/3 177/3/3 180/3/3
f 182/3/3 179/3/3 178/3/3
f 183/3/3 179/3/3 182/3/3
f 184/2/4 185/2/4 186/2/4
f 186/2/4 185/2/4 187/2/4
f 188/2/4 189/2/4 190/2/4
f 190/2/4 189/2/4 191/2/4
f 190/1/4 191/1/4 192/1/4
f 192/1/4 191/1/4 193/1/4
f 193/1/4 191/1/4 194/1/4
f 194/1/4 191/1/4 195/1/4
f 190/1/4 192/1/4 196/1/4
f 193/1/4 194/1/4 197/1/4
f 197/1/4 194/1/4 198/1/4
f 195/1/4 191/1/4 199/1/4
f 197/1/4 198/1/4 200/1/4
f 198/1/4 199/1/4 200/1/4
f 190/1/4 196/1/4 200/1/4
f 196/1/4 197/1/4 200/1/4
f 191/2/4 189/2/4 201/2/4
f 200/1/4 199/1/4 201/1/4
f 199/1/4 191/1/4 201/1/4
f 201/2/4 189/2/4 202/2/4
f 200/2/4 201/2/4 203/2/4
f 203/2/4 201/2/4 204/2/4
f 205/2/4 206/2/4 207/2/4
f 207/2/4 206/2/4 208/2/4
f 209/2/4 210/2/4 211/2/4
f 211/2/4 210/2/4 212/2/4
f 213/2/4 214/2/4 215/2/4
f 215/2/4 214/2/4 216/2/4
f 215/1/4 216/1/4 217/1/4
f 217/1/4 216/1/4 218/1/4
f 218/1/4 216/1/4 219/1/4
f 219/1/4 216/1/4 220/1/4
f 215/1/4 217/1/4 221/1/4
f 218/1/4 219/1/4 222/1/4
f 222/1/4 219/1/4 223/1/4
f 220/1/4 216/1/4 224/1/4
f 222/1/4 223/1/4 225/1/4
f 223/1/4 224/1/4 225/1/4
f 215/1/4 221/1/4 225/1/4
f 221/1/4 222/1/4 225/1/4
f 216/2/4 214/2/4 226/2/4
f 225/1/4 224/1/4 226/1/4
f 224/1/4 216/1/4 226/1/4
f 226/2/4 214/2/4 227/2/4
f 228/2/4 229/2/4 230/2/4
f 230/2/4 229/2/4 231/2/4
f 232/3/4 233/3/4 234/3/4
f 234/3/4 233/3/4 235/3/4
f 238/3/5 237/3/5 236/3/5
f 239/3/5 237/3/5 238/3/5
f 242/2/5 241/2/5 240/2/5
f 243/2/5 241/2/5 242/2/5
f 246/2/5 245/2/5 244/2/5
f 247/2/5 245/2/5 246/2/5
f 250/2/5 249/2/5 248/2/5
f 251/2/5 249/2/5 250/2/5
f 254/2/5 253/2/5 252/2/5
f 255/2/5 253/2/5 254/2/5
f 258/2/5 257/2/5 256/2/5
f 259/2/5 257/2/5 258/2/5
f 262/2/5 261/2/5 260/2/5
f 263/2/5 261/2/5 262/2/5
f 266/2/5 265/2/5 264/2/5
f 267/2/5 265/2/5 266/2/5
f 270/2/5 269/2/5 268/2/5
f 271/2/5 269/2/5 270/2/5
f 274/5/5 273/5/5 272/5/5
f 275/5/5 273/5/5 274/5/5
f 278/2/5 277/2/5 276/2/5
f 279/2/5 277/2/5 278/2/5
f 280/3/6 281/3/6 282/3/6
f 282/3/6 281/3/6 283/3/6
f 283/3/6 281/3/6 284/3/6
f 280/3/6 282/3/6 285/3/6
f 286/3/6 287/3/6 289/3/6
f 287/3/6 288/3/6 289/3/6
f 285/3/6 286/3/6 289/3/6
f 280/3/6 285/3/6 289/3/6
f 289/3/6 288/3/6 290/3/6
f 290/3/6 288/3/6 291/3/6
f 291/3/6 288/3/6 292/3/6
f 280/3/6 289/3/6 293/3/6
f 280/3/6 293/3/6 296/3/6
f 294/3/6 295/3/6 296/3/6
f 293/3/6 294/3/6 296/3/6
f 296/3/6 295/3/6 297/3/6
f 298/2/6 299/2/6 300/2/6
f 300/2/6 299/2/6 301/2/6
f 302/2/6 303/2/6 304/2/6
f 304/2/6 303/2/6 305/2/6
f 306/2/6 307/2/6 308/2/6
f 308/2/6 307/2/6 309/2/6
f 310/2/6 311/2/6 312/2/6
f 312/2/6 311/2/6 313/2/6
f 314/2/6 315/2/6 316/2/6
f 316/2/6 315/2/6 317/2/6
f 318/2/6 319/2/6 320/2/6
f 320/2/6 319/2/6 321/2/6
f 322/2/6 323/2/6 324/2/6
f 324/2/6 323/2/6 325/2/6
f 326/2/6 327/2/6 328/2/6
f 328/2/6 327/2/6 329/2/6
f 330/4/6 331/4/6 332/4/6
f 332/4/6 331/4/6 333/4/6
f 334/2/6 335/2/6 336/2/6
f 336/2/6 335/2/6 337/2/6
f 338/2/6 339/2/6 340/2/6
f 340/2/6 339/2/6 341/2/6
f 342/3/6 343/3/6 345/3/6
f 344/3/6 345/3/6 346/3/6
f 345/3/6 343/3/6 347/3/6
f 346/3/6 345/3/6 347/3/6
