# MagicaVoxel @ Ephtracy

# group
o 

# material
mtllib Wall_Corner(Ver_1_Number 1).mtl
usemtl palette

# normals
vn -1 0 0
vn 1 0 0
vn 0 0 1
vn 0 0 -1
vn 0 -1 0
vn 0 1 0

# texcoords
vt 0.939453 0.5
vt 0.947266 0.5
vt 0.951172 0.5
vt 0.990234 0.5

# verts
v -2 0 2
v -2 0 -2
v -2 0.1 2
v -2 0.1 -1.9
v -2 2.2 -1.7
v -2 2.2 -1.9
v -2 2.3 -1.7
v -2 2.3 -1.9
v -2 2.4 -1.7
v -2 2.4 -1.9
v -2 4 -1.9
v -2 4 -2
v 1.9 0.1 2
v 1.9 0.1 -1.9
v 1.9 1.6 0.7
v 1.9 1.6 0.5
v 1.9 1.6 -0.4
v 1.9 1.6 -0.6
v 1.9 1.6 -1.1
v 1.9 1.6 -1.3
v 1.9 2.1 0.7
v 1.9 2.1 0.5
v 1.9 2.1 0.2
v 1.9 2.1 -0.2
v 1.9 2.1 -0.4
v 1.9 2.1 -0.6
v 1.9 2.1 -1.1
v 1.9 2.1 -1.3
v 1.9 2.2 -1.7
v 1.9 2.2 -1.9
v 1.9 2.3 0.7
v 1.9 2.3 0.5
v 1.9 2.3 0.2
v 1.9 2.3 -0.2
v 1.9 2.3 -0.4
v 1.9 2.3 -0.6
v 1.9 2.3 -1.1
v 1.9 2.3 -1.3
v 1.9 2.3 -1.7
v 1.9 2.4 -1.7
v 1.9 2.4 -1.9
v 1.9 2.7 -0.4
v 1.9 2.7 -0.6
v 1.9 2.7 -1.1
v 1.9 2.7 -1.3
v 1.9 2.8 0.7
v 1.9 2.8 0.5
v 1.9 2.9 -0.6
v 1.9 2.9 -1.1
v 1.9 4 2
v 1.9 4 -1.9
v 2 0 2
v 2 0 -2
v 2 1.6 0.7
v 2 1.6 0.5
v 2 1.6 -0.4
v 2 1.6 -0.6
v 2 1.6 -1.1
v 2 1.6 -1.3
v 2 2.1 0.7
v 2 2.1 0.5
v 2 2.1 0.2
v 2 2.1 -0.2
v 2 2.1 -0.4
v 2 2.1 -0.6
v 2 2.1 -1.1
v 2 2.1 -1.3
v 2 2.3 0.7
v 2 2.3 0.5
v 2 2.3 0.2
v 2 2.3 -0.2
v 2 2.3 -0.4
v 2 2.3 -0.6
v 2 2.3 -1.1
v 2 2.3 -1.3
v 2 2.7 -0.4
v 2 2.7 -0.6
v 2 2.7 -1.1
v 2 2.7 -1.3
v 2 2.8 0.7
v 2 2.8 0.5
v 2 2.9 -0.6
v 2 2.9 -1.1
v 2 4 2
v 2 4 -2
v -2 0 2
v -2 0.1 2
v 1.9 0.1 2
v 1.9 4 2
v 2 0 2
v 2 4 2
v -2 2.2 -1.7
v -2 2.3 -1.7
v -2 2.4 -1.7
v 1.9 2.2 -1.7
v 1.9 2.3 -1.7
v 1.9 2.4 -1.7
v -2 0.1 -1.9
v -2 2.2 -1.9
v -2 2.4 -1.9
v -2 4 -1.9
v 1.9 0.1 -1.9
v 1.9 2.2 -1.9
v 1.9 2.4 -1.9
v 1.9 4 -1.9
v -2 0 -2
v -2 4 -2
v 2 0 -2
v 2 4 -2
v -2 0 2
v 2 0 2
v -2 0 -2
v 2 0 -2
v -2 2.2 -1.7
v 1.9 2.2 -1.7
v -2 2.2 -1.9
v 1.9 2.2 -1.9
v -2 0.1 2
v 1.9 0.1 2
v -2 0.1 -1.9
v 1.9 0.1 -1.9
v -2 2.4 -1.7
v 1.9 2.4 -1.7
v -2 2.4 -1.9
v 1.9 2.4 -1.9
v 1.9 4 2
v 2 4 2
v -2 4 -1.9
v 1.9 4 -1.9
v -2 4 -2
v 2 4 -2

# faces
f 3/1/1 2/1/1 1/1/1
f 4/1/1 2/1/1 3/1/1
f 6/1/1 2/1/1 4/1/1
f 7/4/1 6/4/1 5/4/1
f 8/1/1 2/1/1 6/1/1
f 8/4/1 6/4/1 7/4/1
f 9/2/1 8/2/1 7/2/1
f 10/1/1 2/1/1 8/1/1
f 10/2/1 8/2/1 9/2/1
f 11/1/1 2/1/1 10/1/1
f 12/1/1 2/1/1 11/1/1
f 15/1/1 14/1/1 13/1/1
f 16/1/1 14/1/1 15/1/1
f 17/1/1 14/1/1 16/1/1
f 18/1/1 14/1/1 17/1/1
f 19/1/1 14/1/1 18/1/1
f 20/1/1 14/1/1 19/1/1
f 21/1/1 15/1/1 13/1/1
f 21/3/1 16/3/1 15/3/1
f 22/1/1 17/1/1 16/1/1
f 22/3/1 16/3/1 21/3/1
f 23/1/1 17/1/1 22/1/1
f 24/1/1 17/1/1 23/1/1
f 25/3/1 18/3/1 17/3/1
f 25/1/1 17/1/1 24/1/1
f 26/1/1 19/1/1 18/1/1
f 26/3/1 18/3/1 25/3/1
f 27/3/1 20/3/1 19/3/1
f 27/1/1 19/1/1 26/1/1
f 28/1/1 14/1/1 20/1/1
f 28/3/1 20/3/1 27/3/1
f 29/1/1 28/1/1 27/1/1
f 29/1/1 14/1/1 28/1/1
f 30/1/1 14/1/1 29/1/1
f 31/1/1 21/1/1 13/1/1
f 31/1/1 22/1/1 21/1/1
f 31/1/1 23/1/1 22/1/1
f 32/1/1 23/1/1 31/1/1
f 33/3/1 24/3/1 23/3/1
f 33/1/1 23/1/1 32/1/1
f 34/1/1 26/1/1 25/1/1
f 34/3/1 24/3/1 33/3/1
f 34/1/1 25/1/1 24/1/1
f 35/1/1 26/1/1 34/1/1
f 36/3/1 27/3/1 26/3/1
f 36/1/1 26/1/1 35/1/1
f 37/1/1 29/1/1 27/1/1
f 37/3/1 27/3/1 36/3/1
f 38/1/1 29/1/1 37/1/1
f 39/1/1 29/1/1 38/1/1
f 40/1/1 39/1/1 38/1/1
f 42/1/1 35/1/1 34/1/1
f 42/1/1 33/1/1 32/1/1
f 42/3/1 36/3/1 35/3/1
f 42/1/1 34/1/1 33/1/1
f 43/1/1 37/1/1 36/1/1
f 43/3/1 36/3/1 42/3/1
f 44/3/1 38/3/1 37/3/1
f 44/1/1 37/1/1 43/1/1
f 45/1/1 41/1/1 40/1/1
f 45/3/1 38/3/1 44/3/1
f 45/1/1 40/1/1 38/1/1
f 46/3/1 32/3/1 31/3/1
f 46/1/1 31/1/1 13/1/1
f 47/1/1 42/1/1 32/1/1
f 47/3/1 32/3/1 46/3/1
f 47/1/1 43/1/1 42/1/1
f 48/3/1 44/3/1 43/3/1
f 48/1/1 43/1/1 47/1/1
f 48/1/1 47/1/1 46/1/1
f 49/1/1 45/1/1 44/1/1
f 49/3/1 44/3/1 48/3/1
f 50/1/1 48/1/1 46/1/1
f 50/1/1 46/1/1 13/1/1
f 50/1/1 49/1/1 48/1/1
f 51/1/1 45/1/1 49/1/1
f 51/1/1 49/1/1 50/1/1
f 51/1/1 41/1/1 45/1/1
f 52/1/2 53/1/2 54/1/2
f 54/1/2 53/1/2 55/1/2
f 55/1/2 53/1/2 56/1/2
f 56/1/2 53/1/2 57/1/2
f 57/1/2 53/1/2 58/1/2
f 58/1/2 53/1/2 59/1/2
f 52/1/2 54/1/2 60/1/2
f 54/3/2 55/3/2 60/3/2
f 55/1/2 56/1/2 61/1/2
f 60/3/2 55/3/2 61/3/2
f 61/1/2 56/1/2 62/1/2
f 62/1/2 56/1/2 63/1/2
f 56/3/2 57/3/2 64/3/2
f 63/1/2 56/1/2 64/1/2
f 57/1/2 58/1/2 65/1/2
f 64/3/2 57/3/2 65/3/2
f 58/3/2 59/3/2 66/3/2
f 65/1/2 58/1/2 66/1/2
f 59/1/2 53/1/2 67/1/2
f 66/3/2 59/3/2 67/3/2
f 52/1/2 60/1/2 68/1/2
f 60/1/2 61/1/2 68/1/2
f 61/1/2 62/1/2 68/1/2
f 68/1/2 62/1/2 69/1/2
f 62/3/2 63/3/2 70/3/2
f 69/1/2 62/1/2 70/1/2
f 64/1/2 65/1/2 71/1/2
f 70/3/2 63/3/2 71/3/2
f 63/1/2 64/1/2 71/1/2
f 71/1/2 65/1/2 72/1/2
f 65/3/2 66/3/2 73/3/2
f 72/1/2 65/1/2 73/1/2
f 66/1/2 67/1/2 74/1/2
f 73/3/2 66/3/2 74/3/2
f 67/1/2 53/1/2 75/1/2
f 74/1/2 67/1/2 75/1/2
f 71/1/2 72/1/2 76/1/2
f 69/1/2 70/1/2 76/1/2
f 72/3/2 73/3/2 76/3/2
f 70/1/2 71/1/2 76/1/2
f 73/1/2 74/1/2 77/1/2
f 76/3/2 73/3/2 77/3/2
f 74/3/2 75/3/2 78/3/2
f 77/1/2 74/1/2 78/1/2
f 75/1/2 53/1/2 79/1/2
f 78/3/2 75/3/2 79/3/2
f 68/3/2 69/3/2 80/3/2
f 52/1/2 68/1/2 80/1/2
f 76/1/2 77/1/2 81/1/2
f 80/3/2 69/3/2 81/3/2
f 69/1/2 76/1/2 81/1/2
f 77/3/2 78/3/2 82/3/2
f 81/1/2 77/1/2 82/1/2
f 80/1/2 81/1/2 82/1/2
f 78/1/2 79/1/2 83/1/2
f 82/3/2 78/3/2 83/3/2
f 52/1/2 80/1/2 84/1/2
f 80/1/2 82/1/2 84/1/2
f 82/1/2 83/1/2 84/1/2
f 79/1/2 53/1/2 85/1/2
f 84/1/2 83/1/2 85/1/2
f 83/1/2 79/1/2 85/1/2
f 88/1/3 87/1/3 86/1/3
f 90/1/3 88/1/3 86/1/3
f 90/1/3 89/1/3 88/1/3
f 91/1/3 89/1/3 90/1/3
f 95/4/3 93/4/3 92/4/3
f 96/2/3 94/2/3 93/2/3
f 96/4/3 93/4/3 95/4/3
f 97/2/3 94/2/3 96/2/3
f 102/1/3 99/1/3 98/1/3
f 103/1/3 99/1/3 102/1/3
f 104/1/3 101/1/3 100/1/3
f 105/1/3 101/1/3 104/1/3
f 106/1/4 107/1/4 108/1/4
f 108/1/4 107/1/4 109/1/4
f 112/1/5 111/1/5 110/1/5
f 113/1/5 111/1/5 112/1/5
f 116/4/5 115/4/5 114/4/5
f 117/4/5 115/4/5 116/4/5
f 118/1/6 119/1/6 120/1/6
f 120/1/6 119/1/6 121/1/6
f 122/2/6 123/2/6 124/2/6
f 124/2/6 123/2/6 125/2/6
f 126/1/6 127/1/6 129/1/6
f 128/1/6 129/1/6 130/1/6
f 129/1/6 127/1/6 131/1/6
f 130/1/6 129/1/6 131/1/6
